<svg id="Capa_1" enable-background="new 0 0 512.001 512.001" height="512" viewBox="0 0 512.001 512.001" width="512" xmlns="http://www.w3.org/2000/svg"><g><g><g><path d="m263.966 504-88-80-24.833 31.041c-3.477 4.346-1.563 10.827 3.717 12.587z" fill="#b3b5b6"/></g><g><path d="m263.966 504 48-72 32 32z" fill="#d4d5d5"/></g><g><path d="m287.966 408c61.856 0 112-50.144 112-112v-160h-248v136c0 75.111 60.89 136 136 136z" fill="#fff"/></g><g><path d="m359.966 248c16.394 0 30.445 9.885 36.623 24 2.147-4.906 3.377-10.302 3.377-16 0-22.091-17.909-40-40-40s-40 17.909-40 40c0 5.698 1.23 11.094 3.377 16 6.178-14.115 20.23-24 36.623-24z" fill="#f5df4d"/></g><g><path d="m367.966 72-93.554-53.459c-12.088-6.908-25.769-10.541-39.691-10.541-35.579 0-67.668 21.393-81.353 54.235l-17.402 41.765.121-.017c-10.076 13.383-16.121 29.974-16.121 48.017v72c0-44.183 35.817-80 80-80h176c13.255 0 24 10.745 24 24v-64c0-17.673-14.326-32-32-32z" fill="#d4d5d5"/></g><g><path d="m206.429 12.721c-23.557 7.996-43.148 25.725-53.061 49.514l-17.402 41.765.121-.017c-10.076 13.383-16.121 29.974-16.121 48.017v72c0-44.183 35.817-80 80-80h40v-80c0-22.934-13.8-42.62-33.537-51.279z" fill="#b3b5b6"/></g><path d="m398.286 280c-8.291 0-15.454 5.103-19.006 12.594-3.211 6.771-6.866 17.758-12.947 21.406-7.68 4.608-15.561 3.628-20.286 2.302-2.387-.67-4.509-2.139-5.692-4.319-3.737-6.886-9.415-11.45-17.479-9.93-6.776 1.278-13.757 1.947-20.891 1.947-7.206 0-14.231-.829-21.097-1.986-12.51-2.108-20.551 3.372-25.537 9.765-4.264 5.466-11.15 8.221-18.082 8.221h-5.708c-8.613 0-15.594-6.982-15.594-15.594v-40.333c7.286-9.749 18.892-16.073 32-16.073 16.394 0 30.445 9.885 36.623 24 2.147-4.906 3.377-10.302 3.377-16 0-22.091-17.909-40-40-40-13.086 0-24.702 6.285-32 15.999v-24.002c0-22.092 17.909-40.001 40.001-40l63.999.002c13.255 0 24-10.745 24-23.999h-144c-44.183 0-80 35.817-80 80-3.76 5.62-8.405 18.723-7.933 26.095 1.096 17.108 16.357 29.905 33.5 29.905h6.836c.104 1.795.396 3.457.569 5.203 2.269 23.423 10.449 45.113 23.027 63.544v75.253l88 79.999 48-72v-26.586c50.321-10.988 88-55.797 88-109.413v-16z" fill="#f5df4d"/><g><path d="m159.966 216c13.255 0 24-10.745 24-24v-46.393c-33.787 6.859-59.824 35.01-63.529 69.837-.019.183-.048.371-.066.554v.001z" fill="#d4d5d5"/></g><g><path d="m287.966 432c-9.936 0-19.652-.963-29.09-2.752-9.834-1.865-18.91 5.673-18.91 15.682v35.07l24 24 48-74.251c-7.805 1.397-15.798 2.251-24 2.251z" fill="#fff"/></g><g><path d="m224.86 338.617c-1.902-4.616-5.363-8.337-9.281-11.431-9.233-7.29-15.612-18.499-15.613-31.186 0-8.837-7.163-16-16-16h-31.192c4.164 71.366 63.186 128 135.596 128 6.865 0 13.56-.686 20.08-1.871-37.976-6.829-69.263-32.749-83.59-67.512z" fill="#d4d5d5"/></g><g><circle cx="247.966" cy="232" fill="#d4d5d5" r="16"/></g><g><circle cx="359.966" cy="232" fill="#d4d5d5" r="16"/></g></g><g fill="#939597"><path d="m370.241 64.066-91.825-52.471c-13.275-7.586-28.373-11.595-43.661-11.595-38.932 0-73.764 23.221-88.738 59.159l-17.089 41.014c-10.637 14.547-16.928 32.465-16.928 51.827v72.028c-5.021 6.685-8 14.987-8 23.972 0 22.056 17.944 40 40 40h1.054c2.577 23.286 10.688 44.835 22.946 63.36v69.834l-23.08 28.85c-3.266 4.082-4.332 9.513-2.851 14.527s5.326 8.994 10.285 10.647l109.116 36.373c.834.277 1.687.411 2.529.411 1.235 0 2.439-.302 3.532-.841.015-.005.032.002.046-.005l80-40c2.3-1.15 3.907-3.335 4.319-5.874.412-2.538-.421-5.12-2.24-6.938l-29.656-29.657v-17.026c50.682-14.039 88-60.571 88-115.661v-192c0-21.304-16.742-38.767-37.759-39.934zm-146.086 170.623c1.342 11.972 11.521 21.311 23.845 21.311 8.54 0 16.504-4.596 20.784-11.994 2.212-3.824.906-8.718-2.919-10.931-3.824-2.211-8.718-.906-10.931 2.919-1.429 2.471-4.086 4.006-6.934 4.006-4.411 0-8-3.589-8-8s3.589-8 8-8c17.645 0 32 14.355 32 32s-14.355 32-32 32-32-14.355-32-32c0-8.179 3.089-15.648 8.155-21.311zm67.268.881c3.759-2.315 8.103-3.57 12.577-3.57 4.488 0 8.825 1.248 12.58 3.563-2.932 6.205-4.58 13.131-4.58 20.437 0 9.331 2.686 18.043 7.311 25.42-1.16.346-2.261.953-3.202 1.84-2.654 2.504-6.485 3.94-10.51 3.94s-7.856-1.436-10.51-3.94c-1.734-1.636-4.006-2.339-6.207-2.141 4.51-7.312 7.118-15.915 7.118-25.119 0-7.303-1.646-14.227-4.577-20.43zm36.577 20.43c0-8.179 3.088-15.648 8.155-21.311 1.342 11.972 11.521 21.311 23.845 21.311 8.54 0 16.504-4.596 20.784-11.994 2.212-3.824.906-8.718-2.919-10.931-3.823-2.211-8.718-.906-10.931 2.919-1.429 2.471-4.086 4.006-6.934 4.006-4.411 0-8-3.589-8-8s3.589-8 8-8c17.645 0 32 14.355 32 32s-14.355 32-32 32-32-14.355-32-32zm32-48c-13.409 0-25.545 5.533-34.263 14.429-6.432-4.174-13.948-6.429-21.737-6.429-7.764 0-15.299 2.257-21.738 6.428-8.717-8.895-20.853-14.428-34.262-14.428h-104c-5.217 0-10.199 1.015-14.773 2.84 6.204-33.436 35.568-58.84 70.773-58.84h176c8.822 0 16 7.178 16 16v8.733c-14.032 1.201-44.092 5.466-68.231 20.508-3.75 2.336-4.896 7.271-2.559 11.021 1.517 2.434 4.126 3.771 6.797 3.77 1.444 0 2.907-.391 4.223-1.211 20.392-12.707 46.68-16.737 59.769-17.996v27.437c-8.497-7.618-19.714-12.262-31.999-12.262zm-128-128v56h-16v-56zm32 0v56h-16v-56zm32 0v56h-16v-56zm32 0v56h-16v-56zm32 0v56h-16v-56zm-160 56c-5.463 0-10.81.505-16 1.462v-55.648c5.15-1.173 10.5-1.814 16-1.814zm-32 6.026c-5.638 2.208-10.995 4.979-16 8.249v-51.883c4.799-4.301 10.177-7.962 16-10.864zm-40 9.974c0-11.859 2.9-23.047 8-32.921v44.587c-2.891 3.065-5.568 6.335-8 9.789zm264-48v36.294c-4.709-2.73-10.176-4.294-16-4.294v-54.624c9.312 3.302 16 12.195 16 22.624zm-157.245-88c12.508 0 24.861 3.28 35.722 9.486l67.399 38.514h-137.876c-15.796 0-30.631 4.186-43.459 11.503l4.246-10.191c12.482-29.956 41.516-49.312 73.968-49.312zm-77.34 444.039 19.51-24.387 53.652 48.774zm129.952 23.333 25.876-38.815 17.251 17.251zm16.633-53.794-41.498 62.248-78.502-71.365v-49.049c26.272 27.519 63.268 44.588 104 44.588 5.424 0 10.764-.369 16-1.069zm-16-29.578c-67.616 0-123.669-52.915-127.61-120.466-.247-4.23-3.749-7.534-7.986-7.534h-8.404c-13.234 0-24-10.766-24-24s10.766-24 24-24h68.261c-7.617 8.499-12.261 19.716-12.261 32 0 26.467 21.533 48 48 48 13.11 0 25.005-5.288 33.676-13.837.238 1.748 1.05 3.43 2.433 4.735 5.674 5.354 13.306 8.302 21.49 8.302s15.815-2.948 21.49-8.302c.757-.714 1.337-1.543 1.752-2.431 8.393 7.181 19.274 11.533 31.159 11.533 12.284 0 23.501-4.644 32-12.261v4.261c0 57.346-46.654 104-104 104z"/><path d="m323.453 318.04c-8.076-1.817-16.74-2.739-25.753-2.739s-17.677.921-25.753 2.739c-4.311.97-7.019 5.25-6.048 9.561.97 4.311 5.249 7.021 9.561 6.048 6.924-1.558 14.407-2.348 22.24-2.348s15.316.79 22.241 2.348c.591.133 1.182.197 1.764.197 3.659 0 6.96-2.526 7.797-6.246.969-4.309-1.739-8.59-6.049-9.56z"/><path d="m306.232 339.586c-5.615-.378-11.45-.378-17.066 0-4.408.296-7.741 4.11-7.445 8.519.297 4.408 4.101 7.743 8.519 7.445 4.904-.33 10.016-.33 14.918 0 .183.012.364.019.545.019 4.173 0 7.69-3.238 7.974-7.463.297-4.409-3.036-8.224-7.445-8.52z"/><path d="m290.783 196.531c-31.391-11.644-72.938-12.244-74.691-12.264-.031 0-.062 0-.093 0-4.375 0-7.945 3.521-7.997 7.907-.051 4.417 3.489 8.04 7.906 8.092.402.005 40.559.602 69.311 11.266.917.34 1.857.501 2.781.501 3.25 0 6.305-1.995 7.501-5.22 1.537-4.142-.575-8.746-4.718-10.282z"/></g></g></svg>