<svg id="Capa_1" enable-background="new 0 0 511.174 511.174" height="512" viewBox="0 0 511.174 511.174" width="512" xmlns="http://www.w3.org/2000/svg"><g><g><path d="m171.587 144v120c0 28.653 8.869 55.231 24 77.154v138.846h120v-80.287c58.122-4.103 104-52.547 104-111.713v-144z" fill="#fff"/><g><path d="m345.921 394 49.666 22v-56z" fill="#d4d5d5"/></g><g><g><path d="m323.792 454.522-.161-.227c.042.513.195 1.026.144 1.537-1.308 13.185-33.546 20.781-72.008 16.967s-68.582-17.593-67.274-30.777c.064-.644.341-1.247.549-1.863l-.063.059s-12.861 23.346-13.331 28.089c-1.455 14.688 33.163 30.147 77.32 34.528 44.158 4.381 81.136-3.974 82.591-18.662.565-5.703-7.767-29.651-7.767-29.651z" fill="#d4d5d5"/></g><g><path d="m251.453 472.763c-38.309-3.857-68.264-17.593-66.96-30.741.064-.644.341-1.247.549-1.863l-.063.059s-12.861 23.346-13.331 28.089c-1.455 14.688 33.163 30.147 77.32 34.528.837.083 1.652.131 2.484.205v-30.277z" fill="#b3b5b6"/></g></g><path d="m267.587 176h152v-24h-248v112c0 28.569 8.816 55.075 23.866 76.961v114.804l56 17.035v-35.884c0-10.006 9.072-17.548 18.903-15.684 9.498 1.801 19.269 2.768 29.25 2.768 5.369 0 10.64-.396 15.848-1.004v-24.246c-.583.083-1.17.151-1.755.227-41.806-23.201-70.111-67.776-70.111-118.978v-80c-.001-13.254 10.744-23.999 23.999-23.999z" fill="#f5df4d"/><g><path d="m417.162 86.563.792-.286c-8.314-44.552-47.402-78.277-94.367-78.277h-90.751c-58.481 0-108.446 42.157-118.288 99.804l-38.961 228.196 120 72v-269.5l40.5 13.5h199.5v-24c0-16.447-7.134-31.191-18.425-41.437z" fill="#d4d5d5"/></g><g><path d="m368.797 72h10.79c14.48 0 27.634 5.543 37.575 14.563l.792-.286c-8.314-44.552-47.402-78.277-94.367-78.277h-40c0 17.673 14.327 32 32 32h8c20.891 0 38.614 13.369 45.21 32z" fill="#f5df4d"/></g><g><path d="m411.587 112c0-22.091-17.909-40-40-40h8c30.928 0 56 25.072 56 56v24h-24z" fill="#f5df4d"/></g><g><path d="m243.587 72v80h-48v-32c0-26.51 21.49-48 48-48z" fill="#b3b5b6"/></g><g><path d="m163.587 29.997c-25.286 17.879-43.506 45.394-49.04 77.808l-38.96 228.195 120 72v-256c-17.673 0-32-14.327-32-32z" fill="#b3b5b6"/></g><g><path d="m267.587 200h-40v40c0 22.091 17.909 40 40 40s40-17.909 40-40-17.909-40-40-40z" fill="#d4d5d5"/></g><g><path d="m306.531 249.169c2.093-9.082.95-17.695-2.321-25.169h-20.623c-17.673 0-32 14.327-32 32v20.623c7.474 3.271 16.087 4.413 25.169 2.321 14.615-3.368 26.407-15.16 29.775-29.775z" fill="#f5df4d"/></g><g><path d="m387.587 200h40v40c0 22.091-17.909 40-40 40s-40-17.909-40-40 17.909-40 40-40z" fill="#d4d5d5"/></g><g><path d="m371.587 248v28.623c4.906 2.147 10.302 3.377 16 3.377 22.091 0 40-17.909 40-40v-16h-32c-13.255 0-24 10.745-24 24z" fill="#f5df4d"/></g></g><g fill="#939597"><path d="m325.321 300.216c8.183 0 15.814-2.948 21.49-8.302 3.214-3.032 3.361-8.095.33-11.309-3.032-3.213-8.095-3.362-11.309-.33-2.654 2.504-6.485 3.94-10.51 3.94s-7.856-1.436-10.51-3.94c-3.214-3.031-8.277-2.884-11.309.33s-2.884 8.277.33 11.309c5.674 5.354 13.306 8.302 21.488 8.302z"/><path d="m345.352 317.227c-7.505-5.972-17.194-9.261-27.281-9.261s-19.775 3.289-27.28 9.261c-5.386 4.286-7.406 11.237-5.146 17.709 2.234 6.397 8.069 10.53 14.865 10.53h35.121c6.796 0 12.631-4.133 14.866-10.531 2.261-6.471.241-13.422-5.145-17.708zm-44.234 12.236c4.637-3.548 10.637-5.497 16.954-5.497 6.285 0 12.258 1.93 16.947 5.5z"/><path d="m326.071 352.716h-16c-4.418 0-8 3.582-8 8s3.582 8 8 8h16c4.418 0 8-3.582 8-8s-3.581-8-8-8z"/><path d="m425.572 83.53c-9.675-48.479-52.356-83.53-101.985-83.53h-90.751c-62.579 0-115.643 44.772-126.174 106.458l-38.96 228.196c-.555 3.251.942 6.509 3.77 8.206l115.986 69.592v12.704c-5.98 3.67-8.287 7.636-10.089 11.476-8.662 15.803-13.272 25.924-13.681 30.058-.757 7.645 3.183 18.919 26.254 29.222 15.367 6.862 36.049 11.854 58.237 14.055 8.132.807 16.137 1.207 23.827 1.207 13.291 0 25.637-1.195 36.035-3.544 24.646-5.569 30.723-15.851 31.48-23.497.623-6.288-4.513-22.467-7.86-32.165-1.511-4.53-2.593-8.729-8.057-13.647v-31.371c7.236-.96 14.269-2.57 21.042-4.764l47.701 21.129c1.036.459 2.14.686 3.24.686 1.527 0 3.045-.437 4.364-1.295 2.269-1.476 3.637-3.999 3.637-6.705v-55.882c15.154-20.09 24.151-45.072 24.151-72.118v-21.743c4.955-7.551 7.849-16.57 7.849-26.257v-40c0-4.418-3.582-8-8-8v-32h8c4.418 0 8-3.582 8-8v-24c-.001-17.262-6.868-32.948-18.016-44.471zm-253.998 300.733c.003-.088.013-.174.013-.263v-256c0-44.112 35.888-80 80-80h88c4.418 0 8-3.582 8-8s-3.582-8-8-8h-88c-52.935 0-96 43.065-96 96v246.67l-16-9.6v-165.07c0-4.418-3.582-8-8-8s-8 3.582-8 8v155.47l-39.193-23.516 38.04-222.804c9.215-53.975 55.645-93.15 110.402-93.15h90.751c35.681 0 67.116 21.403 80.782 52.993-7.625-3.214-16-4.993-24.782-4.993h-128c-35.29 0-64 28.71-64 64v265.869zm32.013-20.962c26.901 28.278 64.364 44.659 104.017 44.697v51.745c-2.065.797-4.606 1.595-7.734 2.332-12.764 3.007-29.567 3.694-47.312 1.935-17.747-1.76-34.087-5.733-46.012-11.188-1.122-.513-2.131-1.015-3.087-1.509zm100.927 128.722c-14.785 3.34-34.231 4.057-54.756 2.022-46.253-4.589-70.157-20.026-70.158-25.597.44-1.65 2.343-5.804 4.82-10.779 3.546 3.24 8.533 6.529 15.468 9.702 13.488 6.17 31.632 10.631 51.089 12.561 6.917.686 13.733 1.025 20.295 1.025 11.898 0 22.96-1.116 32.266-3.309 7.601-1.791 13.229-4.102 17.37-6.653 1.555 5.383 2.654 9.908 2.678 11.644-.316 1.782-5.27 6.265-19.072 9.384zm83.073-88.316-22.859-10.125c8.249-4.47 15.914-9.883 22.859-16.087zm24.151-115.707c0 57.346-46.654 104-104 104-41.416 0-80.158-20.069-104.151-53.794v-114.206h16v16c0 26.467 21.533 48 48 48s48-21.533 48-48h24c0 26.467 21.533 48 48 48 8.802 0 17.051-2.392 24.151-6.545zm-144.151-80c17.645 0 32 14.355 32 32s-14.355 32-32 32-32-14.355-32-32v-32zm152 32c0 17.645-14.355 32-32 32s-32-14.355-32-32 14.355-32 32-32h6.778c.047.001.095.011.142.011.045 0 .089-.01.135-.011h24.946v32zm8-96h-96v-16c0-4.418-3.582-8-8-8s-8 3.582-8 8v16h-16v-32c0-4.418-3.582-8-8-8s-8 3.582-8 8v32h-48c-4.418 0-8 3.582-8 8s3.582 8 8 8h176v32h-15.925c-11.083-3.414-22.841-6.133-34.985-8.072-4.366-.7-8.465 2.275-9.162 6.638s2.275 8.465 6.638 9.162c.896.143 1.785.299 2.676.451-8.464 5.709-15.021 14.039-18.49 23.821h-29.504c-3.256-9.181-9.233-17.082-16.952-22.739 2.895-.557 5.819-1.068 8.77-1.53 4.365-.683 7.35-4.776 6.667-9.141s-4.772-7.348-9.141-6.667c-12.282 1.922-24.17 4.643-35.371 8.076h-39.219c-4.418 0-8 3.582-8 8v8h-16v-80c0-26.467 21.533-48 48-48h128c26.467 0 48 21.533 48 48v16.001z"/></g></g></svg>