<svg id="Capa_1" enable-background="new 0 0 512 512" height="512" viewBox="0 0 512 512" width="512" xmlns="http://www.w3.org/2000/svg"><g><g><path d="m297.969 67.15-159.481 41.969v83.938c-18.543 0-33.575 15.032-33.575 33.575s15.032 33.575 33.575 33.575h.424c1.848 31.675 13.998 60.582 33.151 83.397v86.321c0 7.745-1.531 15.414-4.505 22.564l-6.459 15.529c-1.683 4.046-1.081 8.738 1.788 12.051 9.488 10.958 38.153 20.446 72.578 22.939 38.667 2.801 71.417-4.178 78.301-15.929 1.147-1.958 1.19-4.374.383-6.495l-12.128-33.316c-2.679-7.362-4.05-15.135-4.05-22.969v-30.991c56.947-8.147 100.725-57.114 100.725-116.314v-167.875z" fill="#fff"/><g><path d="m172.062 421.531v-161.324h-50.362c0 33.575-25.181 100.725-25.181 159.481l36.845-15.791-3.27 32.578z" fill="#b3b5b6"/></g><g><path d="m222.425 268.6v-25.133c0-9.279 7.508-16.809 16.787-16.835 17.201 0 31.944 10.371 38.426 25.181 3.432-7.842 4.631-16.879 2.435-26.408-3.534-15.335-15.906-27.707-31.24-31.24-9.529-2.196-18.566-.997-26.408 2.435 0-6.593 2.808-12.828 7.682-17.267 32.992-30.047 69.743-68.423 87.678-103.925l-19.816-8.257-159.481 41.969v83.938c-22.238 0-39.426 21.619-31.693 44.987 4.449 13.444 17.533 22.163 31.693 22.163h.424c1.848 31.675 13.998 60.582 33.151 83.397v86.321c0 7.745-1.531 15.415-4.506 22.566l-6.459 15.528c-1.65 3.968-1.139 8.592 1.636 11.873 8.903 10.529 35.595 19.657 68.085 22.656v-59.379c0-15.191 13.339-26.908 28.4-24.92 7.188.949 14.519 1.44 21.963 1.44 5.689 0 11.271-.427 16.787-1.078v-25.302l-9.165-4.19c-39.88-25.302-66.379-69.795-66.379-120.52z" fill="#f5df4d"/><g><path d="m356.725 226.632c17.2 0 31.944 10.371 38.426 25.181 2.253-5.147 3.543-10.809 3.543-16.788 0-23.179-18.79-41.969-41.969-41.969s-41.969 18.79-41.969 41.969c0 5.978 1.291 11.64 3.543 16.788 6.482-14.81 21.226-25.181 38.426-25.181z" fill="#f5df4d"/></g><g><path d="m306.363 8.394h-75.544c-69.536 0-125.906 56.37-125.906 125.906v92.331c0-18.543 15.032-33.575 33.575-33.575h33.575s100.725-67.15 124.857-132.202l1.049 31.477 117.513 67.15v-41.969c-.001-60.264-48.855-109.118-109.119-109.118z" fill="#d4d5d5"/></g><g><g><path d="m341.309 14.214c15.442 18.994 21.901 43.607 17.642 67.798-2.673 15.186-5.966 28.41-9.407 39.791l65.937 37.679v-41.969c0-48.027-31.069-88.717-74.172-103.299z" fill="#f5df4d"/></g></g><g><path d="m104.912 134.3v72.736l.004.01c18.726-12.486 56.62-41.004 99.27-80.65 17.024-15.825 26.633-38.113 26.633-61.356v-56.646c-69.537 0-125.907 56.37-125.907 125.906z" fill="#b3b5b6"/></g></g></g><g fill="#939597"><path d="m306.363 0h-75.544c-74.054 0-134.3 60.247-134.3 134.3v92.331c0 13.701 6.601 25.889 16.789 33.553 0 .007-.001.015-.001.022 0 13.518-4.53 33.591-9.777 56.833-7.221 31.991-15.405 68.251-15.405 102.648 0 2.845 1.442 5.497 3.83 7.044 1.381.895 2.968 1.349 4.565 1.349 1.165 0 2.334-.242 3.43-.733l23.689-10.607-1.897 18.896c-.287 2.862.911 5.673 3.176 7.447 1.499 1.174 3.326 1.785 5.176 1.785.946 0 1.898-.16 2.815-.486l30.621-10.904c-.38 5.428-1.618 10.725-3.723 15.786l-6.459 15.529c-2.961 7.119-1.737 15.077 3.193 20.769 11.305 13.056 42.047 23.189 78.316 25.816 5.625.408 11.368.62 17.098.62 30.463-.001 60.458-6.009 69.052-20.678 2.38-4.063 2.747-9.037 1.01-13.658l-12.11-33.267c-2.352-6.461-3.544-13.223-3.544-20.098v-23.93c57.4-11.698 100.725-62.571 100.725-123.375v-112.639l4.229 2.417c2.598 1.485 5.789 1.474 8.378-.028 2.588-1.502 4.18-4.268 4.18-7.26v-41.969c0-64.797-52.716-117.513-117.512-117.513zm-170.457 294.517-10.335 102.965-20.256 9.07c1.703-28.722 8.499-58.831 14.59-85.816 4.629-20.508 8.711-38.633 9.858-53.054.394.083.791.155 1.189.227.943 8.865 2.656 17.502 5.07 25.846-.049.25-.09.504-.116.762zm27.763 121.093-23.899 8.511 9.846-98.098c4.12 7.275 8.826 14.175 14.053 20.638zm121.168 76.67c-13.625 2.811-30.944 3.648-48.767 2.357-34.648-2.509-59.85-11.992-66.839-20.062-.726-.838-.876-2.147-.383-3.333l3.821-9.187c15.013 8.021 37.495 13.807 61.632 15.707 5.761.454 11.434.676 16.955.676 19.888 0 37.738-2.883 50.215-8.134l4.73 12.993c-1.763 2.228-7.853 6.195-21.364 8.983zm9.295-42.141 1.6 4.397c-13.008 5.873-35.779 8.407-60.112 6.491-22.91-1.804-44.527-7.492-57.134-14.95 1.307-5.263 1.97-10.665 1.97-16.152v-65.602c26.751 23.973 62.062 38.578 100.726 38.578 2.821 0 5.618-.103 8.393-.286v21.685c0 8.838 1.533 17.532 4.557 25.839zm96.168-173.144c0 60.168-48.951 109.118-109.119 109.118-74.054 0-134.3-60.247-134.3-134.3 0-4.636-3.758-8.394-8.394-8.394-4.157 0-7.6 3.025-8.268 6.993-9.835-3.429-16.914-12.79-16.914-23.78 0-13.885 11.296-25.181 25.181-25.181h12.873c-3.875 2.98-6.153 4.668-6.31 4.783-3.732 2.749-4.529 8.003-1.781 11.736 1.646 2.235 4.188 3.417 6.766 3.417 1.728 0 3.472-.532 4.97-1.635.164-.121 9.506-7.02 23.474-18.3h23.235c-7.993 8.917-12.865 20.686-12.865 33.575 0 27.77 22.593 50.363 50.363 50.363s50.363-22.593 50.363-50.363c0-7.663-1.728-14.928-4.802-21.436 3.944-2.429 8.501-3.745 13.196-3.745 4.709 0 9.259 1.309 13.199 3.739-3.077 6.51-4.805 13.777-4.805 21.442 0 12.723 4.752 24.35 12.561 33.225-2.628-.82-5.604-.338-7.876 1.554-2.844 2.368-7.005 3.726-11.417 3.726s-8.574-1.358-11.417-3.725c-3.562-2.967-8.855-2.483-11.821 1.08s-2.483 8.855 1.08 11.821c5.895 4.909 13.764 7.611 22.158 7.611 8.393 0 16.262-2.703 22.158-7.611 2.742-2.282 3.652-5.94 2.578-9.129 8.759 7.364 20.047 11.811 32.359 11.811 12.889 0 24.658-4.872 33.575-12.865zm-191.603-92.332c2.278-1.945 4.601-3.947 6.963-6.005.041 1.148.313 2.307.853 3.405.504 1.026 1.2 1.891 2.011 2.599h-9.827zm40.515 16.787c18.514 0 33.575 15.062 33.575 33.575s-15.061 33.575-33.575 33.575-33.575-15.062-33.575-33.575 15.062-33.575 33.575-33.575zm117.513 67.15c-18.513 0-33.575-15.062-33.575-33.575s15.062-33.575 33.575-33.575c18.514 0 33.575 15.062 33.575 33.575s-15.061 33.575-33.575 33.575zm50.363-123.583-46.198-26.399c-4.187-2.393-9.564-.784-11.714 3.618-1.962 4.017-.246 8.882 3.635 11.1l37.49 21.422v11.282c-11.459-3.848-29.937-8.383-50.702-6.977-4.465.302-8.107 4-8.054 8.475.057 4.871 4.187 8.616 8.98 8.288 21.8-1.526 41.187 4.735 49.776 8.084v.75h-33.575c-14.069 0-26.802 5.806-35.949 15.139-6.75-4.378-14.636-6.745-22.807-6.745-8.146 0-16.052 2.368-22.807 6.745-9.147-9.333-21.88-15.138-35.949-15.138h-18.52c6.688-2.581 24.526-8.339 51.501-8.81 4.461-.078 8.307-3.495 8.532-7.951.248-4.904-3.664-8.905-8.517-8.839-26.202.42-44.721 5.392-54.335 8.747 30.82-27.912 54.343-53.329 70.307-75.926-4.794 18.626-10.278 31.505-13.683 38.485-1.946 3.988-.652 8.949 3.183 11.181 1.344.782 2.799 1.149 4.23 1.149 3.102 0 6.084-1.727 7.542-4.7 4.955-10.103 14.129-31.946 19.898-64.721 2.394-13.599-3.615-23.219-7.416-27.751-3.709-4.412-11.879-11.778-25.152-11.949-4.6-.059-8.646 3.404-8.855 7.999-.219 4.814 3.619 8.785 8.385 8.785 4.027 0 6.85.775 8.959 2.024 1.645.974 2.735 2.665 3.001 4.558.18 1.277-.021 2.58-.605 3.731-22.226 43.794-80.382 95.491-115.184 123.987h-24.177c9.129-7.274 18.982-15.387 29.008-24.079 3.469-3.007 4.158-8.312 1.252-11.865-3.008-3.679-8.439-4.125-12.003-1.032-19.925 17.287-39.191 32.273-53.257 42.788v-56.172c0-64.9 52.612-117.513 117.513-117.513h45.493c14.881 0 28.907 6.543 38.483 17.951 9.66 11.508 13.702 26.615 11.092 41.448-9.125 51.842-26.346 78.394-26.519 78.657-2.556 3.855-1.512 9.055 2.34 11.622 1.431.954 3.048 1.411 4.648 1.411 2.712 0 5.374-1.313 6.992-3.739.783-1.174 19.277-29.386 29.073-85.041 3.472-19.731-1.909-39.833-14.766-55.15-1.774-2.113-3.673-4.088-5.663-5.945 48.145 7.532 85.098 49.286 85.098 99.511v27.505z"/><path d="m221.141 237.694c1.476 1.052 3.177 1.557 4.861 1.557 2.623 0 5.207-1.226 6.845-3.526 1.606-2.254 5.033-6.037 9.95-6.037 4.918 0 8.345 3.782 9.95 6.036 2.689 3.777 7.931 4.657 11.706 1.97 3.777-2.689 4.658-7.93 1.97-11.706-5.922-8.317-14.533-13.088-23.625-13.088s-17.703 4.77-23.625 13.087c-2.69 3.777-1.808 9.018 1.968 11.707z"/><path d="m329.34 225.988c-2.689 3.776-1.807 9.017 1.969 11.706 1.477 1.052 3.177 1.557 4.861 1.557 2.623 0 5.207-1.226 6.845-3.526 1.606-2.254 5.033-6.037 9.95-6.037 4.918 0 8.345 3.782 9.95 6.036 2.689 3.777 7.93 4.657 11.706 1.97 3.777-2.689 4.658-7.93 1.97-11.706-5.922-8.317-14.533-13.088-23.625-13.088-9.093.001-17.704 4.771-23.626 13.088z"/><path d="m365.169 302.797-13.23-11.224c-3.534-2.999-8.831-2.565-11.831.971-1.225 1.444-1.867 3.182-1.969 4.938h-87.485c-.102-1.755-.744-3.494-1.969-4.938-2.999-3.535-8.296-3.97-11.831-.971l-13.23 11.224c-3.535 2.999-3.969 8.296-.971 11.831 1.66 1.957 4.025 2.964 6.405 2.964 1.223 0 2.449-.268 3.586-.807 6.408 22.25 31.961 38.93 62.439 38.93 30.265 0 55.673-16.448 62.301-38.464.769.224 1.56.342 2.351.342 2.38 0 4.745-1.007 6.405-2.964 2.999-3.536 2.564-8.833-.971-11.832zm-70.086 36.129c-21.893 0-40.354-10.483-45.672-24.657h91.345c-5.319 14.174-23.779 24.657-45.673 24.657z"/></g></g></svg>