<svg id="Capa_1" enable-background="new 0 0 511.217 511.217" height="512" viewBox="0 0 511.217 511.217" width="512" xmlns="http://www.w3.org/2000/svg"><g><g><path d="m147.614 128.414v112h-8c-17.673 0-32 14.327-32 32s14.327 32 32 32h8.404c1.761 30.189 13.341 57.74 31.596 79.485v96.515h120v-49.143c54.275-7.765 96-54.435 96-110.857v-192z" fill="#fff"/><path d="m291.155 431.686c-33.785-18.429-59.236-50.904-68.109-89.509 1.296.904 2.868 1.437 4.568 1.437 4.418 0 8-3.582 8-8s-3.582-8-8-8c-2.765 0-5.201 1.403-6.638 3.534-.896-6.255-1.362-12.643-1.362-19.135v-184h-72v112h-8c-17.673 0-32 14.327-32 32s14.327 32 32 32h8.404c1.761 30.189 13.341 57.74 31.596 79.485v96.515h56v-11.083c0-10.006 9.073-17.548 18.903-15.684 9.498 1.801 19.269 2.768 29.249 2.768 5.369 0 10.64-.396 15.848-1.004v-24.246c-2.793.397-5.613.707-8.459.922z" fill="#f5df4d"/><g><path d="m259.614 8.414h-48c-30.928 0-56 25.072-56 56 0 30.928 25.072 56 56 56h48c30.928 0 56-25.072 56-56 0-30.928-25.072-56-56-56z" fill="#d4d5d5"/></g><g><path d="m132.783 19.623c-3.954-3.007-8.554-5.053-13.436-5.974l-27.733-5.235 12.452 25.328c2.192 4.458 5.391 8.345 9.345 11.352l37.98 28.886 34.626-13.869z" fill="#d4d5d5"/></g><g><path d="m132.783 19.623c-3.954-3.007-8.554-5.053-13.436-5.974l-27.733-5.235 12.452 25.328c2.192 4.458 5.391 8.345 9.345 11.352l6.723 5.113 19.372-25.47z" fill="#f5df4d"/></g><g><path d="m259.614 8.414h-48c30.928 0 56 25.072 56 56s-25.072 56-56 56h48c30.928 0 56-25.072 56-56s-25.072-56-56-56z" fill="#f5df4d"/></g><g><g><path d="m307.954 454.136-.161-.227c.042.513.195 1.026.144 1.537-1.308 13.185-33.546 20.781-72.008 16.967s-68.582-17.593-67.274-30.777c.064-.644.341-1.247.549-1.863l-.063.059s-12.861 23.346-13.331 28.089c-1.455 14.688 33.163 30.147 77.32 34.528 44.158 4.381 81.136-3.974 82.591-18.662.565-5.703-7.767-29.651-7.767-29.651z" fill="#d4d5d5"/></g><g><path d="m235.614 472.377c-38.309-3.857-68.264-17.593-66.96-30.741.064-.644.341-1.247.549-1.863l-.063.059s-12.861 23.346-13.331 28.089c-1.455 14.688 33.163 30.147 77.32 34.528.837.083 1.652.131 2.484.205v-30.277z" fill="#b3b5b6"/></g></g><g><path d="m339.59 56.414h-122.861c-69.463 0-122.174 62.577-110.372 131.029l10.511 60.965 1.883.162c6.013-5.112 13.902-8.156 22.239-8.156 21.332 0 38.625-17.293 38.625-38.625v-25.375c0-26.51 21.49-48 48-48h120c26.51 0 48 21.49 48 48v95.987l.151.013 22.487-121.433c9.108-49.182-28.644-94.567-78.663-94.567z" fill="#d4d5d5"/></g><g><path d="m194.895 104.414c-12.857 0-23.28-10.423-23.28-23.28v-15.148c-45.327 19.993-74.312 68.937-65.257 121.457l10.511 60.965 1.883.162c6.013-5.112 13.902-8.156 22.239-8.156 21.332 0 38.625-17.293 38.625-38.625v-25.375c0-23.778 17.307-43.464 40-47.28-.002-13.653-11.069-24.72-24.721-24.72z" fill="#b3b5b6"/></g><g><g><path d="m339.59 56.414h-11.976c19.882 0 36 16.118 36 36s-16.118 36-36 36h20c26.51 0 48 21.49 48 48v95.987l.151.013 22.487-121.433c9.109-49.182-28.643-94.567-78.662-94.567z" fill="#f5df4d"/></g></g><g><circle cx="243.614" cy="264.414" fill="#d4d5d5" r="16"/></g><g><circle cx="355.614" cy="264.414" fill="#d4d5d5" r="16"/></g><g><circle cx="147.614" cy="304.414" fill="#d4d5d5" r="16"/></g><g><circle cx="363.614" cy="335.614" fill="#f5df4d" r="8"/></g></g><g fill="#939597"><path d="m208.516 237.116c.91 0 1.836-.156 2.741-.487.298-.109 30.181-10.871 64.213-11.417 4.417-.071 7.941-3.709 7.871-8.127-.07-4.374-3.638-7.872-7.997-7.872-.043 0-.087 0-.131.001-36.698.588-68.119 11.902-69.438 12.384-4.151 1.514-6.289 6.106-4.774 10.257 1.183 3.247 4.25 5.261 7.515 5.261z"/><path d="m264.167 276.259c2.362-3.804 1.591-8.89-2.159-11.337-3.831-2.5-8.908-1.292-11.231 2.557-1.266 2.097-3.326 3.665-5.747 4.038-5.729.883-10.562-4.359-8.95-10.173.958-3.454 4.235-5.672 7.818-5.731 4.62-.075 8.287-4.066 7.828-8.798-.404-4.163-4.105-7.255-8.287-7.199-10.288.138-19.03 6.784-22.298 15.998h-17.253c-4.261 0-7.981 3.215-8.257 7.467-.302 4.659 3.388 8.533 7.983 8.533h16.257c.746 0 1.419.449 1.705 1.137.301.724.169 1.537-.291 2.171-1.064 1.466-1.642 3.308-1.498 5.288.307 4.23 4.035 7.404 8.276 7.404h15.702c8.292 0 16.041-4.332 20.402-11.355z"/><path d="m312.943 305.674c-2.654 2.504-6.485 3.94-10.51 3.94s-7.856-1.436-10.51-3.94c-3.213-3.032-8.277-2.884-11.309.329-3.032 3.214-2.885 8.277.329 11.309 5.674 5.354 13.307 8.302 21.49 8.302s15.815-2.948 21.49-8.302c3.214-3.032 3.361-8.095.329-11.309-3.033-3.214-8.096-3.362-11.309-.329z"/><path d="m245.63 340.216c-1.187 3.093-.345 6.597 2.117 8.812.292.263 7.26 6.505 17.025 12.783 13.698 8.806 25.92 13.271 36.326 13.271 24.959 0 45.455-25.982 46.315-27.088 1.876-2.412 2.214-5.682.872-8.427s-4.131-4.485-7.187-4.485h-88c-3.312 0-6.281 2.041-7.468 5.134zm75.601 10.866c-5.994 4.379-13.132 8-20.132 8-7.097 0-15.552-3.584-23.2-8z"/><path d="m307.071 382.804c-2.054.538-4.063.811-5.973.811-1.879 0-3.962-.262-6.19-.78-4.304-1.001-8.603 1.679-9.603 5.982s1.679 8.603 5.982 9.603c3.413.793 6.714 1.195 9.81 1.195 3.276 0 6.65-.448 10.026-1.333 4.274-1.119 6.832-5.491 5.712-9.766-1.117-4.274-5.486-6.831-9.764-5.712z"/><path d="m407.245 79.738c-16.771-20.161-41.43-31.724-67.654-31.724h-17.86c-7.187-27.806-32.679-48.014-61.965-48.014h-48c-.029 0-.058.001-.087.001-.022 0-.043-.001-.065-.001-.027 0-.052.004-.079.004-21.662.076-41.396 10.875-53.135 28.653l-20.775-15.801c-4.917-3.74-10.724-6.322-16.795-7.468l-27.732-5.235c-2.975-.562-6.017.606-7.852 3.018-1.834 2.412-2.148 5.653-.812 8.373l12.452 25.328c2.726 5.544 6.765 10.451 11.682 14.19l6.72 5.111c.001.001.002.001.003.002 0 0 .001.001.002.001l25.198 19.165c-5.585 4.601-10.795 9.729-15.542 15.364-22.854 27.131-32.503 62.74-26.477 97.698l10.161 58.934c-4.79 5.839-7.938 12.978-8.682 20.774-1.69 17.719 8.249 34.002 24.148 40.722 1.961 9.583 9.653 17.098 19.325 18.808 4.917 22.019 14.744 41.933 28.193 58.671v38.887c-5.981 3.67-8.825 7.821-10.089 11.478-8.661 15.802-13.271 25.922-13.681 30.056-.757 7.645 3.183 18.919 26.254 29.222 15.367 6.862 36.049 11.854 58.237 14.055 8.132.807 16.137 1.207 23.827 1.207 13.291 0 25.637-1.195 36.035-3.544 24.646-5.569 30.69-15.854 31.48-23.497.516-4.985-7.86-32.164-7.86-32.164-1.17-3.806-2.593-8.729-8.057-13.649v-.762c54.708-11.149 96-59.636 96-117.587v-47.266l22.354-120.71c4.778-25.786-2.102-52.138-18.872-72.3zm-77.813-15.659c14.594.941 26.182 13.107 26.182 27.935s-11.587 26.994-26.182 27.934c6.264-7.604 10.031-17.337 10.031-27.935s-3.767-20.33-10.031-27.934zm-69.666-48.079c20.541 0 38.593 13.249 45.256 32.014h-31.443c-3.265-12.636-10.304-23.701-19.772-32.014zm-48.087.001c20.514.028 38.536 13.267 45.192 32.012h-40.142c-9.677 0-19.202 1.167-28.404 3.401l-17.152-13.044c8.744-13.879 23.873-22.339 40.506-22.369zm-93.07 22.595-.355-.27c-2.95-2.243-5.373-5.188-7.009-8.514l-5.393-10.969 12.011 2.267c3.642.688 7.127 2.237 10.077 4.481l.354.27zm12.735 9.686 9.686-12.736 28.875 21.961c-5.447 2.307-10.719 5.014-15.772 8.107zm5.843 52.731c19.806-23.513 48.798-36.999 79.542-36.999h78.734c15.439 0 28 12.561 28 28s-12.561 28-28 28h-67.697c-30.33 0-55.088 24.242-55.958 54.365-1.957 15.29-14.885 26.682-30.536 26.682-.009 0-.018 0-.026 0-8.364 0-16.404 2.443-23.176 6.825l-3.828-22.201c-5.225-30.297 3.139-61.159 22.945-84.672zm34.191 105.228c-2.332 14.589-15.001 25.773-30.236 25.773-6.481 0-12.671 1.492-18.2 4.136l-1.72-9.978c4.839-5.66 12.325-9.112 20.024-9.112h.026c11.462.001 21.965-4.033 30.106-10.819zm-23.764 105.773c-4.411 0-8-3.589-8-8s3.589-8 8-8 8 3.589 8 8-3.588 8-8 8zm141.062 180.052c-14.785 3.34-34.231 4.058-54.756 2.022-46.253-4.589-70.157-20.026-70.158-25.596.44-1.65 2.343-5.804 4.82-10.779 3.546 3.24 8.533 6.529 15.468 9.702 13.488 6.17 31.632 10.631 51.089 12.561 6.917.686 13.733 1.025 20.295 1.025 11.898 0 22.96-1.116 32.266-3.309 7.601-1.791 13.228-4.102 17.37-6.653 1.555 5.383 2.654 9.908 2.678 11.644-.316 1.781-5.271 6.264-19.072 9.383zm-101.057-40.711v-48.144c25.637 23.031 59.474 36.802 96.147 36.802 2.689 0 5.355-.098 8-.273v20.045c-2.065.797-4.606 1.595-7.735 2.332-12.763 3.007-29.566 3.695-47.312 1.935-17.747-1.76-34.087-5.733-46.012-11.188-1.122-.513-2.132-1.014-3.088-1.509zm222.768-302.231-6.621 35.754v-8.865c0-15.994-6.864-31.261-18.831-41.887-3.303-2.934-8.36-2.633-11.294.671-2.933 3.304-2.633 8.36.671 11.294 8.55 7.592 13.454 18.498 13.454 29.922v42.535c-11.079-3.643-31.26-8.939-55.872-9.334-4.458-.084-8.057 3.453-8.127 7.871-.071 4.418 3.453 8.056 7.871 8.127 27.109.435 48.686 7.525 56.128 10.3v20.102h-16c-4.435 0-7.978 3.606-8 8.04-.024 4.877-4.435 8.736-9.481 7.826-3.035-.548-5.542-2.888-6.277-5.883-.956-3.896 1.001-7.701 4.446-9.27 3.486-1.587 5.709-5.207 4.949-8.961-1.043-5.154-6.41-7.797-10.981-5.864-9.409 3.98-15.299 13.447-14.6 23.768.861 12.689 11.814 22.343 24.532 22.343h15.114c4.247 0 7.979-3.184 8.277-7.421.142-2.019-.465-3.892-1.572-5.37-.434-.58-.526-1.331-.248-2 .003-.008.006-.016.01-.023.292-.707.96-1.186 1.725-1.186h8.106v48.4c0 57.346-46.654 104-104 104-59.856 0-111.218-41.261-124.527-99.012 7.374-4.1 12.376-11.969 12.376-20.988 0-13.234-10.766-24-24-24-8.931 0-16.732 4.907-20.865 12.163-7.381-4.752-11.75-13.316-10.869-22.548 1.156-12.121 12.252-21.615 25.261-21.615 25.709 0 46.625-20.916 46.625-46.624v-25.376c0-.17.011-.338.013-.508.028-.261.066-.518.09-.78l-.07-.006c.688-21.458 18.345-38.706 39.967-38.706h99.849c24.262 0 44-19.738 44-44 0-8.605-2.492-16.634-6.779-23.422 11.581 4.33 21.982 11.608 30.109 21.378 13.719 16.497 19.348 38.058 15.441 59.155z"/></g></g></svg>