<svg id="Capa_1" enable-background="new 0 0 511.762 511.762" height="512" viewBox="0 0 511.762 511.762" width="512" xmlns="http://www.w3.org/2000/svg"><g><g><g><path d="m228.8 423.771h80v48h-80z" fill="#fff"/></g><g><path d="m148.8 111.771v112h-8c-17.673 0-32 14.327-32 32s14.327 32 32 32h8.404c4.164 71.366 63.186 128 135.596 128 61.856 0 112-50.144 112-112v-192z" fill="#fff"/></g><path d="m396.8 303.772s-.039-12.753-.028-8.109c.042 17.705-14.295 32.109-32 32.109h-127.972c-13.255 0-24-10.745-24-24v-152h-48v72h-22.625c-16.713 0-31.638 12.218-33.225 28.856-1.821 19.085 13.139 35.144 31.85 35.144h8.447c1.489 25.483 9.97 49.086 23.553 68.906v123.094h64v-26.764c0-9.984 9.036-17.521 18.852-15.693 9.467 1.763 19.208 2.692 29.148 2.692 8.202 0 16.195-.854 24-2.251v-24.569c50.321-10.99 88-55.799 88-109.415z" fill="#f5df4d"/><g><circle cx="244.8" cy="247.771" fill="#d4d5d5" r="16"/></g><g><circle cx="356.8" cy="247.771" fill="#d4d5d5" r="16"/></g><g><circle cx="148.8" cy="287.771" fill="#d4d5d5" r="16"/></g><g><path d="m211.843 334.826c-9.267-7.392-15.201-18.743-15.04-31.564.164-13.059-10.943-23.491-24.003-23.491h-24v8h.404c4.164 71.366 63.186 128 135.596 128 6.865 0 13.56-.686 20.08-1.871-37.976-6.829-69.263-32.749-83.591-67.512-1.929-4.681-5.488-8.405-9.446-11.562z" fill="#d4d5d5"/></g><g><path d="m348.8 19.085s-11.2 19.086-28.024 31.239c5.443-17.882-5.688-35.14-43.31-34.984-160.666.666-184.666 70.666-184.666 108.166s21 110 21 110l3.686.47c5.84-6.245 14.089-10.205 23.314-10.205h24v-61.471c83.69 2.774 229.678-40.054 229.678-115.93 0-46.961-37.678-43.854-45.678-27.285z" fill="#d4d5d5"/></g><g><path d="m212.8 20.201v-.015c-42.168 6.788-69.916 20.06-88 35.54v-.041c-26.009 22.256-32 49.091-32 67.82 0 37.5 21 110 21 110l3.686.47c5.84-6.245 14.089-10.205 23.314-10.205h24v-61.47-2.529h-8c-17.673 0-32-14.327-32-32v-9.413c0-22.7 11.735-44.176 31.575-55.207 9.645-5.362 20.978-9.864 33.913-13.455 13.268-3.684 22.512-15.725 22.512-29.495z" fill="#b3b5b6"/></g><g><path d="m257.625 324.848c8.354 15.897 24.649 26.689 43.382 26.689 18.675 0 34.926-10.725 43.304-26.541z" fill="#fff"/></g><g><path d="m357.219 303.794c-15.358 1.112-30.284.208-44.428-2.406l-19.565.412c-16.487 3.122-33.953 3.929-51.844 1.994-1.902-1.393 12.968 40.385 62.321 21.768 49.771 15.946 54.911-23.282 53.516-21.768z" fill="#d4d5d5"/></g><g><path d="m326.848 451.677c-16.171 9.242-48.939 14.049-86.311 11.342-35.918-2.602-66.647-11.459-82.011-22.332l-8.625 19.733c-2.05 4.999-1.221 10.781 2.356 14.831 11.724 13.274 46.525 24.743 88.28 27.768 47.12 3.413 87.027-5.092 95.416-19.412 1.397-2.386 1.45-5.331.466-7.915z" fill="#d4d5d5"/></g><g><path d="m236.653 462.649c-34.218-2.944-63.329-11.488-78.127-21.961l-8.625 19.733c-2.05 4.999-1.221 10.781 2.356 14.831 11.356 12.858 44.389 23.998 84.396 27.435z" fill="#b3b5b6"/></g><path d="m393.267 58.18c.793-3.842 1.211-7.778 1.211-11.81 0-46.961-37.678-43.854-45.678-27.286 0 0 14.256 12.851 16 25.353 2 14.333-3.133 26.97-18.25 39.583-25.879 21.589-68.051 38.851-110.43 47.484-13.501 2.75-23.32 14.392-23.32 28.17 50.815-6.485 108.525-24.4 145.006-52.055 3.923 16.44 19.778 72.826 54.994 84.387 0 0 23.929-88.082-19.533-133.826z" fill="#f5df4d"/></g><g fill="#939597"><path d="m324.203 289.843c-3.033-3.214-8.095-3.361-11.309-.329-2.654 2.504-6.485 3.94-10.51 3.94-4.024 0-7.855-1.437-10.511-3.941-3.213-3.031-8.277-2.883-11.309.33-1.537 1.63-2.253 3.735-2.171 5.81-11.778 1.249-23.731 1.263-35.696.001-2.421-.421-4.976.265-6.865 2.012-4.996 4.619-1.962 11.242 1.665 17.112 2.023 3.274 6.354 9.244 13.468 14.329 10.15 18.646 29.24 30.196 50.042 30.196 20.672 0 39.684-11.429 49.874-29.891 5.962-4.459 9.409-9.895 11.23-13.619 3.124-6.387 5.612-14.845-.276-18.872-1.828-1.25-3.982-1.661-6.007-1.285-9.882.669-19.742.455-29.458-.597-.068-1.871-.781-3.727-2.167-5.196zm-42.855 48.26c6.667-.157 14.165-1.443 22.563-4.346 6.903 2.021 13.031 3.043 18.487 3.323-6.347 3.994-13.712 6.222-21.391 6.222-6.996 0-13.721-1.857-19.659-5.199zm64.429-26.084c-1.317 1.824-3.059 3.651-5.334 5.157-7.673 5.078-19.533 5.263-34.299.532-1.72-.551-3.575-.504-5.265.133-14.419 5.439-26.71 5.696-36.531.761-3.395-1.706-6.16-3.863-8.36-6.058 12.843.326 28.281-.69 40.686-3.586 1.86.325 3.768.496 5.709.496 2.505 0 4.957-.279 7.318-.816 11.086 2.469 24.66 3.465 36.076 3.381z"/><path d="m220.825 223.996c1.179 0 2.375-.261 3.504-.811.186-.09 18.953-9.048 52.175-9.581 4.417-.071 7.941-3.709 7.871-8.127-.071-4.417-3.674-7.938-8.127-7.871-37.153.596-58.128 10.799-59.003 11.233-3.947 1.959-5.554 6.734-3.61 10.689 1.389 2.829 4.234 4.468 7.19 4.468z"/><path d="m311.26 370.173c-3.933.729-7.816 1.098-11.542 1.098-3.611 0-7.549-.346-11.704-1.029-4.358-.716-8.474 2.237-9.191 6.597-.717 4.359 2.237 8.475 6.597 9.191 5.01.823 9.821 1.241 14.299 1.241 4.702 0 9.565-.459 14.457-1.366 4.345-.805 7.214-4.979 6.409-9.323-.807-4.344-4.981-7.212-9.325-6.409z"/><path d="m268.8 264.063c0-2.275-.954-4.323-2.479-5.78 1.031-3.465-.389-7.311-3.656-9.2-3.824-2.212-8.718-.906-10.931 2.918-1.429 2.471-4.086 4.005-6.934 4.005-4.411 0-8-3.589-8-8s3.589-8 8-8c4.418 0 8-3.582 8-8s-3.582-8-8-8c-13.234 0-24 10.766-24 24 0 2.825.494 5.537 1.395 8.056h-1.395c-4.418 0-8 3.582-8 8s3.582 8 8 8h40c4.419.001 8-3.581 8-7.999z"/><path d="m332.8 264.063c0 4.418 3.582 8 8 8h32c4.418 0 8-3.582 8-8 0-2.275-.954-4.323-2.479-5.78 1.031-3.465-.389-7.311-3.656-9.2-3.824-2.212-8.718-.906-10.931 2.918-1.429 2.471-4.086 4.005-6.934 4.005-4.411 0-8-3.589-8-8s3.589-8 8-8c4.418 0 8-3.582 8-8s-3.582-8-8-8c-13.234 0-24 10.766-24 24 0 3.716.849 7.238 2.364 10.381-1.459 1.45-2.364 3.457-2.364 5.676z"/><path d="m401.736 56.306c.489-3.275.742-6.586.742-9.936 0-12.883-2.599-23.461-7.723-31.438-4.765-7.417-11.534-12.31-19.577-14.15-13.566-3.104-28.003 3.269-33.582 14.824-1.921 3.979-.253 8.762 3.726 10.683 3.978 1.921 8.762.253 10.683-3.726 2.048-4.242 8.807-7.739 15.605-6.184 9.449 2.162 14.869 13.093 14.869 29.991 0 18.006-9.601 35.145-28.535 50.939-51.255 42.758-159.916 64.908-215.708 54.74-4.351-.792-8.513 2.089-9.305 6.436s2.089 8.512 6.436 9.305c5.365.978 11.215 1.67 17.435 2.104v14.126c-17.802.088-31.999.799-45.806 6.268-5.121-22.301-10.194-48.901-10.194-66.782 0-16.794 5.08-41.15 29.278-61.812 29.473-25.167 79.073-38.071 147.42-38.354 18.466-.078 31.332 4.494 35.272 12.542 3.025 6.177.93 14.848-5.604 23.192-2.724 3.479-2.112 8.507 1.367 11.231 3.478 2.723 8.507 2.111 11.23-1.367 10.405-13.289 13.162-28.277 7.376-40.093-4.84-9.885-17.352-21.649-49.708-21.505-72.238.3-125.311 14.493-157.745 42.187-30.355 25.918-34.888 57.476-34.888 73.979 0 37.348 19.677 106.659 21.365 112.528-3.405 5.882-5.365 12.7-5.365 19.972 0 16.318 9.857 30.768 24.56 36.905 2.051 9.359 9.576 16.687 19.039 18.448 3.89 17.586 10.91 33.831 20.401 48.196v59.741c-6.16 3.618-9.115 7.67-10.404 11.28-.1.186-.198.373-.284.57l-11.395 26.071c-.024.055-.048.111-.071.167-3.217 7.841-1.741 16.933 3.761 23.162 13.564 15.358 50.343 27.311 93.698 30.451 7.061.511 14.077.764 20.936.764 15.82 0 30.794-1.345 43.491-3.964 20.127-4.152 33.071-10.931 38.469-20.146 2.572-4.389 2.951-9.785 1.042-14.804-.015-.039-.03-.078-.045-.116l-12.334-30.949c-1.618-5.756-6.589-10.994-14.863-15.639v-6.477c50.682-14.039 88-60.571 88-115.661v-106.834c3.545 1.724 7.737 4.137 11.643 1.958 2.043-1.045 3.539-2.917 4.107-5.141.239-.936 5.862-23.227 6.373-51.336.682-37.519-7.791-66.551-25.188-86.346zm-244.936 143.713v15.987h-16c-8.02 0-15.49 2.381-21.757 6.461-1.159-4.293-2.645-9.931-4.269-16.429 11.857-5.273 24.105-5.937 42.026-6.019zm-8 95.752c-4.411 0-8-3.589-8-8s3.589-8 8-8 8 3.589 8 8-3.589 8-8 8zm173.573 165.917 6.731 16.889c.188.52.135.904.093.987-4.951 8.451-36.323 19.213-87.934 15.476-44.561-3.228-74.19-15.266-82.862-25.085-1.485-1.681-1.866-4.198-.978-6.43l5.236-11.979c4.555 3.547 10.798 6.803 18.719 9.748 15.748 5.854 36.797 9.945 59.271 11.519 6.645.465 13.195.695 19.553.695 15.145 0 29.187-1.305 40.745-3.843 9.126-2.005 16.273-4.672 21.426-7.977zm-141.573-17.932v-64.14c26.355 27.568 63.432 44.39 104 44.39 5.425 0 10.764-.369 16-1.069v30.319c-1.706.438-3.577.864-5.641 1.27-14.66 2.884-33.621 3.709-53.394 2.325-19.771-1.384-38.434-4.844-52.549-9.741-3.298-1.145-6.077-2.273-8.416-3.354zm226.299-263.663c-20.127-13.093-28.518-38.524-28.672-39.001-1.332-4.207-5.82-6.542-10.031-5.216-4.214 1.328-6.554 5.82-5.227 10.034.39 1.238 7.627 23.565 25.63 40.137v19.473c-10.438-3.122-29.266-7.526-53.372-7.913-4.461-.065-8.057 3.454-8.127 7.871-.071 4.418 3.453 8.057 7.871 8.127 26.658.427 46.45 6.272 53.628 8.725v81.677c0 57.346-46.654 104-104 104-59.936 0-111.297-41.312-124.558-99.143 7.475-4.071 12.558-11.999 12.558-21.092 0-13.234-10.766-24-24-24-9.032 0-16.912 5.017-21.006 12.409-6.708-4.326-10.994-11.84-10.994-20.173 0-13.234 10.767-24 24-24h16v8c0 4.418 3.582 8 8 8s8-3.582 8-8v-69.578c24.448-.013 52.947-3.454 81.402-10.06 47.468-11.02 87.951-29.051 113.991-50.774 12.876-10.741 22.157-22.218 27.79-34.322 20.951 33.096 14.932 83.597 11.117 104.819z"/></g></g></svg>