<svg id="Capa_1" enable-background="new 0 0 511.99 511.99" height="512" viewBox="0 0 511.99 511.99" width="512" xmlns="http://www.w3.org/2000/svg"><g><g><path d="m305.732 104-141.859 96v56c0 28.653 8.869 55.231 24 77.155v130.845h136v-74.586c50.321-10.988 88-55.797 88-109.414v-176z" fill="#fff"/><g><path d="m123.944 232c0 42-26.141 104-26.141 104l46-18 2 42 78.809-44.667z" fill="#b3b5b6"/></g><g><g><path d="m187.945 320v144h64v-16.804c0-9.583 9.617-16.25 18.531-12.731 9.146 3.611 19.004 5.535 29.192 5.535 0 0 23.617-.097 24.277-.111v-29.222z" fill="#f5df4d"/></g></g><g><path d="m411.917 271.891c.042 17.705-14.295 32.109-32 32.109h-127.972c-13.255 0-24-10.745-24-24v-152h-48v72h-22.625c-16.713 0-31.638 12.218-33.225 28.856-1.821 19.085 13.139 35.144 31.85 35.144h8.447c4.168 71.361 63.147 128 135.553 128 61.855 0 112-50.144 112-112 0 0-.039-12.753-.028-8.109z" fill="#f5df4d"/></g><g><path d="m211.945 280c0-8.837-7.164-16-16-16h-31.553c3.366 57.626 42.494 105.612 95.553 121.964v-65.964h-8c-22.092 0-40-17.909-40-40z" fill="#d4d5d5"/></g><g><path d="m341.992 451.906c-16.171 9.242-48.939 14.049-86.311 11.342-35.918-2.602-66.647-11.459-82.011-22.332l-8.625 19.733c-2.05 4.999-1.221 10.781 2.356 14.831 11.724 13.274 46.525 24.743 88.28 27.768 47.12 3.413 87.027-5.092 95.416-19.412 1.397-2.386 1.45-5.331.466-7.915z" fill="#d4d5d5"/></g><g><path d="m251.798 462.877c-34.218-2.944-63.329-11.488-78.127-21.961l-8.625 19.733c-2.05 4.999-1.221 10.781 2.356 14.831 11.356 12.858 44.389 23.998 84.396 27.435z" fill="#b3b5b6"/></g><g><path d="m413.303 96c-2.248-44.069-16.5-74.5-64.5-70l-14.191 83.333s71.333 68.667 103.858 61.333c0 .001-22.667-25.666-25.167-74.666z" fill="#f5df4d"/></g><g><path d="m302.47 8h-76.95c-94.718 0-98.718 93-151.718 152l48-8-32 96s61.685-28.137 118.325-71.731c26.509-6.097 92.461-24.72 129.675-65.603 26.927-29.58 36.668-102.666-35.332-102.666z" fill="#d4d5d5"/></g><g><path d="m238.937 39.352c-1.402-2.211-5.512-7.352-13.418-7.352-12.484 0-22.623-9.568-23.773-21.751-72.066 14.475-79.785 96.14-127.943 149.751l48-8-32 96s47.967-21.897 98.142-56.961v-46.956c0-14.62 5.778-28.675 15.992-39.136 18.309-18.751 29.312-35.812 35.906-49.751 3.524-7.446.539-13.559-.906-15.844z" fill="#b3b5b6"/></g><g><path d="m340.302 288h-79.406c-13.844 0-24.817 11.68-23.953 25.497l3.125 49.996c1.844 29.514 26.318 52.507 55.89 52.507h31.266c33.796 0 61.768-26.278 63.875-60.008l2.656-42.495c.864-13.817-31.499-25.497-53.453-25.497z" fill="#d4d5d5"/></g><g><path d="m268.129 315.833c0 21.816 21.575 39.5 48.19 39.5 26.614 0 48.19-17.685 48.19-39.5z" fill="#fff"/></g><g><path d="m369.802 288h-29.5c13.844 0 24.817 11.68 23.953 25.497l-2.656 42.495c-2.108 33.73-30.079 60.008-63.875 60.008h29.5c33.796 0 61.768-26.278 63.875-60.008l2.656-42.495c.864-13.817-10.109-25.497-23.953-25.497z" fill="#f5df4d"/></g></g><g fill="#939597"><path d="m444.325 165.371c-.208-.236-20.843-24.099-23.173-69.779-1.621-31.759-9.12-52.385-23.6-64.912-11.287-9.765-26.785-14.1-46.089-12.916-9.095-9.718-24.162-17.764-49.135-17.764h-76.949c-31.023 0-55.873 9.577-75.969 29.279-17.57 17.225-29.442 39.604-42.01 63.295-11.4 21.49-23.189 43.711-39.689 62.08-2.271 2.529-2.697 6.216-1.062 9.196 1.635 2.979 4.973 4.598 8.328 4.042l34.894-5.815-27.798 83.395c-1.007 3.02-.127 6.35 2.24 8.478 1.499 1.348 3.413 2.052 5.351 2.052 1.123 0 2.254-.236 3.316-.721.714-.325 9.058-4.149 22.132-10.972-4.047 38.89-24.592 88.04-24.822 88.585-1.249 2.963-.601 6.387 1.643 8.69s5.649 3.04 8.644 1.867l35.624-13.94 1.47 30.871c.132 2.779 1.698 5.289 4.136 6.63 1.201.66 2.528.99 3.854.99 1.367 0 2.732-.35 3.959-1.048l30.182-17.189v69.761c-6.159 3.618-10.315 10.913-10.688 11.85l-11.395 26.071c-.024.056-.048.112-.071.168-3.216 7.842-1.74 16.934 3.762 23.162 13.565 15.358 50.344 27.311 93.698 30.451 7.061.512 14.077.764 20.936.764 15.82 0 30.794-1.345 43.49-3.964 20.128-4.152 33.071-10.93 38.47-20.146 2.571-4.389 2.95-9.785 1.041-14.804-.015-.039-.03-.078-.045-.116l-12.334-30.948c-1.617-5.757-6.589-10.995-14.864-15.64v-2.501c36.067-2.059 65.456-30.906 67.735-67.379l.612-9.784c12.323-19.894 19.654-44.658 19.654-66.707v-103.349c5.353 1.451 10.364 2.194 15.006 2.193 1.492 0 2.949-.075 4.366-.226 2.976-.316 5.526-2.268 6.61-5.057s.521-5.95-1.46-8.193zm-351.422-16.688c11.099-15.561 19.973-32.289 28.632-48.61 23.931-45.113 44.6-84.073 103.844-84.073 11.164 0 20.98 5.391 26.933 14.792 5.962 9.415 6.654 21.096 1.853 31.248-25.934 54.83-84.949 96.649-135.45 124.102l10.537-31.611c.887-2.662.315-5.594-1.507-7.727-1.534-1.794-3.764-2.803-6.082-2.803-.437 0-.877.036-1.315.109zm18.511 59.358c43.591-22.155 79.659-46.615 107.196-72.737 22.385-21.234 39.214-43.583 50.018-66.424 7.159-15.137 6.113-32.575-2.798-46.649-1.413-2.231-3.003-4.3-4.719-6.231h41.218c22.483 0 37.195 7.494 43.728 22.274 9.127 20.651-.03 51.32-14.31 67.007-26.972 29.631-65.148 46.122-91.448 54.585 23.024-20.874 40.373-41.763 51.861-62.488 2.142-3.864.746-8.733-3.119-10.875-3.865-2.143-8.733-.745-10.875 3.119-37.02 66.788-135.189 122.322-174.853 142.727zm40.239 109.579c-.123-2.574-1.477-4.931-3.639-6.333s-4.867-1.677-7.267-.737l-29.064 11.373c5.472-15.062 12.957-37.969 17.082-60.476 7.125 6.548 16.621 10.553 27.037 10.553h1.054c2.417 21.814 9.717 42.407 21.003 60.457l-24.827 14.139zm144.759 106.38h19.391v29.485c-1.706.438-3.577.865-5.641 1.27-14.66 2.884-33.622 3.708-53.394 2.325-19.771-1.384-38.434-4.844-52.549-9.742-3.299-1.145-6.078-2.274-8.417-3.354v-88.463c11.893 12.453 26.106 22.858 42.176 30.524 10.038 22.426 32.563 37.955 58.434 37.955zm47.787 55.792c-4.951 8.451-36.326 19.214-87.935 15.476-44.56-3.228-74.189-15.266-82.862-25.085-1.485-1.681-1.865-4.198-.978-6.43l5.236-11.979c4.556 3.548 10.798 6.803 18.72 9.748 15.748 5.854 36.797 9.945 59.271 11.519 6.645.465 13.196.695 19.554.695 15.145 0 29.186-1.305 40.744-3.843 9.127-2.004 16.274-4.671 21.426-7.977l6.731 16.89c.188.52.134.904.093.986zm20.157-355.063c-3.279-2.961-8.338-2.703-11.299.577-2.961 3.279-2.702 8.338.577 11.299.509.459 12.647 11.372 28.896 22.006 7.497 4.906 14.59 8.916 21.272 12.044v28.441c-10.916-4.34-30.867-11.296-54.738-15.108-4.365-.697-8.465 2.275-9.162 6.638s2.275 8.465 6.638 9.162c27.866 4.45 50.512 13.699 57.262 16.648v63.564c0 7.48-.979 15.333-2.81 23.166-1.395-4.843-3.914-9.35-7.415-13.077-6.023-6.411-14.524-10.089-23.321-10.089-4.418 0-8 3.582-8 8s3.582 8 8 8c4.464 0 8.605 1.792 11.661 5.045 3.057 3.253 4.586 7.498 4.308 11.953l-2.656 42.495c-1.84 29.443-26.39 52.507-55.891 52.507h-31.266c-25.286 0-46.329-19.769-47.907-45.006l-3.125-49.996c-.278-4.455 1.251-8.7 4.308-11.953 3.056-3.253 7.197-5.045 11.661-5.045 4.418 0 8-3.582 8-8s-3.582-8-8-8c-8.798 0-17.299 3.678-23.323 10.09s-9.164 15.125-8.615 23.906l3.125 49.996c.02.312.057.618.081.928-35.219-21.77-57.974-59.392-60.425-101.386-.247-4.23-3.749-7.534-7.986-7.534h-8.404c-12.151 0-22.215-9.079-23.781-20.808 12.219-6.792 26.472-15.162 41.547-24.912 13.726-8.876 26.437-17.782 38.124-26.703 6.356-.997 84.226-15.168 131.885-67.526 17.586-19.32 28.784-55.043 17.871-82.4 10.749.55 19.203 3.566 25.634 9.13 10.808 9.349 16.724 26.89 18.088 53.626 1.511 29.608 10.021 51.195 17.124 64.357-21.701-6.573-47.846-26.937-57.938-36.035z"/><path d="m334.001 272.491c-4.598 4.842-10.854 7.509-17.615 7.509s-13.017-2.667-17.615-7.509c-3.043-3.203-8.106-3.334-11.31-.292s-3.335 8.106-.292 11.31c7.539 7.938 18.188 12.491 29.218 12.491s21.679-4.553 29.218-12.491c3.042-3.204 2.912-8.268-.292-11.31-3.206-3.043-8.27-2.912-11.312.292z"/><path d="m275.809 249c1.605 0 3.226-.482 4.633-1.483 3.6-2.562 4.44-7.558 1.877-11.157-5.644-7.927-13.851-12.474-22.517-12.474s-16.873 4.546-22.517 12.474c-2.562 3.599-1.722 8.594 1.877 11.157s8.594 1.722 11.157-1.877c1.53-2.148 4.796-5.753 9.483-5.753s7.953 3.604 9.483 5.753c1.561 2.192 4.024 3.361 6.524 3.36z"/><path d="m351.163 247.517c3.599 2.562 8.594 1.722 11.157-1.877 1.53-2.148 4.796-5.753 9.483-5.753s7.953 3.604 9.483 5.753c1.561 2.192 4.023 3.361 6.524 3.361 1.605 0 3.226-.482 4.633-1.483 3.6-2.562 4.44-7.558 1.877-11.157-5.644-7.927-13.851-12.474-22.517-12.474s-16.873 4.546-22.517 12.474c-2.563 3.598-1.723 8.594 1.877 11.156z"/><path d="m239.403 215.031c.197-.1 20.086-9.989 53.637-15.24 4.365-.683 7.35-4.776 6.667-9.141s-4.772-7.347-9.141-6.667c-36.007 5.636-57.467 16.309-58.363 16.76-3.945 1.989-5.532 6.799-3.543 10.745 1.407 2.791 4.225 4.401 7.15 4.401 1.209 0 2.438-.276 3.593-.858z"/><path d="m355.488 302.845c-1.324 1.419-2.031 3.191-2.136 4.988h-74.349c-.104-1.797-.812-3.569-2.136-4.988-3.015-3.23-8.076-3.406-11.307-.392l-11.465 10.697c-3.23 3.014-3.406 8.077-.392 11.307 1.576 1.688 3.711 2.542 5.852 2.542.844 0 1.688-.141 2.5-.408 5.784 21.024 28.113 36.742 54.719 36.742 26.486 0 48.735-15.576 54.641-36.458.459.08.923.124 1.387.124 2.141 0 4.276-.854 5.851-2.542 3.014-3.23 2.839-8.292-.392-11.307l-11.465-10.697c-3.232-3.015-8.294-2.839-11.308.392zm-38.715 44.488c-18.636 0-34.35-9.992-38.877-23.5h77.754c-4.528 13.509-20.242 23.5-38.877 23.5z"/></g></g></svg>