<svg id="Capa_1" enable-background="new 0 0 512.001 512.001" height="512" viewBox="0 0 512.001 512.001" width="512" xmlns="http://www.w3.org/2000/svg"><g><g><g><path d="m288 408c61.856 0 112-50.144 112-112v-160h-248v136c0 75.111 60.89 136 136 136z" fill="#fff"/></g><g><path d="m264 504-88-80-24.833 31.041c-3.477 4.346-1.563 10.827 3.717 12.587z" fill="#b3b5b6"/></g><g><path d="m264 504 48-72 32 32z" fill="#d4d5d5"/></g><g><path d="m360 248c16.394 0 30.445 9.885 36.623 24 2.147-4.906 3.377-10.302 3.377-16 0-22.091-17.909-40-40-40s-40 17.909-40 40c0 5.698 1.23 11.094 3.377 16 6.178-14.115 20.23-24 36.623-24z" fill="#f5df4d"/></g><g><path d="m368 72-93.554-53.459c-12.088-6.908-25.769-10.541-39.691-10.541-35.579 0-67.668 21.393-81.353 54.235l-17.402 41.765.121-.017c-10.076 13.384-16.121 29.974-16.121 48.017v72c0-44.183 35.817-80 80-80h176c13.255 0 24 10.745 24 24v-64c0-17.673-14.326-32-32-32z" fill="#d4d5d5"/></g><g><path d="m206.463 12.721c-23.557 7.996-43.148 25.725-53.061 49.514l-17.402 41.765.121-.017c-10.076 13.384-16.121 29.974-16.121 48.017v72c0-44.183 35.817-80 80-80h40v-80c0-22.934-13.8-42.62-33.537-51.279z" fill="#b3b5b6"/></g><path d="m398.32 280c-8.291 0-17.435 5.509-20.986 13 0 0-7.922 20.685-18.581 32.018-3.44 3.658-9.444 2.878-12.29-1.259-5.862-8.521-16.571-21.331-27.13-19.759-6.82 1.016-10.181 0-17.314 0-7.206 0-11.52-3.25-23.02.5-13.843 4.514-17.722 18.431-47.406 15.5-7.593-.75-15.593-6.988-15.593-15.601v-40.326c7.286-9.749 18.892-16.073 32-16.073 16.394 0 30.445 9.885 36.623 24 2.147-4.906 3.377-10.302 3.377-16 0-22.091-17.909-40-40-40-13.086 0-24.702 6.285-32 15.999v-24.002c0-22.092 17.909-40.001 40.001-40l63.999.002c13.255 0 24-10.745 24-23.999h-144c-44.183 0-80 35.817-80 80-3.76 5.62-8.405 18.723-7.933 26.095 1.096 17.108 16.357 29.905 33.5 29.905h6.836c.104 1.795.396 3.457.569 5.203 2.269 23.423 10.449 45.113 23.027 63.544v75.253l88.001 80 48-72v-26.586c50.321-10.988 88-55.797 88-109.413v-16h-1.68z" fill="#f5df4d"/><g><path d="m160 216c13.255 0 24-10.745 24-24v-46.393c-33.787 6.859-59.824 35.01-63.529 69.837-.019.183-.048.371-.066.554v.001z" fill="#d4d5d5"/></g><g><path d="m288 432c-9.936 0-19.652-.963-29.09-2.752-9.834-1.865-18.91 5.673-18.91 15.682v35.07l24 24 48-74.251c-7.805 1.397-15.798 2.251-24 2.251z" fill="#fff"/></g><g><path d="m224.894 338.617c-1.902-4.616-5.363-8.337-9.281-11.431-9.233-7.29-15.612-18.499-15.613-31.186 0-8.837-7.163-16-16-16h-31.192c4.164 71.366 63.186 128 135.596 128 6.865 0 13.56-.686 20.08-1.871-37.976-6.829-69.263-32.749-83.59-67.512z" fill="#d4d5d5"/></g><g><circle cx="248" cy="232" fill="#d4d5d5" r="16"/></g><g><circle cx="360" cy="232" fill="#d4d5d5" r="16"/></g><g><path d="m316.053 346.417c7.438 0 10.56-9.348 4.739-13.979-5.866-4.668-13.681-7.521-22.3-7.521s-16.433 2.853-22.299 7.521c-5.821 4.631-2.699 13.979 4.739 13.979z" fill="#fff"/></g></g><g fill="#939597"><path d="m279.448 176.168c-37.823.606-59.195 15.513-60.086 16.147-3.587 2.553-4.421 7.513-1.886 11.113 1.555 2.208 4.031 3.387 6.548 3.387 1.585 0 3.187-.468 4.583-1.441.182-.126 18.574-12.687 51.098-13.208 4.417-.071 7.941-3.709 7.871-8.127-.071-4.418-3.668-7.926-8.128-7.871z"/><path d="m370.241 64.066-91.825-52.471c-13.275-7.586-28.373-11.595-43.661-11.595-38.932 0-73.764 23.221-88.738 59.159l-17.089 41.014c-10.637 14.547-16.928 32.465-16.928 51.827v72c0 .009.001.017.001.026-5.021 6.686-8.001 14.988-8.001 23.974 0 22.056 17.944 40 40 40h1.054c2.577 23.286 10.688 44.835 22.946 63.36v69.834l-23.08 28.85c-3.266 4.082-4.332 9.513-2.851 14.527s5.326 8.994 10.285 10.647l109.116 36.373c.834.277 1.687.411 2.529.411 1.243 0 2.454-.305 3.553-.851l.026.005 80-40c2.3-1.15 3.907-3.335 4.319-5.874.412-2.538-.421-5.12-2.24-6.938l-29.657-29.657v-17.026c50.682-14.039 88-60.571 88-115.661v-192c0-21.304-16.742-38.767-37.759-39.934zm-42.241 191.934c0-8.179 3.088-15.648 8.155-21.311 1.342 11.972 11.521 21.311 23.845 21.311 8.54 0 16.504-4.596 20.784-11.994 2.212-3.824.906-8.718-2.919-10.931-3.823-2.211-8.717-.906-10.931 2.919-1.429 2.471-4.086 4.006-6.934 4.006-4.411 0-8-3.589-8-8s3.589-8 8-8c17.645 0 32 14.355 32 32s-14.355 32-32 32-32-14.355-32-32zm32-48c-13.409 0-25.545 5.533-34.263 14.429-6.432-4.174-13.948-6.429-21.737-6.429-7.764 0-15.299 2.257-21.738 6.428-8.717-8.895-20.853-14.428-34.262-14.428h-104c-5.217 0-10.199 1.015-14.773 2.84 6.204-33.436 35.568-58.84 70.773-58.84h176c8.822 0 16 7.178 16 16v20.253c-10.768-4.5-29.527-10.536-53.372-10.918-.044 0-.087-.001-.131-.001-4.358 0-7.926 3.498-7.997 7.872-.071 4.418 3.453 8.057 7.871 8.127 27.47.441 47.542 9.447 53.628 12.529v14.4c-8.497-7.618-19.714-12.262-31.999-12.262zm-135.845 26.689c1.342 11.972 11.521 21.311 23.845 21.311 8.54 0 16.504-4.596 20.784-11.994 2.212-3.824.906-8.718-2.919-10.931-3.823-2.211-8.718-.906-10.931 2.919-1.429 2.471-4.086 4.006-6.934 4.006-4.411 0-8-3.589-8-8s3.589-8 8-8c17.645 0 32 14.355 32 32s-14.355 32-32 32-32-14.355-32-32c0-8.179 3.089-15.648 8.155-21.311zm7.845-154.689v56h-16v-56zm32 0v56h-16v-56zm32 0v56h-16v-56zm32 0v56h-16v-56zm32 0v56h-16v-56zm-160 56c-5.463 0-10.81.505-16 1.462v-55.648c5.15-1.173 10.5-1.814 16-1.814zm-32 6.026c-5.638 2.208-10.995 4.979-16 8.249v-51.883c4.799-4.301 10.177-7.962 16-10.864zm-40 9.974c0-11.859 2.9-23.047 8-32.921v44.587c-2.891 3.065-5.568 6.335-8 9.789zm264-48v36.294c-4.709-2.73-10.176-4.294-16-4.294v-54.624c9.312 3.302 16 12.195 16 22.624zm-157.245-88c12.508 0 24.861 3.28 35.722 9.486l67.399 38.514h-137.876c-15.796 0-30.631 4.186-43.459 11.503l4.246-10.191c12.482-29.956 41.516-49.312 73.968-49.312zm-77.34 444.039 19.51-24.387 53.652 48.774zm129.952 23.333 25.876-38.815 17.251 17.251zm16.633-53.794-41.498 62.248-78.502-71.365v-49.049c26.272 27.519 63.268 44.588 104 44.588 5.424 0 10.764-.369 16-1.069zm-16-29.578c-67.616 0-123.669-52.915-127.61-120.466-.247-4.23-3.749-7.534-7.986-7.534h-8.404c-13.234 0-24-10.766-24-24s10.766-24 24-24h68.261c-7.617 8.499-12.261 19.716-12.261 32 0 26.467 21.533 48 48 48s48-21.533 48-48c0-7.303-1.647-14.227-4.577-20.43 3.759-2.315 8.103-3.57 12.577-3.57 4.488 0 8.825 1.248 12.58 3.563-2.932 6.205-4.58 13.131-4.58 20.437 0 11.217 3.878 21.54 10.35 29.721-1.951.014-3.901.728-5.432 2.172-2.655 2.504-6.485 3.94-10.51 3.94-4.024 0-7.855-1.437-10.51-3.941-3.214-3.032-8.277-2.884-11.309.33s-2.884 8.277.33 11.309c5.675 5.354 13.307 8.302 21.49 8.302s15.815-2.949 21.49-8.303c1.659-1.565 2.494-3.671 2.503-5.785 8.161 6.415 18.437 10.255 29.598 10.255 12.284 0 23.501-4.644 32-12.261v4.261c0 57.346-46.654 104-104 104z"/><path d="m325.772 326.177c-7.506-5.972-17.194-9.261-27.28-9.261s-19.774 3.289-27.28 9.261c-5.386 4.286-7.406 11.237-5.146 17.709 2.234 6.397 8.069 10.53 14.865 10.53h35.121c6.796 0 12.631-4.133 14.865-10.53 2.262-6.472.242-13.423-5.145-17.709zm-44.233 12.236c4.638-3.548 10.638-5.497 16.954-5.497 6.285 0 12.257 1.93 16.946 5.5z"/><path d="m306.492 361.667h-16c-4.418 0-8 3.582-8 8s3.582 8 8 8h16c4.418 0 8-3.582 8-8s-3.581-8-8-8z"/></g></g></svg>