<svg id="Capa_1" enable-background="new 0 0 511.99 511.99" height="512" viewBox="0 0 511.99 511.99" width="512" xmlns="http://www.w3.org/2000/svg"><g><g><path d="m305.732 104-141.859 96v56c0 28.653 8.869 55.231 24 77.155v130.845h136v-74.586c50.321-10.988 88-55.797 88-109.414v-176z" fill="#fff"/><g><path d="m123.944 232c0 42-26.141 104-26.141 104l46-18 2 42 78.809-44.667z" fill="#b3b5b6"/></g><g><g><path d="m187.945 320v144h64v-16.804c0-9.583 9.617-16.25 18.531-12.731 9.146 3.611 19.004 5.535 29.192 5.535 0 0 23.617-.097 24.277-.111v-29.222z" fill="#f5df4d"/></g></g><g><circle cx="259.945" cy="232" fill="#d4d5d5" r="16"/></g><g><circle cx="371.945" cy="232" fill="#d4d5d5" r="16"/></g><path d="m251.945 304c-13.255 0-24-10.745-24-24v-152h-48v72h-22.625c-16.713 0-31.638 12.218-33.225 28.856-1.821 19.085 13.139 35.144 31.85 35.144h8.447c4.168 71.361 63.147 128 135.553 128l-30.143-88z" fill="#f5df4d"/><g><path d="m211.945 280c0-8.837-7.164-16-16-16h-31.553c3.366 57.626 42.494 105.612 95.553 121.964v-65.964h-8c-22.092 0-40-17.909-40-40z" fill="#d4d5d5"/></g><g><path d="m341.992 451.906c-16.171 9.242-48.939 14.049-86.311 11.342-35.918-2.602-66.647-11.459-82.011-22.332l-8.625 19.733c-2.05 4.999-1.221 10.781 2.356 14.831 11.724 13.274 46.525 24.743 88.28 27.768 47.12 3.413 87.027-5.092 95.416-19.412 1.397-2.386 1.45-5.331.466-7.915z" fill="#d4d5d5"/></g><g><path d="m251.798 462.877c-34.218-2.944-63.329-11.488-78.127-21.961l-8.625 19.733c-2.05 4.999-1.221 10.781 2.356 14.831 11.356 12.858 44.389 23.998 84.396 27.435z" fill="#b3b5b6"/></g><g><path d="m413.303 96c-2.248-44.069-16.5-74.5-64.5-70l-14.191 83.333s71.333 68.667 103.858 61.333c0 .001-22.667-25.666-25.167-74.666z" fill="#f5df4d"/></g><g><path d="m302.47 8h-76.95c-94.718 0-98.718 93-151.718 152l48-8-32 96s61.685-28.137 118.325-71.731c26.509-6.097 92.461-24.72 129.675-65.603 26.927-29.58 36.668-102.666-35.332-102.666z" fill="#d4d5d5"/></g><g><path d="m238.937 39.352c-1.402-2.211-5.512-7.352-13.418-7.352-12.484 0-22.623-9.568-23.773-21.751-72.066 14.475-79.785 96.14-127.943 149.751l48-8-32 96s47.967-21.897 98.142-56.961v-46.956c0-14.62 5.778-28.675 15.992-39.136 18.309-18.751 29.312-35.812 35.906-49.751 3.524-7.446.539-13.559-.906-15.844z" fill="#b3b5b6"/></g><g><path d="m336.899 288h-63.063c-5.035 0-9.812 1.167-14.065 3.251-10.02 4.91-17.133 14.913-17.873 26.753l-1.875 30.004c-2.303 36.844 26.959 67.992 63.875 67.992h15.235c41.531 0 74.45-35.041 71.86-76.491l-1.344-21.505c-1.054-16.865-35.852-30.004-52.75-30.004z" fill="#d4d5d5"/></g><g><path d="m390.993 339.509-1.344-21.505c-1.054-16.865-15.04-30.004-31.938-30.004h-27.667c16.898 0 30.883 13.139 31.938 30.004l1.344 21.505c2.459 39.354-27.106 72.869-65.644 76.165 2.047.197 4.115.327 6.216.327h15.234c41.532-.001 74.452-35.042 71.861-76.492z" fill="#f5df4d"/></g><g><path d="m319.228 341.333c21.98 0 41.212-27.145 41.212-27.145h-90.667c0 .001 27.475 27.145 49.455 27.145z" fill="#fff"/></g></g><g fill="#939597"><path d="m444.325 165.371c-.208-.236-20.843-24.099-23.173-69.779-1.621-31.759-9.12-52.385-23.6-64.912-11.288-9.765-26.784-14.1-46.089-12.916-9.095-9.718-24.162-17.764-49.135-17.764h-76.949c-31.023 0-55.873 9.577-75.969 29.279-17.57 17.225-29.442 39.604-42.01 63.295-11.4 21.49-23.189 43.711-39.689 62.08-2.271 2.529-2.697 6.216-1.062 9.196 1.635 2.979 4.973 4.598 8.328 4.042l34.894-5.815-27.798 83.395c-1.007 3.02-.127 6.35 2.24 8.478 1.499 1.348 3.413 2.052 5.351 2.052 1.123 0 2.254-.236 3.316-.721.714-.325 9.058-4.149 22.132-10.972-4.047 38.89-24.592 88.04-24.822 88.585-1.249 2.963-.601 6.387 1.643 8.69s5.648 3.04 8.644 1.867l35.624-13.94 1.47 30.871c.132 2.779 1.698 5.289 4.136 6.63 1.201.66 2.528.99 3.854.99 1.367 0 2.732-.35 3.959-1.048l30.182-17.189v69.761c-6.159 3.618-9.596 9.511-10.688 11.85l-11.395 26.071c-.024.056-.048.112-.071.168-3.216 7.842-1.74 16.934 3.762 23.162 13.565 15.358 50.344 27.311 93.698 30.451 7.061.512 14.077.764 20.936.764 15.82 0 30.794-1.345 43.49-3.964 20.128-4.152 33.071-10.93 38.47-20.146 2.571-4.389 2.95-9.785 1.041-14.804-.015-.039-.03-.078-.045-.116l-12.334-30.948c-1.617-5.757-6.589-10.995-14.864-15.64v-3.356c17.423-2.729 33.317-11.095 45.666-24.24 13.098-13.943 20.568-31.533 21.564-50.301 13.02-20.201 20.77-45.643 20.77-68.475v-103.348c5.353 1.451 10.364 2.194 15.006 2.193 1.492 0 2.949-.075 4.366-.226 2.976-.316 5.526-2.268 6.61-5.057 1.085-2.789.522-5.95-1.459-8.193zm-351.422-16.688c11.099-15.561 19.973-32.289 28.632-48.61 23.931-45.113 44.6-84.073 103.844-84.073 11.164 0 20.98 5.391 26.933 14.792 5.962 9.415 6.654 21.096 1.853 31.248-25.934 54.83-84.949 96.649-135.45 124.102l10.537-31.611c.887-2.662.315-5.594-1.507-7.727-1.534-1.794-3.764-2.803-6.082-2.803-.437 0-.877.036-1.315.109zm10.409 83.666 8.103-24.308c43.591-22.155 79.659-46.615 107.196-72.737 22.385-21.234 39.214-43.583 50.018-66.424 7.159-15.137 6.113-32.575-2.798-46.649-1.413-2.231-3.003-4.3-4.719-6.231h41.218c22.483 0 37.195 7.494 43.728 22.274 9.127 20.651-.03 51.32-14.31 67.007-26.972 29.631-65.148 46.122-91.448 54.585 23.024-20.874 40.373-41.763 51.861-62.488 2.142-3.864.746-8.733-3.119-10.875-3.865-2.143-8.733-.745-10.875 3.119-37.022 66.787-135.192 122.321-174.855 142.727zm49.72 114.247-1.38-28.977c-.123-2.574-1.477-4.931-3.639-6.333-2.163-1.401-4.868-1.677-7.267-.737l-29.064 11.373c5.472-15.062 12.957-37.969 17.082-60.476 7.126 6.549 16.622 10.554 27.038 10.554h1.055c2.387 21.499 9.579 42.125 21.045 60.433zm184.342 115.321 6.731 16.89c.188.52.135.904.093.986-4.951 8.451-36.327 19.214-87.935 15.476-44.56-3.228-74.189-15.266-82.862-25.085-1.485-1.681-1.865-4.198-.978-6.43l5.236-11.979c4.556 3.548 10.798 6.803 18.72 9.748 15.748 5.854 36.797 9.945 59.271 11.519 6.645.465 13.196.695 19.554.695 15.145 0 29.186-1.305 40.744-3.843 9.128-2.005 16.274-4.672 21.426-7.977zm-141.572-17.933v-88.524c12.914 13.543 28.355 24.469 45.507 32.121 2.795 4.885 6.172 9.492 10.142 13.718 13.754 14.639 32.39 22.701 52.476 22.701h11.875v29.485c-1.706.438-3.577.865-5.641 1.27-14.66 2.884-33.621 3.708-53.394 2.325-19.771-1.384-38.434-4.844-52.549-9.742-3.298-1.145-6.077-2.274-8.416-3.354zm168.554-319.255c-3.279-2.961-8.338-2.703-11.299.577-2.961 3.279-2.702 8.338.577 11.299.509.459 12.647 11.372 28.896 22.006 7.497 4.906 14.59 8.916 21.272 12.044v18.859c-10.438-3.123-29.266-7.526-53.372-7.913-.044 0-.087-.001-.131-.001-4.359 0-7.926 3.498-7.997 7.872-.071 4.418 3.453 8.057 7.871 8.127 26.659.427 46.451 6.272 53.628 8.724v73.677c0 11.226-2.289 23.498-6.36 35.223-1.613-13.361-9.904-25.152-22.071-31.134-3.965-1.949-8.76-.315-10.709 3.65s-.315 8.759 3.65 10.708c7.718 3.794 12.845 11.479 13.381 20.055l1.344 21.505c1.114 17.82-5.005 34.8-17.23 47.813-12.224 13.013-28.789 20.18-46.644 20.18h-15.235c-15.623 0-30.118-6.271-40.814-17.657-10.697-11.386-16.051-26.244-15.077-41.836l1.875-30.004c.537-8.589 5.675-16.278 13.409-20.069 3.967-1.944 5.607-6.736 3.663-10.704s-6.736-5.608-10.704-3.663c-12.884 6.313-21.443 19.126-22.337 33.438l-1.875 30.004c-.377 6.027-.004 11.965 1.056 17.725-14.708-9.018-27.52-20.966-37.607-35.194-13.86-19.549-21.926-42.547-23.324-66.506-.247-4.23-3.749-7.534-7.986-7.534h-8.404c-12.151 0-22.215-9.079-23.781-20.808 12.219-6.792 26.472-15.162 41.547-24.912 13.703-8.862 26.395-17.752 38.065-26.659 6.339-.993 84.222-15.144 131.944-67.57 17.586-19.32 28.784-55.043 17.871-82.4 10.75.549 19.202 3.566 25.634 9.13 10.808 9.349 16.724 26.89 18.088 53.626 1.511 29.608 10.021 51.195 17.124 64.357-21.701-6.573-47.846-26.937-57.938-36.035z"/><path d="m334.001 272.491c-4.598 4.842-10.854 7.509-17.615 7.509s-13.017-2.667-17.615-7.509c-3.042-3.203-8.106-3.334-11.31-.292s-3.335 8.106-.292 11.31c7.539 7.938 18.188 12.491 29.218 12.491s21.679-4.553 29.218-12.491c3.042-3.204 2.912-8.268-.292-11.31-3.206-3.043-8.27-2.912-11.312.292z"/><path d="m235.809 208.002c1.194 0 2.407-.269 3.55-.836.182-.09 18.572-9.029 52.148-9.567 4.417-.071 7.941-3.709 7.871-8.127-.07-4.375-3.638-7.872-7.997-7.872-.043 0-.087 0-.131.001-37.153.595-58.129 10.799-59.004 11.233-3.958 1.964-5.574 6.764-3.61 10.722 1.397 2.816 4.229 4.446 7.173 4.446z"/><path d="m269.802 306.188c-3.245 0-6.167 1.959-7.4 4.961-1.232 3.001-.53 6.45 1.778 8.73.3.296 7.454 7.332 17.495 14.417 14.138 9.978 26.783 15.036 37.583 15.036 11.149 0 22.654-5.255 34.194-15.621 8.127-7.299 13.328-14.592 13.546-14.899 1.729-2.441 1.952-5.642.579-8.299-1.374-2.657-4.115-4.326-7.106-4.326h-90.669zm49.455 27.145c-8.259 0-18.349-5.239-26.984-11.145h50.061c-6.637 5.845-14.992 11.145-23.077 11.145z"/><path d="m329.863 356.751c-3.991.643-7.937.969-11.727.969-3.669 0-7.663-.305-11.869-.907-4.368-.619-8.426 2.413-9.052 6.787-.625 4.374 2.413 8.427 6.787 9.052 4.954.708 9.709 1.068 14.134 1.068 4.64 0 9.442-.395 14.272-1.173 4.362-.703 7.328-4.809 6.625-9.171-.702-4.361-4.804-7.334-9.17-6.625z"/><path d="m283.802 248c0-2.269-.949-4.312-2.466-5.769 1.006-3.453-.416-7.274-3.669-9.156-3.823-2.211-8.718-.906-10.931 2.919-1.429 2.471-4.086 4.005-6.935 4.005-4.411 0-8-3.589-8-8s3.589-8 8-8c4.418 0 8-3.582 8-8s-3.582-8-8-8c-13.234 0-24 10.766-24 24 0 2.804.488 5.496 1.376 8h-1.376c-4.418 0-8 3.582-8 8s3.582 8 8 8h40c4.42.001 8.001-3.581 8.001-7.999z"/><path d="m347.802 248c0 4.418 3.582 8 8 8h32c4.418 0 8-3.582 8-8 0-2.269-.949-4.312-2.466-5.769 1.006-3.453-.416-7.274-3.669-9.156-3.823-2.211-8.718-.906-10.931 2.919-1.429 2.471-4.086 4.005-6.935 4.005-4.411 0-8-3.589-8-8s3.589-8 8-8c4.418 0 8-3.582 8-8s-3.582-8-8-8c-13.234 0-24 10.766-24 24 0 3.701.843 7.208 2.345 10.341-1.447 1.449-2.344 3.45-2.344 5.66z"/></g></g></svg>