<svg id="Capa_1" enable-background="new 0 0 511.642 511.642" height="512" viewBox="0 0 511.642 511.642" width="512" xmlns="http://www.w3.org/2000/svg"><g><g><g><path d="m239.821 8h-48c-26.51 0-48 21.49-48 48 0 2.726.228 5.399.664 8.002l142.671-16.009c-3.811-22.698-23.553-39.993-47.335-39.993z" fill="#d4d5d5"/></g><g><path d="m239.821 8h-47.335c23.782 0 43.524 17.295 47.335 39.993h47.335c-3.811-22.698-23.553-39.993-47.335-39.993z" fill="#f5df4d"/></g><g><path d="m303.821 288h-96c-66.274 0-120-53.726-120-120 0-66.274 53.726-120 120-120h96c66.274 0 120 53.726 120 120 0 66.274-53.726 120-120 120z" fill="#d4d5d5"/></g><g><path d="m177.575 51.997c-51.604 13.426-89.754 60.196-89.754 116.003 0 61.351 46.069 111.858 105.483 119.037l2.517-151.037c-24.301 0-44-19.7-44-44 0-17.784 10.571-33.066 25.754-40.003z" fill="#b3b5b6"/></g><g><path d="m351.821 104c0 17.673-14.327 32-32 32l16 128 35.47 3.225c31.701-21.598 52.53-57.972 52.53-99.225 0-66.274-53.726-120-120-120h-8c30.928 0 56 25.072 56 56z" fill="#f5df4d"/></g><path d="m391.821 168c0-17.673-14.327-32-32-32h-144c-30.928 0-56 25.072-56 56v160h8.005l.014 123.27c-.895 12.772 28.821 25.256 66.371 27.883 37.549 2.627 68.715-5.597 69.61-18.37v-132.783h88z" fill="#fff"/><g><path d="m303.031 487.635c.416-.925.722-1.87.791-2.852v-45.255l-136-44.278.02 80.02c-.875 12.498 27.579 24.693 63.98 27.674v-11.851c0-7.311 7.027-12.448 14.034-10.363 15.844 4.717 32.608 7.27 49.965 7.27 2.434 0 4.812-.222 7.21-.365z" fill="#f5df4d"/></g><g><g><path d="m159.821 192v56.894h-24.625c-16.713 0-31.638 12.218-33.225 28.856-1.821 19.085 13.139 35.144 31.85 35.144h24v32h40v-205.883c-22.086 7.502-38 28.366-38 52.989z" fill="#f5df4d"/></g><g><path d="m263.821 248h-56c-8.837 0-16 7.163-16 16v16c0 16.394 9.885 30.445 24 36.623v-20.623c0-13.255 10.745-24 24-24h40v-8c0-8.837-7.163-16-16-16z" fill="#f5df4d"/></g><g><circle cx="239.821" cy="264" fill="#d4d5d5" r="16"/></g><g><path d="m383.821 248h-56c-8.837 0-16 7.163-16 16v8h88v-8c0-8.837-7.163-16-16-16z" fill="#f5df4d"/></g><g><circle cx="351.821" cy="264" fill="#d4d5d5" r="16"/></g><g><path d="m359.821 352h-136c-30.928 0-56-25.072-56-56 0-8.837-7.163-16-16-16h-8v31.183c0 83.947 68.053 152 152 152 53.019 0 96-34.164 96-87.183v-56c0 17.673-14.327 32-32 32z" fill="#d4d5d5"/></g><g><g><path d="m198.517 355.802v-11.604c-19.989-8.55-30.696-25.082-30.696-48.198 0-8.837-7.164-16-16-16h-8v31.183c0 83.947 68.053 152 152 152 2.163 0 4.278-.146 6.405-.259-55.757-1.91-103.709-46.924-103.709-107.122z" fill="#b3b5b6"/></g></g><g><path d="m361.821 351.798v24.202c0 37.018-20.985 64.794-51.677 78.219-4.976 3.423-10.257 6.437-15.85 8.887.514.005 1.011.077 1.526.077 53.02 0 96-34.164 96-87.183v-56c.001 16.988-13.276 30.747-29.999 31.798z" fill="#f5df4d"/></g><g><path d="m312.48 334.227h-31.325s-27 5.667-49.141 17.844c7.328 12.576 28.6 26.513 65.319 13.318 34.379 13.195 43.628-.743 50.488-13.318-20.729-12.177-35.341-17.844-35.341-17.844z" fill="#d4d5d5"/></g></g><g><path d="m310.415 389.312c7.438 0 10.56-9.348 4.739-13.979-5.866-4.668-13.681-7.521-22.3-7.521-8.618 0-16.433 2.853-22.299 7.521-5.821 4.631-2.699 13.979 4.739 13.979z" fill="#fff"/></g></g><g fill="#939597"><path d="m431.821 168c0-70.58-57.42-128-128-128h-10.324c-6.949-23.538-28.532-40-53.676-40h-48c-30.878 0-56 25.122-56 56 0 2.002.119 4.007.331 5.996-33.967 23.039-56.331 61.958-56.331 106.004 0 30.12 10.49 58.955 29.662 81.933-8.365 7.337-13.662 18.092-13.662 30.067 0 22.056 17.944 40 40 40h.2c1.378 27.85 9.917 53.844 23.8 76.189l.019 78.848c-.351 6.964 3.553 16.904 23.67 25.355 13.323 5.597 31.13 9.412 50.143 10.742 4.868.341 9.679.509 14.379.509 13.658 0 26.375-1.421 36.771-4.164 21.429-5.655 26.51-15.159 26.999-22.136.013-.186.02-.373.02-.559v-14.014c49.777-7.719 88-50.863 88-102.769v-61.507c5.049-7.598 8-16.706 8-26.493v-16c0-5.561-1.907-10.683-5.094-14.757 18.81-22.866 29.093-51.425 29.093-81.244zm-112 96c0-4.411 3.589-8 8-8h1.376c-.888 2.504-1.376 5.195-1.376 8 0 3.701.843 7.208 2.345 10.341-1.449 1.448-2.345 3.449-2.345 5.659 0 4.418 3.582 8 8 8h32c4.418 0 8-3.582 8-8 0-2.269-.949-4.313-2.466-5.769 1.006-3.453-.416-7.274-3.669-9.155-3.823-2.211-8.718-.906-10.931 2.919-1.429 2.471-4.086 4.005-6.934 4.005-4.411 0-8-3.589-8-8s3.589-8 8-8h32c4.411 0 8 3.589 8 8v16c0 17.645-14.355 32-32 32-22.056 0-40-17.944-40-40zm96-96c0 20.556-5.585 40.427-16 57.717v-57.717c0-22.056-17.944-40-40-40h-8.022c5.034-6.69 8.022-15.002 8.022-24 0-15.031-5.222-28.858-13.929-39.791 40.968 16.666 69.929 56.907 69.929 103.791zm-96.022-40c5.034-6.69 8.022-15.002 8.022-24 0-18.306-7.738-34.829-20.1-46.505 20.73 5.307 36.1 24.144 36.1 46.505 0 13.234-10.766 24-24 24zm-79.978-112c16.288 0 30.482 9.667 36.687 24h-30.346c-2.745-9.298-7.772-17.49-14.404-24zm-48 0h.665c16.288 0 30.482 9.667 36.686 24h-21.352c-20.017 0-38.974 4.623-55.864 12.851 1.614-20.589 18.87-36.851 39.865-36.851zm16 40h56c26.467 0 48 21.533 48 48 0 13.234-10.766 24-24 24h-72c-29.767 0-54.852 20.428-61.975 48h-18.025c-17.501 0-33.023-11.489-38.192-28.089 9.493-52.203 55.291-91.911 110.192-91.911zm-56 152h-16c-19.354 0-35.539-13.818-39.214-32.106 10.235 10.038 24.194 16.106 39.214 16.106h16zm-45.389 7.635c8.547 5.298 18.614 8.365 29.39 8.365h16v16h-16c-4.239 0-8.323.668-12.16 1.896-7.014-7.979-12.791-16.82-17.23-26.261zm189.389 268.677c-.275.831-3.475 4.627-15.101 7.695-12.322 3.251-28.641 4.375-45.951 3.165-17.31-1.211-33.312-4.596-45.062-9.532-11.546-4.851-13.929-9.211-13.887-9.812.013-.187.02-.374.02-.561l-.014-57.557c29.341 33.267 72.256 54.29 119.995 54.29zm0-28.312c-79.402 0-144-64.598-144-144v-32c0-4.418-3.582-8-8-8s-8 3.582-8 8v24c-13.233 0-24-10.767-24-24s10.767-24 24-24h24c4.418 0 8-3.582 8-8v-56c0-26.467 21.533-48 48-48h144c13.234 0 24 10.766 24 24v45.667c-11.07-4.256-30.175-9.953-53.872-10.333-.044 0-.087-.001-.131-.001-4.359 0-7.926 3.498-7.997 7.872-.071 4.418 3.453 8.057 7.871 8.127 26.515.425 46.878 8.41 54.128 11.674v8.994h-56c-10.429 0-19.322 6.689-22.624 16h-18.752c-3.302-9.311-12.195-16-22.624-16h-56c-13.234 0-24 10.766-24 24v16c0 26.467 21.533 48 48 48 30.878 0 56-25.122 56-56h16c0 30.878 25.122 56 56 56 8.716 0 16.89-2.347 23.943-6.425-.814 12.502-11.238 22.425-23.942 22.425h-6.427c-12.38-7.246-22.569-12.205-28.918-15.081-.064-1.987-.858-3.954-2.39-5.456-3.154-3.092-8.219-3.041-11.313.115-3.386 3.456-8.016 5.358-13.036 5.358s-9.649-1.903-13.037-5.359c-3.093-3.155-8.158-3.207-11.313-.114-1.326 1.299-2.096 2.947-2.323 4.655-10.202 2.834-26.222 8.028-40.596 15.881h-6.648c-26.467 0-48-21.533-48-48 0-4.418-3.582-8-8-8s-8 3.582-8 8c0 35.29 28.71 64 64 64h6.581c6.255 7.827 16.245 14.488 29.803 16.893-.963 3.142-.934 6.577.223 9.889 2.234 6.397 8.069 10.53 14.865 10.53h35.121c6.796 0 12.631-4.133 14.866-10.531 1.053-3.015 1.166-6.131.453-9.036 4.573-.261 8.722-1.251 12.483-2.966 7.46-3.404 12.156-9.038 15.737-14.779h5.867c8.998 0 17.31-2.988 24-8.022v16.023c.002 48.523-39.475 88-87.998 88zm-80-168h40c4.418 0 8-3.582 8-8 0-2.269-.949-4.313-2.466-5.769 1.006-3.453-.416-7.274-3.669-9.155-3.823-2.211-8.718-.906-10.931 2.919-1.429 2.471-4.086 4.005-6.934 4.005-4.411 0-8-3.589-8-8s3.589-8 8-8h24c4.411 0 8 3.589 8 8v8c0 22.056-17.944 40-40 40-17.645 0-32-14.355-32-32v-16c0-4.411 3.589-8 8-8h9.376c-.888 2.504-1.376 5.195-1.376 8s.488 5.496 1.376 8h-1.376c-4.418 0-8 3.582-8 8s3.582 8 8 8zm77.034 87.812c6.285 0 12.258 1.93 16.947 5.5l-33.9-.003c4.636-3.548 10.636-5.497 16.953-5.497zm9.344-18.785c-1.791-.688-3.768-.709-5.572-.06-27.174 9.766-42.4 2.98-49.863-3.213 15.206-6.895 30.813-10.898 36.127-12.156 4.583 2.169 9.667 3.339 14.846 3.339 5.346 0 10.587-1.253 15.283-3.558 3.471 1.451 12.982 5.614 25.717 12.681-5.318 7.221-13.885 11.661-36.538 2.967z"/><path d="m215.847 232.318c1.435 0 2.887-.384 4.195-1.188.183-.113 18.706-11.271 51.483-11.797 4.417-.071 7.941-3.709 7.871-8.127-.071-4.417-3.667-7.932-8.127-7.871-37.573.602-58.814 13.667-59.7 14.223-3.73 2.341-4.852 7.246-2.528 10.987 1.513 2.435 4.129 3.773 6.806 3.773z"/><path d="m297.855 404.062h-16c-4.418 0-8 3.582-8 8s3.582 8 8 8h16c4.418 0 8-3.582 8-8s-3.582-8-8-8z"/></g></g></svg>