<svg id="Capa_1" enable-background="new 0 0 512.001 512.001" height="512" viewBox="0 0 512.001 512.001" width="512" xmlns="http://www.w3.org/2000/svg"><g><g><g><path d="m308.903 480-40 24-80-24v-136h120z" fill="#fff"/></g><g><path d="m268.903 504 40-72 24.501 24.501c3.758 3.758 2.874 10.069-1.772 12.65z" fill="#d4d5d5"/></g><g><path d="m268.903 8c-72 0-100.005 49.012-100.005 49.012s-108.995-14.012-91.995 270.988c0 0 42 31 112 48l224-152s24-40 24-72c0-112.649-104.26-144-168-144z" fill="#d4d5d5"/></g><g><path d="m260.903 96s-7.667-10-47.667-18c-26.667-5.333-16.333-30-16.333-30l-31.422 8.925c-18.225.471-103.785 16.126-88.578 271.075 0 0 42 31 112 48l28.564-19.382z" fill="#b3b5b6"/></g><g><path d="m244.905 91.522s-39.903 87.478-88.002 115.145v65.333c0 75.111 60.889 136 136 136 61.856 0 112-50.144 112-112v-80s-14.918-89.512-159.998-124.478z" fill="#fff"/></g><g><g><path d="m290.489 339.75c-2.242 0-4.469-.934-6.051-2.762-2.895-3.34-2.531-8.391.809-11.285 5.836-5.055 14.426-7.953 23.574-7.953 9.152 0 17.742 2.898 23.574 7.957 3.336 2.895 3.695 7.945.801 11.285-2.891 3.336-7.941 3.695-11.285.801-5.836-5.062-20.336-5.066-26.188.004-1.511 1.309-3.378 1.953-5.234 1.953z" fill="#f5df4d"/></g></g><path d="m436.903 152c0-112.649-104.261-144-168-144 0 13.024 9.71 23.938 22.638 25.519 41.287 5.05 121.362 26.683 121.362 118.481 0 20.609-14.855 50.047-20.59 59.668-.012.02-.021.041-.033.061-13.464-7.096-29.289-8.425-43.812-3.584l-7.155 2.385c-9.8 3.267-16.411 12.438-16.411 22.769v7.714c0 3.475.741 6.819 1.815 10.043 2.583-6.377 7.787-11.527 14.596-13.796l7.155-2.385c15.509-5.169 32.502-3.304 46.521 5.107l16.369 9.822c.91-3.37 1.545-6.82 1.545-10.371v-15.433s24-40 24-72z" fill="#f5df4d"/><g><circle cx="364.903" cy="232" fill="#d4d5d5" r="16"/></g><path d="m327.219 402.595c-56.757-16.354-98.316-68.574-98.316-130.595v-6.933c0-20.874 20.183-36.776 40.034-30.326.134.043.267.087.4.132l7.155 2.385c6.809 2.27 12.013 7.419 14.596 13.796 1.074-3.224 1.815-6.568 1.815-10.043v-7.714c0-10.33-6.61-19.501-16.41-22.768l-7.156-2.386c-13.329-4.443-27.744-3.655-40.435 1.984v-29.78c0-7.955 2.294-15.764 6.817-22.307 12.024-17.393 23.527-37.459 32.663-59.943-.018-.039-.026-.056-.043-.095-7.423-2.312-15.192-4.496-23.435-6.482 0 0-24.002 68.479-88.002 115.145v9.335h-6.624c-16.713 0-31.638 12.218-33.225 28.856-1.82 19.086 13.14 35.144 31.85 35.144h8.404c1.761 30.189 13.341 57.74 31.596 79.485v88.515l56 40v-43.064c0-10.005 9.072-17.544 18.903-15.684 9.448 1.788 19.167 2.748 29.097 2.748 5.422 0 10.742-.407 16-1.027v-24.147c6.286-.913 12.408-2.33 18.316-4.231z" fill="#f5df4d"/><g><circle cx="252.903" cy="232" fill="#d4d5d5" r="16"/></g><g><path d="m268.903 504-80-80-24.993 31.241c-3.432 4.29-1.618 10.684 3.556 12.531z" fill="#b3b5b6"/></g></g><g fill="#939597"><path d="m310.486 307.417c8.183 0 15.815-2.949 21.49-8.303 3.214-3.031 3.361-8.095.33-11.309-3.033-3.214-8.096-3.361-11.309-.329-2.654 2.504-6.485 3.94-10.51 3.94s-7.856-1.437-10.51-3.94c-3.214-3.032-8.277-2.885-11.309.329s-2.884 8.277.33 11.309c5.673 5.354 13.305 8.303 21.488 8.303z"/><path d="m319.363 350.667c-3.933.729-7.816 1.098-11.542 1.098-3.611 0-7.549-.346-11.704-1.029-4.362-.717-8.475 2.237-9.191 6.597-.717 4.36 2.237 8.475 6.597 9.191 5.01.824 9.821 1.241 14.299 1.241 4.701 0 9.565-.459 14.457-1.365 4.344-.805 7.214-4.979 6.409-9.323-.806-4.346-4.983-7.215-9.325-6.41z"/><path d="m355.437 322.312c-1.839-4.017-6.588-5.782-10.604-3.943-1.986.909-3.418 2.53-4.14 4.421-8.45 1.862-20.344 2.948-32.799 2.948-13.128 0-25.626-1.207-34.131-3.258-.764-1.901-2.255-3.511-4.29-4.377-4.066-1.729-8.764.163-10.494 4.229l-2.667 6.268c-1.73 4.065.164 8.764 4.229 10.493 1.022.435 2.084.641 3.129.641 1.93 0 3.8-.705 5.252-1.966 9.889 2.531 23.936 3.971 38.971 3.971 14.821 0 28.676-1.4 38.541-3.864 1.262.781 2.725 1.208 4.222 1.208 1.114 0 2.247-.234 3.326-.729 4.017-1.839 5.783-6.587 3.943-10.604z"/><path d="m381.137 31.031c-43.486-28.008-92.975-31.031-112.234-31.031-60.047 0-91.542 32.381-102.296 46.303-1.258 1.629-3.128 2.652-5.264 2.88-14.258 1.522-41.407 10.022-63.034 49.848-25.755 47.429-35.645 124.625-29.392 229.446.141 2.368 1.326 4.551 3.235 5.96 1.717 1.267 41.679 30.38 108.751 47.8v38.957l-23.24 29.05c-3.224 4.029-4.307 9.399-2.898 14.363s5.151 8.964 10.011 10.7l101.437 36.228c.884.315 1.792.467 2.689.467 1.365 0 2.701-.354 3.884-1.011l.003.003 62.729-34.85c4.429-2.46 7.373-6.75 8.075-11.768s-.949-9.95-4.532-13.532l-22.158-22.158v-15.099c54.708-11.149 96-59.636 96-117.587v-30.012c5.204-7.803 8-16.965 8-26.557v-13.276c4.964-8.716 24-44.099 24-74.155 0-52.271-22.05-94.102-63.766-120.969zm-296.474 292.602c-1.817-32.341-2.057-61.847-.748-88.488 6.826-3.845 26.004-15.325 49.49-35.206 25.932-21.951 62.073-58.662 88.689-109.873 4.083.628 8.755 1.438 13.895 2.471-28.608 65.132-79.603 107.446-89.952 115.576-20.722 1.476-37.134 18.795-37.134 39.886 0 22.056 17.944 40 40 40h1.054c3.103 28.033 14.219 53.552 30.946 74.302v3.375c-51.627-14.046-86.209-35.368-96.24-42.043zm256.111-126.034c6.177.099 11.853.49 17.004 1.061-6.422.801-12.787 2.212-18.994 4.281-8.221 2.741-14.744 8.576-18.461 15.955-3.398-1.846-7.288-2.896-11.42-2.896-4.131 0-8.022 1.049-11.419 2.896-3.717-7.379-10.24-13.214-18.461-15.955-5.089-1.697-10.286-2.945-15.532-3.79 6.177-.832 13.221-1.426 21.117-1.552 4.417-.071 7.941-3.709 7.871-8.127-.07-4.374-3.638-7.872-7.997-7.872-.043 0-.087 0-.131.001-37.153.596-58.129 10.799-59.004 11.233-3.309 1.642-4.972 5.267-4.283 8.725-3.394.95-6.752 2.062-10.049 3.38l-7.653 3.061h-32.433c21.52-19.549 58.104-58.179 80.932-111.844 10.36 2.644 21.767 6.115 33.545 10.673 24.813 9.603 46.384 22.069 64.111 37.054 15.2 12.849 27.601 27.612 37.064 44.077-10.007-2.885-25.391-6.036-45.55-6.359-4.451-.07-8.057 3.453-8.127 7.871-.071 4.417 3.453 8.056 7.87 8.127zm-87.871 58.401c8.54 0 16.504-4.596 20.784-11.993 2.212-3.824.906-8.718-2.918-10.931s-8.718-.906-10.931 2.918c-1.429 2.47-4.086 4.005-6.935 4.005-4.411 0-8-3.589-8-8s3.589-8 8-8c4.418 0 8-3.582 8-8 0-.366-.033-.725-.081-1.078 4.438.708 8.835 1.762 13.141 3.197 6.543 2.182 10.94 8.281 10.94 15.179v7.714c0 7.144-3.147 13.864-8.635 18.437l-14.036 11.697c-9.599 7.999-23.5 7.369-32.335-1.466l-7.621-7.621c-6.044-6.044-9.373-14.08-9.373-22.627v-18.015l4.055-1.622c6.257-2.503 12.761-4.195 19.355-5.112-4.561 4.371-7.409 10.516-7.409 17.317-.001 13.234 10.765 24.001 23.999 24.001zm-82.746 204.239 19.409-24.262 48.523 48.523zm96.903 30.605-70.157-70.157v-41.504c25.536 22.927 59.25 36.818 96 36.818 2.689 0 5.355-.098 8-.273v14.2zm60.686-28.687-38.252 21.251 21.251-38.252zm69.157-166.157c0 57.346-46.654 104-104 104-67.616 0-123.668-52.915-127.609-120.466-.247-4.23-3.749-7.534-7.986-7.534h-8.404c-13.234 0-24-10.767-24-24s10.766-24 24-24h48v15.431c0 12.821 4.993 24.875 14.06 33.941l7.621 7.621c7.821 7.821 18.023 11.784 28.269 11.784 9.044 0 18.123-3.089 25.624-9.34l14.036-11.697c9.146-7.622 14.392-18.822 14.392-30.729v-1.011c0-4.411 3.589-8 8-8s8 3.589 8 8v1.012c0 11.907 5.246 23.107 14.393 30.729l14.036 11.697c7.502 6.252 16.578 9.341 25.624 9.34 9.262 0 18.484-3.252 25.948-9.652v12.874zm8-56.569c0 8.547-3.329 16.583-9.373 22.627l-7.621 7.621c-8.836 8.835-22.737 9.465-32.335 1.466l-14.036-11.697c-5.488-4.573-8.635-11.293-8.635-18.437v-7.714c0-6.898 4.396-12.998 10.94-15.179.643-.214 1.292-.404 1.938-.603-3.059 4.028-4.879 9.047-4.879 14.483 0 13.233 10.766 24 24 24 8.54 0 16.504-4.596 20.784-11.993 2.212-3.824.906-8.718-2.918-10.931s-8.718-.906-10.931 2.918c-1.429 2.47-4.086 4.005-6.935 4.005-4.411 0-8-3.589-8-8s3.589-8 8-8c4.418 0 8-3.582 8-8 0-.716-.103-1.407-.28-2.068 9.613.297 19.175 2.242 28.226 5.862l4.054 1.622v18.018zm8.085-32.661c-10.974-29.146-29.31-55.02-53.356-75.287-19.156-16.146-42.337-29.52-68.9-39.749-44.977-17.32-83.76-19.632-85.389-19.722-4.389-.243-8.18 3.132-8.426 7.542-.247 4.41 3.129 8.184 7.539 8.433.026.002.241.015.605.042-25.012 45.954-57.827 79.187-81.623 99.384-15.525 13.177-29.22 22.576-38.259 28.293 3.833-46.261 12.912-82.748 27.19-109.041 18.139-33.402 39.533-40.385 50.671-41.574 6.514-.696 12.277-3.895 16.228-9.009.187-.243.394-.501.596-.757 7.36-.803 22.629-.515 41.392 1.944 16.733 2.192 42.605 6.938 70.834 17.091 43.811 15.757 101.651 47.893 129.769 111.552-2.822 7.856-6.058 15.089-8.871 20.858zm-115.482-147.464c-29.572-10.637-56.657-15.604-74.171-17.899-10.325-1.353-19.334-2.063-26.829-2.341 14.895-11.479 38.35-23.066 72.397-23.066 37.161 0 75.879 10.647 103.571 28.482 37.444 24.116 56.429 60.29 56.429 107.518 0 3.407-.315 6.935-.854 10.506-32.406-57.678-87.777-87.819-130.543-103.2z"/></g></g></svg>