<svg id="Capa_1" enable-background="new 0 0 511.99 511.99" height="512" viewBox="0 0 511.99 511.99" width="512" xmlns="http://www.w3.org/2000/svg"><g><g><path d="m305.661 104-141.859 96v56c0 28.653 8.869 55.231 24 77.155v130.845h136v-74.586c50.321-10.988 88-55.797 88-109.414v-176z" fill="#fff"/><g><path d="m123.802 232c0 42-26.141 104-26.141 104l46-18 2 42 78.809-44.667z" fill="#b3b5b6"/></g><g><g><path d="m187.803 320v144h64v-16.804c0-9.583 9.617-16.25 18.531-12.731 9.146 3.611 19.004 5.535 29.192 5.535 0 0 23.617-.097 24.277-.111v-29.222z" fill="#f5df4d"/></g></g><g><circle cx="259.803" cy="232" fill="#d4d5d5" r="16"/></g><g><circle cx="371.803" cy="232" fill="#d4d5d5" r="16"/></g><g><path d="m411.775 271.891c.042 17.705-14.295 32.109-32 32.109h-127.973c-13.255 0-24-10.745-24-24v-152h-48v72h-22.625c-16.713 0-31.638 12.218-33.225 28.856-1.82 19.085 13.14 35.144 31.85 35.144h8.447c4.168 71.361 63.147 128 135.553 128 61.855 0 112-50.144 112-112 0 0-.039-12.753-.027-8.109z" fill="#f5df4d"/></g><g><path d="m211.803 280c0-8.837-7.164-16-16-16h-31.553c3.366 57.626 42.494 105.612 95.553 121.964v-65.964h-8c-22.092 0-40-17.909-40-40z" fill="#d4d5d5"/></g><g><path d="m335.494 288h-50.707c-14.684 0-27.483 9.994-31.045 24.239l-8.545 34.179c-8.835 35.344 17.897 69.582 54.329 69.582h22.307c41.637 0 72.187-39.129 62.089-79.522l-6.06-24.239z" fill="#d4d5d5"/></g><g><path d="m383.922 336.478-6.06-24.239c-3.561-14.246-16.361-24.239-31.044-24.239h-27.729c14.684 0 27.483 9.993 31.044 24.239l6.06 24.239c9.875 39.501-19.155 77.691-59.378 79.364.907.043 1.791.159 2.711.159h22.307c41.637-.001 72.187-39.13 62.089-79.523z" fill="#f5df4d"/></g><g><path d="m341.85 451.906c-16.171 9.242-48.939 14.049-86.311 11.342-35.918-2.602-66.647-11.459-82.011-22.332l-8.625 19.733c-2.05 4.999-1.221 10.781 2.356 14.831 11.724 13.274 46.525 24.743 88.28 27.768 47.12 3.413 87.027-5.092 95.416-19.412 1.397-2.386 1.45-5.331.466-7.915z" fill="#d4d5d5"/></g><g><path d="m251.656 462.877c-34.218-2.944-63.329-11.488-78.127-21.961l-8.625 19.733c-2.05 4.999-1.221 10.781 2.356 14.831 11.356 12.858 44.389 23.998 84.396 27.435z" fill="#b3b5b6"/></g><g><path d="m413.16 96c-2.248-44.069-16.5-74.5-64.5-70l-14.191 83.333s71.333 68.667 103.858 61.333c0 .001-22.667-25.666-25.167-74.666z" fill="#f5df4d"/></g><g><path d="m302.327 8h-76.949c-94.718 0-98.718 93-151.718 152l48-8-32 96s61.685-28.137 118.325-71.731c26.509-6.097 92.461-24.72 129.675-65.603 26.927-29.58 36.667-102.666-35.333-102.666z" fill="#d4d5d5"/></g><g><path d="m238.795 39.352c-1.403-2.211-5.512-7.352-13.418-7.352-12.484 0-22.623-9.568-23.773-21.751-72.067 14.475-79.785 96.14-127.944 149.751l48-8-32 96s47.967-21.897 98.142-56.961v-46.956c0-14.62 5.778-28.675 15.992-39.136 18.309-18.751 29.312-35.812 35.906-49.751 3.524-7.446.54-13.559-.905-15.844z" fill="#b3b5b6"/></g><g><path d="m329.355 333.417c7.438 0 10.56-9.348 4.739-13.979-5.866-4.668-13.681-7.521-22.299-7.521s-16.433 2.853-22.299 7.521c-5.821 4.631-2.699 13.979 4.739 13.979z" fill="#fff"/></g></g><g fill="#939597"><path d="m444.325 165.371c-.208-.236-20.843-24.099-23.173-69.779-1.621-31.759-9.12-52.385-23.6-64.912-11.288-9.765-26.783-14.1-46.089-12.916-9.095-9.718-24.162-17.764-49.135-17.764h-76.949c-31.023 0-55.873 9.577-75.969 29.279-17.57 17.225-29.442 39.604-42.01 63.295-11.4 21.49-23.189 43.711-39.689 62.08-2.271 2.529-2.697 6.216-1.062 9.196 1.635 2.979 4.972 4.598 8.328 4.042l34.894-5.815-27.798 83.395c-1.007 3.02-.127 6.35 2.24 8.478 1.499 1.348 3.413 2.052 5.351 2.052 1.123 0 2.254-.236 3.316-.721.714-.325 9.058-4.149 22.132-10.972-4.047 38.89-24.592 88.04-24.822 88.585-1.249 2.963-.601 6.387 1.643 8.69s5.648 3.04 8.644 1.867l35.624-13.94 1.47 30.871c.132 2.779 1.698 5.289 4.136 6.63 1.201.66 2.528.99 3.854.99 1.367 0 2.732-.35 3.959-1.048l30.182-17.189v69.761c-6.159 3.618-9.115 7.669-10.403 11.279-.1.187-.198.374-.285.571l-11.395 26.071c-.024.056-.048.112-.071.168-3.216 7.842-1.74 16.934 3.762 23.162 13.564 15.358 50.343 27.311 93.698 30.451 7.061.512 14.077.764 20.936.764 15.82 0 30.794-1.345 43.49-3.964 20.128-4.152 33.071-10.93 38.471-20.147 2.57-4.39 2.95-9.785 1.04-14.803-.015-.039-.03-.078-.045-.116l-12.334-30.947c-1.617-5.757-6.589-10.995-14.864-15.64v-3.056c18.436-2.535 35.113-12.063 46.781-27.006 9.215-11.803 14.391-25.819 15.171-40.304 15.886-20.636 26.048-50.129 26.048-76.006v-103.349c5.353 1.451 10.364 2.194 15.006 2.193 1.492 0 2.949-.075 4.366-.226 2.976-.316 5.526-2.268 6.61-5.057 1.085-2.789.522-5.95-1.459-8.193zm-351.422-16.688c11.099-15.561 19.973-32.289 28.632-48.61 23.931-45.113 44.6-84.073 103.844-84.073 11.164 0 20.98 5.391 26.933 14.792 5.962 9.415 6.654 21.096 1.853 31.247-25.935 54.831-84.949 96.651-135.45 124.102l10.537-31.611c.887-2.662.315-5.594-1.507-7.727-1.534-1.794-3.764-2.803-6.082-2.803-.437 0-.877.036-1.315.109zm10.409 83.666 8.103-24.308c43.59-22.155 79.659-46.615 107.196-72.737 22.385-21.234 39.214-43.583 50.018-66.424 7.159-15.137 6.113-32.575-2.798-46.649-1.41-2.227-2.988-4.304-4.702-6.231h41.201c22.483 0 37.195 7.494 43.728 22.274 9.127 20.651-.03 51.32-14.31 67.007-26.972 29.631-65.148 46.122-91.448 54.585 23.024-20.874 40.373-41.763 51.861-62.488 2.142-3.864.746-8.733-3.119-10.875-3.865-2.143-8.734-.745-10.875 3.119-37.022 66.787-135.192 122.321-174.855 142.727zm49.72 114.247-1.38-28.977c-.123-2.574-1.477-4.931-3.639-6.333-2.163-1.401-4.867-1.677-7.267-.737l-29.064 11.373c5.472-15.062 12.957-37.969 17.082-60.476 7.126 6.549 16.622 10.554 27.038 10.554h1.055c2.387 21.499 9.579 42.125 21.045 60.433zm184.343 115.321 6.731 16.89c.189.521.135.905.093.986-4.951 8.451-36.326 19.214-87.935 15.476-44.561-3.228-74.19-15.266-82.862-25.085-1.485-1.681-1.865-4.198-.978-6.43l5.236-11.979c4.555 3.548 10.798 6.803 18.719 9.748 15.748 5.854 36.797 9.945 59.271 11.519 6.645.465 13.196.695 19.554.695 15.145 0 29.186-1.305 40.744-3.843 9.128-2.005 16.274-4.672 21.427-7.977zm-141.573-17.933v-88.524c13.062 13.699 28.708 24.725 46.097 32.388 1.962 4.036 4.347 7.909 7.181 11.538 12.214 15.643 30.6 24.614 50.446 24.614h16.276v29.485c-1.706.438-3.577.865-5.641 1.27-14.659 2.884-33.621 3.708-53.394 2.325-19.772-1.384-38.435-4.844-52.55-9.742-3.298-1.144-6.076-2.273-8.415-3.354zm168.554-319.255c-3.279-2.961-8.338-2.703-11.299.577-2.961 3.279-2.702 8.338.577 11.299.509.459 12.647 11.372 28.896 22.006 7.497 4.906 14.59 8.916 21.272 12.044v17.599c-10.768-4.5-29.527-10.536-53.372-10.918-4.464-.059-8.057 3.454-8.127 7.871-.071 4.418 3.453 8.057 7.871 8.127 27.47.441 47.542 9.447 53.628 12.529v74.137c0 16.711-4.882 35.138-13.034 50.879l-5.145-20.581c-1.975-7.899-6.245-14.918-12.349-20.299-3.314-2.923-8.37-2.604-11.292.711-2.921 3.314-2.603 8.37.711 11.291 3.661 3.227 6.222 7.438 7.407 12.178l6.06 24.239c4.211 16.846.498 34.358-10.188 48.045s-26.775 21.537-44.139 21.537h-22.307c-14.884 0-28.674-6.729-37.834-18.46-9.16-11.732-12.343-26.742-8.733-41.182l8.545-34.18c1.313-5.253 4.406-9.958 8.709-13.247 3.51-2.683 4.181-7.704 1.498-11.214-2.682-3.51-7.703-4.182-11.214-1.498-7.172 5.481-12.327 13.323-14.516 22.079l-8.545 34.179c-1.862 7.447-2.353 15.005-1.567 22.382-15.86-9.186-29.644-21.715-40.353-36.819-13.86-19.549-21.926-42.547-23.324-66.506-.247-4.23-3.749-7.534-7.986-7.534h-8.404c-12.151 0-22.215-9.079-23.781-20.808 12.219-6.792 26.472-15.162 41.547-24.912 13.698-8.859 26.385-17.746 38.052-26.648 6.097-.893 84.119-15.025 131.957-67.58 17.586-19.32 28.784-55.043 17.871-82.4 10.749.55 19.203 3.566 25.634 9.13 10.808 9.349 16.724 26.89 18.088 53.626 1.511 29.608 10.021 51.195 17.124 64.357-21.701-6.574-47.846-26.938-57.938-36.036z"/><path d="m334.001 272.491c-4.598 4.842-10.854 7.509-17.615 7.509-6.762 0-13.018-2.667-17.615-7.509-3.042-3.203-8.105-3.335-11.31-.292-3.204 3.042-3.335 8.106-.292 11.31 7.538 7.938 18.188 12.491 29.218 12.491s21.679-4.553 29.218-12.491c3.042-3.204 2.912-8.268-.292-11.31-3.206-3.043-8.27-2.912-11.312.292z"/><path d="m277.668 233.076c-3.823-2.211-8.718-.906-10.931 2.919-1.429 2.471-4.086 4.005-6.935 4.005-4.411 0-8-3.589-8-8s3.589-8 8-8c4.418 0 8-3.582 8-8s-3.582-8-8-8c-13.234 0-24 10.766-24 24s10.766 24 24 24c8.541 0 16.504-4.596 20.784-11.994 2.213-3.824.906-8.718-2.918-10.93z"/><path d="m371.802 256c8.541 0 16.504-4.596 20.784-11.994 2.212-3.824.906-8.718-2.919-10.931-3.823-2.211-8.718-.906-10.931 2.919-1.429 2.471-4.086 4.005-6.935 4.005-4.411 0-8-3.589-8-8s3.589-8 8-8c4.418 0 8-3.582 8-8s-3.582-8-8-8c-13.234 0-24 10.766-24 24s10.768 24.001 24.001 24.001z"/><path d="m240.409 206.541c.182-.126 18.574-12.687 51.098-13.208 4.417-.071 7.941-3.709 7.871-8.127-.07-4.374-3.638-7.872-7.997-7.872-.043 0-.087 0-.131.001-37.823.606-59.195 15.513-60.086 16.147-3.587 2.553-4.421 7.513-1.886 11.113 1.555 2.208 4.031 3.387 6.548 3.387 1.585-.001 3.187-.468 4.583-1.441z"/><path d="m339.074 313.177c-7.506-5.972-17.194-9.261-27.28-9.261s-19.774 3.289-27.28 9.261c-5.386 4.286-7.406 11.237-5.146 17.709 2.234 6.397 8.069 10.53 14.865 10.53h35.121c6.796 0 12.631-4.133 14.866-10.531 2.261-6.471.241-13.422-5.146-17.708zm-44.233 12.236c4.638-3.548 10.638-5.497 16.954-5.497 6.285 0 12.257 1.93 16.947 5.5z"/><path d="m319.794 348.667h-16c-4.418 0-8 3.582-8 8s3.582 8 8 8h16c4.418 0 8-3.582 8-8s-3.581-8-8-8z"/></g></g></svg>