<svg id="Capa_1" enable-background="new 0 0 512.001 512.001" height="512" viewBox="0 0 512.001 512.001" width="512" xmlns="http://www.w3.org/2000/svg"><g><g><g><path d="m264 504-88-80-24.833 31.041c-3.477 4.346-1.563 10.827 3.717 12.587z" fill="#b3b5b6"/></g><g><path d="m264 504 48-72 32 32z" fill="#d4d5d5"/></g><g><path d="m288 408c61.856 0 112-50.144 112-112v-160h-248v136c0 75.111 60.89 136 136 136z" fill="#fff"/></g><g><path d="m360 248c16.394 0 30.445 9.885 36.623 24 2.147-4.906 3.377-10.302 3.377-16 0-22.091-17.909-40-40-40s-40 17.909-40 40c0 5.698 1.23 11.094 3.377 16 6.178-14.115 20.23-24 36.623-24z" fill="#f5df4d"/></g><g><path d="m368 72-93.554-53.459c-12.088-6.908-25.769-10.541-39.691-10.541-35.579 0-67.668 21.393-81.353 54.235l-17.402 41.765.121-.017c-10.076 13.384-16.121 29.974-16.121 48.017v72c0-44.183 35.817-80 80-80h176c13.255 0 24 10.745 24 24v-64c0-17.673-14.326-32-32-32z" fill="#d4d5d5"/></g><g><path d="m206.463 12.721c-23.557 7.996-43.148 25.725-53.061 49.514l-17.402 41.765.121-.017c-10.076 13.384-16.121 29.974-16.121 48.017v72c0-44.183 35.817-80 80-80h40v-80c0-22.934-13.8-42.62-33.537-51.279z" fill="#b3b5b6"/></g><path d="m398.32 280c-8.291 0-15.454 5.103-19.006 12.594-3.211 6.771-6.928 14.499-13.842 17.153-8.472 3.253-18.222-3.997-18.222-3.997-9-5.5-15.268-5.408-24.34-3.697-6.776 1.278-13.757 1.947-20.891 1.947-7.206 0-14.257-.683-21.097-1.986-8.407-1.602-17.126-.631-24.571 3.592-3.485 1.977-7.095 4.318-12.63 9.728-3.072 3.003-7.296 4.666-11.721 4.666-.16 0-.319 0-.477 0-8.597-.007-15.523-7.004-15.523-15.601v-40.326c7.286-9.749 18.892-16.073 32-16.073 16.394 0 30.445 9.885 36.623 24 2.147-4.906 3.377-10.302 3.377-16 0-22.091-17.909-40-40-40-13.086 0-24.702 6.285-32 15.999v-24.002c0-22.092 17.909-40.001 40.001-40l63.999.002c13.255 0 24-10.745 24-23.999h-144c-44.183 0-80 35.817-80 80-3.76 5.62-8.405 18.723-7.933 26.095 1.096 17.108 16.357 29.905 33.5 29.905h6.836c.104 1.795.396 3.457.569 5.203 2.27 23.423 10.449 45.113 23.027 63.544v75.253l88.001 80 48-72v-26.586c50.321-10.988 88-55.797 88-109.413v-16h-1.68z" fill="#f5df4d"/><g><path d="m160 216c13.255 0 24-10.745 24-24v-46.393c-33.787 6.859-59.824 35.01-63.529 69.837-.019.183-.048.371-.066.554v.001z" fill="#d4d5d5"/></g><g><path d="m288 432c-9.936 0-19.652-.963-29.09-2.752-9.834-1.865-18.91 5.673-18.91 15.682v35.07l24 24 48-74.251c-7.805 1.397-15.798 2.251-24 2.251z" fill="#fff"/></g><g><path d="m224.894 338.617c-1.902-4.616-5.363-8.337-9.281-11.431-9.233-7.29-15.612-18.499-15.613-31.186 0-8.837-7.163-16-16-16h-31.192c4.164 71.366 63.186 128 135.596 128 6.865 0 13.56-.686 20.08-1.871-37.976-6.829-69.263-32.749-83.59-67.512z" fill="#d4d5d5"/></g><g><circle cx="248" cy="232" fill="#d4d5d5" r="16"/></g><g><circle cx="360" cy="232" fill="#d4d5d5" r="16"/></g></g><g fill="#939597"><path d="m314.459 350.667c-3.932.729-7.815 1.098-11.542 1.098-3.612 0-7.55-.346-11.704-1.029-4.36-.717-8.475 2.237-9.191 6.597s2.237 8.475 6.597 9.191c5.009.823 9.82 1.241 14.299 1.241 4.702 0 9.566-.459 14.457-1.366 4.344-.805 7.213-4.979 6.409-9.324-.806-4.344-4.983-7.212-9.325-6.408z"/><path d="m346.483 322.6c-1.68-4.086-6.354-6.035-10.441-4.356-2.177.895-3.739 2.643-4.478 4.696-7.439 1.769-17.79 2.798-28.647 2.798-11.453 0-22.342-1.145-29.842-3.096-.78-2.065-2.397-3.802-4.621-4.652-4.13-1.577-8.752.49-10.329 4.617l-2.396 6.269c-1.577 4.127.49 8.751 4.617 10.329.94.359 1.905.529 2.854.529 1.852 0 3.63-.665 5.049-1.821 8.965 2.44 21.398 3.825 34.667 3.825 13.139 0 25.458-1.359 34.402-3.754 1.21.699 2.585 1.097 4.003 1.097 1.014 0 2.044-.194 3.04-.603 4.086-1.68 6.037-6.355 4.356-10.441z"/><path d="m279.448 181.601c-36.227.581-71.798 8.927-73.294 9.282-4.298 1.02-6.956 5.331-5.937 9.629.872 3.679 4.155 6.157 7.778 6.157.61 0 1.23-.07 1.85-.217.351-.083 35.423-8.3 69.86-8.852 4.417-.071 7.941-3.709 7.871-8.127s-3.669-7.94-8.128-7.872z"/><path d="m408 104c0-21.304-16.742-38.767-37.76-39.934l-91.825-52.471c-13.274-7.586-28.372-11.595-43.66-11.595-38.932 0-73.764 23.221-88.738 59.159l-17.089 41.014c-10.637 14.547-16.928 32.465-16.928 51.827v72.028c-5.021 6.685-8 14.987-8 23.972 0 22.056 17.944 40 40 40h1.054c2.577 23.286 10.688 44.835 22.946 63.36v69.834l-23.08 28.85c-3.266 4.082-4.332 9.513-2.851 14.527s5.326 8.994 10.285 10.647l109.116 36.373c.834.277 1.687.411 2.529.411 1.249 0 2.467-.308 3.57-.859.002.003.009.013.009.013l80-40c2.3-1.15 3.907-3.335 4.319-5.874.412-2.538-.421-5.12-2.24-6.938l-29.657-29.657v-17.026c50.682-14.039 88-60.571 88-115.661zm-183.845 130.689c1.342 11.972 11.521 21.311 23.845 21.311 8.54 0 16.504-4.596 20.784-11.994 2.212-3.824.906-8.718-2.919-10.931-3.823-2.211-8.717-.906-10.931 2.919-1.429 2.471-4.086 4.006-6.934 4.006-4.411 0-8-3.589-8-8s3.589-8 8-8c17.645 0 32 14.355 32 32s-14.355 32-32 32-32-14.355-32-32c0-8.179 3.089-15.648 8.155-21.311zm71.845 21.311c0-7.303-1.647-14.227-4.577-20.43 3.759-2.315 8.103-3.57 12.577-3.57 4.488 0 8.825 1.248 12.58 3.563-2.932 6.205-4.58 13.131-4.58 20.437 0 11.032 3.751 21.2 10.031 29.315-2.116-.119-4.274.591-5.938 2.161-2.654 2.504-6.485 3.94-10.51 3.94s-7.856-1.436-10.51-3.94c-2.971-2.803-7.521-2.884-10.587-.339 7.171-8.389 11.514-19.262 11.514-31.137zm40.155-21.311c1.342 11.972 11.521 21.311 23.845 21.311 8.54 0 16.504-4.596 20.784-11.994 2.212-3.824.906-8.718-2.919-10.931-3.823-2.211-8.718-.906-10.931 2.919-1.429 2.471-4.086 4.006-6.934 4.006-4.411 0-8-3.589-8-8s3.589-8 8-8c17.645 0 32 14.355 32 32s-14.355 32-32 32-32-14.355-32-32c0-8.179 3.089-15.648 8.155-21.311zm23.845-26.689c-13.409 0-25.545 5.533-34.263 14.429-6.432-4.174-13.948-6.429-21.737-6.429-7.764 0-15.299 2.257-21.738 6.428-8.717-8.895-20.853-14.428-34.262-14.428h-104c-5.217 0-10.199 1.015-14.773 2.84 6.204-33.436 35.568-58.84 70.773-58.84h176c8.822 0 16 7.178 16 16v20.872c-10.493-3.017-27.894-6.812-50.169-7.271-4.408-.084-8.072 3.416-8.163 7.834-.091 4.417 3.417 8.072 7.834 8.163 24.25.499 42.302 5.35 50.498 8.022v14.641c-8.498-7.617-19.715-12.261-32-12.261zm-128-128v56h-16v-56zm32 0v56h-16v-56zm32 0v56h-16v-56zm32 0v56h-16v-56zm32 0v56h-16v-56zm-160 56c-5.463 0-10.81.505-16 1.462v-55.648c5.15-1.173 10.5-1.814 16-1.814zm-32 6.026c-5.638 2.208-10.995 4.979-16 8.249v-51.883c4.799-4.301 10.177-7.962 16-10.864zm-40 9.974c0-11.859 2.9-23.047 8-32.921v44.587c-2.891 3.065-5.568 6.335-8 9.789zm264-48v36.294c-4.709-2.73-10.176-4.294-16-4.294v-54.624c9.312 3.302 16 12.195 16 22.624zm-157.245-88c12.508 0 24.861 3.28 35.722 9.486l67.399 38.514h-137.876c-15.796 0-30.631 4.186-43.459 11.503l4.246-10.191c12.482-29.956 41.516-49.312 73.968-49.312zm-77.34 444.039 19.51-24.387 53.652 48.774zm129.952 23.333 25.876-38.815 17.251 17.251zm16.633-53.794-41.499 62.248-78.501-71.365v-49.049c26.271 27.519 63.268 44.588 104 44.588 5.424 0 10.764-.369 16-1.069zm-16-29.578c-67.616 0-123.669-52.915-127.61-120.466-.247-4.23-3.749-7.534-7.986-7.534h-8.404c-13.234 0-24-10.766-24-24s10.766-24 24-24h68.261c-7.617 8.499-12.261 19.716-12.261 32 0 26.467 21.533 48 48 48 13.751 0 26.161-5.821 34.92-15.118-2.115 3.185-1.702 7.52 1.173 10.233 5.674 5.354 13.306 8.302 21.49 8.302 8.183 0 15.814-2.948 21.49-8.302 1.721-1.623 2.553-3.829 2.499-6.021 8.289 6.811 18.889 10.906 30.428 10.906 12.284 0 23.501-4.644 32-12.261v4.261c0 57.346-46.654 104-104 104z"/></g></g></svg>