<svg id="Capa_1" enable-background="new 0 0 512.001 512.001" height="512" viewBox="0 0 512.001 512.001" width="512" xmlns="http://www.w3.org/2000/svg"><g><g><g><path d="m263.966 504-88-80-24.833 31.041c-3.477 4.346-1.563 10.827 3.717 12.587z" fill="#b3b5b6"/></g><g><path d="m263.966 504 48-72 32 32z" fill="#d4d5d5"/></g><g><path d="m287.966 408c61.856 0 112-50.144 112-112v-160h-248v136c0 75.111 60.89 136 136 136z" fill="#fff"/></g><g><path d="m359.966 248c16.394 0 30.445 9.885 36.623 24 2.147-4.906 3.377-10.302 3.377-16 0-22.091-17.909-40-40-40s-40 17.909-40 40c0 5.698 1.23 11.094 3.377 16 6.178-14.115 20.23-24 36.623-24z" fill="#f5df4d"/></g><g><path d="m367.966 72-93.554-53.459c-12.088-6.908-25.769-10.541-39.691-10.541-35.579 0-67.668 21.393-81.353 54.235l-17.402 41.765.121-.017c-10.076 13.383-16.121 29.974-16.121 48.017v72c0-44.183 35.817-80 80-80h176c13.255 0 24 10.745 24 24v-64c0-17.673-14.326-32-32-32z" fill="#d4d5d5"/></g><g><path d="m206.429 12.721c-23.557 7.996-43.148 25.725-53.061 49.514l-17.402 41.765.121-.017c-10.076 13.383-16.121 29.974-16.121 48.017v72c0-44.183 35.817-80 80-80h40v-80c0-22.934-13.8-42.62-33.537-51.279z" fill="#b3b5b6"/></g><path d="m398.742 280c-8.161 0-16.239 4.371-19.196 11.977-2.956 7.602-12.295 3.773-12.295 3.773s-14.428-1.461-23.5.25c0 0-34.631 6-41.765 6-17.485 0-51.485-10.25-51.485-10.25-.107 0-10.397 11.514-17.25 19.143-5.949 6.623-17.227 2.665-17.283-6.238-.001-.085-.001-.171-.001-.257v-40.326c7.286-9.749 18.892-16.073 32-16.073 16.394 0 30.445 9.885 36.623 24 2.147-4.906 3.377-10.302 3.377-16 0-22.091-17.909-40-40-40-13.086 0-24.702 6.285-32 15.999v-24.002c0-22.092 17.909-40.001 40.001-40l63.999.002c13.255 0 24-10.745 24-23.999h-144c-44.183 0-80 35.817-80 80-3.76 5.62-8.405 18.723-7.933 26.095 1.096 17.108 16.357 29.905 33.5 29.905h6.836c.104 1.795.396 3.457.569 5.203 2.269 23.423 10.449 45.113 23.027 63.544v75.253l88 79.999 48-72v-26.586c50.321-10.988 88-55.797 88-109.413v-16h-1.224z" fill="#f5df4d"/><g><path d="m159.966 216c13.255 0 24-10.745 24-24v-46.393c-33.787 6.859-59.824 35.01-63.529 69.837-.019.183-.048.371-.066.554v.001z" fill="#d4d5d5"/></g><g><path d="m287.966 432c-9.936 0-19.652-.963-29.09-2.752-9.834-1.865-18.91 5.673-18.91 15.682v35.07l24 24 48-74.251c-7.805 1.397-15.798 2.251-24 2.251z" fill="#fff"/></g><g><path d="m224.86 338.617c-1.902-4.616-5.363-8.337-9.281-11.431-9.233-7.29-15.612-18.499-15.613-31.186 0-8.837-7.163-16-16-16h-31.192c4.164 71.366 63.186 128 135.596 128 6.865 0 13.56-.686 20.08-1.871-37.976-6.829-69.263-32.749-83.59-67.512z" fill="#d4d5d5"/></g><g><path d="m248.334 323.162c0 21.816 23.729 39.5 53 39.5s53-17.685 53-39.5z" fill="#fff"/></g></g><g fill="#939597"><path d="m370.241 64.066-91.825-52.471c-13.275-7.586-28.373-11.595-43.661-11.595-38.932 0-73.764 23.221-88.738 59.159l-17.089 41.014c-10.637 14.547-16.928 32.465-16.928 51.827v72.028c-5.021 6.685-8 14.987-8 23.972 0 22.056 17.944 40 40 40h1.054c2.577 23.286 10.688 44.835 22.946 63.36v69.834l-23.08 28.85c-3.266 4.082-4.332 9.513-2.851 14.527s5.326 8.994 10.285 10.647l109.116 36.373c.834.277 1.687.411 2.529.411 1.221 0 2.412-.296 3.496-.823.027-.009.056-.009.083-.023l80-40c2.3-1.15 3.907-3.335 4.319-5.874.412-2.538-.421-5.12-2.24-6.938l-29.657-29.657v-17.026c50.682-14.039 88-60.571 88-115.661v-192c0-21.304-16.742-38.767-37.759-39.934zm-122.241 159.934c17.645 0 32 14.355 32 32s-14.355 32-32 32-32-14.355-32-32 14.355-32 32-32zm48 32c0-7.303-1.647-14.227-4.577-20.43 3.759-2.315 8.103-3.57 12.577-3.57 4.488 0 8.825 1.248 12.58 3.563-2.932 6.205-4.58 13.131-4.58 20.437 0 9.893 3.01 19.095 8.16 26.743-1.288.246-2.533.809-3.612 1.707-2.71 2.256-6.676 3.55-10.881 3.55s-8.171-1.294-10.882-3.551c-2.022-1.684-4.627-2.193-7.002-1.619 5.186-7.664 8.217-16.899 8.217-26.83zm32 0c0-17.645 14.355-32 32-32s32 14.355 32 32-14.355 32-32 32-32-14.355-32-32zm32-48c-13.409 0-25.545 5.533-34.263 14.429-6.432-4.174-13.948-6.429-21.737-6.429-7.764 0-15.299 2.257-21.738 6.428-8.717-8.895-20.853-14.428-34.262-14.428h-23.071c11.699-4.43 30.789-10.274 55.539-13.05 4.391-.493 7.551-4.451 7.059-8.842-.492-4.39-4.445-7.55-8.842-7.059-45.605 5.115-73.345 19.958-74.503 20.587-3.084 1.675-4.618 5.085-4.063 8.363h-56.119c-5.217 0-10.199 1.015-14.773 2.84 6.204-33.435 35.568-58.839 70.773-58.839h176c8.822 0 16 7.178 16 16v24.164c-10.144-5.683-26.23-11.77-49.867-13.15-4.412-.25-8.195 3.109-8.453 7.52s3.109 8.195 7.52 8.453c30.476 1.779 45.773 12.196 50.8 16.432v8.843c-8.498-7.618-19.715-12.262-32-12.262zm-128-128v56h-16v-56zm32 0v56h-16v-56zm32 0v56h-16v-56zm32 0v56h-16v-56zm32 0v56h-16v-56zm-160 56c-5.463 0-10.81.505-16 1.462v-55.648c5.15-1.173 10.5-1.814 16-1.814zm-32 6.026c-5.638 2.208-10.995 4.979-16 8.249v-51.883c4.799-4.301 10.177-7.962 16-10.864zm-40 9.974c0-11.859 2.9-23.047 8-32.921v44.587c-2.891 3.065-5.568 6.335-8 9.789zm264-48v36.294c-4.709-2.73-10.176-4.294-16-4.294v-54.624c9.312 3.302 16 12.195 16 22.624zm-157.245-88c12.508 0 24.861 3.28 35.722 9.486l67.399 38.514h-137.876c-15.796 0-30.631 4.186-43.459 11.503l4.246-10.191c12.482-29.956 41.516-49.312 73.968-49.312zm-77.34 444.039 19.51-24.387 53.652 48.774zm129.952 23.333 25.876-38.815 17.251 17.251zm16.633-53.794-41.498 62.248-78.502-71.365v-49.049c26.271 27.519 63.268 44.588 104 44.588 5.424 0 10.764-.369 16-1.069zm-16-29.578c-67.616 0-123.669-52.915-127.61-120.466-.247-4.23-3.749-7.534-7.986-7.534h-8.404c-13.234 0-24-10.766-24-24s10.766-24 24-24h68.261c-7.617 8.499-12.261 19.716-12.261 32 0 26.467 21.533 48 48 48 13.116 0 25.015-5.293 33.688-13.848-.134 2.44.838 4.91 2.861 6.594 5.619 4.678 13.119 7.254 21.118 7.254 8 0 15.5-2.576 21.119-7.254 1.257-1.047 2.109-2.397 2.544-3.855 8.323 6.931 19.017 11.109 30.67 11.109 12.284 0 23.501-4.644 32-12.261v4.261c0 57.346-46.654 104-104 104z"/><path d="m227.361 254.517c3.6 2.562 8.594 1.722 11.157-1.877 1.53-2.148 4.796-5.753 9.483-5.753s7.953 3.604 9.483 5.753c1.561 2.192 4.023 3.361 6.524 3.361 1.605 0 3.226-.482 4.633-1.483 3.6-2.562 4.44-7.558 1.877-11.157-5.644-7.927-13.851-12.474-22.517-12.474s-16.873 4.546-22.517 12.474c-2.563 3.598-1.723 8.594 1.877 11.156z"/><path d="m339.361 254.517c3.599 2.562 8.594 1.722 11.157-1.877 1.53-2.148 4.796-5.753 9.483-5.753s7.953 3.604 9.483 5.753c1.561 2.192 4.023 3.361 6.524 3.361 1.605 0 3.226-.482 4.633-1.483 3.6-2.562 4.44-7.558 1.877-11.157-5.644-7.927-13.851-12.474-22.517-12.474s-16.873 4.546-22.517 12.474c-2.563 3.598-1.723 8.594 1.877 11.156z"/><path d="m368.131 320.228-12.609-10.697c-3.368-2.857-8.417-2.444-11.276.925-1.167 1.376-1.78 3.033-1.877 4.706h-83.38c-.097-1.673-.709-3.33-1.877-4.706-2.858-3.369-7.907-3.783-11.276-.925l-12.609 10.697c-3.369 2.858-3.783 7.907-.925 11.276 1.583 1.865 3.836 2.825 6.104 2.825 1.165 0 2.334-.256 3.418-.769 6.107 21.206 30.461 37.103 59.51 37.103 28.845 0 53.061-15.677 59.378-36.66.733.214 1.486.326 2.24.326 2.268 0 4.522-.959 6.104-2.825 2.859-3.369 2.444-8.418-.925-11.276zm-66.797 34.435c-20.866 0-38.46-9.992-43.53-23.5h87.06c-5.07 13.508-22.664 23.5-43.53 23.5z"/></g></g></svg>