<svg id="Capa_1" enable-background="new 0 0 511.642 511.642" height="512" viewBox="0 0 511.642 511.642" width="512" xmlns="http://www.w3.org/2000/svg"><g><g><g><path d="m239.821 8.358h-48c-26.51 0-48 21.49-48 48 0 2.726.228 5.399.664 8.002l142.671-16.009c-3.811-22.698-23.553-39.993-47.335-39.993z" fill="#d4d5d5"/></g><g><path d="m239.821 8.358h-47.335c23.782 0 43.524 17.295 47.335 39.993h47.335c-3.811-22.698-23.553-39.993-47.335-39.993z" fill="#f5df4d"/></g><g><path d="m303.821 288.358h-96c-66.274 0-120-53.726-120-120 0-66.274 53.726-120 120-120h96c66.274 0 120 53.726 120 120 0 66.275-53.726 120-120 120z" fill="#d4d5d5"/></g><g><path d="m177.575 52.355c-51.604 13.426-89.754 60.197-89.754 116.003 0 61.351 46.069 111.858 105.483 119.037l2.517-151.037c-24.301 0-44-19.7-44-44 0-17.783 10.571-33.066 25.754-40.003z" fill="#b3b5b6"/></g><g><path d="m351.821 104.358c0 17.673-14.327 32-32 32l16 128 35.47 3.225c31.701-21.598 52.53-57.972 52.53-99.225 0-66.274-53.726-120-120-120h-8c30.928 0 56 25.072 56 56z" fill="#f5df4d"/></g><path d="m391.821 168.179c0-17.673-14.327-32-32-32h-144c-30.928 0-56 25.072-56 56v160h8.005l.014 123.27c-.895 12.772 28.821 25.256 66.371 27.883 37.549 2.627 68.715-5.597 69.61-18.37v-132.783h88z" fill="#fff"/><g><path d="m303.031 487.993c.416-.925.722-1.87.791-2.852v-45.255l-136-44.278.02 80.02c-.875 12.498 27.579 24.693 63.98 27.674v-11.851c0-7.311 7.027-12.448 14.034-10.363 15.845 4.716 32.609 7.269 49.966 7.269 2.433.001 4.811-.22 7.209-.364z" fill="#f5df4d"/></g><g><g><path d="m159.821 192.358v56.894h-24.625c-16.713 0-31.638 12.218-33.225 28.856-1.821 19.085 13.139 35.144 31.85 35.144h24v32h40v-205.883c-22.086 7.503-38 28.366-38 52.989z" fill="#f5df4d"/></g><g><path d="m263.821 248h-56c-8.837 0-16 7.163-16 16v16c0 16.394 9.885 30.445 24 36.623v-20.623c0-13.255 10.745-24 24-24h40v-8c0-8.837-7.163-16-16-16z" fill="#f5df4d"/></g><g><path d="m383.821 248h-56c-8.837 0-16 7.163-16 16v8h88v-8c0-8.837-7.163-16-16-16z" fill="#f5df4d"/></g><g><path d="m359.821 352.358h-136c-30.928 0-56-25.072-56-56 0-8.837-7.163-16-16-16h-8v31.183c0 83.947 68.053 152 152 152 53.019 0 96-34.164 96-87.183v-56c0 17.673-14.327 32-32 32z" fill="#d4d5d5"/></g><g><g><path d="m198.517 356.16v-11.604c-19.989-8.55-30.696-25.082-30.696-48.198 0-8.837-7.164-16-16-16h-8v31.183c0 83.947 68.053 152 152 152 2.163 0 4.278-.146 6.405-.259-55.757-1.91-103.709-46.924-103.709-107.122z" fill="#b3b5b6"/></g></g><g><path d="m361.821 352.157v24.202c0 37.018-20.985 64.794-51.677 78.219-4.976 3.423-10.257 6.437-15.85 8.887.514.005 1.011.077 1.526.077 53.02 0 96-34.164 96-87.183v-56c.001 16.987-13.276 30.746-29.999 31.798z" fill="#f5df4d"/></g><g><path d="m242.133 348.416c0 21.816 23.729 39.5 53 39.5s53-17.685 53-39.5z" fill="#fff"/></g><g><path d="m309.821 320h-22.667s-18.667 17.667-53.141 19.511c7.328 12.576 28.6 26.513 65.319 13.318 34.379 13.195 44.378.997 51.238-11.579-27.749-4.25-40.749-21.25-40.749-21.25z" fill="#d4d5d5"/></g></g></g><g fill="#939597"><path d="m431.821 168c0-70.58-57.42-128-128-128h-10.324c-6.949-23.538-28.532-40-53.676-40h-48c-30.878 0-56 25.122-56 56 0 2.002.119 4.007.331 5.996-33.967 23.039-56.331 61.958-56.331 106.004 0 30.12 10.49 58.955 29.662 81.933-8.365 7.337-13.662 18.092-13.662 30.067 0 22.056 17.944 40 40 40h.2c1.378 27.85 9.917 53.844 23.8 76.189l.019 78.847c-.351 6.964 3.553 16.904 23.67 25.355 13.323 5.597 31.13 9.412 50.143 10.742 4.868.341 9.679.509 14.379.509 13.658 0 26.375-1.421 36.771-4.164 21.429-5.655 26.51-15.159 26.999-22.136.013-.186.02-.373.02-.559v-14.014c49.777-7.719 88-50.863 88-102.769v-61.507c5.049-7.598 8-16.706 8-26.493v-16c0-5.561-1.907-10.683-5.094-14.757 18.81-22.865 29.093-51.424 29.093-81.243zm-88-64c0 13.234-10.766 24-24 24h-.022c5.034-6.69 8.022-15.002 8.022-24 0-18.306-7.738-34.829-20.1-46.505 20.73 5.307 36.1 24.144 36.1 46.505zm-17.262 118.15c27.865 4.45 50.512 13.7 57.262 16.648v1.202h-56c-10.429 0-19.322 6.689-22.624 16h-18.752c-3.302-9.311-12.194-16-22.624-16h-96v-48c0-26.467 21.533-48 48-48h144c13.234 0 24 10.766 24 24v53.458c-10.916-4.34-30.867-11.296-54.738-15.108-4.362-.698-8.465 2.275-9.162 6.638s2.276 8.465 6.638 9.162zm-107.378 55.23c3.599 2.563 8.594 1.722 11.157-1.877 1.53-2.148 4.796-5.753 9.483-5.753s7.953 3.604 9.483 5.753c1.561 2.192 4.023 3.361 6.524 3.361 1.605 0 3.226-.482 4.633-1.483 3.6-2.562 4.44-7.558 1.877-11.157-3.316-4.658-7.521-8.137-12.18-10.224h13.662c4.411 0 8 3.589 8 8v8c0 22.056-17.944 40-40 40-17.645 0-32-14.355-32-32v-16c0-4.411 3.589-8 8-8h21.662c-4.659 2.087-8.863 5.566-12.18 10.224-2.561 3.599-1.72 8.594 1.879 11.156zm20.64-261.38c16.288 0 30.482 9.667 36.687 24h-30.346c-2.745-9.299-7.772-17.49-14.404-24zm-48 0h.665c16.288 0 30.481 9.667 36.686 24h-21.351c-20.017 0-38.974 4.623-55.864 12.851 1.613-20.589 18.869-36.851 39.864-36.851zm16 40h56c26.467 0 48 21.533 48 48 0 13.234-10.766 24-24 24h-72c-29.767 0-54.852 20.428-61.975 48h-18.025c-17.501 0-33.023-11.489-38.192-28.089 9.493-52.203 55.291-91.911 110.192-91.911zm-72 136h16v16h-16c-19.339 0-35.515-13.797-39.207-32.064 10.235 10.023 24.2 16.064 39.207 16.064zm-29.39 23.635c8.547 5.298 18.614 8.365 29.39 8.365h16v16h-16c-4.239 0-8.323.668-12.16 1.896-7.013-7.979-12.79-16.821-17.23-26.261zm189.39 268.677c-.275.831-3.475 4.627-15.101 7.695-12.323 3.251-28.64 4.376-45.951 3.165-17.31-1.211-33.312-4.596-45.062-9.532-11.546-4.851-13.929-9.211-13.887-9.812.013-.187.02-.374.02-.561l-.014-57.557c29.341 33.267 72.256 54.29 119.995 54.29zm88-116.312c0 48.523-39.477 88-88 88-79.402 0-144-64.598-144-144v-32c0-4.418-3.582-8-8-8s-8 3.582-8 8v24c-13.233 0-24-10.767-24-24s10.767-24 24-24h49.376c-.888 2.504-1.376 5.195-1.376 8v16c0 26.467 21.533 48 48 48 30.878 0 56-25.122 56-56h16c0 13.854 5.068 26.539 13.432 36.326-2.786-1.486-6.309-1.237-8.885.908-2.709 2.256-6.675 3.55-10.881 3.55-4.205 0-8.171-1.294-10.881-3.55-3.395-2.828-8.44-2.366-11.267 1.029-2.182 2.62-2.397 6.219-.825 9.027-7.764 4.74-21.671 11.201-40.929 12.232-2.784.149-5.289 1.736-6.613 4.189s-1.275 5.418.128 7.827c.09.155.191.307.283.461h-3.564c-26.467 0-48-21.533-48-48 0-4.418-3.582-8-8-8s-8 3.582-8 8c0 35.29 28.71 64 64 64h8c1.4 0 2.714-.362 3.859-.993 6.199 21.109 30.493 36.91 59.453 36.91 28.505 0 52.499-15.306 59.157-35.917h5.531c8.998 0 17.31-2.988 24-8.022v16.023zm-63.054-55.92c10.096 9.84 23.875 15.92 39.054 15.92 8.716 0 16.89-2.347 23.943-6.425-.815 12.502-11.239 22.425-23.943 22.425h-1.748c.749-2.042.648-4.32-.333-6.3-1.157-2.337-3.38-3.963-5.958-4.358-10.018-1.534-19.042-5.052-26.821-10.455-1.788-1.242-3.301-2.446-4.544-3.523 1.273-2.215 1.417-4.934.35-7.284zm16.425 34.29c-5.478 4.832-14.837 6.727-34.993-1.01-1.791-.687-3.768-.708-5.572-.06-22.437 8.064-36.725 4.844-45.228-.01 20.226-4.259 33.361-13.131 38.642-17.277 2.402.507 4.898.771 7.446.771 2.939 0 5.81-.351 8.546-1.023 4.442 4.595 14.671 13.505 31.159 18.609zm-4.534 19.405c-8.064 8.514-21.871 14.142-37.525 14.142-16.475 0-30.903-6.234-38.744-15.505 11.475 2.851 25.791 2.561 42.846-3.086 10.161 3.644 18.541 5.19 25.525 5.19 2.858 0 5.481-.261 7.898-.741zm59.163-85.775c0 17.645-14.355 32-32 32-22.056 0-40-17.944-40-40v-8c0-4.411 3.589-8 8-8h13.662c-4.659 2.087-8.863 5.566-12.18 10.224-2.562 3.599-1.722 8.594 1.877 11.157 3.6 2.563 8.594 1.722 11.157-1.877 1.53-2.148 4.796-5.753 9.483-5.753s7.953 3.604 9.483 5.753c1.561 2.192 4.023 3.361 6.524 3.361 1.605 0 3.226-.482 4.633-1.483 3.6-2.562 4.44-7.558 1.877-11.157-3.316-4.658-7.521-8.137-12.18-10.224h21.662c4.411 0 8 3.589 8 8v15.999zm-32-152h-8.022c5.034-6.69 8.022-15.002 8.022-24 0-15.031-5.222-28.858-13.929-39.791 40.968 16.666 69.929 56.907 69.929 103.791 0 20.556-5.585 40.427-16 57.717v-57.717c0-22.056-17.944-40-40-40z"/><path d="m270.584 206.346c-36.007 5.636-57.467 16.309-58.363 16.76-3.945 1.989-5.532 6.799-3.543 10.745 1.407 2.791 4.225 4.401 7.15 4.401 1.21 0 2.439-.276 3.594-.858.197-.1 20.086-9.989 53.637-15.24 4.365-.683 7.35-4.776 6.667-9.141-.684-4.365-4.771-7.348-9.142-6.667z"/></g></g></svg>