<svg id="Capa_1" enable-background="new 0 0 512 512" height="512" viewBox="0 0 512 512" width="512" xmlns="http://www.w3.org/2000/svg"><g><g><path d="m366.712 502.22v-30.042c0-61.371-49.751-111.122-111.122-111.122-61.371 0-111.122 49.751-111.122 111.122v30.042z" fill="#f0c4db"/><path d="m295.43 502.215v-17.811c0-22.72-17.807-41.139-39.773-41.139-21.966 0-39.773 18.418-39.773 41.139v17.811" fill="#e58bbd"/><path d="m181.481 483.897h33.281v18.318h-33.281z" fill="#e693db"/><path d="m263.441 400.062c21.455 9.65 36.546 32.552 36.546 59.279v6.431c0 4.291-1.499 8.228-3.991 11.332v25.111h33.837v-28.385c0-38.337-29.085-69.877-66.392-73.768z" fill="#e693db"/><path d="m294.986 478.251c-3.302 3.471-7.954 5.646-13.123 5.646h-65.966c-.002.169-.012.337-.012.507v17.811h79.545v-17.811c0-2.091-.153-4.146-.444-6.153z" fill="#e068bd"/><g fill="#d49c8d"><circle cx="417.101" cy="316.57" r="36.8"/><circle cx="94.214" cy="316.57" r="36.8"/><path d="m287.016 407.513h-62.717c-77.934 0-141.112-63.178-141.112-141.112 0-77.934 63.178-141.112 141.112-141.112h62.717c77.934 0 141.112 63.178 141.112 141.112 0 77.934-63.178 141.112-141.112 141.112z"/></g><path d="m287.016 126.113h-18.096c63.182 0 114.401 51.219 114.401 114.401v9.715c0 63.182-51.219 114.401-114.401 114.401h-71.332c-60.463 0-109.964-46.908-114.113-106.316-.184 2.948-.288 5.917-.288 8.91v.001c0 77.934 63.178 141.112 141.112 141.112h62.717c77.934 0 141.112-63.178 141.112-141.112v-.001c0-77.933-63.178-141.111-141.112-141.111z" fill="#c7758d"/><path d="m409.203 167.006c3.523-3.264 6.503-6.919 8.71-11.02 18.167-33.746 6.651-68.961-22.493-84.651-29.145-15.69-64.881-5.912-83.048 27.834-2.187 4.063-3.591 8.518-4.38 13.208-5.858-.671-11.811-1.028-17.849-1.028h-68.972c-6.177 0-12.266.372-18.255 1.074-.787-4.707-2.194-9.177-4.388-13.254-18.167-33.746-53.903-43.524-83.048-27.834s-40.66 50.905-22.493 84.651c2.256 4.192 5.316 7.92 8.941 11.238-22.438 26.912-35.943 61.533-35.943 99.312v.001c0 19.405 19.053 35.641 19.822 34.273 26.585-47.303 77.239-79.264 135.365-79.264h68.972c58.014 0 108.584 31.837 135.211 78.99 3.804 6.736 19.975-14.594 19.975-34v-.001c0-37.881-13.58-72.586-36.127-99.529z" fill="#f0c4db"/><path d="m409.203 167.006c3.523-3.264 6.503-6.919 8.71-11.02 18.167-33.746 6.651-68.961-22.493-84.651-16.364-8.809-34.804-9.588-51.048-2.605 1.053.482 2.1.988 3.135 1.545 24.906 13.408 34.747 43.501 19.222 72.339-1.886 3.505-4.433 6.628-7.444 9.417 19.268 23.025 30.873 52.682 30.873 85.054 0 6.026-1.828 12.264-4.307 17.494 15.987 12.546 29.453 28.158 39.503 45.956 3.804 6.736 19.975-14.594 19.975-34v-.001c.001-37.88-13.579-72.585-36.126-99.528z" fill="#e693db"/><ellipse cx="366.687" cy="126.185" fill="#e58bbd" rx="26.132" ry="21.095" transform="matrix(.5 -.866 .866 .5 74.062 380.651)"/><ellipse cx="144.467" cy="126.185" fill="#e58bbd" rx="21.095" ry="26.132" transform="matrix(.866 -.5 .5 .866 -43.737 89.139)"/></g><g><g fill="#440b29"><path d="m255.657 437.235c-25.255 0-45.802 22.142-45.802 49.357v18.759c0 3.33 2.7 6.03 6.03 6.03s6.03-2.7 6.03-6.03v-18.759c0-20.566 15.137-37.298 33.742-37.298 18.606 0 33.744 16.732 33.744 37.298v18.759c0 3.33 2.7 6.03 6.03 6.03s6.03-2.7 6.03-6.03v-18.759c-.001-27.215-20.548-49.357-45.804-49.357z"/><path d="m451.846 285.222c2.201-6.141 3.534-12.643 3.534-18.687 0-35.75-11.66-70.595-32.997-99.069 1.672-2.163 3.136-4.407 4.378-6.717 9.871-18.336 12.469-38.438 7.315-56.604-5.056-17.82-17.093-32.616-33.893-41.66-16.799-9.044-35.776-10.945-53.438-5.353-18.001 5.7-33.352 18.937-43.223 37.274-1.221 2.268-2.271 4.677-3.147 7.213-3.427-.213-6.846-.32-10.232-.32h-68.972c-3.521 0-7.077.116-10.639.345-.877-2.545-1.93-4.963-3.155-7.239-9.871-18.336-25.221-31.573-43.223-37.272-17.658-5.592-36.637-3.691-53.438 5.353-16.8 9.044-28.836 23.839-33.893 41.66-5.153 18.165-2.557 38.268 7.315 56.604 1.297 2.408 2.83 4.743 4.587 6.988-21.203 28.42-32.791 63.168-32.791 98.798 0 6.368 1.578 12.532 4.007 18.137-7.798 8.369-12.578 19.583-12.578 31.898 0 25.833 21.016 46.85 46.849 46.85 4.435 0 8.722-.634 12.789-1.795 13.55 16.663 30.569 30.393 49.95 40.081-14.138 19.821-22.468 44.056-22.468 70.203v30.042c0 5.55 4.5 10.05 10.05 10.05s10.05-4.499 10.05-10.05v-30.042c0-23.457 8.035-45.071 21.494-62.241 7.701 2.599 15.674 4.599 23.87 5.932-15.093 14.592-24.496 35.035-24.496 57.638v32.114c0 3.33 2.7 6.03 6.03 6.03s6.03-2.7 6.03-6.03v-32.114c0-23.101 11.563-43.541 29.198-55.868 2.515.125 5.044.194 7.59.194h62.716c2.547 0 5.077-.07 7.593-.195 17.635 12.326 29.195 32.768 29.195 55.869v32.114c0 3.33 2.7 6.03 6.03 6.03s6.03-2.7 6.03-6.03v-32.114c0-22.609-9.415-43.048-24.519-57.637 8.203-1.333 16.185-3.329 23.892-5.93 13.459 17.169 21.494 38.782 21.494 62.239v30.042c0 5.55 4.5 10.05 10.05 10.05s10.05-4.499 10.05-10.05v-30.042c0-26.146-8.329-50.38-22.466-70.199 19.377-9.686 36.393-23.415 49.942-40.073 4.069 1.159 8.36 1.783 12.796 1.783 25.833 0 46.85-21.017 46.85-46.85-.001-12.057-4.597-23.042-12.106-31.35zm-342.199-111.563c3.439-4.124 3.028-10.224-.934-13.849-2.947-2.697-5.26-5.587-6.876-8.588-14.783-27.461-7.042-57.338 18.408-71.038 11.971-6.444 25.411-7.826 37.843-3.889 13.181 4.174 24.105 13.731 31.591 27.638 1.567 2.911 2.686 6.326 3.327 10.15.884 5.284 5.756 8.942 11.081 8.322 5.695-.667 11.443-1.006 17.085-1.006h68.972c5.509 0 11.129.324 16.705.962 5.298.604 10.166-3.046 11.054-8.317.641-3.808 1.758-7.211 3.318-10.111 7.487-13.907 18.412-23.465 31.593-27.638 12.432-3.936 25.871-2.555 37.842 3.889 11.971 6.445 20.525 16.903 24.084 29.448 3.774 13.3 1.811 27.682-5.677 41.591-1.576 2.929-3.828 5.759-6.69 8.411-3.928 3.638-4.313 9.717-.877 13.822 21.787 26.033 33.785 59.089 33.785 93.08 0 7.393-3.259 15.296-6.383 20.457-30.331-46.809-82.61-75.497-138.754-75.497h-68.972c-55.495 0-107.161 27.988-137.645 73.807-3.706-4.84-7.492-11.699-7.492-18.767 0-33.897 11.937-66.88 33.612-92.877zm-15.433 169.661c-14.75 0-26.75-12-26.75-26.75 0-5.243 1.524-10.133 4.143-14.264 2.672 2.833 5.317 5.059 7.606 6.513 3.574 12.207 8.651 23.778 15.015 34.5-.005 0-.01.001-.014.001zm192.802 54.143h-62.716c-60.505 0-111.559-41.213-126.579-97.04 26.386-42.603 73.122-68.828 123.451-68.828h68.972c50.299 0 97.056 26.224 123.443 68.81-15.014 55.834-66.062 97.058-126.571 97.058zm130.085-54.143c-.004 0-.008-.001-.012-.001 5.946-10.019 10.77-20.777 14.293-32.105 3.224-1.031 6.479-3.463 9.509-6.841 1.885 3.66 2.959 7.803 2.959 12.197.001 14.75-11.999 26.75-26.749 26.75z"/><path d="m171.469 308.913c-8.7 0-15.753 7.053-15.753 15.753s7.053 15.753 15.753 15.753 15.753-7.053 15.753-15.753-7.053-15.753-15.753-15.753z"/><path d="m339.846 308.913c-8.7 0-15.753 7.053-15.753 15.753s7.053 15.753 15.753 15.753 15.753-7.053 15.753-15.753-7.053-15.753-15.753-15.753z"/><path d="m186.973 272.67c-.717-.366-7.244-3.576-15.504-3.576-8.261 0-14.786 3.21-15.504 3.576-2.955 1.509-4.121 5.113-2.628 8.076 1.494 2.962 5.114 4.156 8.084 2.679.046-.023 4.631-2.271 10.048-2.271s10.003 2.249 10.021 2.257c.877.448 1.814.661 2.736.661 2.194-.001 4.31-1.202 5.375-3.29 1.515-2.966.338-6.598-2.628-8.112z"/><path d="m355.349 272.67c-.716-.366-7.244-3.576-15.504-3.576s-14.786 3.21-15.503 3.576c-2.967 1.514-4.144 5.146-2.629 8.112 1.513 2.966 5.147 4.145 8.112 2.629.045-.023 4.575-2.257 10.02-2.257 5.417 0 10.003 2.249 10.021 2.257.877.448 1.814.661 2.736.661 2.194-.001 4.309-1.202 5.375-3.29 1.515-2.966.339-6.598-2.628-8.112z"/><path d="m271.41 318.636c-3.33 0-6.03 2.7-6.03 6.03 0 5.361-4.362 9.723-9.723 9.723s-9.723-4.362-9.723-9.723c0-3.33-2.7-6.03-6.03-6.03s-6.03 2.7-6.03 6.03c0 12.011 9.772 21.783 21.783 21.783s21.783-9.772 21.783-21.783c0-3.33-2.7-6.03-6.03-6.03z"/><path d="m350.605 154.039c3.673 2.12 7.73 3.123 11.862 3.123 10.442 0 21.357-6.411 27.711-17.415 8.867-15.358 5.543-33.937-7.41-41.416-6.489-3.746-14.278-4.184-21.929-1.234-7.201 2.777-13.466 8.29-17.643 15.525-8.867 15.359-5.542 33.938 7.409 41.417zm3.035-35.387c2.803-4.855 6.9-8.514 11.538-10.302 4.183-1.614 8.29-1.463 11.56.426 7.194 4.153 8.538 15.342 2.995 24.942-5.542 9.599-15.905 14.029-23.098 9.877-7.192-4.154-8.537-15.343-2.995-24.943z"/><path d="m148.687 157.162c4.132 0 8.189-1.003 11.861-3.123 12.953-7.479 16.277-26.058 7.41-41.416-8.868-15.358-26.618-21.769-39.572-14.291-12.952 7.479-16.276 26.057-7.41 41.416 6.354 11.003 17.269 17.414 27.711 17.414zm-14.271-48.386c1.833-1.058 3.872-1.56 5.985-1.56 6.177 0 12.983 4.284 17.113 11.436 5.542 9.599 4.199 20.788-2.995 24.942-7.194 4.152-17.556-.278-23.098-9.876-5.542-9.6-4.198-20.788 2.995-24.942z"/><path d="m355.807 176.277c-3.33 0-6.03 2.7-6.03 6.03v10.156c0 3.33 2.7 6.03 6.03 6.03s6.03-2.7 6.03-6.03v-10.156c0-3.33-2.7-6.03-6.03-6.03z"/><path d="m381.884 199.089c-3.33 0-6.03 2.7-6.03 6.03v10.156c0 3.33 2.7 6.03 6.03 6.03s6.03-2.7 6.03-6.03v-10.156c0-3.33-2.7-6.03-6.03-6.03z"/></g><path d="m147.13 199.632c-3.118 0-6.191-1.446-8.156-4.166-3.25-4.499-2.238-10.781 2.262-14.031 2.18-1.575 4.44-3.112 6.716-4.568 4.676-2.991 10.891-1.625 13.881 3.05 2.991 4.676 1.625 10.891-3.05 13.881-1.959 1.253-3.902 2.575-5.778 3.93-1.779 1.285-3.837 1.904-5.875 1.904z" fill="#fff"/><path d="m179.575 182.33c-4.082 0-7.919-2.505-9.423-6.556-1.931-5.204.721-10.988 5.925-12.919 11.064-4.106 22.439-6.804 33.809-8.017 5.524-.594 10.471 3.408 11.06 8.927s-3.408 10.47-8.926 11.059c-9.711 1.036-19.451 3.349-28.949 6.874-1.153.429-2.334.632-3.496.632z" fill="#fff"/></g><g><path d="m40.872 2.543 8.536 24.002c.365 1.028 1.089 1.842 2.002 2.253l21.325 9.608c3.013 1.357 3.013 6.158 0 7.515l-21.325 9.609c-.913.411-1.637 1.226-2.002 2.253l-8.536 24.003c-1.206 3.391-5.471 3.391-6.677 0l-8.536-24.003c-.366-1.028-1.089-1.842-2.002-2.253l-21.326-9.608c-3.013-1.357-3.013-6.158 0-7.515l21.325-9.608c.913-.411 1.637-1.226 2.002-2.253l8.536-24.002c1.207-3.392 5.472-3.392 6.678-.001z" fill="#f0c4db"/><ellipse cx="51.207" cy="421.309" fill="#e58bbd" rx="18.639" ry="18.639" transform="matrix(.122 -.993 .993 .122 -373.202 420.654)"/><path d="m285.994 50.255c0 4.359-3.534 7.894-7.893 7.894-4.36 0-7.894-3.534-7.894-7.894 0-4.359 3.534-7.894 7.894-7.894 4.359 0 7.893 3.535 7.893 7.894z" fill="#e58bbd"/><path d="m486.616 34.65 6.332 17.805c.271.762.808 1.366 1.485 1.672l15.819 7.127c2.235 1.007 2.235 4.568 0 5.575l-15.819 7.127c-.677.305-1.214.909-1.485 1.672l-6.332 17.805c-.895 2.515-4.058 2.515-4.953 0l-6.332-17.805c-.271-.762-.808-1.366-1.485-1.672l-15.819-7.127c-2.235-1.007-2.235-4.568 0-5.575l15.819-7.127c.677-.305 1.214-.909 1.485-1.672l6.332-17.805c.895-2.515 4.059-2.515 4.953 0z" fill="#f0c4db"/></g></g></svg>