<svg id="Capa_1" enable-background="new 0 0 512 512" height="512" viewBox="0 0 512 512" width="512" xmlns="http://www.w3.org/2000/svg"><g><g><path d="m437.167 401.951h-341.567c-16.501 0-29.878-13.377-29.878-29.878v-123.018c0-92.512 74.996-167.509 167.509-167.509h66.306c92.513 0 167.509 74.996 167.509 167.509v123.018c-.001 16.502-13.378 29.878-29.879 29.878z" fill="#a183e2"/><path d="m385.176 501.945v-32.115c0-65.607-53.185-118.793-118.793-118.793-65.607 0-118.793 53.185-118.793 118.793v32.115z" fill="#b07676"/><path d="m345.68 501.945v-30.345c0-43.794-35.502-79.297-79.296-79.297-43.794 0-79.296 35.502-79.296 79.297v30.344h158.592z" fill="#b07676"/><path d="m309.643 431.728h25.275c-12.424-21.305-34.482-36.304-60.214-38.988 16.04 7.215 28.744 21.363 34.939 38.988z" fill="#a45775"/><path d="m189.242 453.263c-1.395 5.888-2.155 12.022-2.155 18.337v30.345h158.593v-30.345c0-6.315-.76-12.449-2.155-18.337z" fill="#84eac4"/><path d="m313.717 453.263c.036.945.057 1.894.057 2.848v6.875c0 10.701-8.675 19.376-19.376 19.376h-107.311v19.583h.003 158.59v-30.345c0-6.315-.76-12.449-2.155-18.337z" fill="#71afc4"/><path d="m266.374 474.72c-4.99-.001-9.715-2.208-12.963-6.057-7.185-8.515-17.477-13.398-28.234-13.398-7.351 0-14.475 2.233-20.604 6.456-5.446 3.753-12.905 2.381-16.659-3.066-3.753-5.447-2.381-12.905 3.066-16.659 10.144-6.99 21.969-10.686 34.197-10.686 15.282 0 29.928 5.865 41.198 16.305 11.271-10.44 25.915-16.305 41.198-16.305 12.026 0 23.689 3.584 33.725 10.365 5.482 3.703 6.924 11.149 3.221 16.629-3.704 5.481-11.152 6.921-16.631 3.221-6.061-4.095-13.086-6.259-20.315-6.259-10.758 0-21.049 4.884-28.235 13.398-3.249 3.849-7.974 6.056-12.964 6.056z" fill="#f0c4db"/><path d="m339.269 440.364c-9.013-5.588-19.219-8.68-29.759-9.018 2.719 7.598 4.225 15.848 4.258 24.478 5.01.876 9.81 2.79 14.119 5.701 5.479 3.7 12.927 2.26 16.63-3.221.009-.013.015-.026.023-.038-1.057-6.248-2.842-12.244-5.271-17.902z" fill="#e693db"/><g fill="#b07676"><ellipse cx="438.971" cy="303.767" rx="39.34" ry="39.34" transform="matrix(.987 -.16 .16 .987 -42.99 74.238)"/><ellipse cx="93.795" cy="303.767" rx="39.34" ry="39.34" transform="matrix(.099 -.995 .995 .099 -217.736 367.173)"/><path d="m299.906 400.989h-67.046c-83.314 0-150.853-67.539-150.853-150.853 0-83.314 67.539-150.853 150.853-150.853h67.046c83.314 0 150.853 67.539 150.853 150.853 0 83.313-67.539 150.853-150.853 150.853z"/></g><path d="m299.906 99.889h-19.345c67.544 0 122.298 54.755 122.298 122.298v10.386c0 67.543-54.755 122.298-122.298 122.298h-76.256c-64.637 0-117.555-50.146-121.99-113.655-.196 3.151-.308 6.325-.308 9.526v.001c0 83.314 67.539 150.853 150.853 150.853h67.046c83.314 0 150.853-67.539 150.853-150.853v-.001c0-83.314-67.539-150.853-150.853-150.853z" fill="#a45775"/><path d="m61.103 276.575c-3.265-10.019-3.569-30.413-3.569-30.413 1.98-92.673 77.717-167.191 170.865-167.191h75.961c93.148 0 168.884 74.518 170.865 167.191 0 0 .424 17.977-5.676 28.143l-19.841-15.423c-39.578 12.747-90.678 2.098-132.377-31.579-24.227-19.566-41.519-43.873-50.951-68.922-9.432 25.049-26.724 49.355-50.951 68.922-41.721 33.695-92.854 44.337-132.44 31.559" fill="#a183e2"/><g fill="#fff"><path d="m170.012 191.154c-5.902 4.833-13.353 8.924-22.78 12.505-5.192 1.972-7.802 7.779-5.83 12.97 1.526 4.017 5.347 6.488 9.402 6.488 1.186 0 2.394-.212 3.568-.659 11.489-4.364 20.773-9.515 28.381-15.746 4.297-3.519 4.927-9.854 1.408-14.151-3.517-4.295-9.852-4.927-14.149-1.407z"/><path d="m114.018 212.202c-2.7.417-4.758.686-6.673.873-5.527.54-9.569 5.458-9.029 10.985.507 5.195 4.882 9.078 9.995 9.078.327 0 .657-.016.99-.048 2.301-.225 4.702-.537 7.785-1.013 5.488-.848 9.25-5.984 8.403-11.472-.847-5.489-5.991-9.251-11.471-8.403z"/><path d="m440.433 86.654c-2.909-1.96-6.092-3.193-9.339-3.755-.623-6.984-4.269-13.638-10.537-17.86-11.037-7.435-26.012-4.515-33.447 6.522-2.463 3.656-3.783 7.744-4.055 11.846-9.885-3.049-21.002.545-27.08 9.568-6.916 10.267-4.868 23.936 4.333 31.78-7.043 10.989-4.059 25.646 6.823 32.976 10.122 6.818 23.551 4.923 31.444-3.949.71.609 1.458 1.188 2.253 1.724 11.037 7.435 26.012 4.515 33.448-6.522 4.237-6.29 5.107-13.857 3.032-20.58 3.778-1.79 7.141-4.583 9.647-8.302 7.435-11.038 4.515-26.013-6.522-33.448zm-44.123 32.832c-.022-.019-.043-.038-.064-.056 2.265-3.535 3.493-7.447 3.754-11.374.98.302 1.972.536 2.971.709.151 1.694.481 3.367.982 4.992-2.848 1.349-5.457 3.271-7.643 5.729z"/></g><path d="m391.199 129.504c-7.091-4.777-8.967-14.398-4.19-21.489 4.777-7.091 14.398-8.968 21.489-4.191 7.091 4.777 8.967 14.398 4.191 21.489v.001c-4.778 7.091-14.399 8.967-21.49 4.19z" fill="#f7e266"/><path d="m381.491 84.435c.602-1.072 1.124-2.206 1.545-3.405 3.911-11.142-1.951-23.344-13.092-27.255-6.101-2.141-12.517-1.347-17.718 1.634-2.323-2.592-5.312-4.654-8.829-5.888-11.142-3.911-23.344 1.951-27.255 13.093-1.263 3.598-1.501 7.305-.877 10.81-5.988 2.047-11.014 6.715-13.272 13.15-3.911 11.141 1.951 23.344 13.093 27.255 3.095 1.086 6.271 1.416 9.329 1.09.259 8.582 5.703 16.521 14.29 19.534 10.315 3.62 21.533-1.139 26.246-10.705 11.097 3.795 23.198-2.059 27.089-13.146 3.598-10.259-1.089-21.41-10.549-26.167zm-37.955 8.579c-.031-1.042-.139-2.074-.32-3.089 1.297-.444 2.548-1.01 3.736-1.691 1.739 1.941 3.855 3.579 6.283 4.8-.187.333-.366.672-.536 1.017-3.042-1.041-6.159-1.357-9.163-1.037z" fill="#84eac4"/><path d="m362.263 95.946c-2.513 7.158-10.352 10.924-17.51 8.412-7.158-2.512-10.924-10.352-8.412-17.51 2.512-7.158 10.352-10.924 17.51-8.412h.001c7.158 2.512 10.924 10.351 8.411 17.51z" fill="#f7e266"/><path d="m190.739 92.976c-6.078-9.023-17.195-12.618-27.08-9.568-.272-4.103-1.592-8.19-4.055-11.846-7.435-11.037-22.41-13.957-33.448-6.522-6.268 4.222-9.914 10.876-10.537 17.86-3.246.562-6.429 1.795-9.339 3.755-11.037 7.435-13.957 22.41-6.522 33.448 2.505 3.719 5.868 6.512 9.647 8.302-2.074 6.723-1.205 14.29 3.032 20.58 7.435 11.037 22.41 13.957 33.448 6.522.795-.536 1.543-1.115 2.253-1.724 7.893 8.872 21.322 10.768 31.444 3.949 10.882-7.331 13.866-21.987 6.823-32.976 9.202-7.844 11.25-21.514 4.334-31.78zm-47.978 20.78c.501-1.625.831-3.298.982-4.992.999-.173 1.991-.407 2.971-.709.26 3.928 1.488 7.84 3.754 11.374-.022.018-.042.038-.064.056-2.186-2.457-4.795-4.379-7.643-5.729z" fill="#eaa585"/><path d="m155.515 129.504c7.091-4.777 8.967-14.398 4.19-21.489-4.777-7.091-14.398-8.968-21.489-4.191-7.091 4.777-8.967 14.398-4.191 21.489l.001.001c4.776 7.091 14.398 8.967 21.489 4.19z" fill="#f7e266"/><path d="m244.722 86.572c-2.259-6.435-7.284-11.102-13.272-13.15.624-3.504.386-7.212-.877-10.81-3.911-11.141-16.113-17.003-27.255-13.093-3.517 1.234-6.505 3.296-8.829 5.888-5.202-2.981-11.618-3.775-17.719-1.634-11.141 3.911-17.003 16.113-13.092 27.255.421 1.199.943 2.334 1.545 3.405-9.46 4.757-14.147 15.908-10.547 26.166 3.891 11.086 15.992 16.941 27.089 13.146 4.713 9.566 15.931 14.325 26.245 10.705 8.586-3.014 14.031-10.952 14.29-19.534 3.058.326 6.234-.004 9.329-1.09 11.142-3.91 17.004-16.112 13.093-27.254zm-50.708 7.479c-.17-.346-.349-.684-.536-1.017 2.428-1.221 4.544-2.859 6.283-4.8 1.188.681 2.439 1.247 3.736 1.691-.181 1.015-.288 2.047-.32 3.089-3.003-.32-6.12-.004-9.163 1.037z" fill="#8bb6ef"/><path d="m184.45 95.946c2.513 7.158 10.352 10.924 17.51 8.412 7.158-2.512 10.924-10.352 8.412-17.51-2.512-7.158-10.352-10.924-17.51-8.412h-.001c-7.157 2.512-10.923 10.351-8.411 17.51z" fill="#f7e266"/><path d="m321.936 77.377c5.306-12.81-.777-27.497-13.588-32.803-4.043-1.675-8.273-2.212-12.336-1.765-2.215-6.683-7.206-12.403-14.221-15.309-12.81-5.306-27.497.777-32.803 13.588-.571 1.379-1.003 2.781-1.316 4.189-12.003-3.249-24.838 2.836-29.724 14.63-5.28 12.747.72 27.348 13.401 32.72-3.371 12.06 2.716 25.011 14.576 29.924 9.872 4.089 20.854 1.409 27.803-5.896 2.42 2.68 5.458 4.88 9.016 6.354 12.811 5.306 27.497-.777 32.803-13.588 3.065-7.398 2.324-15.419-1.311-21.9 3.291-2.577 5.987-6.007 7.7-10.144zm-47.024-1.721c.506 1.527 1.157 3.002 1.944 4.406-.953.747-1.856 1.565-2.7 2.452-2.377-2.633-5.352-4.798-8.829-6.271.121-.435.231-.872.328-1.309 3.081.834 6.216 1.057 9.257.722z" fill="#e58bbd"/><path d="m255.477 70.409c-3.409 8.231.499 17.666 8.73 21.075 8.23 3.409 17.666-.499 21.076-8.73 3.409-8.23-.499-17.666-8.729-21.075h-.001c-8.231-3.409-17.667.5-21.076 8.73z" fill="#f7e266"/></g><g fill="#440b29"><path d="m488.367 303.767c0-10.217-3.123-19.715-8.458-27.6 5.607-12.159 5.415-28.286 5.37-30.221-.908-42.5-16.439-82.586-44.021-114.406-.018-.096-.036-.191-.055-.287 3.254-1.995 6.081-4.665 8.278-7.925v.001c4.034-5.988 5.494-13.188 4.113-20.275-1.382-7.086-5.44-13.21-11.428-17.244-2.933-1.976-6.118-3.29-9.381-3.992-1.024-7.341-5.03-14.236-11.647-18.693-5.988-4.034-13.188-5.494-20.275-4.113-5.527 1.078-10.463 3.79-14.284 7.77-.353-1.114-.784-2.212-1.3-3.284-2.852-5.938-7.846-10.41-14.062-12.592-6.11-2.144-12.679-1.818-18.542.903-2.435-2.258-5.316-4.026-8.544-5.159-6.216-2.181-12.908-1.812-18.847 1.04-1.705.819-3.282 1.821-4.722 2.976-2.891-3.577-6.643-6.398-11.01-8.208-3.862-1.6-7.88-2.248-11.806-2.082-.041-.102-.076-.205-.118-.306-2.853-6.887-8.217-12.252-15.105-15.105-6.887-2.853-14.473-2.852-21.361 0-6.888 2.853-12.251 8.217-15.104 15.104-.322.777-.602 1.565-.852 2.357-4.901-.708-9.919-.106-14.614 1.839-2.684 1.112-5.133 2.61-7.296 4.426-.603-.358-1.224-.694-1.865-1.002-5.939-2.853-12.632-3.221-18.847-1.04-3.276 1.15-6.145 2.938-8.543 5.16-5.861-2.721-12.432-3.047-18.543-.903-6.216 2.182-11.21 6.654-14.062 12.592-.515 1.072-.947 2.17-1.299 3.284-3.821-3.98-8.758-6.692-14.285-7.77-7.089-1.381-14.287.079-20.275 4.113-6.616 4.457-10.621 11.352-11.646 18.693-3.263.702-6.448 2.017-9.382 3.992-5.988 4.033-10.047 10.158-11.428 17.244-1.382 7.086.079 14.287 4.112 20.274.249.369.518.719.782 1.073-31.651 32.853-49.556 75.803-50.534 121.545-.002.121-.003.243-.001.364.032 2.18.409 21.136 3.768 32.428-4.342 7.344-6.849 15.895-6.849 25.028 0 11.901 4.231 22.832 11.267 31.369v36.937c0 22.019 17.914 39.934 39.933 39.934h55.66c-8.777 17.397-13.725 37.042-13.725 57.822v32.115c0 5.553 4.502 10.055 10.055 10.055s10.055-4.502 10.055-10.055v-32.115c0-21.236 6.127-41.063 16.696-57.822h30.705c-14.842 15.358-23.992 36.248-23.992 59.242v34.331c0 3.332 2.701 6.033 6.033 6.033s6.033-2.701 6.033-6.033v-29.197c.115-.065.231-.128.344-.202 7.48-4.93 20.689-10.029 29.849-10.029 9.916 0 19.361 3.101 27.315 8.968 4.712 3.475 10.233 5.213 15.755 5.213s11.043-1.738 15.755-5.213c7.954-5.867 17.4-8.968 27.315-8.968 9.471 0 21.868 4.707 28.723 9.136.468.302.963.525 1.47.684v29.608c0 3.332 2.701 6.033 6.033 6.033s6.033-2.701 6.033-6.033v-34.331c0-22.997-9.156-43.885-24.002-59.242h30.719c10.567 16.76 16.692 36.588 16.692 57.822v32.115c0 5.553 4.502 10.055 10.055 10.055s10.055-4.502 10.055-10.055v-32.115c0-20.781-4.949-40.425-13.727-57.822h55.662c22.019 0 39.933-17.914 39.933-39.934v-36.938c7.038-8.535 11.269-19.466 11.269-31.367zm-188.461 87.166h-67.046c-70.212 0-128.578-51.663-139.098-118.97 7.804 1.495 15.828 2.239 23.98 2.238 35.139-.001 72.549-13.67 104.006-39.075 18.64-15.054 33.8-33.028 44.634-52.772 10.833 19.745 25.993 37.718 44.633 52.772 38.749 31.295 86.534 44.774 127.982 36.84-10.524 67.303-68.88 118.967-139.091 118.967zm-235.396-87.166c0-9.003 4.088-17.065 10.5-22.44 3.663 18.57 10.528 36.001 19.998 51.694-.403.016-.806.031-1.213.031-16.148 0-29.285-13.137-29.285-29.285zm393.263-22.425c6.403 5.376 10.484 13.431 10.484 22.425 0 16.148-13.138 29.285-29.285 29.285-.403 0-.802-.016-1.201-.032 9.467-15.69 16.338-33.113 20.002-51.678zm-16.024-175.979c.765 3.923-.043 7.909-2.277 11.223v.001c-.921 1.368-2.042 2.549-3.316 3.519-1.733-2.263-3.849-4.291-6.34-5.97-2.581-1.738-5.389-2.993-8.314-3.753-1.164-4.025-3.457-7.734-6.755-10.635 2.894-4.204 7.572-6.479 12.339-6.479 2.875 0 5.779.825 8.337 2.548 3.314 2.234 5.561 5.624 6.326 9.546zm-14.625 39.55c-4.61 6.842-13.927 8.66-20.771 4.05-3.314-2.232-5.561-5.622-6.326-9.545-.013-.068-.017-.137-.03-.205 7.196-.059 14.247-3.539 18.562-9.944 1.291-1.917 2.245-3.963 2.881-6.068.558.281 1.105.588 1.632.943 6.843 4.609 8.66 13.927 4.051 20.77zm-104.005-39.439c-.692.108-1.393.167-2.103.157 1.117-5.417.598-11.04-1.565-16.263-.215-.519-.455-1.021-.698-1.522.05-.051.098-.104.147-.155 2.506 2.421 5.507 4.311 8.894 5.5.311.109.626.195.94.291.102.992.262 1.974.503 2.934-2.678 2.492-4.756 5.574-6.118 9.058zm-14.816.639c-1.619 3.91-4.664 6.954-8.575 8.574-3.907 1.62-8.214 1.621-12.125 0-2.634-1.091-4.855-2.844-6.529-5.06 1.758-4.414 2.302-9.019 1.793-13.448 1.318-.837 2.55-1.813 3.685-2.909.537.265 1.077.528 1.639.761 3.444 1.426 7.061 2.14 10.68 2.14 3.241 0 6.482-.577 9.597-1.721 1.435 3.784 1.391 7.904-.165 11.663zm-38.514-.747c-3.345 8.071-12.63 11.917-20.7 8.574-8.071-3.343-11.917-12.629-8.575-20.699 1.608-3.882 4.593-6.78 8.155-8.376 2.202 5.768 6.671 10.658 12.811 13.201 2.901 1.201 5.908 1.77 8.868 1.77.211 0 .421-.018.631-.023-.057 1.859-.438 3.736-1.19 5.553zm10.927-24.503c-2.362 5.699-8.918 8.416-14.619 6.055-5.699-2.361-8.416-8.918-6.055-14.618v.001c2.362-5.698 8.919-8.416 14.619-6.055 5.699 2.361 8.415 8.918 6.055 14.617zm93.011 15.545c2.284-1.097 4.346-2.518 6.149-4.196 1.439.429 2.821 1.076 4.102 1.938 3.315 2.233 5.562 5.623 6.327 9.546s-.043 7.909-2.277 11.224c-4.021 5.968-11.623 8.11-18.041 5.501 1.397-5.569.817-11.398-1.7-16.638-.331-.688-.697-1.352-1.085-1.997.644-1.115 1.196-2.293 1.631-3.535.012-.035.019-.071.031-.106 1.658-.406 3.288-.98 4.863-1.737zm24.308 25.253c3.051-4.529 4.627-9.752 4.617-15.095 1.061.291 2.096.745 3.059 1.394 4.8 3.233 6.074 9.769 2.842 14.567-3.09 4.587-9.191 5.944-13.916 3.234 1.243-1.23 2.385-2.596 3.398-4.1zm-40.588-27.406c-.764 2.176-2.328 3.923-4.407 4.922-2.076.999-4.42 1.128-6.596.364-4.491-1.576-6.863-6.513-5.287-11.003 1.246-3.549 4.589-5.774 8.153-5.774.947 0 1.909.157 2.851.488 2.175.764 3.923 2.329 4.922 4.407.998 2.078 1.127 4.42.364 6.596zm-23.276 16.035c.406-1.157.972-2.229 1.669-3.198 1.897 1.631 4.108 2.957 6.607 3.834 2.244.788 4.561 1.179 6.871 1.179 2.934 0 5.854-.639 8.594-1.895.979 2.716.998 5.661.029 8.422-2.3 6.554-9.503 10.016-16.056 7.713-3.175-1.114-5.726-3.398-7.182-6.43-1.458-3.032-1.647-6.45-.532-9.625zm31.939 21.546c3.072 1.161 6.277 1.745 9.468 1.745 2.741 0 5.467-.417 8.079-1.229 1.067 1.109 2.258 2.129 3.585 3.023.15.101.306.187.458.284-.065 2.011.089 4.044.484 6.068.441 2.262 1.158 4.424 2.12 6.453-4.974 4.708-12.727 5.533-18.639 1.551-3.315-2.233-5.562-5.623-6.327-9.546-.555-2.844-.272-5.718.772-8.349zm37.061-60.98c.965-.188 1.934-.281 2.895-.281 2.948 0 5.829.874 8.328 2.557 3.217 2.167 5.308 5.376 6.152 8.878-6.273 1.556-12.014 5.346-15.901 11.116-.298.443-.581.891-.848 1.345-1.384-.243-2.779-.36-4.17-.344-1.977-3.831-4.861-7.142-8.478-9.68.176-2.518.967-5.023 2.477-7.264 2.232-3.315 5.622-5.562 9.545-6.327zm-40.133-9.281c1.405 0 2.816.238 4.181.718 3.175 1.114 5.726 3.398 7.182 6.431 1.457 3.033 1.646 6.451.531 9.626-1.046 2.98-3.132 5.399-5.891 6.89-.299-.951-.643-1.892-1.083-2.806-2.394-4.984-6.585-8.736-11.801-10.568-1.73-.607-3.487-.944-5.233-1.081.073-.261.149-.521.239-.779 1.115-3.174 3.398-5.724 6.431-7.182 1.728-.83 3.581-1.249 5.444-1.249zm-27.064-4.25c1.381 0 2.785.229 4.16.712 1.089.382 2.089.92 3.008 1.563-1.412 1.934-2.549 4.086-3.364 6.41-.897 2.554-1.345 5.189-1.385 7.819-2.992 1.854-5.514 4.482-7.263 7.709-2.355-.976-4.323-2.612-5.702-4.731 1.554-4.791 1.776-9.84.667-14.706 2.386-3.005 6.043-4.776 9.879-4.776zm-22.466 4.857c1.619 3.91 1.619 8.216 0 12.125-1.619 3.91-4.664 6.955-8.575 8.574-3.907 1.62-8.214 1.621-12.125 0-.015-.006-.029-.015-.043-.021 1.264-4.496 1.105-9.131-.254-13.365 2.126-2.346 3.867-5.052 5.115-8.064 1.205-2.908 1.894-5.94 2.082-8.991 1.751.091 3.516.458 5.226 1.167 3.91 1.62 6.955 4.665 8.574 8.575zm-56.303-17.494c1.619-3.91 4.664-6.955 8.575-8.574 1.955-.81 4.008-1.215 6.063-1.215 2.053 0 4.108.405 6.063 1.215 3.909 1.619 6.954 4.664 8.574 8.574s1.619 8.216 0 12.126c-.297.717-.644 1.402-1.035 2.056-1.801-1.534-3.865-2.82-6.165-3.773-7.45-3.085-15.604-1.995-21.853 2.185-.071-.158-.155-.308-.221-.468-1.621-3.91-1.621-8.216-.001-12.126zm-21.995 10.727c1.954-.81 4.008-1.215 6.063-1.215.972 0 1.943.098 2.904.279.322 2.359.944 4.693 1.88 6.952.832 2.01 1.889 3.881 3.125 5.607-.096.214-.196.426-.287.645-.654 1.58-1.115 3.192-1.405 4.81-5.997 1.72-11.378 5.421-15.103 10.678-2.552-1.72-4.548-4.148-5.752-7.056-1.619-3.91-1.619-8.216 0-12.126s4.664-6.954 8.575-8.574zm-11.606 50.074c-1.361-3.484-3.455-6.548-6.136-9.034.247-.974.409-1.971.512-2.978.313-.096.629-.176.939-.285 1.473-.517 2.87-1.174 4.19-1.941 1.403 1.2 2.93 2.262 4.567 3.17-.658 3.701-.543 7.428.258 10.98-1.456.287-2.918.31-4.33.088zm-42.228 34.696c-.765 3.923-3.012 7.313-6.326 9.546-5.915 3.982-13.666 3.158-18.641-1.55.962-2.029 1.679-4.191 2.12-6.453.395-2.024.548-4.056.483-6.068.152-.097.308-.183.459-.284 1.328-.895 2.518-1.914 3.586-3.023 2.611.811 5.337 1.228 8.078 1.228 3.186 0 6.387-.583 9.456-1.741 1.048 2.629 1.34 5.5.785 8.345zm-57.735-16.041c.527-.355 1.073-.667 1.63-.948.636 2.107 1.591 4.155 2.883 6.074 4.315 6.405 11.365 9.884 18.56 9.943-.012.068-.015.137-.028.205-.765 3.923-3.012 7.313-6.327 9.546-6.841 4.609-16.158 2.793-20.77-4.05h.001c-4.609-6.843-2.793-16.161 4.051-20.77zm49.346-27.736c1.576.757 3.205 1.335 4.864 1.739.012.034.019.069.031.104.435 1.239.986 2.416 1.628 3.529-.389.647-.751 1.314-1.082 2.003-2.518 5.24-3.098 11.069-1.7 16.638-6.419 2.61-14.021.467-18.041-5.501-2.234-3.315-3.042-7.3-2.277-11.224.765-3.922 3.012-7.313 6.327-9.546 1.282-.864 2.666-1.507 4.106-1.934 1.802 1.678 3.861 3.096 6.144 4.192zm24.417-13.644c3.564 0 6.907 2.226 8.153 5.773 1.576 4.491-.796 9.427-5.287 11.004-2.177.763-4.519.633-6.596-.364-2.079-.999-3.643-2.746-4.407-4.922v-.001c-.763-2.176-.634-4.518.364-6.596.999-2.078 2.747-3.643 4.922-4.407.943-.33 1.904-.487 2.851-.487zm-59.243 39.764c-3.233-4.799-1.959-11.335 2.841-14.568.963-.649 1.997-1.11 3.059-1.404-.012 5.346 1.564 10.573 4.617 15.105 1.013 1.504 2.156 2.87 3.397 4.101-4.723 2.709-10.825 1.352-13.914-3.234zm50.612-3.895c-.969-2.761-.95-5.706.029-8.422 2.739 1.255 5.659 1.895 8.593 1.895 2.31 0 4.627-.392 6.871-1.179 2.494-.875 4.701-2.198 6.596-3.824.692.957 1.271 2.018 1.682 3.188 1.113 3.174.925 6.593-.532 9.625-1.456 3.033-4.008 5.317-7.182 6.431-6.554 2.301-13.757-1.16-16.057-7.714zm21.967-61.308c1.798 0 3.551.4 5.157 1.124-.14.306-.28.611-.409.923-2.854 6.887-2.854 14.474-.001 21.361.099.24.209.474.314.71-.072.032-.146.061-.219.091-1.747-3.221-4.265-5.845-7.251-7.698-.038-2.632-.497-5.269-1.394-7.825-.817-2.329-1.956-4.486-3.373-6.424.911-.636 1.918-1.164 3.017-1.549 1.375-.484 2.777-.713 4.159-.713zm-38.428 11.399c1.456-3.032 4.008-5.316 7.182-6.431 1.365-.48 2.775-.718 4.181-.718 1.862 0 3.717.418 5.445 1.249 3.032 1.457 5.316 4.008 6.431 7.183.09.257.15.519.223.779-1.742.138-3.493.475-5.218 1.081-5.216 1.831-9.407 5.583-11.801 10.567-.439.914-.784 1.855-1.083 2.806-2.759-1.492-4.845-3.91-5.891-6.891-1.115-3.174-.926-6.593.531-9.625zm-39.993 4.409c3.314-2.233 7.296-3.042 11.223-2.276 3.923.765 7.313 3.012 9.546 6.326 1.509 2.241 2.301 4.746 2.478 7.264-3.627 2.544-6.516 5.866-8.494 9.71-1.385-.017-2.772.093-4.149.332-.271-.459-.553-.914-.855-1.362-3.888-5.77-9.629-9.561-15.903-11.116.845-3.503 2.937-6.712 6.154-8.878zm-27.354 32.23c.765-3.923 3.012-7.313 6.327-9.546 2.558-1.723 5.462-2.548 8.337-2.548 4.766 0 9.446 2.276 12.339 6.479-3.3 2.903-5.593 6.613-6.756 10.64-2.925.759-5.732 2.01-8.313 3.749-2.489 1.677-4.604 3.703-6.336 5.965-1.272-.974-2.399-2.146-3.32-3.514v-.001c-2.235-3.315-3.043-7.301-2.278-11.224zm1.52 40.114c.747 2.137 1.774 4.214 3.097 6.178h.001c5.213 7.739 13.76 11.919 22.458 11.919 5.193 0 10.439-1.491 15.06-4.603.621-.418 1.217-.865 1.796-1.327 4.991 4.372 11.366 6.697 17.835 6.697 5.193 0 10.439-1.49 15.061-4.603 5.988-4.033 10.047-10.157 11.428-17.244.284-1.456.439-2.916.484-4.37 2.265.671 4.597 1.012 6.936 1.012 2.751 0 5.514-.466 8.187-1.404 9.042-3.174 15.069-11.115 16.269-20.017.134.002.268.017.403.017 2.577 0 5.161-.426 7.675-1.249 2.867 3.681 6.689 6.696 11.299 8.605 3.481 1.442 7.09 2.125 10.644 2.125 6.989 0 13.752-2.652 18.893-7.353 2.543 2.524 5.568 4.562 8.978 5.974 3.444 1.426 7.061 2.14 10.68 2.14 3.618-.001 7.237-.713 10.681-2.14 4.58-1.897 8.481-4.91 11.423-8.738 1.801.411 3.624.636 5.446.636.13 0 .259-.008.388-.01.342 2.541 1.079 5.041 2.222 7.419 2.852 5.938 7.846 10.41 14.062 12.592 2.674.938 5.434 1.404 8.187 1.404 2.338 0 4.668-.341 6.932-1.011.046 1.454.204 2.914.487 4.369 1.382 7.086 5.44 13.211 11.429 17.244 4.621 3.113 9.866 4.603 15.06 4.603 6.468 0 12.844-2.326 17.836-6.697.578.462 1.173.908 1.794 1.326 4.622 3.113 9.868 4.604 15.06 4.604 7.187 0 14.267-2.862 19.452-8.221 18.863 25.714 30.323 57.133 31.048 91.03.058 2.856-.16 7.017-.784 11.174l-8.511-6.615c-2.626-2.04-6.092-2.652-9.253-1.632-37.944 12.22-85.064.789-122.977-29.831-22.109-17.855-38.657-40.208-47.858-64.642-1.475-3.918-5.224-6.512-9.41-6.512s-7.935 2.594-9.41 6.512c-9.2 24.433-25.749 46.787-47.859 64.642-37.938 30.641-85.084 42.064-123.033 29.812-3.232-1.043-6.775-.383-9.415 1.753l-8.457 6.845c-.363-4.338-.561-8.589-.613-11.698.861-38.295 15.425-73.423 38.889-100.715zm-30.708 226.596v-22.328c5.586 2.197 11.66 3.417 18.017 3.417 4.836 0 9.51-.704 13.929-2.007 13.443 16.623 30.116 30.529 49.066 40.74h-61.19c-10.93.001-19.822-8.891-19.822-19.822zm233.677 82.012c-12.512 0-24.435 3.916-34.478 11.324-5.14 3.79-12.045 3.79-17.185 0-10.043-7.409-21.966-11.324-34.478-11.324-9.33 0-20.745 3.669-29.625 8.112.834-6.736 2.579-13.193 5.12-19.237 7.333-4.615 15.781-7.055 24.505-7.055 13.213 0 25.811 5.69 34.564 15.61 2.155 2.444 5.256 3.845 8.506 3.845s6.35-1.402 8.506-3.845c8.752-9.92 21.351-15.61 34.564-15.61 8.712 0 17.167 2.44 24.497 7.05 2.512 5.97 4.248 12.341 5.095 18.988-8.346-4.193-19.632-7.858-29.591-7.858zm14.149-28.505c-4.595-1.149-9.341-1.742-14.149-1.742-16.404 0-32.053 6.946-43.07 19.088-11.018-12.141-26.667-19.088-43.07-19.088-4.816 0-9.565.595-14.163 1.746 4.108-5.135 8.894-9.703 14.217-13.577h86.023c5.323 3.872 10.104 8.441 14.212 13.573zm113.564-33.684h-61.192c18.96-10.215 35.647-24.124 49.095-40.756 4.413 1.301 9.072 2.023 13.901 2.023 6.357 0 12.431-1.221 18.018-3.418v22.328c0 10.931-8.892 19.823-19.822 19.823z"/><path d="m176.383 295.582c-9.3 0-16.84 7.54-16.84 16.84 0 9.301 7.54 16.841 16.84 16.841 9.301 0 16.841-7.539 16.841-16.841 0-9.3-7.54-16.84-16.841-16.84z"/><path d="m356.383 295.582c-9.301 0-16.841 7.54-16.841 16.84 0 9.301 7.54 16.841 16.841 16.841s16.841-7.539 16.841-16.841c-.001-9.3-7.54-16.84-16.841-16.84z"/><path d="m283.224 306.389c-3.332 0-6.033 2.702-6.033 6.033 0 5.959-4.848 10.807-10.808 10.807s-10.808-4.848-10.808-10.807c0-3.332-2.701-6.033-6.033-6.033s-6.033 2.702-6.033 6.033c0 12.613 10.262 22.874 22.874 22.874s22.874-10.261 22.874-22.874c0-3.331-2.701-6.033-6.033-6.033z"/><path d="m376.076 215.823c3.332 0 6.033-2.701 6.033-6.033v-10.857c0-3.332-2.701-6.033-6.033-6.033s-6.033 2.701-6.033 6.033v10.857c-.001 3.332 2.701 6.033 6.033 6.033z"/><path d="m428.31 233.028c3.332 0 6.033-2.701 6.033-6.033v-10.857c0-3.332-2.701-6.033-6.033-6.033s-6.033 2.701-6.033 6.033v10.857c-.001 3.331 2.701 6.033 6.033 6.033z"/></g><g><path d="m49.787 3.013 8.541 24.016c.366 1.028 1.09 1.843 2.003 2.255l21.337 9.613c3.014 1.358 3.014 6.161 0 7.519l-21.337 9.613c-.913.412-1.638 1.227-2.003 2.255l-8.541 24.016c-1.207 3.393-5.474 3.393-6.681 0l-8.541-24.016c-.366-1.028-1.09-1.843-2.003-2.255l-21.337-9.613c-3.015-1.358-3.015-6.161 0-7.519l21.337-9.613c.914-.412 1.638-1.226 2.003-2.255l8.541-24.016c1.208-3.393 5.475-3.393 6.681 0z" fill="#cab4ef"/><ellipse cx="465.432" cy="467.203" fill="#a183e2" rx="18.65" ry="18.65" transform="matrix(.16 -.987 .987 .16 -70.292 851.788)"/><path d="m40.359 127.651c0 4.362-3.536 7.898-7.898 7.898s-7.898-3.536-7.898-7.898 3.536-7.898 7.898-7.898 7.898 3.536 7.898 7.898z" fill="#a183e2"/><path d="m477.709 1.888 6.336 17.815c.271.763.808 1.367 1.486 1.672l15.827 7.131c2.236 1.008 2.236 4.57 0 5.578l-15.827 7.131c-.678.305-1.215.91-1.486 1.672l-6.336 17.815c-.895 2.517-4.06 2.517-4.956 0l-6.336-17.815c-.271-.763-.808-1.367-1.486-1.672l-15.827-7.131c-2.236-1.007-2.236-4.57 0-5.578l15.827-7.131c.678-.305 1.215-.91 1.486-1.672l6.336-17.815c.896-2.517 4.061-2.517 4.956 0z" fill="#cab4ef"/></g></g></svg>