<svg id="Capa_1" enable-background="new 0 0 512 512" height="512" viewBox="0 0 512 512" width="512" xmlns="http://www.w3.org/2000/svg"><g><g><ellipse cx="99.311" cy="436.756" fill="#cab4ef" rx="65.412" ry="48.796" transform="matrix(.964 -.267 .267 .964 -112.847 42.285)"/><path d="m97.213 474.325c-12.732-7.914-20.28-18.58-21.66-33.736-1.318-14.475 10.245-28.865 19.195-40.141 3.219-4.057 6.842-7.713 10.661-11.169-3.497.517-15.568-.533-19.108.447-34.818 9.631-57.22 38.495-50.035 64.469s41.235 39.222 76.053 29.591c1.317-.365 2.611-.765 3.891-1.184-6.641-2.002-13.068-4.592-18.997-8.277z" fill="#b2e7f1"/><ellipse cx="88.107" cy="328.837" fill="#a183e2" rx="69.892" ry="81.261" transform="matrix(.673 -.739 .739 .673 -214.364 172.606)"/><path d="m51.984 354.116c.759-15.596 6.771-28.931 15.805-41.479 13.594-18.88 31.311-34.145 49.928-48.04-30.954-17.273-67.992-14.308-89.699 9.534-25.986 28.542-20.15 76.174 13.036 106.387 5.031 4.58 10.405 8.487 15.987 11.737-3.605-12.344-5.679-25.349-5.057-38.139z" fill="#8bb6ef"/><ellipse cx="412.609" cy="436.756" fill="#cab4ef" rx="48.796" ry="65.412" transform="matrix(.267 -.964 .964 .267 -118.343 717.99)"/><path d="m414.707 474.325c12.732-7.914 20.28-18.58 21.66-33.736 1.318-14.475-10.245-28.865-19.195-40.141-3.219-4.057-6.842-7.713-10.661-11.169 3.497.517 15.568-.533 19.108.447 34.818 9.631 57.22 38.495 50.035 64.469s-41.235 39.222-76.053 29.591c-1.317-.365-2.611-.765-3.891-1.184 6.641-2.002 13.069-4.592 18.997-8.277z" fill="#b2e7f1"/><ellipse cx="423.814" cy="328.837" fill="#a183e2" rx="81.261" ry="69.892" transform="matrix(.739 -.673 .673 .739 -110.952 371.005)"/><path d="m459.936 354.116c-.759-15.596-6.771-28.931-15.805-41.479-13.594-18.88-31.311-34.145-49.928-48.04 30.954-17.273 67.992-14.308 89.699 9.534 25.987 28.542 20.151 76.174-13.035 106.388-5.031 4.58-10.405 8.487-15.987 11.737 3.604-12.345 5.679-25.35 5.056-38.14z" fill="#8bb6ef"/><g fill="#f7e266"><path d="m148.376 50.684h18.629v64.482h-18.629z" transform="matrix(.925 -.379 .379 .925 -19.669 65.999)"/><path d="m162.891 44.136c2.635 10.65-3.864 21.42-14.514 24.054-10.65 2.635-21.42-3.864-24.054-14.514-2.635-10.651 3.864-21.42 14.514-24.055 10.65-2.633 21.419 3.865 24.054 14.515z"/><path d="m344.915 50.684h18.629v64.482h-18.629z" transform="matrix(-.925 -.379 .379 -.925 650.547 293.996)"/><path d="m349.03 44.136c-2.635 10.65 3.864 21.42 14.514 24.054 10.65 2.635 21.42-3.864 24.054-14.514 2.635-10.651-3.864-21.42-14.514-24.055-10.65-2.633-21.42 3.865-24.054 14.515z"/></g><path d="m367.704 475.596v-30.21c0-61.714-50.029-111.743-111.744-111.743-61.714 0-111.743 50.029-111.743 111.743v30.21z" fill="#f4d6d4"/><path d="m330.551 475.596v-28.544c0-41.195-33.396-74.591-74.591-74.591-41.195 0-74.591 33.396-74.591 74.591v28.544z" fill="#fbf2a8"/><path d="m264.124 372.872c21.575 9.704 36.751 32.734 36.751 59.61v6.467c0 10.066-8.16 18.227-18.227 18.227h-100.942v18.421h149.182v-28.544c0-38.552-29.248-70.268-66.764-74.181z" fill="#edb6a8"/><path d="m288.401 377.14h-64.882c-80.626 0-145.985-65.36-145.985-145.985 0-80.625 65.36-145.985 145.985-145.985h64.882c80.625 0 145.985 65.36 145.985 145.985.001 80.625-65.359 145.985-145.985 145.985z" fill="#fbf2a8"/><path d="m288.401 85.169h-28.76c69.629 0 126.074 56.445 126.074 126.075 0 69.629-56.445 126.075-126.074 126.075h-56.033c-66.383 0-120.782-51.305-125.71-116.427-.236 3.391-.364 6.812-.364 10.263 0 80.625 65.36 145.985 145.985 145.985h64.883c80.625 0 145.985-65.36 145.985-145.985 0-80.626-65.36-145.986-145.986-145.986z" fill="#edb6a8"/><path d="m314.373 339.963h-116.826c-39.252 0-71.071-31.82-71.071-71.071 0-39.251 31.819-71.071 71.071-71.071h116.826c39.251 0 71.071 31.82 71.071 71.071 0 39.251-31.819 71.071-71.071 71.071z" fill="#f4d6d4"/></g><g><g fill="#440b29"><path d="m90.496 346.3c-5.293 0-9.583 4.29-9.583 9.583s4.291 9.584 9.583 9.584c5.293 0 9.583-4.291 9.583-9.584s-4.29-9.583-9.583-9.583z"/><ellipse cx="108.894" cy="440.589" rx="9.583" ry="9.583" transform="matrix(.231 -.973 .973 .231 -344.932 444.902)"/><path d="m511.338 328.139c2.888-23.576-3.743-45.59-18.673-61.988-12.788-14.046-30.062-21.965-48.606-23.872.26-3.676.401-7.383.401-11.124 0-57.971-31.776-108.657-78.822-135.567l6.999-17.075c11.67-1.72 21.738-10.276 24.741-22.417 3.964-16.026-5.85-32.289-21.875-36.253-7.763-1.92-15.809-.702-22.657 3.429-6.847 4.131-11.676 10.682-13.596 18.445s-.702 15.81 3.429 22.657c.494.818 1.024 1.606 1.585 2.366l-6.682 16.303c-15.469-5.15-32.004-7.947-49.181-7.947h-64.882c-17.177 0-33.712 2.797-49.181 7.947l-6.682-16.303c.561-.759 1.091-1.547 1.585-2.365 4.131-6.847 5.349-14.894 3.429-22.657s-6.749-14.314-13.596-18.445c-6.848-4.132-14.894-5.35-22.657-3.429-7.763 1.92-14.314 6.749-18.446 13.596-4.131 6.848-5.349 14.894-3.429 22.657 3.004 12.141 13.07 20.696 24.741 22.417l6.998 17.075c-47.046 26.908-78.821 77.594-78.821 135.566 0 3.74.141 7.448.401 11.123-18.544 1.905-35.818 9.827-48.606 23.873-30.345 33.33-24.146 88.566 13.819 123.132 3.855 3.51 7.926 6.68 12.152 9.536-3.328 3.025-6.365 6.281-9.056 9.747-11.801 15.206-15.823 32.533-11.326 48.79s16.852 29.054 34.79 36.034c9.236 3.594 19.416 5.4 29.93 5.4 8.529 0 17.279-1.189 25.917-3.579 8.795-2.433 17.035-6.006 24.452-10.506 1.302.613 2.75.967 4.284.967 5.564 0 10.074-4.51 10.074-10.074v-30.21c0-24.699 8.859-47.362 23.559-64.996 8.269 2.536 16.827 4.405 25.613 5.538-17.21 14.796-28.138 36.701-28.138 61.124v32.029c0 3.338 2.706 6.044 6.044 6.044s6.044-2.706 6.044-6.044v-2.809h137.093v2.809c0 3.338 2.706 6.044 6.044 6.044s6.044-2.706 6.044-6.044v-32.029c0-24.424-10.927-46.329-28.138-61.124 8.786-1.132 17.344-3.002 25.613-5.538 14.7 17.634 23.56 40.297 23.56 64.996v30.21c0 5.564 4.51 10.074 10.074 10.074 1.544 0 3.001-.358 4.309-.978 7.411 4.501 15.635 8.086 24.427 10.518 8.638 2.389 17.387 3.579 25.917 3.579 10.513 0 20.695-1.807 29.93-5.4 17.938-6.979 30.293-19.776 34.79-36.034 4.497-16.257.475-33.584-11.326-48.79-2.691-3.467-5.724-6.726-9.049-9.752 4.223-2.854 8.292-6.023 12.145-9.531 18.146-16.523 29.686-38.237 32.492-61.145zm-36.201-46.029c10.207 11.211 14.707 26.534 12.672 43.146-1.986 16.211-9.898 31.746-22.39 44.095 3.083-10.771 2.06-22.754-3.382-35.207-6.427-14.706-18.905-28.391-32.737-35.931 4.914-10.284 8.733-21.185 11.309-32.554 13.298 1.153 25.562 6.602 34.528 16.451zm-45.533 162.885c-2.822 12.213-14.751 24.501-35.063 24.555-6.269-2.56-11.926-5.885-16.763-9.719v-14.445c0-14.306-2.487-28.04-7.038-40.802 12.063 7.42 26.296 11.365 41.634 11.365.849 0 1.702-.012 2.557-.036 1.321-.037 2.64-.111 3.958-.206 10.616 8.927 12.77 20.392 10.715 29.288zm-5.912-136.117c10.894 5.941 21.563 17.054 27.267 30.107 5.153 11.792 9.564 33.093-14.607 48.949-7.171 2.604-14.618 4.073-22.09 4.284-16.738.452-31.566-5.442-41.772-16.653-2.547-2.797-4.698-5.834-6.492-9.045 23.938-13.775 43.897-33.718 57.694-57.642zm-64.883-262.323c.628-2.539 2.207-4.681 4.446-6.032s4.87-1.751 7.409-1.121c5.241 1.296 8.45 6.616 7.154 11.856-1.297 5.241-6.617 8.452-11.856 7.154-2.539-.628-4.681-2.207-6.033-4.446-1.35-2.24-1.748-4.872-1.12-7.411zm-4.926 28.591c1.9 1.04 3.922 1.881 6.045 2.497l-5.057 12.337c-1.97-.931-3.957-1.829-5.971-2.679zm-218.66-31.298c1.351-2.24 3.493-3.819 6.033-4.447.786-.194 1.579-.291 2.368-.291 1.761 0 3.494.479 5.041 1.412 2.239 1.351 3.818 3.494 4.446 6.032.628 2.539.23 5.17-1.121 7.41-1.351 2.239-3.493 3.818-6.033 4.446-5.241 1.299-10.56-1.912-11.856-7.154-.628-2.537-.229-5.168 1.122-7.408zm16.769 33.796c2.123-.617 4.145-1.457 6.045-2.498l4.982 12.156c-2.013.85-4.001 1.748-5.971 2.679zm71.527 17.599h64.882c74.941 0 135.911 60.97 135.911 135.912s-60.97 135.911-135.911 135.911h-64.882c-74.941 0-135.911-60.97-135.911-135.911 0-74.942 60.97-135.912 135.911-135.912zm-89.377 350.143v14.458c-4.836 3.829-10.493 7.148-16.757 9.705-20.313-.053-32.247-12.341-35.069-24.555-2.055-8.896.101-20.361 10.72-29.288 1.316.095 2.634.169 3.953.206.856.024 1.707.036 2.557.036 15.335 0 29.566-3.944 41.629-11.362-4.551 12.762-7.033 26.496-7.033 40.8zm-73.181-106.401c5.706-13.057 16.38-24.151 27.277-30.089 13.798 23.918 33.755 43.855 57.69 57.627-1.794 3.211-3.951 6.244-6.498 9.042-10.207 11.211-25.033 17.116-41.772 16.653-7.472-.211-14.918-1.68-22.09-4.283-24.171-15.858-19.76-37.158-14.607-48.95zm-24.178-56.875c8.968-9.85 21.229-15.297 34.528-16.451 2.576 11.369 6.395 22.271 11.31 32.555-13.832 7.539-26.31 21.223-32.737 35.93-5.442 12.452-6.464 24.434-3.382 35.205-26.078-25.807-30.605-64.299-9.719-87.239zm31.446 189.187c-10.791-4.199-18.085-11.395-20.538-20.262s.106-18.788 7.206-27.936c3.677-4.737 8.305-8.957 13.654-12.517 3.284 1.15 6.614 2.12 9.979 2.905-7.766 9.831-10.831 21.939-7.992 34.229 2.405 10.409 9.41 20.852 20.741 27.348-8.191.208-16.053-1.045-23.05-3.767zm255.123-36.752h-134.783c1.02-5.506 2.691-10.785 4.947-15.747h124.883c2.256 4.963 3.933 10.24 4.953 15.747zm-135.938 29.639v-17.131c0-.14.007-.279.008-.419h137.075c.001.14.009.279.009.419v17.131zm123.911-57.475h-110.727c5.835-7.979 13.345-14.658 22.016-19.507.302.001.602.011.905.011h64.882c.298 0 .593-.01.891-.011 8.677 4.849 16.196 11.524 22.033 19.507zm145.699 16.39c7.1 9.148 9.659 19.069 7.206 27.936s-9.746 16.063-20.538 20.262c-6.998 2.722-14.861 3.975-23.053 3.766 11.332-6.496 18.34-16.939 20.744-27.348 2.839-12.288-.204-24.404-7.965-34.236 3.352-.783 6.669-1.749 9.941-2.894 5.349 3.562 9.987 7.776 13.665 12.514z"/><path d="m421.424 365.467c5.293 0 9.583-4.291 9.583-9.584s-4.291-9.583-9.583-9.583c-5.293 0-9.583 4.29-9.583 9.583s4.29 9.584 9.583 9.584z"/><ellipse cx="403.026" cy="440.589" rx="9.583" ry="9.583" transform="matrix(.99 -.144 .144 .99 -59.358 62.767)"/><path d="m197.547 346.008h116.826c42.522 0 77.115-34.594 77.115-77.116s-34.594-77.115-77.115-77.115h-116.826c-42.522 0-77.115 34.594-77.115 77.115s34.593 77.116 77.115 77.116zm0-142.143h116.826c35.856 0 65.026 29.171 65.026 65.026s-29.171 65.027-65.026 65.027h-116.826c-35.856 0-65.026-29.171-65.026-65.027s29.17-65.026 65.026-65.026z"/><path d="m171.301 275.089c-8.749 0-15.841 7.092-15.841 15.841s7.092 15.841 15.841 15.841 15.841-7.093 15.841-15.841c.001-8.749-7.092-15.841-15.841-15.841z"/><path d="m340.619 275.089c-8.749 0-15.841 7.092-15.841 15.841s7.092 15.841 15.841 15.841 15.841-7.093 15.841-15.841c0-8.749-7.092-15.841-15.841-15.841z"/><path d="m161.188 249.441c.046-.023 4.662-2.286 10.113-2.286 5.452 0 10.068 2.263 10.086 2.272.88.449 1.818.662 2.743.662 2.199 0 4.32-1.205 5.389-3.298 1.518-2.973.337-6.614-2.636-8.132-.721-.368-7.28-3.593-15.581-3.593s-14.861 3.225-15.581 3.593c-2.962 1.512-4.132 5.126-2.636 8.096 1.495 2.97 5.124 4.164 8.103 2.686z"/><path d="m330.506 249.441c.046-.023 4.662-2.286 10.113-2.286s10.068 2.263 10.086 2.272c.88.449 1.819.662 2.743.662 2.199 0 4.32-1.205 5.389-3.298 1.518-2.973.338-6.614-2.636-8.132-.721-.368-7.28-3.593-15.581-3.593s-14.861 3.225-15.581 3.593c-2.962 1.512-4.132 5.126-2.636 8.096 1.495 2.97 5.123 4.164 8.103 2.686z"/><path d="m255.96 312.816c12.068 0 21.885-9.818 21.885-21.886 0-3.338-2.706-6.045-6.044-6.045s-6.045 2.707-6.045 6.045c0 5.402-4.395 9.797-9.797 9.797s-9.797-4.395-9.797-9.797c0-3.338-2.706-6.045-6.044-6.045s-6.044 2.707-6.044 6.045c.001 12.068 9.818 21.886 21.886 21.886z"/><path d="m340.619 150.643c3.338 0 6.044-2.706 6.044-6.044v-10.213c0-3.338-2.706-6.044-6.044-6.044s-6.044 2.706-6.044 6.044v10.213c0 3.337 2.706 6.044 6.044 6.044z"/><path d="m374.492 178.973c3.338 0 6.044-2.706 6.044-6.044v-10.213c0-3.338-2.706-6.044-6.044-6.044s-6.044 2.706-6.044 6.044v10.213c-.001 3.338 2.706 6.044 6.044 6.044z"/><path d="m307.733 170.423c3.338 0 6.044-2.706 6.044-6.045v-10.213c0-3.338-2.706-6.044-6.044-6.044s-6.044 2.706-6.044 6.044v10.213c-.001 3.339 2.706 6.045 6.044 6.045z"/></g><path d="m181.539 141.371c-4.586 0-8.732-3.152-9.807-7.811-1.251-5.421 2.129-10.831 7.55-12.081 3.969-.916 8.079-1.521 12.213-1.797 5.554-.372 10.352 3.828 10.724 9.379.371 5.552-3.828 10.352-9.379 10.724-3.065.205-6.102.651-9.027 1.326-.761.175-1.524.26-2.274.26z" fill="#fff"/><path d="m130.613 185.077c-1.393 0-2.808-.29-4.158-.904-5.066-2.3-7.309-8.271-5.008-13.337 4.555-10.035 11.126-19.316 19.53-27.585 3.966-3.901 10.344-3.851 14.246.115s3.851 10.344-.115 14.246c-6.633 6.527-11.786 13.778-15.315 21.552-1.688 3.716-5.35 5.913-9.18 5.913z" fill="#fff"/></g><g><path d="m472.31 43.208 8.557 24.06c.366 1.03 1.092 1.846 2.007 2.259l21.377 9.631c3.02 1.361 3.02 6.173 0 7.533l-21.377 9.631c-.915.412-1.641 1.229-2.007 2.259l-8.557 24.06c-1.209 3.399-5.484 3.399-6.693 0l-8.557-24.06c-.366-1.03-1.092-1.846-2.007-2.259l-21.377-9.631c-3.02-1.361-3.02-6.172 0-7.533l21.377-9.631c.915-.413 1.641-1.229 2.007-2.259l8.557-24.06c1.21-3.399 5.485-3.399 6.693 0z" fill="#fbf2a8"/><path d="m72.664 21.124c0 4.37-3.542 7.913-7.912 7.913s-7.913-3.543-7.913-7.913 3.542-7.913 7.913-7.913c4.369 0 7.912 3.543 7.912 7.913z" fill="#f7e266"/><path d="m37.408 79.13 6.347 17.848c.272.764.81 1.37 1.489 1.675l15.857 7.144c2.24 1.009 2.24 4.579 0 5.588l-15.857 7.144c-.679.306-1.217.911-1.489 1.675l-6.347 17.848c-.897 2.521-4.068 2.521-4.965 0l-6.347-17.848c-.272-.764-.81-1.37-1.489-1.675l-15.857-7.144c-2.24-1.009-2.24-4.579 0-5.588l15.857-7.144c.679-.306 1.217-.911 1.489-1.675l6.347-17.848c.897-2.521 4.069-2.521 4.965 0z" fill="#fbf2a8"/></g></g></svg>