<svg id="Capa_1" enable-background="new 0 0 512 512" height="512" viewBox="0 0 512 512" width="512" xmlns="http://www.w3.org/2000/svg"><g><g><path d="m361.453 439.328v-28.508c0-58.238-47.211-105.449-105.449-105.449-58.238 0-105.449 47.211-105.449 105.449v28.508z" fill="#8bb6ef"/><path d="m263.39 341.999c20.36 9.157 34.681 30.89 34.681 56.253v6.102c0 9.499-7.701 17.2-17.2 17.2h-95.257v17.383h140.779v-26.936c0-36.38-27.6-66.309-63.003-70.002z" fill="#8388ef"/><path d="m418.935 229.874c.483-4.624.735-9.318.735-14.07v-.001c0-73.955-59.953-133.908-133.908-133.908h-59.515c-73.955 0-133.908 59.953-133.908 133.908v.001c0 4.752.252 9.446.735 14.07-14.55 4.214-25.192 17.629-25.192 33.537 0 19.286 15.635 34.921 34.921 34.921 5.496 0 10.693-1.273 15.318-3.535 24.361 33.289 63.715 54.914 108.126 54.914h59.515c44.411 0 83.765-21.625 108.126-54.914 4.626 2.262 9.822 3.535 15.318 3.535 19.286 0 34.921-15.635 34.921-34.921 0-15.908-10.642-29.323-25.192-33.537z" fill="#f1c7b6"/><path d="m285.761 81.816h-17.171c59.957 0 108.561 48.604 108.561 108.561v9.219c0 59.957-48.604 108.561-108.561 108.561h-67.69c-57.377 0-104.351-44.513-108.288-100.889-.174 2.797-.273 5.615-.273 8.456 0 73.955 59.953 133.908 133.908 133.908h59.515c73.956 0 133.908-59.953 133.908-133.908 0-73.955-59.953-133.908-133.909-133.908z" fill="#e795b6"/><path d="m87.512 224.298c-2.68-8.224-2.929-24.963-2.929-24.963 1.625-76.065 63.789-137.229 140.244-137.229 30-21.51 60-33.028 90-34.553 76.455 0 110.968 95.717 112.593 171.783 0 0 .348 14.756-4.659 23.1l-18.855 1.863c-12.598-2.359-20.722-50.741-35.384-66.762-18.023-19.693-43.688 11.294-112.518 11.294s-96.545-30.193-115.988-12.484c-18.177 16.556-14.544 59.951-32.887 67.952h-19.617z" fill="#f7e266"/><path d="m337.93 75.322c-.258 0-.52-.01-.782-.029-2.679-.207-5.39-.313-8.055-.317-5.538-.008-10.023-4.503-10.015-10.042.008-5.533 4.496-10.015 10.028-10.015h.014c3.168.004 6.388.131 9.571.376 5.521.426 9.653 5.248 9.227 10.771-.406 5.259-4.8 9.256-9.988 9.256z" fill="#fff"/><path d="m273.512 91.483c-3.171 0-6.29-1.5-8.239-4.3-3.164-4.545-2.045-10.795 2.501-13.96 10.539-7.336 22.587-12.564 35.811-15.539 5.41-1.214 10.77 2.179 11.985 7.582 1.216 5.404-2.179 10.77-7.582 11.985-10.682 2.403-20.356 6.586-28.755 12.433-1.746 1.216-3.744 1.799-5.721 1.799z" fill="#fff"/><path d="m263.814 299.653c-4.086-3.146-10.978-3.167-15.048 0-9.91 7.711-31.35 9.631-42.869 9.311-11.263-.313-2.24-4.48-.32-20.479.421-3.509.212-6.923.637-10.736 1.302-11.671 10.749-21.022 22.432-22.219 13.842-1.417 25.705 8.354 27.645 21.367 1.909-12.804 13.425-22.471 26.982-21.426.22.017.092.059.092.059 11.682 1.196 21.13 10.548 22.432 22.219.425 3.812.216 7.227.637 10.736 1.92 15.999 10.943 20.167-.32 20.479-11.327.315-32.003-1.774-42.12-9.168z" fill="#f7e266"/><g fill="#84eac4"><ellipse cx="389.487" cy="378.015" rx="15.813" ry="27.443" transform="matrix(.991 -.137 .137 .991 -48.11 56.916)"/><path d="m428.057 410.585c-8.476 12.565-21.216 18.791-28.456 13.907s-6.238-19.029 2.238-31.593c8.476-12.565 21.216-18.791 28.456-13.907 7.239 4.884 6.237 19.029-2.238 31.593z"/><ellipse cx="322.474" cy="478.015" rx="15.813" ry="27.443" transform="matrix(.753 -.658 .658 .753 -234.893 330.265)"/><path d="m98.539 473.976c14.777 3.37 25.182 13.004 23.24 21.519s-15.495 12.685-30.272 9.315-25.181-13.004-23.24-21.519c1.943-8.515 15.496-12.685 30.272-9.315z"/><path d="m196.917 503.841c-14.447 4.583-28.299 1.55-30.94-6.774s6.929-18.788 21.376-23.371 28.299-1.551 30.94 6.774c2.641 8.324-6.929 18.788-21.376 23.371z"/><ellipse cx="121.932" cy="389.244" rx="27.443" ry="15.813" transform="matrix(.311 -.95 .95 .311 -285.928 383.907)"/></g><path d="m111.911 469.919-5.178-11.667c.653-1.072 1.235-2.205 1.702-3.419 4.202-10.907-1.234-23.155-12.141-27.357-1.213-.468-2.444-.797-3.678-1.032l-6.426-14.479c-1.647-3.712-5.992-5.386-9.704-3.738l-14.12 6.267c-.484-.23-.967-.46-1.475-.656-10.907-4.202-23.155 1.234-27.357 12.141-.196.508-.349 1.021-.504 1.534l-14.499 6.435c-3.712 1.647-5.386 5.992-3.738 9.704l6.259 14.103c-.392.74-.756 1.502-1.065 2.304-4.201 10.907 1.234 23.155 12.141 27.357.801.309 1.611.549 2.423.756l5.962 13.434c1.647 3.712 5.992 5.386 9.704 3.739l13.723-6.09c1.12.697 2.314 1.308 3.59 1.8 10.907 4.201 23.155-1.234 27.357-12.141.492-1.276.839-2.572 1.074-3.87l12.21-5.419c3.713-1.65 5.387-5.995 3.74-9.706z" fill="#f0c4db"/><path d="m197.704 420.653c-4.059-9.651-15.173-14.185-24.824-10.125-7.738 3.254-19.749 21.518-24.211 28.636-.147-.052-.293-.104-.422-.15 4.238-6.092 17.38-25.695 17.292-34.478-.105-10.47-8.677-18.872-19.146-18.768s-18.872 8.676-18.767 19.146c.087 8.688 13.324 27.699 17.829 33.921-.122.045-.258.096-.395.147-4.616-7.116-16.825-25.049-24.576-28.172-9.711-3.914-20.756.786-24.67 10.497-3.913 9.711.787 20.756 10.498 24.67 4.692 1.891 14.325 1.001 23.033-.422-7.737 3.628-15.698 8.098-18.42 12.136-5.853 8.681-3.561 20.463 5.12 26.316s20.464 3.561 26.317-5.121c4.01-5.948 4.63-22.783 4.622-32.796.121 9.978.954 27.045 5.083 32.988 5.974 8.599 17.787 10.727 26.386 4.753s10.727-17.787 4.753-26.385c-2.84-4.088-11.158-8.55-19.104-12.109 8.842 1.331 18.736 2.134 23.477.14 9.651-4.058 14.185-15.172 10.125-24.824zm-50.761 20.209s.02-.028.036-.05c-.004.336-.007.712-.009 1.112-.014.024-.016.027-.025.042-.007-.408-.015-.785-.023-1.133.006.008.021.029.021.029zm.024 2.502c-.006-.479-.013-.922-.02-1.344.005.001.014.003.023.006-.002.416-.003.861-.003 1.338z" fill="#fff"/><ellipse cx="146.927" cy="439.281" fill="#f7e266" rx="17.126" ry="17.127" transform="matrix(.235 -.972 .972 .235 -314.558 479.121)"/><path d="m493.476 433.824-14.498-6.435c-.154-.513-.308-1.026-.504-1.534-4.201-10.907-16.449-16.343-27.357-12.141-.508.195-.992.426-1.475.655l-14.12-6.266c-3.712-1.648-8.057.026-9.704 3.738l-6.426 14.479c-1.234.234-2.464.564-3.678 1.031-10.907 4.202-16.343 16.45-12.141 27.357.467 1.213 1.049 2.347 1.702 3.419l-5.178 11.667c-1.647 3.712.026 8.057 3.738 9.704l12.21 5.419c.235 1.298.582 2.593 1.074 3.87 4.202 10.907 16.45 16.343 27.357 12.141 1.276-.492 2.47-1.103 3.59-1.8l13.723 6.09c3.712 1.648 8.057-.026 9.704-3.738l5.962-13.434c.812-.206 1.622-.447 2.423-.756 10.907-4.202 16.343-16.45 12.142-27.357-.309-.802-.673-1.564-1.065-2.304l6.259-14.103c1.648-3.71-.026-8.054-3.738-9.702z" fill="#f0c4db"/><path d="m404.439 430.637c-4.404-2.079-13.53-1.853-22.035-1.018 8.212-3.227 16.947-7.386 20.013-11.409 6.347-8.326 4.743-20.222-3.584-26.569-8.327-6.348-20.222-4.743-26.57 3.584-5.066 6.646-6.396 28.299-6.727 36.775-.144.026-.287.052-.415.075.693-7.65 2.356-30.756-2.01-38.268-5.26-9.053-16.863-12.127-25.916-6.866s-12.127 16.864-6.866 25.916c4.413 7.594 25.727 17.728 32.483 20.798-.087.105-.186.225-.286.345-7.472-3.838-27.13-13.399-35.445-12.241-10.37 1.443-17.607 11.02-16.163 21.39 1.443 10.37 11.02 17.607 21.39 16.163 5.094-.709 13.189-6.455 20.108-12.118-5.012 7.12-9.881 15.206-10.233 20.171-.74 10.444 7.126 19.51 17.57 20.251 10.444.74 19.51-7.126 20.251-17.57.511-7.215-7.488-22.302-12.484-30.943 5.112 8.612 14.244 22.757 20.728 25.819 9.467 4.471 20.767.42 25.237-9.048 4.472-9.467.422-20.766-9.046-25.237zm-39.617 3.916c.025.011.056.025.056.025s.003-.026.004-.035c.17.303.356.631.559.985-.014-.008-.018-.01-.043-.023-.207-.343-.401-.665-.576-.952zm.628 1.039c.007-.006.013-.013.017-.017.208.364.427.746.665 1.159-.242-.408-.469-.788-.682-1.142z" fill="#fff"/><path d="m349.105 441.915c4.807 8.272 15.411 11.082 23.683 6.274 8.273-4.807 11.082-15.41 6.274-23.683-4.807-8.273-15.41-11.082-23.683-6.275-8.272 4.808-11.081 15.412-6.274 23.684z" fill="#f7e266"/><path d="m304.226 417.37-18.276-7.14c-.215-.614-.447-1.226-.713-1.832-5.669-12.939-20.754-18.832-33.693-13.162-.606.266-1.191.558-1.766.864l-18.742-7.322c-4.071-1.59-8.661.421-10.251 4.492l-7.134 18.263c-.971.294-1.937.641-2.889 1.059-12.939 5.669-18.832 20.754-13.162 33.693.417.952.892 1.862 1.407 2.736l-6.812 17.439c-1.59 4.071.421 8.661 4.492 10.251l17.799 6.953c.354 1.556.854 3.102 1.518 4.617 5.669 12.939 20.754 18.832 33.693 13.162 1.516-.664 2.931-1.462 4.246-2.366l15.935 6.225c4.071 1.59 8.66-.421 10.251-4.492l5.961-15.26c1.479-.351 2.948-.831 4.39-1.463 12.939-5.669 18.832-20.754 13.162-33.693-.632-1.442-1.386-2.791-2.236-4.052l7.314-18.723c1.588-4.07-.423-8.66-4.494-10.249z" fill="#e58bbd"/></g><g fill="#440b29"><path d="m176.114 256.146c-8.256 0-14.949 6.693-14.949 14.949s6.693 14.949 14.949 14.949 14.949-6.693 14.949-14.949-6.693-14.949-14.949-14.949z"/><path d="m335.894 256.146c-8.256 0-14.949 6.693-14.949 14.949s6.693 14.949 14.949 14.949 14.949-6.693 14.949-14.949-6.693-14.949-14.949-14.949z"/><path d="m190.96 221.49c-.687-.351-6.939-3.426-14.846-3.426-7.908 0-14.16 3.075-14.846 3.426-2.948 1.504-4.112 5.1-2.624 8.056 1.488 2.957 5.101 4.149 8.065 2.677.043-.021 4.339-2.124 9.405-2.124 5.065 0 9.361 2.104 9.375 2.109.877.447 1.81.659 2.731.659 2.189 0 4.301-1.199 5.364-3.283 1.51-2.959.336-6.584-2.624-8.094z"/><path d="m326.519 232.208c.041-.021 4.359-2.109 9.375-2.109 5.065 0 9.362 2.104 9.376 2.109.876.447 1.81.659 2.73.659 2.19 0 4.3-1.199 5.364-3.283 1.511-2.96.336-6.584-2.624-8.094-.686-.351-6.939-3.426-14.847-3.426-7.906 0-14.159 3.075-14.846 3.426-2.96 1.51-4.135 5.135-2.624 8.094 1.512 2.96 5.138 4.137 8.096 2.624z"/><path d="m306.477 140.876c3.323 0 6.017-2.694 6.017-6.017v-8.515c0-3.323-2.694-6.017-6.017-6.017s-6.017 2.694-6.017 6.017v8.515c0 3.323 2.695 6.017 6.017 6.017z"/><path d="m334.054 111.496c3.323 0 6.017-2.694 6.017-6.017v-8.515c0-3.323-2.694-6.017-6.017-6.017s-6.017 2.694-6.017 6.017v8.515c0 3.323 2.694 6.017 6.017 6.017z"/><path d="m369.361 122.321c3.323 0 6.017-2.694 6.017-6.017v-8.515c0-3.323-2.694-6.017-6.017-6.017s-6.017 2.694-6.017 6.017v8.515c0 3.322 2.694 6.017 6.017 6.017z"/><path d="m260.106 304.392.12.098c.071.056.142.111.215.164 12.094 8.839 35.283 10.607 45.836 10.325 2.677-.074 7.659-.212 10.179-4.094 2.384-3.671.801-7.505-.594-10.887-1.183-2.868-2.805-6.798-3.457-12.23-.179-1.495-.227-3.072-.277-4.741-.057-1.871-.115-3.805-.354-5.946-1.585-14.211-12.886-25.634-27.018-27.447-.33-.08-.672-.135-1.022-.164-10.954-.839-21.16 4.128-27.418 12.367-6.393-8.482-16.954-13.449-28.285-12.294-14.493 1.485-26.184 13.065-27.799 27.537-.239 2.141-.297 4.075-.354 5.946-.05 1.669-.098 3.245-.277 4.741-.652 5.432-2.273 9.361-3.458 12.231-1.396 3.382-2.977 7.215-.593 10.886 2.52 3.881 7.502 4.019 10.178 4.094.831.023 1.717.035 2.652.035 12.422 0 33.26-2.195 44.079-10.612 1.877-1.457 5.716-1.457 7.647-.009zm-52.18-1.411c1.303-3.255 2.904-7.773 3.624-13.779.244-2.028.302-3.952.358-5.812.051-1.706.1-3.318.285-4.974.991-8.881 8.168-15.988 17.064-16.9 10.3-1.063 19.564 6.091 21.081 16.268.44 2.948 2.971 5.13 5.951 5.13 2.981 0 5.511-2.182 5.951-5.13 1.45-9.722 10.139-16.77 19.945-16.353.185.037.373.066.564.085 8.897.912 16.075 8.019 17.065 16.9.184 1.656.233 3.268.285 4.974.056 1.861.114 3.784.357 5.812.721 6.005 2.321 10.523 3.625 13.777-12.593.094-28.987-2.606-36.438-7.968l-.065-.052c-.031-.025-.063-.049-.094-.073-6.311-4.861-16.157-4.852-22.414.019-7.023 5.464-23.925 8.155-37.144 8.076z"/><path d="m495.917 428.324-12.141-5.388c-5.552-13.222-20.514-19.867-34.047-15.112l-11.033-4.896c1.314-3.583 2.133-7.169 2.375-10.594.573-8.085-2.129-14.767-7.412-18.329-5.282-3.564-12.488-3.568-19.771-.008-.916.448-1.825.952-2.727 1.5-.021-.159-.029-.313-.051-.472-1.146-8.289-4.148-15.907-8.454-21.452-4.971-6.403-11.445-9.569-17.754-8.7-6.313.872-11.68 5.681-14.727 13.192-2.638 6.506-3.461 14.654-2.314 22.943.392 2.838.997 5.547 1.778 8.101-.066.066-.132.133-.197.2-3.117-16.468-9.739-31.705-19.062-44.913 18.152-9.159 34.112-22.047 46.866-37.655 3.809 1.055 7.818 1.623 11.959 1.623 24.785 0 44.95-20.165 44.95-44.95 0-16.184-8.601-30.393-21.471-38.307 4.963-10.415 4.8-24.335 4.761-25.985-.937-43.875-11.3-87.236-28.429-118.965-22.12-40.974-54.691-62.632-94.19-62.632-.128 0-.257.003-.384.008-44.603 1.71-82.499 26.935-93.014 34.583-38.315.848-74.355 16.013-101.806 42.919-28.217 27.658-44.222 64.624-45.065 104.085-.003.121-.003.243-.002.363.027 1.792.335 17.189 3.062 26.733-11.916 8.09-19.765 21.738-19.765 37.195 0 24.785 20.164 44.95 44.949 44.95 4.142 0 8.148-.579 11.959-1.634 12.753 15.61 28.707 28.508 46.858 37.668-7.255 10.278-12.875 21.784-16.481 34.145-.576-10.385-5.137-18.585-12.786-21.092-6.058-1.987-12.989-.018-19.021 5.395-5.225 4.689-9.537 11.651-12.143 19.603-2.977 9.086-3.251 17.937-1.271 24.943-2.477 1.585-4.689 3.61-6.5 6.025l-1.727-3.89c-1.449-3.265-4.082-5.77-7.415-7.054-3.332-1.281-6.965-1.192-10.23.257l-11.763 5.221c-13.532-4.754-28.496 1.888-34.049 15.111l-12.141 5.388c-3.265 1.448-5.77 4.082-7.053 7.416-1.284 3.333-1.193 6.966.256 10.229l5.157 11.62c-.025.063-.055.121-.079.184-2.609 6.774-2.425 14.16.521 20.796 2.945 6.636 8.298 11.729 15.073 14.337.063.024.126.044.189.068l4.859 10.948c1.449 3.265 4.082 5.77 7.415 7.054 1.561.6 3.187.9 4.811.9 1.844 0 3.684-.386 5.42-1.157l11.029-4.895c.551.255 1.108.499 1.679.719 3.174 1.223 6.48 1.832 9.781 1.832 2.056 0 4.108-.245 6.125-.717 2.755 1.182 5.727 2.17 8.895 2.893 3.857.88 7.72 1.318 11.43 1.318 4.139 0 8.088-.546 11.626-1.634 7.747-2.384 13.003-7.315 14.419-13.528.271-1.187.386-2.392.366-3.605 1.133-.064 2.269-.202 3.402-.422 6.431-1.252 12.002-4.893 15.733-10.264 3.19 4.579 7.651 7.75 12.579 9.39-.343 2.343-.203 4.686.517 6.956 1.927 6.074 7.573 10.552 15.491 12.286 2.512.55 5.201.823 7.992.823 4.826 0 9.958-.815 15.012-2.419 7.141-2.265 13.193-5.795 17.662-9.957 5.989 6.372 14.384 9.99 23.075 9.99 4.227 0 8.522-.853 12.635-2.655v-.001c.83-.364 1.633-.763 2.416-1.188l13.16 5.141c1.644.642 3.36.963 5.074.963 1.899 0 3.795-.394 5.586-1.179 3.408-1.492 6.031-4.224 7.385-7.69l4.89-12.518c.762-.266 1.52-.553 2.272-.882 2.809-1.231 5.379-2.837 7.664-4.754 1.53 2.565 3.351 5.098 5.48 7.535 5.506 6.301 12.196 11.023 18.838 13.297 2.892.99 5.71 1.479 8.356 1.479 4.37-.001 8.272-1.335 11.261-3.947 3.405-2.975 5.212-7.224 5.522-12.109 2.873 1.421 6.022 2.284 9.315 2.518.603.042 1.205.064 1.803.064 6.007 0 11.747-2.137 16.329-6.112 5.03-4.364 8.062-10.424 8.542-17.065 2.396 1.091 4.903 1.791 7.448 2.09-.063 5.186 2.908 10.168 7.941 12.403l9.518 4.224c.181.579.373 1.157.594 1.728 2.609 6.775 7.702 12.128 14.337 15.074 3.529 1.566 7.269 2.351 11.017 2.351 3.3 0 6.608-.61 9.78-1.832.571-.22 1.122-.471 1.669-.724l11.042 4.9c1.757.78 3.594 1.149 5.404 1.149 5.127 0 10.029-2.965 12.241-7.946l4.859-10.947c.063-.024.127-.044.19-.068 13.986-5.388 20.98-21.15 15.592-35.134-.024-.062-.054-.12-.078-.181l5.158-11.623c2.991-6.739-.059-14.654-6.796-17.645zm-4.203 12.764-2.373 5.346c-1.62-1.302-3.378-2.41-5.239-3.308.758-1.986 1.292-4.059 1.57-6.182l5.363 2.38c.673.299.978 1.09.679 1.764zm-35.214 35.94c-3.622 1.396-7.461 1.773-11.197 1.185l9.69-6.835 10.628-1.01c-2.38 2.954-5.486 5.26-9.121 6.66zm-194.956-4.679c-5.441 2.383-11.366 2.942-17.055 1.673l13.868-10.403 15.934-2.635c-2.843 4.875-7.192 8.93-12.747 11.365zm-51.544-5.83c-1.037 2.655-1.695 5.394-1.993 8.154l-9.132-3.568c-.974-.38-1.457-1.483-1.076-2.456l3.21-8.217c2.8 2.287 5.956 4.074 9.327 5.287-.113.266-.23.529-.336.8zm-62.961-16.129c-.038.001-.074.001-.112.001-6.075-.001-11.047-4.911-11.109-10.998-.029-2.967 1.098-5.769 3.175-7.889 2.077-2.119 4.855-3.302 7.822-3.332.038-.001.074-.001.112-.001 6.075 0 11.047 4.911 11.108 10.998.029 2.967-1.098 5.769-3.176 7.889-2.075 2.119-4.853 3.302-7.82 3.332zm-45.264 25.489c-.293-1.427-.699-2.838-1.226-4.221.43-.209.852-.434 1.271-.665.076.689.174 1.378.308 2.067.158.814.355 1.615.589 2.4zm-18.058-11.249c-1.42 3.688-3.743 6.765-6.614 9.088l1.591-11.531 6.212-8.761c.576 3.658.235 7.508-1.189 11.204zm-40.73-15.69c1.414-3.673 3.723-6.74 6.579-9.061l-1.862 11.342-5.912 8.878c-.567-3.644-.223-7.477 1.195-11.159zm70.427-33.486c1.607 0 3.241.302 4.821.938 2.265.913 5.903 4.553 9.904 9.413-2.861 3.972-4.404 8.72-4.354 13.707.003.26.016.517.027.775-6.965.9-12.798 1.097-15.251.109-3.206-1.292-5.717-3.755-7.07-6.936-1.353-3.18-1.387-6.698-.095-9.904 2.03-5.037 6.892-8.102 12.018-8.102zm105.884-55.883c2.303.11 4.618.169 6.948.169h59.515c2.33 0 4.647-.061 6.95-.171 16.704 11.637 27.664 30.966 27.664 52.823v4.964c-2.052.821-3.975 1.914-5.734 3.246-.154-.49-.328-.975-.537-1.452-1.492-3.408-4.224-6.031-7.69-7.385l-15.861-6.196c-3.426-7.526-9.531-13.32-17.248-16.335-7.721-3.014-16.135-2.894-23.754.318l-16.327-6.379c-3.465-1.354-7.251-1.278-10.66.216-3.409 1.493-6.031 4.224-7.386 7.69l-6.14 15.716c-.231.095-.464.184-.694.285-3.203 1.403-6.051 3.284-8.51 5.513-2.124-2.721-4.776-4.983-7.864-6.625 1.915-19.19 12.287-35.915 27.328-46.397zm168.058 34.211c2.735 0 5.492.862 7.83 2.644 2.749 2.096 4.518 5.136 4.979 8.561.462 3.426-.438 6.826-2.533 9.575-1.589 2.085-6.624 4.86-12.984 7.619-.125-.234-.248-.468-.383-.698-2.536-4.363-6.338-7.692-10.887-9.658.951-6.129 2.207-11.032 3.671-12.953 2.544-3.336 6.403-5.09 10.307-5.09zm82.859 66.191-5.911-8.875-1.861-11.335c2.854 2.32 5.165 5.383 6.579 9.054 1.39 3.61 1.77 7.433 1.193 11.156zm-28.192-6.433 4.485-.663 5.332-3.421 1.01 6.152 2.434 3.653-4.613.439-5.044 3.558-.793-5.754zm.164-12.189-10.454 1.547c2.322-2.866 5.396-5.183 9.078-6.601 2.572-.99 5.216-1.459 7.82-1.459 1.115 0 2.222.088 3.312.256zm-22.443-2.267c-.753-2.026-1.756-3.911-2.965-5.639.357-.172.722-.334 1.098-.479 2.462-.947 5.016-1.182 7.459-.845-2.179 2.077-4.052 4.424-5.592 6.963zm14.281-16.95c-1.747-.75-3.574-1.305-5.447-1.679l2.74-6.174c.299-.674 1.088-.979 1.764-.679l4.966 2.204c-1.609 1.89-2.962 4.013-4.023 6.328zm-83.99-31.31c3.341.885 6.137 3.018 7.875 6.007 1.22 2.099 1.856 7.156 2.032 13.399-2.637.477-5.199 1.414-7.586 2.8-2.416 1.404-4.485 3.179-6.18 5.211-5.341-3.247-9.424-6.306-10.644-8.407-1.736-2.989-2.205-6.474-1.32-9.815.884-3.342 3.018-6.139 6.007-7.875 2.002-1.163 4.226-1.758 6.48-1.758 1.112 0 2.233.145 3.336.438zm-22.123 36.894c.25-.034.525-.051.827-.051 2.573 0 6.988 1.237 12.14 3.164-.493 4.743.451 9.678 3.024 14.107.174.299.375.576.561.865-5.515 4.177-10.392 7.188-12.985 7.549-7.055.975-13.617-3.967-14.601-11.034-.476-3.424.409-6.828 2.493-9.585 2.084-2.756 5.117-4.538 8.541-5.015zm-87.626 15.014 7.001-1.37 7.476-5.314 1.94 9.09 4.296 5.846-7.508 1.243-7.019 5.265-1.521-9.061zm-29.053 10.188c-3.486-2.006-6.387-5.092-8.122-9.052-4.329-9.879.187-21.438 10.066-25.767 2.516-1.102 5.178-1.655 7.845-1.655 1.253 0 2.507.129 3.748.374-10.391 8.841-15.563 22.563-13.537 36.1zm69.853-31.091c-4.255-5.186-9.78-9.229-16.198-11.736-6.214-2.427-12.789-3.237-19.23-2.444 2.045-3.011 4.884-5.406 8.301-6.903 2.515-1.103 5.177-1.655 7.844-1.655 2.406 0 4.815.449 7.123 1.352 4.867 1.901 8.702 5.584 10.799 10.37 1.576 3.595 1.967 7.408 1.361 11.016zm-48.478-15.205c-.029-.011-.056-.024-.085-.035-3.136-1.225-6.387-1.925-9.654-2.119l3.52-9.011c.292-.748 1.01-1.206 1.769-1.206.229 0 .462.042.688.13l9.096 3.554c-2.213 2.553-4.013 5.478-5.334 8.687zm6.758 15.106c3.554-1.557 7.315-2.338 11.082-2.338 2.017 0 4.034.23 6.024.678l-14.041 9.98-15.843 3.099c2.842-4.9 7.203-8.976 12.778-11.419zm36.397 14.22c2.443 5.574 2.887 11.526 1.656 17.056l-9.487-12.909-3.622-16.969c5.068 2.923 9.062 7.364 11.453 12.822zm-90.646-19.93c3.201 1.305 5.701 3.779 7.041 6.966.018.042.029.085.046.126-1.945 4.351-2.903 9.129-2.746 13.969-1.185 1.205-2.607 2.175-4.211 2.849v.001c-2.434 1.023-8.255.913-15.215.121.011-.335.042-.666.039-1.002-.05-5.06-1.737-9.724-4.544-13.508 3.899-4.877 7.45-8.528 9.687-9.469 3.185-1.338 6.703-1.358 9.903-.053zm-46.265 1.588c-3.098-5.541-5.185-10.297-5.21-12.754-.034-3.457 1.279-6.719 3.699-9.188 2.419-2.468 5.656-3.847 9.111-3.881.044-.001.087-.001.13-.001 7.076 0 12.869 5.72 12.94 12.812v.001c.024 2.455-1.968 7.25-4.954 12.848-2.465-.867-5.116-1.33-7.872-1.307-2.725.028-5.363.548-7.844 1.47zm-35.56 33.596c-.134.491-.285.98-.472 1.465-1.17 3.038-3.225 5.472-5.752 7.144.437-4.893-.209-9.752-1.802-14.266 2.248 2.379 4.958 4.3 8.026 5.657zm-14.602-19.126c.153 1.018.374 2.031.656 3.032-.836-1.006-1.731-1.967-2.686-2.876.671-.092 1.347-.155 2.03-.156zm-17.492 4.342c3.682 1.419 6.756 3.737 9.078 6.603l-10.455-1.547-9.752-6.256c3.635-.56 7.457-.215 11.129 1.2zm-4.023 21.208-.794 5.754-5.043-3.558-4.613-.439 2.433-3.653 1.01-6.152 5.332 3.42 4.485.664zm-11.668 19.523c-3.707-1.428-6.797-3.768-9.125-6.66l10.634 1.01 9.693 6.837c-3.658.577-7.507.236-11.202-1.187zm132.641-23.137c-.462-.665-1.036-1.328-1.674-1.99 1.27-.249 2.429-.577 3.439-1.001v.001c.791-.333 1.549-.717 2.29-1.125l-2.561 6.557c-.451-.835-.945-1.651-1.494-2.442zm35.32-12.828 10.144 12.393 2.908 17.323c-5.029-2.923-8.994-7.344-11.373-12.773-2.426-5.537-2.879-11.445-1.679-16.943zm69.916-21.591 8.652 3.38c.637.249.929.737 1.047 1.005.118.269.278.815.029 1.451l-3.899 9.981c-2.273-1.705-4.786-3.119-7.505-4.18-.27-.105-.543-.197-.814-.294 1.509-3.577 2.368-7.422 2.49-11.343zm60.923 19.297c-3.132-5.39-1.295-12.325 4.096-15.458 2.612-1.518 5.657-1.928 8.577-1.154 2.919.774 5.363 2.638 6.881 5.249 3.132 5.39 1.295 12.325-4.096 15.457-2.612 1.518-5.656 1.927-8.577 1.154-2.919-.772-5.363-2.636-6.881-5.248zm72.796 14.409 6.212 8.763 1.59 11.527c-2.933-2.374-5.221-5.469-6.614-9.084-1.425-3.697-1.765-7.547-1.188-11.206zm45.757-25.283c.762 1.979 1.074 4.021.994 6.016-3.148-3.509-7.025-6.35-11.463-8.319-4.61-2.046-9.511-3.02-14.408-2.919 1.485-1.496 3.272-2.685 5.298-3.466 7.799-3.002 16.576.896 19.579 8.688zm-53.688-43.21c1.978-.967 3.821-1.461 5.323-1.461.975 0 1.807.21 2.435.633 1.595 1.076 2.395 3.881 2.138 7.504-.267 3.763-1.648 8.049-3.862 12.179-2.078 1.361-3.806 3.304-4.886 5.738l-1.285 2.895c-3.522 3.761-7.176 6.108-10.215 7.161 2.873-4.822 4.034-10.43 3.273-16.077-.468-3.47-1.636-6.732-3.402-9.636 3.14-3.969 6.848-7.159 10.481-8.936zm-37.844-22.222c1.365-3.365 3.318-5.531 5.224-5.795.139-.02.282-.028.427-.028 1.838 0 4.109 1.53 6.173 4.188 2.988 3.849 5.189 9.58 6.039 15.722.411 2.97.475 5.724.297 8.226-5.942-3.314-12.834-3.963-19.092-2.159-.241-1.083-.45-2.207-.612-3.383-.85-6.143-.287-12.255 1.544-16.771zm-35.607 15.781c-4.021.156-7.969 1.292-11.548 3.372-2.356 1.369-4.418 3.093-6.171 5.076-3.948-11.07-10.387-20.966-18.631-29.022 7.529-1.248 14.864-3.077 21.953-5.449 6.074 7.802 10.963 16.565 14.397 26.023zm64.353-90.084c7.641-13.055 13.284-27.412 16.508-42.654 4.629 4.522 7.517 10.816 7.517 17.783 0 13.435-10.7 24.411-24.025 24.871zm-185.247-216.149c2.255 0 4.454-.768 6.224-2.165.388-.306 39.235-30.592 83.968-32.389 32.033.07 57.722 17.6 76.349 52.103 15.668 29.021 25.153 69.066 26.026 109.888.065 2.757-.3 8.766-1.568 13.471l-9.667.956c-3.223-4.022-7.86-16.361-11.027-24.787-5.471-14.559-11.129-29.614-19.212-38.445-13.689-14.958-30.454-9.806-49.872-3.841-16.312 5.012-38.652 11.876-70.045 11.876-31.776 0-53.961-6.605-71.787-11.912-20.512-6.106-36.713-10.931-50.953 2.042-10.92 9.946-15.154 26.115-18.89 40.38-2.634 10.061-5.589 21.344-9.93 24.957h-8.766c-.662-5.062-.998-11.052-1.065-14.904 1.598-70.173 59.974-127.23 130.215-127.23zm-146.918 191.278c0-6.971 2.892-13.27 7.526-17.792 3.224 15.244 8.863 29.606 16.504 42.662-13.326-.456-24.03-11.433-24.03-24.87zm25.854-29.086h3.366c1.38 0 2.744-.285 4.009-.836 13.999-6.106 18.391-22.877 22.638-39.097 3.178-12.137 6.465-24.687 12.992-30.633 5.387-4.908 12.57-3.349 31.725 2.353 18.067 5.378 42.811 12.745 77.51 12.745 34.405 0 58.409-7.375 75.936-12.762 19.186-5.895 24.561-6.842 29.184-1.79 5.467 5.974 10.655 19.78 15.233 31.961 7.471 19.879 13.372 35.579 25.704 37.888.934.175 1.887.215 2.831.122l3.406-.337c-8.803 59.739-60.391 105.743-122.537 105.743h-59.515c-62.011.001-113.514-45.805-122.482-105.357zm98.875 123.468c-12.085 11.818-20.279 27.599-22.446 45.223-2.92.004-5.838.529-8.641 1.571 0-.036.005-.076.005-.112-.07-7.05-3.075-13.393-7.834-17.891 3.321-12.619 9.17-24.216 16.969-34.233 7.086 2.371 14.42 4.194 21.947 5.442zm-90.015 28.4c1.931-5.893 5.118-11.139 8.745-14.393 2.214-1.987 4.43-3.078 6.163-3.078.382 0 .742.053 1.072.161 2.865.94 5.223 6.72 4.458 14.841-1.546.999-2.995 2.172-4.315 3.518-4.632 4.724-7.16 10.958-7.135 17.567-3.404-1.187-6.909-1.586-10.312-1.293-1.036-4.248-.96-10.351 1.324-17.323zm-33.696 27.532c.193-.085.375-.117.54-.117.19 0 .355.042.482.091.236.091.555.287.741.705l2.742 6.177c-1.872.373-3.696.937-5.442 1.686-1.062-2.319-2.417-4.446-4.029-6.338zm-39.778 14.416c2.315-6.009 8.066-9.702 14.151-9.702 1.807 0 3.644.326 5.428 1.013 2.032.783 3.823 1.976 5.307 3.481-9.819-.189-19.304 3.942-25.866 11.229-.084-1.997.216-4.039.98-6.021zm-18.881 12.046c.091-.235.286-.555.705-.74l5.361-2.379c.277 2.119.813 4.186 1.568 6.168-1.861.9-3.621 2.005-5.241 3.309l-2.368-5.335c-.186-.419-.116-.787-.025-1.023zm5.334 22.034c.867-2.251 2.227-4.165 3.897-5.692-.065 10.043 4.376 19.694 12.083 26.178-2.44.303-4.931.002-7.29-.907-3.775-1.454-6.758-4.292-8.4-7.99-1.641-3.698-1.744-7.813-.29-11.589zm22.175 37.622c-.419.184-.786.116-1.022.025s-.555-.287-.741-.705l-2.058-4.636c2.207-.351 4.382-.984 6.486-1.887.781 1.701 1.721 3.297 2.804 4.774zm15.453-9.2c.028 0 .055.002.083.002 10.28 0 20.129-4.722 26.563-12.824.703 2.949.511 6.037-.603 8.928-1.454 3.775-4.292 6.758-7.99 8.4-3.697 1.64-7.814 1.743-11.589.29-2.591-1-4.796-2.663-6.464-4.796zm52.683 3.512c-.427 1.876-2.755 3.633-6.226 4.702-4.001 1.231-9.096 1.419-14.287.576 2.165-2.422 3.901-5.237 5.104-8.359.22-.572.413-1.15.594-1.729l7.808-3.465c1.142 1.147 2.404 2.191 3.776 3.116.737.496 1.5.936 2.273 1.348.846 1.401 1.205 2.727.958 3.811zm13.202-13.164c-3.39.662-6.84-.04-9.706-1.972s-4.808-4.865-5.468-8.258.04-6.841 1.973-9.707l-.001.001c1.445-2.143 6.197-5.153 12.264-8.232 2.967 4.096 7.236 7.181 12.192 8.649-.585 6.594-1.581 11.952-2.996 14.052-1.932 2.866-4.865 4.807-8.258 5.467zm27.894-5.346v.001c-1.464-2.107-2.544-7.556-3.219-14.256 3.624-1.12 6.935-3.124 9.665-5.909.84-.857 1.582-1.781 2.269-2.737 6.186 3.02 11.053 5.995 12.54 8.136 1.972 2.838 2.721 6.275 2.108 9.677-.613 3.401-2.514 6.361-5.353 8.333-5.858 4.071-13.939 2.615-18.01-3.245zm38.089 22.46c-5.911 1.875-12.031 2.353-16.791 1.31-3.547-.777-6.012-2.335-6.594-4.169-.213-.671-.187-1.478.054-2.367 3.531-.587 6.99-1.933 10.118-4.106 3.491-2.425 6.242-5.626 8.089-9.326 1.29 1.223 2.815 2.2 4.521 2.866l15.025 5.87c.111.324.221.649.343.971-2.858 3.294-7.841 6.754-14.765 8.951zm37.213-1.87c-4.867-1.902-8.702-5.584-10.799-10.37-1.788-4.081-2.116-8.545-.999-12.79 4.156 4.79 9.434 8.537 15.509 10.91 4.681 1.829 9.566 2.741 14.444 2.741 2.25 0 4.498-.206 6.725-.594-1.923 4.227-5.333 7.792-9.912 9.798-4.786 2.097-10.102 2.203-14.968.305zm41.205 3.431c-.269.117-.814.278-1.451.029l-7.3-2.852c1.564-2.114 2.867-4.399 3.86-6.815 2.698 1.066 5.541 1.763 8.447 2.059l-2.552 6.532c-.248.637-.736.93-1.004 1.047zm14.546-21.091c-4.699 2.06-9.771 2.104-14.269.53 11.242-8.179 17.313-21.708 16.18-35.375 3.604 2.069 6.456 5.202 8.155 9.078 2.097 4.785 2.204 10.101.304 14.968-1.902 4.867-5.584 8.702-10.37 10.799zm48.511 15.573c-1.449 1.265-4.367 1.318-7.8.143-4.61-1.578-9.594-5.161-13.674-9.831-3.014-3.449-5.105-6.924-6.424-10.1.346-.72.674-1.452.967-2.204 1.426-3.649 2.143-7.455 2.173-11.258 1.28.016 2.763.292 4.362.84.35.12.706.273 1.06.416.997.576 2.038 1.079 3.111 1.515 3.318 1.89 6.634 4.617 9.503 7.9 8.606 9.847 9.729 19.95 6.722 22.579zm37.43-24.528c-.244 3.448-1.817 6.595-4.427 8.86-2.611 2.264-5.943 3.385-9.396 3.133-3.448-.244-6.595-1.817-8.86-4.428s-3.378-5.947-3.133-9.396c.182-2.576 2.794-7.547 6.509-13.234 1.099.481 2.23.905 3.411 1.218 1.991.527 4.01.787 6.016.787 1.838 0 3.663-.231 5.446-.664 2.795 6.025 4.614 11.187 4.434 13.724zm7.178-20.52c3.564-3.839 5.684-8.741 6.14-13.845 6.7-.438 12.234-.27 14.55.824h-.001c3.126 1.476 5.489 4.08 6.656 7.334 1.166 3.253.996 6.766-.48 9.892-3.048 6.452-10.777 9.22-17.227 6.176-2.267-1.072-5.811-5.093-9.638-10.381zm24.416 23.135.701-1.579c.671-.291 1.323-.611 1.961-.955 1.026.682 2.094 1.297 3.2 1.833-.527 1.383-.933 2.794-1.226 4.221l-3.956-1.756c-.674-.299-.978-1.09-.68-1.764zm17.137 14.39c-1.111-2.885-1.306-5.967-.608-8.91 3.357 4.241 7.71 7.636 12.795 9.893 4.396 1.951 9.055 2.929 13.723 2.929.032 0 .064-.002.096-.002-1.624 2.076-3.793 3.763-6.428 4.778-3.773 1.453-7.892 1.352-11.589-.29-3.697-1.64-6.535-4.623-7.989-8.398zm41.496 13.094-5.482-2.433c1.101-1.501 2.026-3.117 2.798-4.803 2.078.898 4.267 1.538 6.517 1.896l-2.068 4.66c-.3.675-1.089.981-1.765.68zm21.885-26.033c-1.641 3.698-4.624 6.535-8.4 7.99-2.351.906-4.834 1.206-7.266.908 3.896-3.27 7.03-7.404 9.154-12.189 1.988-4.48 2.957-9.234 2.919-13.993 1.694 1.557 3.031 3.485 3.882 5.695 1.456 3.776 1.353 7.891-.289 11.589z"/></g><g><path d="m64.238 2.538 8.518 23.951c.365 1.025 1.087 1.838 1.998 2.249l21.28 9.587c3.006 1.355 3.006 6.145 0 7.499l-21.28 9.588c-.911.41-1.633 1.223-1.998 2.249l-8.518 23.951c-1.203 3.384-5.459 3.384-6.663 0l-8.518-23.952c-.365-1.025-1.087-1.838-1.998-2.249l-21.28-9.588c-3.006-1.354-3.006-6.144 0-7.499l21.28-9.587c.911-.411 1.633-1.223 1.998-2.249l8.518-23.951c1.203-3.383 5.459-3.383 6.663.001z" fill="#fbf2a8"/><ellipse cx="46.141" cy="347.889" fill="#f7e266" rx="18.6" ry="18.6" transform="matrix(.122 -.993 .993 .122 -304.779 351.177)"/><circle cx="18.567" cy="125.925" fill="#f7e266" r="7.877"/><path d="m468.339 23.3 6.319 17.767c.27.76.806 1.363 1.482 1.668l15.785 7.112c2.23 1.005 2.23 4.558 0 5.563l-15.785 7.112c-.676.304-1.211.907-1.482 1.668l-6.319 17.767c-.893 2.51-4.05 2.51-4.942 0l-6.319-17.767c-.271-.761-.806-1.363-1.482-1.668l-15.785-7.112c-2.23-1.005-2.23-4.558 0-5.563l15.785-7.112c.676-.305 1.211-.907 1.482-1.668l6.319-17.767c.892-2.51 4.049-2.51 4.942 0z" fill="#fbf2a8"/></g></g></svg>