<svg id="Capa_1" enable-background="new 0 0 512 512" height="512" viewBox="0 0 512 512" width="512" xmlns="http://www.w3.org/2000/svg"><g><g><path d="m369.951 501.893v-31.022c0-63.373-51.374-114.746-114.746-114.746-63.373 0-114.746 51.374-114.746 114.746v31.022z" fill="#fff"/><path d="m263.242 396.408c22.155 9.965 37.739 33.614 37.739 61.212v6.64c0 10.337-8.379 18.716-18.716 18.716h-103.656v18.916h153.191v-29.311c0-39.587-30.034-72.155-68.558-76.173z" fill="#eebdfa"/><path d="m287.586 404.375h-64.762c-80.476 0-145.714-65.238-145.714-145.714 0-80.476 65.238-145.714 145.714-145.714h64.762c80.476 0 145.714 65.239 145.714 145.714 0 80.476-65.238 145.714-145.714 145.714z" fill="#d49c8d"/><path d="m424.208 272.997c9.825-6.77 16.4-19.117 16.4-33.229 0-16.282-8.757-30.209-21.155-35.936.513-3.013.789-6.123.789-9.309 0-26.661-18.827-48.274-42.052-48.274-.83 0-1.653.035-2.471.09-7.482-29.506-31.197-51.075-59.314-51.075-13.785 0-26.513 5.187-36.791 13.947-10.033-8.283-22.332-13.177-35.634-13.177-17.223 0-32.771 8.191-43.88 21.349-5.879-3.065-12.404-4.787-19.282-4.787-19.766 0-36.65 14.108-43.462 34.024-1.684-.235-3.395-.371-5.135-.371-23.225 0-42.052 21.613-42.052 48.274 0 3.185.276 6.296.789 9.309-12.398 5.727-21.155 19.654-21.155 35.936 0 14.112 6.575 26.459 16.4 33.229-9.825 6.77-16.4 19.117-16.4 33.228 0 16.283 8.757 30.209 21.155 35.936-.513 3.013-.789 6.123-.789 9.309 0 26.661 18.827 48.274 42.052 48.274.83 0 1.653-.035 2.471-.089 7.482 29.505 31.196 51.075 59.314 51.075 13.785 0 26.513-5.186 36.791-13.946 10.033 8.283 22.332 13.176 35.634 13.176 17.223 0 32.771-8.191 43.88-21.349 5.879 3.066 12.404 4.788 19.282 4.788 19.766 0 36.65-14.108 43.462-34.024 1.684.236 3.395.371 5.135.371 23.225 0 42.052-21.613 42.052-48.274 0-3.185-.276-6.296-.789-9.309 12.398-5.727 21.155-19.653 21.155-35.936 0-14.114-6.575-26.461-16.4-33.23z" fill="#fff"/><path d="m424.208 272.997c9.825-6.77 16.4-19.117 16.4-33.229 0-16.283-8.757-30.209-21.155-35.937.513-3.013.789-6.123.789-9.308 0-26.661-18.827-48.274-42.052-48.274-.83 0-1.653.035-2.471.09-7.482-29.506-31.197-51.074-59.314-51.074-9.013 0-17.569 2.229-25.288 6.213 11.596 6.789 20.57 18.634 24.707 33.013.316 1.097 1.299 1.866 2.441 1.864h.075c18.717 0 33.891 17.418 33.891 38.905 0 1.773-.106 3.518-.308 5.227-.16 1.356.523 2.647 1.707 3.328 8.902 5.128 15.015 15.696 15.015 27.908 0 11.373-5.299 21.324-13.217 26.779 7.918 5.456 13.217 15.407 13.217 26.779 0 13.123-7.057 24.346-17.05 28.962.413 2.428.636 4.934.636 7.501 0 21.487-15.173 38.905-33.891 38.905-1.402 0-2.781-.108-4.138-.299-5.489 16.051-19.097 27.421-35.027 27.421-5.543 0-10.801-1.388-15.54-3.859-8.953 10.604-21.483 17.206-35.364 17.206-10.72 0-20.632-3.944-28.718-10.619-8.284 7.059-18.541 11.239-29.651 11.239-22.038 0-40.72-16.44-47.276-39.217-.322-1.119-1.334-1.874-2.498-1.873-.007 0-.013 0-.02 0-18.717 0-38.508-25.856-38.508-47.343 0-2.567.222-5.073.636-7.501-4.46-2.06-3.712 2.994-6.635-1.28-3.656 6.191-5.797 13.655-5.797 21.698 0 16.284 8.756 30.209 21.155 35.937-.513 3.013-.789 6.123-.789 9.308 0 26.661 18.827 48.274 42.052 48.274.83 0 1.653-.034 2.471-.09 7.482 29.506 31.196 51.074 59.314 51.074 13.785 0 26.513-5.186 36.791-13.946 10.033 8.283 22.332 13.176 35.634 13.176 17.223 0 32.771-8.191 43.88-21.349 5.88 3.066 12.404 4.787 19.282 4.787 19.766 0 36.651-14.107 43.462-34.023 1.685.236 3.395.371 5.135.371 23.225 0 42.052-21.613 42.052-48.274 0-3.185-.276-6.296-.789-9.308 12.398-5.728 21.155-19.653 21.155-35.937-.001-14.109-6.576-26.456-16.401-33.225z" fill="#eebdfa"/><path d="m386.054 184.258c-6.561 10.747-7.652 24.518-1.686 36.655 11.591 23.581 40.104 33.3 63.684 21.709 29.476-14.489 41.625-50.13 27.136-79.605-18.111-36.845-62.662-52.031-99.507-33.92 0 0-44.726 22.042 7.318 53.807z" fill="#f7e266"/><path d="m124.356 184.258c6.561 10.747 7.652 24.518 1.686 36.655-11.591 23.581-40.104 33.3-63.684 21.709-29.476-14.489-41.625-50.13-27.136-79.605 18.111-36.845 62.662-52.031 99.507-33.92 0 0 44.726 22.042-7.318 53.807z" fill="#f7e266"/><path d="m314.034 373.635h-117.658c-39.531 0-71.577-32.046-71.577-71.577 0-39.531 32.046-71.577 71.577-71.577h117.659c39.531 0 71.577 32.046 71.577 71.577-.001 39.531-32.047 71.577-71.578 71.577z" fill="#d49c8d"/></g><g fill="#440b29"><path d="m484.259 158.558c-20.008-40.703-68.634-58.144-109.77-40.036-13.28-20.45-34.74-33.364-58.085-33.364-13.175 0-25.788 3.935-36.897 11.45-10.769-7.01-22.909-10.68-35.529-10.68-17.296 0-33.534 6.826-46.427 19.375-5.395-1.869-10.998-2.813-16.735-2.813-15.44 0-29.642 6.801-40.02 18.39-.762-.426-1.324-.712-1.61-.853-41.786-20.537-92.494-3.253-113.035 38.532-8.198 16.679-9.412 35.551-3.415 53.143s18.484 31.794 35.164 39.992c1.148.565 2.308 1.076 3.474 1.558 1.88 7.378 5.29 14.132 9.982 19.747-7.435 8.897-11.66 20.649-11.66 33.228 0 17.047 7.844 32.529 20.482 41.353-.077 1.299-.117 2.597-.117 3.892 0 30.272 20.69 55.237 47.075 58.106 2.56 7.296 6.034 14.023 10.229 20.05-4.535 12.919-7.013 26.796-7.013 41.245v31.022c0 5.582 4.526 10.107 10.107 10.107s10.107-4.526 10.107-10.107v-31.022c0-8.352 1.009-16.47 2.869-24.262 6.236 4.815 13.15 8.528 20.49 10.957-.901 4.87-1.379 9.887-1.379 15.015v32.89c0 3.349 2.715 6.064 6.064 6.064s6.064-2.715 6.064-6.064v-32.89c0-4.191.38-8.293 1.087-12.285 2.715.357 5.466.54 8.244.54 13.175 0 25.788-3.935 36.897-11.45 10.769 7.01 22.909 10.68 35.529 10.68 17.296 0 33.533-6.827 46.426-19.375 1.994.691 4.016 1.253 6.063 1.69 4.363 9.16 6.816 19.396 6.816 30.2v32.89c0 3.349 2.715 6.064 6.064 6.064s6.064-2.715 6.064-6.064v-32.89c0-10.267-1.899-20.093-5.34-29.169 7.726-.433 15.093-2.567 21.767-6.154 3.592 10.555 5.552 21.858 5.552 33.613v31.022c0 5.582 4.526 10.107 10.107 10.107 5.582 0 10.107-4.526 10.107-10.107v-31.022c0-16.664-3.298-32.57-9.252-47.117 3.466-4.112 6.469-8.781 8.9-13.927 28.062-.901 50.641-26.733 50.641-58.357 0-1.294-.039-2.593-.116-3.892 12.638-8.824 20.483-24.307 20.483-41.353 0-12.58-4.225-24.331-11.661-33.228 4.691-5.614 8.095-12.367 9.974-19.744 1.169-.482 2.332-.995 3.483-1.561 34.432-16.926 48.674-58.706 31.75-93.136zm-442.389 46.62c-4.254-12.48-3.394-25.869 2.423-37.703 11.161-22.705 34.029-35.899 57.751-35.899 9.486 0 19.109 2.109 28.172 6.565 3.102 1.567 12.014 7.498 12.274 13.97.21 5.26-5.373 12.057-15.498 19.028-3.857-4.114-8.505-7.613-13.858-10.245-20.877-10.259-45.686-2.679-55.31 16.898-6.733 13.699-4.642 29.587 4.972 37.777 5.929 5.052 14.306 7.597 21.867 6.642 7.024-.886 12.972-4.527 17.201-10.527 3.217-4.562 2.125-10.868-2.437-14.084-4.562-3.219-10.868-2.125-14.084 2.437-1.169 1.657-2.279 2.001-3.212 2.118-2.209.275-4.858-.808-6.225-1.974-2.187-1.863-2.701-7.855.06-13.472 5.105-10.386 18.728-12.353 28.251-7.673 6.701 3.294 11.718 9 14.127 16.067s1.922 14.65-1.372 21.351c-4.415 8.981-12.063 15.706-21.536 18.936-9.474 3.23-19.637 2.577-28.618-1.839-11.835-5.817-20.694-15.893-24.948-28.373zm373.344 127.807c-4.145 1.914-6.491 6.368-5.726 10.869.428 2.521.646 5.082.646 7.615 0 21.046-14.33 38.167-31.945 38.167-1.198 0-2.419-.09-3.732-.273-4.79-.676-9.399 2.154-10.966 6.738-5.649 16.515-18.954 27.187-33.898 27.187-5.06 0-9.975-1.225-14.61-3.642-4.195-2.188-9.344-1.173-12.396 2.443-9.669 11.454-22.51 17.762-36.155 17.762-10.493 0-20.591-3.757-29.2-10.864-3.779-3.12-9.258-3.079-12.991.103-8.852 7.544-19.307 11.532-30.235 11.532-22.667 0-43.03-17.868-49.517-43.452-1.143-4.507-5.199-7.623-9.792-7.623-.224 0-.449.007-.675.022-.686.046-1.275.068-1.801.068-17.615 0-31.946-17.121-31.946-38.167 0-2.534.217-5.094.646-7.612.766-4.501-1.58-8.957-5.726-10.872-9.143-4.224-15.286-14.977-15.286-26.761 0-10.25 4.608-19.793 12.027-24.905 2.738-1.886 4.373-4.998 4.373-8.323 0-3.324-1.635-6.436-4.372-8.323-2.681-1.848-4.993-4.274-6.853-7.103 20.649-.658 40.296-12.402 50.029-32.2 5.875-11.951 6.325-25.182 2.309-36.88 17.358-11.689 25.852-24.23 25.26-37.328-.307-6.811-3.001-12.527-6.467-17.133 6.588-7.149 15.27-11.326 24.602-11.326 5.058 0 9.973 1.226 14.609 3.642 4.194 2.189 9.344 1.172 12.395-2.442 9.67-11.454 22.512-17.762 36.157-17.762 10.493 0 20.591 3.757 29.2 10.864 3.78 3.121 9.259 3.08 12.991-.103 8.852-7.544 19.307-11.532 30.235-11.532 16.504 0 31.775 9.482 41.367 24.509-5.039 5.141-9.637 12.251-10.044 21.282-.591 13.098 7.903 25.639 25.26 37.328-4.015 11.699-3.565 24.929 2.31 36.88 9.73 19.796 29.37 31.54 50.018 32.2-1.859 2.827-4.163 5.256-6.842 7.103-2.738 1.886-4.373 4.998-4.373 8.323s1.635 6.437 4.373 8.323c7.42 5.112 12.028 14.655 12.028 24.905 0 11.784-6.144 22.538-15.287 26.761zm28.38-99.435c-8.981 4.415-19.146 5.068-28.618 1.839-9.474-3.23-17.121-9.954-21.536-18.936-3.294-6.701-3.781-14.283-1.372-21.351 2.408-7.067 7.427-12.773 14.127-16.067 3.208-1.577 6.882-2.4 10.538-2.4 7.198 0 14.328 3.185 17.714 10.073 2.761 5.617 2.247 11.609.06 13.472-1.367 1.166-4.014 2.249-6.225 1.974-.933-.118-2.043-.461-3.212-2.118-3.215-4.561-9.521-5.653-14.084-2.437-4.562 3.216-5.654 9.522-2.437 14.084 4.229 6 10.177 9.641 17.201 10.527 7.56.953 15.938-1.591 21.867-6.642 9.614-8.19 11.704-24.078 4.972-37.777-9.624-19.578-34.436-27.158-55.31-16.898-5.353 2.632-10.002 6.132-13.858 10.246-10.127-6.973-15.71-13.769-15.5-19.029.26-6.472 9.172-12.402 12.221-13.943 31.785-15.622 70.355-2.477 85.978 29.307 12.005 24.428 1.9 54.069-22.526 66.076z"/><path d="m314.034 224.416h-117.658c-42.811 0-77.641 34.83-77.641 77.641 0 42.812 34.83 77.642 77.641 77.642h117.659c42.811 0 77.641-34.83 77.641-77.642-.001-42.811-34.83-77.641-77.642-77.641zm0 143.155h-117.658c-36.124 0-65.512-29.389-65.512-65.513s29.388-65.512 65.512-65.512h117.659c36.124 0 65.512 29.388 65.512 65.512s-29.389 65.513-65.513 65.513z"/><path d="m168.271 302.56c-8.984 0-16.267 7.282-16.267 16.266s7.283 16.268 16.267 16.268 16.267-7.283 16.267-16.268-7.283-16.266-16.267-16.266z"/><path d="m342.139 302.56c-8.984 0-16.267 7.282-16.267 16.266s7.283 16.268 16.267 16.268 16.267-7.283 16.267-16.268-7.283-16.266-16.267-16.266z"/><path d="m184.207 265.279c-.737-.376-7.445-3.676-15.937-3.676-8.491 0-15.199 3.3-15.936 3.676-2.983 1.523-4.166 5.176-2.643 8.159s5.176 4.167 8.159 2.643c.045-.024 4.76-2.349 10.42-2.349 5.634 0 10.402 2.339 10.421 2.349.883.451 1.825.664 2.753.664 2.206 0 4.334-1.208 5.406-3.308 1.524-2.982.34-6.635-2.643-8.158z"/><path d="m358.074 265.279c-.736-.376-7.444-3.676-15.936-3.676-8.491 0-15.199 3.3-15.936 3.676-2.972 1.518-4.146 5.143-2.643 8.123 1.502 2.981 5.145 4.177 8.132 2.693.047-.024 4.813-2.363 10.447-2.363s10.4 2.339 10.42 2.349c.883.451 1.825.664 2.753.664 2.206 0 4.334-1.208 5.406-3.308 1.524-2.982.34-6.635-2.643-8.158z"/><path d="m271.472 312.762c-3.349 0-6.064 2.715-6.064 6.064 0 5.626-4.577 10.203-10.203 10.203-5.625 0-10.202-4.577-10.202-10.203 0-3.349-2.715-6.064-6.064-6.064s-6.064 2.715-6.064 6.064c0 12.313 10.018 22.332 22.331 22.332s22.332-10.018 22.332-22.332c-.002-3.349-2.717-6.064-6.066-6.064z"/><path d="m326.925 203.77c3.349 0 6.064-2.715 6.064-6.064v-10.787c0-3.349-2.715-6.064-6.064-6.064s-6.064 2.715-6.064 6.064v10.787c0 3.349 2.715 6.064 6.064 6.064z"/><path d="m299.27 168.182c3.349 0 6.064-2.715 6.064-6.064v-10.787c0-3.349-2.715-6.064-6.064-6.064s-6.064 2.715-6.064 6.064v10.787c0 3.349 2.715 6.064 6.064 6.064z"/><path d="m258.441 203.77c3.349 0 6.064-2.715 6.064-6.064v-10.787c0-3.349-2.715-6.064-6.064-6.064s-6.064 2.715-6.064 6.064v10.787c0 3.349 2.715 6.064 6.064 6.064z"/></g><g><path d="m465.154 9.753 8.585 24.14c.368 1.034 1.095 1.853 2.014 2.266l21.447 9.663c3.03 1.365 3.03 6.193 0 7.558l-21.447 9.663c-.918.414-1.646 1.233-2.014 2.266l-8.585 24.14c-1.213 3.41-5.502 3.41-6.715 0l-8.585-24.14c-.368-1.034-1.095-1.853-2.013-2.266l-21.447-9.663c-3.03-1.365-3.03-6.193 0-7.558l21.447-9.663c.918-.414 1.646-1.233 2.013-2.266l8.585-24.14c1.213-3.41 5.502-3.41 6.715 0z" fill="#fbf2a8"/><path d="m50.02 68.347c0 10.353-8.393 18.746-18.746 18.746s-18.746-8.393-18.746-18.746 8.393-18.746 18.746-18.746 18.746 8.393 18.746 18.746z" fill="#f7e266"/><ellipse cx="355.317" cy="20.156" fill="#f7e266" rx="7.939" ry="7.939" transform="matrix(.122 -.993 .993 .122 291.898 370.348)"/><path d="m139.507 1.897 6.368 17.907c.273.767.812 1.374 1.493 1.681l15.909 7.168c2.247 1.013 2.247 4.594 0 5.606l-15.909 7.168c-.681.307-1.221.914-1.493 1.681l-6.368 17.907c-.9 2.53-4.081 2.53-4.981 0l-6.368-17.907c-.273-.767-.812-1.374-1.494-1.681l-15.909-7.168c-2.248-1.013-2.248-4.594 0-5.606l15.909-7.168c.681-.307 1.221-.915 1.494-1.681l6.368-17.907c.9-2.529 4.082-2.529 4.981 0z" fill="#fbf2a8"/></g></g></svg>