<svg id="Capa_1" enable-background="new 0 0 512 512" height="512" viewBox="0 0 512 512" width="512" xmlns="http://www.w3.org/2000/svg"><g><g><path d="m383.723 501.877v-32.761c0-66.926-54.254-121.181-121.181-121.181-66.926 0-121.181 54.255-121.181 121.181v32.761z" fill="#b07676"/><path d="m343.433 501.877v-30.954c0-44.675-36.216-80.891-80.89-80.891-44.674 0-80.89 36.216-80.89 80.891v30.954z" fill="#e58bbd"/><path d="m271.03 390.478c23.397 10.523 39.855 35.499 39.855 64.645v7.013c0 10.916-8.849 19.766-19.766 19.766h-109.467v19.976h161.781v-30.954c0-41.809-31.718-76.203-72.403-80.446z" fill="#e068bd"/><g fill="#b07676"><ellipse cx="438.6" cy="299.716" rx="40.131" ry="40.131" transform="matrix(.506 -.863 .863 .506 -41.851 526.359)"/><ellipse cx="86.485" cy="299.716" rx="40.131" ry="40.131" transform="matrix(.974 -.226 .226 .974 -65.461 27.279)"/><path d="m296.739 398.892h-68.394c-84.989 0-153.885-68.897-153.885-153.885 0-84.989 68.897-153.885 153.885-153.885h68.394c84.989 0 153.885 68.897 153.885 153.885 0 84.988-68.896 153.885-153.885 153.885z"/></g><path d="m296.739 91.029h-19.733c68.901 0 124.757 55.855 124.757 124.756v10.595c0 68.901-55.855 124.757-124.757 124.757h-77.789c-65.936 0-119.918-51.154-124.443-115.94-.2 3.214-.314 6.452-.314 9.717v.001c0 84.988 68.897 153.885 153.885 153.885h68.394c84.989 0 153.885-68.897 153.885-153.885v-.001c0-84.988-68.896-153.885-153.885-153.885z" fill="#a45775"/><path d="m176.245 177.939s109.76 40.094 141.719 35.335c48.197-7.176 48.226-36.441 63.903-36.441 19.016 0 37.419 77.844 36.464 102.252s22.137 14.591 29.098 0c6.962-14.591 19.925-55.816 13.078-85.886s7.321-41.511 3.657-60.32c-3.511-18.023-35.672-28.677-43.924-38.226s-10.845-38.766-45.991-46.757c-10.562-2.402-61.435 18.132-105.063 9.977-55.463-10.366-115.381 4.724-145.643 24.727-22.215 14.684-24.615 29.794-29.125 47.15-2.449 9.424-23.622-1.271-32.243 30.1-7.801 28.387 11.294 33.099 11.501 39.902 1.662 54.427 1.232 101.741 16.899 104.246s18.381-88.351 39.328-104.584c27.166-21.052 46.342-21.475 46.342-21.475z" fill="#a183e2"/><path d="m301.711 311.714c-26.555-29.613-53.134-29.625-79.735 0v-35.359c26.578-20.691 53.156-20.191 79.735 0z" fill="#fbf2a8"/><path d="m110.239 304.049h-15.71c-9.764 0-17.679-7.915-17.679-17.679 0-9.764 7.915-17.679 17.679-17.679h15.71c9.764 0 17.679 7.915 17.679 17.679 0 9.763-7.915 17.679-17.679 17.679z" fill="#fbf2a8"/><circle cx="169.723" cy="304.049" fill="#fbf2a8" r="64.679"/><circle cx="169.723" cy="304.049" fill="#8bb6ef" r="39.395"/><path d="m414.846 304.049h15.71c9.764 0 17.679-7.915 17.679-17.679 0-9.764-7.915-17.679-17.679-17.679h-15.71c-9.764 0-17.68 7.915-17.68 17.679 0 9.763 7.915 17.679 17.68 17.679z" fill="#fbf2a8"/><circle cx="355.361" cy="304.049" fill="#fbf2a8" r="64.679"/><circle cx="355.361" cy="304.049" fill="#8bb6ef" r="39.395"/><path d="m273.443 387.307c-5.703-4.392-15.323-4.421-21.004 0-13.833 10.763-43.757 13.443-59.836 12.996-15.721-.437-3.126-6.253-.447-28.585.588-4.897.295-9.664.889-14.985 1.817-16.29 15.004-29.342 31.31-31.012 19.321-1.978 35.878 11.661 38.587 29.823 2.665-17.872 18.739-31.364 37.661-29.906.307.024.128.083.128.083 16.306 1.67 29.493 14.722 31.31 31.012.594 5.322.301 10.088.889 14.985 2.68 22.332 15.275 28.148-.447 28.585-15.811.439-44.669-2.476-58.791-12.796z" fill="#a183e2"/><path d="m445.546 145.915c-8.248 12.244-24.86 15.483-37.103 7.235-12.244-8.248-15.483-24.86-7.235-37.104s24.859-15.483 37.103-7.235c12.243 8.249 15.482 24.86 7.235 37.104z" fill="#fff"/><path d="m416.87 209.194c-9.019 13.389-27.185 16.931-40.574 7.912s-16.931-27.185-7.912-40.574 27.185-16.931 40.574-7.912 16.931 27.185 7.912 40.574z" fill="#fff"/><ellipse cx="387.005" cy="154.884" fill="#b2e7f1" rx="29.23" ry="29.23" transform="matrix(.906 -.423 .423 .906 -29.191 178.189)"/><ellipse cx="449.309" cy="159.175" fill="#fff" rx="26.112" ry="26.616" transform="matrix(.559 -.829 .829 .559 66.266 442.888)"/><path d="m457.745 206.494c-9.019 13.389-27.185 16.931-40.574 7.912s-16.932-27.185-7.912-40.574c9.019-13.389 27.185-16.931 40.574-7.912 13.39 9.02 16.932 27.185 7.912 40.574z" fill="#fff"/><path d="m405.491 182.864c-8.602-5.795-10.878-17.466-5.083-26.068 5.794-8.602 17.465-10.878 26.068-5.083 8.602 5.795 10.878 17.465 5.083 26.067l-.001.001c-5.794 8.602-17.465 10.878-26.067 5.083z" fill="#f7e266"/><path d="m393.714 128.193c.73-1.3 1.363-2.675 1.874-4.131 4.744-13.516-2.367-28.317-15.882-33.062-7.401-2.597-15.184-1.634-21.493 1.982-2.818-3.145-6.444-5.645-10.71-7.143-13.516-4.744-28.318 2.367-33.061 15.882-1.532 4.365-1.821 8.861-1.064 13.113-7.264 2.483-13.36 8.145-16.1 15.951-4.744 13.516 2.367 28.318 15.882 33.062 3.754 1.318 7.607 1.718 11.317 1.323.314 10.41 6.919 20.04 17.334 23.696 12.512 4.392 26.121-1.381 31.837-12.985 13.461 4.604 28.14-2.498 32.861-15.947 4.367-12.443-1.319-25.97-12.795-31.741zm-46.041 10.407c-.038-1.264-.169-2.516-.388-3.748 1.573-.538 3.091-1.225 4.532-2.051 2.11 2.354 4.676 4.342 7.622 5.823-.227.403-.443.814-.65 1.233-3.691-1.262-7.472-1.645-11.116-1.257z" fill="#84eac4"/><path d="m370.39 142.156c-3.048 8.683-12.558 13.252-21.241 10.204-8.683-3.048-13.252-12.558-10.204-21.241v-.001c3.048-8.683 12.557-13.251 21.24-10.204h.001c8.684 3.048 13.253 12.559 10.204 21.242z" fill="#f7e266"/><path d="m79.597 145.927c8.235 12.225 24.821 15.459 37.045 7.224 12.225-8.235 15.459-24.821 7.224-37.046s-24.82-15.459-37.045-7.224-15.459 24.821-7.224 37.046z" fill="#eaa585"/><path d="m108.215 209.194c9.019 13.389 27.185 16.931 40.574 7.912s16.931-27.185 7.912-40.574-27.185-16.931-40.574-7.912-16.932 27.185-7.912 40.574z" fill="#eaa585"/><path d="m113.836 171.215c9.019 13.389 27.185 16.931 40.574 7.912s16.931-27.185 7.912-40.574-27.185-16.931-40.574-7.912c-13.389 9.02-16.931 27.185-7.912 40.574z" fill="#b2e7f1"/><ellipse cx="75.469" cy="158.882" fill="#eaa585" rx="26.525" ry="26.525" transform="matrix(.306 -.952 .952 .306 -98.881 182.149)"/><path d="m67.339 206.494c9.019 13.389 27.185 16.931 40.574 7.912s16.932-27.185 7.912-40.574c-9.019-13.389-27.185-16.931-40.574-7.912-13.39 9.02-16.932 27.185-7.912 40.574z" fill="#eaa585"/><path d="m119.594 182.864c8.602-5.795 10.878-17.466 5.083-26.068-5.794-8.602-17.465-10.878-26.068-5.083h-.001c-8.602 5.795-10.878 17.465-5.083 26.067l.001.001c5.794 8.602 17.465 10.878 26.068 5.083z" fill="#f7e266"/><path d="m227.807 130.785c-2.74-7.805-8.837-13.467-16.1-15.951.757-4.251.468-8.748-1.064-13.113-4.744-13.515-19.546-20.626-33.061-15.882-4.266 1.498-7.891 3.998-10.71 7.143-6.31-3.616-14.093-4.579-21.493-1.982-13.516 4.744-20.626 19.546-15.882 33.062.511 1.455 1.144 2.831 1.874 4.131-11.476 5.771-17.161 19.298-12.794 31.741 4.721 13.449 19.399 20.551 32.861 15.947 5.717 11.604 19.325 17.377 31.837 12.985 10.415-3.656 17.02-13.286 17.334-23.696 3.71.395 7.563-.005 11.317-1.323 13.514-4.744 20.625-19.546 15.881-33.062zm-61.512 9.073c-.206-.419-.423-.83-.65-1.233 2.945-1.481 5.512-3.469 7.622-5.823 1.441.826 2.959 1.513 4.532 2.051-.219 1.232-.35 2.484-.388 3.748-3.643-.389-7.425-.006-11.116 1.257z" fill="#8bb6ef"/><path d="m154.694 142.156c3.048 8.683 12.558 13.252 21.241 10.204 8.683-3.048 13.252-12.558 10.204-21.241v-.001c-3.048-8.683-12.557-13.251-21.24-10.204h-.001c-8.684 3.048-13.252 12.559-10.204 21.242z" fill="#f7e266"/><path d="m321.472 119.631c6.437-15.54-.943-33.355-16.483-39.792-4.905-2.032-10.036-2.683-14.965-2.14-2.687-8.107-8.741-15.046-17.251-18.571-15.54-6.437-33.355.943-39.792 16.483-.693 1.673-1.216 3.373-1.596 5.082-14.56-3.941-30.13 3.44-36.056 17.747-6.405 15.463.873 33.175 16.256 39.692-4.089 14.63 3.294 30.34 17.681 36.299 11.976 4.961 25.297 1.71 33.727-7.152 2.936 3.251 6.62 5.92 10.937 7.707 15.54 6.437 33.355-.943 39.792-16.482 3.717-8.975 2.819-18.704-1.59-26.566 3.991-3.128 7.261-7.289 9.34-12.307zm-57.043-2.087c.614 1.852 1.403 3.641 2.358 5.344-1.157.906-2.251 1.899-3.275 2.975-2.884-3.194-6.493-5.82-10.71-7.607.148-.528.28-1.057.398-1.588 3.737 1.011 7.539 1.282 11.229.876z" fill="#e58bbd"/><path d="m240.853 111.179c-4.135 9.984.606 21.43 10.589 25.566 9.984 4.136 21.43-.605 25.566-10.589v-.001c4.135-9.984-.605-21.429-10.589-25.565l-.001-.001c-9.984-4.136-21.43.606-25.565 10.59z" fill="#f7e266"/></g><path d="m465.817 257.497c5.348-19.235 9.533-44.708 4.562-66.544-.782-3.435-1.244-6.55-1.474-9.44 2.354-1.911 4.471-4.192 6.252-6.834 7.462-11.077 6.928-25.225-.25-35.599-.012-2.584-.25-5.283-.805-8.134-3.146-16.151-19.96-26.203-33.47-34.28-5.113-3.057-10.908-6.521-12.73-8.629-1.207-1.396-2.831-4.898-4.402-8.284-6.02-12.978-16.097-34.699-47.004-41.725-5.568-1.267-12.806.234-27.353 3.471-20.447 4.55-51.345 11.429-78.094 6.427-58.036-10.845-120.942 4.984-153.086 26.232-12.075 7.982-19.141 16.296-23.729 24.701-3.614.869-7.083 2.38-10.259 4.519-7.981 5.377-12.701 13.794-13.693 22.682-4.11.764-8.133 2.356-11.815 4.836-14.425 9.719-18.255 29.359-8.537 43.785.102.152.216.291.321.441.698 11.487 5.881 18.554 10.05 23.203.682 3.055 1.83 6.048 3.467 8.875.083 2.935.163 5.852.241 8.728.185 6.811.367 13.505.587 19.988-.165 3.012-.257 6.042-.257 9.094 0 3.187.101 6.35.282 9.492-16.783 8.145-28.388 25.343-28.388 45.217 0 27.711 22.544 50.254 50.254 50.254 4.948 0 9.726-.73 14.245-2.071 14.965 18.525 33.87 33.737 55.434 44.351-15.671 21.622-24.926 48.181-24.926 76.866v32.761c0 5.59 4.532 10.123 10.123 10.123s10.123-4.533 10.123-10.123v-32.761c0-25.987 8.982-49.908 23.993-68.846 1.552.53 3.115 1.035 4.687 1.519 2.646 3.985 7.717 4.459 12.27 4.586 1.154.032 2.385.049 3.684.049.947 0 1.934-.011 2.946-.03 1.479.267 2.964.517 4.456.744-17.169 15.894-27.942 38.599-27.942 63.785v34.734c0 3.354 2.719 6.074 6.074 6.074 3.354 0 6.074-2.72 6.074-6.074v-34.734c0-25.842 13.183-48.643 33.165-62.085 2.472.111 4.956.177 7.455.177h68.394c2.5 0 4.984-.066 7.457-.177 19.982 13.441 33.162 36.244 33.162 62.085v34.734c0 3.354 2.719 6.074 6.074 6.074s6.074-2.72 6.074-6.074v-34.734c0-25.186-10.774-47.891-27.942-63.785 1.53-.233 3.051-.49 4.566-.766 2.419.059 4.621.055 6.52.002 4.553-.127 9.624-.6 12.27-4.586 1.576-.485 3.142-.991 4.697-1.523 15.008 18.939 23.983 42.864 23.983 68.85v32.761c0 5.59 4.532 10.123 10.123 10.123s10.123-4.533 10.123-10.123v-32.761c0-28.685-9.258-55.243-24.927-76.865 21.564-10.614 40.469-25.826 55.435-44.351 4.518 1.341 9.297 2.07 14.246 2.07 27.71 0 50.254-22.543 50.254-50.254-.003-17.689-9.191-33.263-23.04-42.221zm-124.504 124.189c-.815-2.532-1.557-5.435-2.073-8.755 5.181 1.215 10.574 1.87 16.12 1.87 1.107 0 2.207-.033 3.302-.084-5.594 2.683-11.384 5.019-17.349 6.969zm-174.9-6.968c1.098.051 2.2.084 3.31.084 5.549 0 10.941-.665 16.122-1.884-.516 3.327-1.258 6.236-2.075 8.771-5.967-1.952-11.76-4.288-17.357-6.971zm-82.702-201.248c.723 2.964 1.97 5.808 3.725 8.414 5.039 7.48 13.3 11.52 21.705 11.52.396 0 .793-.025 1.19-.043-.557 5.538-3.459 10.797-8.426 14.142-8.871 5.976-20.948 3.62-26.923-5.25-5.975-8.869-3.62-20.947 5.25-26.922 1.107-.746 2.273-1.364 3.479-1.861zm144.564-82.621c.334 3.043 1.097 6.057 2.301 8.963 1.071 2.585 2.455 4.979 4.095 7.157-.22.458-.456.906-.652 1.38-.857 2.069-1.446 4.202-1.77 6.36-7.665 2.004-14.526 6.757-19.036 13.627-8.625-5.099-12.439-15.905-8.497-25.422 2.092-5.05 6.025-8.983 11.076-11.075 2.525-1.046 5.178-1.569 7.83-1.569 1.561.001 3.119.211 4.653.579zm65.245-2.759c2.604 0 5.252.5 7.804 1.557 5.049 2.092 8.983 6.025 11.074 11.075s2.092 10.612 0 15.662c-4.318 10.424-16.31 15.392-26.736 11.075-.37-.153-.719-.339-1.076-.511 1.826-5.625 1.757-11.62-.216-17.215 2.673-2.807 4.893-6.13 6.463-9.921 1.587-3.831 2.378-7.794 2.466-11.71.073-.001.146-.012.221-.012zm61.841 274.564c-5.896 0-11.588-.884-16.959-2.512-.07-1.316-.168-2.67-.326-4.083-.442-3.966-1.463-7.765-2.965-11.317 6.103 3.05 12.977 4.776 20.251 4.776 25.072 0 45.469-20.397 45.469-45.469 0-25.071-20.397-45.468-45.469-45.468s-45.469 20.397-45.469 45.468c0 6.822 1.52 13.292 4.223 19.105-3.695-1.688-7.674-2.846-11.84-3.369-.387-.103-.791-.172-1.206-.203-.744-.057-1.482-.075-2.22-.092-1.351-4.923-2.093-10.095-2.093-15.441 0-32.315 26.29-58.605 58.605-58.605s58.605 26.29 58.605 58.605-26.291 58.605-58.606 58.605zm-77.978 20.027-.132-.106c-.034-.028-.068-.054-.102-.081-7.874-6.064-20.631-6.056-28.439.019-12.084 9.402-40.081 12.155-55.938 11.717-.274-.007-.531-.017-.769-.027.124-.304.249-.606.368-.895 1.86-4.507 4.671-11.318 5.817-20.868.328-2.727.407-5.359.484-7.904.073-2.431.142-4.726.411-7.133 1.503-13.476 12.392-24.26 25.892-25.642 15.614-1.604 29.659 9.238 31.96 24.676.444 2.976 2.999 5.178 6.007 5.178 3.009 0 5.564-2.203 6.008-5.178 2.207-14.801 15.478-25.559 30.446-24.792.234.052.473.092.716.117 13.5 1.382 24.389 12.166 25.892 25.642.268 2.406.338 4.702.411 7.133.077 2.545.156 5.176.484 7.904 1.146 9.55 3.957 16.361 5.817 20.868.119.289.244.59.368.895-.239.01-.495.02-.769.027-14.538.404-42.246-2.379-54.932-11.55zm-166.265-78.632c0-32.315 26.29-58.605 58.605-58.605s58.605 26.29 58.605 58.605c0 5.355-.744 10.535-2.1 15.465-.828.036-1.658.08-2.493.165-4.505.461-8.8 1.669-12.77 3.483 2.706-5.815 4.227-12.288 4.227-19.113 0-25.071-20.397-45.468-45.469-45.468s-45.469 20.397-45.469 45.468c0 25.072 20.398 45.469 45.469 45.469 7.274 0 14.15-1.727 20.253-4.777-1.503 3.553-2.526 7.352-2.968 11.318-.157 1.409-.256 2.759-.325 4.071-5.371 1.633-11.061 2.524-16.96 2.524-32.315 0-58.605-26.29-58.605-58.605zm36.525-160.303c.083.265.164.53.256.794l.001.001c.587 1.672 1.361 3.239 2.272 4.709-3.478 5.486-5.087 12.102-4.29 18.767-7.659 1.109-15.302-3.305-17.959-10.875-2.647-7.54.521-15.734 7.139-19.672 3.613 3.096 7.941 5.257 12.581 6.276zm27.847-17.669c2.82 1.355 4.945 3.728 5.981 6.681 1.037 2.952.861 6.132-.494 8.952-1.355 2.821-3.727 4.945-6.68 5.982-6.098 2.139-12.794-1.079-14.935-7.173-2.139-6.096 1.079-12.796 7.174-14.936 2.955-1.036 6.134-.86 8.954.494zm18.745 12.145c.622-.172 1.242-.364 1.859-.581 2.004-.703 3.893-1.619 5.655-2.713 2.012 1.823 4.28 3.413 6.775 4.715-1.039 5.029-.847 10.124.422 14.908-2.52.707-5.125.802-7.648.297-1.654-4.565-4.388-8.533-7.934-11.667.467-1.626.759-3.286.871-4.959zm39.083-11.149c.212.642.44 1.281.702 1.912 2.756 6.654 7.939 11.836 14.593 14.592 3.327 1.378 6.822 2.067 10.318 2.067.649 0 1.297-.032 1.945-.079.103 2.826-.36 5.714-1.512 8.495-2.092 5.05-6.025 8.983-11.074 11.075-5.05 2.093-10.611 2.092-15.662 0-5.049-2.092-8.983-6.024-11.074-11.075-2.092-5.05-2.092-10.612 0-15.662 2.259-5.456 6.624-9.407 11.764-11.325zm8.481-31.91c-2.091-5.05-2.091-10.611.001-15.662 3.261-7.872 10.898-12.632 18.932-12.632 2.605 0 5.252.5 7.804 1.557h-.001c10.425 4.319 15.393 16.312 11.074 26.737-.58 1.401-1.31 2.71-2.16 3.922-2.359-2.23-5.113-4.051-8.201-5.33-6.655-2.757-13.984-2.755-20.637 0-2.123.879-4.075 2.03-5.867 3.372-.345-.634-.665-1.286-.945-1.964zm80.373 72.109c.313 3.344 1.216 6.642 2.713 9.76 3.316 6.903 9.123 12.102 16.348 14.638 1.52.534 3.065.932 4.62 1.204-6.649 4.471-15.73 8.355-29.381 10.388-18.352 2.72-73.194-12.982-115.731-27.434 1.173-2.753 1.895-5.628 2.169-8.54.525.03 1.05.051 1.576.051 3.199-.001 6.41-.543 9.518-1.634.081-.029.16-.063.241-.092 3.402 4.617 8.059 8.395 13.733 10.745 4.024 1.668 8.251 2.5 12.48 2.5 4.227 0 8.456-.833 12.479-2.5 3.965-1.642 7.496-4 10.459-6.929 3.129 3.344 6.944 6.029 11.302 7.834 4.025 1.668 8.252 2.501 12.481 2.501 4.228 0 8.455-.833 12.479-2.5 5.599-2.319 10.333-6.061 13.82-10.832 2.348.605 4.737.908 7.12.908.525-.001 1.049-.038 1.574-.068zm21.442-34.514c1.036-2.953 3.16-5.326 5.981-6.681 1.607-.772 3.331-1.162 5.064-1.162 1.307 0 2.619.221 3.889.667 6.095 2.14 9.314 8.84 7.174 14.935-1.037 2.953-3.161 5.325-5.982 6.68-2.82 1.355-6 1.531-8.954.494-2.952-1.037-5.325-3.16-6.68-5.982-1.353-2.819-1.529-5.999-.492-8.951zm46.407 4.713c6.619 3.938 9.786 12.131 7.14 19.672-2.658 7.571-10.302 11.987-17.962 10.875.796-6.665-.806-13.284-4.286-18.769.911-1.469 1.684-3.036 2.271-4.707.093-.265.174-.53.257-.796 4.639-1.019 8.968-3.18 12.58-6.275zm59.005.194c3.726 0 7.491 1.07 10.806 3.304 4.297 2.895 7.209 7.289 8.201 12.374.992 5.084-.056 10.251-2.951 14.548-1.459 2.165-3.289 3.924-5.342 5.28-2.141-3.027-4.849-5.725-8.101-7.916-3.209-2.162-6.72-3.674-10.377-4.537-1.406-5.441-4.481-10.21-8.84-13.728.157-.259.316-.517.487-.771 3.742-5.554 9.876-8.554 16.117-8.554zm-6.988 127.919c-3.405-1.889-7.319-2.968-11.481-2.968h-3.133c-1.58-12.812-4.858-28.819-9.333-43.986 4.964 2.909 10.442 4.32 15.877 4.32 6.476 0 12.877-1.995 18.246-5.78-.816 17.673-5.738 36.183-10.176 48.414zm-156.106 24.871c-7.95-4.671-15.992-7.026-24.063-7.029h-.013c-7.652 0-15.281 2.124-22.834 6.325-1.042-5.058-2.642-9.911-4.704-14.514 18.608-11.045 37.097-10.784 56.101.761-1.989 4.589-3.504 9.428-4.487 14.457zm-45.479 12.707c7.259-5.036 14.418-7.588 21.403-7.588h.009c7.418.003 15.029 2.877 22.744 8.556.007 5.823.733 11.479 2.074 16.895-9.786 2.77-18.258 9.066-23.716 17.565-5.588-8.781-14.361-15.175-24.519-17.804 1.314-5.368 2.026-10.969 2.026-16.737.002-.298-.017-.591-.021-.887zm55.755-37.865c-22.726-13.649-45.444-13.872-67.772-.685-12.719-18.876-34.29-31.316-58.713-31.316-19.56 0-37.29 7.981-50.11 20.855 2.243-10.187 4.948-21.613 8.036-30.752 1.856.33 3.716.501 5.564.501 6.214 0 12.289-1.843 17.557-5.392 9.24-6.224 14.123-16.52 13.893-26.91 3.13 1.131 6.391 1.706 9.668 1.706 3.199-.001 6.41-.543 9.517-1.634.125-.044.247-.095.371-.14 27.97 9.784 95.656 32.226 128.052 32.223 2.64 0 5.05-.149 7.181-.467 21.591-3.215 34.736-10.568 43.688-18.049 2.379 5.339 6.201 9.923 11.169 13.271 5.269 3.549 11.343 5.392 17.557 5.392 2.027 0 4.069-.196 6.102-.592.125-.024.247-.056.372-.082.236.792.473 1.59.71 2.416 2.9 10.095 5.12 20.045 6.651 28.755-12.838-13.016-30.662-21.101-50.344-21.101-24.71 0-46.492 12.747-59.149 32.001zm-136.125-107.149c3.275 1.573 6.786 2.365 10.315 2.365 2.663 0 5.335-.451 7.921-1.359 3.262-1.145 6.158-2.959 8.582-5.28 1.316 1.533 2.355 3.307 3.045 5.271 1.462 4.165 1.214 8.65-.697 12.628s-5.258 6.974-9.423 8.436c-4.164 1.462-8.649 1.215-12.628-.697-3.978-1.911-6.975-5.257-8.436-9.422-1.473-4.195-1.135-8.587.587-12.339.248.129.482.275.734.397zm175.055.996c.689-1.964 1.73-3.738 3.045-5.271 2.424 2.321 5.32 4.135 8.582 5.28 2.587.908 5.259 1.359 7.922 1.359 3.528 0 7.04-.792 10.315-2.365.251-.121.484-.267.729-.395 1.724 3.752 2.064 8.141.592 12.337-1.462 4.165-4.458 7.511-8.437 9.422-3.979 1.912-8.463 2.159-12.628.697-4.164-1.462-7.511-4.458-9.422-8.436-1.912-3.978-2.16-8.463-.698-12.628zm70.795 46.609c-2.748 2.881-6.298 4.853-10.285 5.631-5.088.989-10.252-.057-14.549-2.952-4.297-2.894-7.209-7.288-8.201-12.373-.8-4.101-.251-8.247 1.501-11.955 3.915 1.643 8.04 2.461 12.144 2.461 3.458 0 6.89-.582 10.16-1.688 1.373 1.506 2.922 2.889 4.685 4.077.383.258.776.489 1.168.724-.298 5.552.855 11.112 3.377 16.075zm19.902 92.222c-.702-8.216-2.814-16.032-6.093-23.211h10.814c6.399 0 11.605 5.207 11.605 11.606s-5.206 11.606-11.605 11.606h-4.721zm24.267-95.723c-5.976 8.868-18.054 11.226-26.922 5.25-4.967-3.346-7.885-8.604-8.446-14.143.403.019.807.044 1.21.044 8.405 0 16.666-4.04 21.705-11.52 1.754-2.603 3-5.446 3.724-8.407 1.206.495 2.374 1.108 3.48 1.854 8.869 5.975 11.224 18.053 5.249 26.922zm-26.311-46.555c3.096 2.085 5.195 5.252 5.909 8.916.715 3.664-.04 7.387-2.126 10.483-4.306 6.393-13.008 8.089-19.4 3.783-2.826-1.904-4.729-4.667-5.607-7.709 2.611-2.803 4.707-6.165 6.055-10.004.756-2.154 1.231-4.339 1.458-6.517 1.858-.864 3.879-1.333 5.924-1.333 2.685.001 5.398.772 7.787 2.381zm-178.549-42.7c1.514-3.657 4.362-6.505 8.018-8.019 1.828-.757 3.749-1.136 5.67-1.136 1.92 0 3.842.379 5.67 1.136 3.656 1.515 6.504 4.363 8.018 8.019s1.514 7.683 0 11.34c-3.126 7.548-11.809 11.145-19.359 8.018-3.656-1.514-6.503-4.362-8.018-8.018-1.513-3.657-1.513-7.683.001-11.34zm60.57 25.712c.09.199.188.392.272.595 2.092 5.05 2.092 10.612 0 15.662-2.091 5.05-6.024 8.983-11.074 11.074-5.05 2.092-10.611 2.092-15.662 0-3.625-1.502-6.659-3.964-8.865-7.095.034-.08.072-.156.105-.236 2.297-5.544 2.935-11.365 2.159-16.918 2.056-1.223 3.929-2.689 5.571-4.389.877.46 1.77.896 2.696 1.28 4.068 1.686 8.285 2.483 12.436 2.482 4.271-.001 8.466-.863 12.362-2.455zm-182.116 50.246c1.768-1.191 3.333-2.569 4.708-4.08 3.263 1.103 6.686 1.69 10.137 1.69 4.101 0 8.224-.825 12.135-2.471 4.011 8.509 1.346 18.926-6.69 24.339-4.297 2.895-9.464 3.94-14.549 2.952-3.993-.778-7.548-2.756-10.297-5.644 2.52-4.963 3.689-10.513 3.391-16.063.39-.235.783-.466 1.165-.723zm-25.625 69.01c-.318 1.477-.654 3.038-1.004 4.651h-2.539c-2.872 0-5.627.513-8.177 1.451-1.01-12.062-1.492-26.514-1.918-41.843 2.193.472 4.433.726 6.683.726 5.845 0 11.743-1.637 16.994-5.012-3.582 10.813-6.642 24.223-10.039 40.027zm1.178 40.01h-4.721c-6.399 0-11.605-5.207-11.605-11.606s5.206-11.606 11.605-11.606h10.814c-3.279 7.18-5.391 14.996-6.093 23.212zm70.475 39.395c-18.373 0-33.322-14.948-33.322-33.322s14.948-33.321 33.322-33.321 33.321 14.947 33.321 33.321-14.948 33.322-33.321 33.322zm152.316-33.321c0-18.374 14.948-33.321 33.321-33.321 18.374 0 33.321 14.947 33.321 33.321s-14.948 33.322-33.321 33.322c-18.374-.001-33.321-14.949-33.321-33.322zm97.736-193.55c1.251-.243 2.506-.364 3.752-.364 3.821 0 7.557 1.133 10.796 3.316 4.547 3.063 7.369 7.73 8.244 12.745-7.777 1.619-14.956 6.143-19.733 13.235-.511.759-.973 1.536-1.408 2.322-2.154-.456-4.341-.646-6.51-.554-2.344-4.827-5.94-9.121-10.702-12.329-.031-.021-.063-.039-.094-.06.128-3.581 1.231-7.066 3.283-10.111 2.893-4.296 7.287-7.208 12.372-8.2zm-32.842 10.724c-1.595 4.546-4.994 7.943-9.11 9.7-1.875-7.546-7.384-14.04-15.252-16.802-2.471-.868-4.99-1.297-7.475-1.339.151-.838.364-1.675.655-2.505 2.384-6.793 8.784-11.052 15.606-11.052 1.812 0 3.654.301 5.458.933 4.164 1.462 7.511 4.458 9.422 8.437 1.91 3.979 2.158 8.463.696 12.628zm-42.646-14.969c-1.134 3.231-1.645 6.529-1.609 9.769-4.009 2.328-7.361 5.822-9.484 10.211-.061-.021-.122-.033-.183-.054-3.668-1.288-6.699-3.768-8.676-7.059 2.047-5.949 2.329-12.261.837-18.309 3.114-4.235 8.092-6.749 13.327-6.749 1.812 0 3.654.301 5.458.933 1.879.66 3.556 1.634 5.008 2.834-1.973 2.459-3.575 5.283-4.678 8.424zm-26.57 24.099c3.088 3.255 6.917 5.76 11.273 7.288.617.217 1.237.396 1.858.567.11 1.668.4 3.323.864 4.945-3.551 3.137-6.278 7.125-7.934 11.696-1.635.326-3.304.402-4.964.22 1.71-6.758 1.209-13.858-1.508-20.415-.371-.895-.791-1.758-1.233-2.605.566-.543 1.114-1.109 1.644-1.696zm-123.327-5.202c-.74.396-1.512.745-2.319 1.029-.063.022-.127.035-.19.056-2.067-4.285-5.338-7.812-9.469-10.208.036-3.242-.482-6.542-1.616-9.774-1.102-3.14-2.704-5.964-4.677-8.423 1.451-1.2 3.127-2.176 5.006-2.836 1.805-.633 3.646-.933 5.458-.933 2.793 0 5.51.721 7.913 2.033-.356.71-.696 1.43-1.003 2.171-3.734 9.011-3.104 18.754.897 26.885zm-25.057-14.873c.29.826.505 1.659.658 2.494-2.516.047-5.035.491-7.479 1.349-7.868 2.762-13.378 9.257-15.252 16.803-4.116-1.756-7.514-5.154-9.11-9.701-1.462-4.165-1.214-8.649.697-12.628 1.911-3.978 5.258-6.974 9.422-8.437 1.805-.633 3.646-.933 5.458-.933 6.821 0 13.222 4.26 15.606 11.053zm-60.254 43.039c2.047 0 4.068.469 5.924 1.337.227 2.176.702 4.36 1.458 6.512 1.347 3.837 3.442 7.198 6.05 10-.875 3.044-2.776 5.809-5.603 7.713-6.393 4.307-15.095 2.607-19.4-3.783-2.086-3.096-2.841-6.819-2.126-10.483.714-3.664 2.813-6.831 5.909-8.916 2.391-1.61 5.103-2.38 7.788-2.38zm244.459-92.058c7.18-1.597 16.099-3.56 18.7-3.438 21.027 4.87 27.329 18.458 32.893 30.451 2.047 4.413 3.999 8.595 6.627 11.979-4.844 1.928-9.115 5.019-12.477 9.058-.474-2.039-1.168-4.042-2.096-5.974-3.316-6.903-9.122-12.102-16.349-14.638-7.609-2.672-15.598-1.925-22.298 1.421-2.908-2.859-6.463-5.146-10.558-6.584-10.08-3.54-20.832-1.082-28.363 5.484-3.47-4.658-8.141-8.313-13.647-10.593-4.811-1.993-9.829-2.74-14.701-2.396-.798-2.157-1.825-4.226-3.058-6.174 24.271.511 48.199-4.784 65.327-8.596zm-224.414 29.786c22.243-14.703 61.217-26.457 102.153-26.457 1.987 0 3.98.038 5.975.096-2.77 2.861-5.063 6.272-6.677 10.169-.513 1.239-.938 2.5-1.293 3.772-6.062-1.083-12.315-.422-18.141 1.992-3.429 1.421-6.532 3.379-9.226 5.775-7.155-4.523-16.223-5.874-24.814-2.859-4.095 1.437-7.641 3.73-10.547 6.589-6.703-3.351-14.697-4.1-22.309-1.426-7.227 2.536-13.033 7.735-16.349 14.638-.928 1.933-1.622 3.936-2.096 5.974-2.571-3.089-5.674-5.621-9.157-7.506 3.054-3.627 7.047-7.166 12.481-10.757zm-38.365 22.406c3.24-2.183 6.974-3.316 10.796-3.316 1.246 0 2.502.121 3.752.364 5.085.992 9.479 3.904 12.374 8.201 2.052 3.045 3.155 6.531 3.283 10.112-.031.021-.064.038-.095.059-4.764 3.21-8.363 7.505-10.708 12.335-2.168-.092-4.354.081-6.506.536-.435-.783-.899-1.555-1.408-2.31-4.78-7.095-11.963-11.62-19.744-13.237.879-5.015 3.71-9.682 8.256-12.744zm-33.708 39.892c.991-5.085 3.904-9.479 8.2-12.374 3.317-2.234 7.08-3.303 10.807-3.303 6.24 0 12.375 2.999 16.116 8.553.172.255.314.522.472.783-4.354 3.519-7.424 8.288-8.827 13.726-3.655.862-7.166 2.366-10.374 4.527-3.253 2.192-5.961 4.89-8.103 7.917-2.052-1.357-3.882-3.117-5.34-5.282-2.895-4.296-3.943-9.463-2.951-14.547zm29.433 176.381c-16.547 0-30.008-13.461-30.008-30.008 0-9.26 4.229-17.537 10.843-23.044.064.493.124.997.191 1.48.883 6.41 2.538 18.374 8.159 26.767 3.4 8.634 7.513 16.91 12.264 24.76-.482.024-.963.045-1.449.045zm352.115 0c-.487 0-.97-.017-1.451-.04 9.748-16.104 16.797-34.013 20.535-53.094 6.665 5.507 10.924 13.825 10.924 23.126 0 16.547-13.462 30.008-30.008 30.008z" fill="#440b29"/><g><path d="m49.716 2.562 8.598 24.177c.368 1.035 1.097 1.855 2.017 2.27l21.48 9.678c3.035 1.367 3.035 6.202 0 7.57l-21.48 9.678c-.92.414-1.648 1.235-2.017 2.27l-8.598 24.177c-1.215 3.416-5.51 3.416-6.725 0l-8.598-24.177c-.368-1.035-1.097-1.855-2.017-2.27l-21.48-9.678c-3.035-1.367-3.035-6.202 0-7.57l21.48-9.678c.92-.414 1.648-1.235 2.017-2.27l8.598-24.177c1.215-3.416 5.511-3.416 6.725 0z" fill="#f0c4db"/><ellipse cx="478.557" cy="36.752" fill="#e58bbd" rx="18.775" ry="18.775" transform="matrix(.123 -.993 .993 .123 383.477 507.207)"/><path d="m503.38 362.939c0 4.391-3.56 7.951-7.951 7.951s-7.951-3.56-7.951-7.951 3.56-7.951 7.951-7.951 7.951 3.56 7.951 7.951z" fill="#e58bbd"/><path d="m461.982 390.872 6.378 17.934c.273.768.814 1.376 1.496 1.684l15.934 7.179c2.251 1.014 2.251 4.601 0 5.615l-15.934 7.179c-.682.307-1.223.916-1.496 1.684l-6.378 17.934c-.901 2.534-4.088 2.534-4.989 0l-6.378-17.934c-.273-.768-.814-1.376-1.496-1.684l-15.934-7.179c-2.251-1.014-2.251-4.601 0-5.615l15.934-7.179c.682-.307 1.223-.916 1.496-1.684l6.378-17.934c.902-2.534 4.088-2.534 4.989 0z" fill="#f0c4db"/></g></g></svg>