<svg id="Capa_1" enable-background="new 0 0 512 512" height="512" viewBox="0 0 512 512" width="512" xmlns="http://www.w3.org/2000/svg"><g><g><path d="m176.886 422.413c-16.102 27.889-51.764 37.445-79.653 21.343s-37.445-51.764-21.343-79.653 62.345-48.026 90.235-31.925c27.889 16.103 26.863 62.346 10.761 90.235z" fill="#f7e266"/><path d="m198.451 444.152c-12.893-3.796-25.552-9.364-37.859-17.309-3.364 9.279-5.611 19.092-6.59 29.275 12.981 6.438 26.577 11.28 40.576 14.794-.196-9.099.981-18.28 3.873-26.76z" fill="#e58bbd"/><path d="m354.064 466.908c13.16-4.297 25.762-9.889 38.12-15.953-1.356-9.679-3.863-18.989-7.384-27.784-11.228 8.089-23.816 14.23-36.997 18.221 3.288 8.104 5.158 16.794 6.261 25.516z" fill="#e58bbd"/><path d="m324.474 473.877c-57.739 8.248-118.944 7.799-170.472-17.758-.368 3.821-.562 7.693-.562 11.611v32.43h239.915v-32.43c0-5.694-.403-11.293-1.171-16.775-21.306 10.454-43.322 19.535-67.71 22.922z" fill="#f4d6d4"/><path d="m273.397 347.772c-51.893 0-96.085 32.951-112.805 79.071 52.633 33.976 111.705 24.499 167.959 18.779 20.071-2.769 39.646-10.49 56.249-22.451-17.69-44.186-60.899-75.399-111.403-75.399z" fill="#f4d6d4"/><path d="m353.471 466.456v-2.131c0-8.213-1.241-16.135-3.538-23.594-6.986 2.249-14.151 3.894-21.381 4.891-43.903 4.465-89.522 11.214-132.458-2.187-1.796 6.662-2.77 13.66-2.77 20.89v4.009c50.923 18.677 109.473 18.944 160.147-1.878z" fill="#e58bbd"/><path d="m193.323 468.465v31.695h160.148v-33.574c-50.674 20.822-109.224 20.555-160.148 1.879z" fill="#a183e2"/><path d="m273.397 384.251c-36.994 0-68.113 25.094-77.304 59.184 42.936 13.401 88.555 6.651 132.458 2.187 7.23-.997 14.395-2.642 21.381-4.891-10.071-32.707-40.524-56.48-76.535-56.48z" fill="#f4d6d4"/><path d="m320.651 444.43 27.152-4.507c-9.686-29.374-34.259-46.728-66.003-50.039 20.587 9.261 35.736 29.828 38.851 54.546z" fill="#e69fd5"/><path d="m307.646 479.454c-1.88.601-3.881.932-5.96.932h-.354c-19.658 2.615-39.676 2.577-59.322 0h-48.687v19.775h160.148v-30.642c0-.974-.034-1.94-.069-2.905-14.714 6.039-30.094 10.289-45.756 12.84z" fill="#9762e2"/><g><path d="m308.271 479.225c15.445-2.561 30.61-6.782 45.128-12.741-.331-8.863-2.102-17.353-5.087-25.251-6.473 1.989-13.088 3.468-19.761 4.389-2.552.26-5.11.527-7.673.798.242 2.451.374 4.937.374 7.457v6.942c0 8.492-5.419 15.699-12.981 18.406z" fill="#e068bd"/></g><path d="m458.745 261.888c.549-5.261.836-10.6.836-16.006 0-84.131-68.201-152.332-152.332-152.332h-67.704c-84.13 0-152.332 68.201-152.332 152.332 0 5.406.286 10.745.836 16.006-16.552 4.794-28.658 20.054-28.658 38.151 0 21.94 17.786 39.726 39.726 39.726 6.252 0 12.164-1.448 17.426-4.021 27.713 37.869 72.481 62.47 123.003 62.47h67.704c50.521 0 95.29-24.601 123.003-62.47 5.262 2.573 11.174 4.021 17.426 4.021 21.94 0 39.726-17.786 39.726-39.726-.002-18.097-12.108-33.357-28.66-38.151z" fill="#f4d6d4"/><path d="m307.249 93.775h-19.534c68.206 0 123.497 55.292 123.497 123.497v10.488c0 68.206-55.292 123.497-123.497 123.497h-77.004c-65.271 0-118.708-50.638-123.186-114.77-.198 3.182-.311 6.387-.311 9.619 0 84.131 68.201 152.332 152.332 152.332h67.703c84.131 0 152.332-68.201 152.332-152.332 0-84.13-68.202-152.331-152.332-152.331z" fill="#e69fd5"/><path d="m67.635 272.836c-3.298-10.117-3.604-30.712-3.604-30.712 2-93.581 78.479-168.83 172.54-168.83h76.706c94.061 0 170.54 75.249 172.54 168.83 0 0 .428 18.154-5.731 28.419l-20.036-15.574c-39.966 12.872-91.568 2.119-133.675-31.889-24.465-19.758-41.926-44.303-51.451-69.598-9.524 25.294-26.986 49.839-51.451 69.598-42.13 34.025-93.764 44.772-133.739 31.868" fill="#f7e266"/><path d="m147.255 250.421c-.627-.972-1.309-1.886-2.029-2.755l6.244-28.95-29.37-6.335c-.664-1.645-1.486-3.253-2.484-4.799-8.515-13.198-26.117-16.995-39.315-8.48-1.546.997-2.958 2.124-4.241 3.349l-27.195-5.866-5.696 26.408c-1.561.647-3.089 1.435-4.56 2.383-13.198 8.515-16.995 26.117-8.48 39.316.949 1.471 2.016 2.818 3.172 4.051l-6.567 30.449 29.927 6.455c.345.636.708 1.267 1.107 1.885 8.515 13.198 26.117 16.995 39.315 8.479.618-.399 1.209-.824 1.786-1.261l30.471 6.572 6.451-29.911c1.014-.495 2.012-1.047 2.984-1.674 13.198-8.516 16.995-26.118 8.48-39.316z" fill="#a183e2"/></g><g><g fill="#440b29"><path d="m488.934 272.287c5.611-12.238 5.418-28.431 5.372-30.376-1.024-47.94-20.468-92.848-54.75-126.45-34.334-33.653-79.723-52.186-127.806-52.186h-76.706c-48.083 0-93.472 18.533-127.806 52.186-22.243 21.802-38.218 48.369-46.989 77.43l-10.117-2.182c-1.559-.337-3.187-.039-4.527.825-1.34.865-2.281 2.226-2.617 3.784l-5.071 23.509c-.871.463-1.729.957-2.568 1.498v.001c-15.962 10.299-20.57 31.663-10.272 47.626.541.838 1.119 1.642 1.722 2.423l-5.942 27.55c-.336 1.559-.039 3.187.825 4.527.865 1.34 2.226 2.281 3.784 2.617l25.02 5.396c3.284 15.34 13.662 28.072 27.518 34.599-4.289 4.409-7.959 9.125-10.792 14.031-18.838 32.629-7.619 74.501 25.01 93.339 10.735 6.198 22.464 9.141 34.05 9.141 5.896 0 11.753-.768 17.421-2.254-.179 2.781-.274 5.585-.274 8.41v32.43c0 5.534 4.486 10.019 10.019 10.019s10.019-4.486 10.019-10.019v-32.43c0-1.131.024-2.256.058-3.378 7.498 3.136 15.492 5.995 23.796 8.535v30.945c0 3.32 2.691 6.012 6.012 6.012 3.32 0 6.012-2.691 6.012-6.012v-27.548c23.719 6.172 49.091 9.727 72.022 9.727 24.794 0 51.654-3.727 76.103-10.181v28.001c0 3.32 2.692 6.012 6.012 6.012s6.012-2.691 6.012-6.012v-31.458c8.393-2.619 16.382-5.564 23.767-8.79.051 1.376.086 2.757.086 4.146v32.43c0 5.534 4.486 10.019 10.019 10.019s10.019-4.486 10.019-10.019v-32.43c0-28.393-9.162-54.681-24.671-76.084 21.342-10.506 40.051-25.569 54.863-43.905 4.475 1.328 9.211 2.044 14.111 2.044 27.43 0 49.745-22.315 49.745-49.745-.001-10.271-3.134-19.82-8.489-27.753zm-253.89-188.973h76.706c87.742 0 160.649 71.338 162.523 159.033.061 2.941-.17 7.25-.828 11.533l-8.774-6.82c-2.615-2.033-6.066-2.642-9.22-1.626-38.356 12.354-85.989.802-124.308-30.146-22.345-18.046-39.071-40.638-48.37-65.333-1.47-3.904-5.205-6.488-9.376-6.488s-7.907 2.585-9.376 6.488c-9.299 24.696-26.025 47.287-48.37 65.333-19.574 15.809-41.574 26.531-63.526 31.616-.144-.218-.299-.425-.446-.638l5.668-26.281c.7-3.245-1.363-6.444-4.609-7.144l-26.437-5.702c-.498-.957-1.04-1.897-1.632-2.815-4.989-7.733-12.69-13.059-21.686-15-7.141-1.541-14.418-.791-20.986 2.077 22.639-62.778 83.128-108.087 153.047-108.087zm-93.57 153.235c-3.833-2.361-8.079-3.921-12.473-4.652.144-.54.276-1.085.394-1.634.72-3.337.939-6.702.679-10.012l14.252 3.074zm-23.624-10.15c-5.51-4.88-12.201-8.299-19.592-9.893-8.279-1.786-16.702-1.128-24.442 1.8 1.202-5.626 4.539-10.794 9.744-14.152 3.669-2.367 7.849-3.589 12.114-3.589 1.587 0 3.185.169 4.774.512 5.856 1.263 10.869 4.731 14.117 9.765 3.091 4.79 4.099 10.323 3.285 15.557zm-45.771 6.169c5.137-3.314 10.989-5.026 16.961-5.026 2.221 0 4.46.237 6.683.717 8.199 1.768 15.219 6.624 19.766 13.672 9.387 14.549 5.187 34.022-9.363 43.409s-34.024 5.187-43.41-9.363c-9.387-14.549-5.187-34.023 9.363-43.409zm24.688 90.493c1.219 2.246 2.487 4.46 3.807 6.641-.483.024-.968.043-1.457.043-4.962 0-9.642-1.224-13.758-3.385 3.946-.421 7.796-1.528 11.408-3.299zm-2.943-12.102c-10.391 6.705-24.301 3.704-31.005-6.687-2.734-4.237-3.842-9.054-3.499-13.731 8.168 7.7 18.921 11.826 29.85 11.825 4.48-.001 8.989-.695 13.357-2.114-1.644 4.255-4.583 8.049-8.703 10.707zm16.583.129c2.37-3.602 4.018-7.599 4.91-11.761.259.062.516.132.777.188 2.44.526 4.894.786 7.332.786 1.463 0 2.918-.108 4.362-.294l-3.056 14.171zm25.109-26.403c-4.287 2.765-9.273 3.952-14.276 3.468 10.69-11.771 14.115-28.652 8.787-43.694 4.848 1.5 9.215 4.632 12.175 9.221 6.706 10.392 3.706 24.3-6.686 31.005zm-82.043-80.955 12.078 2.605c-1.601 2.908-2.789 6.065-3.509 9.402-.003.014-.005.028-.008.043-.249-.059-.493-.128-.744-.182-3.411-.736-6.853-.949-10.234-.661zm-11.605 26.697c5.337-3.443 11.601-4.325 17.341-2.961-11.717 11.116-16.207 27.867-11.927 43.193-4.986-1.563-9.233-4.781-12.101-9.227-6.704-10.391-3.704-24.3 6.687-31.005zm-4.701 48.907c2.962 1.656 6.185 2.881 9.596 3.617.537.116 1.076.214 1.614.304-.14.528-.273 1.058-.389 1.596-.916 4.245-1.015 8.537-.351 12.7l-13.759-2.968zm65.076 155.745c-11.171-6.449-19.161-16.863-22.5-29.323s-1.625-25.473 4.824-36.644c4.119-7.134 10.944-13.979 19.184-19.549 3.262-.304 6.431-.926 9.48-1.833 14.814 18.337 33.523 33.394 54.867 43.9-9.699 13.382-16.912 28.676-20.958 45.2-13.864 6.584-30.628 6.487-44.897-1.751zm205.006-26.846c2.646 0 5.276-.066 7.891-.192 10.212 6.992 18.594 16.468 24.26 27.556-21.067 5.44-44.214 8.335-68.043 8.335-22.42 0-44.309-2.561-64.412-7.415 5.673-11.491 14.234-21.31 24.738-28.495 2.607.125 5.225.211 7.862.211zm-112.104 25.096c-8.063-2.401-15.76-5.198-23.025-8.359 3.886-9.167 8.98-17.701 15.083-25.402 8.84 3.019 18.023 5.288 27.47 6.747-8.142 7.608-14.813 16.77-19.528 27.014zm-27.103 2.973c7.246 3.116 14.879 5.897 22.852 8.301-1.523 5.101-2.586 10.398-3.137 15.846-8.126-2.595-15.904-5.512-23.136-8.705.773-5.277 1.924-10.433 3.421-15.442zm31.488 27.619c.392-5.572 1.404-10.974 2.967-16.141 21.493 5.341 44.908 8.175 68.86 8.175 25.416 0 50.149-3.18 72.642-9.147 1.689 5.319 2.798 10.894 3.238 16.654-24.15 6.654-51.066 10.525-75.88 10.525-22.906.001-48.332-3.693-71.827-10.066zm159.451-3.984c-.609-5.68-1.765-11.199-3.429-16.496 7.94-2.543 15.532-5.458 22.711-8.723 1.657 5.251 2.932 10.669 3.788 16.225-7.092 3.296-14.854 6.31-23.07 8.994zm15.036-36.485c-7.194 3.313-14.849 6.25-22.879 8.792-4.68-9.803-11.161-18.585-19.012-25.923 9.445-1.459 18.624-3.733 27.462-6.751 5.765 7.274 10.633 15.29 14.429 23.882zm-66.768-35.257h-67.704c-48.833 0-91.981-24.736-117.622-62.323l6.149 1.326c.428.092.853.137 1.273.137 2.77 0 5.263-1.927 5.871-4.745l5.875-27.239c.314-.189.634-.363.943-.562 7.732-4.989 13.059-12.69 15-21.686.503-2.33.757-4.674.779-7.003 24.512-5.87 48.856-17.801 70.428-35.223 18.876-15.245 34.217-33.458 45.156-53.465 10.939 20.007 26.28 38.22 45.156 53.465 31.742 25.636 69.485 39.429 104.944 39.427 8.267-.001 16.41-.76 24.325-2.284-10.666 67.992-69.632 120.175-140.573 120.175zm140.428-58.449c-.487 0-.97-.012-1.451-.036 9.65-15.942 16.629-33.67 20.33-52.559 6.601 5.451 10.828 13.679 10.828 22.889 0 16.38-13.327 29.706-29.707 29.706z"/><ellipse cx="182.515" cy="308.78" rx="17.006" ry="17.006" transform="matrix(.987 -.161 .161 .987 -47.342 33.421)"/><ellipse cx="364.279" cy="308.78" rx="17.006" ry="17.006" transform="matrix(.987 -.161 .161 .987 -44.97 62.691)"/><path d="m290.402 302.768c-3.32 0-6.012 2.692-6.012 6.012 0 6.062-4.932 10.994-10.994 10.994s-10.994-4.932-10.994-10.994c0-3.32-2.692-6.012-6.012-6.012s-6.011 2.692-6.011 6.012c0 12.691 10.325 23.017 23.017 23.017s23.017-10.326 23.017-23.017c.001-3.32-2.691-6.012-6.011-6.012z"/><path d="m60.152 257.905 11.576 11.384 6.435 16.576c.732 1.887 2.365 3.278 4.343 3.702.419.09.841.134 1.261.134 1.562 0 3.083-.61 4.219-1.729l12.563-12.377 15.368-5.665c1.984-.731 3.438-2.451 3.829-4.53s-.339-4.209-1.922-5.611l-11.976-10.607-5.716-16.889c-.673-1.987-2.333-3.48-4.38-3.939-2.046-.459-4.186.184-5.642 1.694l-12.245 12.699-15.411 5.174c-1.981.665-3.475 2.312-3.944 4.349-.471 2.035.152 4.169 1.642 5.635zm22.933-4.23c.915-.308 1.743-.831 2.414-1.526l6.41-6.648 3.062 9.048c.336.992.925 1.879 1.709 2.573l5.648 5.002-7.153 2.637c-.802.296-1.531.759-2.14 1.359l-6.972 6.869-3.593-9.256c-.308-.794-.782-1.514-1.389-2.111l-5.515-5.423z"/><path d="m414.929 213.827c3.32 0 6.012-2.692 6.012-6.012v-10.412c0-3.32-2.692-6.012-6.012-6.012s-6.012 2.692-6.012 6.012v10.412c.001 3.32 2.692 6.012 6.012 6.012z"/><path d="m383.287 179.077c3.32 0 6.012-2.692 6.012-6.011v-10.412c0-3.32-2.692-6.012-6.012-6.012s-6.012 2.692-6.012 6.012v10.412c.001 3.319 2.692 6.011 6.012 6.011z"/></g><path d="m187.2 129.96c-4.596 0-8.737-3.181-9.773-7.853-1.197-5.403 2.212-10.753 7.614-11.95 4.152-.92 8.393-1.56 12.603-1.9 5.507-.447 10.348 3.663 10.794 9.179s-3.664 10.349-9.179 10.794c-3.298.267-6.623.768-9.882 1.491-.73.161-1.459.239-2.177.239z" fill="#fff"/><path d="m128.128 171.407c-1.908 0-3.837-.544-5.544-1.681-4.606-3.067-5.854-9.287-2.786-13.892 6.983-10.487 16.052-19.833 26.955-27.779 4.472-3.26 10.739-2.275 13.998 2.196 3.259 4.472 2.276 10.739-2.196 13.998-8.983 6.547-16.411 14.181-22.078 22.691-1.93 2.898-5.109 4.467-8.349 4.467z" fill="#fff"/></g><g><path d="m40.676 22.939 8.51 23.929c.364 1.025 1.086 1.837 1.996 2.247l21.26 9.579c3.004 1.353 3.004 6.139 0 7.492l-21.26 9.579c-.91.41-1.632 1.222-1.996 2.247l-8.51 23.929c-1.202 3.381-5.454 3.381-6.656 0l-8.51-23.929c-.364-1.024-1.086-1.837-1.996-2.247l-21.26-9.579c-3.004-1.353-3.004-6.139 0-7.492l21.26-9.579c.91-.41 1.632-1.222 1.996-2.247l8.51-23.929c1.202-3.381 5.454-3.381 6.656 0z" fill="#cab4ef"/><path d="m414.929 20.404c0 10.263-8.32 18.583-18.583 18.583s-18.583-8.32-18.583-18.583 8.32-18.583 18.583-18.583c10.263 0 18.583 8.32 18.583 18.583z" fill="#a183e2"/><ellipse cx="134.389" cy="15.818" fill="#a183e2" rx="7.869" ry="7.87" transform="matrix(.911 -.413 .413 .911 5.481 56.969)"/><path d="m486.765 43.993 6.313 17.75c.27.76.805 1.362 1.481 1.666l15.771 7.105c2.228 1.004 2.228 4.554 0 5.558l-15.771 7.105c-.675.304-1.21.906-1.481 1.666l-6.313 17.75c-.892 2.508-4.046 2.508-4.938 0l-6.313-17.75c-.27-.76-.805-1.362-1.48-1.666l-15.771-7.105c-2.228-1.004-2.228-4.554 0-5.558l15.771-7.105c.675-.304 1.21-.907 1.48-1.666l6.313-17.75c.892-2.507 4.046-2.507 4.938 0z" fill="#cab4ef"/></g></g></svg>