<svg id="Capa_1" enable-background="new 0 0 512 512" height="512" viewBox="0 0 512 512" width="512" xmlns="http://www.w3.org/2000/svg"><g><g><ellipse cx="82.17" cy="377.142" fill="#eaa585" rx="40.184" ry="31.386" transform="matrix(.388 -.922 .922 .388 -297.342 306.726)"/><ellipse cx="49.674" cy="449.164" fill="#eaa585" rx="35.501" ry="27.728" transform="matrix(.388 -.922 .922 .388 -383.637 320.878)"/><path d="m342.701 501.275v-32.258c0-65.899-53.421-119.32-119.32-119.32-65.899 0-119.32 53.421-119.32 119.32v32.258z" fill="#bdf4e3"/><path d="m303.029 501.275v-30.479c0-43.988-35.66-79.648-79.648-79.648-43.988 0-79.648 35.66-79.648 79.648v30.479z" fill="#fff"/><path d="m231.739 391.143c23.038 10.362 39.243 34.954 39.243 63.652v6.905c0 10.749-8.714 19.462-19.462 19.462h-107.788v19.67h159.297v-30.479c0-41.165-31.231-75.031-71.29-79.21z" fill="#eebdfa"/><g fill="#f4d6d4"><ellipse cx="396.735" cy="302.218" rx="39.515" ry="39.514" transform="matrix(.16 -.987 .987 .16 34.869 645.42)"/><ellipse cx="50.027" cy="302.218" rx="39.515" ry="39.514" transform="matrix(.122 -.993 .993 .122 -256.04 314.945)"/><path d="m257.053 399.871h-67.343c-83.684 0-151.523-67.839-151.523-151.522 0-83.684 67.839-151.522 151.523-151.522h67.343c83.684 0 151.522 67.839 151.522 151.522 0 83.683-67.839 151.522-151.522 151.522z"/></g><path d="m257.053 96.736h-19.43c67.843 0 122.841 54.998 122.841 122.841v10.432c0 67.843-54.998 122.841-122.841 122.841h-76.595c-64.924 0-118.077-50.368-122.532-114.16-.197 3.165-.31 6.353-.31 9.568v.001c0 83.683 67.839 151.522 151.523 151.522h67.343c83.684 0 151.522-67.839 151.522-151.522v-.001c.001-83.683-67.838-151.522-151.521-151.522z" fill="#e69fd5"/><path d="m25.517 274.917c-3.159-9.693-3.452-29.423-3.452-29.423 1.915-89.654 75.185-161.746 165.299-161.746h73.487c90.114 0 163.384 72.091 165.299 161.746 0 0 .41 17.392-5.491 27.227l-19.194-14.921c-38.289 12.332-87.725 2.03-128.065-30.55-23.438-18.929-40.167-42.444-49.292-66.677-9.125 24.233-25.854 47.748-49.292 66.677-40.362 32.598-89.829 42.893-128.127 30.531" fill="#eaa585"/><path d="m401.524 341.151c11.191 16.181 14.05 33.595 6.385 38.897s-22.951-3.518-34.143-19.698c-11.192-16.181-14.05-33.595-6.386-38.897 7.666-5.302 22.952 3.517 34.144 19.698z" fill="#84eac4"/><path d="m469.128 337.194c13.803-4.13 27.159-.24 29.83 8.688 2.672 8.929-6.352 19.515-20.155 23.645s-27.159.24-29.831-8.688c-2.67-8.928 6.353-19.514 20.156-23.645z" fill="#84eac4"/><path d="m415.13 411.726c.512 0 1.03-.038 1.552-.116 5.656-.85 9.553-6.125 8.703-11.781-7.04-46.844 20.607-79.248 20.887-79.57 3.755-4.315 3.301-10.857-1.013-14.612-4.315-3.755-10.857-3.301-14.612 1.014-1.4 1.609-34.191 40.047-25.746 96.247.772 5.134 5.19 8.818 10.229 8.818z" fill="#84eac4"/><path d="m475.176 305.371c-7.346-1.637-25.606 5.482-32.562 8.37-.08-.114-.16-.229-.23-.328 6.259-2.254 26.041-9.765 30.535-16.232 5.357-7.709 3.451-18.3-4.257-23.657s-18.3-3.452-23.657 4.257c-4.446 6.397-4.635 27.166-4.57 34.052-.113-.031-.239-.064-.365-.098.319-7.598.7-27.044-3.346-33.351-5.069-7.901-15.583-10.198-23.484-5.129s-10.197 15.583-5.129 23.484c2.449 3.817 9.953 8.167 17.058 11.645-7.539-1.363-15.679-2.227-19.765-.688-8.785 3.309-13.224 13.113-9.915 21.897 3.309 8.785 13.113 13.224 21.897 9.915 6.019-2.267 15.21-14.254 20.402-21.579-5.09 7.358-13.34 20.268-13.405 26.756-.095 9.387 7.436 17.073 16.823 17.169 9.387.095 17.073-7.437 17.169-16.824.045-4.462-3.72-12.041-7.682-18.767 5.773 5.562 12.589 11.284 17.09 12.287 9.163 2.041 18.245-3.732 20.286-12.895 2.042-9.161-3.73-18.243-12.893-20.284zm-34.704 8.715s.029-.01.052-.018c-.177.243-.375.517-.584.809-.023.01-.026.011-.04.017.206-.302.396-.581.571-.84 0 .009.001.032.001.032zm-.599.849c.003.004.009.01.014.017-.218.303-.45.628-.697.978.245-.355.469-.683.683-.995z" fill="#f7e266"/><path d="m454.035 321.787c-4.896 7.044-14.575 8.786-21.619 3.89-7.044-4.895-8.786-14.574-3.89-21.619 4.896-7.044 14.574-8.786 21.619-3.89 7.043 4.895 8.785 14.574 3.89 21.619z" fill="#fff"/><path d="m434.705 501.91h-73.019c-22.794 0-41.808-17.42-43.799-40.127l-5.25-40.73h171.237l-5.377 40.817c-2.033 22.669-21.031 40.04-43.792 40.04z" fill="#f5dbb6"/><ellipse cx="319.376" cy="424.958" fill="#84eac4" rx="26.088" ry="16.875" transform="matrix(.958 -.287 .287 .958 -108.417 109.39)"/><path d="m385.534 425.874c5.584-13.282 17.075-21.121 25.667-17.509s11.03 17.307 5.446 30.589-17.075 21.121-25.667 17.509-11.03-17.307-5.446-30.589z" fill="#84eac4"/><path d="m399.115 389.493c-4.086-1.539-12.226-.676-19.765.688 7.104-3.479 14.609-7.829 17.058-11.646 5.069-7.901 2.772-18.415-5.129-23.483-7.901-5.069-18.415-2.773-23.483 5.128-4.046 6.306-3.664 25.753-3.346 33.351-.126.033-.252.067-.365.098.064-6.886-.124-27.654-4.57-34.051-5.357-7.709-15.949-9.614-23.657-4.258-7.708 5.357-9.614 15.949-4.257 23.658 4.494 6.466 24.276 13.977 30.535 16.231-.071.1-.15.215-.23.329-6.956-2.888-25.216-10.007-32.562-8.371-9.162 2.042-14.935 11.125-12.894 20.287s11.124 14.935 20.286 12.893c4.501-1.003 11.318-6.724 17.091-12.286-3.962 6.726-7.728 14.305-7.682 18.767.095 9.387 7.782 16.919 17.169 16.823 9.387-.095 16.918-7.781 16.823-17.168-.066-6.487-8.312-19.394-13.403-26.753 5.192 7.325 14.381 19.308 20.399 21.576 8.784 3.309 18.589-1.13 21.897-9.915s-1.131-18.589-9.915-21.898zm-35.12 6.371c.023.009.052.019.052.019s.001-.024.001-.031c.174.258.364.537.57.84-.013-.006-.017-.007-.04-.018-.209-.292-.406-.566-.583-.81zm.637.883c.005-.006.011-.013.014-.016.212.31.436.637.679.987-.246-.347-.477-.67-.693-.971z" fill="#fff"/><ellipse cx="363.239" cy="394.718" fill="#f7e266" rx="15.532" ry="15.532" transform="matrix(.114 -.994 .994 .114 -70.239 710.696)"/><path d="m482.585 400.964c-.758-.315-1.513-.599-2.266-.865.754-.259 1.511-.538 2.271-.848 10.805-4.41 17.8-12.268 15.622-17.549-2.178-5.283-12.703-5.988-23.508-1.578-.76.31-1.495.642-2.215.983.348-.714.686-1.444 1.002-2.199 4.502-10.731 3.865-21.218-1.424-23.422s-13.226 4.708-17.728 15.439c-.317.755-.601 1.507-.867 2.256-.262-.752-.542-1.506-.854-2.262-4.438-10.765-12.334-17.737-17.636-15.574-5.301 2.164-6.001 12.645-1.563 23.41.312.757.645 1.49.989 2.207-.718-.348-1.452-.684-2.209-1-10.779-4.493-21.308-3.867-23.517 1.398s4.738 13.175 15.518 17.669c.758.315 1.513.599 2.266.865-.754.259-1.511.538-2.271.848-10.805 4.41-17.8 12.268-15.622 17.55s12.703 5.987 23.508 1.577c.76-.31 1.495-.642 2.215-.983-.348.714-.685 1.444-1.002 2.199-4.502 10.731-3.865 21.217 1.424 23.422 5.289 2.204 13.225-4.708 17.728-15.439.316-.755.601-1.507.867-2.257.262.752.542 1.506.854 2.262 4.439 10.765 12.334 17.738 17.636 15.574s6.001-12.645 1.563-23.41c-.312-.757-.645-1.49-.989-2.207.718.348 1.452.684 2.209 1 10.779 4.493 21.308 3.868 23.517-1.397 2.208-5.265-4.739-13.176-15.518-17.669zm-26.856 4.7c-.932.38-1.714 1.031-2.359 1.883-.64-.857-1.418-1.513-2.348-1.901s-1.945-.479-3.007-.331c.156-1.056.071-2.067-.312-2.997-.383-.929-1.037-1.709-1.892-2.351.859-.636 1.518-1.411 1.906-2.337s.479-1.936.33-2.993c1.06.156 2.076.072 3.008-.308s1.714-1.031 2.359-1.883c.64.857 1.418 1.514 2.348 1.901.93.388 1.945.479 3.007.331-.155 1.056-.071 2.067.312 2.996s1.037 1.709 1.892 2.351c-.859.637-1.518 1.411-1.906 2.337-.389.926-.479 1.936-.33 2.993-1.059-.155-2.075-.071-3.008.309z" fill="#e58bbd"/><path d="m466.766 394.537c3.034 7.359-.494 15.768-7.88 18.783s-15.833-.506-18.867-7.865.494-15.768 7.88-18.783 15.833.506 18.867 7.865z" fill="#f7e266"/><path d="m330.243 35.24h-218.104c-16.23 0-29.387 13.157-29.387 29.387v79.24h276.878v-79.24c0-16.23-13.157-29.387-29.387-29.387z" fill="#f5dbb6"/><path d="m83.098 70.128h276.186v45.129h-276.186z" fill="#bdf4e3"/><path d="m307.217 56.534v15.197h52.413v-7.104c0-16.23-13.157-29.388-29.387-29.388h-44.319c11.76.001 21.293 9.535 21.293 21.295z" fill="#eaa5b6"/><path d="m307.217 72.502v9.898c0 12.806-10.381 23.188-23.188 23.188h-5.781v7.734h81.382v-40.82z" fill="#b1b7e3"/><path d="m375.148 158.412h-307.914c-7.554 0-13.678-6.124-13.678-13.678v-19.996c0-7.554 6.124-13.678 13.678-13.678h307.914c7.554 0 13.678 6.124 13.678 13.678v19.996c0 7.554-6.124 13.678-13.678 13.678z" fill="#f5dbb6"/></g><g><g fill="#440b29"><path d="m132.982 293.997c-9.342 0-16.915 7.574-16.915 16.916s7.573 16.915 16.915 16.915 16.915-7.573 16.915-16.915c0-9.343-7.573-16.916-16.915-16.916z"/><path d="m330.695 310.912c0-9.342-7.573-16.916-16.915-16.916s-16.915 7.574-16.915 16.916 7.573 16.915 16.915 16.915 16.915-7.572 16.915-16.915z"/><path d="m240.296 304.858c-3.343 0-6.054 2.711-6.054 6.054 0 5.989-4.872 10.861-10.861 10.861s-10.861-4.872-10.861-10.861c0-3.343-2.711-6.054-6.054-6.054s-6.054 2.711-6.054 6.054c0 12.665 10.304 22.969 22.969 22.969s22.969-10.304 22.969-22.969c0-3.343-2.711-6.054-6.054-6.054z"/><path d="m503.547 389.045c1.397-3.341 1.488-6.679.262-9.652-2.03-4.925-7.096-7.707-13.719-8.163 3.749-2.157 7.018-4.798 9.576-7.798 5.11-5.994 6.966-13.024 5.092-19.285-1.73-5.782-6.267-10.081-12.379-12.484.687-1.488 1.234-3.053 1.599-4.691 1.339-6.01.258-12.181-3.045-17.377-2.963-4.661-7.402-8.023-12.622-9.635 3.18-4.923 4.379-10.767 3.336-16.563-1.09-6.06-4.475-11.333-9.53-14.846-5.056-3.514-11.182-4.848-17.237-3.758-5.714 1.028-10.708 4.116-14.208 8.702-1.963-2.551-4.377-4.593-7.061-6.079 2.792-10.189 2.663-20.627 2.628-22.139-.821-38.365-13.934-74.698-37.323-104.424v-16.117c0-13.105-10.663-23.768-23.769-23.768h-5.427v-36.34c0-21.768-17.71-39.478-39.478-39.478h-218.103c-21.768 0-39.478 17.71-39.478 39.478v36.341h-5.427c-13.106 0-23.769 10.663-23.769 23.768v19.996c0 1.219.093 2.416.271 3.586-19.9 28.251-31.007 61.75-31.759 96.959-.003.122-.003.243-.001.365.024 1.616.244 12.724 1.8 22.772-8.274 8.866-13.353 20.748-13.353 33.803 0 26.947 21.602 48.927 48.396 49.574-1.851 2.877-3.494 5.973-4.882 9.274-5.028 11.96-6.084 24.856-2.974 36.312.858 3.16 2.005 6.115 3.41 8.844-2.704.818-5.376 1.946-7.967 3.395-9.382 5.244-17.05 14.084-21.593 24.89-4.544 10.807-5.494 22.471-2.678 32.843 3.016 11.111 10.26 19.801 19.872 23.842 3.966 1.667 8.214 2.492 12.544 2.492 6.164 0 12.492-1.673 18.394-4.973 9.382-5.244 17.05-14.084 21.593-24.89s5.494-22.47 2.678-32.843c-.545-2.009-1.233-3.936-2.044-5.773 3.829-.905 7.646-2.38 11.37-4.461 3.601-2.013 6.967-4.517 10.047-7.417-8.083 16.876-12.617 35.763-12.617 55.691v32.258c0 5.572 4.517 10.09 10.09 10.09s10.09-4.518 10.09-10.09v-32.258c0-25.529 8.813-49.032 23.545-67.649 8.804 3.001 17.948 5.258 27.357 6.706-16.827 15.656-27.374 37.978-27.374 62.723v34.201c0 3.343 2.711 6.054 6.054 6.054 3.344 0 6.054-2.711 6.054-6.054v-34.201c0-25.37 12.911-47.772 32.501-61.007 2.46.111 4.934.172 7.421.172h67.344c2.485 0 4.956-.06 7.413-.172 19.595 13.233 32.509 35.634 32.509 61.007v34.201c0 3.343 2.711 6.054 6.054 6.054s6.054-2.711 6.054-6.054v-34.201c0-7.849-1.07-15.452-3.057-22.676.921.185 1.863.326 2.817.438l1.846 14.321c1.23 13.42 7.373 25.815 17.315 34.921 1.476 1.352 3.024 2.603 4.622 3.773.16 5.433 4.604 9.792 10.075 9.792 2.143 0 4.127-.672 5.759-1.812 5.152 1.601 10.556 2.447 16.061 2.447h73.019c28.104 0 51.204-21.054 53.822-49.01l4.626-35.118c3.613-1.309 6.325-3.626 7.698-6.898 1.242-2.961 1.173-6.296-.201-9.644-1.642-4.001-5.12-7.899-9.814-11.18 4.711-3.247 8.207-7.119 9.875-11.107zm-23.354 4.643c-2.594-.79-5.107-1.312-7.5-1.581 1.505-1.856 2.917-3.973 4.199-6.335.035-.015.066-.03.101-.044 8.096-3.304 14.017-2.604 15.521-1.683-.432 1.702-4.161 6.314-12.211 9.6-.038.015-.074.028-.11.043zm-12.425 29.858c3.321 8.054 2.624 13.939 1.705 15.407-1.697-.39-6.369-4.085-9.709-12.186-.014-.034-.025-.067-.039-.102.774-2.562 1.29-5.08 1.552-7.497 1.904 1.549 4.071 2.992 6.449 4.282.014.034.028.063.042.096zm-210.715-33.765h-67.344c-70.91 0-129.795-52.457-139.897-120.603 41.792 10.845 91.494-1.895 131.344-34.079 17.888-14.446 32.471-31.669 42.952-50.585 10.481 18.916 25.064 36.138 42.952 50.585 39.361 31.789 88.342 44.609 129.816 34.459-2.495 16.483-7.85 32.035-15.536 46.148-6.557-2.57-12.701-2.485-17.403.768-5.739 3.969-8.015 11.543-6.409 21.329.417 2.538 1.109 5.177 2.01 7.859-1.046 1.103-2.108 2.189-3.188 3.258-7.381-3.898-16.635-3.655-23.948 1.428-7.66 5.323-11.086 14.491-9.504 23.119-19.679 10.401-42.08 16.314-65.845 16.314zm112.424-53.94c-.863-5.259.055-8.515 1.348-9.409.448-.31 1.081-.469 1.866-.469 4.709 0 14.91 5.703 23.854 18.632 1.871 2.705 3.505 5.507 4.883 8.299-.24.957-.469 1.928-.691 2.908-1.637-2.256-3.706-4.252-6.189-5.845-6.498-4.169-14.318-4.648-20.997-1.988-2.034-4.221-3.462-8.395-4.074-12.128zm78.349-2.365c2.707 5.029 4.517 9.33 4.494 11.494-.035 3.515-1.74 6.622-4.344 8.598-4.93-4.258-10.403-5.82-15.282-3.829-.303.124-.595.269-.885.417-.91-1.637-1.393-3.485-1.373-5.409.022-2.129 1.862-6.294 4.598-11.165 2.035.614 4.129.918 6.214.918 2.233.001 4.453-.35 6.578-1.024zm-74.936 29.973c3.26-5.078 10.042-6.562 15.12-3.302 5.078 3.259 6.56 10.041 3.301 15.12-1.184 1.846-5.149 4.494-10.271 7.254-.027-.039-.048-.082-.076-.121-2.568-3.695-6.148-6.421-10.29-7.932.4-5.183 1.126-9.318 2.217-11.018h-.001zm53.64 29.992c-8.028-3.346-11.733-7.988-12.16-9.699 1.518-.906 7.444-1.55 15.501 1.808 2.503 1.043 4.585 2.212 6.279 3.38-.645 1.004-1.22 2.061-1.69 3.186-.466 1.115-.813 2.259-1.074 3.415-2.031-.383-4.339-1.041-6.856-2.09zm-6.803-79.82c.036 1.04.121 2.082.308 3.125.606 3.367 1.984 6.463 3.981 9.121-3.579 4.155-6.797 7.236-8.763 7.977-5.648 2.127-11.971-.737-14.098-6.383-1.031-2.734-.934-5.707.272-8.37 1.205-2.663 3.376-4.697 6.111-5.727.855-.322 2.179-.469 3.849-.469 2.251-.001 5.134.267 8.34.726zm25.766 67.191c-1.901-1.546-4.063-2.985-6.435-4.272-.013-.033-.027-.062-.04-.094-3.32-8.053-2.623-13.938-1.704-15.407 1.697.39 6.368 4.086 9.709 12.186.012.029.02.055.032.085-.777 2.562-1.297 5.083-1.562 7.502zm-29.538-34.625c.81-.166 1.613-.381 2.41-.636.12 4.096 1.298 8.009 3.421 11.427-1.135 4.349-2.058 8.996-2.687 13.894-3.353-.052-6.365.467-8.905 1.499 1.003-9.705 3.139-18.481 5.761-26.184zm-61.413 16.844c1.158 1.665 2.038 5.793 2.629 10.981-2.201.647-4.313 1.633-6.252 2.981s-3.599 2.983-4.973 4.821c-4.657-2.364-8.219-4.627-9.377-6.294-3.443-4.954-2.213-11.787 2.741-15.231 4.957-3.44 11.789-2.211 15.232 2.742zm.914 37.096c-1.444-2.079-1.993-4.596-1.545-7.088.448-2.491 1.84-4.659 3.92-6.104 1.606-1.116 3.473-1.698 5.388-1.698.564 0 1.132.05 1.699.153 2.491.448 4.659 1.84 6.104 3.919 2.982 4.292 1.918 10.209-2.375 13.192-2.079 1.445-4.595 1.996-7.087 1.545-2.491-.448-4.659-1.839-6.104-3.919zm33.811 15.512c-1.966-.741-5.185-3.821-8.765-7.977 1.997-2.658 3.376-5.755 3.982-9.122.187-1.042.272-2.083.308-3.122 5.585-.8 10.183-1.017 12.188-.26 2.735 1.03 4.906 3.064 6.111 5.726 1.206 2.663 1.303 5.635.272 8.371-2.125 5.648-8.453 8.509-14.096 6.384zm40.527-1.375c-8.096 3.304-14.016 2.605-15.521 1.683.433-1.702 4.161-6.314 12.211-9.6.033-.014.065-.025.098-.037 2.581.788 5.09 1.324 7.473 1.595-1.498 1.853-2.906 3.969-4.183 6.325-.027.012-.051.024-.078.034zm15.822-11.116c-.847-2.055-.842-4.313.015-6.362.861-2.059 2.479-3.661 4.556-4.509 1.043-.426 2.123-.627 3.186-.627 3.315 0 6.463 1.96 7.797 5.195.846 2.053.841 4.313-.015 6.361-.861 2.06-2.48 3.662-4.557 4.51-4.296 1.751-9.221-.298-10.982-4.568zm22.292-26.583c-1.052 2.507-2.229 4.582-3.403 6.27-2.038-1.309-4.292-2.25-6.657-2.78.381-2.014 1.025-4.289 2.074-6.789 3.388-8.076 8.082-11.732 9.775-12.104.916 1.467 1.587 7.359-1.789 15.403zm-18.844-58.233c-2.985 4.29-8.905 5.354-13.193 2.374-2.079-1.444-3.471-3.612-3.919-6.104s.101-5.01 1.545-7.089c1.84-2.646 4.795-4.066 7.797-4.066 1.866 0 3.75.549 5.396 1.692 4.291 2.983 5.355 8.901 2.374 13.193zm-25.509-17.729c-.028.039-.049.083-.077.122-5.123-2.76-9.086-5.41-10.271-7.256-3.258-5.078-1.777-11.86 3.301-15.118 1.825-1.171 3.87-1.728 5.892-1.728 3.606 0 7.141 1.777 9.229 5.031 1.092 1.703 1.821 5.838 2.221 11.025-4.03 1.473-7.666 4.141-10.295 7.924zm-99.751 97.284c1.568-2.467 4.003-4.176 6.855-4.811.385-.086.852-.127 1.392-.127 2.206 0 5.628.69 9.611 1.805-.002 4.365 1.307 8.624 3.851 12.284.068.098.147.184.216.281-4.34 3.844-8.176 6.643-10.311 7.118-5.885 1.317-11.749-2.411-13.06-8.301-.635-2.852-.122-5.782 1.446-8.249zm32.893 17.383c.887.281 1.788.526 2.718.694 1.291.233 2.585.347 3.869.347 2.112 0 4.198-.317 6.204-.926 2.733 4.869 4.571 9.03 4.592 11.159v.001c.031 2.923-1.08 5.682-3.126 7.769-2.046 2.088-4.782 3.254-7.706 3.283-.038.001-.076.001-.114.001-2.879 0-5.594-1.108-7.654-3.126-2.088-2.046-3.254-4.782-3.283-7.706-.021-2.165 1.792-6.467 4.5-11.496zm34.361 13.097c.691.063 1.384.096 2.076.096 3.235 0 6.462-.691 9.497-2.065 1.111-.503 2.153-1.107 3.154-1.763 1.924 1.8 4.497 3.048 7.545 3.696-.34 2.627-1.07 5.434-2.265 8.277-2.221 5.284-5.697 9.816-9.536 12.435-3.048 2.078-6.037 2.748-8.203 1.839-2.165-.909-3.778-3.516-4.424-7.148-.808-4.534-.019-10.126 2.156-15.367zm47.82-4.94c1.051-2.507 2.228-4.576 3.401-6.264 2.039 1.309 4.296 2.257 6.662 2.787-.382 2.008-1.032 4.285-2.077 6.776-3.388 8.076-8.082 11.732-9.775 12.104-.916-1.467-1.587-7.358 1.789-15.403zm38.037-8.984c-2.507-1.045-4.583-2.215-6.277-3.383.644-1.004 1.219-2.06 1.688-3.183.466-1.115.812-2.257 1.073-3.41 2.031.381 4.337 1.036 6.856 2.085 8.028 3.346 11.732 7.988 12.16 9.699-1.519.907-7.441 1.552-15.5-1.808zm13.537-58.865c-2.011 2.358-4.865 4.448-8.164 6.073-.24-1.7-.643-3.286-1.229-4.715-1.38-3.363-3.684-5.797-6.662-7.038-3.388-1.412-7.075-1.102-10.675.636.443-1.742.688-3.563.707-5.439.004-.416-.014-.848-.052-1.292.716.274 1.419.509 2.091.658 1.682.374 3.375.56 5.057.56 4.062 0 8.046-1.094 11.614-3.191 5.292.642 9.148 2.874 10.02 5.789.673 2.25-.313 5.151-2.707 7.959zm-9.737-39.488c1.568 2.467 2.081 5.397 1.446 8.25-.636 2.854-2.344 5.287-4.811 6.856-2.467 1.568-5.396 2.078-8.25 1.446-2.134-.476-5.969-3.271-10.307-7.112.07-.097.144-.188.213-.287v-.001c2.603-3.745 3.841-8.034 3.842-12.282 4.96-1.39 9.05-2.118 11.011-1.68 2.853.635 5.288 2.344 6.856 4.81zm-23.69-39.38c.654-.117 1.309-.175 1.961-.175 2.211 0 4.367.671 6.222 1.96 2.4 1.668 4.007 4.171 4.525 7.047.517 2.877-.116 5.783-1.784 8.184-1.159 1.666-4.721 3.931-9.381 6.296-1.355-1.819-3.005-3.461-4.967-4.824-1.956-1.359-4.062-2.332-6.231-2.969.598-5.226 1.479-9.369 2.608-10.993 1.666-2.4 4.169-4.007 7.047-4.526zm-41.633-20.864-7.735-6.013c-2.633-2.047-6.111-2.661-9.285-1.638-36.592 11.785-82.048.751-118.632-28.795-17.82-14.392-31.878-31.815-41.207-50.898h136.615c5.585 0 10.723-1.941 14.785-5.178 15.915 23.751 25.483 52.049 26.132 82.407.052 2.271-.116 6.117-.673 10.115zm-303.253-210.516h218.103c10.641 0 19.298 8.656 19.298 19.297v.349h-256.698v-.349c0-10.64 8.657-19.297 19.297-19.297zm-19.297 31.755h256.698v23.884h-256.698zm-29.196 47.652c0-1.979 1.61-3.588 3.588-3.588h307.913c1.979 0 3.589 1.609 3.589 3.588v19.996c0 1.979-1.61 3.589-3.589 3.589h-307.913c-1.979 0-3.588-1.61-3.588-3.589zm-7.097 41.218c3.215 1.625 6.843 2.547 10.685 2.547h142.449c-9.328 19.084-23.387 36.506-41.207 50.898-36.607 29.566-82.084 40.594-118.688 28.778-3.243-1.046-6.798-.385-9.447 1.759l-7.65 6.192c-.314-3.945-.487-7.769-.535-10.606.659-29.165 9.55-56.424 24.393-79.568zm-35.946 136.263c0-6.44 2.094-12.393 5.618-17.241 2.016-.142 3.972-.885 5.594-2.18 3.81 17.481 10.458 33.913 19.434 48.791-.407.017-.81.053-1.222.053-16.225.001-29.424-13.199-29.424-29.423zm45.331 153.781v.001c-2.766 6.579-7.445 12.083-12.837 15.097-2.697 1.507-8.006 3.706-13.27 1.492-5.264-2.213-7.409-7.545-8.218-10.526-1.618-5.961-.96-13.155 1.806-19.734 2.766-6.58 7.445-12.084 12.838-15.098 1.876-1.048 5.015-2.431 8.525-2.431 1.536 0 3.143.265 4.745.939 5.264 2.213 7.408 7.545 8.217 10.526 1.618 5.961.96 13.154-1.806 19.734zm20.76-52.87c-5.636 3.15-11.384 3.774-16.186 1.754-4.802-2.018-8.378-6.561-10.07-12.792-1.936-7.133-1.19-15.373 2.102-23.202 1.928-4.587 4.606-8.595 7.693-11.834 9.439 10.367 20.21 19.5 32.033 27.138-.154.401-.295.803-.463 1.202-3.293 7.829-8.659 14.127-15.109 17.734zm194.99 4.945c9.409-1.447 18.555-3.701 27.36-6.702.328.415.653.835.975 1.255-.022.434-.032.868-.029 1.306-8.529 3.143-15.17 8.415-18.87 14.452-2.863-3.687-6.02-7.135-9.436-10.311zm18.499 22.627c-1.326-4.434 3.956-11.348 13.126-15.055 4.135 6.848 11.626 11.164 19.726 11.164 1.098 0 2.207-.088 3.32-.25-.159.205-.32.411-.494.615-3.014 3.536-7.893 6.507-13.383 8.15-5.491 1.643-11.199 1.84-15.661.54-3.543-1.032-5.961-2.914-6.634-5.164zm171.099 30.267c-1.578 17.589-16.083 30.852-33.742 30.852h-73.019c-17.693 0-32.202-13.292-33.748-30.919-.012-.136-.027-.272-.044-.408l-1.874-14.544c5.389-2.006 10.171-4.947 13.918-8.518 3.878 7.302 11.56 12.276 20.363 12.275.079 0 .159-.001.238-.001 4.944-.05 9.621-1.668 13.509-4.572.037.24.055.487.097.724 1.38 7.755 5.628 13.655 11.653 16.188 2.133.897 4.413 1.339 6.757 1.339 4.273 0 8.76-1.471 12.962-4.338 5.8-3.956 10.728-10.259 13.875-17.745.834-1.983 1.495-3.968 2.026-5.939.074 2.847.558 5.461 1.474 7.696 1.38 3.363 3.684 5.797 6.662 7.039 1.446.602 2.944.893 4.469.893 5.648 0 11.625-4.002 16.419-10.866 4.774 6.937 10.759 10.991 16.432 10.99.984 0 1.957-.134 2.914-.383l-1.294 9.823c-.02.136-.034.275-.047.414z"/><circle cx="223.381" cy="429.355" r="9.891"/><path d="m223.381 452.729c-5.463 0-9.891 4.428-9.891 9.891 0 5.462 4.428 9.89 9.891 9.89s9.891-4.428 9.891-9.89c0-5.463-4.429-9.891-9.891-9.891z"/><path d="m331.44 185.756c-3.343 0-6.054 2.711-6.054 6.054v11.528c0 3.343 2.711 6.054 6.054 6.054s6.054-2.711 6.054-6.054v-11.528c.001-3.343-2.71-6.054-6.054-6.054z"/><path d="m370.588 203.86c-3.343 0-6.054 2.711-6.054 6.054v11.528c0 3.343 2.711 6.054 6.054 6.054s6.054-2.711 6.054-6.054v-11.528c0-3.343-2.711-6.054-6.054-6.054z"/></g><path d="m98.2 241.489c-4.765 0-9.003-3.389-9.908-8.243-1.022-5.478 2.591-10.747 8.069-11.768 2.936-.548 5.886-1.221 8.769-2.001 5.379-1.455 10.92 1.726 12.375 7.105s-1.725 10.92-7.105 12.375c-3.399.919-6.877 1.712-10.339 2.358-.625.118-1.247.174-1.861.174z" fill="#fff"/><path d="m136.113 227.549c-3.477 0-6.861-1.799-8.734-5.023-2.799-4.818-1.163-10.994 3.655-13.793 10.079-5.856 18.769-13.171 25.827-21.741 3.542-4.301 9.9-4.919 14.204-1.374 4.302 3.542 4.917 9.902 1.374 14.203-8.587 10.427-19.107 19.296-31.266 26.36-1.595.927-3.34 1.368-5.06 1.368z" fill="#fff"/></g><g><path d="m477.318 70.858 8.57 24.099c.367 1.032 1.093 1.849 2.01 2.262l21.411 9.646c3.025 1.363 3.025 6.182 0 7.545l-21.411 9.646c-.917.413-1.643 1.231-2.01 2.262l-8.57 24.099c-1.211 3.405-5.493 3.405-6.704 0l-8.57-24.099c-.367-1.032-1.093-1.849-2.01-2.262l-21.411-9.646c-3.025-1.363-3.025-6.182 0-7.545l21.411-9.646c.917-.413 1.643-1.231 2.01-2.262l8.57-24.099c1.211-3.405 5.493-3.405 6.704 0z" fill="#f1c7b6"/><ellipse cx="486.709" cy="31.402" fill="#eaa585" rx="7.925" ry="7.925" transform="matrix(.973 -.23 .23 .973 5.805 112.663)"/><path d="m419.62 1.894 6.357 17.876c.272.765.811 1.372 1.491 1.678l15.882 7.156c2.244 1.011 2.244 4.586 0 5.597l-15.882 7.156c-.68.306-1.219.913-1.491 1.678l-6.357 17.876c-.898 2.526-4.074 2.526-4.973 0l-6.358-17.876c-.272-.765-.811-1.372-1.491-1.678l-15.882-7.156c-2.244-1.011-2.244-4.586 0-5.597l15.882-7.156c.68-.306 1.219-.913 1.491-1.678l6.358-17.876c.898-2.525 4.075-2.525 4.973 0z" fill="#f1c7b6"/></g></g></svg>