<svg id="Capa_1" enable-background="new 0 0 512 512" height="512" viewBox="0 0 512 512" width="512" xmlns="http://www.w3.org/2000/svg"><g><g><path d="m371.036 496.793v-31.758c0-64.877-52.593-117.47-117.47-117.47-64.877 0-117.47 52.593-117.47 117.47v31.758z" fill="#d49c8d"/><path d="m331.979 496.793v-30.007c0-43.307-35.107-78.414-78.414-78.414-43.307 0-78.414 35.107-78.414 78.414v30.007z" fill="#f0c4db"/><path d="m261.794 388.804c22.681 10.201 38.635 34.412 38.635 62.665v6.798c0 10.582-8.578 19.161-19.161 19.161h-106.117v19.365h156.827v-30.006c.001-40.528-30.746-73.869-70.184-77.983z" fill="#e693db"/><path d="m253.565 435.349c-96.337 0-146.431-78.019-169.859-133.42-40.9-96.722 27.592-205.449 132.584-207.577 1.054-.021 2.111-.032 3.171-.032h68.208c1.06 0 2.116.011 3.171.032 104.993 2.128 173.485 110.855 132.584 207.577-23.427 55.401-73.521 133.42-169.859 133.42z" fill="#f0c4db"/><path d="m290.84 94.352c-1.054-.021-2.111-.032-3.171-.032h-42.193c.853 0 1.703.009 2.551.026 84.48 1.712 139.59 89.196 106.68 167.021-18.85 44.577-60.973 99.731-138.487 99.731s-116.007-55.153-134.857-99.731c-4.66-11.02-7.551-22.232-8.848-33.368-2.502 24.128.825 49.414 11.192 73.93 23.427 55.401 73.521 133.42 169.859 133.42s146.431-78.019 169.859-133.42c40.9-96.722-27.592-205.449-132.585-207.577z" fill="#e693db"/><path d="m314.972 358.164h-122.814c-41.263 0-74.713-33.45-74.713-74.713 0-41.263 33.45-74.713 74.713-74.713h122.814c41.263 0 74.713 33.45 74.713 74.713.001 41.262-33.45 74.713-74.713 74.713z" fill="#d49c8d"/><path d="m136.064 166.154c-19.522-19.522 48.555-75.504 48.555-75.504s-47.832-18.917-38.469-41.37c9.364-22.454 107.429 20.801 107.429 20.801s91.217-39.972 106.812-22.908c15.594 17.063-40.123 43.017-40.123 43.017s70.59 55.813 50.827 75.965-117.515-34.42-117.515-34.42-97.995 53.941-117.516 34.419z" fill="#84eac4"/></g><g><g fill="#440b29"><path d="m432.67 305.839c20.756-49.083 15.844-105.075-13.14-149.776-13.636-21.031-32.138-38.673-53.504-51.019-8.782-5.074-17.918-9.214-27.36-12.433-.181-.16-.37-.329-.549-.487 2.445-1.406 5.062-2.979 7.712-4.681 16.231-10.427 25.047-20.133 26.953-29.67 1.26-6.308-.509-12.477-4.983-17.371-9.735-10.652-31.232-9.955-69.702 2.259-19.078 6.058-36.786 13.254-44.507 16.499-7.003-2.964-22.237-9.207-39.237-14.897-43.711-14.632-58.887-12.279-66.501-9.237-6.582 2.63-9.599 7.103-10.97 10.391-2.706 6.489-2.642 13.459.186 20.156 5.084 12.041 18.732 21.579 29.528 27.556-.076.07-.157.146-.234.217-8.699 3.106-17.132 7.002-25.262 11.699-21.366 12.346-39.868 29.988-53.504 51.019-28.98 44.7-33.892 100.691-13.136 149.775 15.721 37.178 35.867 67.733 59.877 90.813 2.486 2.389 5.011 4.681 7.566 6.895-10.089 18.245-15.848 39.204-15.848 61.488v31.758c0 5.544 4.494 10.039 10.039 10.039 5.544 0 10.039-4.494 10.039-10.039v-31.758c0-17.645 4.294-34.299 11.865-49.001 6.639 4.575 13.481 8.625 20.525 12.135-5.991 11.58-9.396 24.704-9.396 38.618v33.671c0 3.326 2.697 6.023 6.023 6.023s6.023-2.697 6.023-6.023v-33.671c0-12.142 3.018-23.587 8.326-33.645 19.922 8.146 41.323 12.247 64.064 12.247 22.74 0 44.14-4.101 64.061-12.245 5.309 10.058 8.33 21.501 8.33 33.643v33.671c0 3.326 2.697 6.023 6.023 6.023s6.023-2.697 6.023-6.023v-33.671c0-13.914-3.404-27.038-9.395-38.619 7.046-3.511 13.89-7.562 20.53-12.139 7.57 14.703 11.859 31.361 11.859 49.006v31.758c0 5.544 4.494 10.039 10.039 10.039s10.039-4.494 10.039-10.039v-31.758c0-22.283-5.759-43.242-15.848-61.487 2.556-2.215 5.081-4.507 7.567-6.896 24.012-23.081 44.158-53.635 59.879-90.813zm-277.107-248.086c-.764-1.813-.678-3.038-.359-4.04 1.832-.777 12.286-3.653 49.993 8.667 23.016 7.52 44.121 16.794 44.331 16.887 2.573 1.134 5.503 1.138 8.079.01.213-.094 21.582-9.421 44.848-16.929 40.516-13.076 49.74-8.802 50.585-8.322-.378 1.196-2.797 6.557-17.159 15.941-9.834 6.426-19.757 11.08-19.853 11.124-3.157 1.47-5.325 4.473-5.731 7.931-.405 3.459 1.011 6.881 3.742 9.042 20.449 16.183 49.633 45.122 50.493 58.792.098 1.553-.308 1.968-.605 2.27-.076.077-8.135 7.518-55.023-11.842-26.07-10.765-50.192-24.18-50.433-24.315-1.52-.848-3.206-1.272-4.893-1.272-1.667 0-3.334.414-4.84 1.244-.24.132-24.298 13.332-50.404 24.036-46.397 19.023-55.097 12.153-55.171 12.079 0 0 0 0 0-.001-.271-.271-.642-.641-.57-2.118.65-13.428 28.696-42.313 48.402-58.534 2.743-2.256 4.086-5.795 3.538-9.304s-2.914-6.469-6.214-7.781c-11.387-4.528-29.078-14.833-32.756-23.565zm-62.61 240.266c-18.159-42.942-13.863-91.927 11.493-131.033 6.603-10.184 14.295-19.25 22.861-27.124-2.942 5.88-4.532 11.233-4.769 16.099-.329 6.779 1.893 12.758 6.427 17.292v-.001c11.548 11.548 36.01 9.101 76.985-7.699 20.318-8.331 39.032-17.889 47.597-22.409 8.549 4.573 27.236 14.24 47.544 22.635 23.966 9.907 42.299 14.826 55.728 14.825 9.537-.001 16.6-2.482 21.444-7.421 4.56-4.65 6.742-10.735 6.309-17.596-.305-4.826-1.929-10.1-4.898-15.87 8.629 7.905 16.369 17.023 23.012 27.268 25.356 39.107 29.653 88.091 11.494 131.033-24.556 58.07-72.353 127.291-160.613 127.291-88.26.001-136.058-69.22-160.614-127.29z"/><path d="m395.709 283.45c0-44.518-36.219-80.736-80.737-80.736h-122.814c-44.518 0-80.736 36.219-80.736 80.737s36.218 80.736 80.736 80.736h122.814c44.518 0 80.737-36.219 80.737-80.737zm-80.737 68.69h-122.814c-37.876 0-68.69-30.814-68.69-68.69s30.814-68.69 68.69-68.69h122.814c37.876 0 68.69 30.814 68.69 68.69s-30.814 68.69-68.69 68.69z"/><path d="m164.567 292.727c-9.197 0-16.653 7.456-16.653 16.653s7.456 16.653 16.653 16.653 16.653-7.456 16.653-16.653c.001-9.196-7.455-16.653-16.653-16.653z"/><path d="m342.563 292.727c-9.197 0-16.653 7.456-16.653 16.653s7.456 16.653 16.653 16.653 16.653-7.456 16.653-16.653c0-9.196-7.456-16.653-16.653-16.653z"/><path d="m180.797 254.726c-.75-.383-7.58-3.742-16.23-3.742s-15.479 3.359-16.23 3.742c-2.952 1.507-4.118 5.109-2.626 8.069s5.109 4.151 8.077 2.673c.049-.024 4.964-2.438 10.779-2.438s10.73 2.414 10.753 2.424c.877.448 1.812.66 2.734.66 2.192 0 4.305-1.201 5.37-3.286 1.512-2.962.336-6.589-2.627-8.102z"/><path d="m358.792 254.726c-.75-.383-7.58-3.742-16.23-3.742-8.649 0-15.479 3.359-16.229 3.742-2.963 1.513-4.139 5.14-2.627 8.103s5.141 4.139 8.103 2.627c.048-.025 4.914-2.425 10.753-2.425 5.815 0 10.73 2.414 10.754 2.425.877.448 1.812.66 2.733.66 2.192 0 4.305-1.201 5.37-3.287 1.512-2.963.337-6.59-2.627-8.103z"/><path d="m270.218 303.357c-3.326 0-6.023 2.697-6.023 6.023 0 5.861-4.768 10.629-10.63 10.629-5.861 0-10.63-4.768-10.63-10.629 0-3.326-2.697-6.023-6.023-6.023s-6.023 2.697-6.023 6.023c0 12.503 10.173 22.676 22.676 22.676s22.676-10.173 22.676-22.676c0-3.326-2.697-6.023-6.023-6.023z"/><path d="m272.803 454.367c-3.326 0-6.023 2.697-6.023 6.023v10.736c0 3.326 2.697 6.023 6.023 6.023s6.023-2.697 6.023-6.023v-10.736c0-3.326-2.697-6.023-6.023-6.023z"/><path d="m302.918 465.103c-3.326 0-6.023 2.697-6.023 6.023v10.736c0 3.326 2.697 6.023 6.023 6.023s6.023-2.697 6.023-6.023v-10.736c0-3.326-2.697-6.023-6.023-6.023z"/><path d="m274.437 189.487c3.326 0 6.023-2.697 6.023-6.023v-10.736c0-3.326-2.697-6.023-6.023-6.023s-6.023 2.697-6.023 6.023v10.736c0 3.326 2.697 6.023 6.023 6.023z"/><path d="m397.407 223.324c3.326 0 6.023-2.697 6.023-6.023v-10.736c0-3.326-2.697-6.023-6.023-6.023s-6.023 2.697-6.023 6.023v10.736c0 3.326 2.697 6.023 6.023 6.023z"/><path d="m302.918 376.977c-3.326 0-6.023 2.697-6.023 6.023v10.736c0 3.326 2.697 6.023 6.023 6.023s6.023-2.697 6.023-6.023v-10.736c0-3.327-2.697-6.023-6.023-6.023z"/><path d="m243.543 382.345c-3.326 0-6.023 2.697-6.023 6.023v10.736c0 3.326 2.697 6.023 6.023 6.023s6.023-2.697 6.023-6.023v-10.736c0-3.326-2.697-6.023-6.023-6.023z"/></g><path d="m212.249 119.702c-3.308 0-6.546-1.633-8.462-4.625-2.991-4.669-1.63-10.877 3.038-13.868 1.317-.843 2.021-1.198 3.101-1.672.155-.068.341-.149.584-.26 5.041-2.31 10.999-.095 13.307 4.946 2.309 5.04.095 10.999-4.946 13.308-.363.166-.64.288-.873.39l-.123.054c-.063.039-.135.085-.221.14-1.676 1.074-3.552 1.587-5.405 1.587z" fill="#fff"/><path d="m177.407 146.083c-2.755 0-5.497-1.127-7.48-3.34-3.7-4.129-3.351-10.475.778-14.175 2.422-2.17 5.058-4.015 7.607-5.799 1.876-1.313 3.648-2.553 5.052-3.733 4.243-3.569 10.577-3.021 14.144 1.222 3.568 4.243 3.021 10.576-1.222 14.144-2.084 1.753-4.31 3.31-6.462 4.816-2.158 1.511-4.197 2.937-5.722 4.303-1.916 1.717-4.31 2.562-6.695 2.562z" fill="#fff"/></g><g><path d="m477.559 52.996 8.616 24.226c.369 1.037 1.099 1.859 2.021 2.274l21.524 9.697c3.041 1.37 3.041 6.215 0 7.585l-21.524 9.697c-.922.415-1.652 1.237-2.021 2.274l-8.616 24.226c-1.217 3.423-5.522 3.423-6.739 0l-8.616-24.226c-.369-1.037-1.099-1.859-2.021-2.274l-21.524-9.697c-3.041-1.37-3.041-6.215 0-7.585l21.524-9.697c.922-.415 1.652-1.237 2.021-2.274l8.616-24.226c1.217-3.423 5.522-3.423 6.739 0z" fill="#f0c4db"/><path d="m37.626 135.543c0 10.39-8.423 18.813-18.813 18.813s-18.813-8.423-18.813-18.813 8.423-18.813 18.813-18.813 18.813 8.423 18.813 18.813z" fill="#e58bbd"/><path d="m414.696 13.135c0 4.4-3.567 7.967-7.967 7.967s-7.967-3.567-7.967-7.967 3.567-7.967 7.967-7.967c4.401 0 7.967 3.567 7.967 7.967z" fill="#e58bbd"/><path d="m80.709 7.073 6.391 17.97c.274.769.815 1.379 1.499 1.687l15.966 7.193c2.256 1.016 2.256 4.61 0 5.626l-15.966 7.193c-.684.308-1.225.918-1.499 1.687l-6.391 17.97c-.903 2.539-4.096 2.539-4.999 0l-6.391-17.97c-.273-.77-.815-1.379-1.499-1.687l-15.966-7.192c-2.256-1.016-2.256-4.61 0-5.626l15.966-7.194c.684-.308 1.225-.918 1.499-1.687l6.391-17.97c.903-2.539 4.096-2.539 4.999 0z" fill="#f0c4db"/></g></g></svg>