<svg id="Capa_1" enable-background="new 0 0 512 512" height="512" viewBox="0 0 512 512" width="512" xmlns="http://www.w3.org/2000/svg"><g><g><g fill="#bdf4e3"><ellipse cx="413.84" cy="464.492" rx="34.803" ry="43.334" transform="matrix(.267 -.964 .964 .267 -144.175 739.514)"/><ellipse cx="408.57" cy="402.264" rx="63.329" ry="35.858" transform="matrix(.866 -.5 .5 .866 -146.394 258.179)"/><ellipse cx="107.301" cy="464.492" rx="43.334" ry="34.803" transform="matrix(.964 -.267 .267 .964 -119.954 45.42)"/><ellipse cx="112.571" cy="402.264" rx="35.858" ry="63.329" transform="matrix(.5 -.866 .866 .5 -292.085 298.621)"/></g><path d="m381.835 501.693v-32.784c0-66.972-54.292-121.264-121.264-121.264-66.973 0-121.264 54.292-121.264 121.264v32.784z" fill="#d49c8d"/><path d="m341.517 501.693v-30.976c0-44.705-36.241-80.946-80.946-80.946-44.705 0-80.946 36.241-80.946 80.946v30.976z" fill="#bdf4e3"/><path d="m269.065 390.216c23.413 10.53 39.882 35.523 39.882 64.689v7.018c0 10.924-8.856 19.779-19.78 19.779h-109.543v19.99h161.892v-30.976c.001-41.835-31.739-76.253-72.451-80.5z" fill="#b1b7e3"/><ellipse cx="436.749" cy="299.392" fill="#d49c8d" rx="40.158" ry="40.158" transform="matrix(.122 -.993 .993 .122 86.237 696.289)"/><ellipse cx="84.391" cy="299.392" fill="#d49c8d" rx="40.158" ry="40.158" transform="matrix(.123 -.992 .992 .123 -223.125 346.2)"/><path d="m294.791 398.636h-68.441c-85.047 0-153.992-68.944-153.992-153.991 0-85.047 68.944-153.991 153.992-153.991h68.441c85.047 0 153.992 68.944 153.992 153.991-.001 85.047-68.945 153.991-153.992 153.991z" fill="#d49c8d"/><path d="m288.56 65.735h-55.979c-94.157 0-170.487 76.33-170.487 170.486v17.002c1.202 29.852 16.938 45.512 29.572 55.949l.924 30.854c-4.097 53.089 26.905 77.352 50.781 59.474 0 22.817 17.917 41.314 40.019 41.314 17.516 0 32.394-11.623 37.818-27.803 3.075 22.457 19.523 39.607 39.362 39.607 19.838 0 36.287-17.15 39.362-39.607 5.424 16.179 20.301 27.803 37.818 27.803 22.102 0 40.019-18.498 40.019-41.314 24.795 11.812 47.71-11.103 50.78-59.474l2.295-31.505c17.303-10.712 26.315-27.095 28.202-55.298v-17.002c.001-94.156-76.329-170.486-170.486-170.486zm102.468 240.094c0 24.278-19.681 43.96-43.959 43.96s-43.96-19.682-43.96-43.96h.003c0-23.468-19.025-42.494-42.494-42.494s-42.494 19.025-42.494 42.494h.003c0 24.278-19.681 43.96-43.959 43.96s-43.96-19.682-43.96-43.96c0 0-4.322-43.802 21.646-69.731l62.212-41.835 66.56 35.95c7.108 3.84 15.851-.69 16.813-8.712l3.113-25.942c.341-2.84 3.549-4.333 5.942-2.765l68.688 45.02c18.837 25.814 15.846 68.015 15.846 68.015z" fill="#84eac4"/><path d="m288.561 65.735h-31.935c80.88 0 146.446 65.566 146.446 146.445v14.605c-1.621 24.226-.782 33.146-15.646 42.348l3.129 33.638c-.948 29.114-17.017 40.239-33.086 47.037 0 19.599-15.391 35.488-34.376 35.488-4.596 0-8.98-.931-12.986-2.621-11.163-4.709-24.116-2.69-33.343 5.162-5.621 4.783-12.516 7.6-19.967 7.6-7.452 0-14.347-2.817-19.967-7.6-9.227-7.852-22.18-9.87-33.343-5.161-4.006 1.69-8.391 2.621-12.986 2.621-12.13 0-22.792-6.486-28.911-16.281-4.904-7.85-13.159-13.122-22.326-14.406-9.135-1.279-35.807 16.212-46.797-18.757l.125 4.174c-4.097 53.089 26.905 77.352 50.781 59.474 0 22.817 17.917 41.314 40.019 41.314 17.516 0 32.394-11.623 37.818-27.803 3.075 22.457 19.523 39.607 39.362 39.607 19.838 0 36.287-17.15 39.362-39.607 5.424 16.179 20.301 27.803 37.818 27.803 22.102 0 40.019-18.498 40.019-41.314 24.795 11.812 47.71-11.103 50.78-59.474l2.295-31.505c17.303-10.712 26.315-27.095 28.202-55.298v-17.002c-.001-94.158-76.33-170.487-170.487-170.487z" fill="#71afc4"/><path d="m417.663 191.246c-6.513 7.995-64.568 3.849-98.893-24.115s-40.676-58.412-25.41-77.152c15.267-18.74 46.37-18.674 80.695 9.29 34.326 27.963 50.121 83.982 43.608 91.977z" fill="#bdf4e3"/></g><g><g fill="#440b29"><path d="m450.666 347.793c21.025-6.055 36.454-25.453 36.454-48.4 0-14.903-6.513-28.304-16.834-37.531.305-2.538.568-5.131.749-7.837.018-.267.027-.535.027-.802v-17.002c0-100.632-81.87-182.502-182.502-182.502h-55.979c-100.632 0-182.502 81.87-182.502 182.502v17.002c0 .161.003.322.01.484.115 2.848.346 5.588.68 8.227-10.273 9.225-16.748 22.597-16.748 37.459 0 22.947 15.43 42.345 36.455 48.4-10.37 2.764-18.359 8.492-23.155 16.799-7.048 12.206-5.827 27.596 3.436 43.336 4.951 8.411 11.987 16.478 20.513 23.654-14.738 12.253-22.083 30.43-17.315 47.667 3.469 12.54 12.568 22.544 25.621 28.167 7.072 3.047 14.868 4.585 22.869 4.585 5.738 0 11.582-.791 17.339-2.384 3.545-.98 6.95-2.255 10.2-3.767 1.593 3.566 5.164 6.056 9.322 6.056 5.64 0 10.212-4.573 10.212-10.212v-32.784c0-9.089 1.106-17.922 3.178-26.381 6.597 4.957 14.368 8.357 22.801 9.679-1.299 5.969-2 12.158-2 18.51v34.758c0 3.384 2.744 6.127 6.127 6.127s6.128-2.744 6.128-6.127v-34.758c0-6.243.791-12.302 2.244-18.1 11.292-1.025 21.744-5.779 29.952-13.246 9.406 15.451 25.04 25.264 42.623 25.264 17.584 0 33.216-9.811 42.623-25.265 8.207 7.468 18.657 12.222 29.948 13.247 1.453 5.799 2.248 11.856 2.248 18.1v34.758c0 3.384 2.744 6.127 6.127 6.127 3.384 0 6.128-2.744 6.128-6.127v-34.758c0-6.352-.693-12.544-1.994-18.512 8.424-1.321 16.189-4.714 22.781-9.664 2.07 8.457 3.191 17.282 3.191 26.368v32.784c0 5.64 4.572 10.212 10.212 10.212 4.155 0 7.723-2.485 9.318-6.047 3.249 1.514 6.661 2.778 10.205 3.758 5.757 1.593 11.6 2.384 17.339 2.384 7.999 0 15.797-1.538 22.869-4.585 13.052-5.623 22.151-15.627 25.62-28.167s.805-25.796-7.503-37.329c-2.761-3.832-6.065-7.298-9.779-10.366 8.511-7.169 15.535-15.226 20.48-23.626 9.263-15.74 10.484-31.13 3.437-43.336-4.797-8.308-12.785-14.036-23.155-16.799zm13.424-60.575c1.666 3.723 2.606 7.839 2.606 12.175 0 14.93-10.983 27.34-25.293 29.583l1.004-13.779c9.846-7.276 16.957-16.403 21.683-27.979zm-86.486-100.975c-6.59-1.284-16.27-3.641-26.645-7.744l3.577-42.79c11.53 10.442 22.073 22.231 31.711 35.474 1.2 1.648 3.066 2.522 4.96 2.522 1.25 0 2.512-.381 3.601-1.173 2.736-1.992 3.34-5.824 1.348-8.56-14.448-19.854-30.815-36.631-49.395-50.586l31.237-2.175c13.831 14.259 22.46 31.746 26.669 41.814 7.473 17.876 8.958 30.761 8.138 34.263-3.264 1.513-16.184 2.662-35.201-1.045zm-84.26-62.883c-2.846-9.642-2.076-18.445 2.173-25.745 4.733 2.097 9.347 4.324 13.847 6.68l-5.329 39.228c-5.103-6.706-8.721-13.492-10.691-20.163zm29.013-40.302c1.205 0 2.438.053 3.693.158 11.967 1.001 25.259 6.728 38.741 16.631l-34.305 2.388c-8.301-5.174-17.003-9.868-26.132-14.096 5.002-3.355 11.081-5.081 18.003-5.081zm-1.501 27.684c7.752 4.657 15.15 9.736 22.195 15.27l-3.937 47.095c-5.673-2.962-11.288-6.502-16.474-10.727-2.796-2.278-5.414-4.591-7.858-6.927zm-266.41 188.651c0-4.8 1.145-9.335 3.162-13.359 5.778 12.419 14.089 21.591 22.208 28.809l.425 14.202c-14.554-2.028-25.795-14.549-25.795-29.652zm13.686 77.214c2.107-3.65 7.199-5.943 14.2-6.525 4.151 20.94 14.096 32.029 23.071 37.876 8.414 5.48 18.376 7.767 28.113 6.768.917 3.152 2.121 6.177 3.564 9.057-1.262 3.441-2.381 6.95-3.356 10.518-10.41-1.078-22.182-5.098-33.074-11.386-25.434-14.688-38.146-36.561-32.518-46.308zm45.244 109.848c-8.529 2.361-17.157 1.965-24.293-1.109-6.229-2.684-10.479-7.125-11.967-12.504-2.68-9.688 4.134-20.684 15.581-26.882 12.146 6.424 24.851 10.577 36.844 12.059-.296 3.591-.448 7.224-.448 10.89v9.143c-4.246 3.812-9.641 6.723-15.717 8.403zm224.375-57.656c-11.875 0-22.495-7.879-26.426-19.605-1.774-5.293-6.958-8.676-12.516-8.144-5.557.523-10.023 4.802-10.78 10.332-2.281 16.659-14.085 29.221-27.457 29.221s-25.177-12.562-27.457-29.22c-.757-5.53-5.223-9.811-10.78-10.333-.379-.036-.756-.053-1.131-.053-5.118 0-9.733 3.265-11.386 8.197-3.931 11.726-14.551 19.605-26.426 19.605-15.441 0-28.004-13.143-28.004-29.299 0-4.183-2.176-8.065-5.744-10.248-3.568-2.184-8.016-2.356-11.739-.451-4.622 2.363-12.471 3.525-19.383-.978-10.324-6.727-15.273-23.46-13.934-47.117.019-.346.024-.693.014-1.039l-.924-30.855c-.104-3.457-1.692-6.701-4.358-8.904-12.488-10.316-24.18-23.143-25.21-46.935v-16.752c0-87.381 71.09-158.471 158.471-158.471h55.979c3.004 0 5.987.087 8.949.254-3.261 2.186-6.213 4.842-8.784 7.97-.027.031-.054.061-.08.092-.011.014-.024.027-.035.041-9.012 11.062-11.504 25.524-7.019 40.722 3.484 11.802 11.053 23.688 22.125 34.909.174.195.358.381.555.553 3.256 3.258 6.791 6.464 10.628 9.588 21.305 17.357 48.403 24.255 62.66 26.823 3.242.584 13.464 2.266 23.52 2.266 8.882 0 17.634-1.312 21.333-5.852.001 0 .001 0 .001-.001 7.887-9.681-3.242-38.895-5.553-44.652-1.882-4.688-4.598-10.802-8.238-17.511 23.917 27.754 38.41 63.842 38.41 103.269v16.592c-1.629 23.415-8.165 36.611-22.511 45.491-3.275 2.027-5.38 5.502-5.659 9.344l-2.295 31.506c-.009.123-.016.246-.021.369-.951 22.672-6.797 38.922-16.462 45.757-7.563 5.349-15.66 3.692-18.79 2.733-3.645-1.12-7.602-.441-10.667 1.825-3.065 2.265-4.873 5.85-4.873 9.662 0 16.155-12.562 29.299-28.003 29.299zm106.273 44.043c-1.488 5.379-5.738 9.82-11.967 12.504-7.138 3.074-15.764 3.467-24.293 1.109-6.075-1.68-11.472-4.589-15.717-8.401v-9.145c0-3.667-.158-7.297-.454-10.889 12.004-1.483 24.723-5.643 36.881-12.077 4.765 2.553 8.789 5.969 11.71 10.024 3.965 5.503 5.329 11.495 3.84 16.875zm-23.533-49.929c-10.894 6.29-22.669 10.309-33.08 11.387-.974-3.564-2.094-7.068-3.354-10.506 1.694-3.378 3.053-6.96 4.017-10.706h.032c9.23 0 18.215-2.785 25.855-8.189 10.571-7.477 18.044-19.185 22.36-34.951 8.296.199 14.339 2.589 16.689 6.659 5.626 9.747-7.084 31.62-32.519 46.306z"/><path d="m397.155 306.041c.243-3.804 2.39-45.235-17.023-71.839-.435-.595-.974-1.108-1.591-1.513l-68.687-45.018c-2.91-1.908-6.531-2.169-9.685-.702-3.154 1.468-5.285 4.407-5.699 7.861l-3.113 25.942c-.213 1.778-1.248 3.27-2.838 4.094-1.589.825-3.404.809-4.98-.043l-66.56-35.951c-2.004-1.083-4.442-.964-6.331.307l-62.212 41.835c-.327.219-.631.47-.91.748-26.819 26.779-23.832 69.902-23.443 74.357.156 27.487 22.564 49.798 50.086 49.798 27.618 0 50.087-22.469 50.087-50.088 0-.06-.001-.12-.003-.18.097-19.97 16.373-36.187 36.366-36.187 19.99 0 36.264 16.209 36.367 36.174-.002.064-.003.128-.003.193 0 27.618 22.469 50.088 50.087 50.088 27.546 0 49.97-22.356 50.085-49.876zm-50.086 37.621c-20.796 0-37.727-16.867-37.832-37.639.002-.065.003-.129.003-.194 0-26.81-21.812-48.622-48.622-48.622s-48.621 21.812-48.621 48.622c0 .06.001.12.003.18-.097 20.779-17.031 37.653-37.832 37.653-20.861 0-37.832-16.972-37.832-37.833 0-.195-.01-.399-.029-.594-.039-.408-3.629-40.816 19.471-64.392l58.634-39.429 63.302 34.192c5.124 2.766 11.271 2.82 16.442.142 5.172-2.68 8.673-7.732 9.367-13.516l2.677-22.303 64.663 42.38c16.571 23.754 14.08 62.696 14.053 63.088-.01.144-.015.288-.015.433 0 20.86-16.972 37.832-37.832 37.832z"/><path d="m270.058 373.577c-3.384 0-6.127 2.744-6.127 6.127v10.429c0 3.384 2.743 6.128 6.127 6.128s6.128-2.744 6.128-6.128v-10.429c-.001-3.383-2.744-6.127-6.128-6.127z"/><path d="m300.706 358.397c-3.384 0-6.127 2.744-6.127 6.128v10.429c0 3.384 2.744 6.127 6.127 6.127 3.384 0 6.128-2.744 6.128-6.127v-10.429c0-3.384-2.744-6.128-6.128-6.128z"/><path d="m336.452 382.801c-3.384 0-6.127 2.743-6.127 6.127v10.429c0 3.384 2.743 6.128 6.127 6.128s6.127-2.744 6.127-6.128v-10.429c0-3.383-2.743-6.127-6.127-6.127z"/><path d="m168.698 291.036c-9.494 0-17.191 7.697-17.191 17.191s7.697 17.19 17.191 17.19 17.191-7.696 17.191-17.19-7.696-17.191-17.191-17.191z"/><path d="m352.442 291.036c-9.494 0-17.191 7.697-17.191 17.191s7.697 17.19 17.191 17.19 17.191-7.696 17.191-17.19-7.696-17.191-17.191-17.191z"/><path d="m185.412 251.889c-.773-.395-7.805-3.854-16.713-3.854s-15.94 3.459-16.713 3.854c-3.003 1.534-4.189 5.199-2.671 8.21 1.52 3.011 5.199 4.221 8.217 2.718.051-.025 5.141-2.526 11.167-2.526s11.116 2.501 11.14 2.513c.893.456 1.844.671 2.781.671 2.229 0 4.379-1.221 5.462-3.342 1.539-3.014.344-6.705-2.67-8.244z"/><path d="m369.156 251.889c-.773-.395-7.805-3.854-16.713-3.854-8.907 0-15.94 3.459-16.713 3.854-3.004 1.533-4.19 5.198-2.671 8.21 1.519 3.011 5.199 4.224 8.217 2.718.05-.025 5.142-2.526 11.167-2.526 6.026 0 11.116 2.501 11.14 2.513.893.456 1.844.671 2.781.671 2.229 0 4.379-1.221 5.462-3.342 1.539-3.014.344-6.705-2.67-8.244z"/><path d="m277.762 302.1c-3.384 0-6.128 2.743-6.128 6.127 0 6.1-4.963 11.063-11.063 11.063-6.101 0-11.064-4.963-11.064-11.063 0-3.384-2.744-6.127-6.127-6.127-3.384 0-6.127 2.743-6.127 6.127 0 12.857 10.461 23.318 23.319 23.318s23.318-10.461 23.318-23.318c-.001-3.383-2.744-6.127-6.128-6.127z"/></g><path d="m110.399 242.644c-.268 0-.538-.011-.811-.032-5.623-.442-9.823-5.359-9.381-10.981.586-7.462 1.723-14.664 3.379-21.408 1.345-5.478 6.873-8.826 12.353-7.483 5.477 1.345 8.827 6.876 7.482 12.354-1.393 5.673-2.352 11.774-2.852 18.137-.42 5.35-4.892 9.413-10.17 9.413z" fill="#fff"/><path d="m126.677 193.325c-2.12 0-4.258-.658-6.09-2.022-4.524-3.368-5.462-9.766-2.094-14.29 1.423-1.912 2.827-3.539 4.291-4.977 4.025-3.951 10.49-3.891 14.442.131 3.952 4.025 3.893 10.491-.132 14.442-.704.692-1.429 1.543-2.217 2.601-2.005 2.692-5.083 4.115-8.2 4.115z" fill="#fff"/></g><g><path d="m75.751 2.584 8.674 24.391c.371 1.044 1.107 1.872 2.035 2.29l21.67 9.763c3.062 1.379 3.062 6.257 0 7.637l-21.67 9.763c-.928.418-1.663 1.246-2.035 2.29l-8.674 24.391c-1.225 3.446-5.559 3.446-6.785 0l-8.674-24.391c-.371-1.044-1.107-1.872-2.035-2.29l-21.67-9.763c-3.062-1.379-3.062-6.257 0-7.637l21.67-9.763c.928-.418 1.663-1.246 2.035-2.29l8.674-24.391c1.226-3.445 5.56-3.445 6.785 0z" fill="#bdf4e3"/><ellipse cx="391.202" cy="18.941" fill="#84eac4" rx="18.941" ry="18.941" transform="matrix(.16 -.987 .987 .16 309.842 402.058)"/><circle cx="19.387" cy="120.758" fill="#84eac4" r="8.021"/><path d="m474.913 45.691 6.434 18.093c.275.775.821 1.388 1.509 1.699l16.075 7.242c2.271 1.023 2.271 4.642 0 5.665l-16.075 7.242c-.688.31-1.234.924-1.509 1.699l-6.434 18.093c-.909 2.556-4.124 2.556-5.033 0l-6.435-18.093c-.275-.775-.821-1.388-1.509-1.699l-16.075-7.242c-2.271-1.023-2.271-4.641 0-5.665l16.075-7.242c.688-.31 1.234-.924 1.509-1.699l6.435-18.093c.909-2.556 4.123-2.556 5.033 0z" fill="#bdf4e3"/></g></g></svg>