<svg id="Capa_1" enable-background="new 0 0 512 512" height="512" viewBox="0 0 512 512" width="512" xmlns="http://www.w3.org/2000/svg"><g><g><path d="m410.705 443.655h-290.537c-26.491 0-47.966-21.475-47.966-47.966v-142.528h386.469v142.527c0 26.492-21.475 47.967-47.966 47.967z" fill="#eaa585"/><path d="m390.69 501.948v-33.382c0-68.194-55.282-123.476-123.476-123.476-68.194 0-123.476 55.282-123.476 123.476v33.382z" fill="#bdf4e3"/><path d="m390.69 471.535v-2.97c0-12.462-1.853-24.488-5.287-35.83h-236.378c-3.434 11.341-5.287 23.368-5.287 35.83v2.97z" fill="#fff"/><path d="m313.362 432.611h27.099c-12.449-24.073-36.404-41.232-64.597-44.172 17.765 7.989 31.599 24.16 37.498 44.172z" fill="#b1b7e3"/><path d="m313.671 471.663c-3.504 5.935-9.947 9.929-17.338 9.929h-111.541v20.355h164.845v-30.284z" fill="#b1b7e3"/><path d="m313.749 471.536h35.888v-1.129c0-13.576-3.294-26.379-9.109-37.67h-27.127c1.993 6.805 3.072 14.05 3.072 21.571v7.145c0 3.678-1.002 7.115-2.724 10.083z" fill="#eebdfa"/><circle cx="446.606" cy="295.958" fill="#f1c7b6" r="40.891"/><circle cx="87.822" cy="295.958" fill="#f1c7b6" r="40.891"/><path d="m302.059 397.011h-69.689c-86.598 0-156.8-70.202-156.8-156.8 0-86.598 70.202-156.8 156.8-156.8h69.689c86.598 0 156.8 70.202 156.8 156.8 0 86.599-70.202 156.8-156.8 156.8z" fill="#f1c7b6"/><path d="m302.059 83.318h-20.107c70.206 0 127.119 56.913 127.119 127.119v10.796c0 70.206-56.913 127.12-127.119 127.12h-79.262c-67.185 0-122.19-52.123-126.799-118.136-.204 3.275-.32 6.574-.32 9.901 0 86.598 70.202 156.8 156.8 156.8h69.689c86.598 0 156.8-70.202 156.8-156.8-.001-86.598-70.203-156.8-156.801-156.8z" fill="#e795b6"/><g fill="#8bb6ef"><path d="m307.125 297.111c-27.059-30.174-54.14-30.186-81.245 0v-36.029c27.081-21.083 54.163-20.573 81.245 0z"/><path d="m112.026 289.3h-16.008c-9.949 0-18.014-8.065-18.014-18.014 0-9.949 8.065-18.014 18.014-18.014h16.008c9.949 0 18.014 8.065 18.014 18.014.001 9.949-8.065 18.014-18.014 18.014z"/><path d="m172.637 223.396c-36.398 0-65.904 29.507-65.904 65.904 0 36.398 29.506 65.903 65.904 65.903s65.904-29.505 65.904-65.903c0-36.397-29.506-65.904-65.904-65.904zm0 106.046c-22.169 0-40.141-17.973-40.141-40.141 0-22.17 17.972-40.141 40.141-40.141s40.141 17.972 40.141 40.141c.001 22.168-17.971 40.141-40.141 40.141z"/><path d="m422.402 289.3h16.008c9.949 0 18.014-8.065 18.014-18.014 0-9.949-8.065-18.014-18.014-18.014h-16.008c-9.949 0-18.014 8.065-18.014 18.014 0 9.949 8.065 18.014 18.014 18.014z"/><path d="m361.791 223.396c-36.398 0-65.904 29.507-65.904 65.904 0 36.398 29.506 65.903 65.904 65.903s65.904-29.505 65.904-65.903c0-36.397-29.506-65.904-65.904-65.904zm0 106.046c-22.169 0-40.141-17.973-40.141-40.141 0-22.17 17.972-40.141 40.141-40.141s40.141 17.972 40.141 40.141c0 22.168-17.972 40.141-40.141 40.141z"/></g><path d="m433.222 315.77c17.652-10.927 32.782-27.739 34.707-56.511v-17.344c0-96.053-77.866-173.919-173.919-173.919h-57.106c-96.053 0-173.919 77.866-173.919 173.919v17.344c1.226 30.453 19.439 46.704 32.328 57.351l35.278-112.238 16.777 11.766c14.923 10.466 34.898 10.092 49.42-.923l21.229-16.103 22.077 16.23c15.027 11.048 35.545 10.842 50.348-.504l24.283-18.613 22.6 17.01c16.171 12.172 38.729 11.056 53.62-2.653l8.515-7.839z" fill="#eaa585"/><path d="m186.201 126.005c-3.74 0-7.331-2.096-9.064-5.692-2.409-5.002-.307-11.01 4.695-13.42 1.738-.836 7.076-3.217 10.868-4.173 5.376-1.354 10.847 1.907 12.205 7.292 1.357 5.383-1.908 10.847-7.292 12.205-1.49.375-5.016 1.808-7.056 2.791-1.407.676-2.893.997-4.356.997z" fill="#fff"/><path d="m136.287 161.192c-2.3 0-4.611-.784-6.502-2.39-4.232-3.594-4.75-9.938-1.156-14.17 10.374-12.217 21.559-20.358 29.116-25.036 4.721-2.922 10.916-1.465 13.839 3.256 2.921 4.721 1.464 10.917-3.256 13.839-6.328 3.917-15.694 10.732-24.372 20.954-1.989 2.342-4.82 3.547-7.669 3.547z" fill="#fff"/><ellipse cx="361.791" cy="86.03" fill="#8bb6ef" rx="32.848" ry="32.848" transform="matrix(.23 -.973 .973 .23 194.94 418.377)"/><circle cx="418.959" cy="121.952" fill="#84eac4" r="32.848"/></g><g fill="#440b29"><path d="m497.55 295.958c0-15.44-6.908-29.295-17.794-38.644v-15.398c0-33.921-9.151-65.74-25.099-93.135 5.632-7.476 8.976-16.768 8.976-26.827 0-24.634-20.041-44.676-44.675-44.676-4.525 0-8.893.681-13.012 1.939-3.291-21.411-21.838-37.861-44.155-37.861-14.48 0-27.368 6.93-35.537 17.641-10.477-1.845-21.247-2.828-32.245-2.828h-57.106c-102.421 0-185.747 83.326-185.747 185.747v17.344c0 .159.003.317.01.476.012.289.037.566.051.852-8.865 9.171-14.339 21.639-14.339 35.37 0 17.988 9.38 33.816 23.496 42.883v56.848c0 32.97 26.823 59.793 59.793 59.793h14.16c-.421 4.306-.643 8.669-.643 13.083v33.381c0 5.552 4.501 10.053 10.053 10.053s10.053-4.501 10.053-10.053v-25.019h24.969v28.87c0 3.331 2.701 6.032 6.032 6.032s6.032-2.701 6.032-6.032v-28.87h152.782v28.87c0 3.331 2.701 6.032 6.032 6.032s6.032-2.701 6.032-6.032v-28.87h24.969v25.019c0 5.552 4.501 10.053 10.053 10.053s10.053-4.501 10.053-10.053v-33.381c0-4.415-.221-8.777-.642-13.083h10.604c32.97 0 59.793-26.823 59.793-59.793v-54.756c16.079-8.576 27.051-25.516 27.051-44.975zm-290.029 109.248c-7.012 6.424-12.987 13.959-17.644 22.326h-28.399c4.164-10.691 9.899-20.602 16.929-29.442 9.36 3.21 19.091 5.613 29.114 7.116zm94.538 1.858c2.515 0 5.015-.062 7.502-.173 8.197 5.481 15.283 12.495 20.833 20.641h-126.351c5.553-8.148 12.636-15.172 20.838-20.653 2.484.111 4.978.186 7.489.186h69.689zm-144.51 32.531h26.758c-2.965 7.95-4.826 16.434-5.375 25.269h-25.074c.281-8.703 1.548-17.161 3.691-25.269zm39.782 0h139.777c3.465 7.824 5.648 16.337 6.292 25.269h-152.373c.644-8.934 2.837-17.443 6.304-25.269zm152.793 0h26.759c2.144 8.106 3.408 16.566 3.689 25.269h-25.077c-.55-8.834-2.406-17.319-5.371-25.269zm-5.567-12.063c-4.657-8.365-10.633-15.899-17.643-22.322 10.022-1.504 19.755-3.896 29.115-7.106 7.026 8.837 12.759 18.743 16.921 29.428zm-42.498-40.573h-69.689c-36.198 0-69.369-13.181-94.983-34.987 10.425 5.887 22.447 9.264 35.25 9.264 39.665 0 71.935-32.27 71.935-71.935 0-.33-.02-.655-.025-.985 7.447-5.182 14.796-7.808 21.968-7.808h.01c7.612.002 15.42 2.971 23.33 8.81.01 39.657 32.275 71.918 71.935 71.918 12.81 0 24.839-3.381 35.268-9.274-25.615 21.813-58.794 34.997-94.999 34.997zm-10.898-111.256c-8.14-4.821-16.373-7.256-24.632-7.258h-.014c-7.834 0-15.646 2.192-23.38 6.529-1.067-5.257-2.724-10.299-4.872-15.074 19.091-11.383 38.057-11.134 57.556.758-2.078 4.769-3.651 9.806-4.658 15.045zm-177.712 22.645 15.787-50.225c6.666-7.022 15.008-12.431 24.384-15.581 11.942 4.219 24.973 4.065 36.8-.418 24.358 7.592 42.089 30.353 42.089 57.176 0 33.013-26.859 59.872-59.872 59.872-29.938 0-54.813-22.088-59.188-50.824zm233.702-67.102c9.82 2.932 20.262 2.976 30.053.204 8.045 2.146 15.422 5.932 21.764 10.972l19.635 65.735c-7.92 23.8-30.387 41.016-56.813 41.016-33.013 0-59.872-26.859-59.872-59.872.001-27.965 19.274-51.505 45.233-58.055zm-45.584 18.783c-23.191-13.977-46.374-14.208-69.156-.7-7.084-10.559-16.886-19.145-28.4-24.749l14.115-10.708 14.96 10.999c19.146 14.076 45.691 13.809 64.549-.647l17.153-13.147 15.423 11.608c.554.417 1.116.821 1.681 1.213-12.402 5.693-22.914 14.805-30.325 26.131zm138.411-128.077c0 11.59-9.429 21.019-21.02 21.019-11.59 0-21.02-9.429-21.02-21.019 0-11.591 9.429-21.021 21.02-21.021 11.591.001 21.02 9.43 21.02 21.021zm-78.186-56.942c11.59 0 21.02 9.429 21.02 21.021 0 11.59-9.429 21.019-21.02 21.019s-21.021-9.429-21.021-21.019c0-11.592 9.43-21.021 21.021-21.021zm-286.98 176.905c0-89.378 72.714-162.092 162.091-162.092h57.106c7.923 0 15.712.582 23.333 1.688-.15 1.487-.228 2.994-.228 4.52 0 24.634 20.042 44.675 44.676 44.675 4.525 0 8.892-.681 13.012-1.938 3.291 21.411 21.838 37.86 44.156 37.86 5.927 0 11.583-1.17 16.763-3.275 12.965 23.287 20.379 50.07 20.379 78.563v16.936c-1.088 15.165-6.395 27.242-16.455 37.097l-28.853-96.59c-1.167-3.908-4.266-6.939-8.198-8.02-1.035-.285-2.088-.423-3.134-.423-2.93 0-5.8 1.091-8.012 3.126l-8.515 7.84c-10.693 9.846-26.881 10.647-38.497 1.904l-22.6-17.01c-4.242-3.193-10.093-3.168-14.308.063l-24.283 18.612c-10.562 8.094-25.426 8.243-36.148.362l-22.077-16.231c-4.219-3.103-9.979-3.06-14.153.106l-21.23 16.104c-10.466 7.941-24.725 8.207-35.48.663l-16.777-11.766c-3.087-2.166-7.021-2.727-10.595-1.516-3.57 1.213-6.35 4.055-7.481 7.652l-29.658 94.359c-8.015-8.957-14.136-20.091-14.836-36.172v-17.097zm-17.014 47.091c8.231 18.745 22.07 30.188 29.981 36.723.456.377.94.707 1.439 1.007-.465.022-.926.059-1.396.059-17.004 0-30.838-13.833-30.838-30.838 0-2.392.295-4.714.814-6.951zm62.371 142.821c-19.927 0-36.138-16.211-36.138-36.138v-48.944c1.253.093 2.515.156 3.791.156 5.085 0 9.989-.768 14.625-2.164 15.304 18.988 34.666 34.568 56.77 45.399-9.068 12.451-16.036 26.522-20.385 41.691zm326.674-36.138c0 19.927-16.211 36.138-36.138 36.138h-15.107c-4.347-15.165-11.315-29.233-20.38-41.681 22.104-10.831 41.474-26.409 56.779-45.396 4.63 1.39 9.531 2.151 14.609 2.151.08 0 .158-.006.237-.006zm-.237-68.894c-.652 0-1.297-.027-1.939-.068 1.522-2.5 2.98-5.042 4.372-7.625 12.249-9.708 20.896-21.536 25.872-35.372 1.627 3.751 2.534 7.884 2.534 12.227 0 17.005-13.835 30.838-30.839 30.838z"/><path d="m191.171 289.3c0-9.667-7.837-17.504-17.504-17.504-9.668 0-17.505 7.837-17.505 17.504 0 9.668 7.837 17.505 17.505 17.505 9.667 0 17.504-7.837 17.504-17.505z"/><path d="m360.762 306.805c9.667 0 17.504-7.837 17.504-17.505 0-9.667-7.837-17.504-17.504-17.504s-17.504 7.837-17.504 17.504c-.001 9.668 7.836 17.505 17.504 17.505z"/><path d="m284.719 298.922c-3.331 0-6.032 2.701-6.032 6.032 0 6.326-5.147 11.472-11.473 11.472s-11.472-5.146-11.472-11.472c0-3.331-2.701-6.032-6.032-6.032s-6.032 2.701-6.032 6.032c0 12.977 10.558 23.536 23.536 23.536s23.537-10.558 23.537-23.536c0-3.331-2.701-6.032-6.032-6.032z"/><path d="m218.81 289.301c0-25.46-20.713-46.173-46.173-46.173s-46.173 20.713-46.173 46.173 20.713 46.172 46.173 46.172 46.173-20.713 46.173-46.172zm-80.282 0c0-18.808 15.302-34.11 34.11-34.11s34.11 15.302 34.11 34.11-15.302 34.109-34.11 34.109c-18.808-.001-34.11-15.302-34.11-34.109z"/><path d="m361.791 335.473c25.46 0 46.173-20.712 46.173-46.172s-20.713-46.173-46.173-46.173-46.172 20.713-46.172 46.173c-.001 25.459 20.712 46.172 46.172 46.172zm0-80.282c18.808 0 34.11 15.302 34.11 34.11s-15.302 34.109-34.11 34.109-34.109-15.301-34.109-34.109 15.301-34.11 34.109-34.11z"/></g><g><path d="m55.262 20.251 8.538 24.009c.366 1.028 1.089 1.842 2.003 2.254l21.332 9.611c3.014 1.358 3.014 6.16 0 7.517l-21.332 9.611c-.913.411-1.637 1.226-2.003 2.254l-8.539 24.009c-1.206 3.392-5.472 3.392-6.679 0l-8.539-24.009c-.366-1.028-1.089-1.843-2.003-2.254l-21.33-9.611c-3.014-1.358-3.014-6.159 0-7.517l21.332-9.611c.913-.412 1.637-1.226 2.003-2.254l8.539-24.01c1.205-3.391 5.471-3.391 6.678.001z" fill="#b2e7f1"/><path d="m151.141 19.65c0 10.297-8.348 18.645-18.645 18.645s-18.645-8.347-18.645-18.645c0-10.297 8.348-18.645 18.645-18.645 10.298 0 18.645 8.348 18.645 18.645z" fill="#8bb6ef"/><ellipse cx="408.849" cy="7.896" fill="#8bb6ef" rx="7.896" ry="7.896" transform="matrix(.924 -.383 .383 .924 28.1 157.061)"/><path d="m470.406 3.212 6.334 17.81c.271.762.808 1.367 1.486 1.672l15.823 7.129c2.235 1.007 2.235 4.569 0 5.576l-15.823 7.129c-.677.305-1.214.909-1.486 1.672l-6.334 17.81c-.895 2.516-4.059 2.516-4.954 0l-6.334-17.81c-.271-.763-.808-1.367-1.486-1.672l-15.823-7.129c-2.236-1.007-2.236-4.569 0-5.576l15.823-7.129c.678-.305 1.214-.909 1.486-1.672l6.334-17.81c.895-2.516 4.059-2.516 4.954 0z" fill="#b2e7f1"/></g></g></svg>