<svg id="Capa_1" enable-background="new 0 0 512 512" height="512" viewBox="0 0 512 512" width="512" xmlns="http://www.w3.org/2000/svg"><g><g><path d="m408.701 488.248c14.937-6.04 30.694-12.958 33.812-29.328 4.814-25.275-11.957-30.516-9.267-51.27 2.09-16.12 23.828-21.637 22.081-51.499-2.222-37.977-27.165-49.08-41.516-80.414-15.704-34.29-23.889-75.396-51.946-95.993-29.281-21.497-69.811-15.928-106.923-15.928s-77.642-5.569-106.923 15.928c-28.056 20.598-36.241 61.703-51.946 95.993-14.35 31.334-39.294 42.437-41.516 80.414-1.747 29.862 19.991 35.378 22.081 51.499 2.69 20.753-14.08 25.995-9.267 51.27 3.118 16.37 18.875 23.288 33.812 29.328" fill="#a183e2"/><path d="m373.296 497.639v-31.997c0-65.365-52.989-118.354-118.354-118.354-65.365 0-118.354 52.989-118.354 118.354v31.997z" fill="#8bb6ef"/><path d="m249.983 442.563c2.113 2.396 5.821 2.396 7.935 0 9.514-10.783 23.433-17.586 38.944-17.586 9.433 0 20.446 3.169 28.464 7.683-12.687-26.671-39.874-45.112-71.375-45.112-31.634 0-58.913 18.6-71.53 45.454 8.578-4.251 20.271-8.026 28.619-8.026 15.51.001 29.429 6.804 38.943 17.587z" fill="#d49c8d"/><path d="m325.326 433.942c-8.018-4.514-19.031-7.683-28.464-7.683-15.511 0-29.43 6.803-38.944 17.586-2.114 2.396-5.821 2.396-7.935 0-9.514-10.783-23.433-17.586-38.944-17.586-8.348 0-20.041 3.775-28.619 8.026-4.785 10.185-7.473 21.551-7.473 33.549v30.232h158.006v-30.232c.001-12.132-2.741-23.62-7.627-33.892z" fill="#f7e266"/><path d="m221.208 396.806c-26.22 12.854-44.277 39.799-44.277 70.969v30.232h44.277z" fill="#8bb6ef"/><path d="m291.773 397.375v100.632h43.164v-30.232c0-30.725-17.551-57.334-43.164-70.4z" fill="#8bb6ef"/><path d="m289.807 476.831c-2.426 1.098-5.11 1.725-7.945 1.725h-62.176v19.51h70.122v-21.235z" fill="#ebaa66"/><path d="m174.947 478.556h46.929v19.51h-46.929z" fill="#8388ef"/><path d="m262.241 389.266c22.851 10.278 38.925 34.671 38.925 63.137v6.849c0 7.653-4.465 14.246-10.921 17.369v21.446h42.709v-30.232c0-40.833-30.978-74.425-70.713-78.569z" fill="#8388ef"/><g fill="#d49c8d"><ellipse cx="426.892" cy="300.195" rx="39.194" ry="39.195" transform="matrix(.16 -.987 .987 .16 62.193 673.489)"/><ellipse cx="82.992" cy="300.195" rx="39.194" ry="39.194" transform="matrix(.707 -.707 .707 .707 -187.962 146.61)"/><path d="m288.341 397.056h-66.798c-83.006 0-150.295-67.289-150.295-150.295 0-83.006 67.289-150.295 150.295-150.295h66.798c83.006 0 150.295 67.289 150.295 150.295.001 83.006-67.289 150.295-150.295 150.295z"/></g><path d="m288.341 96.376h-19.273c67.294 0 121.846 54.552 121.846 121.846v10.348c0 67.294-54.552 121.846-121.846 121.846h-75.974c-64.398 0-117.12-49.961-121.539-113.235-.196 3.139-.307 6.302-.307 9.49 0 83.006 67.289 150.295 150.295 150.295h66.798c83.006 0 150.295-67.289 150.295-150.295.001-83.005-67.289-150.295-150.295-150.295z" fill="#c7758d"/><path d="m55.251 269.024c-3.177-9.746-3.471-29.586-3.471-29.586 1.926-90.15 75.601-162.64 166.213-162.64h73.893c90.612 0 164.287 72.49 166.213 162.64 0 0 .413 17.488-5.521 27.377l-19.301-15.003c-38.5 12.4-88.21 2.041-128.773-30.719-23.568-19.034-40.389-42.679-49.564-67.046-9.175 24.367-25.997 48.012-49.564 67.046-40.585 32.778-90.326 43.13-128.835 30.7" fill="#a183e2"/><path d="m301.607 100.206c9.642 32.195-35.002 64.241-99.193 83.464-64.19 19.223-123.62 18.344-133.262-13.851-9.641-32.195 34.157-83.515 98.347-102.738 64.191-19.223 124.466.93 134.108 33.125z" fill="#f7e266"/><path d="m301.606 100.206c-9.641-32.195-69.917-52.348-134.107-33.125-3.879 1.162-7.682 2.443-11.405 3.828 47.967-10.74 90.521 3.668 97.414 26.684 7.403 24.719-29.135 50-81.335 65.632-47.042 14.087-90.744 15.527-104.341-2.417.035 3.13.462 6.147 1.32 9.011 9.641 32.195 69.071 33.074 133.262 13.851 64.19-19.223 108.834-51.269 99.192-83.464z" fill="#ebaa66"/><path d="m173.855 109.675c-5.92 2.068-12.433-.78-14.935-6.53l-20.286-46.625c-2.779-6.388.458-13.791 7.034-16.088l7.13-2.49c6.577-2.297 13.719 1.48 15.522 8.21l13.156 49.116c1.623 6.056-1.701 12.339-7.621 14.407z" fill="#f7e266"/></g><g><g fill="#440b29"><path d="m450.041 397.8c7.03-8.526 16.659-20.202 15.37-42.238-.452-7.73-1.767-14.479-3.66-20.545 8.915-8.925 14.437-21.241 14.437-34.822 0-12.622-4.783-24.136-12.616-32.863 4.845-11.693 4.668-26.295 4.625-28.109-.989-46.301-19.768-89.672-52.877-122.125-33.159-32.501-76.996-50.401-123.434-50.401h-5.924c-7.97-5.017-17.487-9.119-28.282-12.077-24.63-6.751-52.954-6.818-80.921-.392l-2.584-9.646c-1.294-4.83-4.571-8.941-8.991-11.278-4.42-2.338-9.663-2.732-14.383-1.085l-7.13 2.491c-4.721 1.649-8.577 5.222-10.58 9.803-2.003 4.582-2.008 9.839-.013 14.425l3.949 9.075c-20.836 9.843-39.4 23.104-53.81 38.722-19.188 20.797-28.039 42.799-24.847 61.221-10.394 22.059-16.153 46.23-16.688 71.267-.003.122-.003.244-.001.366.03 1.994.355 18.378 3.103 29.504-6.926 8.488-11.085 19.318-11.085 31.103 0 13.579 5.52 25.894 14.433 34.818-1.893 6.066-3.203 12.819-3.656 20.549-1.289 22.036 8.339 33.712 15.37 42.237 3.923 4.757 6.348 7.841 6.777 11.15.869 6.706-1.109 10.949-3.848 16.823-3.795 8.139-8.518 18.269-5.324 35.037 4.26 22.371 25.736 31.057 39.947 36.803 5.172 2.091 11.059-.406 13.151-5.577 2.092-5.172-.405-11.06-5.577-13.151-14.435-5.837-25.638-11.153-27.676-21.854-1.973-10.363.569-15.816 3.789-22.721 3.206-6.876 7.196-15.434 5.572-27.957-1.198-9.245-6.526-15.705-11.226-21.405-6.232-7.557-11.614-14.084-10.788-28.205.217-3.716.682-7.11 1.349-10.275 5.303 1.955 11.03 3.024 17.002 3.024 4.802 0 9.44-.703 13.831-1.989 14.565 17.999 32.943 32.788 53.889 43.143-15.238 21.117-24.225 47.027-24.225 74.999v31.996c0 5.579 4.522 10.101 10.101 10.101s10.101-4.522 10.101-10.101v-31.996c0-25.275 8.713-48.548 23.286-66.989 8.675 2.953 17.686 5.174 26.953 6.607-16.633 15.535-27.05 37.645-27.05 62.146v33.924c0 3.347 2.714 6.061 6.061 6.061s6.061-2.714 6.061-6.061v-33.924c0-25.124 12.783-47.299 32.173-60.42.287.013.576.019.864.031v94.918c0 3.347 2.713 6.061 6.061 6.061 3.347 0 6.061-2.714 6.061-6.061v-67.948c6.955 2.61 13.257 6.888 18.281 12.583 2.158 2.445 5.261 3.848 8.512 3.848 3.252 0 6.354-1.403 8.511-3.848 5.96-6.755 13.715-11.524 22.229-13.869v69.482c0 3.347 2.713 6.061 6.061 6.061s6.061-2.714 6.061-6.061v-94.46c18.777 13.207 31.073 35.031 31.073 59.681v33.924c0 3.347 2.713 6.061 6.061 6.061 3.347 0 6.061-2.714 6.061-6.061v-33.924c0-24.507-10.43-46.611-27.073-62.143 9.276-1.433 18.294-3.655 26.978-6.611 14.572 18.442 23.284 41.716 23.284 66.99v31.996c0 5.579 4.522 10.101 10.101 10.101s10.101-4.522 10.101-10.101v-31.996c0-27.972-8.998-53.876-24.238-74.992 20.953-10.356 39.337-25.149 53.905-43.154 4.39 1.288 9.026 1.994 13.828 1.994 5.972 0 11.699-1.069 17.002-3.023.667 3.165 1.132 6.558 1.35 10.274.826 14.12-4.556 20.647-10.788 28.205-4.7 5.7-10.028 12.16-11.226 21.405-1.623 12.523 2.366 21.081 5.573 27.957 3.219 6.905 5.762 12.359 3.789 22.721-2.038 10.701-13.242 16.016-27.676 21.854-5.172 2.091-7.669 7.979-5.577 13.151 1.59 3.932 5.373 6.317 9.368 6.317 1.261 0 2.543-.238 3.784-.739 14.211-5.747 35.687-14.432 39.947-36.803 3.194-16.768-1.529-26.898-5.324-35.038-2.738-5.873-4.717-10.117-3.848-16.823.422-3.309 2.847-6.393 6.77-11.149zm-2.04-158.139c.054 2.641-.136 6.437-.678 10.275l-7.846-6.099c-2.637-2.05-6.114-2.663-9.296-1.64-36.806 11.856-82.532.757-119.329-28.963-16.937-13.678-30.488-30.083-39.845-48.045 5.491-3.392 10.52-6.9 15.017-10.511 28.278-22.709 29.346-43.732 25.261-57.37-.999-3.336-2.414-6.555-4.201-9.644 77.342 7.641 139.226 72.882 140.917 151.997zm-368.358 2.519c-3.249-1.048-6.805-.385-9.458 1.761l-7.757 6.279c-.32-3.997-.496-7.876-.545-10.751.384-17.033 3.567-33.418 9.087-48.725 8.373 7.521 21.884 13.695 43.588 15.354 3.683.281 7.529.421 11.523.421 22.849-.001 50.482-4.563 79.231-13.172 6.805-2.038 13.355-4.21 19.65-6.493-7.399 9.56-16.091 18.434-25.933 26.382-36.823 29.738-82.57 40.828-119.386 28.944zm64.553-192.811c.667-1.525 1.899-2.667 3.471-3.216l7.13-2.491c.643-.225 1.304-.336 1.961-.336.948 0 1.889.232 2.758.692 1.471.778 2.519 2.093 2.949 3.7l13.157 49.116c.797 2.976-.857 6.103-3.765 7.119-2.91 1.015-6.15-.401-7.379-3.226l-20.286-46.625c-.665-1.526-.663-3.207.004-4.733zm-46.133 71.065c12.341-13.376 28.779-25.091 47.044-33.846l8.256 18.975c2.927 6.726 9.596 10.834 16.599 10.834 1.963 0 3.952-.323 5.892-1 8.866-3.097 13.906-12.628 11.477-21.699l-5.343-19.946c11.993-2.71 24.008-4.102 35.644-4.102 12.136 0 23.86 1.48 34.707 4.453 21.083 5.779 35.884 16.62 39.591 29 4.174 13.938-7.788 27.174-18.558 35.823-16.581 13.316-42.811 25.769-73.856 35.066-31.458 9.421-61.081 13.668-83.419 11.961-14.739-1.127-33.169-5.344-37.268-19.033-3.576-11.94 3.794-29.752 19.234-46.486zm-15.071 208.854c-16.042 0-29.093-13.051-29.093-29.094 0-8.889 4.015-16.849 10.319-22.189 3.648 18.402 10.451 35.681 19.824 51.248-.35.013-.697.035-1.05.035zm170.958 108.621c-7.28-8.008-16.588-13.726-26.792-16.68v-14.072h57.533v13.071c-11.745 2.525-22.531 8.651-30.741 17.681zm34.391-50.954h-66.798c-71.506 0-130.666-53.815-139.139-123.069 41.435 9.674 90.117-3.275 129.317-34.935 18.005-14.54 32.68-31.879 43.218-50.923 10.539 19.043 25.214 36.382 43.218 50.923 30.658 24.761 67.12 38.082 101.381 38.08 9.541 0 18.913-1.036 27.939-3.143-8.475 69.253-67.631 123.067-139.136 123.067zm137.496-57.696c9.375-15.568 16.178-32.848 19.827-51.253 6.305 5.34 10.322 13.299 10.322 22.189 0 16.043-13.051 29.094-29.094 29.094-.354-.001-.704-.017-1.055-.03z"/><path d="m165.275 292.04c-9.266 0-16.778 7.512-16.778 16.778s7.512 16.778 16.778 16.778 16.778-7.512 16.778-16.778c.001-9.266-7.511-16.778-16.778-16.778z"/><path d="m344.609 292.04c-9.266 0-16.778 7.512-16.778 16.778s7.512 16.778 16.778 16.778 16.778-7.512 16.778-16.778-7.512-16.778-16.778-16.778z"/><path d="m271.72 302.758c-3.347 0-6.061 2.714-6.061 6.061 0 5.91-4.808 10.718-10.717 10.718-5.91 0-10.718-4.808-10.718-10.718 0-3.347-2.714-6.061-6.061-6.061s-6.061 2.714-6.061 6.061c0 12.593 10.246 22.839 22.839 22.839s22.839-10.246 22.839-22.839c.001-3.348-2.713-6.061-6.06-6.061z"/><path d="m412.096 226.607c3.347 0 6.061-2.714 6.061-6.061v-10.562c0-3.347-2.714-6.061-6.061-6.061s-6.061 2.714-6.061 6.061v10.562c0 3.347 2.714 6.061 6.061 6.061z"/><path d="m382.375 197.483c3.347 0 6.061-2.714 6.061-6.061v-10.561c0-3.347-2.714-6.061-6.061-6.061s-6.061 2.714-6.061 6.061v10.561c0 3.347 2.714 6.061 6.061 6.061z"/><path d="m214.502 149.465c.089 0 .18-.002.27-.006 3.344-.147 5.936-2.977 5.789-6.321l-.474-10.806c-.146-3.344-2.971-5.946-6.321-5.789-3.344.147-5.936 2.977-5.789 6.321l.475 10.807c.142 3.253 2.825 5.794 6.05 5.794z"/><path d="m243.727 124.943c.089 0 .18-.002.27-.006 3.344-.146 5.936-2.976 5.789-6.32l-.474-10.807c-.146-3.344-2.992-5.937-6.32-5.789-3.344.146-5.936 2.976-5.789 6.32l.474 10.807c.142 3.253 2.824 5.795 6.05 5.795z"/></g><path d="m106.398 152.775c-1.358 0-2.738-.275-4.061-.857-5.107-2.246-7.426-8.206-5.18-13.313 5.262-11.964 16.117-19.297 24.838-25.188l.203-.137c4.623-3.124 10.902-1.907 14.025 2.715s1.907 10.902-2.715 14.025l-.203.138c-7.247 4.896-14.741 9.958-17.654 16.581-1.665 3.782-5.369 6.036-9.253 6.036z" fill="#fff"/></g><g><path d="m477.703 29.968 8.58 24.125c.367 1.033 1.095 1.851 2.012 2.265l21.434 9.657c3.028 1.364 3.028 6.189 0 7.553l-21.434 9.657c-.918.413-1.645 1.232-2.012 2.265l-8.58 24.125c-1.212 3.408-5.499 3.408-6.711 0l-8.58-24.125c-.367-1.033-1.095-1.851-2.012-2.265l-21.434-9.657c-3.028-1.364-3.028-6.189 0-7.553l21.434-9.657c.918-.414 1.645-1.232 2.012-2.265l8.58-24.125c1.212-3.408 5.499-3.408 6.711 0z" fill="#fbf2a8"/><ellipse cx="363.344" cy="22.488" fill="#f7e266" rx="18.734" ry="18.735" transform="matrix(.16 -.987 .987 .16 282.945 377.538)"/><circle cx="7.934" cy="104.31" fill="#f7e266" r="7.934"/><path d="m57.035 10.562 6.364 17.896c.272.766.812 1.373 1.493 1.68l15.899 7.163c2.246 1.012 2.246 4.591 0 5.603l-15.899 7.163c-.681.307-1.22.914-1.493 1.68l-6.364 17.896c-.899 2.528-4.079 2.528-4.978 0l-6.364-17.896c-.272-.766-.812-1.373-1.493-1.68l-15.9-7.163c-2.246-1.012-2.246-4.591 0-5.603l15.9-7.163c.681-.307 1.22-.914 1.493-1.68l6.364-17.896c.899-2.529 4.079-2.529 4.978 0z" fill="#fbf2a8"/></g></g></svg>