<svg id="Capa_1" enable-background="new 0 0 512 512" height="512" viewBox="0 0 512 512" width="512" xmlns="http://www.w3.org/2000/svg"><g><g><path d="m382.252 377.045h-256.043c-23.346 0-42.271-18.925-42.271-42.271v-125.606h340.585v125.606c0 23.346-18.926 42.271-42.271 42.271z" fill="#f7e266"/><path d="m362.828 441.16v-29.074c0-59.394-48.149-107.543-107.543-107.543-59.394 0-107.543 48.149-107.543 107.543v29.074z" fill="#e58bbd"/><path d="m327.072 441.16v-27.471c0-39.647-32.14-71.787-71.787-71.787-39.647 0-71.787 32.14-71.787 71.787v27.471z" fill="#fff"/><path d="m262.818 341.898c20.764 9.339 35.37 31.504 35.37 57.369v6.224c0 9.688-7.854 17.541-17.541 17.541h-97.148v17.728h143.574v-27.47c-.001-37.103-28.15-67.626-64.255-71.392z" fill="#eebdfa"/><circle cx="411.529" cy="261.75" fill="#f1c7b6" r="35.614"/><circle cx="99.041" cy="261.75" fill="#f1c7b6" r="35.614"/><path d="m285.633 349.764h-60.697c-75.424 0-136.567-61.143-136.567-136.567 0-75.424 61.143-136.567 136.567-136.567h60.697c75.424 0 136.567 61.143 136.567 136.567 0 75.424-61.143 136.567-136.567 136.567z" fill="#f1c7b6"/><path d="m285.633 76.549h-17.513c61.147 0 110.716 49.569 110.716 110.716v9.402c0 61.147-49.569 110.716-110.716 110.716h-69.035c-58.516 0-106.423-45.397-110.438-102.892-.178 2.852-.279 5.726-.279 8.623 0 75.424 61.143 136.567 136.567 136.567h60.697c75.424 0 136.567-61.143 136.567-136.567.001-75.422-61.142-136.565-136.566-136.565z" fill="#e795b6"/><path d="m402.095 274.462c15.556-9.63 28.89-24.445 30.587-49.801v-15.285c0-84.649-68.622-153.27-153.271-153.27h-50.326c-84.649 0-153.271 68.621-153.271 153.27v15.285c1.081 26.837 17.131 41.159 28.489 50.542l31.089-98.912 14.785 10.369c13.152 9.223 30.755 8.894 43.553-.814l18.709-14.191 19.456 14.303c13.243 9.736 31.325 9.555 44.37-.444l21.4-16.403 19.917 14.991c14.251 10.727 34.131 9.743 47.254-2.338l7.504-6.909z" fill="#f7e266"/><g fill="#84eac4"><path d="m394.974 383.346c1.956 14.144-3.065 26.524-11.216 27.651-8.15 1.127-16.343-9.425-18.298-23.57-1.956-14.144 3.065-26.524 11.216-27.651 8.149-1.127 16.342 9.425 18.298 23.57z"/><path d="m416.554 416.071c-7.985 11.837-19.988 17.703-26.809 13.102s-5.877-17.927 2.108-29.764 19.988-17.703 26.809-13.102 5.877 17.927-2.108 29.764z"/><ellipse cx="317.083" cy="479.597" rx="14.897" ry="25.854" transform="matrix(.753 -.658 .658 .753 -237.265 327.108)"/><path d="m106.113 475.792c13.921 3.175 23.724 12.251 21.894 20.273-1.829 8.022-14.598 11.951-28.519 8.776s-23.724-12.251-21.895-20.273c1.83-8.022 14.598-11.951 28.52-8.776z"/><path d="m198.795 503.928c-13.61 4.318-26.66 1.461-29.148-6.382-2.488-7.842 6.528-17.7 20.139-22.018 13.61-4.318 26.661-1.461 29.149 6.382 2.487 7.842-6.529 17.7-20.14 22.018z"/><path d="m142.308 400.605c-4.446 13.569-14.389 22.492-22.208 19.93s-10.552-15.639-6.106-29.207c4.446-13.569 14.389-22.492 22.207-19.93 7.82 2.561 10.553 15.638 6.107 29.207z"/></g><path d="m118.71 471.97-4.878-10.992c.616-1.01 1.163-2.078 1.604-3.221 3.959-10.276-1.162-21.815-11.438-25.773-1.143-.44-2.303-.751-3.465-.972l-6.054-13.641c-1.552-3.497-5.645-5.074-9.143-3.522l-13.302 5.904c-.456-.216-.911-.433-1.39-.617-10.276-3.959-21.815 1.163-25.773 11.438-.184.479-.329.962-.475 1.445l-13.659 6.062c-3.497 1.552-5.074 5.645-3.522 9.142l5.897 13.287c-.369.698-.712 1.416-1.003 2.171-3.958 10.276 1.163 21.814 11.438 25.773.755.291 1.518.518 2.283.712l5.617 12.656c1.552 3.497 5.645 5.074 9.142 3.522l12.928-5.738c1.055.657 2.18 1.232 3.383 1.696 10.275 3.959 21.814-1.163 25.773-11.439.463-1.203.791-2.423 1.012-3.646l11.503-5.105c3.497-1.552 5.074-5.645 3.522-9.142z" fill="#f0c4db"/><path d="m199.537 425.556c-3.824-9.093-14.295-13.363-23.387-9.539-7.29 3.066-18.606 20.272-22.809 26.979-.139-.05-.276-.099-.397-.142 3.993-5.738 16.373-24.207 16.291-32.482-.099-9.863-8.174-17.779-18.038-17.681-9.863.099-17.779 8.174-17.681 18.038.082 8.185 12.553 26.095 16.796 31.957-.115.043-.243.091-.372.139-4.349-6.705-15.85-23.599-23.153-26.542-9.149-3.686-19.554.741-23.241 9.89s.741 19.555 9.89 23.241c4.42 1.782 13.496.943 21.7-.397-7.289 3.418-14.789 7.629-17.354 11.433-5.514 8.179-3.354 19.279 4.824 24.793s19.279 3.355 24.793-4.824c3.778-5.603 4.362-21.461 4.355-30.895.114 9.401.9 25.477 4.788 31.075 5.628 8.101 16.757 10.106 24.858 4.478s10.106-16.757 4.478-24.858c-2.676-3.852-10.512-8.055-17.998-11.408 8.33 1.254 17.651 2.011 22.118.132 9.092-3.823 13.363-14.294 9.539-23.387zm-47.823 19.038s.019-.026.034-.047c-.003.316-.006.671-.008 1.048-.014.023-.015.026-.023.039-.007-.384-.015-.74-.022-1.067.005.008.019.027.019.027zm.023 2.356c-.005-.451-.012-.867-.019-1.264.005.001.013.003.022.005-.002.392-.004.81-.003 1.259z" fill="#fff"/><ellipse cx="151.699" cy="443.106" fill="#f7e266" rx="16.135" ry="16.135" transform="matrix(.173 -.985 .985 .173 -310.932 516.097)"/><path d="m478.186 437.965-13.659-6.062c-.145-.483-.29-.966-.474-1.445-3.958-10.276-15.497-15.397-25.773-11.438-.479.184-.934.401-1.39.618l-13.302-5.904c-3.497-1.552-7.59.025-9.142 3.522l-6.054 13.641c-1.162.221-2.322.532-3.465.972-10.276 3.959-15.397 15.497-11.438 25.773.44 1.143.988 2.211 1.603 3.221l-4.878 10.992c-1.552 3.497.025 7.59 3.522 9.143l11.503 5.105c.221 1.223.548 2.443 1.012 3.646 3.959 10.276 15.497 15.397 25.773 11.439 1.203-.464 2.327-1.039 3.383-1.696l12.928 5.738c3.497 1.552 7.59-.025 9.142-3.522l5.617-12.656c.765-.194 1.528-.421 2.283-.712 10.276-3.959 15.397-15.497 11.439-25.773-.291-.755-.634-1.473-1.003-2.171l5.897-13.287c1.55-3.499-.027-7.593-3.524-9.144z" fill="#f0c4db"/><path d="m394.304 434.962c-4.149-1.959-12.747-1.746-20.76-.958 7.737-3.04 15.966-6.959 18.855-10.749 5.98-7.845 4.468-19.051-3.376-25.031-7.845-5.98-19.052-4.469-25.031 3.376-4.773 6.261-6.026 26.661-6.337 34.646-.135.025-.27.049-.391.071.652-7.207 2.219-28.975-1.894-36.053-4.956-8.529-15.887-11.425-24.416-6.469s-11.425 15.887-6.469 24.415c4.158 7.155 24.238 16.703 30.602 19.595-.082.099-.175.211-.269.324-7.04-3.616-25.56-12.623-33.393-11.533-9.77 1.359-16.587 10.382-15.228 20.152 1.36 9.77 10.382 16.587 20.152 15.228 4.8-.668 12.425-6.082 18.944-11.417-4.721 6.708-9.309 14.326-9.64 19.004-.698 9.839 6.713 18.381 16.553 19.079 9.839.698 18.381-6.713 19.078-16.552.482-6.797-7.054-21.01-11.76-29.151 4.816 8.113 13.419 21.439 19.528 24.323 8.919 4.212 19.564.396 23.776-8.524 4.211-8.919.395-19.564-8.524-23.776zm-37.324 3.689c.024.01.053.023.053.023s.003-.024.004-.033c.16.285.336.594.526.928-.014-.007-.017-.009-.04-.022-.195-.322-.379-.626-.543-.896zm.591.979c.007-.006.013-.012.016-.016.196.343.402.704.627 1.092-.227-.384-.441-.742-.643-1.076z" fill="#fff"/><path d="m342.173 445.587c4.529 7.794 14.518 10.44 22.312 5.911s10.44-14.518 5.911-22.312-14.518-10.44-22.312-5.911c-7.793 4.529-10.44 14.519-5.911 22.312z" fill="#f7e266"/><path d="m299.892 422.462-17.218-6.726c-.203-.579-.421-1.155-.672-1.726-5.341-12.19-19.552-17.742-31.742-12.401-.571.25-1.122.526-1.664.814l-17.657-6.898c-3.835-1.498-8.159.396-9.658 4.232l-6.721 17.205c-.915.277-1.824.604-2.722.998-12.19 5.341-17.742 19.552-12.4 31.742.393.897.84 1.754 1.325 2.578l-6.418 16.43c-1.498 3.835.396 8.159 4.232 9.657l16.768 6.55c.333 1.466.804 2.922 1.43 4.35 5.341 12.189 19.553 17.742 31.742 12.4 1.428-.626 2.761-1.378 4-2.229l15.013 5.865c3.836 1.498 8.159-.397 9.658-4.232l5.616-14.376c1.393-.33 2.777-.783 4.136-1.378 12.19-5.341 17.742-19.552 12.401-31.742-.595-1.358-1.306-2.629-2.107-3.817l6.891-17.639c1.497-3.835-.398-8.158-4.233-9.657z" fill="#e58bbd"/></g><g><g fill="#440b29"><circle cx="173.808" cy="269.586" r="15.246"/><circle cx="336.761" cy="269.586" r="15.246"/><path d="m164.183 229.873c.043-.022 4.44-2.175 9.625-2.175 5.184 0 9.582 2.153 9.597 2.16.883.45 1.822.664 2.749.664 2.205 0 4.331-1.208 5.402-3.306 1.521-2.981.337-6.63-2.643-8.151-.699-.357-7.06-3.485-15.106-3.485s-14.407 3.128-15.106 3.485c-2.969 1.516-4.141 5.137-2.642 8.114 1.501 2.977 5.137 4.175 8.124 2.694z"/><path d="m327.135 229.873c.044-.022 4.442-2.175 9.626-2.175 5.185 0 9.582 2.153 9.597 2.16.882.45 1.822.664 2.75.664 2.204 0 4.33-1.208 5.401-3.306 1.522-2.981.339-6.63-2.642-8.152-.698-.357-7.059-3.485-15.106-3.485-8.046 0-14.406 3.128-15.106 3.485-2.969 1.515-4.141 5.136-2.642 8.113 1.497 2.978 5.135 4.178 8.122 2.696z"/><path d="m255.285 290.891c11.748 0 21.305-9.557 21.305-21.305 0-3.346-2.713-6.059-6.059-6.059s-6.059 2.713-6.059 6.059c0 5.066-4.121 9.186-9.187 9.186-5.065 0-9.186-4.121-9.186-9.186 0-3.346-2.713-6.059-6.059-6.059s-6.059 2.713-6.059 6.059c-.001 11.747 9.556 21.305 21.304 21.305z"/><path d="m480.643 432.427-11.326-5.027c-2.588-6.056-7.272-10.852-13.325-13.538-6.06-2.69-12.775-2.966-19.009-.813l-9.905-4.396c1.174-3.298 1.901-6.595 2.125-9.75.549-7.76-2.058-14.182-7.154-17.62-2.439-1.645-5.238-2.466-8.218-2.55 13.659-9.84 22.571-25.878 22.571-43.96v-34.702c12.53-8.161 20.837-22.286 20.837-38.322 0-12.441-5.013-23.718-13.107-31.963.167-1.427.304-2.87.402-4.333.018-.264.027-.528.027-.793v-15.285c0-91.065-74.087-165.152-165.152-165.152h-50.326c-91.065 0-165.153 74.087-165.153 165.152v15.285c0 .159.003.319.01.478.093 2.319.293 4.554.57 6.722-6.955 8.021-11.184 18.465-11.184 29.889 0 15.12 7.384 28.542 18.729 36.869v36.155c0 23.994 15.698 44.364 37.355 51.449-.422 1.044-.815 2.116-1.176 3.217-2.788 8.51-3.07 16.805-1.267 23.437-2.134 1.398-4.021 3.111-5.594 5.098l-1.358-3.061c-1.406-3.171-3.965-5.604-7.202-6.852-3.238-1.247-6.766-1.158-9.936.249l-10.94 4.855c-6.234-2.152-12.947-1.878-19.008.813-6.052 2.685-10.736 7.481-13.324 13.537l-11.326 5.027c-3.171 1.407-5.604 3.965-6.851 7.202s-1.159 6.766.249 9.937l4.79 10.793c-.004.01-.009.019-.013.029-5.153 13.377 1.539 28.452 14.915 33.605.009.003.019.006.029.01l4.51 10.162c2.148 4.839 6.908 7.719 11.89 7.719 1.757 0 3.543-.359 5.25-1.116l10.241-4.545c.472.215.944.43 1.434.618 3.035 1.169 6.197 1.752 9.355 1.752 1.925 0 3.846-.224 5.737-.656 2.62 1.115 5.412 2.032 8.327 2.697 3.662.835 7.329 1.251 10.855 1.251 3.938 0 7.698-.52 11.068-1.557 7.435-2.288 12.483-7.038 13.85-13.031.238-1.042.348-2.088.355-3.134.963-.07 1.926-.177 2.889-.364 5.987-1.165 11.18-4.508 14.747-9.416 2.894 3.97 6.854 6.886 11.424 8.472-.275 2.158-.122 4.315.542 6.408 1.859 5.859 7.283 10.174 14.883 11.838 2.394.524 4.954.783 7.611.783 4.587 0 9.463-.774 14.262-2.296 6.412-2.034 12.148-5.247 16.499-9.171 2.982 3.097 6.622 5.542 10.746 7.154 3.559 1.39 7.272 2.083 10.981 2.083 4.111 0 8.216-.852 12.095-2.551.733-.321 1.444-.676 2.143-1.049l12.233 4.779h.001c1.595.623 3.258.934 4.92.934 1.843 0 3.682-.382 5.421-1.143 3.306-1.449 5.85-4.099 7.164-7.461l4.542-11.626c.671-.24 1.339-.495 1.998-.784 2.537-1.111 4.867-2.546 6.959-4.248 1.406 2.304 3.06 4.577 4.974 6.767 7.883 9.019 17.726 14.016 26.028 14.016 4.101 0 7.826-1.219 10.751-3.776 3.081-2.691 4.895-6.561 5.324-11.094 2.601 1.205 5.425 1.944 8.37 2.152.574.041 1.143.061 1.709.061 12.234 0 22.605-9.358 23.775-21.656 2.06.884 4.18 1.455 6.308 1.732.018 1.522.294 3.046.858 4.509 1.247 3.237 3.681 5.794 6.851 7.202l8.802 3.907c.158.497.327.993.516 1.484 2.495 6.48 7.366 11.601 13.713 14.418 3.375 1.498 6.952 2.25 10.537 2.249 3.157 0 6.321-.583 9.355-1.751.486-.187.947-.413 1.417-.627l10.257 4.552c1.708.758 3.492 1.117 5.251 1.117 4.98 0 9.742-2.88 11.89-7.718l4.51-10.162c.01-.003.02-.006.029-.01 13.376-5.153 20.066-20.228 14.914-33.605-.004-.01-.009-.018-.012-.028l4.79-10.794c2.904-6.547-.058-14.235-6.604-17.138zm-4.473 12.222-2.027 4.567c-1.331-1.03-2.767-1.932-4.3-2.699.596-1.632 1.045-3.318 1.306-5.046l4.58 2.033c.437.194.635.708.441 1.145zm-191.664 35.119c-4.082 1.789-8.469 1.925-12.432.724 5.496-4.158 9.76-9.756 12.331-16.338 2.039-5.22 2.877-10.708 2.527-16.14 3.013 1.903 5.394 4.655 6.856 7.992 1.933 4.413 2.033 9.315.28 13.803-1.752 4.489-5.149 8.025-9.562 9.959zm-83.726-7.045c-.445-.173-.665-.499-.77-.74-.105-.242-.195-.623-.022-1.069l2.817-7.211c2.314 1.823 4.91 3.314 7.731 4.416.124.049.251.09.376.137-.05.123-.107.243-.155.367-.926 2.371-1.541 4.812-1.85 7.274zm-48.98-19.542c-5.54.056-10.121-4.419-10.177-9.975-.055-5.556 4.419-10.121 9.975-10.177h.102c5.509 0 10.019 4.454 10.074 9.976.056 5.555-4.418 10.121-9.974 10.176zm-42.384 23.864c-.247-1.1-.562-2.181-.948-3.237.14-.07.277-.145.415-.217.063.471.136.943.228 1.413.13.666.3 1.317.482 1.963zm-55.276-24.699c1.152-2.99 2.968-5.594 5.276-7.684l-1.567 9.546-4.934 7.408c-.313-3.052.049-6.217 1.225-9.27zm65.612-59.132c3.411-10.409 10.049-16.189 13.689-16.189.315 0 .607.043.874.13 2.489.816 4.552 6.109 3.917 13.426-6.374 4.209-10.613 11.378-10.766 19.513-2.939-.955-5.988-1.327-9.01-1.115-.867-3.932-.753-9.512 1.296-15.765zm-3.693-115.784 25.801-82.091 1.496 1.049c17.448 12.236 40.577 11.803 57.555-1.075l11.64-8.829 12.307 9.047c17.39 12.785 41.502 12.546 58.636-.587l14.237-10.912 12.706 9.563c16.541 12.45 38.802 12.967 55.728 2.1l24.545 82.169c.349 1.168.885 2.25 1.551 3.237-22.481 35.183-61.869 58.566-106.629 58.566h-60.697c-46.295-.002-86.838-25.021-108.876-62.237zm255.403 109.167c-.791-5.721-.269-11.407 1.431-15.6 1.233-3.039 2.957-4.99 4.613-5.219.111-.015.226-.023.343-.023 3.543 0 9.544 7.011 11.123 18.421.348 2.52.423 4.884.302 7.058-5.435-2.844-11.636-3.413-17.326-1.88-.194-.905-.358-1.825-.486-2.757zm84.546 74.902-4.934-7.408-1.567-9.546c2.308 2.09 4.124 4.694 5.276 7.684 1.176 3.054 1.537 6.219 1.225 9.27zm-23.275-1.373-2.335-3.294 3.68-.544 4.593-2.946.869 5.292 1.977 2.969-3.799.361-4.312 3.042zm-3.006-15.445-8.74 1.293c2.096-2.328 4.715-4.158 7.724-5.317 2.354-.907 4.808-1.359 7.258-1.359.663 0 1.326.038 1.987.104zm-22.622-7.16c1.948-.751 3.996-1.033 6.02-.88-1.626 1.627-3.081 3.426-4.334 5.385-.609-1.482-1.366-2.904-2.262-4.243.193-.085.377-.185.576-.262zm14.898-11.075c-1.436-.593-2.904-1.057-4.394-1.384l2.375-5.351c.12-.271.328-.398.481-.457.082-.032.189-.06.314-.06.107 0 .225.02.351.076l4.226 1.876c-1.315 1.608-2.44 3.382-3.353 5.3zm-181.634 20.169 6.038-1.181 6.627-4.711 1.721 8.065 3.721 5.062-6.541 1.082-6.176 4.633-1.344-8.006zm1.146-12.572-13.992 2.737c2.708-4.331 6.64-7.756 11.42-9.85 3.338-1.463 6.823-2.155 10.254-2.155 1.591 0 3.168.165 4.717.455zm-97.257-11.842c-2.794-5.024-4.662-9.31-4.684-11.533-.065-6.507 5.176-11.853 11.682-11.918h.12c6.452 0 11.734 5.217 11.798 11.684.023 2.223-1.759 6.544-4.452 11.624-2.209-.739-4.567-1.146-7.018-1.146-.075 0-.151 0-.226.001-2.532.025-4.959.481-7.22 1.288zm43.39 21.157c-2.205.927-7.448.842-13.764.139.003-.204.011-.407.009-.613 0-.001 0-.001 0-.001-.048-4.751-1.598-9.139-4.186-12.727 3.548-4.415 6.76-7.699 8.792-8.554 2.905-1.222 6.113-1.238 9.032-.049 2.905 1.185 5.177 3.427 6.403 6.314-1.788 4.059-2.682 8.502-2.562 13.004-1.057 1.046-2.312 1.894-3.724 2.487zm17.339 3.913c-3.991-9.11.173-19.769 9.282-23.761 2.348-1.029 4.8-1.516 7.214-1.516.896 0 1.786.073 2.665.205-9.263 8.248-13.935 20.658-12.365 32.999-2.903-1.85-5.312-4.542-6.796-7.927zm72.848-21.511c-8.006-9.276-20.129-14.107-32.302-12.917 1.799-2.404 4.216-4.395 7.159-5.684 2.348-1.029 4.8-1.516 7.213-1.516 6.949 0 13.584 4.038 16.547 10.799 1.305 2.977 1.754 6.174 1.383 9.318zm-45.64-13.896c-2.686-1.021-5.514-1.659-8.402-1.884l3.132-8.018c.174-.445.498-.665.74-.771s.623-.196 1.068-.022l8.067 3.151c-1.877 2.249-3.43 4.781-4.605 7.544zm40.525 28.26c2.095 4.782 2.67 9.968 1.724 14.989l-8.381-11.403-3.201-14.995c4.217 2.639 7.715 6.519 9.858 11.409zm15.3-5.47c1.209-3.093 1.882-6.305 2.04-9.528l7.627 2.98c.718.281 1.073 1.092.793 1.81l-3.487 8.925c-2.06-1.491-4.321-2.733-6.752-3.683-.125-.049-.251-.088-.377-.136.05-.123.107-.243.156-.368zm21.874-9.775c-1.271-3.561-4.006-6.58-7.797-8.061l-14.798-5.781c-3.282-7.112-9.078-12.587-16.394-15.446-7.317-2.858-15.29-2.762-22.524.242l-15.237-5.952c-3.364-1.314-7.036-1.239-10.341.21-3.306 1.449-5.85 4.099-7.164 7.461l-5.727 14.66c-.167.07-.338.124-.504.197-2.924 1.282-5.54 2.977-7.817 4.983-2.492-3.081-5.708-5.522-9.481-7.061-.79-.322-1.592-.598-2.4-.832 1.304-20.617 12.147-38.681 28.164-49.812 2.342.112 4.696.175 7.065.175h60.697c2.361 0 4.708-.063 7.043-.174 12.871 8.936 22.404 22.342 26.336 37.961-3.867 7.007-4.127 15.785.033 23.239-3.338.686-6.446 2.034-9.154 3.991zm4.578 12.294c1.9-2.515 4.666-4.139 7.788-4.574.229-.032.481-.047.757-.047 2.331 0 6.317 1.107 10.992 2.844-.419 4.584.565 9.175 2.925 13.236.107.185.234.352.345.533-5.014 3.779-9.418 6.484-11.766 6.811-3.119.435-6.225-.372-8.741-2.273-2.515-1.9-4.139-4.666-4.574-7.788-.433-3.123.373-6.227 2.274-8.742zm24.865-14.382c-4.836-2.955-8.508-5.721-9.614-7.624-3.269-5.626-1.352-12.864 4.274-16.133 2.726-1.584 5.903-2.011 8.952-1.204 3.046.808 5.597 2.753 7.18 5.478 1.106 1.903 1.692 6.462 1.865 12.127-2.415.474-4.764 1.328-6.954 2.601s-4.095 2.892-5.703 4.755zm29.473-17.517c2.32-3.043 5.839-4.643 9.399-4.643 2.495 0 5.009.786 7.141 2.411 2.507 1.911 4.119 4.684 4.54 7.808.422 3.124-.398 6.224-2.31 8.732-1.441 1.89-5.975 4.404-11.747 6.922-.067-.12-.128-.242-.198-.362-2.382-4.099-5.928-7.247-10.172-9.146.876-5.561 2.019-9.981 3.347-11.722zm-22.757-19.158c-5.853-1.55-11.946-.85-17.27 1.961-4.032-11.526-10.708-21.815-19.292-30.157 7.777-1.278 15.349-3.171 22.667-5.626 7.993 10.254 13.986 22.137 17.381 35.065-1.124-.49-2.279-.923-3.486-1.243zm-145.008-28.204c-13.547 13.175-22.32 31.226-23.467 51.29-.774.184-1.541.408-2.301.671-.271-9.598-6.204-17.774-14.55-21.335 3.335-13.386 9.457-25.677 17.693-36.242 7.304 2.449 14.862 4.338 22.625 5.616zm-85.555 64.078c1.485-.632 3.051-.949 4.618-.949 1.492 0 2.986.287 4.412.862 0 0 .001 0 .001.001 2.054.827 5.345 4.105 8.987 8.511-2.56 3.659-4.051 8.117-4.003 12.913.001.131.01.26.014.391-6.329.804-11.593.972-13.82.075-2.923-1.178-5.213-3.425-6.448-6.325-1.234-2.9-1.264-6.108-.086-9.032 1.178-2.923 3.425-5.213 6.325-6.447zm-5.378 32.557c-.103.345-.2.692-.331 1.032-.964 2.503-2.594 4.543-4.593 6.047.239-3.824-.219-7.614-1.289-11.206 1.821 1.679 3.91 3.068 6.213 4.127zm-18.327 12.3c-1.163 3.019-3.001 5.646-5.341 7.746l1.346-9.759 5.212-7.353c.331 3.082-.029 6.281-1.217 9.366zm-22.402-8.097.869-5.292 4.593 2.946 3.68.544-2.334 3.293-.674 4.879-4.312-3.042-3.799-.361zm26.391-21.992c.242-.019.485-.033.727-.038.054.328.112.655.18.981-.294-.321-.598-.634-.907-.943zm-22.819 2.657c2.449 0 4.903.452 7.257 1.359 3.055 1.177 5.645 3.033 7.699 5.313l-8.716-1.289-8.229-5.279c.662-.066 1.326-.104 1.989-.104zm-6.103 34.425 8.238 5.811c-3.144.337-6.343-.063-9.378-1.232-3.107-1.197-5.737-3.094-7.807-5.429zm6.825 18.044c4.216-.093 8.413-1.013 12.383-2.775 4.577-2.031 8.53-5.032 11.652-8.762.421 2.39.242 4.913-.692 7.338-1.333 3.459-3.934 6.192-7.322 7.696-3.391 1.504-7.161 1.599-10.62.265-2.152-.828-3.975-2.139-5.401-3.762zm117.177-35.121c-.329-.474-.725-.946-1.148-1.418.959-.218 1.851-.484 2.64-.816.436-.183.849-.402 1.27-.608l-1.741 4.456c-.319-.548-.655-1.088-1.021-1.614zm34.895 3.943-.001-.001c-2.088-4.766-2.667-9.932-1.734-14.938l8.984 10.975 2.581 15.372c-4.323-2.707-7.739-6.635-9.83-11.408zm31.088 5.699 14.095-2.332c-2.707 4.321-6.635 7.737-11.408 9.828-4.779 2.094-9.963 2.67-14.981 1.726zm96.82-19.098c-2.65-.702-4.867-2.394-6.245-4.764 0 0 0 0 0-.001-1.378-2.37-1.75-5.134-1.047-7.783.702-2.65 2.395-4.867 4.764-6.245 1.587-.922 3.351-1.393 5.138-1.393.883 0 1.77.115 2.646.347 2.65.702 4.867 2.394 6.245 4.764 2.842 4.892 1.176 11.185-3.717 14.029-2.369 1.376-5.135 1.747-7.784 1.046zm42.111-18.779c.064.191.128.382.189.573-.186-.072-.369-.144-.564-.211.13-.12.252-.241.375-.362zm20.139 28.818 5.226 7.372 1.343 9.734c-2.292-2.057-4.157-4.656-5.338-7.721-1.17-3.038-1.569-6.239-1.231-9.385zm26.164 16.377 8.947-.85c-2.07 2.335-4.7 4.232-7.807 5.429-3.083 1.188-6.279 1.547-9.358 1.218zm26.165-13.596c1.256 1.311 2.252 2.869 2.925 4.615 2.75 7.142-.823 15.19-7.964 17.941-1.894.73-3.851 1.009-5.756.898 6.685-5.971 10.605-14.513 10.795-23.454zm-17.159-35.188c3.389 1.504 5.989 4.237 7.322 7.696.573 1.488.869 3.015.917 4.525-2.875-3.008-6.339-5.455-10.256-7.193-4.083-1.812-8.406-2.737-12.743-2.783 1.21-1.057 2.598-1.916 4.142-2.51 3.458-1.333 7.231-1.24 10.618.265zm-33.961-26.891c-.319 4.512-2.355 9.847-5.585 14.635-3.231 4.789-7.414 8.674-11.478 10.66-.253.124-.495.215-.742.322 2.351-4.395 3.269-9.398 2.59-14.435-.436-3.234-1.51-6.277-3.125-9.002 5.115-6.373 10.989-9.419 14.461-9.419.832 0 1.527.174 2.038.52 1.384.935 2.073 3.447 1.841 6.719zm-4.475-63.274c0 12.777-7.932 23.717-19.126 28.198-4.749-6.495-11.115-10.106-17.669-9.198-5.427.75-10.118 4.505-13.146 10.415-3.143-7.021-6.949-13.68-11.347-19.896 18.573-9.35 34.895-22.535 47.929-38.506 3.899 1.089 8.005 1.676 12.246 1.676.373 0 .742-.019 1.112-.028v27.339zm24.403-73.024c0 13.85-11.095 25.15-24.863 25.499 1.661-2.827 3.229-5.716 4.702-8.66 8.324-6.581 14.808-14.247 19.413-22.961.487 1.961.748 4.011.748 6.122zm-349.348-52.374c0-77.962 63.427-141.389 141.389-141.389h50.326c77.961 0 141.388 63.427 141.388 141.389v14.871c-.876 12.06-4.874 21.843-12.36 29.94l-24.713-82.733c-1.173-3.926-4.285-6.97-8.236-8.056-1.04-.286-2.098-.425-3.148-.425-2.944 0-5.827 1.095-8.048 3.141l-7.504 6.908c-8.905 8.199-22.388 8.868-32.061 1.587l-19.917-14.991c-4.262-3.207-10.14-3.182-14.373.063l-21.4 16.402c-8.795 6.741-21.174 6.866-30.105.301l-19.456-14.303c-4.24-3.116-10.025-3.075-14.218.107l-18.71 14.192c-8.716 6.612-20.592 6.834-29.55.552l-14.785-10.369c-3.102-2.175-7.053-2.741-10.643-1.523-3.587 1.218-6.379 4.074-7.515 7.688l-25.344 80.638c-6.022-7.344-10.463-16.401-11.017-28.955zm9.034 74.981c.541.971 1.094 1.935 1.657 2.892-13.768-.349-24.862-11.649-24.862-25.499 0-.97.057-1.927.163-2.869 7.329 12.484 17.068 20.542 23.042 25.476zm-.909 50.417v-27.437c1.065.075 2.136.126 3.22.126 4.241 0 8.342-.596 12.24-1.684 13.035 15.974 29.36 29.163 47.936 38.515-4.602 6.504-8.566 13.487-11.789 20.869h-11.229c-1.805-.335-3.644-.326-5.482 0h-4.508c-16.756 0-30.388-13.632-30.388-30.389zm-7.677 84.537c.124 0 .232.028.314.06.153.059.361.186.481.458l2.382 5.367c-1.49.325-2.958.785-4.395 1.378-.914-1.923-2.041-3.7-3.359-5.311l4.227-1.876c.125-.056.243-.076.35-.076zm-30.298 5.744c1.802-.8 3.711-1.201 5.625-1.201 1.684 0 3.374.311 4.994.936 1.543.594 2.931 1.453 4.138 2.51-4.335.047-8.657.971-12.74 2.783-3.91 1.735-7.368 4.176-10.239 7.177.048-1.504.329-3.025.9-4.508 1.334-3.459 3.933-6.193 7.322-7.697zm-25.109 19.046c.059-.153.186-.361.458-.481l4.582-2.034c.262 1.728.698 3.42 1.295 5.051-1.53.765-2.963 1.667-4.291 2.694l-2.027-4.567c-.122-.271-.076-.51-.017-.663zm5.025 20.757c.673-1.745 1.669-3.304 2.924-4.614.191 8.938 4.108 17.479 10.791 23.449-1.904.111-3.859-.165-5.752-.895-7.142-2.749-10.714-10.798-7.963-17.94zm19.704 34.964c-.153-.059-.361-.186-.481-.458l-1.745-3.931c1.846-.33 3.646-.858 5.37-1.57.638 1.341 1.401 2.621 2.26 3.839l-4.739 2.103c-.271.121-.512.076-.665.017zm64.634-5.104c-.372 1.629-2.465 3.178-5.6 4.142-3.541 1.089-8.012 1.289-12.606.627 1.854-2.194 3.371-4.686 4.433-7.446v-.001c.189-.49.346-.984.503-1.478l6.974-3.095c1.042 1.023 2.176 1.966 3.412 2.8.667.45 1.356.85 2.055 1.227.736 1.218 1.031 2.338.829 3.224zm12.744-12.699c-3.091.603-6.238-.036-8.851-1.799-2.613-1.762-4.385-4.437-4.986-7.531-.603-3.094.036-6.237 1.799-8.851 1.311-1.944 5.597-4.671 11.105-7.48 2.776 3.716 6.683 6.535 11.203 7.944-.544 5.989-1.454 10.826-2.738 12.731-1.764 2.613-4.439 4.384-7.532 4.986zm26.675-4.876c-1.329-1.913-2.315-6.842-2.941-12.936 4.435-1.449 8.254-4.257 10.97-7.928 5.616 2.757 10.004 5.454 11.354 7.397 1.799 2.589 2.481 5.723 1.923 8.824-.559 3.102-2.293 5.801-4.882 7.6-2.59 1.799-5.725 2.482-8.826 1.923-3.101-.558-5.801-2.292-7.598-4.88zm35.444 21.009c-5.506 1.747-11.199 2.192-15.617 1.226-3.204-.702-5.418-2.072-5.924-3.665-.159-.502-.143-1.103.007-1.762 3.345-.598 6.553-1.901 9.427-3.898 3.202-2.224 5.749-5.135 7.513-8.49 1.169 1.027 2.51 1.864 4.002 2.447l13.99 5.465c.062.178.123.357.189.534-.042.047-.076.094-.119.141-3.054 3.339-7.962 6.256-13.468 8.002zm35.32-1.753c-4.488-1.753-8.025-5.149-9.959-9.563-1.547-3.533-1.899-7.376-1.087-11.072 3.876 4.289 8.716 7.657 14.257 9.822 4.457 1.741 9.107 2.609 13.751 2.609 1.902 0 3.803-.148 5.689-.439-1.883 3.729-4.973 6.664-8.848 8.363-4.413 1.934-9.316 2.033-13.803.28zm38.52 3.239c-.241.106-.619.196-1.069.022h.001l-6.37-2.489c1.264-1.77 2.337-3.691 3.207-5.735 2.345.89 4.754 1.476 7.184 1.765l-2.213 5.666c-.174.446-.499.666-.74.771zm59.305-5.136c-2.647 2.314-11.848-.128-19.681-9.089-2.751-3.148-4.666-6.351-5.899-9.288.294-.624.575-1.256.828-1.905 1.307-3.347 1.994-6.831 2.072-10.32 1.318.081 2.874.445 4.583 1.133.958.551 1.944 1.035 2.959 1.445 2.848 1.62 5.899 4.02 8.769 7.304 3.8 4.349 6.483 9.389 7.362 13.827.637 3.216.267 5.794-.993 6.893zm22.525-11.904c-3.144-.223-6.013-1.657-8.079-4.038-2.065-2.381-3.08-5.424-2.857-8.568.166-2.338 2.512-6.833 5.881-12.013.963.405 1.948.769 2.975 1.041 1.909.506 3.845.756 5.768.756 1.657 0 3.301-.197 4.914-.565 2.531 5.484 4.167 10.15 4.005 12.449-.46 6.492-6.115 11.388-12.607 10.938zm20.256-30.208c3.214-3.563 5.159-8.042 5.646-12.717 6.088-.386 11.082-.224 13.18.767h.001c5.884 2.778 8.41 9.826 5.632 15.71-2.778 5.883-9.824 8.413-15.71 5.632-2.056-.97-5.263-4.595-8.749-9.392zm22.846 22.585c-.059-.153-.104-.393.017-.664l.591-1.333c.526-.232 1.043-.484 1.552-.753.819.533 1.666 1.02 2.538 1.458-.389 1.063-.714 2.141-.959 3.23l-3.282-1.457c-.27-.12-.398-.328-.457-.481zm23.491 20.291c-3.389-1.504-5.989-4.237-7.322-7.696v-.001c-.921-2.392-1.144-4.931-.707-7.391 5.985 7.148 14.817 11.358 24.086 11.565-1.462 1.667-3.311 2.968-5.439 3.789-3.459 1.331-7.233 1.237-10.618-.266zm32.231 4.44c-.155.059-.393.104-.666-.017l-4.706-2.089c.849-1.205 1.58-2.503 2.225-3.859 1.725.714 3.525 1.246 5.373 1.577l-1.744 3.93c-.121.271-.329.398-.482.458z"/><path d="m342.958 147.31c3.346 0 6.059-2.713 6.059-6.059v-10.352c0-3.346-2.713-6.059-6.059-6.059s-6.059 2.713-6.059 6.059v10.352c0 3.346 2.713 6.059 6.059 6.059z"/><path d="m278.488 138.146c3.346 0 6.059-2.713 6.059-6.059v-10.352c0-3.346-2.713-6.059-6.059-6.059s-6.059 2.713-6.059 6.059v10.352c0 3.346 2.713 6.059 6.059 6.059z"/></g><path d="m184.403 108.468c-3.757 0-7.365-2.106-9.105-5.718-2.421-5.024-.311-11.06 4.714-13.481 1.944-.936 6.495-2.928 9.814-3.764 5.405-1.364 10.896 1.917 12.26 7.325 1.362 5.408-1.917 10.898-7.326 12.26-1.114.281-4.078 1.457-5.981 2.374-1.412.681-2.905 1.004-4.376 1.004z" fill="#fff"/><path d="m140.414 139.476c-2.311 0-4.632-.789-6.532-2.401-4.252-3.61-4.771-9.983-1.161-14.234 9.25-10.893 19.218-18.147 25.952-22.315 4.747-2.936 10.967-1.469 13.902 3.273 2.936 4.743 1.47 10.967-3.272 13.902-5.5 3.403-13.639 9.326-21.187 18.213-1.997 2.352-4.84 3.562-7.702 3.562z" fill="#fff"/></g><g><path d="m452.527 2.556 8.578 24.119c.367 1.033 1.094 1.851 2.012 2.264l21.429 9.655c3.027 1.364 3.027 6.188 0 7.551l-21.429 9.655c-.917.413-1.645 1.232-2.012 2.264l-8.578 24.119c-1.212 3.408-5.497 3.408-6.709 0l-8.578-24.119c-.367-1.033-1.094-1.851-2.012-2.264l-21.429-9.655c-3.027-1.364-3.027-6.188 0-7.551l21.429-9.655c.918-.413 1.645-1.232 2.012-2.264l8.578-24.119c1.212-3.408 5.497-3.408 6.709 0z" fill="#f0c4db"/><ellipse cx="19.833" cy="109.113" fill="#e58bbd" rx="18.73" ry="18.73" transform="matrix(.189 -.982 .982 .189 -91.062 107.954)"/><path d="m510.897 132.087c0 4.381-3.551 7.932-7.932 7.932s-7.932-3.551-7.932-7.932 3.551-7.932 7.932-7.932 7.932 3.552 7.932 7.932z" fill="#e58bbd"/><path d="m86.556 1.896 6.363 17.891c.272.766.812 1.373 1.492 1.68l15.896 7.162c2.246 1.012 2.246 4.59 0 5.602l-15.896 7.162c-.681.307-1.22.914-1.492 1.68l-6.363 17.891c-.899 2.528-4.078 2.528-4.977 0l-6.363-17.891c-.272-.766-.812-1.373-1.492-1.68l-15.896-7.163c-2.246-1.012-2.246-4.59 0-5.602l15.896-7.162c.681-.307 1.22-.914 1.492-1.68l6.363-17.891c.899-2.527 4.078-2.527 4.977.001z" fill="#f0c4db"/></g></g></svg>