<svg id="Capa_1" enable-background="new 0 0 512 512" height="512" viewBox="0 0 512 512" width="512" xmlns="http://www.w3.org/2000/svg"><g><g><path d="m353.755 501.901v-30.058c0-61.405-49.778-111.183-111.182-111.183-61.404 0-111.183 49.778-111.183 111.183v30.058z" fill="#f4d6d4"/><path d="m351.507 449.518c-5.385-26.41-20.128-49.414-40.62-65.396h-136.63c-20.492 15.982-35.235 38.986-40.62 65.396h38.702c-2.569 7.526-3.984 15.586-3.984 23.982v28.401h148.433v-28.401c0-8.396-1.414-16.456-3.984-23.982z" fill="#fbf2a8"/><path d="m250.36 399.692c21.467 9.655 36.567 32.57 36.567 59.311v6.434c0 10.016-8.119 18.135-18.135 18.135h-100.437v18.328h148.433v-28.4c0-38.358-29.101-69.914-66.428-73.808z" fill="#edb6a8"/><g fill="#f4d6d4"><ellipse cx="404.103" cy="316.419" rx="36.82" ry="36.82" transform="matrix(.228 -.974 .974 .228 3.898 637.754)"/><ellipse cx="81.04" cy="316.419" rx="36.82" ry="36.82" transform="matrix(.378 -.926 .926 .378 -242.515 271.692)"/><path d="m273.947 407.412h-62.751c-77.976 0-141.189-63.212-141.189-141.189 0-77.976 63.213-141.189 141.189-141.189h62.751c77.976 0 141.189 63.212 141.189 141.189 0 77.977-63.212 141.189-141.189 141.189z"/></g><path d="m273.947 124.95h-18.105c63.216 0 114.463 51.247 114.463 114.463v9.721c0 63.216-51.247 114.464-114.463 114.464h-71.371c-60.496 0-110.024-46.934-114.175-106.374-.184 2.949-.288 5.92-.288 8.915 0 77.976 63.213 141.189 141.189 141.189h62.751c77.976 0 141.189-63.212 141.189-141.189-.001-77.977-63.213-141.189-141.19-141.189z" fill="#e69fd5"/><path d="m63.15 213.971s-22.163 66.836 19.505 124.374c3.766 5.2 10.128 7.86 16.487 6.972 9.153-1.277 15.711-9.474 14.966-18.686-2.235-27.671-8.305-80.958-10.578-97.329-4.658-33.538-40.38-15.331-40.38-15.331z" fill="#fbf2a8"/><path d="m422.663 213.971s22.163 66.836-19.505 124.374c-3.766 5.2-10.128 7.86-16.487 6.972-9.154-1.277-15.711-9.474-14.967-18.686 2.235-27.671 8.305-80.958 10.578-97.329 4.66-33.538 40.381-15.331 40.381-15.331z" fill="#fbf2a8"/><path d="m296.132 70.533h-112.626c-84.249 0-160.952 68.297-160.952 152.546 0 17.318 14.039 31.357 31.356 31.357h377.322c17.318 0 31.357-14.039 31.357-31.357 0-84.248-82.208-152.546-166.457-152.546z" fill="#e58bbd"/><ellipse cx="283.357" cy="134.625" fill="#fff" rx="37.416" ry="57.625" transform="matrix(.166 -.986 .986 .166 103.522 391.674)"/><ellipse cx="377.002" cy="197.381" fill="#fff" rx="22.411" ry="34.515" transform="matrix(.166 -.986 .986 .166 119.724 536.347)"/><ellipse cx="134.158" cy="185.434" fill="#fff" rx="43.658" ry="28.129"/><path d="m296.132 70.534h-60.701c60.818 0 120.259 45.742 128.535 104.698 5.132-.904 10.852-.946 16.759.049 18.797 3.167 32.368 15.629 30.312 27.835-2.057 12.205-18.962 19.532-37.759 16.365-8.325-1.404-15.621-4.632-20.993-8.851-3.481 1.913-7.477 3.002-11.729 3.002h-293.602c-9.951 0-18.504-5.96-22.301-14.502-1.373 7.803-2.098 15.801-2.098 23.949 0 17.319 14.039 31.357 31.356 31.357h377.322c17.318 0 31.356-14.038 31.356-31.357 0-84.249-82.208-152.545-166.457-152.545z" fill="#e068bd"/><path d="m411.038 203.116c2.057-12.206-11.515-24.668-30.312-27.835-5.908-.995-11.627-.953-16.759-.049.645 4.592.989 9.262.989 14.001v.001c0 9.223-5.119 17.249-12.67 21.396 5.371 4.219 12.667 7.448 20.993 8.851 18.797 3.167 35.702-4.16 37.759-16.365z" fill="#eebdfa"/></g><g><g fill="#440b29"><path d="m158.338 308.758c-8.705 0-15.762 7.057-15.762 15.762 0 8.704 7.057 15.761 15.762 15.761s15.762-7.057 15.762-15.761c0-8.705-7.057-15.762-15.762-15.762z"/><path d="m326.806 308.758c-8.705 0-15.762 7.057-15.762 15.762 0 8.704 7.057 15.761 15.762 15.761s15.762-7.057 15.762-15.761c-.001-8.705-7.057-15.762-15.762-15.762z"/><path d="m173.862 272.472c-.718-.367-7.253-3.581-15.525-3.581-8.271 0-14.806 3.214-15.524 3.581-2.981 1.522-4.164 5.171-2.642 8.153 1.522 2.981 5.172 4.165 8.152 2.641.044-.023 4.571-2.256 10.014-2.256 5.413 0 9.996 2.248 10.014 2.256.882.451 1.823.664 2.75.664 2.204 0 4.331-1.207 5.402-3.305 1.523-2.982.34-6.632-2.641-8.153z"/><path d="m342.33 272.472c-.718-.367-7.253-3.581-15.525-3.581-8.271 0-14.806 3.214-15.524 3.581-2.981 1.522-4.164 5.171-2.642 8.153 1.522 2.981 5.173 4.165 8.152 2.641.045-.023 4.571-2.256 10.014-2.256 5.413 0 9.996 2.248 10.014 2.256.882.451 1.823.664 2.75.664 2.204 0 4.331-1.207 5.402-3.305 1.523-2.982.34-6.632-2.641-8.153z"/><path d="m258.334 318.46c-3.347 0-6.06 2.713-6.06 6.06 0 5.35-4.352 9.702-9.702 9.702s-9.702-4.353-9.702-9.702c0-3.346-2.713-6.06-6.06-6.06s-6.06 2.713-6.06 6.06c0 12.033 9.789 21.822 21.822 21.822s21.822-9.789 21.822-21.822c0-3.347-2.714-6.06-6.06-6.06z"/><path d="m472.689 223.08c0-42.914-19.543-83.903-55.028-115.419-33.795-30.013-78.091-47.228-121.529-47.228h-112.626c-43.187 0-86.541 17.269-118.945 47.382-33.601 31.225-52.107 72.16-52.107 115.265 0 20.584 15.084 37.706 34.777 40.91.245 5.799.809 11.891 1.802 18.183-9.164 8.567-14.913 20.741-14.913 34.246 0 25.872 21.048 46.92 46.919 46.92 4.434 0 8.719-.633 12.785-1.791 13.549 16.652 30.554 30.385 49.923 40.076-14.132 19.829-22.46 44.068-22.46 70.219v30.057c0 5.578 4.522 10.1 10.1 10.1s10.1-4.522 10.1-10.1v-30.058c0-5.091.379-10.095 1.109-14.986h21.443c-1.138 5.372-1.746 10.937-1.746 16.644v31.868c0 3.347 2.713 6.06 6.06 6.06s6.06-2.713 6.06-6.06v-31.868c0-23.295 11.757-43.879 29.64-56.174 2.368.11 4.746.185 7.141.185h62.751c2.399 0 4.781-.075 7.153-.186 17.877 12.296 29.628 32.884 29.628 56.174v31.868c0 3.347 2.713 6.06 6.06 6.06s6.06-2.713 6.06-6.06v-31.867c0-5.706-.605-11.273-1.743-16.644h21.438c.73 4.891 1.112 9.895 1.112 14.986v30.058c0 5.578 4.522 10.1 10.1 10.1s10.1-4.522 10.1-10.1v-30.058c0-26.153-8.328-50.393-22.462-70.223 19.371-9.689 36.39-23.407 49.94-40.06 4.062 1.155 8.344 1.779 12.771 1.779 25.872 0 46.919-21.048 46.919-46.92 0-13.218-5.509-25.159-14.335-33.693 1.055-6.53 1.649-12.852 1.899-18.856 19.363-3.482 34.104-20.44 34.104-40.789zm-77.711 109.341c-1.565 2.162-4.214 3.277-6.911 2.893-3.843-.536-6.608-3.993-6.295-7.87 1.315-16.28 3.989-41.644 6.407-62.908h30.047c-1.078 20.543-6.725 45.07-23.248 67.885zm-362.324-109.341c0-75.883 70.491-142.447 150.852-142.447h112.626c81.832 0 156.357 67.895 156.357 142.447 0 11.72-9.536 21.256-21.257 21.256h-377.321c-11.721 0-21.257-9.536-21.257-21.256zm71.387 104.365c.313 3.876-2.453 7.333-6.297 7.869-2.696.378-5.345-.732-6.91-2.893-16.466-22.738-22.092-47.297-23.169-67.885h29.969c2.418 21.266 5.092 46.632 6.407 62.909zm-49.72-11.026c0-2.842.457-5.579 1.284-8.15 3.92 11.13 9.456 22.458 17.136 33.544-10.682-3.5-18.42-13.557-18.42-25.394zm113.313 128.317h-22.451c3.604-12.932 9.721-24.826 17.789-35.123 7.769 2.62 15.814 4.637 24.086 5.969-8.455 8.105-15.141 18.038-19.424 29.154zm172.325 0h-22.446c-4.285-11.116-10.975-21.045-19.429-29.151 8.272-1.331 16.315-3.348 24.084-5.968 8.069 10.297 14.186 22.189 17.791 35.119zm-66.012-47.424h-62.751c-39.856 0-75.602-17.89-99.664-46.048 8.338-5.333 13.488-14.981 12.643-25.446-1.32-16.346-3.857-40.526-6.206-61.283h249.875c-2.349 20.755-4.886 44.931-6.207 61.283-.83 10.287 4.136 19.782 12.226 25.167-24.064 28.324-59.925 46.327-99.916 46.327zm156.876-80.893c0 11.51-7.315 21.343-17.54 25.096 7.341-10.653 12.705-21.527 16.565-32.23.632 2.271.975 4.663.975 7.134z"/><path d="m234.681 158.408c10.411 9.559 25.132 16.339 41.451 19.089 5.238.882 10.455 1.319 15.555 1.319 10.792 0 21.057-1.954 29.864-5.771 13.854-6.005 22.592-15.892 24.605-27.839 2.013-11.948-3.003-24.152-14.124-34.364-10.411-9.56-25.132-16.339-41.452-19.09-16.319-2.748-32.45-1.168-45.418 4.452-13.854 6.005-22.592 15.892-24.605 27.839-2.013 11.948 3.003 24.152 14.124 34.365zm-2.173-32.351c2.362-14.02 20.708-23.474 42.778-23.474 4.314 0 8.773.362 13.28 1.121 27.563 4.645 48.462 22.728 45.639 39.488-2.823 16.761-28.494 26.999-56.059 22.353-14.037-2.364-26.562-8.07-35.268-16.064-7.995-7.342-11.677-15.661-10.37-23.424z"/><path d="m336.991 190.639c-2.653 15.743 12.844 31.036 35.28 34.818 3.355.565 6.644.835 9.827.835 18.103 0 32.658-8.78 34.915-22.169 1.347-7.996-1.925-16.085-9.213-22.777-6.578-6.04-15.836-10.317-26.068-12.041-10.233-1.724-20.38-.717-28.574 2.834-9.079 3.934-14.82 10.505-16.167 18.5zm11.951 2.014c.866-5.142 6.033-8.093 9.036-9.394 4.027-1.746 8.933-2.646 14.1-2.646 2.509 0 5.08.212 7.64.644 7.835 1.32 15.083 4.606 19.885 9.015 2.411 2.214 6.325 6.695 5.459 11.837-1.448 8.59-15.828 13.92-30.777 11.396-14.947-2.519-26.79-12.263-25.343-20.852z"/><path d="m134.158 219.623c27.879 0 49.718-15.018 49.718-34.189 0-19.172-21.839-34.189-49.718-34.189s-49.717 15.018-49.717 34.189 21.839 34.189 49.717 34.189zm0-56.258c20.38 0 37.598 10.107 37.598 22.07s-17.218 22.069-37.598 22.069-37.597-10.106-37.597-22.069 17.218-22.07 37.597-22.07z"/><path d="m302.708 202.423c-3.346 0-6.06 2.713-6.06 6.06v10.162c0 3.347 2.713 6.06 6.06 6.06s6.06-2.713 6.06-6.06v-10.162c0-3.347-2.713-6.06-6.06-6.06z"/><path d="m253.181 192.262c-3.347 0-6.06 2.713-6.06 6.06v10.161c0 3.347 2.713 6.06 6.06 6.06s6.06-2.713 6.06-6.06v-10.161c0-3.347-2.714-6.06-6.06-6.06z"/><path d="m384.203 152.286c3.346 0 6.06-2.713 6.06-6.06v-10.161c0-3.347-2.713-6.06-6.06-6.06s-6.06 2.713-6.06 6.06v10.161c0 3.347 2.713 6.06 6.06 6.06z"/></g><path d="m118.351 136.727c-2.801 0-5.587-1.158-7.583-3.424-3.687-4.186-3.282-10.568.904-14.255 8.191-7.214 18.205-12.998 29.762-17.19 5.241-1.903 11.036.805 12.938 6.05 1.903 5.243-.806 11.036-6.05 12.938-9.172 3.328-17.011 7.823-23.3 13.362-1.919 1.689-4.3 2.519-6.671 2.519z" fill="#fff"/><path d="m176.171 115.078c-5.168 0-9.574-3.946-10.047-9.193-.501-5.556 3.596-10.466 9.152-10.967.626-.056 1.03-.108 1.37-.152 1.116-.142 2.053-.244 3.959-.255h.064c5.549 0 10.064 4.481 10.098 10.038.034 5.578-4.46 10.128-10.038 10.162-.833.005-.939.019-1.528.094-.525.067-1.147.145-2.11.233-.309.026-.616.04-.92.04z" fill="#fff"/></g><g><path d="m465.253 13.265 8.579 24.122c.367 1.033 1.095 1.851 2.012 2.265l21.431 9.656c3.028 1.364 3.028 6.188 0 7.552l-21.431 9.656c-.918.413-1.645 1.232-2.012 2.265l-8.579 24.122c-1.212 3.408-5.498 3.408-6.71 0l-8.579-24.122c-.367-1.033-1.094-1.851-2.012-2.265l-21.432-9.656c-3.028-1.364-3.028-6.188 0-7.552l21.431-9.656c.918-.414 1.645-1.232 2.012-2.265l8.579-24.122c1.213-3.407 5.499-3.407 6.711 0z" fill="#f0c4db"/><ellipse cx="40.794" cy="443.011" fill="#e58bbd" rx="18.732" ry="18.732" transform="matrix(.19 -.982 .982 .19 -401.909 399.003)"/><path d="m375.217 7.933c0 4.381-3.552 7.933-7.933 7.933s-7.933-3.552-7.933-7.933 3.552-7.933 7.933-7.933 7.933 3.552 7.933 7.933z" fill="#e58bbd"/><path d="m43.283 19.628 6.363 17.893c.272.766.812 1.373 1.493 1.68l15.897 7.162c2.246 1.012 2.246 4.59 0 5.602l-15.897 7.162c-.681.307-1.22.914-1.493 1.68l-6.363 17.893c-.899 2.528-4.078 2.528-4.977 0l-6.364-17.893c-.272-.766-.812-1.373-1.493-1.68l-15.897-7.162c-2.246-1.012-2.246-4.59 0-5.602l15.897-7.162c.681-.307 1.22-.914 1.493-1.68l6.364-17.893c.899-2.528 4.078-2.528 4.977 0z" fill="#f0c4db"/></g></g></svg>