<svg id="Capa_1" enable-background="new 0 0 512 512" height="512" viewBox="0 0 512 512" width="512" xmlns="http://www.w3.org/2000/svg"><g><g><path d="m328.559 498.347v-30.932c0-63.19-51.226-114.416-114.416-114.416-63.19 0-114.416 51.226-114.416 114.416v30.932z" fill="#e58bbd"/><path d="m290.518 498.347v-29.227c0-42.181-34.194-76.375-76.375-76.375-42.181 0-76.375 34.194-76.375 76.375v29.227z" fill="#fff"/><path d="m222.157 392.955c22.091 9.936 37.63 33.517 37.63 61.036v6.621c0 10.307-8.356 18.663-18.663 18.663h-103.356v18.861h152.75v-29.226c0-39.474-29.947-71.948-68.361-75.955z" fill="#eebdfa"/><g fill="#d49c8d"><circle cx="380.373" cy="307.47" r="37.891"/><circle cx="47.913" cy="307.47" r="37.891"/><path d="m246.431 401.11h-64.576c-80.244 0-145.295-65.051-145.295-145.295 0-80.244 65.051-145.295 145.295-145.295h64.576c80.244 0 145.295 65.051 145.295 145.295 0 80.244-65.051 145.295-145.295 145.295z"/></g><path d="m246.431 110.432h-18.632c65.055 0 117.793 52.737 117.793 117.792v10.003c0 65.055-52.738 117.793-117.793 117.793h-73.447c-62.256 0-113.224-48.299-117.496-109.468-.189 3.035-.297 6.092-.297 9.175 0 80.244 65.051 145.295 145.295 145.295h64.576c80.244 0 145.295-65.051 145.295-145.295.001-80.244-65.05-145.295-145.294-145.295z" fill="#c7758d"/><path d="m211.724 235.58c51.181.991 120.215 5.852 177.147 23.13 0 0-32.663-83.697-165.361-81.332-132.7 2.365-155.869 45.063-184.253 81.613 0 0 65.835-25.346 172.467-23.411z" fill="#f0c4db"/><path d="m215.401 81.61c-82.533 0-187.768 54.907-187.768 143.155v.001c0 19.981 10.833 35.634 11.624 34.226 27.374-48.705 79.529-81.613 139.378-81.613h71.017c59.733 0 111.803 32.781 139.219 81.332 3.917 6.936 9.156-14.893 9.156-34.874v-.001c-.001-88.248-100.093-142.226-182.626-142.226z" fill="#e58bbd"/><path d="m325.538 196.507c-13.989-26.868-32.551-52.101-54.605-72.887-11.06-10.423-22.945-20.261-35.45-28.911-6.634-4.589-13.836-8.333-20.234-13.096-2.99.003-6.012.084-9.055.229-9.13 5.506-17.762 11.873-26.123 18.45-10.638 8.368-21.725 16.625-31.296 26.222-9.55 9.576-17.058 20.971-24.531 32.185-7.145 10.723-11.896 22.421-15.164 34.597 21.029-10.187 44.619-15.917 69.555-15.917h71.017c27.479 0 53.327 6.952 75.908 19.171-.008-.015-.014-.03-.022-.043z" fill="#fff"/><path d="m416.64 502.345 17.333-84.369c1.287-7.621-3.849-14.843-11.47-16.13-7.621-1.286-14.843 3.849-16.129 11.47l-18.119 89.028h28.385z" fill="#a183e2"/><path d="m444.127 299.103-36.975 26.294c-5.243 3.729-6.471 11.002-2.743 16.245l16.208 22.793c3.729 5.243 11.002 6.471 16.245 2.743l64.207-45.659c8.869-6.307 5.015-20.251-5.835-21.107l-43.44-3.427c-2.725-.217-5.439.533-7.667 2.118z" fill="#8bb6ef"/><path d="m502.02 390.81-26.294-36.975c-3.728-5.243-11.002-6.471-16.245-2.743l-22.793 16.208c-5.243 3.729-6.471 11.002-2.743 16.245l45.659 64.207c6.307 8.87 20.251 5.015 21.108-5.835l3.427-43.44c.216-2.725-.534-5.439-2.119-7.667z" fill="#eaa585"/><path d="m409.038 446.911 36.975-26.294c5.243-3.729 6.471-11.002 2.743-16.245l-16.208-22.793c-3.729-5.243-11.002-6.471-16.245-2.743l-64.207 45.659c-8.869 6.307-5.015 20.251 5.835 21.107l43.44 3.428c2.725.215 5.439-.535 7.667-2.119z" fill="#f7e266"/><path d="m351.145 355.204 26.294 36.975c3.729 5.243 11.002 6.471 16.245 2.743l22.793-16.208c5.243-3.729 6.471-11.002 2.742-16.245l-45.659-64.207c-6.307-8.87-20.251-5.015-21.107 5.835l-3.428 43.44c-.215 2.724.535 5.439 2.12 7.667z" fill="#84eac4"/><ellipse cx="426.582" cy="373.007" fill="#e58bbd" rx="18.912" ry="18.912" transform="matrix(.544 -.839 .839 .544 -118.5 527.9)"/></g><g><g fill="#440b29"><ellipse cx="127.459" cy="315.807" rx="16.22" ry="16.22" transform="matrix(.326 -.946 .946 .326 -212.638 333.523)"/><ellipse cx="300.827" cy="315.807" rx="16.22" ry="16.22" transform="matrix(.987 -.159 .159 .987 -46.487 51.982)"/><path d="m143.333 262.443c-.734-.375-7.415-3.661-15.874-3.661s-15.14 3.286-15.874 3.661c-2.958 1.509-4.132 5.132-2.623 8.089 1.51 2.958 5.132 4.134 8.09 2.622.046-.023 4.754-2.345 10.407-2.345 5.627 0 10.386 2.335 10.407 2.345.875.447 1.809.659 2.729.659 2.188 0 4.298-1.198 5.361-3.281 1.509-2.958.335-6.58-2.623-8.089z"/><path d="m316.701 262.443c-.734-.375-7.415-3.661-15.874-3.661s-15.14 3.286-15.874 3.661c-2.958 1.509-4.132 5.132-2.622 8.089 1.51 2.958 5.133 4.134 8.09 2.622.046-.023 4.754-2.345 10.407-2.345 5.627 0 10.386 2.335 10.407 2.345.876.447 1.809.659 2.729.659 2.188 0 4.298-1.198 5.361-3.281 1.508-2.958.334-6.58-2.624-8.089z"/><path d="m230.363 309.793c-3.321 0-6.013 2.693-6.013 6.013 0 5.629-4.578 10.207-10.207 10.207-5.628 0-10.207-4.579-10.207-10.207 0-3.321-2.693-6.013-6.013-6.013-3.321 0-6.013 2.693-6.013 6.013 0 12.26 9.974 22.234 22.234 22.234s22.233-9.974 22.233-22.234c0-3.321-2.693-6.013-6.014-6.013z"/><path d="m506.921 387.324-26.294-36.975c-1.129-1.587-2.496-2.94-4.027-4.052l27.954-19.879c6.127-4.356 8.792-11.853 6.789-19.1-2.003-7.246-8.14-12.31-15.635-12.903l-43.44-3.427c-4.123-.325-8.254.816-11.626 3.214l-12.554 8.927c-1.533-16.979-11.967-31.416-26.584-38.63.039-.701.064-1.405.093-2.108 1.859-3.546 3.006-7.961 3.924-12.476 1.606-7.896 2.527-17.402 2.527-26.08 0-43.565-22.967-83.498-64.671-112.439-35.918-24.927-83.76-39.809-127.977-39.809-.087 0-.174.003-.261.003-.011 0-.022 0-.033 0-.551.001-1.104.012-1.656.018-.436-.022-.87-.021-1.301.014-43.556.71-90.86 15.607-127.196 40.169-43.426 29.356-67.343 69.477-67.343 112.974 0 11.808 3.177 21.733 5.843 27.979 1.078 2.526 2.124 4.638 3.127 6.417.038 1.783.106 3.558.204 5.326-15.851 7.821-26.784 24.145-26.784 42.983 0 26.419 21.493 47.913 47.913 47.913 4.608 0 9.055-.677 13.274-1.899 14.029 17.299 31.693 31.531 51.821 41.527-14.656 20.411-23.304 45.413-23.304 72.403v30.932c0 5.535 4.487 10.022 10.022 10.022s10.022-4.488 10.022-10.022v-30.932c0-24.307 8.355-46.697 22.338-64.458 8.232 2.792 16.774 4.905 25.555 6.285-15.924 15.029-25.887 36.307-25.887 59.879v32.795c0 3.321 2.693 6.013 6.013 6.013 3.321 0 6.013-2.692 6.013-6.013v-32.795c0-24.154 12.244-45.489 30.841-58.162 2.398.111 4.808.174 7.232.174h64.576c2.423 0 4.831-.066 7.227-.176 18.602 12.67 30.846 34.007 30.846 58.164v32.795c0 3.321 2.693 6.013 6.013 6.013s6.013-2.692 6.013-6.013v-32.795c0-23.57-9.958-44.848-25.881-59.875 8.778-1.381 17.31-3.509 25.538-6.301 13.989 17.763 22.349 40.157 22.349 64.47v30.932c0 5.535 4.487 10.022 10.022 10.022s10.022-4.488 10.022-10.022v-30.932c0-26.988-8.646-51.988-23.3-72.399 13.959-6.934 26.732-15.908 37.931-26.527l19.325 27.176c1.142 1.606 2.509 2.958 4.024 4.054l-27.951 19.877c-6.127 4.356-8.791 11.853-6.788 19.1s8.141 12.312 15.635 12.903l34.316 2.708-9.715 46.831c-.671 3.252 1.421 6.433 4.673 7.105 3.251.678 6.434-1.42 7.105-4.673l10.074-48.571c3.084-.286 6.065-1.373 8.613-3.185l9.685-6.887-11.762 56.2c-.678 3.251 1.407 6.437 4.659 7.115.414.086.827.127 1.234.127 2.788 0 5.289-1.95 5.881-4.786l14.414-68.914 12.865-9.148c1.607-1.143 2.952-2.515 4.049-4.031l21.156 29.75c3.395 4.774 8.695 7.446 14.299 7.446 1.588 0 3.2-.214 4.801-.657 7.246-2.003 12.311-8.14 12.903-15.635l3.427-43.44c.325-4.125-.816-8.254-3.214-11.625.004-.003.004-.004.004-.004zm-15.36-.846c-13.97-7.77-29.025-10.914-40.091-12.148.174-3.168-.25-6.304-1.252-9.271l12.749-9.066c.965-.686 2.095-1.044 3.255-1.044.315 0 .633.026.95.08 1.485.251 2.783 1.064 3.655 2.291zm-135.959-45.852 2.845-36.058c.288-3.653 3.224-4.742 4.117-4.989.312-.086.892-.212 1.604-.212 1.325 0 3.11.437 4.491 2.378l30.846 43.377c.001.001.002.003.003.004l8.228 11.571c-.884 1.022-1.679 2.102-2.374 3.233-13.142-1.211-34.311-5.391-49.76-19.304zm-176.967-153.226h71.017c46.9 0 90.816 22.096 118.937 58.776-51.105-13.267-102.888-20.205-154.299-20.608-50.155-.383-101.146 5.425-151.96 17.264 28.182-34.681 70.824-55.432 116.305-55.432zm-50.92-12.199c15.315-28.384 48.46-62.853 86.452-81.88 38.006 19.034 71.164 53.523 86.47 81.913-16.282-5.142-33.448-7.879-50.986-7.879h-71.017c-17.517.001-34.66 2.722-50.919 7.846zm289.852 174.567-8.259-11.613c-.871-1.226-1.214-2.719-.963-4.203.25-1.484 1.064-2.783 2.291-3.655l29.163-20.738c-7.421 13.342-10.622 27.667-11.97 38.57-3.449-.176-6.948.354-10.262 1.639zm6.868 35.957c-3.397-.574-6.368-2.436-8.365-5.244-4.122-5.795-2.759-13.864 3.037-17.986 2.263-1.609 4.871-2.382 7.457-2.382 4.037 0 8.017 1.886 10.53 5.419 1.997 2.807 2.781 6.225 2.207 9.622s-2.436 6.368-5.244 8.364c-2.807 1.996-6.225 2.78-9.622 2.207zm75.316-75.202c.247.893.82 3.971-2.167 6.095l-53.858 38.299c-1.283-1.217-2.676-2.279-4.151-3.177 1.415-13.231 5.813-33.38 19.132-48.179l36.053 2.845c3.655.288 4.744 3.223 4.991 4.117zm-91.51-3.053c0 4.127-.909 8.042-2.526 11.569l-2.049 1.457c-1.587 1.129-2.94 2.495-4.053 4.026l-8.58-12.065c3.276-8.329 5.849-17.008 7.653-25.963 5.85 5.111 9.555 12.616 9.555 20.976zm-20.237-83.634c0 4.877-.329 9.568-.819 13.731-15.898-21.911-36.666-39.49-60.311-51.579-5.38-17.89-18.634-39.202-37.022-59.308-10.367-11.336-21.832-21.711-33.832-30.736 27.351 5.679 54.073 16.753 75.93 31.921 25.571 17.745 56.054 48.801 56.054 95.971zm-291.824-95.439c22.002-14.873 48.393-25.866 75.265-31.79-11.683 8.87-22.846 19.01-32.962 30.071-18.38 20.096-31.629 41.399-37.014 59.284-24.29 12.407-45.548 30.598-61.612 53.341-1.25-4.138-2.202-9.094-2.202-14.538 0-36.632 20.784-70.856 58.525-96.368zm-48.267 206.942c-15.367 0-27.869-12.501-27.869-27.868 0-8.353 3.705-15.846 9.545-20.959 3.524 17.51 10.005 33.959 18.892 48.812-.189.004-.377.015-.568.015zm198.518 55.749h-64.576c-70.724 0-128.929-54.561-134.773-123.8 112.01-29.701 224.246-28.675 333.824 3.053-.82 7.611-2.279 15.03-4.312 22.213-4.45-4.518-10.934-6.305-17.234-4.566-7.246 2.003-12.31 8.14-12.902 15.635l-3.428 43.439c-.086 1.092-.063 2.184.053 3.262-24.572 25.129-58.813 40.764-96.652 40.764zm115.177-31.546c13.976 7.771 29.036 10.91 40.101 12.142-.168 3.103.236 6.248 1.248 9.264l-12.759 9.073c-2.533 1.804-6.058 1.207-7.86-1.327zm-8.194 75.949c-.247-.893-.82-3.971 2.166-6.095l53.853-38.295c1.273 1.212 2.667 2.276 4.156 3.185-1.417 13.232-5.815 33.373-19.129 48.167l-36.056-2.845c-3.654-.288-4.743-3.224-4.99-4.117zm89.115-19.775-29.16 20.737c7.421-13.343 10.62-27.668 11.967-38.569.434.022.868.054 1.3.054 3.08 0 6.107-.582 8.961-1.695l8.259 11.614c1.8 2.532 1.205 6.059-1.327 7.859zm48.071 30.718c-.892.248-3.97.821-6.095-2.167l-39.073-54.945c.884-1.017 1.679-2.101 2.382-3.243 13.144 1.216 34.307 5.402 49.748 19.307l-2.845 36.059c-.287 3.653-3.224 4.742-4.117 4.989z"/></g><path d="m202.071 218.097c-.238 0-.478-.008-.719-.025-5.92-.42-12.085-.603-18.835-.537-.029 0-.058 0-.088 0-5.495 0-9.973-4.431-10.02-9.937-.047-5.535 4.401-10.059 9.937-10.107 7.286-.058 13.969.13 20.423.588 5.521.39 9.68 5.184 9.289 10.705-.374 5.28-4.774 9.313-9.987 9.313z" fill="#fff"/><path d="m146.285 219.868c-4.961 0-9.27-3.682-9.926-8.732-.712-5.49 3.159-10.518 8.649-11.23 2.034-.264 4.191-.504 6.996-.78 5.512-.53 10.413 3.486 10.954 8.995.541 5.508-3.486 10.413-8.995 10.954-2.589.255-4.555.473-6.374.71-.438.055-.873.083-1.304.083z" fill="#fff"/></g><g><path d="m402.377 8.022 8.513 23.937c.365 1.025 1.086 1.837 1.997 2.247l21.267 9.582c3.005 1.354 3.005 6.141 0 7.494l-21.267 9.582c-.91.41-1.632 1.222-1.997 2.247l-8.513 23.937c-1.203 3.382-5.456 3.382-6.659 0l-8.513-23.937c-.365-1.025-1.086-1.837-1.997-2.247l-21.267-9.582c-3.005-1.354-3.005-6.141 0-7.494l21.267-9.582c.911-.41 1.632-1.222 1.997-2.247l8.513-23.937c1.203-3.382 5.456-3.382 6.659 0z" fill="#f0c4db"/><ellipse cx="486.974" cy="173.712" fill="#e58bbd" rx="18.588" ry="18.588" transform="matrix(.161 -.987 .987 .161 237.074 626.337)"/><circle cx="21.472" cy="99.576" fill="#e58bbd" r="7.872"/><path d="m88.273 5.513 6.315 17.756c.27.76.805 1.362 1.481 1.667l15.775 7.107c2.229 1.004 2.229 4.555 0 5.559l-15.775 7.108c-.676.304-1.211.907-1.481 1.667l-6.315 17.756c-.892 2.508-4.047 2.508-4.939 0l-6.314-17.756c-.27-.76-.805-1.363-1.481-1.667l-15.775-7.107c-2.229-1.004-2.229-4.555 0-5.559l15.775-7.107c.675-.304 1.211-.907 1.481-1.667l6.315-17.756c.891-2.509 4.046-2.509 4.938-.001z" fill="#f0c4db"/></g></g></svg>