<svg id="Capa_1" enable-background="new 0 0 512 512" height="512" viewBox="0 0 512 512" width="512" xmlns="http://www.w3.org/2000/svg"><g><g><path d="m403.751 499.677c14.744-5.962 30.298-12.791 33.375-28.95 4.751-24.949-11.803-30.122-9.147-50.607 2.063-15.912 23.52-21.358 21.796-50.833-2.193-37.486-26.814-48.446-40.979-79.375-15.501-33.847-23.581-74.422-51.275-94.753-28.903-21.219-68.909-15.722-105.542-15.722s-76.639-5.497-105.542 15.722c-27.694 20.332-35.773 60.906-51.275 94.753-14.165 30.929-38.786 41.889-40.979 79.375-1.724 29.476 19.733 34.921 21.796 50.833 2.656 20.485-13.899 25.659-9.147 50.607 3.077 16.159 18.631 22.987 33.375 28.95" fill="#eaa585"/><path d="m368.803 501.949v-31.583c0-64.521-52.304-116.825-116.825-116.825-64.52 0-116.825 52.304-116.825 116.825v31.583z" fill="#f1c7b6"/><path d="m299.105 409.97-37.281 41.636s-41.043-25.24-61.244-38.119c-16.288 14.293-26.584 35.248-26.584 58.62v29.842h155.965v-29.842c0-23.906-13.918-47.832-30.856-62.137z" fill="#e58bbd"/><path d="m260.162 394.12c22.556 10.145 38.422 34.223 38.422 62.321v6.761c0 10.524-8.531 19.055-19.055 19.055h-105.533v19.258h155.965v-29.842c0-40.304-30.577-73.462-69.799-77.553z" fill="#e068bd"/><ellipse cx="421.707" cy="307.055" fill="#f1c7b6" rx="38.688" ry="38.688" transform="matrix(.23 -.973 .973 .23 25.978 646.935)"/><ellipse cx="82.25" cy="307.055" fill="#f1c7b6" rx="38.688" ry="38.688" transform="matrix(.23 -.973 .973 .23 -235.489 316.558)"/><path d="m284.946 402.666h-65.935c-81.933 0-148.354-66.42-148.354-148.354 0-81.933 66.42-148.354 148.354-148.354h65.935c81.933 0 148.354 66.42 148.354 148.354 0 81.934-66.42 148.354-148.354 148.354z" fill="#f1c7b6"/><path d="m284.946 105.87h-19.024c66.424 0 120.272 53.848 120.272 120.272v10.214c0 66.424-53.847 120.272-120.272 120.272h-74.993c-63.566 0-115.608-49.315-119.969-111.772-.193 3.099-.303 6.22-.303 9.368v.001c0 81.933 66.42 148.354 148.354 148.354h65.935c81.933 0 148.354-66.42 148.354-148.354v-.001c0-81.934-66.42-148.354-148.354-148.354z" fill="#e795b6"/><path d="m285.628 79.247h-72.886c-90.571 0-163.992 76.526-163.992 170.927 6.637 51.667 51.582 81.898 57.038 24.738l-.08-14.709c0-12.892 10.027-23.343 22.397-23.343h248.33c11.816 0 22.04 9.764 22.04 25.195v12.857c8.706 67.889 43.365 18.503 51.146-24.738 16.694-92.783-73.423-170.927-163.993-170.927z" fill="#eaa585"/><g fill="#fbf2a8"><path d="m79.064 159.819c6.207 15.055 5.229 29.713-2.186 32.74-7.414 3.027-18.456-6.725-24.663-21.78s-5.229-29.713 2.186-32.74c7.414-3.026 18.456 6.725 24.663 21.78z"/><path d="m108.078 230.192c6.207 15.055 5.229 29.713-2.186 32.74-7.414 3.026-18.457-6.725-24.664-21.78s-5.229-29.713 2.185-32.74c7.416-3.027 18.458 6.725 24.665 21.78z"/><path d="m120.979 199.443c-15.111 6.169-29.831 5.181-32.876-2.205s6.736-18.375 21.848-24.544c15.111-6.169 29.831-5.181 32.876 2.205s-6.737 18.375-21.848 24.544z"/><ellipse cx="44.829" cy="214.903" rx="29.554" ry="14.467" transform="matrix(.926 -.377 .377 .926 -77.694 32.746)"/></g><ellipse cx="94.862" cy="165.411" fill="#f0c4db" rx="29.468" ry="14.509" transform="matrix(.388 -.922 .922 .388 -94.385 188.753)"/><ellipse cx="65.431" cy="235.561" fill="#f0c4db" rx="29.468" ry="14.509" transform="matrix(.388 -.922 .922 .388 -177.078 204.585)"/><path d="m109.785 228.504c-15.075-6.284-24.791-17.347-21.701-24.71 3.089-7.363 17.814-8.238 32.888-1.955 15.075 6.284 24.791 17.347 21.702 24.71-3.09 7.363-17.815 8.238-32.889 1.955z" fill="#f0c4db"/><ellipse cx="44.915" cy="185.8" fill="#f0c4db" rx="14.458" ry="29.571" transform="matrix(.384 -.923 .923 .384 -143.885 155.908)"/><ellipse cx="80.147" cy="200.486" fill="#f7e266" rx="20.136" ry="20.221" transform="matrix(.104 -.995 .995 .104 -127.589 259.339)"/><path d="m423.031 159.819c6.207 15.055 5.229 29.713-2.186 32.74-7.414 3.027-18.456-6.725-24.664-21.78-6.207-15.055-5.229-29.713 2.185-32.74 7.416-3.026 18.458 6.725 24.665 21.78z" fill="#fbf2a8"/><ellipse cx="438.621" cy="235.672" fill="#fbf2a8" rx="14.5" ry="29.486" transform="matrix(.924 -.382 .382 .924 -56.773 185.532)"/><path d="m464.946 199.443c-15.111 6.169-29.831 5.181-32.876-2.205s6.736-18.375 21.848-24.544c15.111-6.169 29.831-5.181 32.876 2.205s-6.737 18.375-21.848 24.544z" fill="#fbf2a8"/><ellipse cx="388.796" cy="214.903" fill="#fbf2a8" rx="29.554" ry="14.466" transform="matrix(.926 -.377 .377 .926 -52.326 162.394)"/><path d="m452.221 170.993c-6.296 15.008-17.396 24.674-24.792 21.591s-8.288-17.748-1.991-32.756c6.296-15.007 17.396-24.674 24.792-21.591s8.287 17.748 1.991 32.756z" fill="#f0c4db"/><ellipse cx="409.398" cy="235.561" fill="#f0c4db" rx="29.468" ry="14.509" transform="matrix(.388 -.922 .922 .388 33.584 521.671)"/><path d="m453.752 228.504c-15.075-6.284-24.791-17.347-21.701-24.71 3.089-7.363 17.814-8.238 32.888-1.955 15.075 6.284 24.791 17.347 21.701 24.71-3.089 7.363-17.814 8.238-32.888 1.955z" fill="#f0c4db"/><path d="m383.289 199.132c-15.074-6.284-24.791-17.347-21.702-24.71s17.814-8.238 32.889-1.955c15.074 6.284 24.79 17.347 21.701 24.71s-17.814 8.238-32.888 1.955z" fill="#f0c4db"/><ellipse cx="424.114" cy="200.486" fill="#f7e266" rx="20.136" ry="20.221" transform="matrix(.104 -.995 .995 .104 180.667 601.485)"/></g><g><g fill="#440b29"><path d="m163.47 299.006c-9.147 0-16.561 7.415-16.561 16.561 0 9.147 7.415 16.562 16.561 16.562 9.147 0 16.562-7.415 16.562-16.562s-7.415-16.561-16.562-16.561z"/><path d="m340.487 299.006c-9.147 0-16.561 7.415-16.561 16.561 0 9.147 7.415 16.562 16.561 16.562 9.147 0 16.561-7.415 16.561-16.562.001-9.147-7.414-16.561-16.561-16.561z"/><path d="m179.629 261.177c-.747-.381-7.547-3.725-16.158-3.725-8.612 0-15.412 3.344-16.159 3.725-2.956 1.509-4.124 5.115-2.63 8.079 1.493 2.963 5.112 4.156 8.086 2.678.049-.024 4.929-2.42 10.703-2.42 5.773 0 10.653 2.396 10.675 2.407.878.448 1.814.661 2.736.661 2.195 0 4.31-1.202 5.376-3.291 1.515-2.968.337-6.6-2.629-8.114z"/><path d="m356.646 261.177c-.747-.381-7.547-3.725-16.158-3.725-8.612 0-15.412 3.344-16.159 3.725-2.957 1.509-4.124 5.115-2.63 8.079 1.494 2.963 5.113 4.156 8.086 2.678.049-.024 4.929-2.42 10.703-2.42 5.773 0 10.653 2.396 10.675 2.407.878.448 1.814.661 2.737.661 2.195 0 4.31-1.202 5.376-3.291 1.514-2.968.336-6.6-2.63-8.114z"/><path d="m268.54 309.536c-3.33 0-6.031 2.7-6.031 6.031 0 5.807-4.724 10.531-10.53 10.531-5.807 0-10.531-4.724-10.531-10.531 0-3.33-2.7-6.031-6.031-6.031-3.33 0-6.031 2.7-6.031 6.031 0 12.457 10.134 22.592 22.592 22.592 12.457 0 22.591-10.135 22.591-22.592.001-3.33-2.699-6.031-6.029-6.031z"/><path d="m475.967 200.677c7.772-4.634 13.536-10.458 16.04-16.448 1.699-4.062 1.824-8.083.362-11.629-3.709-8.992-16.484-12.122-31.498-8.488 2.2-8.741 2.143-16.916-.321-22.922-1.678-4.092-4.444-7.038-8-8.52-6.812-2.839-14.91.359-21.928 7.782-1.32-1.713-2.666-3.416-4.07-5.095-34.123-40.81-88.122-66.161-140.925-66.161h-72.885c-56.43 0-106.657 28.084-138.478 71.503-7.034-7.683-15.233-11.064-22.143-8.243-3.564 1.455-6.349 4.379-8.054 8.456-2.503 5.986-2.604 14.161-.455 22.92-14.996-3.749-27.793-.71-31.554 8.258-1.481 3.532-1.382 7.55.287 11.621 2.467 6.011 8.193 11.886 15.943 16.581-7.773 4.634-13.531 10.461-16.035 16.451-1.699 4.063-1.825 8.084-.362 11.629 2.694 6.534 10.173 9.977 19.822 9.977 2.348 0 4.828-.215 7.396-.632-.271 4.117-.411 8.271-.411 12.458 0 .428.028.856.082 1.28 1.111 8.647 3.216 16.881 6.068 24.405-7.071 8.458-11.338 19.335-11.338 31.196 0 14.318 6.208 27.212 16.072 36.137-2.855 7.28-4.853 15.586-5.433 25.507-1.275 21.783 8.241 33.322 15.188 41.748 3.979 4.825 6.251 7.714 6.673 10.964.855 6.596-1.094 10.776-3.792 16.561-3.75 8.044-8.419 18.057-5.261 34.634 4.213 22.125 25.436 30.708 39.48 36.387 5.141 2.081 11.005-.403 13.086-5.55 2.081-5.146-.403-11.005-5.55-13.086-14.225-5.753-25.265-10.989-27.27-21.512-1.944-10.203.562-15.576 3.734-22.379 3.169-6.797 7.112-15.255 5.507-27.64-1.186-9.149-6.453-15.535-11.098-21.169-6.141-7.447-11.444-13.878-10.63-27.785.366-6.267 1.438-11.62 3.04-16.449 4.727 1.532 9.763 2.369 14.993 2.369 4.729 0 9.293-.699 13.619-1.962 14.361 17.737 32.468 32.322 53.107 42.539-15.016 20.842-23.874 46.402-23.874 73.994v31.583c0 5.551 4.5 10.051 10.051 10.051s10.051-4.5 10.051-10.051v-31.583c0-24.911 8.585-47.849 22.94-66.033 8.511 2.894 17.346 5.081 26.434 6.495-16.367 15.338-26.613 37.132-26.613 61.28v33.486c0 3.33 2.7 6.031 6.031 6.031 3.33 0 6.031-2.7 6.031-6.031v-33.486c0-20.204 8.377-38.479 21.835-51.556l122.069 77.777v7.265c0 3.33 2.7 6.031 6.031 6.031 3.33 0 6.031-2.7 6.031-6.031v-33.486c0-24.151-10.255-45.94-26.628-61.276 9.095-1.413 17.936-3.605 26.454-6.502 14.354 18.184 22.934 41.125 22.934 66.036v31.583c0 5.551 4.5 10.051 10.051 10.051s10.051-4.5 10.051-10.051v-31.583c0-27.592-8.863-53.148-23.88-73.99 20.644-10.217 38.755-24.803 53.119-42.542 4.324 1.262 8.886 1.961 13.613 1.961 5.236 0 10.277-.84 15.008-2.375 1.598 4.83 2.659 10.19 3.025 16.454.814 13.907-4.49 20.338-10.63 27.785-4.646 5.634-9.912 12.02-11.098 21.17-1.605 12.384 2.339 20.843 5.507 27.639 3.171 6.803 5.677 12.176 3.734 22.379-2.004 10.522-13.045 15.759-27.27 21.512-5.146 2.081-7.631 7.94-5.55 13.086 1.582 3.912 5.345 6.285 9.321 6.285 1.254 0 2.531-.237 3.765-.736 14.044-5.679 35.267-14.262 39.48-36.387 3.158-16.578-1.511-26.59-5.261-34.635-2.697-5.786-4.647-9.966-3.792-16.561.421-3.251 2.693-6.139 6.673-10.964 6.947-8.426 16.464-19.965 15.19-41.748-.581-9.922-2.579-18.227-5.435-25.506 9.864-8.925 16.073-21.819 16.073-36.138 0-14.23-6.139-27.043-15.898-35.959.577-1.73 1.117-3.456 1.621-5.168 1.664-1.529 3.031-3.497 4.023-5.869 2.29-5.477 2.575-12.786.963-20.698.058-.69.115-1.38.162-2.069 3.97.942 7.783 1.423 11.298 1.423 9.504 0 16.881-3.386 19.586-9.834 1.481-3.532 1.382-7.55-.288-11.621-2.466-6.009-8.194-11.885-15.946-16.581zm-3.168-25.988c4.725 0 7.846 1.118 8.42 2.508.207.502.083 1.369-.339 2.378-1.719 4.111-8.017 10.121-18.213 14.284-.334.136-.656.243-.986.371-4.479-1.416-8.812-2.238-12.836-2.5-.141-.395-.292-.788-.453-1.179-.158-.382-.325-.756-.498-1.126 2.672-2.996 5.17-6.604 7.354-10.734.319-.137.621-.281.948-.414 6.417-2.619 12.204-3.588 16.603-3.588zm-45.272 108.722c-5.57 10.19-10.092 13.894-11.886 14.752-1.2-1.283-4.813-6.468-7.117-23.903v-6.836c5.514-2.661 10.971-8.005 15.434-15.318 3.363 5.59 7.307 10.043 11.424 13.044-2.169 6.482-4.839 12.743-7.855 18.261zm18.943-50.921c4.176 10.13 4.313 18.808 2.595 22.916-.252.602-.779 1.654-1.485 1.942-2.691 1.103-11.346-5.244-16.809-18.495-.132-.32-.243-.632-.367-.949 1.402-4.407 2.244-8.725 2.519-12.764.385-.136.769-.281 1.152-.437.386-.158.749-.35 1.124-.524 3.059 2.702 6.729 5.204 10.866 7.375.136.311.274.617.405.936zm-44.713-64.009c-4.176-10.131-4.312-18.809-2.594-22.916.251-.602.778-1.654 1.484-1.942.2-.082.433-.123.695-.123 3.27 0 11.056 6.35 16.114 18.618.132.32.246.634.37.952-1.401 4.406-2.246 8.724-2.52 12.762-.386.137-.771.281-1.154.437-.386.158-.749.35-1.125.524-3.054-2.698-6.721-5.195-10.852-7.364-.138-.318-.283-.621-.418-.948zm-1.439 88.687c-.71-.296-1.233-1.358-1.482-1.965-1.691-4.122-1.502-12.799 2.733-22.891 1.911-4.555 4.193-8.276 6.475-11.158 3.667 2.824 8.033 4.636 12.624 5.254-.467 3.665-1.545 7.888-3.439 12.402-5.54 13.204-14.223 19.481-16.911 18.358zm36.924-62.019c1.433 3.476 1.424 7.299-.025 10.765-1.457 3.482-4.191 6.189-7.7 7.621-7.245 2.959-15.56-.503-18.532-7.714-1.433-3.477-1.424-7.3.025-10.766 1.457-3.482 4.19-6.188 7.699-7.62 1.758-.718 3.579-1.058 5.371-1.058 5.595.001 10.91 3.311 13.162 8.772zm-45.087-17.115c4.54 1.892 8.294 4.146 11.215 6.429-1.396 1.802-2.583 3.781-3.486 5.94-.895 2.139-1.488 4.352-1.793 6.59-3.658-.462-7.91-1.521-12.482-3.427-10.18-4.243-16.444-10.307-18.137-14.434-.415-1.012-.533-1.878-.324-2.377 1.119-2.673 11.734-4.256 25.007 1.279zm-6.595 29.078c.332-.135.652-.245.981-.371 4.482 1.418 8.816 2.24 12.843 2.503.141.394.291.786.451 1.175.157.379.336.742.509 1.11-2.674 2.997-5.171 6.613-7.358 10.745-.322.138-.625.285-.956.42v.001c-13.309 5.433-23.914 3.765-25.022 1.08-.206-.502-.082-1.369.34-2.379 1.72-4.112 8.018-10.123 18.212-14.284zm61.636-63.436c.27 0 .509.042.714.128.71.296 1.233 1.358 1.482 1.965 1.691 4.122 1.503 12.799-2.732 22.891-1.912 4.558-4.197 8.278-6.482 11.159-3.663-2.82-8.021-4.637-12.606-5.256.467-3.667 1.531-7.882 3.427-12.401 5.118-12.201 12.917-18.486 16.197-18.486zm-161.569-54.377c39.793 0 80.343 16.205 110.301 43.233-3.486 1.477-6.215 4.365-7.894 8.379-2.504 5.986-2.606 14.161-.456 22.92-14.996-3.749-27.792-.71-31.554 8.258-1.481 3.532-1.382 7.55.288 11.621 2.467 6.013 8.196 11.889 15.949 16.585-7.772 4.633-13.535 10.457-16.04 16.446-1.279 3.057-1.665 6.09-1.156 8.916h-10.842v-26.608c0-3.33-2.7-6.031-6.031-6.031-3.33 0-6.031 2.7-6.031 6.031v26.608h-48.997v-46.861c0-3.331-2.7-6.031-6.031-6.031-3.33 0-6.031 2.7-6.031 6.031v46.861h-38.249v-46.861c0-3.331-2.7-6.031-6.031-6.031-3.33 0-6.031 2.7-6.031 6.031v46.861h-49v-26.608c0-3.33-2.7-6.031-6.031-6.031-3.33 0-6.031 2.7-6.031 6.031v26.608h-10.619c.392-2.671.014-5.518-1.167-8.395-2.468-6.014-8.198-11.891-15.952-16.588 7.773-4.633 13.539-10.454 16.044-16.444 1.698-4.062 1.824-8.084.362-11.63-3.708-8.992-16.484-12.12-31.498-8.486 2.201-8.742 2.143-16.918-.321-22.924-1.678-4.092-4.444-7.038-8-8.52-.207-.086-.418-.157-.627-.232 27.5-26.749 64.343-43.14 104.787-43.14h72.889zm-189.893 185.147c-1.47 14.579-5.725 21.284-9.093 21.339-5.862.092-16.735-10.095-23.284-27.823 5.922-2.434 11.856-8.02 16.645-15.873 4.517 7.51 10.076 12.979 15.698 15.62zm-39.383-17.278c-.71-.296-1.233-1.358-1.482-1.965-1.691-4.122-1.503-12.799 2.732-22.891 1.912-4.558 4.197-8.272 6.48-11.154 3.666 2.821 8.03 4.633 12.619 5.25-.467 3.664-1.545 7.887-3.439 12.402-5.539 13.204-14.226 19.481-16.91 18.358zm39.86-77.35c-3.662-2.82-8.02-4.636-12.605-5.256.466-3.667 1.529-7.881 3.426-12.401 5.118-12.201 12.917-18.485 16.197-18.485.27 0 .509.042.714.128.71.296 1.233 1.358 1.482 1.965 1.691 4.122 1.503 12.799-2.732 22.891-1.913 4.558-4.198 8.277-6.482 11.158zm-16.097 6.56c5.594 0 10.909 3.31 13.161 8.771 1.433 3.477 1.424 7.3-.026 10.766-1.457 3.482-4.19 6.188-7.699 7.62-7.245 2.959-15.56-.503-18.532-7.714-1.433-3.476-1.424-7.299.025-10.765 1.457-3.482 4.191-6.189 7.7-7.621 1.758-.717 3.579-1.057 5.371-1.057zm8.848 38.76c.383-.136.766-.28 1.147-.435.383-.156.743-.348 1.116-.52 3.059 2.701 6.737 5.198 10.874 7.368.135.312.272.62.404.94v-.001c4.177 10.131 4.312 18.809 2.594 22.917-.251.602-.778 1.654-1.484 1.941-2.694 1.103-11.346-5.244-16.809-18.495-.131-.317-.25-.629-.373-.942 1.404-4.409 2.254-8.732 2.531-12.773zm48.151-.923c-1.123 2.672-11.736 4.254-25.008-1.278-4.54-1.892-8.296-4.146-11.216-6.427 1.396-1.803 2.584-3.782 3.487-5.941.895-2.139 1.488-4.351 1.792-6.588 3.656.46 7.906 1.517 12.482 3.425 10.179 4.243 16.444 10.307 18.137 14.434.416 1.012.534 1.878.326 2.375zm-18.414-30.356c-.326.133-.647.255-.969.379-4.484-1.418-8.824-2.246-12.851-2.507-.142-.396-.292-.789-.453-1.18-.158-.382-.325-.757-.499-1.128 2.67-2.991 5.162-6.601 7.345-10.724.323-.139.626-.287.958-.422 6.416-2.619 12.205-3.588 16.603-3.588 4.724 0 7.846 1.118 8.419 2.508.206.502.082 1.369-.34 2.379-1.719 4.111-8.018 10.122-18.213 14.283zm-63.504-48.294c.252-.602.779-1.654 1.485-1.942.2-.081.433-.122.695-.122 3.27 0 11.056 6.349 16.114 18.618.131.317.248.629.371.943-1.402 4.409-2.243 8.728-2.517 12.769-.387.137-.773.282-1.157.439-.388.158-.753.352-1.13.527-3.057-2.702-6.722-5.205-10.859-7.376-.136-.313-.274-.619-.406-.939-4.178-10.131-4.314-18.81-2.596-22.917zm-31.69 33.567c-.415-1.012-.533-1.878-.324-2.377 1.119-2.673 11.733-4.255 25.007 1.279 4.54 1.893 8.293 4.146 11.214 6.43-1.396 1.802-2.583 3.782-3.486 5.94-.894 2.137-1.486 4.348-1.791 6.584-3.658-.461-7.906-1.514-12.482-3.422-10.18-4.244-16.445-10.307-18.138-14.434zm-.463 44.642c-.207-.502-.083-1.369.339-2.379 1.72-4.111 8.017-10.121 18.213-14.283.327-.133.647-.25.97-.375 4.485 1.42 8.823 2.243 12.853 2.507.141.394.291.786.451 1.175.158.382.339.748.512 1.118-2.672 2.991-5.161 6.608-7.346 10.733-.326.14-.637.287-.971.423v.001c-13.307 5.432-23.914 3.765-25.021 1.08zm59.208 111.918c-15.791 0-28.638-12.847-28.638-28.637 0-3.79.743-7.408 2.087-10.721 4.63 6.398 9.9 11.502 15.492 14.89 3.292 8.521 7.296 16.689 11.947 24.428-.297.01-.589.04-.888.04zm202.696 77.025c1.338 0 2.671-.022 4.001-.055l-26.914 31.928-50.289-32.042c2.409.109 4.831.169 7.266.169zm38.985 59.39v11.92l-51.634-32.899 27.553-32.687c14.768 13.186 24.081 32.358 24.081 53.666zm-38.985-79.493h-65.936c-54.705 0-102.067-31.941-124.484-78.14 8.311-3.026 18.744-12.172 21.267-38.607.031-.334.047-.67.045-1.006l-.071-13.823c.156-.322.316-.64.457-.978 1.077-2.576 1.707-5.56 1.91-8.818 2.247-3.316 5.873-5.483 9.969-5.483h248.331c3.971 0 7.268 1.971 9.393 5.284.188 3.223.799 6.178 1.849 8.737.228.555.479 1.084.746 1.596v15.411c0 1.245.227 2.438.64 3.538 1.621 11.094 5.803 31.336 19.098 36.752-22.911 44.797-69.537 75.537-123.214 75.537zm165.399-85.559c0 15.79-12.846 28.637-28.638 28.637-.297 0-.587-.027-.881-.035 5.004-8.327 9.263-17.15 12.687-26.374 4.574-4.671 8.723-10.801 12.328-17.608 2.847 4.444 4.504 9.72 4.504 15.38zm30.734-82.839c-1.12 2.672-11.734 4.254-25.007-1.279-4.541-1.893-8.292-4.147-11.213-6.431 1.395-1.802 2.583-3.781 3.485-5.939.894-2.138 1.487-4.35 1.792-6.586 3.659.461 7.908 1.516 12.482 3.424 10.179 4.243 16.444 10.307 18.137 14.434.415 1.013.533 1.879.324 2.377z"/></g><path d="m217.13 133.5c-5.26 0-9.683-4.092-10.021-9.415-.352-5.54 3.854-10.316 9.394-10.668 12.521-.794 25.941-.58 36.724-.406 5.551.089 9.978 4.66 9.889 10.211-.089 5.55-4.63 9.975-10.211 9.888-10.971-.177-23.405-.375-35.128.369-.217.015-.433.021-.647.021z" fill="#fff"/><path d="m164.319 144.622c-3.933 0-7.668-2.324-9.279-6.18-2.139-5.122.279-11.009 5.402-13.148 4.629-1.933 9.361-3.385 12.966-4.434 5.328-1.551 10.908 1.512 12.459 6.842s-1.513 10.908-6.842 12.459c-3.292.958-7.154 2.145-10.836 3.682-1.266.529-2.58.779-3.87.779z" fill="#fff"/></g><g><path d="m470.138 14.459 8.537 24.005c.366 1.028 1.089 1.842 2.002 2.254l21.328 9.609c3.013 1.358 3.013 6.158 0 7.516l-21.328 9.609c-.913.411-1.637 1.226-2.002 2.254l-8.537 24.005c-1.206 3.392-5.471 3.392-6.678 0l-8.537-24.005c-.366-1.028-1.089-1.842-2.002-2.254l-21.328-9.609c-3.013-1.357-3.013-6.158 0-7.516l21.328-9.609c.913-.412 1.637-1.226 2.002-2.254l8.537-24.005c1.207-3.392 5.472-3.392 6.678 0z" fill="#f1c7b6"/><path d="m388.454 21.664c0 10.295-8.346 18.642-18.642 18.642s-18.642-8.346-18.642-18.642 8.346-18.642 18.642-18.642 18.642 8.346 18.642 18.642z" fill="#eaa585"/><ellipse cx="15.629" cy="82.892" fill="#eaa585" rx="7.895" ry="7.894" transform="matrix(.122 -.993 .993 .122 -68.552 88.276)"/><path d="m80.523 1.887 6.333 17.807c.271.762.808 1.366 1.485 1.672l15.821 7.128c2.235 1.007 2.235 4.568 0 5.575l-15.821 7.128c-.677.305-1.214.909-1.485 1.672l-6.333 17.807c-.895 2.516-4.059 2.516-4.953 0l-6.333-17.807c-.271-.762-.808-1.367-1.485-1.672l-15.821-7.128c-2.235-1.007-2.235-4.568 0-5.575l15.821-7.128c.677-.305 1.214-.91 1.485-1.672l6.333-17.807c.894-2.516 4.058-2.516 4.953 0z" fill="#f1c7b6"/></g></g></svg>