<svg id="Capa_1" enable-background="new 0 0 512 512" height="512" viewBox="0 0 512 512" width="512" xmlns="http://www.w3.org/2000/svg"><g><g><path d="m381.208 501.882v-30.287c0-61.873-50.158-112.03-112.031-112.03-61.873 0-112.031 50.158-112.031 112.03v30.287z" fill="#8bb6ef"/><path d="m277.024 398.894c21.63 9.729 36.846 32.818 36.846 59.763v6.483c0 10.092-8.181 18.273-18.273 18.273h-101.202v18.468h149.565v-28.617c0-38.649-29.323-70.446-66.936-74.37z" fill="#8388ef"/><path d="m206.375 431.894 7.491 10.066c9.851 13.236 28.451 13.146 38.193-.185l17.182-23.512 16.929 23.477c9.64 13.368 28.185 13.624 38.134.527l7.675-10.103v-40.42h-125.477s-.127 39.655-.127 40.15z" fill="#fff"/><g fill="#f4d6d4"><circle cx="431.941" cy="314.986" r="37.1"/><circle cx="106.414" cy="314.986" r="37.1"/><path d="m300.792 406.673h-63.229c-78.571 0-142.266-63.694-142.266-142.266 0-78.571 63.694-142.266 142.266-142.266h63.229c78.571 0 142.266 63.694 142.266 142.266 0 78.572-63.695 142.266-142.266 142.266z"/></g><path d="m300.792 122.057h-18.243c63.699 0 115.336 51.638 115.336 115.336v9.795c0 63.699-51.638 115.337-115.336 115.337h-71.915c-60.958 0-110.863-47.292-115.046-107.186-.185 2.972-.291 5.965-.291 8.983 0 78.571 63.694 142.266 142.266 142.266h63.229c78.571 0 142.266-63.695 142.266-142.266 0-78.571-63.695-142.265-142.266-142.265z" fill="#e69fd5"/><path d="m486.952 221.614c0-16.66-10.286-30.91-24.849-36.771.602-3.083.927-6.265.927-9.525 0-27.28-22.115-49.395-49.395-49.395-2.043 0-4.053.139-6.031.38-8.001-20.379-27.833-34.814-51.05-34.814-8.079 0-15.743 1.761-22.649 4.898-13.048-13.464-31.311-21.845-51.541-21.845-15.624 0-30.071 5.007-41.856 13.483-12.073-8.963-27.023-14.27-43.215-14.27-33.027 0-60.882 22.07-69.671 52.26-.961-.056-1.927-.092-2.902-.092-27.28 0-49.395 22.115-49.395 49.395 0 3.259.324 6.442.927 9.525-14.563 5.86-24.849 20.11-24.849 36.771 0 17.139 10.88 31.735 26.11 37.262-6.061 5.306-9.893 13.093-9.893 21.78 0 15.985 12.959 28.944 28.944 28.944s28.944-12.959 28.944-28.944c0-4.114-.864-8.025-2.411-11.569.539.022 1.079.041 1.624.041 21.888 0 39.631-17.744 39.631-39.631 0-.079-.005-.156-.006-.234 8.074-1.011 15.112-5.341 19.704-11.588 4.296.793 8.718 1.227 13.243 1.227 16.192 0 31.142-5.307 43.215-14.27 11.785 8.475 26.231 13.483 41.856 13.483 20.23 0 38.493-8.381 51.541-21.845 4.625 2.1 9.587 3.582 14.791 4.33.023 14.735 11.057 26.879 25.314 28.664 0 .079-.006.156-.006.234 0 21.888 17.743 39.631 39.631 39.631.544 0 1.084-.019 1.624-.041-1.547 3.544-2.411 7.455-2.411 11.569 0 15.985 12.958 28.944 28.944 28.944 15.985 0 28.944-12.959 28.944-28.944 0-8.687-3.833-16.474-9.893-21.78 15.228-5.528 26.109-20.124 26.109-37.263z" fill="#eaa585"/><path d="m229.81 95.341c-11.858 31.498 30.528 66.6 93.329 90.243s122.236 26.874 134.094-4.625-28.35-85.798-91.151-109.441c-62.802-23.643-124.414-7.676-136.272 23.823z" fill="#8bb6ef"/><path d="m366.082 71.518c-4.262-1.605-8.518-3.02-12.754-4.268 42.923 20.354 69.195 58.485 60.589 81.343-9.323 24.766-56.054 22.225-105.432 3.636-44.903-16.905-76.527-41.26-74.879-64.16-1.568 2.315-2.844 4.742-3.796 7.27-11.858 31.498 30.528 66.6 93.329 90.243s122.236 26.874 134.094-4.624c11.858-31.497-28.35-85.797-91.151-109.44z" fill="#8388ef"/><path d="m356.787 113.634c5.771 2.475 12.475.08 15.372-5.491l23.491-45.179c3.218-6.19.496-13.81-5.915-16.56l-6.951-2.981c-6.412-2.75-13.809.531-16.075 7.129l-16.54 48.16c-2.04 5.939.846 12.447 6.618 14.922z" fill="#8bb6ef"/></g><g><g fill="#440b29"><ellipse cx="184.301" cy="323.149" rx="15.882" ry="15.882" transform="matrix(.997 -.083 .083 .997 -26.025 16.302)"/><ellipse cx="354.054" cy="323.149" rx="15.882" ry="15.882" transform="matrix(.973 -.23 .23 .973 -64.773 89.989)"/><path d="m199.927 270.736c-.722-.368-7.3-3.605-15.626-3.605-8.325 0-14.904 3.236-15.627 3.605-2.986 1.525-4.17 5.181-2.646 8.167 1.525 2.986 5.18 4.172 8.167 2.646.044-.023 4.614-2.277 10.106-2.277 5.463 0 10.088 2.269 10.105 2.277.884.452 1.827.665 2.755.665 2.208 0 4.338-1.209 5.411-3.311 1.526-2.986.341-6.643-2.645-8.167z"/><path d="m369.681 270.736c-.723-.37-7.302-3.605-15.627-3.605s-14.904 3.236-15.627 3.605c-2.986 1.525-4.17 5.181-2.646 8.167 1.525 2.986 5.181 4.172 8.167 2.646.044-.023 4.614-2.277 10.106-2.277 5.463 0 10.089 2.269 10.106 2.277.884.452 1.827.665 2.756.665 2.208 0 4.338-1.209 5.411-3.311 1.524-2.986.34-6.643-2.646-8.167z"/><path d="m285.059 317.079c-3.352 0-6.07 2.718-6.07 6.07 0 5.409-4.402 9.811-9.811 9.811-5.41 0-9.812-4.402-9.812-9.811 0-3.352-2.718-6.07-6.07-6.07s-6.07 2.718-6.07 6.07c0 12.104 9.847 21.952 21.953 21.952 12.104 0 21.952-9.848 21.952-21.952-.002-3.352-2.72-6.07-6.072-6.07z"/><path d="m497.069 221.614c0-17.716-9.218-33.701-24.037-42.6.077-1.232.116-2.465.116-3.694 0-11.942-3.541-23.07-9.621-32.398-3.671-8.531-9.019-17.282-15.98-25.959-13.318-16.6-30.946-31.133-51.083-42.405l4.572-8.793c2.31-4.443 2.669-9.695.984-14.411-1.684-4.716-5.29-8.553-9.892-10.528l-6.952-2.981c-4.603-1.974-9.868-1.94-14.447.09-4.577 2.03-8.135 5.91-9.762 10.646l-3.246 9.453c-27.497-8.354-55.801-10.239-80.873-5.2-17.758 3.57-32.395 10.347-42.682 19.469-11.374-5.69-23.896-8.663-36.874-8.663-33.968 0-64.574 21.171-76.908 52.325-30.799 2.228-55.177 27.999-55.177 59.356 0 1.229.039 2.461.116 3.694-14.82 8.899-24.038 24.884-24.038 42.6 0 16.294 8.035 31.328 20.895 40.52-3.036 5.633-4.677 11.987-4.677 18.522 0 6.582 1.643 12.784 4.53 18.23-1.829 5.027-2.836 10.447-2.836 16.099 0 26.036 21.182 47.218 47.218 47.218 4.472 0 8.794-.638 12.895-1.808 13.666 16.805 30.832 30.654 50.381 40.421-14.258 19.982-22.661 44.415-22.661 70.778v30.287c0 5.587 4.53 10.117 10.117 10.117s10.117-4.53 10.117-10.117v-30.287c0-23.656 8.109-45.447 21.685-62.759 3.741 1.263 7.544 2.386 11.408 3.359l-.042 13.097v.002c-.005 1.647.17 3.287.48 4.9-7.891 12.478-12.47 27.247-12.47 43.07v32.112c0 3.352 2.718 6.07 6.07 6.07s6.07-2.718 6.07-6.07v-32.112c0-10.772 2.498-20.97 6.936-30.052 6.607 7.491 15.715 11.734 25.448 11.734.048 0 .098 0 .146-.001 10.805-.046 20.819-5.299 27.477-14.408l2.698-3.693v38.585c0 3.352 2.718 6.07 6.07 6.07s6.07-2.718 6.07-6.07v-38.358l2.446 3.392c6.592 9.142 16.561 14.463 27.35 14.596.139.002.278.003.417.003 9.729 0 18.853-4.248 25.468-11.761 4.414 9.06 6.897 19.224 6.897 29.962v32.112c0 3.352 2.718 6.07 6.07 6.07s6.07-2.718 6.07-6.07v-32.112c0-15.812-4.581-30.563-12.462-43.032.3-1.586.472-3.198.472-4.818v-13.233c3.848-.97 7.637-2.09 11.363-3.347 13.576 17.313 21.688 39.105 21.688 62.762v30.287c0 5.587 4.53 10.117 10.117 10.117s10.117-4.53 10.117-10.117v-30.287c0-26.364-8.405-50.797-22.664-70.779 19.55-9.768 36.72-23.614 50.387-40.421 4.101 1.168 8.421 1.809 12.892 1.809 26.036 0 47.218-21.182 47.218-47.218 0-5.653-1.004-11.074-2.836-16.101 2.887-5.446 4.529-11.648 4.529-18.229 0-6.536-1.641-12.89-4.677-18.523 12.862-9.191 20.897-24.225 20.897-40.519zm-124.619-169.092c.541-1.576 1.678-2.816 3.201-3.492 1.525-.676 3.21-.687 4.74-.029l6.951 2.98c1.532.658 2.685 1.884 3.245 3.454.561 1.57.447 3.249-.322 4.728l-23.491 45.179c-1.425 2.736-4.761 3.926-7.594 2.712-2.836-1.215-4.271-4.453-3.269-7.371zm-91.613 20.148c7.982-1.604 16.362-2.398 24.976-2.398 14.73 0 30.133 2.332 45.34 6.887l-6.725 19.582c-3.054 8.894 1.324 18.765 9.966 22.472h.001c2.291.982 4.689 1.45 7.058 1.45 6.566 0 12.905-3.589 16.092-9.72l9.56-18.385c17.644 10.008 33.253 22.851 44.658 37.068 14.268 17.784 20.4 36.088 16.002 47.77-5.043 13.394-23.746 16.332-38.548 16.439-.282.002-.562.003-.847.003-22.32-.001-51.277-6.279-81.666-17.72-30.374-11.435-55.717-25.69-71.362-40.14-10.161-9.385-21.196-23.435-16.063-37.07 4.559-12.115 20.095-21.923 41.558-26.238zm-219.318 148.944c0-12.111 7.265-22.86 18.508-27.384 4.502-1.812 7.084-6.564 6.153-11.327-.49-2.509-.739-5.061-.739-7.584 0-21.657 17.62-39.277 39.277-39.277.699 0 1.454.025 2.311.074 4.692.27 8.987-2.74 10.306-7.272 7.706-26.479 32.361-44.971 59.956-44.971 8.477 0 16.695 1.678 24.315 4.911-.457.985-.884 1.98-1.265 2.992-13.407 35.612 24.616 75.185 99.232 103.276.13.049.259.094.389.143-10.728 8.304-23.791 12.802-37.6 12.802-12.986 0-25.416-4.003-35.948-11.579-3.575-2.573-8.402-2.534-11.938.09-10.818 8.032-23.676 12.276-37.185 12.276-3.758 0-7.597-.357-11.409-1.059-3.815-.706-7.692.835-9.987 3.958-3.054 4.156-7.723 6.904-12.809 7.54-5.063.634-8.861 4.937-8.861 10.039 0 .119.002.239.006.362-.069 16.215-13.283 29.386-29.514 29.386-.408 0-.813-.016-1.217-.033-3.491-.129-6.793 1.522-8.76 4.4s-2.314 6.565-.919 9.76c1.039 2.378 1.566 4.908 1.566 7.519 0 10.381-8.445 18.827-18.827 18.827-10.381 0-18.827-8.446-18.827-18.827 0-5.421 2.348-10.586 6.44-14.168 2.692-2.357 3.939-5.962 3.279-9.478-.66-3.517-3.128-6.424-6.492-7.645-11.626-4.221-19.441-15.373-19.441-27.751zm44.895 120.356c-14.619 0-26.552-11.688-26.964-26.209 4.89 2.394 10.352 3.787 16.119 3.932 3.029 7.752 6.671 15.199 10.873 22.276-.009 0-.019.001-.028.001zm144.255 91.405c-4.357 5.964-10.819 9.401-17.727 9.431h-.091c-6.864-.001-13.306-3.37-17.686-9.257-1.756-2.358-2.718-5.277-2.709-8.217l.033-10.605c8.16 1.357 16.536 2.063 25.074 2.063h25.226zm75.23-7.961c0 3.034-1.011 6.036-2.846 8.452-4.436 5.84-10.959 9.116-17.794 9.055-6.901-.086-13.336-3.57-17.655-9.558l-11.952-16.573h25.139c8.55 0 16.937-.712 25.107-2.072v10.696zm-25.107-28.859h-63.229c-55.013 0-102.271-33.794-122.132-81.711 12.029-6.665 20.193-19.489 20.193-34.188 0-.87-.029-1.735-.085-2.596 19.747-4.398 35.111-20.568 38.313-40.733 5.279-1.894 10.12-4.914 14.152-8.842 3.106.354 6.214.533 9.287.533 15.476 0 30.31-4.21 43.311-12.238 12.618 7.511 26.917 11.45 41.76 11.45 20.057 0 38.937-7.13 53.857-20.211 1.086.359 2.182.688 3.284.988 2.906 13.069 12.402 23.829 25 28.33 3.205 20.161 18.567 36.325 38.311 40.722-.056.861-.085 1.726-.085 2.596 0 14.7 8.165 27.524 20.195 34.189-19.859 47.917-67.119 81.711-122.132 81.711zm131.149-54.585c-.01 0-.019-.001-.029-.001 4.203-7.078 7.847-14.524 10.876-22.276 5.766-.146 11.227-1.538 16.117-3.932-.413 14.52-12.346 26.209-26.964 26.209zm25.45-92.605c-3.364 1.221-5.832 4.128-6.492 7.645-.66 3.516.587 7.121 3.279 9.478 4.092 3.583 6.44 8.747 6.44 14.168 0 10.381-8.446 18.827-18.827 18.827s-18.827-8.446-18.827-18.827c0-2.61.527-5.141 1.566-7.521 1.394-3.194 1.046-6.882-.921-9.759-1.89-2.764-5.019-4.406-8.351-4.406-.136 0-.273.003-.409.008-.403.017-.808.033-1.215.033-16.23 0-29.443-13.169-29.514-29.384.004-.122.006-.243.006-.365 0-5.101-3.798-9.405-8.861-10.039-6.907-.865-12.556-5.456-15.058-11.596 17.58 4.213 34.002 6.443 48.186 6.442.322 0 .648-.001.968-.004 28.221-.203 43.25-8.912 51.218-18.812 9.947 4.988 16.253 15.08 16.253 26.359.002 12.381-7.811 23.532-19.441 27.753z"/><path d="m414.309 174.608c3.352 0 6.07-2.718 6.07-6.07v-8.187c0-3.352-2.718-6.07-6.07-6.07s-6.07 2.718-6.07 6.07v8.187c-.001 3.352 2.717 6.07 6.07 6.07z"/><path d="m374.383 162.001c3.352 0 6.07-2.718 6.07-6.07v-8.186c0-3.352-2.718-6.07-6.07-6.07s-6.07 2.718-6.07 6.07v8.186c0 3.352 2.718 6.07 6.07 6.07z"/></g><path d="m117.777 196.807c-.987 0-1.991-.146-2.984-.452-5.339-1.646-8.334-7.309-6.688-12.65 3.089-10.016 9.531-19.197 18.143-25.849 4.419-3.417 10.775-2.602 14.191 1.821 3.417 4.421 2.601 10.775-1.821 14.191-5.337 4.124-9.306 9.735-11.175 15.799-1.341 4.347-5.344 7.14-9.666 7.14z" fill="#fff"/><path d="m183.678 134.039c-3.333 0-6.595-1.644-8.527-4.658-3.016-4.704-1.648-10.962 3.056-13.978 1.727-1.107 3.502-2.136 5.274-3.06 4.957-2.582 11.065-.655 13.647 4.299 2.581 4.956.657 11.066-4.299 13.647-1.238.644-2.483 1.368-3.701 2.149-1.689 1.084-3.58 1.601-5.45 1.601z" fill="#fff"/></g><g><path d="m72.674 2.56 8.593 24.164c.368 1.035 1.096 1.854 2.016 2.269l21.468 9.672c3.033 1.366 3.033 6.199 0 7.565l-21.468 9.672c-.919.414-1.648 1.234-2.016 2.269l-8.593 24.163c-1.214 3.414-5.507 3.414-6.722 0l-8.593-24.163c-.368-1.035-1.096-1.854-2.016-2.269l-21.468-9.672c-3.033-1.367-3.033-6.199 0-7.565l21.468-9.672c.919-.414 1.648-1.234 2.016-2.269l8.593-24.164c1.214-3.413 5.508-3.413 6.722 0z" fill="#b2e7f1"/><ellipse cx="469.041" cy="48.875" fill="#8bb6ef" rx="18.764" ry="18.764" transform="matrix(.23 -.973 .973 .23 313.71 494.14)"/><circle cx="22.878" cy="127.232" fill="#8bb6ef" r="7.946"/><path d="m457.885 395.831 6.374 17.924c.273.767.813 1.375 1.495 1.683l15.925 7.175c2.25 1.014 2.25 4.598 0 5.612l-15.925 7.175c-.682.307-1.222.915-1.495 1.683l-6.374 17.924c-.901 2.532-4.086 2.532-4.986 0l-6.375-17.924c-.273-.767-.813-1.375-1.495-1.683l-15.925-7.175c-2.25-1.014-2.25-4.598 0-5.612l15.925-7.175c.682-.307 1.222-.915 1.495-1.683l6.375-17.924c.901-2.532 4.086-2.532 4.986 0z" fill="#b2e7f1"/></g></g></svg>