<svg id="Capa_1" enable-background="new 0 0 512 512" height="512" viewBox="0 0 512 512" width="512" xmlns="http://www.w3.org/2000/svg"><g><g><g fill="#b07676"><path d="m408.862 502.297c0-10.681 2.883-16.278 19.081-26.421 24.74-15.492 25.996-32.301 25.996-58.443 0-8.75-7.093-15.844-15.844-15.844-8.75 0-15.844 7.093-15.844 15.844 0 23.822-1.101 25.31-11.126 31.587-20.379 12.761-33.951 26.705-33.951 53.278"/><path d="m378.046 501.942v-30.343c0-61.987-50.251-112.238-112.238-112.238-61.987 0-112.238 50.251-112.238 112.238v30.343z"/><path d="m340.729 497.084v-28.67c0-41.378-33.543-74.921-74.921-74.921-41.378 0-74.921 33.543-74.921 74.921v28.67z"/></g><path d="m273.67 398.763c21.671 9.747 36.914 32.879 36.914 59.874v6.495c0 10.111-8.196 18.307-18.307 18.307h-101.39v18.502h149.842v-28.67c0-38.721-29.377-70.577-67.059-74.508z" fill="#a45775"/><circle cx="428.873" cy="314.7" fill="#f1c7b6" r="37.169"/><circle cx="102.743" cy="314.7" fill="#f1c7b6" r="37.169"/><path d="m297.482 406.556h-63.347c-78.717 0-142.529-63.812-142.529-142.529 0-78.717 63.812-142.529 142.529-142.529h63.347c78.717 0 142.529 63.812 142.529 142.529 0 78.717-63.813 142.529-142.529 142.529z" fill="#f1c7b6"/><path d="m297.482 121.298h-18.277c63.817 0 115.55 51.733 115.55 115.55v9.813c0 63.817-51.734 115.55-115.55 115.55h-72.049c-61.071 0-111.069-47.379-115.259-107.384-.186 2.977-.291 5.976-.291 9 0 78.717 63.812 142.529 142.529 142.529h63.347c78.717 0 142.529-63.813 142.529-142.529 0-78.717-63.813-142.529-142.529-142.529z" fill="#e795b6"/><path d="m426.921 171.169c1.593-37.883 1.207-102.69-19.309-111.299-17.238-7.234-52.83 23.465-79.139 49.876-9.033-1.619-18.333-2.465-27.832-2.465h-69.665c-9.498 0-18.799.846-27.832 2.465-26.309-26.411-61.902-57.11-79.14-49.876-20.516 8.61-20.902 73.416-19.309 111.299-19.145 25.991-30.465 58.1-30.465 92.858 0 19.6 19.244 35.999 20.021 34.617 26.852-47.778 78.015-80.06 136.724-80.06h69.665c58.596 0 109.675 32.157 136.569 79.784 3.842 6.804 20.176-14.741 20.176-34.341 0-34.757-11.32-66.867-30.464-92.858z" fill="#b07676"/><path d="m426.921 171.169c1.593-37.883 1.207-102.69-19.309-111.299-8.952-3.756-22.854 2.719-37.835 13.509 7.351 20.276 7.28 57.357 6.261 81.578 16.383 22.242 26.07 49.718 26.07 79.461v.001c0 6.145-1.879 12.508-4.418 17.825 15.982 12.621 29.447 28.287 39.52 46.125 3.842 6.804 20.176-14.741 20.176-34.341-.001-34.758-11.321-66.868-30.465-92.859z" fill="#a45775"/><path d="m386.054 98.813-23.275 19.079c-2.03 1.664-1.853 4.823.351 6.25l29.561 19.137c2.824 1.828 6.476-.563 5.93-3.882l-6.286-38.215c-.485-2.944-3.974-4.26-6.281-2.369z" fill="#fbf2a8"/><path d="m144.674 98.813 23.275 19.079c2.03 1.664 1.853 4.823-.351 6.25l-29.561 19.137c-2.824 1.828-6.476-.563-5.93-3.882l6.286-38.215c.485-2.944 3.974-4.26 6.281-2.369z" fill="#fbf2a8"/></g><g><g fill="#440b29"><circle cx="180.774" cy="322.877" r="15.911"/><ellipse cx="350.842" cy="322.877" rx="15.911" ry="15.911" transform="matrix(.987 -.16 .16 .987 -47.189 60.368)"/><path d="m196.408 270.409c-.723-.369-7.304-3.605-15.633-3.605-8.33 0-14.91 3.236-15.633 3.605-2.957 1.509-4.124 5.116-2.63 8.081 1.493 2.964 5.114 4.157 8.089 2.68.046-.023 4.689-2.3 10.175-2.3 5.485 0 10.128 2.277 10.147 2.286.878.448 1.815.661 2.738.661 2.195 0 4.312-1.202 5.378-3.291 1.514-2.968.336-6.601-2.631-8.117z"/><path d="m340.667 281.17c.047-.023 4.69-2.3 10.175-2.3 5.486 0 10.129 2.277 10.148 2.286.878.448 1.815.661 2.738.661 2.195 0 4.312-1.202 5.379-3.292 1.515-2.967.337-6.601-2.631-8.116-.723-.369-7.304-3.605-15.633-3.605s-14.91 3.236-15.633 3.605c-2.957 1.509-4.124 5.116-2.631 8.081 1.492 2.965 5.115 4.159 8.088 2.68z"/><path d="m265.808 344.822c12.1 0 21.944-9.844 21.944-21.944 0-3.332-2.701-6.033-6.033-6.033s-6.033 2.701-6.033 6.033c0 5.447-4.432 9.878-9.878 9.878-5.447 0-9.878-4.431-9.878-9.878 0-3.332-2.701-6.033-6.033-6.033s-6.033 2.701-6.033 6.033c0 12.099 9.844 21.944 21.944 21.944z"/><path d="m438.914 390.714c-14.28 0-25.899 11.618-25.899 25.899 0 7.941-.091 15.941-1.18 18.886-.309.837-.869 1.449-5.227 4.179-6.981 4.371-13.778 9.182-19.679 14.982-2.775-19.93-10.371-38.337-21.569-54.004 19.62-9.789 36.847-23.682 50.553-40.548 4.119 1.18 8.466 1.816 12.96 1.816 26.04 0 47.224-21.184 47.224-47.224 0-12.19-4.659-23.299-12.272-31.683 2.25-6.235 3.614-12.848 3.614-18.99 0-34.656-10.476-67.742-30.336-95.923.672-18.19.86-43.089-1.555-64.679-3.421-30.591-11.062-47.377-24.047-52.826-11.341-4.758-32.602-4.764-86.485 48.4-8.039-1.176-16.216-1.771-24.377-1.771h-69.665c-8.16 0-16.338.595-24.377 1.771-53.882-53.165-75.142-53.157-86.485-48.4-12.985 5.449-20.626 22.236-24.047 52.826-2.415 21.592-2.227 46.49-1.555 64.679-19.859 28.181-30.335 61.268-30.335 95.923 0 6.477 1.619 12.741 4.102 18.43-7.909 8.445-12.76 19.787-12.76 32.243 0 26.04 21.185 47.224 47.224 47.224 4.491 0 8.832-.644 12.949-1.824 13.708 16.871 30.942 30.765 50.567 40.556-14.31 20.02-22.743 44.513-22.743 70.943v30.343c0 5.553 4.502 10.055 10.055 10.055s10.055-4.502 10.055-10.055v-30.343c0-23.737 8.14-45.606 21.77-62.972 7.842 2.651 15.969 4.675 24.32 6.025-7.745 7.454-14.012 16.429-18.317 26.441-.185.337-.339.694-.458 1.066-3.92 9.493-6.085 19.888-6.085 30.781v32.437c0 3.332 2.701 6.033 6.033 6.033s6.033-2.701 6.033-6.033v-20.961h28.565c3.332 0 6.033-2.701 6.033-6.033s-2.701-6.033-6.033-6.033h-28.554c.066-7.819 1.443-15.328 3.92-22.323h30.433c3.332 0 6.033-2.701 6.033-6.033s-2.701-6.033-6.033-6.033h-24.786c5.056-8.533 11.895-15.889 20.009-21.546 2.528.125 5.07.195 7.629.195h63.346c2.555 0 5.095-.07 7.62-.195 8.116 5.657 14.96 13.01 20.017 21.546h-26.955c-3.332 0-6.033 2.701-6.033 6.033s2.701 6.033 6.033 6.033h32.607c2.476 6.994 3.848 14.505 3.914 22.323h-30.723c-3.332 0-6.033 2.701-6.033 6.033s2.701 6.033 6.033 6.033h30.734v20.961c0 3.332 2.701 6.033 6.033 6.033s6.033-2.701 6.033-6.033v-32.437c0-22.875-9.543-43.557-24.85-58.291 8.345-1.349 16.466-3.374 24.303-6.023 13.632 17.366 21.777 39.233 21.777 62.973v26.911c-.034.974-.053 1.963-.053 2.968 0 .446.039.882.095 1.313.432 5.155 4.745 9.207 10.012 9.207 5.553 0 10.055-4.502 10.055-10.055v-2.955c.786-20.474 11.376-31.116 29.18-42.265 14.478-9.067 15.844-15.255 15.844-40.109 0-3.192 2.597-5.789 5.789-5.789s5.788 2.597 5.788 5.789c0 24.716-.904 37.164-21.277 49.921-18.016 11.282-23.799 19.773-23.799 34.944 0 5.553 4.502 10.055 10.055 10.055s10.055-4.502 10.055-10.055c0-6.115 0-8.906 14.362-17.899 28.577-17.895 30.715-38.133 30.715-66.965 0-14.282-11.619-25.901-25.899-25.901zm17.074-76.014c0 14.951-12.163 27.114-27.114 27.114-.059 0-.117-.008-.176-.008 6.074-10.21 10.993-21.183 14.571-32.741 3.26-1.042 6.552-3.509 9.615-6.934 1.977 3.758 3.104 8.033 3.104 12.569zm-343.197-137.568c1.359-1.845 2.046-4.097 1.95-6.386-3.141-74.684 7.23-99.119 13.153-101.604.593-.249 15.141-5.489 68.125 47.7 2.327 2.336 5.65 3.384 8.898 2.801 6.128-1.098 12.372-1.801 18.644-2.114v38.35c0 3.332 2.701 6.033 6.033 6.033s6.033-2.701 6.033-6.033v-38.543h24.148v53.284c0 3.332 2.701 6.033 6.033 6.033s6.033-2.701 6.033-6.033v-53.284h24.148v38.543c0 3.332 2.701 6.033 6.033 6.033s6.033-2.701 6.033-6.033v-38.35c6.271.313 12.516 1.016 18.643 2.114 3.248.581 6.571-.465 8.898-2.801 52.982-53.187 67.535-47.95 68.125-47.7 5.923 2.485 16.295 26.919 13.154 101.604-.096 2.289.592 4.542 1.95 6.386 18.649 25.318 28.506 55.366 28.506 86.895 0 7.556-3.351 15.622-6.539 20.844-30.605-47.333-83.421-76.342-140.15-76.342h-69.665c-56.061 0-108.256 28.303-139.022 74.619-3.779-4.908-7.668-11.902-7.668-19.122-.001-31.527 9.856-61.575 28.504-86.894zm-10.048 164.682c-14.951 0-27.114-12.163-27.114-27.114 0-5.391 1.591-10.411 4.316-14.636 2.699 2.865 5.37 5.115 7.681 6.584 3.626 12.447 8.797 24.241 15.293 35.16-.059 0-.117.006-.176.006zm3.415-43.537c26.66-43.101 73.922-69.636 124.818-69.636h69.665c50.87 0 98.157 26.538 124.817 69.63-15.132 56.501-66.768 98.231-127.976 98.231h-63.346c-61.207-.001-112.844-41.727-127.978-98.225z"/><path d="m355.883 183.552c3.332 0 6.033-2.701 6.033-6.033v-9.977c0-3.332-2.701-6.033-6.033-6.033s-6.033 2.701-6.033 6.033v9.977c0 3.332 2.701 6.033 6.033 6.033z"/><path d="m386.765 186.216c-3.332 0-6.033 2.701-6.033 6.033v9.976c0 3.332 2.701 6.033 6.033 6.033s6.033-2.701 6.033-6.033v-9.976c0-3.332-2.701-6.033-6.033-6.033z"/><path d="m359.85 129.206 29.562 19.137c1.637 1.06 3.511 1.59 5.384 1.59 1.89 0 3.78-.54 5.427-1.617 3.279-2.146 4.986-6.031 4.35-9.898l-6.286-38.215c-.581-3.535-2.929-6.399-6.281-7.663-3.302-1.245-7.047-.629-9.777 1.607v.001l-23.276 19.079c-2.438 1.999-3.787 5.071-3.611 8.218.177 3.146 1.862 6.047 4.508 7.761zm27.138-23.358 4.888 29.716-22.987-14.88z"/><path d="m130.504 148.315c1.647 1.078 3.537 1.618 5.428 1.618 1.873 0 3.747-.53 5.384-1.59l29.561-19.137c2.646-1.713 4.331-4.615 4.508-7.762.177-3.148-1.173-6.22-3.611-8.218l-23.275-19.079c0-.001-.001-.001-.001-.001-2.729-2.237-6.476-2.853-9.777-1.607-3.351 1.264-5.699 4.129-6.28 7.663l-6.286 38.215c-.636 3.866 1.071 7.751 4.349 9.898zm13.236-42.467 18.099 14.836-22.987 14.881z"/></g><path d="m171.555 165.936c-3.25 0-6.439-1.573-8.376-4.48-3.08-4.621-1.83-10.864 2.791-13.944 1.936-1.291 6.495-4.096 9.884-5.472 5.144-2.09 11.011.386 13.1 5.531 2.09 5.145-.386 11.01-5.531 13.1-1.35.548-4.495 2.372-6.3 3.575-1.715 1.143-3.653 1.69-5.568 1.69z" fill="#fff"/><path d="m128.591 206.211c-1.841 0-3.703-.505-5.373-1.563-4.691-2.972-6.084-9.185-3.111-13.875 8.298-13.096 17.92-22.392 24.53-27.885 4.271-3.55 10.611-2.964 14.16 1.307s2.964 10.61-1.307 14.16c-5.498 4.569-13.499 12.3-20.396 23.183-1.914 3.02-5.173 4.673-8.503 4.673z" fill="#fff"/></g><g><path d="m40.821 4.199 8.541 24.015c.366 1.028 1.09 1.843 2.003 2.255l21.336 9.613c3.014 1.358 3.014 6.161 0 7.519l-21.336 9.613c-.913.411-1.637 1.226-2.003 2.255l-8.541 24.015c-1.206 3.393-5.474 3.393-6.68 0l-8.541-24.016c-.366-1.028-1.09-1.843-2.003-2.255l-21.336-9.613c-3.014-1.358-3.014-6.161 0-7.519l21.336-9.613c.914-.412 1.637-1.226 2.003-2.255l8.541-24.015c1.207-3.392 5.474-3.392 6.68.001z" fill="#f1c7b6"/><path d="m312.106 44.853c0 10.3-8.349 18.649-18.649 18.649s-18.649-8.349-18.649-18.649 8.349-18.649 18.649-18.649 18.649 8.35 18.649 18.649z" fill="#eaa585"/><ellipse cx="43.598" cy="160.426" fill="#eaa585" rx="7.898" ry="7.898" transform="matrix(.961 -.278 .278 .961 -42.818 18.406)"/><path d="m486.675 1.89 6.335 17.814c.271.763.808 1.367 1.486 1.672l15.827 7.131c2.236 1.007 2.236 4.57 0 5.577l-15.827 7.131c-.678.305-1.215.91-1.486 1.672l-6.335 17.814c-.895 2.517-4.06 2.517-4.955 0l-6.335-17.814c-.271-.763-.808-1.367-1.486-1.672l-15.827-7.131c-2.236-1.007-2.236-4.57 0-5.577l15.827-7.131c.678-.305 1.215-.91 1.486-1.672l6.335-17.814c.895-2.516 4.06-2.516 4.955 0z" fill="#f1c7b6"/></g></g></svg>