<svg id="Capa_1" enable-background="new 0 0 512 512" height="512" viewBox="0 0 512 512" width="512" xmlns="http://www.w3.org/2000/svg"><g><g><ellipse cx="257.757" cy="103.019" fill="#eaa585" rx="75.62" ry="59.061"/><path d="m370.808 501.989v-31.273c0-63.888-51.791-115.679-115.679-115.679-63.888 0-115.679 51.791-115.679 115.679v31.273h38.541l77.726-3.475 77.726 3.475z" fill="#f1c7b6"/><path d="m140.78 438.132h39.32v33.655h-39.32z" fill="#8bb6ef"/><path d="m329.676 438.132h39.32v33.655h-39.32z" fill="#8bb6ef"/><path d="m332.347 501.989v-29.549c0-42.646-34.571-77.218-77.218-77.218-42.646 0-77.218 34.572-77.218 77.218v29.549l77.269-3.232z" fill="#f1c7b6"/><path d="m188.863 432.796c-6.949 11.59-10.951 25.148-10.951 39.644v29.549h154.435v-29.549c0-14.496-4.003-28.055-10.951-39.644-26.246-5.627-48.023.005-66.113 14.925-22.297-16.413-44.43-20.833-66.42-14.925z" fill="#8bb6ef"/><path d="m297.237 431.581h24.172c-12.286-19.703-33.207-33.467-57.469-35.998 15.017 6.755 27.031 19.753 33.297 35.998z" fill="#e795b6"/><path d="m298.115 433.988c2.496 7.256 3.87 15.105 3.87 23.305v6.694c0 10.421-8.447 18.868-18.868 18.868h-104.498v19.069h154.436v-29.549c0-13.977-3.725-27.08-10.22-38.388h-24.72z" fill="#8388ef"/><g fill="#f1c7b6"><ellipse cx="423.193" cy="309.007" rx="38.309" ry="38.309" transform="matrix(.851 -.526 .526 .851 -99.251 268.636)"/><ellipse cx="87.066" cy="309.007" rx="38.309" ry="38.309" transform="matrix(.831 -.557 .557 .831 -157.227 100.712)"/><path d="m287.774 403.679h-65.289c-81.13 0-146.898-65.769-146.898-146.898 0-81.13 65.769-146.898 146.898-146.898h65.289c81.13 0 146.898 65.769 146.898 146.898 0 81.13-65.768 146.898-146.898 146.898z"/></g><path d="m287.774 109.454h-18.838c65.773 0 119.092 53.319 119.092 119.092v10.114c0 65.773-53.319 119.092-119.092 119.092h-74.257c-62.943 0-114.473-48.831-118.792-110.676-.191 3.068-.3 6.159-.3 9.276 0 81.129 65.769 146.898 146.898 146.898h65.289c81.13 0 146.898-65.769 146.898-146.898 0-81.13-65.768-146.898-146.898-146.898z" fill="#e795b6"/><path d="m415.16 314.749c16.838-9.754 29.954-23.741 33.107-50.444v-15.482c0-85.741-74.276-155.247-165.901-155.247h-54.473c-91.624 0-165.901 69.507-165.901 155.247v15.482c4.263 27.496 18.542 41.69 30.837 51.194 73.118-31.158 164.047-81.7 231.731-140.559 23.929 54.38 51.275 96.605 90.6 139.809z" fill="#eaa585"/><path d="m115.972 227.276c-.989 0-1.995-.148-2.989-.459-5.277-1.649-8.218-7.264-6.57-12.541 4.384-14.033 11.939-27.146 22.454-38.978 3.672-4.133 9.999-4.506 14.133-.832 4.132 3.673 4.505 10 .832 14.133-8.616 9.694-14.776 20.342-18.309 31.648-1.337 4.284-5.289 7.029-9.551 7.029z" fill="#fff"/><path d="m156.381 173.972c-3.098 0-6.153-1.433-8.111-4.132-3.247-4.475-2.251-10.735 2.224-13.982 2.35-1.705 4.803-3.378 7.293-4.972 4.655-2.98 10.846-1.624 13.829 3.033 2.981 4.656 1.624 10.848-3.032 13.829-2.164 1.385-4.295 2.837-6.331 4.315-1.777 1.288-3.834 1.909-5.872 1.909z" fill="#fff"/><path d="m428.38 101.958c-4.571-3.079-9.718-4.614-14.81-4.732.653-9.297-3.533-18.676-11.817-24.257-12.34-8.313-29.081-5.048-37.393 7.291-2.459 3.651-3.897 7.688-4.395 11.777-12.272-4.074-26.233.292-33.811 11.542-8.483 12.593-5.971 29.36 5.316 38.981-8.639 13.479-4.978 31.456 8.369 40.448 12.415 8.363 28.887 6.038 38.569-4.845.871.748 1.788 1.458 2.764 2.115 13.538 9.12 31.906 5.538 41.026-8 4.993-7.411 6.171-16.268 4-24.265 3.888-1.957 7.328-4.892 9.917-8.735 8.217-12.198 4.754-28.906-7.735-37.32zm-52.751 34.138c-.027-.023-.052-.046-.079-.069 2.897-4.52 4.418-9.543 4.646-14.567 2.066.514 4.169.771 6.265.788-.09 2.014.053 4.03.415 6.011-4.222 1.654-8.093 4.292-11.247 7.837z" fill="#b2e7f1"/><path d="m369.359 148.384c-8.698-5.86-10.999-17.661-5.14-26.359 5.859-8.698 17.66-11 26.359-5.14 8.698 5.859 10.999 17.66 5.14 26.358l-.001.001c-5.858 8.699-17.66 11-26.358 5.14z" fill="#f7e266"/><path d="m357.451 93.103c.738-1.314 1.379-2.705 1.895-4.177 4.797-13.666-2.393-28.634-16.059-33.431-7.483-2.626-15.353-1.652-21.733 2.005-2.85-3.18-6.516-5.709-10.829-7.223-13.666-4.797-28.634 2.393-33.43 16.059-1.549 4.414-1.841 8.961-1.076 13.26-7.345 2.511-13.51 8.236-16.28 16.129-4.797 13.667 2.393 28.633 16.059 33.431 3.796 1.333 7.692 1.737 11.443 1.337.318 10.527 6.996 20.264 17.528 23.96 12.652 4.441 26.412-1.396 32.192-13.13 13.611 4.655 28.454-2.526 33.227-16.125 4.416-12.582-1.333-26.26-12.937-32.095zm-46.555 10.523c-.039-1.278-.171-2.544-.392-3.789 1.591-.544 3.125-1.238 4.583-2.074 2.134 2.381 4.728 4.39 7.707 5.888-.229.408-.448.824-.657 1.247-3.733-1.276-7.556-1.665-11.241-1.272z" fill="#b2e7f1"/><path d="m333.867 107.222c-3.082 8.78-12.698 13.399-21.478 10.318-8.78-3.082-13.4-12.698-10.318-21.478 3.082-8.78 12.697-13.4 21.477-10.318h.001c8.781 3.081 13.4 12.698 10.318 21.478z" fill="#f7e266"/></g><g fill="#440b29"><path d="m458.245 275.8c.731-3.239 1.305-6.606 1.719-10.114.054-.458.081-.92.081-1.381v-15.483c0-34.36-11.102-66.322-30.101-92.901-.061-1.654-.246-3.314-.569-4.969-.075-.385-.164-.764-.252-1.144 4.103-2.337 7.755-5.603 10.567-9.778 9.785-14.524 5.928-34.301-8.596-44.086-3.73-2.513-7.807-4.12-11.972-4.883-.096-.894-.218-1.787-.392-2.68-1.623-8.326-6.393-15.523-13.429-20.262-13.685-9.219-32.031-6.322-42.289 6.191-.477-2.146-1.197-4.254-2.172-6.285-3.338-6.948-9.181-12.18-16.454-14.733-7.687-2.7-15.761-1.932-22.521 1.469-1.433-1.416-3.003-2.685-4.709-3.773-16.177-12.13-37.189-18.81-59.4-18.81-22.813 0-44.378 7.03-60.721 19.794-13.402 10.467-22.087 23.788-25.282 38.372-70.545 22.141-121.54 84.812-121.54 158.476v15.483c0 .604.046 1.207.139 1.805.514 3.316 1.162 6.454 1.914 9.445-8.36 8.687-13.521 20.471-13.521 33.452 0 26.644 21.676 48.32 48.319 48.32 4.675 0 9.194-.673 13.472-1.919 14.209 17.534 32.114 31.953 52.52 42.064-14.853 20.637-23.618 45.933-23.618 73.244v31.274c0 5.528 4.482 10.011 10.011 10.011s10.011-4.482 10.011-10.011v-24.196h22.444v27.736c0 3.317 2.689 6.007 6.007 6.007 3.317 0 6.007-2.689 6.007-6.007v-33.431c0-10.274 2.199-20.04 6.133-28.868 6.965-4.217 14.927-6.44 23.136-6.44 12.829 0 25.061 5.525 33.56 15.157 2.124 2.408 5.179 3.788 8.381 3.788 3.203 0 6.258-1.38 8.382-3.788 8.498-9.633 20.73-15.157 33.559-15.157 8.204 0 16.174 2.227 23.139 6.444 3.934 8.827 6.131 18.591 6.131 28.864v33.431c0 3.317 2.689 6.007 6.007 6.007 3.317 0 6.006-2.689 6.006-6.007v-27.736h22.444v24.196c0 5.528 4.482 10.011 10.011 10.011s10.011-4.482 10.011-10.011v-31.274c0-27.309-8.758-52.609-23.609-73.246 20.404-10.111 38.308-24.531 52.515-42.064 4.277 1.246 8.794 1.922 13.468 1.922 26.643 0 48.32-21.676 48.32-48.32.001-12.854-5.051-24.544-13.267-33.206zm-21.756-12.211c-1.986 15.752-7.924 26.876-19.348 35.712-30.926-35.149-53.855-69.844-74.043-112.175 4.024 1.734 8.277 2.597 12.507 2.597 7.985 0 15.856-3.009 21.841-8.661.953.82 1.954 1.596 3.013 2.309 5.306 3.575 11.421 5.43 17.678 5.43 2.04 0 4.097-.197 6.145-.596 5.286-1.031 10.113-3.333 14.148-6.674 11.51 20.083 18.059 42.984 18.059 67.291zm-149.652-143.419c-2.946.605-6.007.423-8.919-.599-4.245-1.49-7.656-4.544-9.604-8.6-1.948-4.055-2.201-8.626-.71-12.871 1.513-4.312 4.617-7.613 8.419-9.497 3.267 6.288 8.829 11.4 16.027 13.926.649.228 1.304.424 1.962.603.109 1.743.413 3.472.906 5.166-3.547 3.113-6.377 7.132-8.081 11.872zm53.772-10.581c.099-.282.186-.564.274-.847 2.201-.476 4.361-1.209 6.442-2.209 2.345-1.127 4.49-2.545 6.407-4.201 2.857 1.678 5.154 4.162 6.621 7.216 1.948 4.055 2.201 8.627.711 12.872-2.724 7.759-10.586 12.264-18.436 11.062.685-5.445-.196-10.98-2.629-16.044-.509-1.061-1.091-2.07-1.714-3.047.93-1.482 1.721-3.082 2.324-4.802zm61.155 37.729c1.82-2.702 3.065-5.625 3.772-8.624 1.285.514 2.524 1.168 3.699 1.96 4.374 2.947 7.34 7.42 8.349 12.598 1.01 5.176-.057 10.437-3.004 14.812s-7.421 7.34-12.598 8.35c-5.177 1.011-10.437-.058-14.812-3.005s-7.34-7.42-8.35-12.598c-.127-.651-.22-1.303-.282-1.954.463.025.927.05 1.39.05 8.456 0 16.767-4.065 21.836-11.589zm-65.494 14.435c-.822-4.217-.245-8.481 1.582-12.284 3.906 1.672 8.082 2.542 12.33 2.542 2.04 0 4.097-.198 6.145-.596 1.426-.278 2.811-.665 4.164-1.125 1.409 1.55 3.014 2.941 4.796 4.142.397.267.804.507 1.21.75-.151 2.623.017 5.282.533 7.929.582 2.983 1.574 5.818 2.923 8.45-6.515 6.86-17.231 8.247-25.333 2.79-4.375-2.947-7.34-7.421-8.35-12.598zm51.669-40.951c6.525 4.395 8.258 13.279 3.862 19.804-4.395 6.525-13.279 8.257-19.804 3.862-2.908-1.959-4.857-4.812-5.743-7.949 2.65-2.831 4.779-6.232 6.144-10.119.765-2.179 1.256-4.408 1.487-6.648 4.399-2.068 9.74-1.856 14.054 1.05zm-58.665-15.192c-1.06 3.02-3.232 5.446-6.117 6.832-2.884 1.386-6.136 1.564-9.156.505-3.019-1.06-5.446-3.232-6.832-6.117s-1.565-6.137-.505-9.156c1.729-4.926 6.369-8.014 11.316-8.014 1.313 0 2.649.218 3.957.676 6.234 2.189 9.526 9.041 7.337 15.274zm-21.672-34.646c-1.15 3.276-1.657 6.621-1.612 9.907-4.097 2.359-7.52 5.926-9.664 10.417-.099-.033-.199-.058-.297-.093-8.763-3.077-13.391-12.709-10.314-21.472 1.49-4.246 4.544-7.657 8.599-9.604 2.312-1.111 4.79-1.67 7.281-1.67 1.879 0 3.766.319 5.591.959 1.934.678 3.682 1.696 5.205 2.974-2.025 2.5-3.665 5.378-4.789 8.582zm-9.508 53.391c.729-2.078 1.842-3.907 3.21-5.47 2.455 2.376 5.398 4.232 8.717 5.397 2.62.92 5.294 1.356 7.926 1.356 3.976 0 7.846-1.011 11.287-2.843 1.882 4.017 2.117 8.525.645 12.717-3.076 8.763-12.704 13.391-21.472 10.315-4.245-1.49-7.656-4.544-9.604-8.6-1.947-4.055-2.199-8.626-.709-12.872zm131.634 8.964c-1.509 2.239-3.405 4.056-5.534 5.446-2.203-3.132-4.976-5.871-8.246-8.074-3.26-2.196-6.828-3.736-10.544-4.6-1.373-5.35-4.424-10.285-8.981-13.94.179-.301.352-.603.55-.896 3.809-5.656 10.054-8.71 16.408-8.71 3.794 0 7.627 1.089 11.003 3.364 9.029 6.084 11.427 18.379 5.344 27.41zm-42.141-58.599c3.794 0 7.627 1.09 11.004 3.364 4.374 2.947 7.34 7.42 8.349 12.598.033.167.052.335.08.502-7.885 1.604-15.171 6.174-20.01 13.359-.532.79-1.009 1.601-1.46 2.421-2.218-.479-4.471-.656-6.706-.557-2.414-5.01-6.116-9.316-10.851-12.506-.052-.035-.107-.064-.159-.098.116-3.673 1.242-7.25 3.346-10.373 3.809-5.656 10.053-8.71 16.407-8.71zm-52.742-11.043c1.847 0 3.724.306 5.564.951 4.245 1.49 7.656 4.544 9.604 8.6 1.948 4.055 2.2 8.627.71 12.871-1.49 4.246-4.544 7.657-8.599 9.605-.274.132-.552.246-.83.362-1.844-7.66-7.406-14.268-15.378-17.066-2.538-.892-5.126-1.322-7.677-1.348.157-.907.384-1.813.698-2.71 2.43-6.923 8.953-11.265 15.908-11.265zm-77.089-7.94c7.187 0 14.09.901 20.54 2.534-1.644 2.256-2.967 4.765-3.918 7.473-1.296 3.692-1.79 7.472-1.581 11.155-2.936 1.175-5.669 2.83-8.085 4.898h-36.819c-9.71 0-19.236.747-28.527 2.163 9.913-16.603 32.344-28.223 58.39-28.223zm-183.985 193.085c0-79.109 69.139-143.469 154.122-143.469h26.781c.216 3.707 1.155 7.373 2.811 10.82 3.338 6.948 9.181 12.18 16.454 14.733 3.128 1.098 6.359 1.644 9.58 1.644.573 0 1.146-.019 1.718-.054.305 3.404 1.216 6.761 2.74 9.933 3.338 6.948 9.181 12.18 16.454 14.733 3.151 1.107 6.366 1.631 9.531 1.631 3.428 0 6.788-.634 9.944-1.794-.059 2.046.081 4.109.424 6.169-2.731.054-5.393 1.054-7.498 2.885-56.662 49.274-139.246 99.729-222.065 135.788-9.149-8.112-17.834-19.399-20.995-38.473v-14.546zm13.295 88.483c-15.603 0-28.298-12.694-28.298-28.298 0-4.003.841-7.811 2.347-11.265 5.065 8.802 11.169 15.564 17.232 21.025 2.764 6.403 5.938 12.59 9.497 18.52-.259.007-.517.018-.778.018zm110.812 74.45c-6.505 6.174-12.011 13.388-16.26 21.37h-25.24c3.845-10.065 9.182-19.399 15.747-27.724 8.296 2.819 16.904 4.954 25.753 6.354zm-25.726 54.025h-22.572c.327-7.084 1.357-13.986 3.018-20.642h23.791c-2.249 6.552-3.696 13.472-4.237 20.642zm124.919-41.002c-15.962 0-31.193 6.74-41.941 18.524-10.748-11.784-25.98-18.524-41.941-18.524-4.2 0-8.349.46-12.386 1.358 4.071-4.802 8.766-9.056 13.959-12.642 2.56.125 5.133.196 7.723.196h65.289c2.593 0 5.17-.07 7.733-.196 5.19 3.586 9.876 7.846 13.946 12.646-4.038-.899-8.186-1.362-12.382-1.362zm63.609 41.002h-22.573c-.542-7.171-1.991-14.09-4.243-20.642h23.799c1.661 6.655 2.689 13.558 3.017 20.642zm-6.798-32.655h-25.246c-4.251-7.981-9.761-15.194-16.268-21.368 8.85-1.399 17.456-3.541 25.752-6.359 6.568 8.326 11.915 17.658 15.762 27.727zm-66.108-39.457h-65.289c-51.125 0-95.775-28.183-119.279-69.818 79.574-34.545 159.172-82.224 217.069-129.865 12.065 25.709 25.041 48.705 39.964 70.604-.42-.407-.906-.761-1.454-1.04-.741-.378-7.481-3.693-16.016-3.693-8.536 0-15.276 3.315-16.016 3.693-2.944 1.503-4.107 5.095-2.618 8.047 1.488 2.951 5.096 4.138 8.054 2.666.048-.024 4.873-2.393 10.581-2.393 5.707 0 10.533 2.369 10.554 2.379.875.447 1.807.658 2.726.658 2.185 0 4.293-1.197 5.354-3.277.843-1.651.847-3.508.173-5.089 13.197 19.158 27.917 37.509 44.872 56.137.257.282.527.545.805.798-23.446 41.839-68.203 70.193-119.48 70.193zm135.419-56.363c-.261 0-.517-.018-.777-.025 3.868-6.446 7.285-13.191 10.211-20.192 6.895-5.504 12.452-11.733 16.746-18.815 1.363 3.312 2.118 6.936 2.118 10.733 0 15.604-12.694 28.299-28.298 28.299z"/><path d="m342.552 301.036c-9.057 0-16.399 7.342-16.399 16.399s7.342 16.399 16.399 16.399 16.399-7.342 16.399-16.399-7.342-16.399-16.399-16.399z"/><ellipse cx="167.707" cy="317.435" rx="16.399" ry="16.399" transform="matrix(.707 -.707 .707 .707 -175.34 211.561)"/><path d="m271.529 311.429c-3.317 0-6.007 2.689-6.007 6.007 0 5.73-4.662 10.392-10.393 10.392-5.73 0-10.393-4.662-10.393-10.392 0-3.317-2.689-6.007-6.006-6.007s-6.007 2.689-6.007 6.007c0 12.354 10.051 22.405 22.406 22.405s22.406-10.051 22.406-22.405c0-3.318-2.689-6.007-6.006-6.007z"/></g><g><path d="m68.366 6.447 8.503 23.909c.364 1.024 1.085 1.835 1.994 2.245l21.242 9.57c3.001 1.352 3.001 6.134 0 7.486l-21.242 9.571c-.91.41-1.63 1.221-1.994 2.245l-8.503 23.909c-1.201 3.378-5.45 3.378-6.651 0l-8.503-23.909c-.364-1.024-1.085-1.835-1.994-2.245l-21.242-9.571c-3.001-1.352-3.001-6.134 0-7.486l21.242-9.57c.91-.41 1.63-1.221 1.994-2.245l8.503-23.909c1.202-3.378 5.45-3.378 6.651 0z" fill="#b2e7f1"/><path d="m25.102 116.842c0 4.342-3.52 7.863-7.863 7.863s-7.863-3.52-7.863-7.863 3.52-7.863 7.863-7.863 7.863 3.52 7.863 7.863z" fill="#8bb6ef"/><path d="m477.41 1.879 6.307 17.736c.27.759.804 1.361 1.479 1.665l15.757 7.099c2.226 1.003 2.226 4.55 0 5.553l-15.757 7.099c-.675.304-1.209.905-1.479 1.665l-6.307 17.736c-.891 2.506-4.043 2.506-4.934 0l-6.307-17.736c-.27-.76-.805-1.361-1.479-1.665l-15.757-7.099c-2.226-1.003-2.226-4.55 0-5.553l15.757-7.099c.675-.304 1.209-.906 1.479-1.665l6.307-17.736c.892-2.505 4.043-2.505 4.934 0z" fill="#b2e7f1"/></g></g></svg>