<svg id="Capa_1" enable-background="new 0 0 512 512" height="512" viewBox="0 0 512 512" width="512" xmlns="http://www.w3.org/2000/svg"><g><g><path d="m354.015 501.923v-26.832c0-54.813-44.435-99.248-99.248-99.248-54.813 0-99.248 44.435-99.248 99.248v26.832z" fill="#bdf4e3"/><path d="m321.017 501.923v-25.352c0-36.589-29.661-66.25-66.25-66.25-36.589 0-66.25 29.661-66.25 66.25v25.352z" fill="#84eac4"/><path d="m261.499 410.656c19.162 8.619 32.642 29.074 32.642 52.945v5.743c0 8.941-7.248 16.188-16.188 16.188h-89.655v16.361h132.5v-25.352c-.001-34.24-25.978-62.409-59.299-65.885z" fill="#b1b7e3"/><path d="m479.917 276.164c0-35.826-19.789-65.237-58.77-68.435 25.869-29.949 19.148-65.017-6.344-90.509-25.792-25.792-61.386-32.374-91.563-5.425-2.965-39.346-32.478-59.326-68.473-59.326s-65.508 19.98-68.473 59.326c-30.177-26.95-65.771-20.367-91.563 5.425-25.493 25.492-32.213 60.56-6.344 90.509-38.981 3.198-58.77 32.609-58.77 68.435 0 36.378 20.407 66.136 60.589 68.559-28.005 30.389-21.553 66.49 4.526 92.569 26.145 26.145 62.362 32.556 92.799 4.305 6.583 33.226 34.18 50.073 67.237 50.073s60.655-16.847 67.237-50.073c30.437 28.251 66.654 21.84 92.799-4.305 26.079-26.078 32.53-62.179 4.526-92.569 40.181-2.422 60.587-32.18 60.587-68.559zm-260.6 72.059c-2.23-8.772-6.342-16.64-12.61-22.908-8.611-8.612-20.245-13.151-33.093-14.331 8.9-10.212 14.361-22.112 14.361-34.819 0-11.883-4.772-23.061-12.668-32.812 12.175-1.414 23.168-5.924 31.4-14.156 8.343-8.343 12.866-19.521 14.214-31.893 9.992 8.405 21.54 13.525 33.845 13.525s23.853-5.12 33.845-13.525c1.348 12.372 5.872 23.55 14.215 31.893 8.231 8.231 19.224 12.742 31.4 14.156-7.896 9.751-12.668 20.929-12.668 32.812 0 12.708 5.461 24.607 14.361 34.819-12.848 1.18-24.482 5.72-33.093 14.331-6.268 6.267-10.38 14.135-12.61 22.908-10.351-9.227-22.48-14.912-35.449-14.912-12.97-.001-25.099 5.685-35.45 14.912z" fill="#fbf2a8"/><path d="m283.327 411.428h-57.627c-71.61 0-129.661-58.051-129.661-129.661 0-71.61 58.051-129.661 129.661-129.661h57.627c71.61 0 129.661 58.051 129.661 129.661 0 71.61-58.051 129.661-129.661 129.661z" fill="#f7e266"/><path d="m283.327 152.106h-25.544c61.843 0 111.977 50.134 111.977 111.977 0 61.843-50.134 111.977-111.977 111.977h-49.768c-58.96 0-107.276-45.568-111.653-103.408-.209 3.012-.324 6.05-.324 9.115 0 71.609 58.051 129.66 129.661 129.66h57.627c71.61 0 129.661-58.051 129.661-129.66.001-71.609-58.05-129.661-129.66-129.661z" fill="#ebaa66"/><path d="m306.395 378.409h-103.763c-34.862 0-63.124-28.261-63.124-63.124 0-34.862 28.261-63.124 63.124-63.124h103.763c34.862 0 63.124 28.261 63.124 63.124 0 34.862-28.262 63.124-63.124 63.124z" fill="#f4d6d4"/></g><g><g fill="#440b29"><path d="m470.89 220.878c-8.591-9.699-19.585-16.509-32.444-20.226 6.75-11.923 9.867-24.758 9.067-37.956-1.14-18.814-9.987-37.004-25.584-52.602-15.599-15.598-33.789-24.445-52.603-25.585-13.585-.82-26.78 2.491-38.99 9.647-3.703-12.95-10.531-24.022-20.283-32.66-14.11-12.498-33.228-19.104-55.287-19.104s-41.177 6.606-55.286 19.104c-9.757 8.642-16.586 19.719-20.288 32.677-12.213-7.16-25.41-10.483-38.985-9.664-18.814 1.14-37.005 9.987-52.603 25.585-15.598 15.599-24.445 33.788-25.585 52.602-.799 13.198 2.314 26.034 9.065 37.956-12.858 3.717-23.852 10.528-32.442 20.226-12.497 14.109-19.104 33.227-19.104 55.287 0 22.059 6.606 41.177 19.104 55.287 8.831 9.97 20.211 16.874 33.536 20.516-7.516 12.45-11.001 25.95-10.16 39.848 1.14 18.814 9.987 37.004 25.585 52.602s33.789 24.445 52.603 25.584c1.362.083 2.716.124 4.069.124.433 0 .863-.022 1.294-.03-.076 1.657-.129 3.32-.129 4.995v26.831c0 5.566 4.512 10.077 10.077 10.077s10.077-4.512 10.077-10.077v-26.831c0-2.918.15-5.801.426-8.648 5.555-1.916 10.966-4.562 16.181-7.937.534 1.261 1.106 2.497 1.707 3.713-.94 4.641-1.439 9.439-1.439 14.353v28.447c0 3.339 2.707 6.046 6.046 6.046s6.046-2.707 6.046-6.046v-27.227c1.55 1.688 3.181 3.314 4.917 4.852 14.109 12.498 33.228 19.104 55.286 19.104s41.176-6.606 55.287-19.104c1.736-1.538 3.366-3.164 4.917-4.852v27.227c0 3.339 2.707 6.046 6.046 6.046s6.046-2.707 6.046-6.046v-28.447c0-4.912-.502-9.706-1.444-14.344.602-1.217 1.174-2.455 1.71-3.717 5.216 3.374 10.627 6.027 16.184 7.94.275 2.845.425 5.725.425 8.641v26.831c0 5.566 4.512 10.077 10.077 10.077s10.077-4.512 10.077-10.077v-26.831c0-1.674-.049-3.337-.124-4.993.43.008.858.028 1.288.028 1.352 0 2.709-.041 4.07-.124 18.814-1.14 37.004-9.986 52.603-25.585 15.597-15.598 24.444-33.788 25.584-52.602.841-13.897-2.649-27.397-10.159-39.848 13.325-3.642 24.705-10.546 33.536-20.516 12.498-14.11 19.105-33.227 19.105-55.287.003-22.06-6.604-41.177-19.102-55.287zm-105.738-116.278c16.185 0 31.223 8.443 42.526 19.745 18.248 18.248 29.035 46.226 8.884 73.061-.859-.022-1.712-.056-2.581-.056-6.027 0-12.135.533-18.219 1.539-16.61-22.473-39.784-39.808-66.668-49.154 2.912-10.327 4.488-20.944 4.488-31.328 0-.711-.031-1.407-.046-2.111 10.56-8.27 21.32-11.696 31.616-11.696zm-81.825 296.751h-57.627c-65.939 0-119.584-53.645-119.584-119.584s53.645-119.583 119.584-119.583h57.627c65.939 0 119.584 53.645 119.584 119.584s-53.646 119.583-119.584 119.583zm-28.56-338.805c28.358 0 58.66 14.675 58.66 55.861 0 8.508-1.38 17.415-3.868 26.102-8.5-1.621-17.267-2.48-26.232-2.48h-57.627c-8.799 0-17.409.827-25.762 2.389-2.472-8.658-3.832-17.534-3.832-26.012.001-41.185 30.303-55.86 58.661-55.86zm-152.911 61.8c11.303-11.304 26.338-19.746 42.526-19.746 10.295 0 21.056 3.428 31.616 11.696-.015.704-.046 1.4-.046 2.111 0 10.33 1.535 20.897 4.415 31.175-27.043 9.3-50.358 26.679-67.053 49.241-5.932-.96-11.884-1.474-17.76-1.474-.868 0-1.719.034-2.576.056-20.152-26.834-9.37-54.812 8.878-73.059zm-62.163 151.818c0-28.358 14.674-58.66 55.86-58.66 1.97 0 3.964.083 5.969.226-9.939 19.195-15.561 40.971-15.561 64.037 0 18.767 3.728 36.678 10.468 53.043-.292.003-.585.014-.876.014-41.185 0-55.86-30.301-55.86-58.66zm62.163 154.002c-18.735-18.734-29.607-47.727-7.204-75.207.303.003.598.02.902.02 3.584 0 7.198-.206 10.818-.566 16.188 26.492 40.947 47.197 70.392 58.242-.529 4.375-.812 8.747-.812 13.077 0 4.101.262 8.076.749 11.93-27.373 22.013-56.192 11.158-74.845-7.496zm152.911 51.427c-28.358 0-58.66-14.675-58.66-55.861 0-2.41.132-4.855.346-7.315 9.436 2.017 19.218 3.089 29.247 3.089h57.627c10.209 0 20.162-1.111 29.755-3.199.22 2.498.346 4.98.346 7.426-.001 41.185-30.303 55.86-58.661 55.86zm152.911-51.427c-18.651 18.652-47.472 29.51-74.845 7.496.487-3.853.749-7.828.749-11.93 0-4.391-.289-8.825-.833-13.262 29.251-11.097 53.842-31.738 69.94-58.11 3.778.395 7.551.619 11.291.619.304 0 .599-.017.902-.02 22.402 27.48 11.53 56.472-7.204 75.207zm6.302-95.342c-.458 0-.92-.011-1.38-.019 6.738-16.363 10.466-34.272 10.466-53.038 0-23.047-5.613-44.807-15.537-63.991 2.168-.167 4.324-.273 6.451-.273 41.186 0 55.86 30.302 55.86 58.66 0 28.36-14.674 58.661-55.86 58.661z"/><path d="m306.395 246.115h-103.763c-38.14 0-69.171 31.03-69.171 69.17 0 38.141 31.03 69.17 69.171 69.17h103.762c38.14 0 69.17-31.03 69.17-69.17.001-38.14-31.029-69.17-69.169-69.17zm0 126.248h-103.763c-31.473 0-57.078-25.605-57.078-57.078 0-31.472 25.605-57.077 57.078-57.077h103.762c31.473 0 57.078 25.605 57.078 57.077 0 31.473-25.605 57.078-57.077 57.078z"/><path d="m329.706 210.937c3.339 0 6.046-2.707 6.046-6.046v-9.071c0-3.339-2.707-6.046-6.046-6.046s-6.046 2.707-6.046 6.046v9.071c0 3.338 2.707 6.046 6.046 6.046z"/><path d="m359.79 236.099c3.339 0 6.046-2.707 6.046-6.046v-9.071c0-3.339-2.707-6.046-6.046-6.046s-6.046 2.707-6.046 6.046v9.071c0 3.339 2.707 6.046 6.046 6.046z"/><path d="m300.497 228.505c3.339 0 6.046-2.707 6.046-6.046v-9.071c0-3.339-2.707-6.046-6.046-6.046s-6.046 2.707-6.046 6.046v9.071c-.001 3.339 2.707 6.046 6.046 6.046z"/><circle cx="179.575" cy="333.882" r="14.07"/><path d="m329.959 319.812c-7.771 0-14.07 6.299-14.07 14.07s6.299 14.07 14.07 14.07c7.77 0 14.07-6.299 14.07-14.07s-6.3-14.07-14.07-14.07z"/><path d="m193.722 286.853c-.655-.335-6.615-3.266-14.148-3.266-7.532 0-13.492 2.932-14.148 3.266-2.961 1.512-4.129 5.123-2.635 8.093 1.494 2.969 5.119 4.168 8.103 2.693.039-.02 4.01-1.96 8.68-1.96s8.641 1.94 8.648 1.944c.881.45 1.82.663 2.745.663 2.2 0 4.321-1.205 5.39-3.299 1.519-2.974.339-6.616-2.635-8.134z"/><path d="m344.107 286.853c-.655-.335-6.615-3.266-14.148-3.266-7.531 0-13.493 2.932-14.148 3.266-2.962 1.512-4.13 5.123-2.636 8.093s5.123 4.17 8.102 2.693c.039-.02 4.011-1.96 8.682-1.96 4.67 0 8.641 1.94 8.648 1.944.881.45 1.82.663 2.745.663 2.2 0 4.321-1.205 5.39-3.299 1.519-2.974.339-6.616-2.635-8.134z"/><path d="m268.837 327.835c-3.339 0-6.046 2.707-6.046 6.046 0 4.424-3.599 8.023-8.023 8.023s-8.023-3.599-8.023-8.023c0-3.339-2.707-6.046-6.046-6.046s-6.046 2.707-6.046 6.046c0 11.092 9.024 20.116 20.116 20.116s20.116-9.024 20.116-20.116c-.002-3.338-2.709-6.046-6.048-6.046z"/></g><path d="m188.413 203.153c-4.588 0-8.735-3.153-9.811-7.814-1.251-5.423 2.131-10.834 7.554-12.085 3.585-.827 7.294-1.373 11.026-1.622 5.563-.372 10.356 3.83 10.727 9.383s-3.83 10.356-9.383 10.726c-2.662.178-5.299.565-7.839 1.151-.762.177-1.524.261-2.274.261z" fill="#fff"/><path d="m143.182 241.972c-1.394 0-2.809-.29-4.16-.904-5.068-2.301-7.311-8.274-5.01-13.342 4.105-9.041 10.02-17.398 17.582-24.838 3.967-3.905 10.349-3.851 14.251.115 3.904 3.967 3.852 10.348-.115 14.251-5.791 5.698-10.288 12.024-13.366 18.804-1.688 3.717-5.35 5.914-9.182 5.914z" fill="#fff"/></g><g><path d="m42.164 2.55 8.56 24.068c.367 1.031 1.092 1.847 2.008 2.26l21.384 9.634c3.021 1.361 3.021 6.175 0 7.536l-21.384 9.634c-.916.413-1.641 1.229-2.008 2.26l-8.56 24.068c-1.209 3.4-5.486 3.4-6.695 0l-8.559-24.068c-.367-1.03-1.092-1.847-2.008-2.26l-21.384-9.634c-3.021-1.361-3.021-6.175 0-7.536l21.384-9.634c.916-.413 1.641-1.229 2.008-2.26l8.559-24.068c1.209-3.4 5.486-3.4 6.695 0z" fill="#fbf2a8"/><ellipse cx="388.615" cy="21.467" fill="#f7e266" rx="18.69" ry="18.69" transform="matrix(.189 -.982 .982 .189 294.044 399.01)"/><path d="m158.84 29.382c0 4.371-3.544 7.915-7.915 7.915-4.372 0-7.915-3.544-7.915-7.915s3.544-7.915 7.915-7.915c4.372 0 7.915 3.544 7.915 7.915z" fill="#f7e266"/><path d="m485.366 52.819 6.349 17.853c.272.764.81 1.37 1.489 1.676l15.862 7.146c2.241 1.01 2.241 4.58 0 5.59l-15.862 7.146c-.679.306-1.217.912-1.489 1.676l-6.349 17.853c-.897 2.522-4.069 2.522-4.966 0l-6.349-17.853c-.272-.764-.81-1.37-1.489-1.676l-15.862-7.146c-2.241-1.01-2.241-4.58 0-5.59l15.862-7.146c.679-.306 1.217-.912 1.489-1.676l6.349-17.853c.897-2.523 4.069-2.523 4.966 0z" fill="#fbf2a8"/></g></g></svg>