<svg id="Capa_1" enable-background="new 0 0 512 512" height="512" viewBox="0 0 512 512" width="512" xmlns="http://www.w3.org/2000/svg"><g><g><path d="m134.462 371.669h243.349v96.698h-243.349z" fill="#eaa585"/><path d="m356.724 501.92v-27.453c0-56.083-45.465-101.548-101.548-101.548-56.083 0-101.548 45.465-101.548 101.548v27.453z" fill="#b2e7f1"/><path d="m322.961 501.92v-25.94c0-37.437-30.348-67.785-67.785-67.785-37.437 0-67.785 30.349-67.785 67.785v25.939h135.57z" fill="#fff"/><path d="m262.503 408.568c19.607 8.818 33.398 29.747 33.398 54.171v5.877c0 9.148-7.416 16.563-16.563 16.563h-91.733v16.74h135.57v-25.939c0-35.034-26.579-63.856-60.672-67.412z" fill="#eebdfa"/><g fill="#f4d6d4"><ellipse cx="402.709" cy="332.511" rx="33.629" ry="33.629" transform="matrix(.29 -.957 .957 .29 -32.233 621.585)"/><ellipse cx="107.642" cy="332.511" rx="33.629" ry="33.629" transform="matrix(.847 -.532 .532 .847 -160.277 108.079)"/><path d="m283.832 415.619h-57.313c-71.219 0-128.954-57.735-128.954-128.954 0-71.219 57.735-128.954 128.954-128.954h57.313c71.219 0 128.954 57.735 128.954 128.954 0 71.22-57.735 128.954-128.954 128.954z"/></g><path d="m283.832 157.634h-16.536c57.738 0 104.544 46.806 104.544 104.544v8.878c0 57.738-46.806 104.545-104.544 104.545h-65.186c-55.254 0-100.49-42.867-104.281-97.156-.168 2.693-.263 5.407-.263 8.143 0 71.219 57.735 128.954 128.954 128.954h57.313c71.219 0 128.954-57.735 128.954-128.954-.001-71.219-57.736-128.954-128.955-128.954z" fill="#e69fd5"/><path d="m132.161 468.368c-6.324 0-11.79-4.442-13.069-10.635-13.364-64.735-19.44-124.542-21.907-181.908l48.317-29.892v209.094c.001 7.368-5.973 13.341-13.341 13.341z" fill="#eaa585"/><path d="m377.811 468.368c6.324 0 11.79-4.442 13.069-10.635 13.364-64.735 19.44-124.542 21.907-181.908l-48.317-29.892v209.094c-.001 7.368 5.972 13.341 13.341 13.341z" fill="#eaa585"/><path d="m253.152 267.24c45.179.875 106.116 5.166 156.371 20.417 0 0-28.832-73.881-145.968-71.793-117.136 2.087-137.588 39.778-162.644 72.042.001-.001 58.115-22.375 152.241-20.666z" fill="#f7e266"/><path d="m256.398 131.327c-72.854 0-165.747 48.468-165.747 126.366 0 17.637 9.562 31.454 10.261 30.212 24.163-42.993 70.202-72.042 123.032-72.042h62.688c52.728 0 98.691 28.937 122.892 71.793 3.457 6.122 8.082-13.146 8.082-30.784 0-77.898-88.354-125.545-161.208-125.545z" fill="#fbf2a8"/><path d="m241.335 96.604-.034 66.752c.239 6.313 5.551 11.237 11.864 10.998s11.237-5.551 10.998-11.864l-.112-70.611z" fill="#a183e2"/><path d="m264.83 8.257-28.481 23.751c-4.039 3.368-4.583 9.373-1.214 13.411l14.641 17.557c3.368 4.039 9.372 4.583 13.411 1.214l49.457-41.243c6.832-5.697 2.815-16.819-6.081-16.835l-35.617-.064c-2.235-.004-4.399.778-6.116 2.209z" fill="#8bb6ef"/><path d="m317.772 79.357-23.751-28.481c-3.368-4.039-9.373-4.583-13.411-1.215l-17.557 14.641c-4.039 3.368-4.583 9.372-1.215 13.411l41.244 49.457c5.697 6.832 16.819 2.814 16.835-6.081l.064-35.617c.005-2.234-.777-4.399-2.209-6.115z" fill="#eaa585"/><path d="m245.521 130.918 28.481-23.751c4.039-3.368 4.583-9.373 1.214-13.411l-14.641-17.557c-3.368-4.039-9.372-4.583-13.411-1.215l-49.457 41.243c-6.832 5.697-2.815 16.819 6.081 16.835l35.617.064c2.235.005 4.399-.777 6.116-2.208z" fill="#f7e266"/><path d="m192.579 59.818 23.751 28.481c3.368 4.039 9.372 4.583 13.411 1.215l17.557-14.641c4.039-3.368 4.583-9.372 1.215-13.411l-41.243-49.457c-5.697-6.832-16.819-2.815-16.835 6.081l-.064 35.617c-.006 2.234.776 4.399 2.208 6.115z" fill="#84eac4"/><ellipse cx="255.175" cy="69.587" fill="#e58bbd" rx="15.458" ry="15.458" transform="matrix(.872 -.49 .49 .872 -1.374 133.923)"/></g><g><g fill="#440b29"><path d="m446.419 332.511c0-17.177-9.968-32.056-24.417-39.194.045-.806.093-1.609.137-2.417 1.532-3.146 2.509-6.912 3.292-10.76 1.434-7.046 2.256-15.527 2.256-23.267 0-38.873-20.462-74.482-57.617-100.267-14.532-10.084-31.263-18.311-48.883-24.287 2.997-2.853 4.771-6.838 4.779-11.219l.057-31.842c0-.001 0-.002 0-.003l.007-3.772c.006-3.648-1.277-7.2-3.613-10.001l.001.001-23.751-28.481c-.766-.918-1.622-1.713-2.535-2.408l20.387-17.001c5.089-4.245 6.924-11.015 4.672-17.248s-7.989-10.269-14.616-10.28l-31.842-.057c-.002 0-.004 0-.006 0l-3.768-.008h-.034c-3.635 0-7.175 1.283-9.969 3.612l-28.481 23.751c-.91.759-1.708 1.614-2.411 2.534l-18.15-21.767c-4.244-5.09-11.014-6.922-17.249-4.672-6.233 2.251-10.268 7.989-10.28 14.616l-.065 35.617c-.006 3.646 1.276 7.197 3.611 10 0 0 0 0 .001.001l23.752 28.481c.764.916 1.613 1.722 2.525 2.416l-20.377 16.993c-5.089 4.245-6.924 11.015-4.673 17.248.464 1.285 1.084 2.47 1.821 3.552-18.048 6.034-35.307 14.347-50.423 24.565-38.684 26.15-59.988 61.929-59.988 100.746 0 10.631 2.859 19.562 5.256 25.182.606 1.421 1.201 2.694 1.785 3.85.115 2.266.242 4.52.368 6.775-14.25 7.208-24.048 21.98-24.048 39.011 0 19.771 13.202 36.498 31.249 41.875 3.604 29.052 8.26 57.394 14.039 85.385 2.235 10.822 11.883 18.676 22.941 18.676.462 0 .919-.017 1.374-.043.305.028.614.043.927.043h9.085v23.471c0 5.567 4.513 10.08 10.08 10.08s10.081-4.514 10.081-10.08v-27.453c0-21.008 7.123-40.381 19.076-55.841 6.575 2.186 13.365 3.892 20.332 5.079-13.437 13.374-21.774 31.864-21.774 52.276v29.107c0 3.34 2.708 6.048 6.048 6.048s6.048-2.708 6.048-6.048v-29.106c0-20.837 10.382-39.284 26.24-50.466 2.268.11 4.545.186 6.839.186h57.313c2.291 0 4.564-.074 6.828-.185 15.863 11.18 26.252 29.625 26.252 50.465v29.107c0 3.34 2.708 6.048 6.048 6.048s6.048-2.708 6.048-6.048v-29.107c0-20.409-8.334-38.897-21.767-52.272 6.966-1.187 13.758-2.886 20.332-5.07 11.948 15.457 19.069 34.825 19.069 55.828v27.453c0 5.567 4.513 10.08 10.08 10.08s10.08-4.514 10.08-10.08v-23.471h11.007c11.059 0 20.707-7.855 22.941-18.677 5.771-27.953 10.422-56.256 14.024-85.266 18.255-5.25 31.649-22.079 31.649-41.994zm-92.03 49.756c-19.748 14.615-44.158 23.272-70.557 23.272h-57.313c-26.568 0-51.122-8.769-70.936-23.555v-96.058c66.626-11.807 133.155-11.277 198.806 1.592zm-98.963-125.099c-43.173-.323-87.08 4.533-130.85 14.45 24.632-28.642 60.835-45.675 99.368-45.675h62.688c39.789 0 77.129 18.18 101.777 48.554-44.066-11.147-88.679-16.981-132.983-17.329zm2.688-94.668c0 .073.002.146.004.22.055 1.438-.455 2.812-1.433 3.868-.979 1.056-2.311 1.668-3.751 1.722-1.447.066-2.813-.454-3.868-1.432-1.033-.958-1.64-2.252-1.718-3.655l.013-26.233c.71-.421 1.393-.892 2.032-1.425l8.666-7.227zm55.807-70.415-.052 28.994c-.004 2.197-1.605 3.012-2.293 3.261-.69.248-2.441.644-3.848-1.042l-27.86-33.408c-.002-.003-.004-.006-.007-.009l-6.876-8.245c.345-.508.66-1.033.959-1.567 10.56.243 27.131 2.371 39.977 12.016zm-58.754-31.904c2.697 0 5.376 1.151 7.235 3.38 1.61 1.931 2.371 4.372 2.145 6.875-.227 2.502-1.415 4.768-3.345 6.377-1.93 1.61-4.366 2.376-6.875 2.145-2.503-.226-4.768-1.415-6.378-3.345s-2.371-4.372-2.145-6.875c.226-2.502 1.414-4.767 3.344-6.377 1.757-1.465 3.894-2.18 6.019-2.18zm1.627 30.846c2.38-.175 4.691-.749 6.866-1.686l6.914 8.291c.592.712.873 1.612.789 2.535s-.522 1.76-1.235 2.354l-18.898 15.759c3.71-9.698 5.127-19.462 5.564-27.253zm13.346 27.235 7.734-6.45c.91-.759 1.708-1.614 2.411-2.534l13.043 15.64c-7.722-1.5-15.482-2.555-23.182-3.135zm16.566-64.76c.996 0 1.985.424 2.671 1.247l15.762 18.901c-10.235-3.915-20.548-5.281-28.533-5.633-.148-2.079-.596-4.104-1.327-6.034l9.206-7.678c.648-.54 1.436-.803 2.221-.803zm23.107-39.048c.249.688.645 2.44-1.043 3.847l-32.032 26.713c-.001 0-.001.001-.002.001l-3.059 2.551-5.709 4.761c-.774-.574-1.577-1.091-2.408-1.549.374-10.566 2.699-26.298 11.998-38.67l28.994.052c2.197.005 3.013 1.606 3.261 2.294zm-69.59 22.2 18.892-15.754c-3.711 9.706-5.124 19.477-5.56 27.271-2.338.174-4.657.72-6.862 1.665l-6.913-8.29c-.594-.713-.876-1.614-.792-2.538.084-.925.522-1.761 1.235-2.354zm-41.448-21.819c.689-.249 2.441-.645 3.849 1.042l34.742 41.661c-.344.507-.66 1.032-.958 1.566-10.561-.242-27.131-2.37-39.977-12.017l.052-28.992c.003-2.196 1.604-3.011 2.292-3.26zm22.2 69.591-15.754-18.891c10.234 3.914 20.541 5.271 28.525 5.622.148 2.079.596 4.105 1.327 6.035l-9.211 7.681c-1.472 1.221-3.662 1.021-4.887-.447zm-19.395 36.447 32.031-26.712c.001-.001.002-.002.003-.003l8.763-7.308c.765.569 1.56 1.09 2.39 1.549-.388 10.587-2.723 26.342-11.977 38.667l-28.991-.052c-2.197-.004-3.013-1.606-3.261-2.295-.249-.687-.645-2.439 1.042-3.846zm-49.73 52.777c24.041-16.251 54.052-27.207 83.413-30.872l-.011 20.576c0 .078.001.155.004.232.177 4.668 2.161 8.987 5.587 12.163 3.259 3.021 7.451 4.662 11.87 4.662.226 0 .453-.005.681-.013 9.596-.364 17.116-8.434 16.817-18.016l-.032-20.379c31.234 2.61 63.434 13.844 88.397 31.168 22.331 15.497 48.95 42.599 48.95 83.703 0 3.08-.147 6.063-.386 8.841-28.351-37.388-72.911-59.931-120.507-59.931h-62.688c-48.453 0-93.718 23.334-121.983 61.909-.73-2.999-1.229-6.382-1.229-9.999-.002-31.914 18.152-61.761 51.117-84.044zm-67.757 158.861c0-5.716 2.055-10.955 5.454-15.038.834 11.13 1.806 22.134 2.925 33.021-5.118-4.322-8.379-10.775-8.379-17.983zm24.25-36.146c9.025-2.39 18.052-4.555 27.079-6.492v165.154c0 1.798-1.463 3.26-3.261 3.26h-.001c-1.542 0-2.886-1.091-3.196-2.592-10.551-51.112-17.319-103.442-20.621-159.33zm47.24 127.731v-17.917c2.636 1.57 5.33 3.05 8.074 4.448-2.995 4.28-5.693 8.781-8.074 13.469zm191.103-13.439c2.618-1.333 5.182-2.756 7.702-4.246v16.964c-2.286-4.422-4.866-8.665-7.702-12.718zm34.321 45.038c-.31 1.502-1.654 2.592-3.197 2.592-1.798 0-3.261-1.463-3.261-3.26v-163.157c8.995 2.116 17.972 4.46 26.929 7.041-3.355 54.933-10.08 106.449-20.471 156.784zm36.457-104.855c1.147-11.133 2.143-22.386 2.992-33.773 3.607 4.138 5.803 9.536 5.803 15.444-.001 7.402-3.438 14.011-8.795 18.329z"/><path d="m178.241 325.514c-7.951 0-14.396 6.445-14.396 14.396s6.445 14.396 14.396 14.396 14.396-6.445 14.396-14.396c0-7.95-6.445-14.396-14.396-14.396z"/><path d="m332.11 325.514c-7.951 0-14.396 6.445-14.396 14.396s6.445 14.396 14.396 14.396 14.396-6.445 14.396-14.396c0-7.95-6.445-14.396-14.396-14.396z"/><path d="m192.653 291.914c-.667-.341-6.738-3.326-14.412-3.326s-13.745 2.986-14.412 3.326c-2.963 1.512-4.132 5.125-2.637 8.096 1.494 2.972 5.126 4.174 8.105 2.693.041-.02 4.131-2.019 8.944-2.019s8.903 1.999 8.913 2.003c.88.45 1.82.663 2.745.663 2.201 0 4.323-1.205 5.392-3.3 1.518-2.974.337-6.618-2.638-8.136z"/><path d="m323.166 302.704c.041-.02 4.131-2.019 8.944-2.019 4.814 0 8.904 1.999 8.913 2.004.881.449 1.82.661 2.745.661 2.201 0 4.323-1.205 5.392-3.3 1.519-2.976.337-6.618-2.638-8.137-.667-.34-6.739-3.325-14.412-3.325-7.674 0-13.745 2.986-14.412 3.326-2.963 1.512-4.132 5.125-2.637 8.096 1.494 2.972 5.125 4.174 8.105 2.694z"/><path d="m240.78 333.862c-3.34 0-6.048 2.708-6.048 6.048 0 11.273 9.171 20.444 20.444 20.444s20.444-9.171 20.444-20.444c0-3.34-2.708-6.048-6.048-6.048s-6.048 2.708-6.048 6.048c0 4.603-3.745 8.348-8.347 8.348-4.603 0-8.348-3.745-8.348-8.348-.001-3.34-2.709-6.048-6.049-6.048z"/></g><path d="m160.921 202.289c-2.9 0-5.777-1.244-7.77-3.652-3.55-4.288-2.952-10.643 1.337-14.193 2.751-2.277 5.598-4.447 8.464-6.45 4.563-3.188 10.848-2.074 14.037 2.489 3.189 4.564 2.075 10.848-2.489 14.038-2.418 1.689-4.826 3.524-7.156 5.454-1.88 1.555-4.158 2.314-6.423 2.314z" fill="#fff"/><path d="m196.389 182.569c-4.37 0-8.396-2.865-9.676-7.272-1.553-5.346 1.523-10.94 6.87-12.492 1.833-.532 3.654-.962 5.413-1.277 5.483-.983 10.719 2.664 11.701 8.143.982 5.48-2.664 10.718-8.144 11.701-1.066.191-2.192.459-3.348.794-.939.273-1.886.403-2.816.403z" fill="#fff"/></g><g><path d="m461.11 75.93 8.562 24.076c.367 1.031 1.092 1.848 2.008 2.26l21.39 9.637c3.022 1.361 3.022 6.176 0 7.538l-21.39 9.637c-.916.413-1.642 1.23-2.008 2.26l-8.562 24.076c-1.21 3.401-5.487 3.401-6.697 0l-8.562-24.076c-.367-1.031-1.092-1.848-2.008-2.26l-21.39-9.637c-3.022-1.361-3.022-6.176 0-7.538l21.39-9.637c.916-.413 1.642-1.229 2.008-2.26l8.562-24.076c1.21-3.401 5.488-3.401 6.697 0z" fill="#b2e7f1"/><ellipse cx="35.359" cy="130.613" fill="#8bb6ef" rx="18.696" ry="18.696" transform="matrix(.123 -.993 .993 .123 -98.601 149.711)"/><circle cx="402.71" cy="39.534" fill="#8bb6ef" r="7.918"/><path d="m103.396 20.524 6.351 17.859c.272.764.81 1.37 1.49 1.677l15.867 7.149c2.242 1.01 2.242 4.581 0 5.591l-15.867 7.149c-.679.306-1.218.912-1.49 1.677l-6.351 17.859c-.897 2.523-4.071 2.523-4.968 0l-6.351-17.859c-.272-.765-.81-1.37-1.49-1.677l-15.867-7.15c-2.242-1.01-2.242-4.582 0-5.591l15.867-7.149c.679-.306 1.218-.912 1.49-1.677l6.351-17.859c.897-2.522 4.071-2.522 4.968.001z" fill="#b2e7f1"/></g></g></svg>