<svg id="Capa_1" enable-background="new 0 0 512 512" height="512" viewBox="0 0 512 512" width="512" xmlns="http://www.w3.org/2000/svg"><g><g><path d="m354.879 501.899v-27.826c0-56.844-46.081-102.925-102.925-102.925-56.844 0-102.925 46.081-102.925 102.925v27.826z" fill="#f7e266"/><path d="m320.658 501.899v-26.291c0-37.944-30.76-68.704-68.704-68.704-37.944 0-68.704 30.76-68.704 68.704v26.291z" fill="#fbf2a8"/><path d="m259.163 407.282c19.873 8.938 33.851 30.151 33.851 54.906v5.956c0 9.272-7.516 16.788-16.788 16.788h-92.977v16.967h137.409v-26.291c0-35.509-26.939-64.722-61.495-68.326z" fill="#edb6a8"/><g fill="#b07676"><ellipse cx="401.488" cy="330.194" rx="34.085" ry="34.085" transform="matrix(.924 -.383 .383 .924 -95.798 178.777)"/><ellipse cx="102.419" cy="330.194" rx="34.085" ry="34.085" transform="matrix(.226 -.974 .974 .226 -242.39 355.182)"/><path d="m280.999 414.428h-58.09c-72.185 0-130.703-58.517-130.703-130.703 0-72.185 58.518-130.703 130.703-130.703h58.09c72.185 0 130.703 58.518 130.703 130.703 0 72.186-58.518 130.703-130.703 130.703z"/></g><path d="m280.999 152.945h-16.761c58.521 0 105.962 47.441 105.962 105.962v8.999c0 58.521-47.441 105.962-105.962 105.962h-66.07c-56.003 0-101.853-43.448-105.695-98.474-.17 2.73-.267 5.48-.267 8.253v.001c0 72.185 58.518 130.702 130.703 130.702h58.09c72.185 0 130.703-58.518 130.703-130.702v-.001c0-72.184-58.518-130.702-130.703-130.702z" fill="#a45775"/><path d="m400.178 329.461c15.4-9.533 30.083-28.465 30.279-49.3v-15.131c0-83.797-67.931-151.728-151.728-151.728h-49.82c-83.797 0-151.728 67.931-151.728 151.728v15.131c1.07 26.567 16.958 40.745 28.203 50.033 66.872-30.451 150.033-79.848 211.935-137.373 21.883 53.148 46.894 94.416 82.859 136.64z" fill="#a183e2"/><path d="m12.964 140.581c5.452-22.725 125.467-120.009 275.192-84.088s208.445 173.3 202.361 198.659c-33.72-20.837-71.413-32.824-116.657-27.987-38.937-21.145-79.425-32.006-121.967-29.261-38.457-20.956-78.961-31.966-122.273-29.335-37.322-21.215-76.178-30.768-116.656-27.988z" fill="#b2e7f1"/><path d="m288.157 56.494c-11.392-2.733-22.608-4.685-33.618-5.967 90.445 35.448 126.268 121.627 122.15 138.79-25.066-15.489-53.084-24.399-86.716-20.804-28.943-15.718-59.04-23.791-90.663-21.751-28.587-15.577-58.695-23.762-90.891-21.806-19.636-11.162-39.845-17.957-60.646-20.257-20.715 14.974-33.14 28.925-34.81 35.883 40.478-2.781 79.334 6.772 116.657 27.987 43.312-2.631 83.816 8.379 122.273 29.335 42.541-2.745 83.03 8.116 121.967 29.261 45.243-4.836 82.936 7.151 116.657 27.988 6.085-25.36-52.635-162.738-202.36-198.659z" fill="#a7adf1"/></g><g><g fill="#440b29"><path d="m173.976 323.102c-8.058 0-14.591 6.532-14.591 14.591s6.533 14.591 14.591 14.591 14.591-6.532 14.591-14.591-6.533-14.591-14.591-14.591z"/><path d="m329.932 323.102c-8.058 0-14.591 6.532-14.591 14.591s6.533 14.591 14.591 14.591 14.591-6.532 14.591-14.591-6.533-14.591-14.591-14.591z"/><path d="m344.508 289.109c-.674-.344-6.814-3.365-14.576-3.365s-13.902 3.02-14.576 3.365c-2.969 1.515-4.14 5.136-2.642 8.113 1.499 2.979 5.138 4.178 8.122 2.698.042-.021 4.2-2.055 9.096-2.055s9.054 2.034 9.065 2.039c.882.451 1.823.664 2.75.664 2.205 0 4.331-1.207 5.403-3.305 1.522-2.981.339-6.632-2.642-8.154z"/><path d="m266.545 331.632c-3.347 0-6.06 2.714-6.06 6.06 0 4.704-3.827 8.531-8.531 8.531s-8.53-3.827-8.53-8.531c0-3.347-2.714-6.06-6.06-6.06s-6.06 2.714-6.06 6.06c0 11.388 9.264 20.652 20.651 20.652s20.652-9.264 20.652-20.652c-.002-3.346-2.715-6.06-6.062-6.06z"/><path d="m455.742 153.587c-28.169-36.257-77.739-83.073-155.659-104.437l4.065-18.831c1.177-5.453-2.289-10.828-7.742-12.004-5.454-1.184-10.828 2.289-12.004 7.741l-3.969 18.385c-78.755-16.066-145.441 3.306-188.188 22.925-50.046 22.966-85.217 54.664-89.103 70.859-.75 3.127.033 6.423 2.109 8.879 2.076 2.454 5.191 3.773 8.405 3.555 29.099-1.997 57.869 2.841 85.838 14.388-21.426 27.669-34.199 62.359-34.199 99.982v15.132c0 .571.041 1.141.123 1.706.998 6.879 2.526 13.017 4.437 18.525-7.206 7.863-11.623 18.321-11.623 29.802 0 24.364 19.821 44.185 44.186 44.185 4 0 7.875-.538 11.562-1.539 12.376 15.102 27.825 27.592 45.382 36.511-12.865 18.347-20.435 40.663-20.435 64.722v15.353c-6.708-2.568-12.305-8.976-10.959-20.666.638-5.542-3.337-10.551-8.879-11.19-5.535-.639-10.551 3.337-11.19 8.879-2.999 26.05 14.265 41.046 31.574 43.955 1.672.281 3.366.458 5.074.537 1.352.671 2.869 1.058 4.481 1.058 2.146 0 4.133-.675 5.769-1.816 8.107-1.574 15.976-5.487 22.391-11.864v6.789c0 3.347 2.714 6.06 6.06 6.06 3.347 0 6.06-2.714 6.06-6.06v-27.368c.448-1.459.851-2.966 1.2-4.525l7.161-28.845c4.583-7.931 10.859-14.762 18.323-20.014 2.292.111 4.596.174 6.915.174h22.985v80.58c0 3.347 2.714 6.06 6.06 6.06s6.06-2.714 6.06-6.06v-80.58h22.985c2.316 0 4.617-.063 6.905-.174 16.129 11.34 26.693 30.08 26.693 51.253v29.501c0 3.347 2.714 6.06 6.06 6.06s6.06-2.714 6.06-6.06v-29.501c0-20.727-8.488-39.5-22.161-53.052 7.138-1.207 14.092-2.958 20.824-5.2 12.153 15.696 19.397 35.376 19.397 56.718v27.826c0 5.578 4.522 10.101 10.101 10.101s10.101-4.523 10.101-10.101v-27.826c0-24.06-7.566-46.381-20.432-64.728 17.554-8.918 32.999-21.408 45.374-36.508 3.687 1.004 7.565 1.542 11.567 1.542 24.364 0 44.186-19.821 44.186-44.185 0-9.825-3.235-18.901-8.682-26.245 2.624-6.781 4.366-14.248 5.276-22.483.048-.433.072-.869.072-1.305v-15.132c0-7.354-.495-14.595-1.442-21.694 14.949 4.576 29.671 11.365 44.31 20.411 1.618.999 3.459 1.508 5.31 1.508 1.303 0 2.611-.252 3.848-.762 2.996-1.234 5.217-3.831 5.974-6.982 4.193-17.475-11.342-61.124-44.596-103.925zm-201.573 34.069c-34.672-18.475-68.853-28.18-103.843-29.435 39.267-37.434 81.387-69.018 125.506-94.084 3.303.666 6.62 1.375 9.968 2.177 3.389.813 6.703 1.696 9.983 2.609 24.193 39.755 45.55 85.904 64.956 140.401-35.435-16.173-71.188-23.453-106.57-21.668zm-152.668-102.311c36.259-16.508 90.961-32.817 155.64-24.336-43.777 26.316-85.48 58.966-124.294 97.283-.281.012-.562.019-.844.033-31.988-17.695-65.22-27.148-99.088-28.209 12.282-12.066 35.434-29.677 68.586-44.771zm-12.437 179.684c0-33.985 12.191-65.173 32.422-89.432 1.049.576 2.097 1.158 3.143 1.753 1.702.969 3.648 1.423 5.604 1.301 39.482-2.401 77.699 6.801 116.828 28.123 1.676.913 3.583 1.332 5.483 1.21 9.648-.622 19.242-.526 28.814.291-49.173 40.169-113.358 79.649-173.89 107.871-8.058-7.839-15.598-18.733-18.404-36.87zm-10.629 65.165c0-3.293.67-6.433 1.878-9.292 3.453 4.898 7.179 9.025 10.889 12.587 2.721 7.179 6.012 14.079 9.819 20.645-12.577-.727-22.586-11.185-22.586-23.94zm92.383 138.513c-1.98 8.917-6.406 14.855-11.689 18.308v-12.942c0-21.343 7.253-41.016 19.407-56.712 1.543.513 3.097 1.002 4.663 1.462l-12.323 49.64c-.021.082-.04.163-.058.244zm110.181-64.379h-58.09c-46.749 0-87.346-26.752-107.351-65.739 71.872-33.339 143.761-79.181 196.6-125.163.393.098.787.195 1.18.296 20.525 46.197 44.014 83.509 76.496 121.897-19.433 40.596-60.905 68.709-108.835 68.709zm144.474-74.134c0 12.756-10.011 23.215-22.589 23.94 3.354-5.783 6.307-11.826 8.823-18.09 4.96-3.56 9.295-7.455 13.028-11.728.477 1.882.738 3.85.738 5.878zm-6.9-65.165v14.456c-2.043 17.292-8.72 27.208-16.368 33.869-23.3-28.444-41.608-56.652-57.675-89.104 8.127 3.405 16.291 7.329 24.511 11.793 1.801.977 3.854 1.387 5.894 1.167 13.954-1.493 27.573-1.303 40.958.572 1.751 8.814 2.68 17.923 2.68 27.247zm-25.03-49.03c-5.731 0-11.514.266-17.349.79-18.906-54.974-39.668-101.848-63.117-142.462 62.138 21.717 102.735 60.792 126.713 91.654 22.216 28.593 33.831 54.529 38.536 70.757-27.508-13.887-55.515-20.739-84.783-20.739z"/><path d="m280.239 441.616c-5.435 0-9.84 4.406-9.84 9.841s4.406 9.84 9.84 9.84c5.435 0 9.84-4.406 9.84-9.84 0-5.435-4.405-9.841-9.84-9.841z"/><ellipse cx="280.239" cy="482.313" rx="9.84" ry="9.84" transform="matrix(.998 -.071 .071 .998 -33.485 21.079)"/><path d="m415.464 174.735c-3.347 0-6.06 2.714-6.06 6.06v9.976c0 3.347 2.714 6.06 6.06 6.06s6.06-2.714 6.06-6.06v-9.976c.001-3.347-2.713-6.06-6.06-6.06z"/><path d="m383.224 136.987c-3.347 0-6.06 2.714-6.06 6.06v9.976c0 3.347 2.714 6.06 6.06 6.06s6.06-2.714 6.06-6.06v-9.976c.001-3.347-2.713-6.06-6.06-6.06z"/><path d="m312.806 151.99c-3.347 0-6.06 2.714-6.06 6.06v9.976c0 3.347 2.714 6.06 6.06 6.06s6.06-2.714 6.06-6.06v-9.976c0-3.346-2.714-6.06-6.06-6.06z"/></g><path d="m113.492 115.763c-3.375 0-6.674-1.691-8.587-4.768-2.945-4.738-1.492-10.966 3.245-13.911 6.713-4.174 13.983-7.888 21.608-11.04 5.155-2.128 11.062.322 13.192 5.478 2.131 5.156-.322 11.062-5.477 13.193-6.605 2.729-12.882 5.934-18.658 9.525-1.659 1.031-3.502 1.523-5.323 1.523z" fill="#fff"/><path d="m164.888 96.322c-4.814 0-9.078-3.454-9.937-8.359-.963-5.495 2.711-10.73 8.206-11.693 2.556-.448 4.549-.737 6.462-.937 5.543-.577 10.516 3.446 11.097 8.994.581 5.549-3.447 10.517-8.995 11.097-1.431.15-2.997.38-5.077.744-.59.103-1.177.154-1.756.154z" fill="#fff"/><path d="m151.952 277.572c-3.552 0-6.997-1.877-8.842-5.203-2.706-4.879-.944-11.027 3.934-13.733 10.892-6.041 21.734-12.407 32.226-18.92 4.74-2.943 10.967-1.486 13.909 3.254s1.485 10.967-3.254 13.909c-10.772 6.687-21.903 13.222-33.084 19.423-1.551.862-3.232 1.27-4.889 1.27z" fill="#fff"/><path d="m120.164 294.24c-3.723 0-7.304-2.066-9.064-5.629-2.47-5.002-.418-11.059 4.584-13.529 1.989-.982 3.973-1.976 5.952-2.976 4.977-2.515 11.055-.522 13.571 4.456 2.517 4.978.522 11.054-4.456 13.572-2.035 1.03-4.076 2.051-6.122 3.061-1.437.709-2.962 1.045-4.465 1.045z" fill="#fff"/></g><g><path d="m474.841 14.891 8.579 24.124c.367 1.033 1.095 1.851 2.012 2.265l21.433 9.656c3.028 1.364 3.028 6.189 0 7.553l-21.433 9.656c-.918.413-1.645 1.232-2.012 2.265l-8.579 24.124c-1.212 3.408-5.498 3.408-6.711 0l-8.579-24.124c-.367-1.033-1.095-1.851-2.012-2.265l-21.433-9.656c-3.028-1.364-3.028-6.189 0-7.553l21.433-9.656c.918-.413 1.645-1.232 2.012-2.265l8.579-24.124c1.213-3.409 5.499-3.409 6.711 0z" fill="#b2e7f1"/><ellipse cx="367.403" cy="18.734" fill="#8bb6ef" rx="18.733" ry="18.734" transform="matrix(.189 -.982 .982 .189 279.529 375.965)"/><circle cx="495.286" cy="393.169" fill="#8bb6ef" r="7.933"/><path d="m438.062 408.571 6.364 17.895c.272.766.812 1.373 1.493 1.68l15.899 7.163c2.246 1.012 2.246 4.591 0 5.603l-15.899 7.163c-.681.307-1.22.914-1.493 1.68l-6.364 17.895c-.899 2.528-4.079 2.528-4.978 0l-6.364-17.895c-.272-.766-.812-1.373-1.493-1.68l-15.899-7.163c-2.246-1.012-2.246-4.591 0-5.603l15.899-7.163c.681-.307 1.22-.914 1.493-1.68l6.364-17.895c.9-2.528 4.079-2.528 4.978 0z" fill="#b2e7f1"/></g></g></svg>