<svg id="Capa_1" enable-background="new 0 0 512 512" height="512" viewBox="0 0 512 512" width="512" xmlns="http://www.w3.org/2000/svg"><g><g><path d="m402.662 500.486c14.304-5.784 29.393-12.409 32.379-28.085 4.61-24.204-11.45-29.223-8.874-49.097 2.001-15.437 22.818-20.72 21.145-49.316-2.128-36.367-26.014-47-39.756-77.006-15.039-32.837-22.877-72.2-49.744-91.925-28.04-20.586-66.852-15.253-102.392-15.253-35.539 0-74.352-5.333-102.392 15.253-26.867 19.725-34.705 59.088-49.744 91.925-13.742 30.006-37.629 40.639-39.756 77.006-1.673 28.596 19.144 33.879 21.145 49.316 2.576 19.874-13.484 24.893-8.874 49.097 2.986 15.677 18.075 22.301 32.379 28.085" fill="#e58bbd"/><path d="m367.627 500.902v-30.277c0-61.852-50.141-111.993-111.993-111.993-61.852 0-111.993 50.141-111.993 111.993v30.277z" fill="#84eac4"/><path d="m263.479 397.949c21.623 9.725 36.833 32.807 36.833 59.743v6.481c0 10.089-8.178 18.267-18.267 18.267h-101.168v18.462h149.514v-28.607c0-38.638-29.313-70.425-66.912-74.346z" fill="#71afc4"/><g fill="#b07676"><ellipse cx="418.343" cy="314.069" rx="37.088" ry="37.088" transform="matrix(.23 -.973 .973 .23 16.56 649.062)"/><ellipse cx="92.926" cy="314.069" rx="37.088" ry="37.088" transform="matrix(.23 -.973 .973 .23 -234.091 332.351)"/><path d="m287.238 405.725h-63.208c-78.545 0-142.217-63.673-142.217-142.217 0-78.545 63.673-142.218 142.217-142.218h63.208c78.545 0 142.217 63.673 142.217 142.218.001 78.544-63.672 142.217-142.217 142.217z"/></g><path d="m287.238 121.205h-18.237c63.677 0 115.297 51.62 115.297 115.297v9.792c0 63.677-51.62 115.298-115.297 115.298h-71.891c-60.937 0-110.826-47.275-115.007-107.149-.185 2.971-.29 5.963-.29 8.98 0 78.544 63.673 142.217 142.217 142.217h63.208c78.545 0 142.217-63.673 142.217-142.217.001-78.546-63.672-142.218-142.217-142.218z" fill="#a45775"/><path d="m64.192 290.553c-3.042-9.333-3.324-28.332-3.324-28.332 1.845-86.329 72.397-155.747 159.169-155.747h70.762c86.772 0 157.324 69.417 159.169 155.747 0 0 .395 16.747-5.287 26.217l-18.483-14.367c-36.869 11.874-84.471 1.955-123.315-29.417-22.569-18.227-38.678-40.87-47.464-64.204-8.786 23.334-24.895 45.977-47.464 64.204-38.865 31.389-86.498 41.302-123.375 29.398" fill="#e58bbd"/><path d="m166.618 90.406c0-33.12 39.854-46.435 89.016-46.435s89.016 13.316 89.016 46.435-39.854 73.501-89.016 73.501-89.016-40.382-89.016-73.501z" fill="#f0c4db"/><path d="m412.224 94.577c10.772 26.006.892 43.94-37.53 59.856-38.423 15.915-96.859 15.421-107.631-10.585s36.22-59.313 74.642-75.228c38.423-15.915 59.747-.048 70.519 25.957z" fill="#f0c4db"/><path d="m412.224 94.577c-10.772-26.006-32.096-41.872-70.519-25.957-3.994 1.655-8.081 3.5-12.186 5.502 22.671-6.512 35.742 4.3 42.667 21.019 7.644 18.454.633 31.18-26.632 42.474s-68.732 10.943-76.375-7.51c-.707-1.707-1.062-3.46-1.104-5.241-2.896 6.516-3.513 12.948-1.012 18.985 10.772 26.006 69.208 26.499 107.631 10.585 38.422-15.916 48.302-33.851 37.53-59.857z" fill="#e693db"/><path d="m422.195 199.783c-12.744 28.648-36.173 44.375-74.172 27.472s-80.718-46.106-67.975-74.754 64.38-31.735 102.378-14.832c37.999 16.904 52.513 33.467 39.769 62.114z" fill="#f0c4db"/><path d="m382.427 137.67c-32.595-14.499-75.224-14.288-94.732 4.147 14.264-11.739 43.024-11.57 65.195-1.708 26.711 11.882 36.913 23.525 27.955 43.663s-25.428 31.193-52.139 19.311c-26.296-11.697-55.807-31.774-48.173-51.608-.166.339-.331.678-.485 1.025-12.743 28.648 29.976 57.851 67.975 74.754s61.428 1.175 74.172-27.472-1.77-45.209-39.768-62.112z" fill="#e693db"/><path d="m99.045 94.577c-10.772 26.006-.892 43.94 37.53 59.856 38.423 15.915 96.859 15.421 107.631-10.585s-36.22-59.313-74.642-75.228c-38.423-15.915-59.747-.048-70.519 25.957z" fill="#f0c4db"/><path d="m89.073 199.783c12.744 28.648 36.173 44.375 74.172 27.472s80.718-46.106 67.975-74.754-64.38-31.735-102.378-14.832c-37.999 16.904-52.512 33.467-39.769 62.114z" fill="#f0c4db"/><path d="m356.502 218.921c0 33.12-45.16 46.435-100.868 46.435s-100.868-13.316-100.868-46.435c0-33.12 45.16-73.501 100.868-73.501s100.868 40.382 100.868 73.501z" fill="#f0c4db"/><path d="m255.634 145.42c-4.787 0-9.493.305-14.103.871 35.491 5.057 62.587 31.473 62.587 53.545 0 24.519-33.433 34.377-74.676 34.377-36.164 0-66.319-7.582-73.198-25.98-.968 3.606-1.478 7.188-1.478 10.689 0 33.12 45.16 46.435 100.868 46.435s100.868-13.315 100.868-46.435c0-33.121-45.16-73.502-100.868-73.502z" fill="#e693db"/><path d="m331.188 132.582c0 17.664-33.826 31.983-75.553 31.983s-75.553-14.319-75.553-31.983 33.826-46.173 75.553-46.173 75.553 28.509 75.553 46.173z" fill="#fbf2a8"/><path d="m255.634 86.408c-3.33 0-6.603.201-9.819.543 27.382 3.421 48.358 22.234 48.358 34.321 0 13.336-25.54 24.148-57.046 24.148-27.424 0-50.32-8.193-55.794-19.112-.808 2.188-1.252 4.301-1.252 6.273 0 17.664 33.826 31.983 75.553 31.983s75.553-14.319 75.553-31.983c.001-17.663-33.826-46.173-75.553-46.173z" fill="#edb6a8"/></g><g><g fill="#440b29"><path d="m442.578 414.14c6.777-8.219 16.059-19.474 14.814-40.742-.596-10.172-2.714-18.603-5.728-25.952 8.56-8.547 13.864-20.354 13.864-33.376 0-10.296-3.325-19.825-8.945-27.59 3.664-10.736 3.515-22.86 3.478-24.473-.624-29.208-8.626-57.198-23.057-81.801.021-6.014-1.149-11.726-3.529-17.096-3.665-8.269-9.988-15.431-19.098-21.596 2.412-2.551 4.463-5.198 6.151-7.968 7.518-12.334 7.853-26.345 1.025-42.831-6.892-16.639-16.997-28.087-30.035-34.023-14.149-6.444-31.05-6.012-50.275 1.261-15.845-15.579-45.183-24.078-85.608-24.078s-69.76 8.5-85.603 24.08c-19.226-7.274-36.129-7.708-50.281-1.263-13.037 5.936-23.142 17.384-30.034 34.023-9.425 22.753-4.014 38.953 7.174 50.8-9.11 6.165-15.432 13.326-19.097 21.595-2.281 5.147-3.45 10.609-3.526 16.35-14.707 24.782-22.865 53.045-23.495 82.547-.003.122-.003.245-.001.366.027 1.791.303 15.648 2.497 26.194-4.754 7.359-7.528 16.11-7.528 25.504 0 12.869 5.184 24.546 13.567 33.067-3.084 7.423-5.256 15.945-5.859 26.262-1.244 21.268 8.037 32.524 14.814 40.742 3.82 4.632 6 7.402 6.397 10.462.816 6.299-.96 10.109-3.648 15.875-3.66 7.85-8.215 17.62-5.131 33.812 4.124 21.652 24.818 30.019 38.512 35.557 1.24.502 2.521.74 3.782.74 3.993-.001 7.775-2.385 9.364-6.315 2.091-5.17-.406-11.055-5.575-13.146-13.701-5.541-24.333-10.576-26.245-20.614-1.864-9.789.545-14.957 3.596-21.5 3.093-6.635 6.943-14.891 5.373-27.006-1.164-8.975-6.306-15.212-10.844-20.714-5.911-7.168-11.016-13.359-10.235-26.715.362-6.191 1.429-11.47 3.037-16.22 5.077 1.872 10.561 2.897 16.28 2.897 4.472 0 8.792-.646 12.893-1.816 13.665 16.809 30.831 30.662 50.383 40.428-14.257 19.974-22.658 44.403-22.658 70.759v30.277c0 5.576 4.521 10.097 10.097 10.097s10.097-4.521 10.097-10.097v-30.277c0-23.653 8.106-45.446 21.68-62.757 7.874 2.658 16.036 4.684 24.423 6.028-15.405 14.724-25.022 35.456-25.022 58.398v32.1c0 3.346 2.713 6.058 6.058 6.058s6.058-2.713 6.058-6.058v-32.1c0-23.49 11.86-44.249 29.897-56.641 2.385.111 4.785.169 7.198.169h63.208c2.412 0 4.81-.057 7.195-.169 18.039 12.392 29.9 33.151 29.9 56.641v32.1c0 3.346 2.713 6.058 6.058 6.058 3.346 0 6.058-2.713 6.058-6.058v-32.1c0-22.943-9.617-43.675-25.022-58.398 8.387-1.344 16.548-3.369 24.422-6.028 13.574 17.311 21.681 39.103 21.681 62.757v30.277c0 5.576 4.521 10.097 10.097 10.097s10.097-4.521 10.097-10.097v-30.277c0-26.357-8.401-50.785-22.659-70.759 19.551-9.765 36.716-23.615 50.381-40.422 4.102 1.169 8.424 1.81 12.897 1.81 5.579 0 10.932-.98 15.905-2.766 1.58 4.717 2.625 9.958 2.984 16.089.782 13.356-4.323 19.546-10.234 26.715-4.538 5.502-9.68 11.739-10.844 20.713-1.571 12.115 2.28 20.372 5.373 27.007 3.051 6.542 5.461 11.711 3.596 21.5-1.912 10.038-12.544 15.074-26.246 20.614-5.17 2.09-7.665 7.976-5.575 13.146s7.974 7.667 13.146 5.575c13.694-5.538 34.389-13.905 38.513-35.557 3.084-16.193-1.471-25.962-5.131-33.812-2.689-5.766-4.465-9.576-3.648-15.876.395-3.061 2.576-5.831 6.396-10.463zm-3.251-142.652-6.933-5.39c-2.636-2.048-6.116-2.663-9.292-1.639-24.423 7.866-52.962 5.122-79.897-6.818 7.701-4.775 13.007-10.131 16.589-15.585 5.93 1.504 11.643 2.265 17.122 2.265 7.726 0 14.992-1.495 21.751-4.487 12.352-5.468 22.446-15.691 30.078-30.405 6.793 16.441 10.727 34.318 11.126 53.014.049 2.347-.105 5.65-.544 9.045zm-274.463-52.567c0-16.515 15.963-38.18 41.481-51.429 14.19 4.645 31.34 7.17 49.29 7.17 17.952 0 35.104-2.525 49.295-7.172 25.516 13.25 41.475 34.917 41.475 51.431 0 33.718-69.476 36.339-90.77 36.339s-90.771-2.621-90.771-36.339zm43.039-107.711c8.043-5.492 24.939-14.705 47.731-14.705s39.688 9.213 47.731 14.704c12.913 8.817 17.725 17.789 17.725 21.372 0 7.428-23.104 21.886-65.456 21.886s-65.456-14.458-65.456-21.886c0-3.583 4.812-12.555 17.725-21.371zm205.067 84.469c-5.785 13.005-13.347 21.648-22.477 25.688-6.873 3.043-14.936 3.529-24.067 1.5.119-1.353.173-2.672.173-3.946 0-19.449-12.497-40.807-33.431-57.132-2.135-1.665-4.33-3.25-6.57-4.765 6.325-4.541 10.703-9.753 12.945-15.416.739-.013 1.478-.034 2.217-.034 13.087 0 26.091 1.929 37.511 5.686 19.491 6.412 31.516 14.497 35.742 24.031 2.957 6.673 2.289 14.65-2.043 24.388zm-29.821-120.611c8.23 3.748 14.874 11.613 19.745 23.374h.001c5.515 13.314 3.105 20.137.389 24.593-1.79 2.938-4.441 5.795-7.953 8.598-3.076-1.241-6.321-2.427-9.75-3.555-14.235-4.683-30.505-6.93-46.706-6.633-3.883-9.319-12.308-18.845-24.125-26.913-.181-.124-.369-.239-.551-.361 9.749-6.117 20.536-11.735 31.369-16.222 8.997-3.727 17.085-5.593 24.193-5.593 4.946 0 9.417.904 13.388 2.712zm-62.672-7.702c-9.489 4.893-18.608 10.399-26.749 16.137-12.114-4.696-25.119-7.192-38.094-7.192s-25.981 2.496-38.095 7.193c-8.141-5.739-17.259-11.244-26.748-16.136 19.011-12.031 52.001-13.302 64.844-13.302s45.831 1.271 64.842 13.3zm-212.104 31.076c7.264-17.537 18.02-26.152 33.122-26.152 7.083 0 15.125 1.897 24.205 5.658 10.834 4.487 21.608 10.113 31.358 16.23-.179.12-.363.233-.541.354-11.814 8.066-20.237 17.588-24.122 26.905-16.202-.294-32.473 1.958-46.709 6.641-3.437 1.131-6.69 2.319-9.771 3.563-14.439-11.511-12.05-22.317-7.542-33.199zm-12.117 72.849c4.226-9.533 16.251-17.617 35.741-24.03 11.422-3.757 24.424-5.686 37.511-5.686.738 0 1.477.015 2.215.029 2.241 5.666 6.621 10.879 12.947 15.421-2.239 1.516-4.435 3.099-6.57 4.765-20.933 16.325-33.431 37.683-33.431 57.132 0 1.275.054 2.594.173 3.948-9.135 2.031-17.196 1.539-24.067-1.502-9.129-4.041-16.692-12.684-22.477-25.688-4.331-9.739-5-17.717-2.042-24.389zm-13.978 37.654c7.661 14.973 17.838 25.362 30.324 30.889 6.761 2.992 14.024 4.487 21.752 4.487 5.477 0 11.192-.765 17.12-2.268 3.553 5.413 8.807 10.726 16.411 15.474-22.713 10.123-46.575 13.697-68.162 9.887.033-.007.066-.015.098-.021-.303-.044-.609-.079-.913-.118-3.822-.709-7.57-1.652-11.226-2.832-3.247-1.047-6.803-.384-9.454 1.76l-6.803 5.506c-.266-3.526-.414-6.906-.457-9.459.425-18.807 4.418-36.789 11.31-53.305zm10.648 132.115c-14.883 0-26.991-12.108-26.991-26.991 0-6.229 2.125-11.968 5.684-16.538l3.35-2.712c3.473 16.553 9.636 32.127 18.017 46.237-.02.001-.04.004-.06.004zm194.312 54.567h-63.208c-64.875 0-118.97-47.004-130.04-108.742 31.283 6.132 66.441-.814 97.943-19.031 17.171 4.988 38.896 7.599 63.701 7.599 24.658 0 46.267-2.582 63.389-7.513 23.95 13.82 50.007 21.129 74.867 21.127 7.958 0 15.792-.756 23.395-2.278-11.031 61.786-65.139 108.838-130.047 108.838zm131.05-54.569c8.397-14.136 14.564-29.742 18.033-46.328l2.161 1.68c.184.143.378.267.57.396 3.913 4.682 6.282 10.697 6.282 17.263 0 14.883-12.108 26.991-26.991 26.991-.019 0-.037-.002-.055-.002z"/><circle cx="170.787" cy="322.229" r="15.876"/><ellipse cx="340.482" cy="322.229" rx="15.876" ry="15.876" transform="matrix(.055 -.999 .999 .055 -.082 644.37)"/><path d="m271.511 316.17c-3.346 0-6.058 2.713-6.058 6.058 0 5.413-4.405 9.818-9.818 9.818-5.414 0-9.818-4.405-9.818-9.818 0-3.346-2.713-6.058-6.058-6.058-3.346 0-6.058 2.713-6.058 6.058 0 12.095 9.84 21.934 21.934 21.934 12.095 0 21.935-9.84 21.935-21.934-.001-3.345-2.713-6.058-6.059-6.058z"/><path d="m302.053 221.311c3.346 0 6.058-2.713 6.058-6.058v-10.858c0-3.346-2.713-6.058-6.058-6.058-3.346 0-6.058 2.713-6.058 6.058v10.858c0 3.346 2.713 6.058 6.058 6.058z"/><path d="m266.739 240.271c3.346 0 6.058-2.713 6.058-6.058v-10.858c0-3.346-2.713-6.058-6.058-6.058s-6.058 2.713-6.058 6.058v10.858c0 3.345 2.713 6.058 6.058 6.058z"/></g><path d="m252.448 123.855c-5.19 0-9.603-3.978-10.05-9.244-.471-5.556 3.65-10.443 9.207-10.914 1.457-.124 2.108-.122 3.006-.108.209.004.461.009.816.009 5.577.004 10.094 4.527 10.09 10.104-.003 5.574-4.523 10.09-10.097 10.09-.46-.01-.87-.007-1.169-.012-.408-.007-.407-.007-.938.037-.29.025-.579.038-.865.038z" fill="#fff"/><path d="m219.059 137.436c-2.745 0-5.48-1.112-7.472-3.302-3.753-4.126-3.451-10.511.674-14.264 2.696-2.452 5.771-4.677 9.399-6.801 4.812-2.819 10.997-1.201 13.815 3.613 2.817 4.813 1.199 10.998-3.613 13.814-2.401 1.406-4.368 2.816-6.012 4.312-1.934 1.759-4.367 2.628-6.791 2.628z" fill="#fff"/></g><g><path d="m477.716 6.944 8.576 24.115c.367 1.032 1.094 1.851 2.012 2.264l21.425 9.653c3.027 1.364 3.027 6.187 0 7.55l-21.425 9.653c-.917.413-1.644 1.231-2.012 2.264l-8.576 24.115c-1.211 3.407-5.496 3.407-6.708 0l-8.576-24.115c-.367-1.033-1.094-1.851-2.012-2.264l-21.425-9.653c-3.027-1.364-3.027-6.186 0-7.55l21.425-9.653c.917-.413 1.644-1.232 2.012-2.264l8.576-24.115c1.212-3.407 5.497-3.407 6.708 0z" fill="#f0c4db"/><circle cx="37.66" cy="136.653" fill="#e58bbd" r="7.931"/><ellipse cx="475.372" cy="141.153" fill="#e58bbd" rx="7.931" ry="7.931" transform="matrix(.973 -.23 .23 .973 -19.714 112.995)"/><path d="m30.407 2.896 6.362 17.888c.272.766.811 1.373 1.492 1.679l15.893 7.16c2.245 1.012 2.245 4.589 0 5.601l-15.893 7.16c-.681.306-1.22.913-1.492 1.679l-6.362 17.888c-.899 2.527-4.077 2.527-4.976 0l-6.362-17.888c-.272-.766-.812-1.373-1.492-1.679l-15.893-7.16c-2.245-1.012-2.245-4.589 0-5.601l15.893-7.16c.681-.307 1.22-.914 1.492-1.679l6.362-17.888c.899-2.527 4.077-2.527 4.976 0z" fill="#f0c4db"/><ellipse cx="348.834" cy="16.195" fill="#e58bbd" rx="7.931" ry="7.931" transform="matrix(.122 -.993 .993 .122 290.139 360.436)"/></g></g></svg>