<svg id="Capa_1" enable-background="new 0 0 512 512" height="512" viewBox="0 0 512 512" width="512" xmlns="http://www.w3.org/2000/svg"><g><g><g fill="#f7e266"><ellipse cx="391.613" cy="461.859" rx="31.273" ry="38.938" transform="matrix(.267 -.964 .964 .267 -157.935 716.164)"/><ellipse cx="386.878" cy="405.943" rx="56.905" ry="32.221" transform="matrix(.866 -.5 .5 .866 -151.14 247.826)"/><ellipse cx="116.169" cy="461.859" rx="38.938" ry="31.273" transform="matrix(.964 -.267 .267 .964 -118.93 47.688)"/><ellipse cx="120.904" cy="405.943" rx="32.221" ry="56.905" transform="matrix(.5 -.866 .866 .5 -291.105 307.676)"/></g><path d="m367.29 501.947v-30.657c0-62.629-50.771-113.399-113.399-113.399-62.629 0-113.399 50.771-113.399 113.399v30.657z" fill="#d49c8d"/><path d="m329.587 501.947v-28.967c0-41.806-33.89-75.696-75.696-75.696-41.806 0-75.696 33.89-75.696 75.696v28.967z" fill="#d49c8d"/><path d="m184.144 443.514c-3.831 9.057-5.949 19.014-5.949 29.466v28.967h151.392v-28.967c0-10.452-2.118-20.409-5.949-29.466z" fill="#fbf2a8"/><path d="m297.248 441.97h25.712c-10.812-24.043-33.808-41.421-61.126-44.27 17.398 7.826 30.686 24.194 35.414 44.27z" fill="#c7758d"/><path d="m323.638 443.514h-26.037c.999 4.719 1.529 9.632 1.529 14.68v6.562c0 10.215-8.281 18.497-18.497 18.497h-102.438v18.693h151.392v-28.966c0-10.452-2.118-20.409-5.949-29.466z" fill="#edb6a8"/><ellipse cx="418.643" cy="312.767" fill="#d49c8d" rx="37.554" ry="37.554" transform="matrix(.23 -.973 .973 .23 18.058 648.352)"/><ellipse cx="89.139" cy="312.767" fill="#d49c8d" rx="37.554" ry="37.554" transform="matrix(.526 -.851 .851 .526 -223.78 224.162)"/><path d="m285.892 405.574h-64.002c-79.531 0-144.004-64.473-144.004-144.004 0-79.531 64.473-144.004 144.004-144.004h64.002c79.531 0 144.004 64.473 144.004 144.004 0 79.532-64.473 144.004-144.004 144.004z" fill="#d49c8d"/><path d="m285.892 118.193h-18.466c64.477 0 116.745 52.269 116.745 116.745v9.915c0 64.477-52.269 116.746-116.745 116.746h-72.794c-61.702 0-112.218-47.869-116.451-108.495-.188 3.008-.294 6.038-.294 9.093 0 79.531 64.473 144.004 144.004 144.004h64.002c79.531 0 144.004-64.473 144.004-144.004-.001-79.531-64.474-144.004-144.005-144.004z" fill="#c7758d"/><path d="m417.323 319.14c17.196-10.645 31.936-27.022 33.811-55.051v-16.896c0-93.572-75.855-169.427-169.428-169.427h-55.631c-93.572 0-169.428 75.855-169.428 169.427v16.896c1.194 29.666 18.937 45.498 31.492 55.87l34.367-109.339 40.744 28.574 44.425-33.699 46.215 33.975 47.996-36.787 49.21 37.04 33.336-30.69z" fill="#fbf2a8"/><ellipse cx="392.115" cy="137.466" fill="#84eac4" rx="53.481" ry="24.343" transform="matrix(.981 -.193 .193 .981 -19.143 78.15)"/><path d="m391.319 116.118c-11.303 27.288-30.535 45.239-42.956 40.094s-13.327-31.437-2.023-58.725c11.303-27.288 30.535-45.239 42.956-40.094 12.42 5.145 13.326 31.437 2.023 58.725z" fill="#84eac4"/></g><g><g fill="#440b29"><path d="m466.251 312.767c0-9.51-2.818-18.366-7.642-25.807 2.355-6.868 3.802-14.232 4.328-22.082.018-.263.027-.526.027-.789v-16.896c0-32.796-8.767-63.577-24.066-90.142.174-.122.355-.241.527-.363 17.564-12.568 18.05-25.324 16.777-31.808-1.273-6.485-6.547-18.108-27.561-23.099-5.988-1.423-12.691-2.132-19.776-2.151 1.638-7.581 2.392-14.911 2.162-21.585-.744-21.585-11.098-29.05-17.204-31.58-6.104-2.528-18.706-4.571-34.494 10.166-5.71 5.33-11.106 12.24-15.834 20.175-19.293-7.02-40.096-10.868-61.786-10.868h-55.632c-99.945 0-181.256 81.311-181.256 181.256v16.896c0 .159.004.317.01.476.341 8.464 1.882 15.985 4.17 22.675-4.716 7.382-7.467 16.135-7.467 25.527 0 21.66 14.545 39.974 34.377 45.722-6.265 2.935-11.214 7.344-14.53 13.087-6.526 11.304-5.428 25.503 3.093 39.978 4.319 7.337 10.383 14.38 17.702 20.697-3.026 2.616-5.735 5.53-8.034 8.722-7.541 10.467-10.055 23.013-6.899 34.421 5.097 18.426 23.633 30.16 44.733 30.16 5.129 0 10.411-.694 15.687-2.153.95-.263 1.885-.55 2.809-.856.311 5.273 4.673 9.456 10.023 9.456 5.552 0 10.053-4.501 10.053-10.053v-30.657c0-24.034 8.255-46.171 22.069-63.744 7.988 2.704 16.269 4.765 24.78 6.131-15.534 14.882-25.23 35.808-25.23 58.968v32.773c0 3.331 2.701 6.032 6.032 6.032s6.032-2.701 6.032-6.032v-32.773c0-8.192 1.426-16.055 4.036-23.36h131.251c2.611 7.305 4.041 15.167 4.041 23.36v32.773c0 3.331 2.701 6.032 6.032 6.032s6.032-2.701 6.032-6.032v-32.773c0-23.155-9.684-44.086-25.209-58.971 8.506-1.366 16.783-3.426 24.766-6.129 13.811 17.573 22.06 39.712 22.06 63.745v30.657c0 5.552 4.501 10.053 10.053 10.053 5.352 0 9.716-4.187 10.024-9.463.924.307 1.857.6 2.808.863 5.278 1.46 10.556 2.153 15.687 2.153 21.098 0 39.637-11.735 44.734-30.159 4.293-15.523-2.041-31.867-14.964-43.116 7.333-6.323 13.407-13.375 17.732-20.722 8.521-14.476 9.619-28.674 3.094-39.979-3.318-5.746-8.267-10.152-14.535-13.085 19.83-5.75 34.378-24.065 34.378-45.727zm-33.28-183.326c-.323 3.253-12.122 15.135-38.444 20.305-3.819.75-7.392 1.241-10.742 1.545 6.553-7.543 12.492-17.087 17.198-27.705 19.424-1.655 30.692 3.408 31.988 5.855zm-75.703-27.427c10.264-24.782 24.215-34.012 27.495-33.678 2.53 2.07 5.894 18.474-4.372 43.257-10.264 24.782-24.242 34.017-27.495 33.678-2.53-2.069-5.894-18.474 4.372-43.257zm-288.792 145.179c0-86.9 70.699-157.599 157.599-157.599h55.632c18.078 0 35.45 3.067 51.634 8.697-4.727 13.003-7.095 26.059-6.708 37.27.116 3.357.464 6.371.993 9.08-.082 2.083.111 3.918.404 5.413 1.274 6.485 6.549 18.108 27.561 23.099 6.068 1.441 12.863 2.161 20.053 2.161 7.51 0 15.451-.786 23.442-2.355 6.527-1.282 12.82-3.042 18.697-5.189 13.674 23.335 21.522 50.478 21.522 79.423v16.486c-1.043 14.504-6.069 26.092-15.578 35.574l-27.961-93.606c-1.167-3.908-4.266-6.939-8.199-8.02-1.035-.284-2.088-.423-3.134-.423-2.932 0-5.801 1.09-8.012 3.126l-26.086 24.015-41.335-31.112c-4.242-3.193-10.094-3.168-14.308.063l-40.948 31.385-39.061-28.715c-4.221-3.103-9.98-3.06-14.154.106l-37.55 28.484-33.679-23.619c-3.088-2.165-7.024-2.729-10.594-1.516-3.571 1.212-6.35 4.055-7.481 7.653l-28.729 91.403c-7.59-8.614-13.348-19.309-14.017-34.635v-16.649zm154.581 168.434h59.985v21.593h-59.985zm62.835-20.106h-64.002c-53.347 0-99.5-31.353-121.026-76.595l28.081-89.343 27.514 19.295c4.21 2.952 9.844 2.847 13.94-.26l37.388-28.36 39.098 28.743c4.238 3.116 10.026 3.058 14.202-.142l40.864-31.322 42.033 31.637c4.561 3.434 10.926 3.119 15.124-.749l19.41-17.869 27.149 90.888c-22.023 43.878-67.427 74.077-119.775 74.077zm-224.253-82.754c0-.769.036-1.529.098-2.281 6.701 8.535 13.956 14.533 18.87 18.592 1.167.964 2.492 1.671 3.892 2.125 1.567 3.079 3.237 6.098 5 9.055-.12.001-.239.01-.36.01-15.164-.001-27.5-12.337-27.5-27.501zm59.714 167.832c-14.164 3.917-28.502-1.355-31.313-11.513-1.689-6.107 1.339-11.572 3.294-14.286 2.398-3.328 5.765-6.221 9.713-8.427 9.31 4.865 18.972 8.249 28.299 9.956-.595 4.905-.907 9.896-.907 14.96v5.356c-2.715 1.669-5.768 3.036-9.086 3.954zm15.098-47.378c-8.282-1.405-17.306-4.746-25.743-9.617-23.831-13.758-32.999-32.998-28.842-40.199 1.917-3.321 7.467-5.467 15.231-5.467 9.071 0 21.163 2.932 34.003 10.345 7.573 4.372 14.304 9.771 19.477 15.51-5.938 9.056-10.717 18.935-14.126 29.428zm74.542-15.4v19.4h-17.059c4.44-7.48 10.243-14.058 17.059-19.4zm102.845 19.4h-18.732v-20.686c7.548 5.556 13.931 12.599 18.732 20.686zm103.904 31.866c-2.81 10.158-17.152 15.432-31.313 11.513-3.319-.918-6.37-2.288-9.085-3.957v-5.353c0-5.061-.309-10.051-.904-14.955 9.322-1.707 18.978-5.096 28.283-9.958 9.591 5.379 15.264 14.595 13.019 22.71zm-20.667-45.484c-9.259 5.346-18.119 8.349-25.746 9.613-3.41-10.493-8.185-20.376-14.123-29.432 5.175-5.736 11.907-11.132 19.477-15.502 11.257-6.499 23.559-10.276 33.751-10.362.118-.001.234-.001.35-.001 7.501 0 13.145 2.041 15.133 5.485 4.156 7.2-5.013 26.441-28.842 40.199zm21.568-83.336c-.12 0-.239-.007-.359-.008 2.274-3.812 4.39-7.728 6.335-11.742 8.514-5.413 15.638-11.657 21.346-18.709.105.974.178 1.958.178 2.96.001 15.163-12.336 27.499-27.5 27.499z"/><ellipse cx="167.978" cy="321.03" rx="16.076" ry="16.076" transform="matrix(.526 -.851 .851 .526 -193.417 295.145)"/><circle cx="339.804" cy="321.03" r="16.076"/><path d="m183.744 268.075c-.729-.372-7.365-3.636-15.766-3.636s-15.037 3.263-15.766 3.636c-2.967 1.515-4.145 5.148-2.63 8.115 1.516 2.967 5.148 4.146 8.115 2.63.045-.024 4.695-2.317 10.281-2.317 5.558 0 10.262 2.307 10.281 2.317.879.448 1.815.661 2.738.661 2.195 0 4.311-1.202 5.378-3.291 1.514-2.967.336-6.6-2.631-8.115z"/><path d="m355.57 268.075c-.728-.372-7.365-3.636-15.765-3.636-8.401 0-15.038 3.263-15.766 3.636-2.968 1.515-4.145 5.148-2.63 8.115s5.15 4.145 8.114 2.63c.046-.024 4.696-2.317 10.282-2.317 5.558 0 10.262 2.307 10.281 2.317.878.448 1.814.661 2.737.661 2.194 0 4.311-1.202 5.377-3.291 1.515-2.967.338-6.6-2.63-8.115z"/><path d="m269.967 314.997c-3.331 0-6.032 2.701-6.032 6.032 0 5.538-4.505 10.044-10.044 10.044-5.538 0-10.044-4.506-10.044-10.044 0-3.331-2.701-6.032-6.032-6.032s-6.032 2.701-6.032 6.032c0 12.19 9.917 22.108 22.108 22.108 12.19 0 22.108-9.918 22.108-22.108 0-3.331-2.701-6.032-6.032-6.032z"/></g><path d="m160.277 143.219c-3.249 0-6.436-1.572-8.374-4.477-3.08-4.619-1.832-10.861 2.788-13.942 1.952-1.302 6.549-4.131 9.968-5.521 5.145-2.088 11.009.386 13.098 5.53 2.09 5.144-.386 11.008-5.53 13.098-1.371.557-4.557 2.404-6.383 3.622-1.713 1.143-3.65 1.69-5.567 1.69z" fill="#fff"/><path d="m116.87 183.911c-1.84 0-3.702-.505-5.372-1.563-4.69-2.972-6.083-9.183-3.111-13.873 8.377-13.219 18.089-22.604 24.762-28.149 4.27-3.549 10.609-2.964 14.157 1.307 3.549 4.27 2.964 10.608-1.307 14.157-5.561 4.621-13.653 12.441-20.628 23.447-1.914 3.021-5.172 4.674-8.501 4.674z" fill="#fff"/></g><g><path d="m42.336 5.051 8.539 24.011c.366 1.028 1.09 1.843 2.003 2.254l21.333 9.611c3.014 1.358 3.014 6.16 0 7.518l-21.333 9.611c-.913.411-1.637 1.226-2.003 2.254l-8.539 24.011c-1.206 3.392-5.473 3.392-6.679 0l-8.539-24.011c-.366-1.028-1.089-1.843-2.003-2.254l-21.333-9.611c-3.014-1.358-3.014-6.16 0-7.518l21.333-9.611c.913-.412 1.637-1.226 2.003-2.254l8.539-24.011c1.206-3.392 5.473-3.392 6.679 0z" fill="#fbf2a8"/><ellipse cx="154.954" cy="19.793" fill="#f7e266" rx="18.646" ry="18.646" transform="matrix(.189 -.982 .982 .189 106.216 168.208)"/><ellipse cx="23.564" cy="148.058" fill="#f7e266" rx="7.896" ry="7.896" transform="matrix(.122 -.993 .993 .122 -126.264 153.355)"/><path d="m485.158 1.887 6.334 17.811c.271.762.808 1.367 1.486 1.672l15.824 7.129c2.236 1.007 2.236 4.569 0 5.576l-15.824 7.13c-.678.305-1.215.909-1.486 1.672l-6.334 17.811c-.895 2.516-4.06 2.516-4.954 0l-6.334-17.811c-.271-.763-.808-1.367-1.486-1.672l-15.824-7.13c-2.236-1.007-2.236-4.569 0-5.576l15.824-7.129c.678-.305 1.215-.91 1.486-1.672l6.334-17.811c.894-2.516 4.059-2.516 4.954 0z" fill="#fbf2a8"/></g></g></svg>