<svg id="Capa_1" enable-background="new 0 0 509.612 509.612" height="512" viewBox="0 0 509.612 509.612" width="512" xmlns="http://www.w3.org/2000/svg"><g><g><ellipse cx="135.612" cy="456.072" fill="#f0c4db" rx="35.294" ry="38.013" transform="matrix(.25 -.968 .968 .25 -339.881 473.335)"/><path d="m358.727 499.612v-28.471c0-58.163-47.151-105.314-105.314-105.314-58.163 0-105.314 47.151-105.314 105.314v28.471z" fill="#fbf2a8"/><path d="m260.79 402.799c20.333 9.145 34.636 30.851 34.636 56.18v6.094c0 9.487-7.691 17.178-17.178 17.178h-95.134v17.361h140.598v-26.901c0-36.333-27.565-66.224-62.922-69.912z" fill="#edb6a8"/><ellipse cx="406.418" cy="323.922" fill="#b07676" rx="34.876" ry="34.876" transform="matrix(.16 -.987 .987 .16 21.578 673.206)"/><ellipse cx="100.408" cy="323.922" fill="#b07676" rx="34.876" ry="34.876" transform="matrix(.383 -.924 .924 .383 -237.281 292.727)"/><path d="m283.132 410.112h-59.439c-73.86 0-133.736-59.876-133.736-133.736 0-73.86 59.876-133.736 133.736-133.736h59.439c73.861 0 133.736 59.876 133.736 133.736.001 73.86-59.875 133.736-133.736 133.736z" fill="#b07676"/><path d="m283.132 142.559h-17.15c59.879 0 108.421 48.542 108.421 108.421v9.208c0 59.88-48.542 108.422-108.421 108.422h-67.604c-57.303 0-104.217-44.456-108.149-100.759-.174 2.793-.273 5.607-.273 8.445 0 73.86 59.876 133.736 133.736 133.736h59.439c73.861 0 133.736-59.876 133.736-133.736.002-73.861-59.874-133.737-133.735-133.737z" fill="#a45775"/><path d="m381.191 148.135v-96.193c0-23.164-18.778-41.942-41.942-41.942-23.164 0-41.942 18.778-41.942 41.942v61.727c-3.7-.279-7.438-.422-11.209-.422h-65.368c-3.771 0-7.509.143-11.209.422v-61.726c0-23.164-18.778-41.943-41.943-41.943-23.164 0-41.942 18.778-41.942 41.942l-.711 95.03c-31.795 26.978-51.27 68.385-51.27 113.35 0 18.391 18.057 33.778 18.785 32.482 25.196-44.831 73.202-75.121 128.289-75.121h65.367c54.981 0 102.908 30.173 128.143 74.862 3.605 6.384 18.931-13.832 18.931-32.223.001-44.965-20.184-85.209-51.979-112.187z" fill="#fbf2a8"/><path d="m381.191 148.135v-96.193c0-23.164-18.778-41.942-41.942-41.942-8.948 0-17.234 2.811-24.044 7.585 7.967 6.363 13.076 16.153 13.076 27.142l-1.587 76.218c26.325 22.336 44.625 59.082 44.625 96.311 0 8.338-3.804 17.119-7.737 22.499 20.998 13.046 38.478 31.22 50.659 52.792 3.605 6.384 18.931-13.832 18.931-32.223-.001-44.967-20.186-85.211-51.981-112.189z" fill="#edb6a8"/><g fill="#f0c4db"><path d="m172.579 118.705c-8.556 3.688-18.092-2.585-18.092-11.902v-45.02c0-7.158 5.803-12.961 12.961-12.961 7.158 0 12.961 5.803 12.961 12.961v45.02c0 5.175-3.078 9.854-7.83 11.902z"/><path d="m344.785 118.705c-8.556 3.688-18.092-2.585-18.092-11.902v-45.02c0-7.158 5.803-12.961 12.961-12.961 7.158 0 12.961 5.803 12.961 12.961v45.02c0 5.175-3.078 9.854-7.83 11.902z"/><circle cx="253.413" cy="438.038" r="14.616"/><ellipse cx="253.413" cy="488.281" rx="14.616" ry="14.616" transform="matrix(.16 -.987 .987 .16 -269.155 660.208)"/></g></g><g><g fill="#440b29"><path d="m434.659 289.093c5.016-8.417 8.512-19.2 8.512-28.771 0-44.644-18.889-86.92-51.98-116.727v-91.653c0-28.64-23.301-51.942-51.943-51.942s-51.942 23.302-51.942 51.942v51.309c-.403-.003-.807-.005-1.209-.005h-65.367c-.402 0-.806.002-1.209.005v-51.309c0-28.64-23.302-51.942-51.944-51.942s-51.942 23.302-51.942 51.868l-.676 90.54c-32.665 29.486-51.304 72.188-51.304 117.914 0 10.39 4.391 20.212 9.754 27.784-10.85 8.199-17.878 21.2-17.878 35.816 0 24.745 20.132 44.876 44.877 44.876 4.137 0 8.141-.575 11.947-1.628 12.737 15.591 28.672 28.472 46.801 37.621-2.154 3.05-4.167 6.207-6.023 9.464-1.993-.798-4.058-1.487-6.197-2.039-25.634-6.621-51.569 7.669-57.813 31.851-3.061 11.852-1 24.226 5.802 34.843 6.651 10.382 17.078 17.847 29.361 21.018 4.243 1.096 8.493 1.618 12.662 1.618.447 0 .892-.012 1.337-.024.892 4.609 4.944 8.091 9.813 8.091 5.522 0 10-4.478 10-10v-28.472c0-21.999 7.496-42.279 20.062-58.428 7.097 2.377 14.438 4.218 21.976 5.466-14.191 13.859-23.024 33.176-23.024 54.532v30.186c0 3.314 2.687 6 6 6 3.314 0 6-2.686 6-6v-30.186c0-21.826 10.937-41.139 27.613-52.767 2.308.11 4.631.167 6.966.167h19.576c-6.244 3.547-10.472 10.247-10.472 17.927 0 11.368 9.248 20.616 20.616 20.616s20.616-9.248 20.616-20.616c0-7.68-4.229-14.38-10.472-17.927h19.575c2.329 0 4.645-.057 6.948-.167 16.685 11.624 27.632 30.935 27.632 52.767v30.186c0 3.314 2.686 6 6 6s6-2.686 6-6v-30.186c0-21.358-8.836-40.677-23.028-54.535 7.537-1.248 14.876-3.087 21.972-5.462 12.57 16.148 20.071 36.425 20.071 58.427v28.472c0 5.522 4.478 10 10 10 5.523 0 10-4.478 10-10v-28.472c0-24.685-7.803-47.578-21.064-66.355 18.132-9.149 34.077-22.021 46.816-37.613 3.804 1.052 7.805 1.626 11.939 1.626 24.745 0 44.876-20.131 44.876-44.876.002-14.049-6.494-26.599-16.633-34.83zm-305.372 191.469c-7.379-1.905-13.602-6.324-17.52-12.441-3.768-5.882-4.932-12.648-3.277-19.054 2.885-11.173 13.653-18.472 25.757-18.472 2.524 0 5.109.318 7.69.985.972.251 1.91.559 2.832.894-4.316 12.092-6.669 25.109-6.669 38.665v10.371c-2.88.111-5.846-.181-8.813-.948zm124.126-33.908c-4.751 0-8.616-3.865-8.616-8.616s3.865-8.616 8.616-8.616 8.616 3.865 8.616 8.616-3.865 8.616-8.616 8.616zm-122.018-292.056c2.22-1.883 3.508-4.64 3.53-7.551l.71-95.105c0-17.613 14.33-31.942 31.943-31.942s31.942 14.329 31.942 31.942v61.727c0 2.783 1.16 5.44 3.2 7.332 2.04 1.894 4.768 2.849 7.553 2.64 3.468-.262 6.985-.395 10.456-.395h65.367c3.471 0 6.988.133 10.456.395 2.785.21 5.513-.748 7.553-2.64s3.2-4.549 3.2-7.332v-61.727c0-17.613 14.329-31.942 31.942-31.942s31.943 14.329 31.943 31.942v96.192c0 2.937 1.291 5.725 3.53 7.625 30.791 26.127 48.45 64.238 48.45 104.562 0 6.695-2.777 13.728-5.573 18.52-28.89-44.14-78.374-71.157-131.502-71.157h-65.365c-52.522 0-101.44 26.379-130.468 69.596-3.329-4.488-6.606-10.653-6.606-16.958-.001-41.448 17.4-79.983 47.739-105.724zm-55.864 169.324c0-6.972 2.899-13.267 7.536-17.786 3.221 15.238 8.862 29.592 16.503 42.641-13.329-.445-24.039-11.42-24.039-24.855zm207.601 76.189h-59.438c-61.258 0-112.247-44.751-122.028-103.275 24.398-42.676 69.918-69.151 119.064-69.151h65.367c49.123 0 94.672 26.481 119.066 69.15-9.78 58.525-60.772 103.276-122.031 103.276zm124.126-51.335c7.642-13.052 13.281-27.41 16.502-42.652 4.64 4.52 7.534 10.823 7.534 17.797 0 13.436-10.707 24.41-24.036 24.855z"/><circle cx="173.625" cy="331.595" r="14.93"/><ellipse cx="333.201" cy="331.595" rx="14.93" ry="14.93" transform="matrix(.383 -.924 .924 .383 -100.663 512.536)"/><path d="m188.449 282.062c-.687-.351-6.929-3.421-14.824-3.421s-14.138 3.07-14.823 3.421c-2.951 1.507-4.122 5.121-2.615 8.072s5.121 4.123 8.072 2.615c.041-.022 4.354-2.108 9.366-2.108 5.061 0 9.354 2.102 9.367 2.108.874.446 1.806.657 2.724.657 2.183 0 4.288-1.195 5.349-3.272 1.506-2.95.335-6.565-2.616-8.072z"/><path d="m348.024 282.062c-.686-.351-6.929-3.421-14.823-3.421-7.896 0-14.138 3.07-14.824 3.421-2.939 1.501-4.1 5.086-2.615 8.034 1.485 2.949 5.086 4.137 8.043 2.668.043-.021 4.335-2.123 9.396-2.123s9.353 2.102 9.366 2.108c.874.446 1.806.657 2.724.657 2.183 0 4.288-1.195 5.349-3.272 1.507-2.95.336-6.565-2.616-8.072z"/><path d="m268.343 325.595c-3.313 0-6 2.686-6 6 0 4.924-4.006 8.93-8.93 8.93s-8.93-4.006-8.93-8.93c0-3.314-2.686-6-6-6s-6 2.686-6 6c0 11.541 9.389 20.93 20.93 20.93s20.93-9.389 20.93-20.93c0-3.314-2.687-6-6-6z"/><path d="m157.027 122.644c3.149 2.072 6.768 3.127 10.412 3.127 2.543 0 5.099-.514 7.515-1.556h.001c6.958-3 11.454-9.834 11.454-17.411v-45.021c0-10.455-8.506-18.961-18.961-18.961s-18.961 8.506-18.961 18.961v45.021c0 6.4 3.193 12.322 8.54 15.84zm3.46-60.861c0-3.838 3.123-6.961 6.961-6.961s6.961 3.123 6.961 6.961v45.021c0 2.781-1.65 5.29-4.206 6.392h.001c-2.192.943-4.589.734-6.582-.577-1.992-1.311-3.135-3.43-3.135-5.814z"/><path d="m329.233 122.644c3.149 2.072 6.768 3.127 10.412 3.127 2.543 0 5.099-.514 7.515-1.556h.001c6.958-3 11.454-9.834 11.454-17.411v-45.021c0-10.455-8.506-18.961-18.961-18.961s-18.961 8.506-18.961 18.961v45.021c0 6.4 3.193 12.322 8.54 15.84zm3.46-60.861c0-3.838 3.123-6.961 6.961-6.961s6.961 3.123 6.961 6.961v45.021c0 2.781-1.65 5.29-4.206 6.392h.001c-2.192.943-4.589.734-6.582-.577-1.992-1.311-3.135-3.43-3.135-5.814z"/><path d="m253.413 467.665c-11.368 0-20.616 9.248-20.616 20.616s9.248 20.616 20.616 20.616 20.616-9.248 20.616-20.616-9.248-20.616-20.616-20.616zm0 29.232c-4.751 0-8.616-3.865-8.616-8.616s3.865-8.616 8.616-8.616 8.616 3.865 8.616 8.616-3.865 8.616-8.616 8.616z"/><path d="m328.735 155.543c-3.313 0-6 2.687-6 6v8.78c0 3.314 2.687 6 6 6 3.314 0 6-2.686 6-6v-8.78c0-3.313-2.686-6-6-6z"/><path d="m365.833 204.441c3.314 0 6-2.687 6-6v-8.781c0-3.313-2.686-6-6-6s-6 2.687-6 6v8.781c0 3.314 2.687 6 6 6z"/></g><path d="m150.734 182.554c-3.171 0-6.289-1.504-8.23-4.309-3.144-4.54-2.012-10.771 2.529-13.914 1.658-1.148 2.391-1.554 3.448-2.121.287-.154.634-.339 1.115-.609 4.815-2.699 10.911-.985 13.613 3.832 2.701 4.817.985 10.912-3.832 13.613-.625.351-1.074.592-1.447.791-.638.342-.704.378-1.513.938-1.735 1.202-3.719 1.779-5.683 1.779z" fill="#fff"/><path d="m121.013 218.317c-1.239 0-2.498-.231-3.719-.721-5.126-2.056-7.615-7.877-5.561-13.004 2.395-5.97 5.845-11.989 10.55-18.402 3.267-4.452 9.524-5.413 13.979-2.146 4.452 3.268 5.414 9.525 2.146 13.979-3.697 5.039-6.351 9.623-8.11 14.014-1.567 3.904-5.319 6.28-9.285 6.28z" fill="#fff"/></g><g><path d="m475.379 71.073 8.494 23.883c.364 1.023 1.084 1.833 1.992 2.242l21.219 9.56c2.998 1.351 2.998 6.127 0 7.478l-21.219 9.56c-.909.409-1.629 1.22-1.992 2.242l-8.494 23.883c-1.2 3.374-5.444 3.374-6.644 0l-8.494-23.883c-.364-1.022-1.084-1.833-1.992-2.242l-21.219-9.56c-2.998-1.351-2.998-6.127 0-7.478l21.219-9.56c.909-.409 1.629-1.22 1.992-2.242l8.494-23.883c1.2-3.374 5.444-3.374 6.644 0z" fill="#fbf2a8"/><ellipse cx="18.827" cy="161.543" fill="#f7e266" rx="18.547" ry="18.547" transform="matrix(.189 -.982 .982 .189 -143.362 149.481)"/><circle cx="442.635" cy="20.044" fill="#f7e266" r="7.854"/><path d="m48.941 45.233 6.301 17.716c.27.758.804 1.36 1.478 1.663l15.74 7.092c2.224 1.002 2.224 4.545 0 5.547l-15.74 7.092c-.674.304-1.208.905-1.478 1.663l-6.301 17.716c-.89 2.503-4.038 2.503-4.928 0l-6.301-17.716c-.27-.759-.804-1.36-1.478-1.663l-15.74-7.092c-2.224-1.002-2.224-4.545 0-5.547l15.74-7.092c.674-.304 1.208-.905 1.478-1.663l6.301-17.716c.89-2.503 4.038-2.503 4.928 0z" fill="#fbf2a8"/></g></g></svg>