<svg id="Capa_1" enable-background="new 0 0 511.762 511.762" height="512" viewBox="0 0 511.762 511.762" width="512" xmlns="http://www.w3.org/2000/svg"><g><g><g><path d="m228.8 423.646h80v48h-80z" fill="#fff"/></g><g><path d="m148.8 111.646v112h-8c-17.673 0-32 14.327-32 32s14.327 32 32 32h8.404c4.164 71.366 63.186 128 135.596 128 61.856 0 112-50.144 112-112v-192z" fill="#fff"/></g><path d="m396.8 303.646s-.039-12.753-.028-8.109c.042 17.705-14.295 32.109-32 32.109h-127.972c-13.255 0-24-10.745-24-24v-152h-48v72h-22.625c-16.713 0-31.638 12.218-33.225 28.856-1.821 19.085 13.139 35.144 31.85 35.144h8.447c1.489 25.483 9.97 49.086 23.553 68.906v123.094h64v-26.764c0-9.984 9.036-17.521 18.852-15.693 9.467 1.763 19.208 2.692 29.148 2.692 8.202 0 16.195-.854 24-2.251v-24.57c50.321-10.988 88-55.797 88-109.414z" fill="#f5df4d"/><g><circle cx="148.8" cy="287.646" fill="#d4d5d5" r="16"/></g><g><path d="m211.843 334.7c-9.267-7.392-15.201-18.743-15.04-31.564.164-13.059-10.943-23.491-24.003-23.491h-24v8h.404c4.164 71.366 63.186 128 135.596 128 6.865 0 13.56-.686 20.08-1.871-37.976-6.829-69.263-32.749-83.591-67.512-1.929-4.68-5.488-8.404-9.446-11.562z" fill="#d4d5d5"/></g><g><path d="m348.8 18.959s-11.2 19.086-28.024 31.239c5.443-17.882-5.688-35.14-43.31-34.984-160.666.667-184.666 70.667-184.666 108.167s21 110 21 110l3.686.47c5.84-6.245 14.089-10.205 23.314-10.205h24v-61.471c83.69 2.774 229.678-40.054 229.678-115.93 0-46.962-37.678-43.855-45.678-27.286z" fill="#d4d5d5"/></g><g><path d="m212.8 20.076v-.015c-42.168 6.788-69.916 20.06-88 35.54v-.041c-26.009 22.256-32 49.091-32 67.82 0 37.5 21 110 21 110l3.686.47c5.84-6.245 14.089-10.205 23.314-10.205h24v-61.471-2.529h-8c-17.673 0-32-14.327-32-32v-9.413c0-22.7 11.735-44.176 31.575-55.207 9.645-5.362 20.978-9.864 33.913-13.455 13.268-3.684 22.512-15.724 22.512-29.494z" fill="#b3b5b6"/></g><g><path d="m249.976 325.212c0 21.815 24.009 39.5 53.625 39.5s53.625-17.685 53.625-39.5z" fill="#fff"/></g><g><path d="m367.013 304.608c-17.151 1.199-33.819.224-49.615-2.593l-21.849.444c-18.412 3.364-37.917 4.234-57.896 2.149-2.125-1.501 14.482 43.522 69.597 23.458 55.58 17.186 61.32-25.089 59.763-23.458z" fill="#d4d5d5"/></g><g><path d="m326.848 451.787c-16.171 9.242-48.939 14.049-86.311 11.342-35.918-2.602-66.647-11.459-82.011-22.332l-8.625 19.733c-2.05 4.999-1.221 10.781 2.356 14.831 11.724 13.274 46.525 24.743 88.28 27.768 47.12 3.413 87.027-5.092 95.416-19.412 1.397-2.386 1.45-5.331.466-7.915z" fill="#d4d5d5"/></g><g><path d="m236.653 462.758c-34.218-2.944-63.329-11.488-78.127-21.961l-8.625 19.733c-2.05 4.999-1.221 10.781 2.356 14.831 11.356 12.858 44.389 23.998 84.396 27.435z" fill="#b3b5b6"/></g><path d="m393.266 58.172c.793-3.842 1.211-7.778 1.211-11.81 0-46.961-37.678-43.854-45.678-27.286 0 0 14.256 12.851 16 25.353 2 14.333-3.133 26.97-18.25 39.583-25.879 21.589-68.051 38.851-110.43 47.484-13.501 2.75-23.32 14.392-23.32 28.17 50.815-6.485 108.525-24.4 145.006-52.055 3.923 16.44 19.778 72.826 54.994 84.387.001.001 23.93-88.082-19.533-133.826z" fill="#f5df4d"/></g><g fill="#939597"><path d="m318.086 289.145c-3.386 3.456-8.016 5.359-13.036 5.359-5.021 0-9.65-1.903-13.036-5.358-3.092-3.156-8.157-3.208-11.313-.115-2.014 1.974-2.758 4.75-2.232 7.322-13.193 1.334-26.583 1.328-39.982-.041-2.433-.406-4.993.3-6.867 2.059-4.905 4.602-1.918 11.154 1.649 16.957 1.51 2.456 4.217 6.308 8.306 10.283.262 12.858 6.952 24.762 18.936 33.59 11.493 8.466 26.645 13.128 42.664 13.128s31.17-4.663 42.663-13.128c11.724-8.636 18.381-20.217 18.91-32.755 3.24-3.5 5.365-7.048 6.686-9.755 3.149-6.454 5.678-15-.162-19.066-1.823-1.269-3.989-1.695-6.032-1.326-11.236.741-22.449.503-33.496-.666.262-2.359-.518-4.81-2.344-6.6-3.155-3.094-8.22-3.044-11.314.112zm-14.911 67.183c-18.375 0-34.236-7.542-41.459-18.375 5.349 1.8 11.498 2.927 18.526 2.927 7.814-.001 16.716-1.393 26.784-4.791 9.212 2.634 17.185 3.731 24.087 3.73 4.984 0 9.4-.578 13.32-1.56-7.316 10.669-23.056 18.069-41.258 18.069zm52.111-43.624c-1.499 2.201-3.566 4.477-6.369 6.354-8.862 5.938-22.6 6.277-39.729.98-1.668-.515-3.459-.472-5.1.126-16.714 6.084-30.949 6.249-42.31.49-4.133-2.095-7.425-4.773-9.966-7.419 15.053.49 31.302-.837 45.971-3.513 2.373.509 4.808.78 7.267.78 3.169 0 6.298-.447 9.303-1.284 12.973 2.306 27.596 3.68 40.933 3.486z"/><path d="m237.817 253.634c1.53-2.149 4.796-5.753 9.483-5.753s7.953 3.604 9.483 5.753c1.561 2.192 4.023 3.361 6.524 3.361 1.605 0 3.226-.482 4.633-1.483 3.6-2.562 4.44-7.558 1.877-11.157-5.644-7.927-13.851-12.474-22.517-12.474s-16.873 4.546-22.517 12.474c-2.562 3.6-1.722 8.595 1.877 11.157 3.6 2.562 8.595 1.721 11.157-1.878z"/><path d="m338.661 255.512c3.599 2.562 8.594 1.721 11.157-1.877 1.53-2.149 4.796-5.753 9.483-5.753s7.953 3.604 9.483 5.753c1.561 2.192 4.023 3.361 6.524 3.361 1.605 0 3.226-.482 4.633-1.483 3.6-2.562 4.44-7.558 1.877-11.157-5.644-7.927-13.851-12.474-22.517-12.474s-16.873 4.546-22.517 12.474c-2.563 3.598-1.723 8.593 1.877 11.156z"/><path d="m226.901 223.025c.197-.099 20.086-9.988 53.637-15.24 4.365-.683 7.35-4.776 6.667-9.141s-4.772-7.349-9.141-6.667c-36.007 5.636-57.467 16.308-58.363 16.76-3.945 1.988-5.532 6.799-3.543 10.744 1.407 2.791 4.225 4.401 7.15 4.401 1.209.001 2.438-.275 3.593-.857z"/><path d="m401.736 56.306c.489-3.275.742-6.586.742-9.936 0-12.883-2.599-23.461-7.723-31.438-4.765-7.417-11.534-12.31-19.577-14.15-13.566-3.104-28.003 3.269-33.582 14.824-1.921 3.979-.253 8.762 3.726 10.683 3.978 1.921 8.762.253 10.683-3.726 2.048-4.242 8.807-7.739 15.605-6.184 9.449 2.162 14.869 13.093 14.869 29.991 0 18.006-9.601 35.145-28.535 50.939-51.255 42.758-159.916 64.908-215.708 54.74-4.351-.792-8.513 2.089-9.305 6.436s2.089 8.512 6.436 9.305c5.365.978 11.215 1.67 17.435 2.104v14.126c-17.802.088-31.999.799-45.806 6.268-5.121-22.301-10.194-48.901-10.194-66.782 0-16.794 5.08-41.15 29.278-61.812 29.473-25.167 79.073-38.071 147.42-38.354 18.466-.078 31.332 4.494 35.272 12.542 3.025 6.177.93 14.848-5.604 23.192-2.724 3.479-2.112 8.507 1.367 11.231 3.478 2.723 8.507 2.111 11.23-1.367 10.405-13.289 13.162-28.277 7.376-40.093-4.84-9.885-17.352-21.649-49.708-21.505-72.238.3-125.311 14.493-157.745 42.187-30.355 25.918-34.888 57.476-34.888 73.979 0 37.348 19.677 106.659 21.365 112.528-3.405 5.882-5.365 12.7-5.365 19.972 0 16.318 9.857 30.768 24.56 36.905 2.051 9.359 9.576 16.687 19.039 18.448 3.89 17.586 10.91 33.831 20.401 48.196v59.741c-6.16 3.618-9.115 7.67-10.404 11.28-.1.186-.198.373-.284.57l-11.395 26.071c-.024.055-.048.111-.071.167-3.217 7.841-1.741 16.933 3.761 23.162 13.564 15.358 50.343 27.311 93.698 30.451 7.061.511 14.077.764 20.936.764 15.82 0 30.794-1.345 43.491-3.964 20.127-4.152 33.071-10.931 38.469-20.146 2.572-4.389 2.951-9.785 1.042-14.804-.015-.039-.03-.078-.045-.116l-12.334-30.949c-1.618-5.756-6.589-10.994-14.863-15.639v-6.477c50.682-14.039 88-60.571 88-115.661v-106.834c3.545 1.724 7.737 4.137 11.643 1.958 2.043-1.045 3.539-2.917 4.107-5.141.239-.936 5.862-23.227 6.373-51.336.682-37.519-7.791-66.551-25.188-86.346zm-244.936 143.713v15.987h-16c-8.02 0-15.49 2.381-21.757 6.461-1.159-4.293-2.645-9.931-4.269-16.429 11.857-5.273 24.105-5.937 42.026-6.019zm-8 95.752c-4.411 0-8-3.589-8-8s3.589-8 8-8 8 3.589 8 8-3.589 8-8 8zm173.572 165.917 6.731 16.889c.188.52.135.904.093.987-4.951 8.451-36.323 19.213-87.934 15.476-44.561-3.228-74.19-15.266-82.862-25.085-1.485-1.681-1.866-4.198-.978-6.43l5.236-11.979c4.555 3.547 10.798 6.803 18.719 9.748 15.748 5.854 36.797 9.945 59.271 11.519 6.645.465 13.195.695 19.553.695 15.145 0 29.187-1.305 40.745-3.843 9.127-2.005 16.274-4.672 21.426-7.977zm-141.572-17.932v-64.14c26.355 27.568 63.432 44.39 104 44.39 5.425 0 10.764-.369 16-1.069v30.319c-1.706.438-3.577.864-5.641 1.27-14.66 2.884-33.621 3.709-53.394 2.325-19.771-1.384-38.434-4.844-52.549-9.741-3.299-1.145-6.077-2.273-8.416-3.354zm226.299-263.663c-20.127-13.093-28.518-38.524-28.672-39.001-1.332-4.207-5.82-6.542-10.031-5.216-4.214 1.328-6.554 5.82-5.227 10.034.39 1.238 7.627 23.565 25.63 40.137v20.064c-11.316-4.35-30.094-10.594-52.238-14.13-4.36-.698-8.465 2.275-9.162 6.638s2.275 8.465 6.638 9.162c25.068 4.003 45.914 11.892 54.762 15.582v80.644c0 57.346-46.654 104-104 104-59.936 0-111.297-41.312-124.558-99.143 7.475-4.071 12.558-11.999 12.558-21.092 0-13.234-10.766-24-24-24-9.032 0-16.912 5.017-21.006 12.409-6.708-4.326-10.994-11.84-10.994-20.173 0-13.234 10.767-24 24-24h16v8c0 4.418 3.582 8 8 8s8-3.582 8-8v-69.578c24.448-.013 52.947-3.454 81.402-10.06 47.468-11.02 87.951-29.051 113.991-50.774 12.876-10.741 22.156-22.218 27.79-34.322 20.951 33.096 14.932 83.597 11.117 104.819z"/></g></g></svg>