<svg id="Capa_1" enable-background="new 0 0 512.001 512.001" height="512" viewBox="0 0 512.001 512.001" width="512" xmlns="http://www.w3.org/2000/svg"><g><g><g><path d="m308.902 480-39.567 21.667-80.433-21.667v-136h120z" fill="#fff"/></g><g><path d="m268.902 504 40-72 24.501 24.501c3.758 3.758 2.874 10.069-1.772 12.65z" fill="#d4d5d5"/></g><g><path d="m268.902 8c-72 0-100.005 49.012-100.005 49.012s-108.995-14.012-91.995 270.988c0 0 42 31 112 48l224-152s24-40 24-72c0-112.649-104.26-144-168-144z" fill="#d4d5d5"/></g><g><path d="m260.902 96s-7.667-10-47.667-18c-26.667-5.333-16.333-30-16.333-30l-31.422 8.925c-18.225.471-103.785 16.126-88.578 271.075 0 0 42 31 112 48l28.564-19.382z" fill="#b3b5b6"/></g><g><path d="m244.904 91.522s-43.903 90.812-88.002 115.145v65.333c0 75.111 60.889 136 136 136 61.856 0 112-50.144 112-112v-80s-14.918-89.512-159.998-124.478z" fill="#fff"/></g><path d="m436.902 152c0-112.649-104.261-144-168-144 0 13.024 9.71 23.938 22.638 25.519 41.287 5.05 121.362 26.683 121.362 118.481 0 20.609-14.855 50.047-20.59 59.668-.012.02-.021.041-.033.061-13.464-7.096-29.289-8.425-43.812-3.584l-7.155 2.385c-9.8 3.267-16.411 12.438-16.411 22.769v7.714c0 3.475.741 6.819 1.815 10.043 2.583-6.377 7.787-11.527 14.596-13.796l7.155-2.385c15.509-5.169 32.502-3.304 46.521 5.107l16.369 9.822c.91-3.37 1.545-6.82 1.545-10.371v-15.433s24-40 24-72z" fill="#f5df4d"/><g><circle cx="364.902" cy="232" fill="#d4d5d5" r="16"/></g><g><circle cx="372.902" cy="312" fill="#f5df4d" r="8"/></g><path d="m327.218 402.595c-41.3-11.9-74.545-42.793-89.594-82.631 4.08-.365 7.279-3.789 7.279-7.963 0-4.418-3.582-8-8-8-1.436 0-2.781.383-3.946 1.046-2.645-10.577-4.054-21.645-4.054-33.046v-6.933c0-20.874 20.183-36.776 40.034-30.326.134.043.267.087.4.132l7.155 2.385c6.809 2.27 12.013 7.419 14.596 13.796 1.074-3.224 1.815-6.568 1.815-10.043v-7.714c0-10.33-6.61-19.501-16.41-22.768l-7.156-2.386c-13.329-4.443-27.744-3.655-40.435 1.984v-29.78c0-7.955 2.294-15.764 6.817-22.307 12.024-17.393 23.527-37.459 32.663-59.943-.018-.039-.026-.056-.043-.095-7.423-2.312-15.192-4.496-23.435-6.482 0 0-24.002 68.479-88.002 115.145v9.334h-6.624c-16.713 0-31.638 12.218-33.225 28.856-1.821 19.086 13.139 35.144 31.849 35.144h8.404c1.761 30.189 13.341 57.74 31.596 79.485v88.515l56 40v-43.064c0-10.005 9.072-17.544 18.903-15.684 9.448 1.788 19.167 2.748 29.097 2.748 5.422 0 10.742-.407 16-1.027v-24.139c6.287-.911 12.407-2.338 18.316-4.239z" fill="#f5df4d"/><g><path d="m268.902 504-80-80-24.993 31.241c-3.432 4.29-1.618 10.684 3.556 12.531z" fill="#b3b5b6"/></g><g><circle cx="252.902" cy="232" fill="#d4d5d5" r="16"/></g></g><g fill="#939597"><path d="m381.137 31.031c-43.486-28.008-92.976-31.031-112.234-31.031-60.046 0-91.542 32.381-102.297 46.303-1.259 1.629-3.128 2.652-5.264 2.88-14.258 1.522-41.407 10.022-63.034 49.848-25.755 47.429-35.644 124.625-29.391 229.446.141 2.368 1.326 4.551 3.235 5.96 1.717 1.267 41.679 30.38 108.751 47.8v38.957l-23.24 29.05c-3.224 4.029-4.307 9.399-2.898 14.363s5.151 8.964 10.011 10.7l101.438 36.228c.883.315 1.792.467 2.689.467 1.365 0 2.701-.354 3.884-1.011l.003.003 62.729-34.849c4.429-2.46 7.373-6.75 8.075-11.768.703-5.018-.949-9.95-4.532-13.533l-22.157-22.157v-15.099c54.708-11.149 96-59.636 96-117.587v-30.012c5.204-7.803 8-16.965 8-26.557v-13.276c4.964-8.716 24-44.099 24-74.155-.002-52.272-22.052-94.103-63.768-120.97zm-296.474 292.602c-1.817-32.341-2.057-61.847-.748-88.488 6.826-3.846 26.004-15.325 49.49-35.206 25.934-21.953 62.077-58.667 88.694-109.882 4.082.627 8.753 1.436 13.895 2.47-28.605 65.133-79.602 107.452-89.956 115.586-20.722 1.476-37.135 18.794-37.135 39.886 0 22.056 17.944 40 40 40h1.054c3.103 28.033 14.219 53.552 30.946 74.302v3.375c-51.627-14.046-86.209-35.368-96.24-42.043zm256.111-126.034c6.177.099 11.853.49 17.004 1.061-6.422.801-12.787 2.212-18.995 4.281-8.221 2.741-14.744 8.576-18.461 15.955-3.398-1.846-7.288-2.896-11.42-2.896-4.131 0-8.022 1.049-11.42 2.896-3.717-7.379-10.24-13.214-18.461-15.955-5.07-1.69-10.246-2.935-15.471-3.779 6.18-.838 13.209-1.437 21.056-1.562 4.417-.071 7.941-3.709 7.871-8.127-.07-4.374-3.638-7.872-7.997-7.872-.043 0-.087 0-.131.001-37.153.596-58.128 10.799-59.003 11.233-3.309 1.642-4.963 5.263-4.27 8.721-3.399.951-6.762 2.063-10.062 3.384l-7.652 3.06h-32.433c21.52-19.55 58.107-58.183 80.934-111.85 10.225 2.612 21.476 6.032 33.119 10.516 24.899 9.589 46.546 22.055 64.338 37.051 15.29 12.888 27.756 27.708 37.259 44.243-10.007-2.885-25.39-6.036-45.549-6.359-4.453-.07-8.057 3.453-8.127 7.871-.07 4.417 3.454 8.056 7.871 8.127zm-110.495 42.401h-1.376c-4.418 0-8 3.582-8 8s3.582 8 8 8h40c4.418 0 8-3.582 8-8 0-2.269-.949-4.312-2.466-5.769 1.006-3.453-.416-7.273-3.669-9.155-3.824-2.213-8.718-.906-10.931 2.918-1.429 2.47-4.086 4.005-6.934 4.005-4.411 0-8-3.589-8-8s3.589-8 8-8c4.418 0 8-3.582 8-8 0-.366-.033-.724-.081-1.077 4.438.707 8.835 1.761 13.141 3.196 6.544 2.182 10.94 8.281 10.94 15.179v7.714c0 7.144-3.147 13.864-8.635 18.437l-14.036 11.697c-9.599 8-23.501 7.369-32.335-1.466l-7.621-7.621c-6.044-6.044-9.373-14.08-9.373-22.627v-18.015l4.054-1.622c6.257-2.503 12.761-4.195 19.355-5.112-4.561 4.372-7.409 10.516-7.409 17.317 0 2.806.488 5.497 1.376 8.001zm-60.122 220.239 19.409-24.262 48.523 48.523zm96.903 30.605-70.157-70.157v-41.504c25.536 22.927 59.25 36.818 96 36.818 2.689 0 5.355-.098 8-.273v14.2zm60.686-28.687-38.252 21.251 21.251-38.252zm69.157-166.157c0 57.346-46.654 104-104 104-67.616 0-123.668-52.915-127.609-120.466-.247-4.23-3.749-7.534-7.986-7.534h-8.404c-13.234 0-24-10.767-24-24s10.765-23.999 23.999-24h.008.006 47.987v15.431c0 12.822 4.993 24.875 14.059 33.942l7.621 7.62c7.821 7.821 18.023 11.784 28.268 11.784 9.044 0 18.123-3.089 25.624-9.34l14.035-11.696c9.147-7.622 14.393-18.822 14.393-30.729v-1.012c0-4.411 3.589-8 8-8s8 3.589 8 8v1.012c0 11.906 5.246 23.106 14.392 30.729l14.036 11.697c7.502 6.252 16.578 9.34 25.623 9.34 9.262 0 18.484-3.251 25.949-9.652v12.874zm8-56.569c0 8.548-3.329 16.583-9.373 22.627l-7.621 7.621c-8.836 8.835-22.737 9.465-32.335 1.466l-14.036-11.697c-5.488-4.573-8.635-11.293-8.635-18.437v-7.714c0-6.898 4.396-12.998 10.94-15.179.642-.214 1.29-.4 1.935-.598-3.057 4.027-4.875 9.044-4.875 14.479 0 3.701.843 7.208 2.345 10.341-1.449 1.448-2.345 3.449-2.345 5.659 0 4.418 3.582 8 8 8h32c4.418 0 8-3.582 8-8 0-2.269-.949-4.312-2.466-5.769 1.006-3.453-.416-7.273-3.669-9.155-3.824-2.213-8.718-.906-10.931 2.918-1.429 2.47-4.086 4.005-6.934 4.005-4.411 0-8-3.589-8-8s3.589-8 8-8c4.418 0 8-3.582 8-8 0-.723-.105-1.42-.284-2.086 9.614.297 19.177 2.26 28.23 5.881l4.055 1.622v18.016zm8.078-32.647c-10.527-29.012-29.311-55.04-53.349-75.301-19.155-16.146-42.337-29.52-68.9-39.749-44.977-17.32-83.76-19.632-85.389-19.722-4.396-.244-8.185 3.135-8.429 7.546-.244 4.412 3.135 8.186 7.547 8.429.025.001.239.015.6.041-25.013 45.954-57.828 79.188-81.624 99.385-15.525 13.177-29.219 22.576-38.259 28.293 3.833-46.261 12.913-82.748 27.19-109.04 18.139-33.402 39.533-40.385 50.671-41.574 6.514-.696 12.277-3.895 16.228-9.008.188-.243.394-.502.596-.757 7.36-.803 22.629-.515 41.392 1.944 16.733 2.192 42.605 6.938 70.834 17.091 43.811 15.757 101.651 47.893 129.769 111.552-2.823 7.861-6.062 15.099-8.877 20.87zm-115.475-147.478c-29.572-10.637-56.657-15.604-74.171-17.899-10.325-1.353-19.333-2.063-26.829-2.341 14.895-11.479 38.351-23.066 72.397-23.066 37.161 0 75.879 10.647 103.57 28.482 37.444 24.116 56.43 60.29 56.43 107.518 0 3.408-.315 6.936-.854 10.506-32.406-57.678-87.777-87.819-130.543-103.2z"/><path d="m311.569 304c8.183 0 15.815-2.948 21.49-8.302 3.214-3.032 3.361-8.095.33-11.309-3.033-3.213-8.096-3.362-11.309-.33-2.654 2.504-6.485 3.94-10.51 3.94s-7.856-1.437-10.51-3.94c-3.214-3.031-8.277-2.885-11.309.33-3.032 3.214-2.884 8.277.33 11.309 5.673 5.354 13.305 8.302 21.488 8.302z"/><path d="m348.903 311.468h-88c-3.312 0-6.282 2.041-7.469 5.134s-.345 6.597 2.117 8.812c.292.263 7.26 6.505 17.025 12.783 13.698 8.806 25.919 13.271 36.326 13.271 24.958 0 45.455-25.982 46.315-27.088 1.876-2.412 2.214-5.682.872-8.426-1.342-2.746-4.131-4.486-7.186-4.486zm-40 24c-7.098 0-15.552-3.584-23.201-8h43.281c-6.001 4.379-13.131 8-20.08 8z"/><path d="m314.875 359.189c-2.054.538-4.063.811-5.972.811-1.88 0-3.963-.263-6.19-.78-4.307-1.001-8.604 1.679-9.603 5.982-1 4.304 1.679 8.603 5.982 9.603 3.413.793 6.714 1.195 9.811 1.195 3.276 0 6.649-.448 10.026-1.333 4.274-1.119 6.832-5.492 5.712-9.766s-5.489-6.831-9.766-5.712z"/></g></g></svg>