<svg id="Capa_1" enable-background="new 0 0 512 512" height="512" viewBox="0 0 512 512" width="512" xmlns="http://www.w3.org/2000/svg"><g><g><path d="m297.969 67.15-159.481 41.969v83.938c-18.543 0-33.575 15.032-33.575 33.575s15.032 33.575 33.575 33.575h.424c1.848 31.675 13.998 60.582 33.151 83.397v86.321c0 7.745-1.531 15.414-4.505 22.564l-6.459 15.529c-1.683 4.046-1.081 8.738 1.788 12.051 9.488 10.958 38.153 20.446 72.578 22.939 38.667 2.801 71.417-4.178 78.301-15.929 1.147-1.958 1.19-4.374.383-6.495l-12.128-33.316c-2.679-7.362-4.05-15.135-4.05-22.969v-30.991c56.947-8.147 100.725-57.114 100.725-116.314v-167.875z" fill="#fff"/><g><path d="m172.062 421.531v-161.324h-50.362c0 33.575-25.181 100.725-25.181 159.481l36.845-15.791-3.27 32.578z" fill="#b3b5b6"/></g><g><path d="m222.425 268.6v-25.133c0-9.279 7.508-16.809 16.787-16.835 17.201 0 31.944 10.371 38.426 25.181 3.432-7.842 4.631-16.879 2.435-26.408-3.534-15.335-15.906-27.707-31.24-31.24-9.529-2.196-18.566-.997-26.408 2.435 0-6.593 2.808-12.828 7.682-17.267 32.992-30.047 69.743-68.423 87.678-103.925l-19.816-8.257-159.481 41.969v83.938c-22.238 0-39.426 21.619-31.693 44.987 4.449 13.444 17.533 22.163 31.693 22.163h.424c1.848 31.675 13.998 60.582 33.151 83.397v86.321c0 7.745-1.531 15.415-4.506 22.566l-6.459 15.528c-1.65 3.968-1.139 8.592 1.636 11.873 8.903 10.529 35.595 19.657 68.085 22.656v-59.379c0-15.191 13.339-26.908 28.4-24.92 7.188.949 14.519 1.44 21.963 1.44 5.689 0 11.271-.427 16.788-1.078v-25.302l-2.498-.208c-43.569-24.428-73.047-71-73.047-124.502z" fill="#f5df4d"/><g><path d="m356.725 226.632c17.2 0 31.944 10.371 38.426 25.181 2.253-5.147 3.543-10.809 3.543-16.788 0-23.179-18.79-41.969-41.969-41.969s-41.969 18.79-41.969 41.969c0 5.978 1.291 11.64 3.543 16.788 6.482-14.81 21.226-25.181 38.426-25.181z" fill="#f5df4d"/></g><g><path d="m306.363 8.394h-75.544c-69.536 0-125.906 56.37-125.906 125.906v92.331c0-18.543 15.032-33.575 33.575-33.575h33.575s100.725-67.15 124.857-132.202l1.049 31.477 117.513 67.15v-41.969c-.001-60.264-48.855-109.118-109.119-109.118z" fill="#d4d5d5"/></g><g><g><path d="m341.309 14.214c15.442 18.994 21.901 43.607 17.642 67.798-2.673 15.186-5.966 28.41-9.407 39.791l65.937 37.679v-41.969c0-48.027-31.069-88.717-74.172-103.299z" fill="#f5df4d"/></g></g><g><path d="m104.912 134.3v72.736l.004.01c18.726-12.486 56.62-41.004 99.27-80.65 17.024-15.825 26.633-38.113 26.633-61.356v-56.646c-69.537 0-125.907 56.37-125.907 125.906z" fill="#b3b5b6"/></g></g><g><g><path d="m277.514 321.236c-2.353 0-4.689-.98-6.349-2.898-3.037-3.504-2.656-8.804.848-11.841 6.123-5.303 15.136-8.345 24.735-8.345 9.603 0 18.615 3.041 24.735 8.349 3.5 3.037 3.877 8.336.84 11.841-3.033 3.5-8.332 3.877-11.841.84-6.123-5.312-21.337-5.316-27.476.004-1.586 1.374-3.545 2.05-5.492 2.05z" fill="#d4d5d5"/></g></g><g><circle cx="239.212" cy="209.844" fill="#d4d5d5" r="16.788"/></g><g><circle cx="356.725" cy="209.844" fill="#d4d5d5" r="16.788"/></g></g><g fill="#939597"><path d="m308.943 334.351c-4.126.764-8.2 1.152-12.11 1.152-3.79 0-7.922-.363-12.28-1.079-4.574-.752-8.892 2.347-9.644 6.921s2.347 8.892 6.921 9.644c5.255.864 10.303 1.302 15.003 1.302 4.934 0 10.037-.482 15.169-1.433 4.558-.845 7.568-5.225 6.724-9.783-.845-4.558-5.227-7.566-9.783-6.724z"/><path d="m342.542 304.904c-1.763-4.288-6.668-6.332-10.955-4.571-2.284.939-3.923 2.773-4.698 4.927-7.805 1.856-18.665 2.936-30.057 2.936-12.017 0-23.441-1.201-31.311-3.248-.818-2.166-2.515-3.989-4.849-4.881-4.333-1.655-9.183.514-10.837 4.844l-2.513 6.577c-1.655 4.331.514 9.182 4.844 10.837.986.377 1.999.555 2.995.555 1.943 0 3.808-.698 5.297-1.911 9.406 2.56 22.452 4.013 36.374 4.013 13.786 0 26.711-1.426 36.096-3.939 1.27.734 2.712 1.151 4.2 1.151 1.064 0 2.145-.203 3.189-.633 4.288-1.763 6.334-6.668 4.571-10.955z"/><path d="m306.363 0h-75.544c-74.054 0-134.3 60.247-134.3 134.3v92.331c0 13.701 6.601 25.889 16.789 33.553 0 .007-.001.015-.001.022 0 13.518-4.53 33.591-9.777 56.833-7.221 31.991-15.405 68.251-15.405 102.648 0 2.845 1.442 5.497 3.83 7.044 1.381.895 2.968 1.349 4.565 1.349 1.165 0 2.334-.242 3.43-.733l23.689-10.607-1.897 18.896c-.287 2.862.911 5.673 3.176 7.447 1.499 1.174 3.326 1.785 5.176 1.785.946 0 1.898-.16 2.815-.486l30.621-10.904c-.38 5.428-1.618 10.725-3.723 15.786l-6.459 15.529c-2.961 7.119-1.737 15.077 3.193 20.769 11.305 13.056 42.047 23.189 78.316 25.816 5.625.408 11.368.62 17.098.62 30.463-.001 60.458-6.009 69.052-20.678 2.38-4.063 2.747-9.037 1.01-13.658l-12.11-33.267c-2.352-6.461-3.544-13.223-3.544-20.098v-23.93c57.4-11.698 100.725-62.571 100.725-123.375v-100.654c0-.029 0-.058 0-.087v-11.899l4.229 2.417c2.598 1.485 5.789 1.474 8.378-.028 2.588-1.502 4.18-4.268 4.18-7.26v-41.969c0-64.796-52.716-117.512-117.512-117.512zm-170.457 294.517-10.335 102.965-20.256 9.07c1.703-28.722 8.499-58.831 14.59-85.816 4.629-20.508 8.711-38.633 9.858-53.054.393.083.791.155 1.189.227.943 8.865 2.656 17.502 5.07 25.846-.049.25-.09.504-.116.762zm27.763 121.093-23.899 8.511 9.846-98.098c4.12 7.275 8.826 14.175 14.053 20.638zm121.168 76.67c-13.625 2.811-30.944 3.648-48.767 2.357-34.648-2.509-59.85-11.992-66.839-20.062-.726-.838-.876-2.147-.383-3.333l3.821-9.187c15.013 8.021 37.495 13.807 61.632 15.707 5.761.454 11.434.676 16.955.676 19.888 0 37.738-2.883 50.216-8.134l4.73 12.993c-1.764 2.228-7.854 6.195-21.365 8.983zm9.295-42.141 1.6 4.397c-13.009 5.873-35.78 8.407-60.112 6.491-22.91-1.804-44.527-7.492-57.134-14.95 1.307-5.263 1.97-10.665 1.97-16.152v-65.602c26.751 23.973 62.062 38.578 100.726 38.578 2.821 0 5.618-.103 8.393-.286v21.685c0 8.838 1.533 17.532 4.557 25.839zm96.168-173.144c0 60.168-48.951 109.118-109.119 109.118-74.054 0-134.3-60.247-134.3-134.3 0-4.636-3.758-8.394-8.394-8.394-4.157 0-7.6 3.025-8.268 6.993-9.835-3.429-16.914-12.79-16.914-23.78 0-13.885 11.296-25.181 25.181-25.181h12.873c-3.875 2.98-6.153 4.668-6.31 4.783-3.732 2.749-4.529 8.003-1.781 11.736 1.646 2.235 4.188 3.417 6.766 3.417 1.728 0 3.472-.532 4.97-1.635.164-.121 9.506-7.02 23.474-18.3h23.235c-7.993 8.917-12.865 20.686-12.865 33.575 0 27.77 22.593 50.363 50.363 50.363 14.428 0 27.449-6.108 36.639-15.863-2.219 3.342-1.786 7.89 1.231 10.736 5.954 5.618 13.961 8.711 22.547 8.711 8.585 0 16.593-3.093 22.547-8.71 1.805-1.703 2.679-4.017 2.622-6.317 8.696 7.146 19.818 11.443 31.926 11.443 12.889 0 24.658-4.872 33.575-12.865v4.47zm-132.343-66.022c-4.011-2.32-9.147-.95-11.469 3.063-1.5 2.592-4.288 4.203-7.275 4.203-4.628 0-8.394-3.766-8.394-8.394s3.766-8.394 8.394-8.394c18.514 0 33.575 15.062 33.575 33.575s-15.062 33.574-33.576 33.574-33.575-15.062-33.575-33.575c0-8.582 3.24-16.418 8.556-22.36 1.408 12.561 12.088 22.36 25.019 22.36 8.96 0 17.316-4.822 21.807-12.584 2.321-4.012.95-9.147-3.062-11.468zm26.816 2.616c3.944-2.429 8.501-3.745 13.196-3.745 4.709 0 9.259 1.309 13.199 3.739-3.077 6.51-4.805 13.777-4.805 21.442 0 11.575 3.936 22.243 10.525 30.758-2.22-.124-4.484.62-6.23 2.267-2.785 2.628-6.805 4.134-11.028 4.134-4.224 0-8.243-1.507-11.028-4.134-3.117-2.942-7.891-3.025-11.108-.356 7.523-8.802 12.081-20.211 12.081-32.67 0-7.662-1.728-14.926-4.802-21.435zm71.952 55.011c-18.513 0-33.575-15.062-33.575-33.575 0-8.582 3.24-16.418 8.556-22.36 1.408 12.561 12.088 22.36 25.019 22.36 8.96 0 17.316-4.822 21.807-12.584 2.321-4.012.95-9.147-3.063-11.469-4.011-2.32-9.147-.95-11.469 3.063-1.5 2.592-4.288 4.203-7.275 4.203-4.628 0-8.394-3.766-8.394-8.394s3.766-8.394 8.394-8.394c18.514 0 33.575 15.062 33.575 33.575s-15.061 33.575-33.575 33.575zm50.363-123.583-46.198-26.399c-4.187-2.393-9.563-.784-11.714 3.618-1.963 4.016-.248 8.882 3.634 11.1l37.491 21.423v9.833c-11.009-3.166-29.267-7.147-52.638-7.628-4.616-.086-8.47 3.584-8.565 8.22-.095 4.635 3.585 8.469 8.22 8.565 25.444.523 44.385 5.613 52.984 8.417v2.497h-33.575c-14.069 0-26.802 5.806-35.949 15.139-6.75-4.378-14.636-6.745-22.807-6.745-8.146 0-16.052 2.368-22.807 6.745-9.147-9.333-21.88-15.138-35.949-15.138h-40.516c.794-.678 1.595-1.365 2.4-2.057 7.991-1.757 39.783-8.319 71.145-8.852 4.451-.076 8.266-3.518 8.484-7.965.24-4.898-3.665-8.878-8.518-8.825-16.836.27-33.531 2.139-47.05 4.169 27.266-25.3 48.339-48.467 63.021-69.25-4.795 18.626-10.278 31.506-13.683 38.486-1.946 3.988-.652 8.948 3.183 11.18 1.344.782 2.799 1.149 4.23 1.149 3.102 0 6.084-1.727 7.542-4.7 4.955-10.103 14.129-31.946 19.898-64.721 2.394-13.599-3.615-23.219-7.416-27.751-3.709-4.412-11.879-11.778-25.152-11.949-4.6-.059-8.646 3.403-8.855 7.999-.219 4.814 3.619 8.786 8.385 8.786 2.641 0 5.12.579 7.202 1.506 3.832 1.706 5.46 6.316 3.522 10.035-22.678 43.529-80.075 94.529-114.553 122.759h-24.177c9.129-7.274 18.982-15.387 29.008-24.079 3.468-3.007 4.158-8.311 1.253-11.865-3.008-3.679-8.439-4.125-12.003-1.032-19.925 17.287-39.191 32.273-53.257 42.788v-56.175c0-64.901 52.612-117.513 117.513-117.513h45.493c14.881 0 28.907 6.543 38.483 17.951 9.66 11.508 13.702 26.615 11.092 41.448-9.125 51.842-26.346 78.394-26.507 78.639-2.572 3.857-1.529 9.068 2.328 11.64 1.431.954 3.048 1.411 4.648 1.411 2.712 0 5.374-1.313 6.992-3.739.783-1.174 19.277-29.386 29.073-85.041 3.472-19.731-1.909-39.833-14.766-55.15-1.774-2.113-3.673-4.088-5.663-5.945 48.145 7.532 85.098 49.286 85.098 99.511v27.505z"/></g></g></svg>