<svg id="Capa_1" enable-background="new 0 0 511.99 511.99" height="512" viewBox="0 0 511.99 511.99" width="512" xmlns="http://www.w3.org/2000/svg"><g><g><path d="m305.732 104-141.859 96v56c0 28.653 8.869 55.231 24 77.155v130.845h136v-74.586c50.321-10.988 88-55.797 88-109.414v-176z" fill="#fff"/><g><path d="m123.944 232c0 42-26.141 104-26.141 104l46-18 2 42 78.809-44.667z" fill="#b3b5b6"/></g><g><g><path d="m187.945 320v144h64v-16.804c0-9.583 9.617-16.25 18.531-12.731 9.146 3.611 19.004 5.535 29.192 5.535 0 0 23.617-.097 24.277-.111v-29.222z" fill="#f5df4d"/></g></g><g><circle cx="259.945" cy="232" fill="#d4d5d5" r="16"/></g><g><circle cx="371.945" cy="232" fill="#d4d5d5" r="16"/></g><g><path d="m411.917 271.891c.042 17.705-14.295 32.109-32 32.109h-127.972c-13.255 0-24-10.745-24-24v-152h-48v72h-22.625c-16.713 0-31.638 12.218-33.225 28.856-1.821 19.085 13.139 35.144 31.85 35.144h8.447c4.168 71.361 63.147 128 135.553 128 61.855 0 112-50.144 112-112 0 0-.039-12.753-.028-8.109z" fill="#f5df4d"/></g><g><path d="m211.945 280c0-8.837-7.164-16-16-16h-31.553c3.366 57.626 42.494 105.612 95.553 121.964v-65.964h-8c-22.092 0-40-17.909-40-40z" fill="#d4d5d5"/></g><g><path d="m331.732 288h-46.802c-14.684 0-27.483 9.994-31.045 24.239l-8.545 34.179c-8.836 35.344 17.896 69.582 54.328 69.582h22.307c41.637 0 72.187-39.129 62.089-79.522l-6.06-24.239z" fill="#d4d5d5"/></g><g><path d="m384.064 336.478-6.06-24.239c-3.561-14.246-16.361-24.239-31.044-24.239h-27.729c14.684 0 27.483 9.993 31.044 24.239l6.06 24.239c9.875 39.501-19.155 77.691-59.378 79.364.907.043 1.791.159 2.711.159h22.307c41.637-.001 72.187-39.13 62.089-79.523z" fill="#f5df4d"/></g><g><path d="m341.992 451.906c-16.171 9.242-48.939 14.049-86.311 11.342-35.918-2.602-66.647-11.459-82.011-22.332l-8.625 19.733c-2.05 4.999-1.221 10.781 2.356 14.831 11.724 13.274 46.525 24.743 88.28 27.768 47.12 3.413 87.027-5.092 95.416-19.412 1.397-2.386 1.45-5.331.466-7.915z" fill="#d4d5d5"/></g><g><path d="m251.798 462.877c-34.218-2.944-63.329-11.488-78.127-21.961l-8.625 19.733c-2.05 4.999-1.221 10.781 2.356 14.831 11.356 12.858 44.389 23.998 84.396 27.435z" fill="#b3b5b6"/></g><g><path d="m413.303 96c-2.248-44.069-16.5-74.5-64.5-70l-14.191 83.333s71.333 68.667 103.858 61.333c0 .001-22.667-25.666-25.167-74.666z" fill="#f5df4d"/></g><g><path d="m302.47 8h-76.95c-94.718 0-98.718 93-151.718 152l48-8-32 96s61.685-28.137 118.325-71.731c26.509-6.097 92.461-24.72 129.675-65.603 26.927-29.58 36.668-102.666-35.332-102.666z" fill="#d4d5d5"/></g><g><path d="m238.937 39.352c-1.402-2.211-5.512-7.352-13.418-7.352-12.484 0-22.623-9.568-23.773-21.751-72.066 14.475-79.785 96.14-127.943 149.751l48-8-32 96s47.967-21.897 98.142-56.961v-46.956c0-14.62 5.778-28.675 15.992-39.136 18.309-18.751 29.312-35.812 35.906-49.751 3.524-7.446.539-13.559-.906-15.844z" fill="#b3b5b6"/></g></g><g fill="#939597"><path d="m444.325 165.371c-.208-.236-20.843-24.099-23.173-69.779-1.621-31.759-9.12-52.385-23.6-64.912-11.288-9.765-26.784-14.1-46.089-12.916-9.095-9.718-24.162-17.764-49.135-17.764h-76.949c-31.023 0-55.873 9.577-75.969 29.279-17.57 17.225-29.442 39.604-42.01 63.295-11.4 21.49-23.189 43.711-39.689 62.08-2.271 2.529-2.697 6.216-1.062 9.196 1.635 2.979 4.972 4.598 8.328 4.042l34.894-5.815-27.798 83.395c-1.007 3.02-.127 6.35 2.24 8.478 1.499 1.348 3.413 2.052 5.351 2.052 1.123 0 2.254-.236 3.316-.721.714-.325 9.058-4.149 22.132-10.972-4.047 38.89-24.592 88.04-24.822 88.585-1.249 2.963-.601 6.387 1.643 8.69 2.245 2.303 5.648 3.04 8.644 1.867l35.624-13.94 1.47 30.871c.132 2.779 1.698 5.289 4.136 6.63 1.201.66 2.528.99 3.854.99 1.367 0 2.732-.35 3.959-1.048l30.182-17.189v69.761c-6.159 3.618-9.114 7.668-10.403 11.278-.1.187-.199.375-.285.572l-11.395 26.071c-.024.056-.048.112-.071.168-3.216 7.842-1.74 16.934 3.762 23.162 13.565 15.358 50.344 27.311 93.698 30.451 7.061.512 14.077.764 20.936.764 15.82 0 30.794-1.345 43.49-3.964 20.128-4.152 33.071-10.93 38.47-20.146 2.571-4.389 2.95-9.785 1.041-14.804-.015-.039-.03-.078-.045-.116l-12.334-30.948c-1.618-5.757-6.589-10.995-14.864-15.64v-3.055c18.436-2.535 35.113-12.063 46.781-27.006 9.215-11.803 14.391-25.819 15.171-40.304 15.886-20.636 26.048-50.129 26.048-76.006v-103.349c5.353 1.451 10.364 2.194 15.006 2.193 1.492 0 2.949-.075 4.366-.226 2.976-.316 5.526-2.268 6.61-5.057 1.085-2.789.522-5.95-1.459-8.193zm-351.422-16.688c11.099-15.561 19.973-32.289 28.632-48.61 23.931-45.113 44.6-84.073 103.844-84.073 11.164 0 20.98 5.391 26.933 14.792 5.962 9.415 6.654 21.096 1.853 31.248-25.934 54.83-84.949 96.649-135.45 124.102l10.537-31.611c.887-2.662.315-5.594-1.507-7.727-1.534-1.794-3.764-2.803-6.082-2.803-.437 0-.877.036-1.315.109zm10.409 83.666 8.103-24.308c43.591-22.155 79.659-46.615 107.196-72.737 22.385-21.234 39.214-43.583 50.018-66.424 7.159-15.137 6.113-32.575-2.798-46.649-1.413-2.231-3.003-4.3-4.719-6.231h41.218c22.483 0 37.195 7.494 43.728 22.274 9.127 20.651-.03 51.32-14.31 67.007-26.972 29.631-65.148 46.122-91.448 54.585 23.024-20.874 40.373-41.763 51.861-62.488 2.142-3.864.746-8.733-3.119-10.875-3.866-2.143-8.733-.745-10.875 3.119-37.022 66.787-135.192 122.321-174.855 142.727zm49.72 114.247-1.38-28.977c-.123-2.574-1.477-4.931-3.639-6.333-2.163-1.401-4.867-1.677-7.267-.737l-29.064 11.373c5.472-15.062 12.957-37.969 17.082-60.476 7.126 6.549 16.622 10.554 27.038 10.554h1.055c2.387 21.499 9.579 42.125 21.045 60.433zm184.343 115.321 6.731 16.89c.188.52.135.904.093.986-4.951 8.451-36.326 19.214-87.935 15.476-44.56-3.228-74.189-15.266-82.862-25.085-1.485-1.681-1.865-4.198-.978-6.43l5.236-11.979c4.556 3.548 10.798 6.803 18.72 9.748 15.748 5.854 36.797 9.945 59.271 11.519 6.645.465 13.196.695 19.554.695 15.145 0 29.186-1.305 40.744-3.843 9.127-2.005 16.273-4.672 21.426-7.977zm-141.573-17.933v-88.524c13.062 13.699 28.708 24.725 46.097 32.388 1.962 4.036 4.347 7.909 7.181 11.538 12.214 15.643 30.6 24.614 50.446 24.614h16.276v29.485c-1.706.438-3.577.865-5.641 1.27-14.66 2.884-33.621 3.708-53.394 2.325-19.771-1.384-38.434-4.844-52.549-9.742-3.298-1.145-6.077-2.274-8.416-3.354zm168.554-319.255c-3.28-2.961-8.338-2.703-11.299.577-2.961 3.279-2.702 8.338.577 11.299.509.459 12.647 11.372 28.896 22.006 7.497 4.906 14.59 8.916 21.272 12.044v6.079c-14.032 1.201-44.092 5.466-68.231 20.508-3.75 2.336-4.896 7.271-2.559 11.021 1.517 2.434 4.126 3.771 6.797 3.77 1.444 0 2.907-.391 4.223-1.211 20.392-12.707 46.68-16.737 59.769-17.996v87.174c0 16.711-4.882 35.138-13.034 50.879l-5.145-20.58c-1.975-7.898-6.245-14.917-12.349-20.299-3.314-2.922-8.37-2.604-11.292.71s-2.604 8.37.71 11.292c3.661 3.228 6.223 7.438 7.407 12.178l6.06 24.239c1.164 4.655 1.7 9.359 1.674 14.021-.035.385-.033.771-.012 1.156-.312 11.803-4.362 23.276-11.851 32.868-10.683 13.686-26.772 21.536-44.136 21.536h-22.307c-14.884 0-28.674-6.729-37.834-18.46-9.16-11.732-12.343-26.742-8.733-41.182l8.545-34.179c1.313-5.254 4.407-9.959 8.709-13.248 3.51-2.683 4.181-7.704 1.498-11.214-2.682-3.51-7.703-4.182-11.214-1.498-7.171 5.481-12.327 13.322-14.516 22.079l-8.545 34.179c-1.862 7.447-2.353 15.005-1.567 22.382-15.86-9.186-29.644-21.715-40.353-36.819-13.86-19.549-21.926-42.547-23.324-66.506-.247-4.23-3.749-7.534-7.986-7.534h-8.404c-12.151 0-22.215-9.079-23.781-20.808 12.219-6.792 26.472-15.162 41.547-24.912 13.718-8.872 26.423-17.772 38.104-26.688 6.49-1.003 84.258-15.196 131.905-67.541 17.586-19.32 28.784-55.043 17.871-82.4 10.749.55 19.203 3.566 25.634 9.13 10.808 9.349 16.724 26.89 18.088 53.626 1.511 29.608 10.021 51.195 17.124 64.357-21.701-6.573-47.846-26.937-57.938-36.035z"/><path d="m300.271 271.991c-3.043-3.204-8.106-3.334-11.31-.292s-3.335 8.106-.292 11.31c7.539 7.938 18.188 12.491 29.218 12.491s21.679-4.553 29.218-12.491c3.042-3.204 2.912-8.268-.292-11.31-3.205-3.043-8.268-2.912-11.31.292-4.598 4.842-10.854 7.509-17.615 7.509s-13.019-2.667-17.617-7.509z"/><path d="m277.668 233.076c-3.824-2.211-8.717-.906-10.931 2.919-1.429 2.471-4.086 4.005-6.935 4.005-4.411 0-8-3.589-8-8s3.589-8 8-8c4.418 0 8-3.582 8-8s-3.582-8-8-8c-13.234 0-24 10.766-24 24s10.766 24 24 24c8.541 0 16.504-4.596 20.784-11.994 2.213-3.824.906-8.718-2.918-10.93z"/><path d="m371.802 256c8.541 0 16.504-4.596 20.784-11.994 2.212-3.824.906-8.718-2.919-10.931-3.823-2.211-8.718-.906-10.931 2.919-1.429 2.471-4.086 4.005-6.935 4.005-4.411 0-8-3.589-8-8s3.589-8 8-8c4.418 0 8-3.582 8-8s-3.582-8-8-8c-13.234 0-24 10.766-24 24s10.768 24.001 24.001 24.001z"/><path d="m335.255 318.04c-8.076-1.817-16.74-2.739-25.753-2.739s-17.678.921-25.753 2.739c-4.311.97-7.019 5.25-6.048 9.561s5.249 7.02 9.561 6.048c6.924-1.558 14.407-2.348 22.241-2.348s15.316.79 22.241 2.348c.591.133 1.182.197 1.764.197 3.659 0 6.96-2.526 7.797-6.246.968-4.309-1.74-8.59-6.05-9.56z"/><path d="m318.034 339.586c-5.615-.378-11.45-.378-17.066 0-4.408.296-7.741 4.11-7.445 8.519.297 4.408 4.093 7.738 8.519 7.445 4.904-.33 10.016-.33 14.918 0 .183.012.364.019.545.019 4.173 0 7.69-3.238 7.974-7.463.297-4.409-3.036-8.224-7.445-8.52z"/><path d="m299.801 212.033c3.25 0 6.305-1.995 7.501-5.22 1.537-4.143-.576-8.746-4.718-10.283-31.391-11.644-72.938-12.244-74.691-12.264-.031 0-.062 0-.093 0-4.375 0-7.945 3.521-7.997 7.907-.051 4.417 3.489 8.04 7.906 8.092.402.005 40.56.602 69.311 11.266.918.341 1.857.502 2.781.502z"/></g></g></svg>