<svg id="Capa_1" enable-background="new 0 0 512.001 512.001" height="512" viewBox="0 0 512.001 512.001" width="512" xmlns="http://www.w3.org/2000/svg"><g><g><g><path d="m188.902 344h120v136h-120z" fill="#fff"/></g><g><path d="m268.902 504 40-72 24.501 24.501c3.758 3.758 2.874 10.069-1.772 12.65z" fill="#d4d5d5"/></g><g><path d="m268.902 8c-72 0-100.005 49.012-100.005 49.012s-108.995-14.012-91.995 270.988c0 0 42 31 112 48l224-152s24-40 24-72c0-112.649-104.26-144-168-144z" fill="#d4d5d5"/></g><g><path d="m260.902 96s-7.667-10-47.667-18c-26.667-5.333-16.333-30-16.333-30l-31.422 8.925c-18.225.471-103.785 16.126-88.578 271.075 0 0 42 31 112 48l28.564-19.382z" fill="#b3b5b6"/></g><g><path d="m244.904 91.522s-38.569 90.145-88.002 115.145v65.333c0 75.111 60.889 136 136 136 61.856 0 112-50.144 112-112v-80s-14.918-89.512-159.998-124.478z" fill="#fff"/></g><path d="m436.902 152c0-112.649-104.261-144-168-144 0 13.024 9.71 23.938 22.638 25.519 41.287 5.05 121.362 26.683 121.362 118.481 0 20.609-14.855 50.047-20.59 59.668-.012.02-.021.041-.033.061-13.464-7.096-29.289-8.425-43.812-3.584l-7.155 2.385c-9.8 3.267-16.411 12.438-16.411 22.769v7.714c0 3.475.741 6.819 1.815 10.043 2.583-6.377 7.787-11.527 14.596-13.796l7.155-2.385c15.509-5.169 32.502-3.304 46.521 5.107l16.369 9.822c.91-3.37 1.545-6.82 1.545-10.371v-15.433s24-40 24-72z" fill="#f5df4d"/><path d="m327.218 402.595c-56.757-16.354-98.316-68.574-98.316-130.595v-6.933c0-20.874 20.183-36.776 40.034-30.326.134.043.267.087.4.132l7.155 2.385c6.809 2.27 12.013 7.419 14.596 13.796 1.074-3.224 1.815-6.568 1.815-10.043v-7.714c0-10.33-6.61-19.501-16.41-22.768l-7.156-2.386c-13.329-4.443-27.744-3.655-40.435 1.984v-29.78c0-7.955 2.294-15.764 6.817-22.307 12.024-17.393 23.527-37.459 32.663-59.943-.018-.039-.026-.056-.043-.095-7.423-2.312-15.192-4.496-23.435-6.482 0 0-24.002 68.479-88.002 115.145v9.335h-6.624c-16.713 0-31.638 12.218-33.225 28.856-1.82 19.086 13.14 35.144 31.85 35.144h8.404c1.761 30.189 13.341 57.74 31.596 79.485v88.515l56 40v-43.064c0-10.005 9.072-17.544 18.903-15.684 9.448 1.788 19.167 2.748 29.097 2.748 5.422 0 10.742-.407 16-1.027v-24.138c6.287-.911 12.407-2.339 18.316-4.24z" fill="#f5df4d"/><g><path d="m268.902 504-80-80-24.993 31.241c-3.432 4.29-1.618 10.684 3.556 12.531z" fill="#b3b5b6"/></g></g><g fill="#939597"><path d="m381.137 31.031c-43.486-28.008-92.976-31.031-112.234-31.031-60.046 0-91.542 32.381-102.297 46.303-1.259 1.629-3.128 2.652-5.264 2.88-14.258 1.522-41.407 10.022-63.034 49.848-25.755 47.429-35.644 124.625-29.391 229.446.141 2.368 1.326 4.551 3.235 5.96 1.717 1.267 41.679 30.38 108.751 47.8v38.957l-23.24 29.05c-3.224 4.029-4.307 9.399-2.898 14.363s5.151 8.964 10.011 10.7l101.438 36.228c.883.315 1.792.467 2.689.467 1.365 0 2.701-.354 3.884-1.011l.003.003 62.729-34.849c4.429-2.46 7.373-6.75 8.075-11.768.703-5.018-.949-9.95-4.532-13.533l-22.157-22.157v-15.099c54.708-11.149 96-59.636 96-117.587v-30.012c5.204-7.803 8-16.965 8-26.557v-13.276c4.964-8.716 24-44.099 24-74.155-.002-52.272-22.052-94.103-63.768-120.97zm-296.474 292.602c-1.818-32.341-2.057-61.847-.748-88.488 6.826-3.846 26.004-15.325 49.49-35.206 25.933-21.953 62.077-58.667 88.694-109.882 4.082.627 8.753 1.436 13.894 2.47-28.606 65.133-79.602 107.452-89.956 115.586-20.722 1.476-37.135 18.794-37.135 39.886 0 22.056 17.944 40 40 40h1.054c3.102 28.033 14.219 53.552 30.946 74.302v3.375c-51.626-14.046-86.208-35.368-96.239-42.043zm255.402-135.233c17.345 2.77 31.085 6.803 40.265 10.026-13.919-1.451-28.098.031-41.546 4.514-8.221 2.741-14.744 8.576-18.461 15.955-3.398-1.846-7.288-2.896-11.42-2.896-4.131 0-8.022 1.049-11.42 2.896-3.717-7.379-10.24-13.214-18.461-15.955-10.257-3.419-20.939-5.081-31.606-5.044 9.185-3.129 22.478-6.883 39.148-9.492 4.365-.683 7.35-4.776 6.667-9.141-.684-4.365-4.77-7.348-9.141-6.667-36.007 5.636-57.467 16.308-58.363 16.76-3.945 1.988-5.532 6.799-3.543 10.744.175.347.372.676.588.986-3.979 1.037-7.908 2.313-11.756 3.853l-7.654 3.061h-32.433c21.52-19.55 58.107-58.183 80.934-111.85 10.225 2.612 21.476 6.032 33.119 10.516 24.899 9.589 46.546 22.055 64.338 37.051 13.588 11.454 24.942 24.435 33.973 38.787-9.835-3.324-23.616-7.174-40.706-9.903-4.363-.699-8.465 2.275-9.162 6.638s2.277 8.464 6.64 9.161zm-55.162 44.898v7.714c0 7.144-3.147 13.864-8.635 18.437l-14.036 11.697c-9.599 8-23.5 7.369-32.335-1.466l-7.621-7.621c-6.044-6.044-9.373-14.08-9.373-22.627v-18.015l4.054-1.622c18.182-7.272 38.428-7.868 57.005-1.675 6.544 2.181 10.941 8.28 10.941 15.178zm-114.746 226.941 19.409-24.262 48.523 48.523zm96.903 30.605-70.157-70.157v-41.504c25.536 22.927 59.25 36.818 96 36.818 2.689 0 5.355-.098 8-.273v14.2zm60.686-28.687-38.252 21.251 21.251-38.252zm69.157-166.157c0 57.346-46.654 104-104 104-67.616 0-123.668-52.915-127.609-120.466-.247-4.23-3.749-7.534-7.986-7.534h-8.404c-13.234 0-24-10.767-24-24s10.765-23.999 23.999-24h.008.006 47.987v15.431c0 12.822 4.993 24.875 14.059 33.942l7.621 7.62c7.821 7.821 18.023 11.784 28.268 11.784 9.044 0 18.123-3.089 25.624-9.34l14.035-11.696c9.147-7.622 14.393-18.822 14.393-30.729v-1.012c0-4.411 3.589-8 8-8s8 3.589 8 8v1.012c0 11.906 5.246 23.106 14.392 30.729l14.036 11.697c7.502 6.252 16.578 9.34 25.623 9.34 9.262 0 18.484-3.251 25.949-9.652v12.874zm8-56.569c0 8.548-3.329 16.583-9.373 22.627l-7.621 7.621c-8.836 8.835-22.737 9.465-32.335 1.466l-14.036-11.697c-5.488-4.573-8.635-11.293-8.635-18.437v-7.714c0-6.898 4.396-12.998 10.94-15.179 18.579-6.193 38.823-5.598 57.005 1.675l4.055 1.622zm8.071-32.632c-10.677-29.279-29.248-55.007-53.342-75.315-19.155-16.146-42.337-29.52-68.9-39.749-44.977-17.32-83.76-19.632-85.389-19.722-4.393-.244-8.185 3.135-8.429 7.546-.244 4.412 3.135 8.186 7.547 8.429.026.001.239.015.6.041-25.013 45.954-57.828 79.188-81.624 99.385-15.525 13.177-29.219 22.576-38.259 28.293 3.833-46.261 12.912-82.748 27.19-109.04 18.139-33.402 39.533-40.385 50.671-41.574 6.514-.696 12.277-3.895 16.228-9.008.187-.243.394-.502.596-.757 7.36-.803 22.629-.515 41.392 1.944 16.733 2.192 42.605 6.938 70.834 17.091 43.811 15.757 101.651 47.893 129.769 111.552-2.826 7.866-6.068 15.11-8.884 20.884zm-115.468-147.493c-29.572-10.637-56.657-15.604-74.171-17.899-10.325-1.353-19.333-2.063-26.829-2.341 14.895-11.479 38.351-23.066 72.397-23.066 37.161 0 75.879 10.647 103.57 28.482 37.444 24.116 56.43 60.29 56.43 107.518 0 3.408-.315 6.936-.854 10.506-32.406-57.678-87.777-87.819-130.543-103.2z"/><path d="m289.874 291.917c5.619 4.678 13.119 7.254 21.119 7.254s15.5-2.576 21.119-7.254c3.396-2.827 3.856-7.872 1.029-11.267s-7.871-3.856-11.267-1.029c-2.71 2.256-6.676 3.55-10.881 3.55s-8.171-1.294-10.881-3.55c-3.395-2.828-8.44-2.367-11.267 1.029-2.827 3.395-2.366 8.44 1.029 11.267z"/><path d="m232.687 249.017c3.599 2.563 8.594 1.721 11.157-1.877 1.53-2.148 4.796-5.753 9.483-5.753s7.953 3.604 9.483 5.753c1.561 2.192 4.023 3.361 6.524 3.361 1.605 0 3.226-.482 4.633-1.484 3.6-2.562 4.44-7.558 1.877-11.157-5.644-7.928-13.851-12.474-22.517-12.474s-16.873 4.546-22.517 12.474c-2.563 3.599-1.723 8.595 1.877 11.157z"/><path d="m344.687 249.017c3.599 2.563 8.594 1.721 11.157-1.877 1.53-2.148 4.796-5.753 9.483-5.753s7.953 3.604 9.483 5.753c1.561 2.192 4.023 3.361 6.524 3.361 1.605 0 3.226-.482 4.633-1.484 3.6-2.562 4.44-7.558 1.877-11.157-5.644-7.928-13.851-12.474-22.517-12.474s-16.873 4.546-22.517 12.474c-2.563 3.599-1.723 8.595 1.877 11.157z"/><path d="m373.457 311.065-12.609-10.697c-3.369-2.858-8.417-2.444-11.276.925-1.167 1.376-1.78 3.033-1.877 4.706h-83.38c-.097-1.673-.709-3.33-1.877-4.706-2.858-3.37-7.907-3.783-11.276-.925l-12.609 10.697c-3.369 2.858-3.783 7.907-.925 11.276 1.583 1.866 3.836 2.825 6.104 2.825 1.165 0 2.334-.256 3.418-.77 6.107 21.206 30.461 37.104 59.51 37.104 28.845 0 53.061-15.676 59.378-36.66.733.214 1.486.326 2.24.326 2.268 0 4.522-.959 6.104-2.825 2.859-3.369 2.444-8.417-.925-11.276zm-66.797 34.435c-20.866 0-38.46-9.992-43.53-23.5h87.06c-5.07 13.508-22.664 23.5-43.53 23.5z"/></g></g></svg>