<svg id="Capa_1" enable-background="new 0 0 511.217 511.217" height="512" viewBox="0 0 511.217 511.217" width="512" xmlns="http://www.w3.org/2000/svg"><g><g><path d="m147.614 128.014v112h-8c-17.673 0-32 14.327-32 32s14.327 32 32 32h8.404c1.761 30.189 13.341 57.74 31.596 79.485v96.515h120v-49.143c54.275-7.765 96-54.435 96-110.857v-192z" fill="#fff"/><path d="m291.155 431.686c-42.282-23.065-71.541-68.119-71.541-119.672v-184h-72v112h-8c-17.673 0-32 14.327-32 32s14.327 32 32 32h8.404c1.761 30.189 13.341 57.74 31.596 79.485v96.515h56v-11.084c0-10.006 9.073-17.548 18.903-15.684 9.498 1.801 19.269 2.768 29.249 2.768 5.369 0 10.64-.396 15.848-1.004v-24.246c-2.793.397-5.613.707-8.459.922z" fill="#f5df4d"/><g><path d="m259.614 8.414h-48c-30.928 0-56 25.072-56 56 0 30.928 25.072 56 56 56h48c30.928 0 56-25.072 56-56 0-30.928-25.072-56-56-56z" fill="#d4d5d5"/></g><g><path d="m132.783 19.623c-3.954-3.007-8.554-5.053-13.436-5.974l-27.733-5.235 12.452 25.328c2.192 4.458 5.391 8.345 9.345 11.352l37.98 28.886 34.626-13.869z" fill="#d4d5d5"/></g><g><path d="m132.783 19.623c-3.954-3.007-8.554-5.053-13.436-5.974l-27.733-5.235 12.452 25.328c2.192 4.458 5.391 8.345 9.345 11.352l6.723 5.113 19.372-25.47z" fill="#f5df4d"/></g><g><path d="m259.614 8.414h-48c30.928 0 56 25.072 56 56s-25.072 56-56 56h48c30.928 0 56-25.072 56-56s-25.072-56-56-56z" fill="#f5df4d"/></g><g><g><path d="m307.954 454.136-.161-.227c.042.513.195 1.026.144 1.537-1.308 13.185-33.546 20.781-72.008 16.967s-68.582-17.593-67.274-30.777c.064-.644.341-1.247.549-1.863l-.063.059s-12.861 23.346-13.331 28.089c-1.455 14.688 33.163 30.147 77.32 34.528 44.158 4.381 81.136-3.974 82.591-18.662.565-5.703-7.767-29.651-7.767-29.651z" fill="#d4d5d5"/></g><g><path d="m235.614 472.377c-38.309-3.857-68.264-17.593-66.96-30.741.064-.644.341-1.247.549-1.863l-.063.059s-12.861 23.346-13.331 28.089c-1.455 14.688 33.163 30.147 77.32 34.528.837.083 1.652.131 2.484.205v-30.277z" fill="#b3b5b6"/></g></g><g><path d="m339.59 56.414h-122.861c-69.463 0-122.174 62.577-110.372 131.029l10.511 60.965 1.883.162c6.013-5.112 13.902-8.156 22.239-8.156 21.332 0 38.625-17.293 38.625-38.625v-25.375c0-26.51 21.49-48 48-48h120c26.51 0 48 21.49 48 48v95.987l.151.013 22.487-121.433c9.108-49.182-28.644-94.567-78.663-94.567z" fill="#d4d5d5"/></g><g><path d="m194.895 104.414c-12.857 0-23.28-10.423-23.28-23.28v-15.148c-45.327 19.993-74.313 68.937-65.257 121.457l10.511 60.965 1.883.162c6.013-5.112 13.902-8.156 22.239-8.156 21.332 0 38.625-17.293 38.625-38.625v-25.375c0-23.778 17.307-43.464 40-47.28-.002-13.653-11.069-24.72-24.721-24.72z" fill="#b3b5b6"/></g><g><g><path d="m339.59 56.414h-11.976c19.882 0 36 16.118 36 36s-16.118 36-36 36h20c26.51 0 48 21.49 48 48v95.987l.151.013 22.487-121.433c9.109-49.182-28.643-94.567-78.662-94.567z" fill="#f5df4d"/></g></g><g><circle cx="147.614" cy="304.414" fill="#d4d5d5" r="16"/></g></g><g fill="#939597"><path d="m316.14 302.8c-2.709 2.256-6.675 3.55-10.881 3.55s-8.171-1.294-10.881-3.55c-3.395-2.827-8.439-2.366-11.267 1.029-2.827 3.396-2.366 8.44 1.029 11.267 5.619 4.678 13.119 7.255 21.119 7.255s15.5-2.576 21.119-7.255c3.395-2.827 3.856-7.871 1.029-11.267-2.827-3.395-7.871-3.856-11.267-1.029z"/><path d="m256.704 327.472c-2.859-3.37-7.907-3.784-11.276-.925l-12.609 10.697c-3.369 2.858-3.783 7.906-.925 11.276 1.583 1.865 3.836 2.825 6.104 2.825 1.165 0 2.334-.256 3.418-.77 6.107 21.206 30.461 37.104 59.51 37.104 28.845 0 53.061-15.677 59.378-36.66.733.214 1.487.326 2.24.326 2.268 0 4.522-.96 6.104-2.825 2.858-3.369 2.444-8.417-.925-11.276l-12.609-10.697c-3.369-2.858-8.417-2.444-11.276.925-1.167 1.376-1.78 3.033-1.877 4.706h-83.381c-.096-1.672-.708-3.329-1.876-4.706zm44.222 44.207c-20.866 0-38.46-9.992-43.53-23.5h87.06c-5.07 13.508-22.664 23.5-43.53 23.5z"/><path d="m236.936 272.868c1.53-2.149 4.796-5.753 9.483-5.753s7.953 3.605 9.483 5.754c1.561 2.192 4.023 3.36 6.523 3.36 1.605 0 3.226-.482 4.633-1.484 3.599-2.563 4.439-7.558 1.876-11.157-5.644-7.927-13.851-12.473-22.517-12.473s-16.873 4.546-22.517 12.474c-2.562 3.599-1.722 8.594 1.877 11.157 3.601 2.562 8.596 1.72 11.159-1.878z"/><path d="m337.779 274.745c3.599 2.563 8.594 1.721 11.157-1.877 1.53-2.149 4.796-5.753 9.483-5.753s7.953 3.605 9.483 5.754c1.561 2.192 4.023 3.36 6.523 3.36 1.605 0 3.226-.482 4.633-1.484 3.599-2.563 4.439-7.558 1.876-11.157-5.644-7.927-13.851-12.473-22.517-12.473s-16.873 4.546-22.517 12.474c-2.561 3.598-1.721 8.593 1.879 11.156z"/><path d="m226.019 242.758c.197-.099 20.086-9.989 53.637-15.24 4.365-.683 7.35-4.776 6.667-9.141s-4.771-7.348-9.141-6.667c-36.007 5.636-57.467 16.308-58.363 16.76-3.945 1.989-5.532 6.799-3.543 10.744 1.407 2.791 4.225 4.401 7.15 4.401 1.209.001 2.438-.275 3.593-.857z"/><path d="m407.245 79.738c-16.771-20.161-41.43-31.724-67.654-31.724h-17.86c-7.187-27.806-32.679-48.014-61.965-48.014h-48c-.029 0-.058.001-.087.001-.022 0-.043-.001-.065-.001-.027 0-.052.004-.079.004-21.662.076-41.396 10.875-53.135 28.653l-20.775-15.801c-4.917-3.74-10.724-6.322-16.795-7.468l-27.732-5.235c-2.975-.562-6.017.606-7.852 3.018-1.834 2.412-2.148 5.653-.812 8.373l12.452 25.328c2.726 5.544 6.765 10.451 11.682 14.19l6.72 5.111c.001.001.002.001.003.002 0 0 .001.001.002.001l25.198 19.165c-5.585 4.601-10.795 9.729-15.542 15.364-22.854 27.131-32.503 62.74-26.477 97.698l10.161 58.934c-4.79 5.839-7.938 12.978-8.682 20.774-1.69 17.719 8.249 34.002 24.148 40.722 1.961 9.583 9.653 17.098 19.325 18.808 4.917 22.019 14.744 41.933 28.193 58.671v38.887c-5.981 3.67-8.825 7.821-10.089 11.478-8.661 15.802-13.271 25.922-13.681 30.056-.757 7.645 3.183 18.919 26.254 29.222 15.367 6.862 36.049 11.854 58.237 14.055 8.132.807 16.137 1.207 23.827 1.207 13.291 0 25.637-1.195 36.035-3.544 24.646-5.569 30.69-15.854 31.48-23.497.516-4.985-7.86-32.164-7.86-32.164-1.17-3.806-2.593-8.729-8.057-13.649v-.762c54.708-11.149 96-59.636 96-117.587v-47.266l22.354-120.71c4.778-25.786-2.102-52.138-18.872-72.3zm-77.813-15.659c14.594.941 26.182 13.107 26.182 27.935s-11.587 26.994-26.182 27.934c6.264-7.604 10.031-17.337 10.031-27.935s-3.767-20.33-10.031-27.934zm-69.666-48.079c20.541 0 38.593 13.249 45.256 32.014h-31.443c-3.265-12.636-10.304-23.701-19.772-32.014zm-48.087.001c20.514.028 38.536 13.267 45.192 32.012h-40.142c-9.677 0-19.202 1.167-28.404 3.401l-17.152-13.044c8.744-13.879 23.873-22.339 40.506-22.369zm-93.07 22.595-.355-.27c-2.95-2.243-5.373-5.188-7.009-8.514l-5.393-10.969 12.011 2.267c3.642.688 7.127 2.237 10.077 4.481l.354.27zm12.735 9.686 9.686-12.736 28.875 21.961c-5.447 2.307-10.719 5.014-15.772 8.107zm5.843 52.731c19.806-23.513 48.798-36.999 79.542-36.999h78.734c15.439 0 28 12.561 28 28s-12.561 28-28 28h-67.697c-30.33 0-55.088 24.242-55.958 54.365-1.957 15.29-14.885 26.682-30.536 26.682-.009 0-.018 0-.026 0-8.364 0-16.404 2.443-23.176 6.825l-3.828-22.201c-5.225-30.297 3.139-61.159 22.945-84.672zm34.191 105.228c-2.332 14.589-15.001 25.773-30.236 25.773-6.481 0-12.671 1.492-18.2 4.136l-1.72-9.978c4.839-5.66 12.325-9.112 20.024-9.112h.026c11.462.001 21.965-4.033 30.106-10.819zm-23.764 105.773c-4.411 0-8-3.589-8-8s3.589-8 8-8 8 3.589 8 8-3.588 8-8 8zm141.062 180.052c-14.785 3.34-34.231 4.058-54.756 2.022-46.253-4.589-70.157-20.026-70.158-25.596.44-1.65 2.343-5.804 4.82-10.779 3.546 3.24 8.533 6.529 15.468 9.702 13.488 6.17 31.632 10.631 51.089 12.561 6.917.686 13.733 1.025 20.295 1.025 11.898 0 22.96-1.116 32.266-3.309 7.601-1.791 13.228-4.102 17.37-6.653 1.555 5.383 2.654 9.908 2.678 11.644-.316 1.781-5.271 6.264-19.072 9.383zm-101.057-40.711v-48.144c25.637 23.031 59.474 36.802 96.147 36.802 2.689 0 5.355-.098 8-.273v20.045c-2.065.797-4.606 1.595-7.735 2.332-12.763 3.007-29.566 3.695-47.312 1.935-17.747-1.76-34.087-5.733-46.012-11.188-1.122-.513-2.132-1.014-3.088-1.509zm222.768-302.231-6.621 35.754v-8.865c0-15.994-6.864-31.261-18.831-41.887-3.303-2.934-8.36-2.633-11.294.671-2.933 3.304-2.633 8.36.671 11.294 8.55 7.592 13.454 18.498 13.454 29.922v49.852c-8.697-3.605-26.767-10.108-52.085-14.152-4.367-.698-8.465 2.275-9.162 6.638s2.275 8.465 6.638 9.162c28.913 4.617 49.722 13.588 54.609 15.827v76.673c0 57.346-46.654 104-104 104-59.856 0-111.218-41.261-124.527-99.012 7.374-4.1 12.376-11.969 12.376-20.988 0-13.234-10.766-24-24-24-8.931 0-16.732 4.907-20.865 12.163-7.381-4.752-11.75-13.316-10.869-22.548 1.156-12.121 12.252-21.615 25.261-21.615 25.709 0 46.625-20.916 46.625-46.624v-25.376c0-.17.011-.338.013-.508.028-.261.066-.518.09-.78l-.07-.006c.688-21.458 18.345-38.706 39.967-38.706h99.849c24.262 0 44-19.738 44-44 0-8.605-2.492-16.634-6.779-23.422 11.581 4.33 21.982 11.608 30.109 21.378 13.719 16.497 19.348 38.058 15.441 59.155z"/></g></g></svg>