<svg id="Capa_1" enable-background="new 0 0 512.001 512.001" height="512" viewBox="0 0 512.001 512.001" width="512" xmlns="http://www.w3.org/2000/svg"><g><g><g><path d="m159.064 487.055 48.938-55.055v-184h-72l7.292 233.339c.254 8.159 10.347 11.817 15.77 5.716z" fill="#b3b5b6"/></g><g><path d="m408.002 432 8 72s-53-11-76.667-107.333l60.667-52.667z" fill="#f5df4d"/></g><path d="m320.002 72h-36.532c-64.807 6.301-115.468 77.539-115.468 144h-6.625c-16.713 0-31.638 12.219-33.225 28.856-1.821 19.086 13.139 35.144 31.85 35.144h8.404c1.763 30.22 13.365 57.796 31.653 79.551v74.205c0 7.381-1.459 14.69-4.294 21.506l-6.156 14.801c-1.604 3.856-1.03 8.328 1.704 11.486 9.043 10.443 36.363 19.486 69.173 21.863 36.854 2.67 68.066-3.982 74.627-15.182 1.093-1.866 1.134-4.169.365-6.19l-11.559-31.753c-2.554-7.016-3.86-14.425-3.86-21.892v-21.545c54.248-7.789 95.943-54.446 95.943-110.849v-128.001c0-53.019-42.981-96-96-96z" fill="#fff"/><g><circle cx="264.002" cy="240" fill="#d4d5d5" r="16"/></g><g><circle cx="376.002" cy="240" fill="#d4d5d5" r="16"/></g><g><path d="m317.493 407.111c-45.566-19.596-77.491-64.862-77.491-117.611v-105.651c0-10.585 5.198-20.564 13.98-26.472 6.152-4.139 12.306-8.047 18.336-11.861 4.608-2.914 9.173-5.804 13.622-8.733 11.269-7.42 18.062-19.982 18.062-33.475v-31.308s-176 120-176 176c0 17.673 14.327 32 32 32h8.404c1.763 30.22 13.365 57.796 31.653 79.551v80.689c0 6.249-5.386 18.711-9.908 28.072-3.844 7.957-.472 17.39 7.415 21.376 17.093 8.637 40.4 11.851 58.493 13.521v-57.98c0-9.981 9.036-17.524 18.848-15.694 9.531 1.778 19.281 2.702 29.152 2.702 5.425 0 10.741-.433 16-1.056v-20.368z" fill="#f5df4d"/><g><path d="m320.002 8h-56c-88.366 0-160 71.634-160 160v33.333l.164-.005c-5.791 13.708-10.816 28.602-14.578 45.165-3.702 16.312-5.844 38.137-7.897 57.683-5.022 47.825 23.452 84.87 23.452 84.87 29.359 57.454 6.859 114.954 6.859 114.954 44.666-83.333 21-159.667 40-243.333 29.822-131.323 149-131.667 160-188.667 0 0 104 0 104 96v120l12.575-25.149c12.774-25.549 19.425-53.722 19.425-82.287v-44.564c0-70.692-57.308-128-128-128z" fill="#d4d5d5"/></g><g><path d="m416.002 168v120l12.575-25.149c12.774-25.549 19.425-53.722 19.425-82.287v-44.564c0-70.692-57.308-128-128-128h-56c-1.35 0-2.657.169-4 .202 44 0 68 23.798 68 63.798h-16s104 0 104 96z" fill="#f5df4d"/></g><g><path d="m104.002 168v33.333l.164-.005c-5.791 13.708-10.816 28.602-14.578 45.165-3.702 16.312-5.844 38.137-7.897 57.683-5.022 47.825 23.452 84.87 23.452 84.87 29.359 57.454 6.859 114.954 6.859 114.954 44.666-83.333 18.808-160.195 40-243.333 8.667-34 28.667-67.333 28.667-67.333l-.026-.028c-48.141-53.172-33.77-138.615 30.3-170.861 18.36-9.242 39.102-14.445 61.059-14.445h-8c-88.366 0-160 71.634-160 160z" fill="#b3b5b6"/></g></g><g><g><path d="m299.84 337.5c-2.242 0-4.469-.934-6.051-2.762-2.895-3.34-2.531-8.391.809-11.285 5.836-5.055 14.426-7.953 23.574-7.953 9.152 0 17.742 2.898 23.574 7.957 3.336 2.895 3.695 7.945.801 11.285-2.891 3.336-7.941 3.695-11.285.801-5.836-5.062-20.336-5.066-26.188.004-1.511 1.308-3.379 1.953-5.234 1.953z" fill="#d4d5d5"/></g></g></g><g fill="#939597"><path d="m300.095 299.114c5.674 5.354 13.306 8.302 21.49 8.302 8.183 0 15.814-2.948 21.49-8.302 3.214-3.032 3.361-8.095.33-11.309-3.031-3.213-8.095-3.362-11.309-.33-2.654 2.504-6.485 3.94-10.51 3.94s-7.856-1.436-10.51-3.94c-3.213-3.032-8.276-2.885-11.309.329-3.033 3.215-2.885 8.279.328 11.31z"/><path d="m231.341 211.335c1.177 0 2.373-.261 3.501-.812.045-.022 4.934-2.283 14.235-4.056 9.274-1.768 24.709-3.363 45.571-.923 4.394.516 8.362-2.628 8.875-7.017s-2.628-8.362-7.017-8.875c-44.16-5.166-67.699 6.011-68.679 6.489-3.971 1.937-5.62 6.727-3.683 10.698 1.387 2.844 4.234 4.496 7.197 4.496z"/><path d="m330.461 350.667c-3.932.729-7.815 1.098-11.542 1.098-3.612 0-7.55-.346-11.704-1.029-4.361-.713-8.475 2.237-9.191 6.597s2.237 8.475 6.597 9.191c5.009.823 9.82 1.241 14.299 1.241 4.702 0 9.566-.459 14.457-1.366 4.344-.805 7.213-4.979 6.409-9.324-.807-4.344-4.981-7.213-9.325-6.408z"/><path d="m362.484 322.6c-1.68-4.086-6.355-6.035-10.441-4.356-2.177.895-3.739 2.643-4.478 4.696-7.439 1.769-17.79 2.798-28.647 2.798-11.453 0-22.342-1.145-29.842-3.096-.78-2.065-2.397-3.802-4.621-4.652-4.13-1.577-8.752.49-10.329 4.617l-2.396 6.269c-1.577 4.127.49 8.751 4.617 10.329.94.359 1.905.529 2.854.529 1.852 0 3.63-.665 5.049-1.821 8.965 2.44 21.398 3.825 34.667 3.825 13.139 0 25.458-1.359 34.402-3.754 1.21.699 2.585 1.097 4.003 1.097 1.014 0 2.044-.194 3.04-.603 4.086-1.68 6.037-6.355 4.356-10.441z"/><path d="m284.785 252.006c2.212-3.824.906-8.718-2.919-10.931-3.823-2.211-8.717-.906-10.931 2.919-1.429 2.471-4.086 4.005-6.934 4.005-4.411 0-8-3.589-8-8s3.589-8 8-8c4.418 0 8-3.582 8-8s-3.582-8-8-8c-10.429 0-19.322 6.689-22.624 16h-9.376c-4.418 0-8 3.582-8 8s3.582 8 8 8h9.376c3.302 9.311 12.195 16 22.624 16 8.541.001 16.505-4.595 20.784-11.993z"/><path d="m320.002 0h-56c-92.636 0-168 75.364-168 168v31.667c-5.656 13.678-10.487 28.639-14.216 45.055-3.241 14.279-5.955 34.053-8.066 58.772-2.747 32.149 6.11 64.196 24.939 90.238l1.792 2.478c-1.607 18.447-4.321 36.319-9.399 54.307-1.472 5.216-6.099 7.455-9.613 7.787-2.11.198-7.329.025-10.282-5.882-1.975-3.952-6.78-5.553-10.733-3.578-3.952 1.976-5.554 6.781-3.578 10.733 4.642 9.284 13.484 14.78 23.484 14.78.863 0 1.736-.041 2.615-.125 11.258-1.064 20.484-8.667 23.505-19.369 9.39-33.261 11.11-65.445 12.266-101.059 1.023-31.514 2.081-64.102 9.88-98.455 20.089-88.445 79.052-125.729 118.069-150.401 25.862-16.356 37.855-26.837 41.396-36.175 7.133-18.814-5.433-30.778-13.074-34.475-3.978-1.925-8.761-.261-10.686 3.717-1.924 3.977-.26 8.761 3.717 10.686.021.011 2.316 1.237 4.092 3.545 2.333 3.033 2.648 6.482.99 10.855-1.41 3.719-8.625 11.652-34.986 28.325-41.242 26.079-103.566 65.489-125.12 160.381-8.138 35.848-9.221 69.212-10.269 101.48-.171 5.263-.358 10.44-.578 15.559-9.99-19.597-14.385-41.763-12.485-63.991 2.049-23.989 4.649-43.029 7.727-56.592 23.018-101.339 91.348-144.546 132.173-170.362 3.734-2.361 4.848-7.303 2.486-11.037s-7.302-4.848-11.038-2.486c-30.837 19.499-76.602 48.439-109.003 103.174.243-83.607 68.331-151.552 151.995-151.552h56c47.803 0 89.162 28.1 108.441 68.646-7.44-9.263-15.538-16.594-23.158-22.277-25.498-19.016-60.37-30.369-93.283-30.369-4.418 0-8 3.582-8 8s3.582 8 8 8c29.588 0 60.885 10.167 83.718 27.195 28.97 21.605 44.282 53.697 44.282 92.805v12.563c0 25.18-5.524 50.387-16 73.291v-85.854c0-53.821-30.805-79.336-56.647-91.264-27.283-12.591-54.22-12.736-55.353-12.736-3.834 0-7.128 2.72-7.855 6.484-3.746 19.411-23.687 32.021-48.933 47.986-20.17 12.755-43.031 27.212-63.415 48.831-23.754 25.194-39.324 55.155-47.599 91.594-7.463 32.862-8.495 64.668-9.492 95.428-1.604 49.473-3.121 96.201-29.757 145.898-2.087 3.894-.623 8.743 3.271 10.83 1.203.645 2.497.951 3.772.951 2.854 0 5.615-1.531 7.058-4.222 22.82-42.575 28.368-83.737 30.495-123.755 7.753 5.121 16.927 7.976 26.455 7.976 5.609 0 10.992-.976 16-2.752v44.509c0 6.359-1.238 12.562-3.681 18.434l-6.156 14.801c-2.822 6.785-1.656 14.37 3.043 19.795 10.775 12.444 40.074 22.102 74.643 24.605 5.361.389 10.834.591 16.296.591 29.034 0 57.622-5.728 65.812-19.708 2.269-3.873 2.618-8.613.962-13.017l-11.541-31.709c-2.242-6.158-3.378-12.603-3.378-19.155v-14.807c13.6-2.772 26.37-7.852 37.884-14.811l8.354 62.656c3.845 28.828 28.677 50.567 57.762 50.567 4.418 0 8-3.582 8-8s-3.582-8-8-8c-21.099 0-39.113-15.77-41.902-36.682l-9.472-71.04c5.136-4.272 9.911-8.962 14.271-14.02l11.059 82.94c1.733 13 12.93 22.803 26.044 22.803 13.234 0 24-10.766 24-24 0-4.418-3.582-8-8-8s-8 3.582-8 8c0 4.411-3.589 8-8 8-5.128 0-9.507-3.833-10.185-8.917l-8.628-64.711c20.871-5.53 35.572-24.329 35.572-46.372 0-17.686-9.633-33.715-24.906-42.084.096-1.96.147-3.932.147-5.916v-6.112l11.73-23.46c13.261-26.522 20.27-56.213 20.27-85.865v-44.564c0-74.991-61.01-136-136-136zm-113.758 354.438c-10.245-12.157-18.277-26.262-23.454-41.706 14.394 3.123 25.211 15.953 25.211 31.268.001 3.655-.623 7.164-1.757 10.438zm-50.988-66.718c1.571.186 3.156.28 4.745.28h1.054c.371 3.352.858 6.667 1.454 9.943-3.066.897-6.032 2.088-8.853 3.572.456-4.586.968-9.183 1.6-13.795zm20.746 88.28c-10.064 0-19.54-4.769-25.579-12.792.095-2.794.187-5.583.277-8.367.342-10.55.695-21.228 1.31-32.001 3.87-4.385 8.801-7.574 14.25-9.315 5.416 18.022 14.254 34.524 25.742 48.776v9.394c-4.711 2.732-10.174 4.305-16 4.305zm140.342 77.022 11.504 31.603c-1.681 2.123-7.485 5.905-20.363 8.562-12.986 2.679-29.492 3.477-46.479 2.246-33.022-2.392-57.042-11.429-63.703-19.121-.692-.799-.835-2.046-.365-3.176l6.156-14.801c3.256-7.83 4.907-16.099 4.907-24.578v-54.018c.104-.094.212-.184.316-.279 25.498 22.76 59.084 36.54 95.684 36.54 2.689 0 5.355-.098 8-.273v12.668c.001 8.424 1.462 16.71 4.343 24.627zm-12.342-53.022c-32.89 0-63.041-12.523-85.792-33.157 3.693-6.796 5.792-14.579 5.792-22.843 0-25.649-20.222-46.663-45.56-47.938-1.026-5.394-1.722-10.909-2.05-16.528-.247-4.23-3.749-7.534-7.986-7.534h-8.404c-.727 0-1.451-.032-2.171-.097.6-3.151 1.255-6.306 1.972-9.465 17.157-75.551 65.289-105.988 103.963-130.445 24.916-15.756 46.739-29.556 54.281-51.654 8.845.759 26.092 3.211 43.039 11.127 31.131 14.542 46.916 40.292 46.916 76.534v25.029c-10.429-2.028-30.17-4.513-57.403-1.995-4.399.406-7.636 4.303-7.229 8.702.406 4.4 4.296 7.643 8.702 7.229 28.644-2.646 48.271.699 55.93 2.421v22.614h-16c-4.418 0-8 3.582-8 8 0 4.411-3.589 8-8 8s-8-3.589-8-8c0-3.224 1.919-6.119 4.889-7.375 4.069-1.721 5.973-6.415 4.251-10.484-1.721-4.07-6.417-5.973-10.484-4.251-8.903 3.766-14.655 12.445-14.655 22.11 0 13.234 10.766 24 24 24 10.429 0 19.322-6.689 22.624-16h9.376v48c-.001 57.346-46.656 104-104.001 104zm128.759-56c0 13.985-8.871 26.008-21.713 30.316l-2.577-19.33c6.132-10.818 10.635-22.675 13.167-35.238 6.945 5.975 11.123 14.751 11.123 24.252z"/></g></g></svg>