<svg id="Capa_1" enable-background="new 0 0 511.991 511.991" height="512" viewBox="0 0 511.991 511.991" width="512" xmlns="http://www.w3.org/2000/svg"><g><g><path d="m415.389 218.01v-138.019h-248v136h-8c-17.673 0-32 14.327-32 32s14.327 32 32 32h8.404c2.185 37.45 19.482 70.836 45.887 94.117v79.554h113.709v-48.258c50.322-10.988 88-55.797 88-109.414v-23.773c5.172-6.741 8.368-15.074 8.368-24.227v-16c0-6.056-3.405-11.263-8.368-13.98z" fill="#fff"/><path d="m329.919 404.698c-60.926-13.476-106.53-67.728-106.53-132.707v-.046c4.127 5.486 9.63 9.881 16 12.669v-20.623c0-13.255 10.745-24 24-24h40v-8c0-8.837-7.163-16-16-16h-56c-2.918 0-5.645.794-8 2.158v-114.158h-56v112h-6.625c-16.713 0-31.638 12.218-33.225 28.856-1.821 19.085 13.139 35.144 31.85 35.144h8.404c1.488 25.506 9.987 49.128 23.596 68.958v115.042h64v-19.009c0-9.99 9.044-17.526 18.865-15.69 9.455 1.767 19.191 2.7 29.135 2.7 8.202 0 16.195-.854 24-2.251v-24.461c.846-.189 1.691-.378 2.53-.582z" fill="#f5df4d"/><g><path d="m407.389 215.991h-56c-8.837 0-16 7.163-16 16v8h88v-8c0-8.837-7.163-16-16-16z" fill="#f5df4d"/></g><g><path d="m344.302 453.426-17.472-16.083c-17.951 15.469-52.983 19.321-88.881 7.727-18.386-5.938-34.217-15.029-46.029-25.582l-1.198 1.503-14.359 16.615c-5.292 6.123-5.217 15.318.251 21.284 20.867 22.767 43.711 36.009 59.4 43.163 10.407 4.745 22.669-.05 27.363-10.481l16.011-35.581 18.504 41.12c2.974 6.609 11.174 8.932 17.152 4.833 8.61-5.902 20.51-15.017 30.449-26.141 5.799-6.489 5.212-16.484-1.191-22.377z" fill="#d4d5d5"/></g><g><path d="m252.514 448.901c-4.816-1.016-9.676-2.252-14.565-3.831-18.386-5.938-34.217-15.029-46.029-25.582l-1.198 1.503-14.359 16.615c-5.292 6.123-5.217 15.318.251 21.284 19.493 21.268 40.635 34.15 56.133 41.595z" fill="#b3b5b6"/></g><g><path d="m423.381 24s-1.368 22.995-24.659 14.657c0 0-.667-10.333-13.798-14.711-25.969-8.657-61.396-15.946-97.543-15.946-48.797 0-81.57 10.301-102.692 21.36-20.734 10.854-33.308 32.754-33.308 56.157l80.008 18.483h111.992c80 0 104-48 80-80z" fill="#d4d5d5"/></g><g><path d="m223.389 53c0-19.718-20.905-32.899-38.397-23.798-.101.053-.202.105-.303.158-20.734 10.854-33.308 32.754-33.308 56.157v96.483h48.008v-46c0-14.894 10.222-27.3 24-30.869z" fill="#b3b5b6"/></g><g><path d="m236.952 137.488c-5.182.292-10.215 1.839-14.665 4.51l-138.636 83.181c-3.789 2.273-5.017 7.187-2.744 10.976l8.232 13.72c2.273 3.789 7.188 5.017 10.976 2.744l138.636-83.182c4.45-2.67 8.184-6.382 10.88-10.817l13.75-22.62z" fill="#d4d5d5"/></g><g><path d="m236.952 137.488c-5.182.292-10.215 1.839-14.665 4.51l-5.813 3.488 15.261 28.161 7.016-4.209c4.45-2.67 8.184-6.382 10.88-10.817l13.75-22.62z" fill="#f5df4d"/></g><g><path d="m423.381 24s-2.151 18.847-24.785 14.869c.452 1.751.745 3.56.739 5.431-.024 7.684-4.062 14.844-10.78 18.574-8.819 4.898-23.256 9.126-45.174 9.126l.008-.009c-17.673 0-32 14.327-32 32l31.992.009c80 0 104-48 80-80z" fill="#f5df4d"/></g><g><circle cx="263.389" cy="231.991" fill="#d4d5d5" r="16"/></g><g><circle cx="375.389" cy="231.991" fill="#d4d5d5" r="16"/></g></g><g fill="#939597"><path d="m423.381 214.131v-94.131c0-4.418-3.582-8-8-8s-8 3.582-8 8v56.75c-14.112 1.223-44.013 5.517-68.043 20.492-3.75 2.336-4.896 7.271-2.559 11.021.754 1.21 1.778 2.147 2.946 2.785-5.06 2.828-9.005 7.42-10.968 12.953h-18.752c-2.051-5.782-6.26-10.55-11.651-13.336.819.282 1.631.57 2.433.868.917.34 1.857.501 2.781.501 3.25 0 6.305-1.995 7.501-5.22 1.537-4.143-.576-8.746-4.718-10.283-31.391-11.644-72.938-12.244-74.691-12.264-1.024-.022-2 .16-2.903.496l5.809-3.486c.001-.001.002-.001.003-.002s.003-.002.004-.003l8.292-4.976c5.541-3.324 10.244-8 13.601-13.521l13.75-22.62c1.543-2.539 1.553-5.724.024-8.272-1.528-2.547-4.337-4.034-7.31-3.871l-26.429 1.488c-6.452.363-12.791 2.312-18.332 5.637l-8.295 4.977s-.001 0-.001.001c0 0-.001 0-.001.001l-50.491 30.295v-84.894c0-20.87 11.065-39.644 28.878-48.996 25.934-13.617 59.284-20.521 99.122-20.521 32.13 0 66.721 5.649 94.903 15.499 5.431 1.898 9.068 7.032 9.05 12.776-.016 4.884-2.569 9.332-6.665 11.606-6.668 3.703-19.245 8.119-41.288 8.119h-96c-4.418 0-8 3.582-8 8s3.582 8 8 8h96c25.468 0 40.735-5.51 49.058-10.132 9.154-5.083 14.862-14.871 14.896-25.543.04-12.56-7.906-23.784-19.771-27.931-29.811-10.418-66.326-16.394-100.183-16.394-42.456 0-78.308 7.521-106.56 22.354-23.094 12.125-37.44 36.328-37.44 63.162v94.495l-63.846 38.307c-3.665 2.199-6.255 5.693-7.292 9.839s-.396 8.448 1.803 12.112l8.232 13.72c2.199 3.665 5.693 6.254 9.839 7.291 1.296.324 2.606.484 3.909.484 2.864 0 5.685-.775 8.204-2.287l15.225-9.135c1.219 20.971 18.658 37.658 39.926 37.658h1.054c2.577 23.286 10.688 44.835 22.946 63.36v65.891l-13.078 15.133c-7.982 9.236-7.808 22.959.406 31.92 21.832 23.82 45.754 37.639 61.979 45.037 3.745 1.708 7.733 2.565 11.738 2.565 3.391 0 6.793-.615 10.069-1.848 7.246-2.728 12.988-8.124 16.17-15.195l8.716-19.369 11.208 24.908c2.396 5.325 6.989 9.283 12.602 10.857 1.747.49 3.529.731 5.301.731 3.908 0 7.764-1.174 11.068-3.439 8.713-5.974 21.319-15.578 31.89-27.409 8.649-9.68 7.869-24.75-1.739-33.595l-14.331-13.192v-22.696c50.682-14.039 88-60.571 88-115.661v-21.507c5.049-7.598 8-16.706 8-26.493v-16c.001-7.09-3.092-13.47-7.999-17.867zm-16-21.288v15.157h-54.7c19.439-10.442 42.581-13.978 54.7-15.157zm-144 63.157c8.54 0 16.503-4.595 20.783-11.993 2.213-3.824.906-8.718-2.918-10.931s-8.718-.906-10.931 2.918c-1.43 2.471-4.087 4.005-6.935 4.005-4.411 0-8-3.589-8-8s3.589-8 8-8h24c4.411 0 8 3.589 8 8v8c0 22.056-17.944 40-40 40-17.645 0-32-14.355-32-32v-16c0-4.411 3.589-8 8-8h9.376c-.888 2.504-1.376 5.196-1.376 8 .001 13.235 10.768 24.001 24.001 24.001zm-31.905-55.734c.355.004 31.745.472 58.882 7.937-.977-.122-1.967-.203-2.976-.203h-97.352l36.269-21.762c-1.647 1.451-2.701 3.57-2.728 5.936-.052 4.417 3.488 8.039 7.905 8.092zm-5.073-51.408c3.325-1.995 7.127-3.165 10.999-3.382l11.243-.633-5.849 9.622c-2.014 3.313-4.836 6.119-8.161 8.113l-1.437.862-8.232-13.72zm-102.083 79.912-28.321 16.99-8.231-13.72 123.479-74.087 8.232 13.719-60.567 36.34c-14.893.173-27.853 8.519-34.592 20.758zm131.755 259.528c-1.422 3.159-3.984 5.569-7.216 6.786-3.133 1.18-6.519 1.073-9.532-.301-14.874-6.782-36.806-19.451-56.822-41.29-2.728-2.976-2.769-7.554-.096-10.647l10.5-12.15c12.049 9.295 26.602 16.837 42.574 21.995 11.346 3.664 22.688 5.902 33.571 6.764zm-15.675-50.832c-15.745-5.085-29.863-12.693-41.018-22.082v-43.972c26.271 27.519 63.268 44.588 104 44.588 5.425 0 10.764-.369 16-1.069v18.114c-16.967 12.525-48.163 14.375-78.982 4.421zm98.477 21.854c3.212 2.957 3.501 7.964.644 11.162-9.506 10.639-21.021 19.398-29.006 24.873-1.208.828-2.398.669-3 .5-.609-.171-1.722-.66-2.333-2.018l-15.504-34.454c14.107-1.288 26.723-5.215 36.596-11.664zm68.504-163.32c0 57.346-46.654 104-104 104-67.616 0-123.668-52.915-127.609-120.466-.247-4.23-3.749-7.534-7.986-7.534h-8.404c-13.234 0-24-10.766-24-24s10.766-24 24-24h49.376c-.888 2.504-1.376 5.196-1.376 8v16c0 26.467 21.533 48 48 48 30.878 0 56-25.121 56-56h16c0 15.011 5.948 28.65 15.597 38.715-2.301-.302-4.714.393-6.534 2.11-2.654 2.504-6.485 3.94-10.51 3.94s-7.856-1.436-10.51-3.94c-3.214-3.031-8.277-2.884-11.309.33s-2.884 8.277.33 11.309c5.675 5.354 13.307 8.302 21.49 8.302s15.814-2.948 21.49-8.302c2.181-2.058 2.946-5.051 2.266-7.767 9.382 7.089 21.052 11.302 33.691 11.302 8.74 0 16.934-2.359 24-6.458v6.459zm8-48c0 17.645-14.355 32-32 32-22.056 0-40-17.944-40-40v-8c0-4.411 3.589-8 8-8h1.376c-.888 2.504-1.376 5.196-1.376 8 0 13.234 10.767 24 24 24 8.54 0 16.503-4.595 20.783-11.993 2.213-3.824.906-8.718-2.918-10.931-3.824-2.212-8.718-.906-10.931 2.918-1.43 2.471-4.087 4.005-6.935 4.005-4.411 0-8-3.589-8-8s3.589-8 8-8h32c4.411 0 8 3.589 8 8v16.001z"/><path d="m429.781 19.2c-2.651-3.534-7.665-4.251-11.2-1.6s-4.251 7.665-1.6 11.2c8.133 10.845 9.516 23.628 3.793 35.074-10.058 20.116-38.99 32.126-77.393 32.126h-112c-12.173 0-23.536 5.444-31.176 14.937-2.77 3.442-2.226 8.478 1.217 11.248 1.479 1.19 3.25 1.768 5.011 1.768 2.338 0 4.657-1.021 6.237-2.985 4.587-5.699 11.407-8.968 18.711-8.968h112c64.279 0 85.544-28.652 91.704-40.971 8.408-16.815 6.425-36.191-5.304-51.829z"/><path d="m339.021 318.04c-8.076-1.816-16.741-2.738-25.753-2.738s-17.677.921-25.753 2.738c-4.311.97-7.019 5.25-6.049 9.561s5.25 7.02 9.561 6.049c6.925-1.558 14.409-2.348 22.241-2.348s15.316.79 22.241 2.348c.591.133 1.182.197 1.763.197 3.659 0 6.961-2.527 7.798-6.246.969-4.311-1.739-8.592-6.049-9.561z"/><path d="m321.801 339.586c-5.605-.377-11.461-.377-17.066 0-4.408.296-7.741 4.111-7.445 8.519s4.108 7.739 8.519 7.445c4.893-.329 10.025-.329 14.918 0 .183.012.364.019.545.019 4.173 0 7.69-3.238 7.974-7.463.296-4.409-3.037-8.224-7.445-8.52z"/></g></g></svg>