<svg id="Capa_1" enable-background="new 0 0 512 512" height="512" viewBox="0 0 512 512" width="512" xmlns="http://www.w3.org/2000/svg"><g><g><path d="m454.5 504.5h-397c-27.614 0-50-22.386-50-50v-347l248.5-40 248.5 40v347c0 27.614-22.386 50-50 50z" fill="#f9f5f3"/></g><g><path d="m504.5 107.5h-497v-50c0-27.614 22.386-50 50-50h397c27.614 0 50 22.386 50 50z" fill="#a0c8ff"/></g><g><path d="m72.113 454.5v-357.401l-64.613 10.401v347c0 27.614 22.386 50 50 50h64.613c-27.614 0-50-22.386-50-50z" fill="#e7e7ef"/></g><g><path d="m122.113 7.5h-64.613c-27.614 0-50 22.386-50 50v50h64.613v-50c0-27.614 22.386-50 50-50z" fill="#86b6ef"/></g><g><path d="m375.25 321h-30c-24.853 0-45 20.147-45 45 0 24.853 20.147 45 45 45h30c24.853 0 45-20.147 45-45 0-24.853-20.147-45-45-45zm-45 45c0-8.284 6.716-15 15-15h30c8.284 0 15 6.716 15 15 0 8.284-6.716 15-15 15h-30c-8.284 0-15-6.716-15-15z" fill="#868eaf"/></g><g><path d="m495.25 411h9.25v-30h-9.25c-8.284 0-15-6.716-15-15s6.716-15 15-15h9.25v-30h-9.25c-24.853 0-45 20.147-45 45 0 24.853 20.147 45 45 45z" fill="#868eaf"/></g><g><path d="m390.25 366c0-8.284 6.716-15 15-15h60c8.284 0 15 6.716 15 15 0 8.284-6.716 15-15 15h-60c-8.284 0-15-6.716-15-15z" fill="#b7bcce"/></g><g><path d="m435.25 201h-30c-24.853 0-45 20.147-45 45 0 24.853 20.147 45 45 45h30c24.853 0 45-20.147 45-45 0-24.853-20.147-45-45-45zm-45 45c0-8.284 6.716-15 15-15h30c8.284 0 15 6.716 15 15 0 8.284-6.716 15-15 15h-30c-8.284 0-15-6.716-15-15z" fill="#868eaf"/></g><g><path d="m504.5 231h-39.25c-8.284 0-15 6.716-15 15 0 8.284 6.716 15 15 15h39.25z" fill="#b7bcce"/></g><g><path d="m300.25 246c0-8.284 6.716-15 15-15h60c8.284 0 15 6.716 15 15 0 8.284-6.716 15-15 15h-60c-8.284 0-15-6.716-15-15z" fill="#b7bcce"/></g><g><path d="m106.75 201h-30c-24.853 0-45 20.147-45 45 0 24.853 20.147 45 45 45h30c24.853 0 45-20.147 45-45 0-24.853-20.147-45-45-45zm-45 45c0-8.284 6.716-15 15-15h30c8.284 0 15 6.716 15 15 0 8.284-6.716 15-15 15h-30c-8.284 0-15-6.716-15-15z" fill="#868eaf"/></g><g><path d="m121.75 246c0-8.284 6.716-15 15-15h60c8.284 0 15 6.716 15 15 0 8.284-6.716 15-15 15h-60c-8.284 0-15-6.716-15-15z" fill="#b7bcce"/></g><g><path d="m61.75 246c0-8.284-6.716-15-15-15h-39.25v30h39.25c8.284 0 15-6.716 15-15z" fill="#b7bcce"/></g><g><path d="m61.75 366c0-24.853-20.147-45-45-45h-9.25v30h9.25c8.284 0 15 6.716 15 15s-6.716 15-15 15h-9.25v30h9.25c24.853 0 45-20.147 45-45z" fill="#868eaf"/></g><g><path d="m166.75 321h-30c-24.853 0-45 20.147-45 45 0 24.853 20.147 45 45 45h30c24.853 0 45-20.147 45-45 0-24.853-20.147-45-45-45zm-45 45c0-8.284 6.716-15 15-15h30c8.284 0 15 6.716 15 15 0 8.284-6.716 15-15 15h-30c-8.284 0-15-6.716-15-15z" fill="#868eaf"/></g><g><path d="m31.75 366c0-8.284 6.716-15 15-15h60c8.284 0 15 6.716 15 15 0 8.284-6.716 15-15 15h-60c-8.284 0-15-6.716-15-15z" fill="#b7bcce"/></g><g><g><path d="m301 317.25c-8.284 0-15-6.716-15-15v-60c0-16.542-13.458-30-30-30s-30 13.458-30 30v60c0 8.284-6.716 15-15 15s-15-6.716-15-15v-60c0-33.084 26.916-60 60-60s60 26.916 60 60v60c0 8.284-6.716 15-15 15z" fill="#ffe4b2"/></g></g><g><path d="m241 197.25c0-8.284 6.716-15 15-15-33.084 0-60 26.916-60 60v60c0 8.284 6.716 15 15 15s15-6.716 15-15v-60c0-16.542 13.458-30 30-30-8.284 0-15-6.716-15-15z" fill="#ffce62"/></g><g><path d="m316 429.75h-120c-16.569 0-30-13.431-30-30v-90c0-16.569 13.431-30 30-30h120c16.569 0 30 13.431 30 30v90c0 16.569-13.431 30-30 30z" fill="#ff9b9b"/></g><g><path d="m196 399.75v-90c0-16.569 13.432-30 30-30h-30c-16.568 0-30 13.431-30 30v90c0 16.569 13.432 30 30 30h30c-16.568 0-30-13.431-30-30z" fill="#ff7b7b"/></g><g><circle cx="256" cy="346.576" fill="#ed6666" r="22.5"/></g><g><path d="m96.75 65h198.5c4.143 0 7.5-3.357 7.5-7.5s-3.357-7.5-7.5-7.5h-198.5c-4.143 0-7.5 3.357-7.5 7.5s3.357 7.5 7.5 7.5z"/><circle cx="407.75" cy="57.5" r="7.5"/><circle cx="352.75" cy="57.5" r="7.5"/><path d="m454.5 0h-397c-31.706 0-57.5 25.794-57.5 57.5v397c0 31.706 25.794 57.5 57.5 57.5h397c31.706 0 57.5-25.794 57.5-57.5v-397c0-31.706-25.794-57.5-57.5-57.5zm-176 272.25h-45v-30c0-12.406 10.094-22.5 22.5-22.5s22.5 10.094 22.5 22.5zm-22.5-67.5c-20.678 0-37.5 16.822-37.5 37.5v30h-15v-30c0-28.948 23.552-52.5 52.5-52.5s52.5 23.552 52.5 52.5v30h-15v-30c0-20.678-16.822-37.5-37.5-37.5zm-67.5 37.5v11.25h-51.75c-4.136 0-7.5-3.364-7.5-7.5s3.364-7.5 7.5-7.5h51.859c-.068 1.242-.109 2.491-.109 3.75zm-126.75 20.502c3.984 3.571 9.242 5.748 15 5.748h30c5.758 0 11.016-2.177 15-5.748 3.981 3.569 9.234 5.744 14.988 5.748-6.974 9.25-18.036 15-29.988 15h-30c-11.969 0-23.024-5.747-29.993-15 5.756-.002 11.011-2.178 14.993-5.748zm7.5-16.752c0-4.136 3.364-7.5 7.5-7.5h30c4.136 0 7.5 3.364 7.5 7.5s-3.364 7.5-7.5 7.5h-30c-4.136 0-7.5-3.364-7.5-7.5zm52.5-16.752c-3.984-3.571-9.242-5.748-15-5.748h-30c-5.758 0-11.016 2.177-15 5.748-3.982-3.57-9.237-5.746-14.993-5.748 6.969-9.254 18.023-15 29.993-15h30c11.961 0 23.02 5.748 29.991 15-5.755.002-11.009 2.179-14.991 5.748zm-75 9.252c4.136 0 7.5 3.364 7.5 7.5s-3.364 7.5-7.5 7.5h-31.75v-15zm-15 110.748c-3.984-3.571-9.242-5.748-15-5.748h-1.75v-15h1.75c11.959 0 23.019 5.749 29.99 15-5.754.003-11.008 2.179-14.99 5.748zm-16.75 9.252h1.75c4.136 0 7.5 3.364 7.5 7.5s-3.364 7.5-7.5 7.5h-1.75zm0 30h1.75c5.758 0 11.016-2.177 15-5.748 3.982 3.569 9.237 5.745 14.991 5.748-6.97 9.252-18.029 15-29.991 15h-1.75zm31.75-15c-4.136 0-7.5-3.364-7.5-7.5s3.364-7.5 7.5-7.5h60c4.136 0 7.5 3.364 7.5 7.5s-3.364 7.5-7.5 7.5zm111.75 0h-21.75c-4.136 0-7.5-3.364-7.5-7.5s3.364-7.5 7.5-7.5h21.75zm0-30h-21.75c-5.758 0-11.016 2.177-15 5.748-3.98-3.568-9.232-5.743-14.983-5.747 6.979-9.246 18.055-15 29.983-15h21.75zm-36.75 39.252c3.984 3.571 9.242 5.748 15 5.748h21.75v11.25c0 1.266.065 2.516.188 3.75h-21.938c-11.928 0-23.004-5.755-29.983-15 5.751-.005 11.003-2.18 14.983-5.748zm36.75-73.002v3.75h-21.75c-20.289 0-38.821 11.89-47.438 30h-25.127c-8.615-18.124-27.096-30-47.435-30h-1.75v-45h14.315c8.614 18.129 27.08 30 47.435 30h30c20.327 0 38.82-11.879 47.435-30h34.315v4.505c-17.096 3.484-30 18.635-30 36.745zm306.761 33.75c6.973-9.25 18.036-15 29.989-15h1.75v15h-1.75c-5.758 0-11.016 2.177-15 5.748-3.981-3.569-9.235-5.745-14.989-5.748zm29.989 15h1.75v15h-1.75c-4.136 0-7.5-3.364-7.5-7.5s3.364-7.5 7.5-7.5zm1.75-105h-31.75c-4.136 0-7.5-3.364-7.5-7.5s3.364-7.5 7.5-7.5h31.75zm-106.75 9.252c3.984 3.571 9.242 5.748 15 5.748h30c5.758 0 11.016-2.177 15-5.748 3.981 3.569 9.235 5.745 14.989 5.748-6.974 9.25-18.036 15-29.989 15h-30c-11.948 0-23.013-5.751-29.988-15 5.754-.003 11.007-2.179 14.988-5.748zm7.5-16.752c0-4.136 3.364-7.5 7.5-7.5h30c4.136 0 7.5 3.364 7.5 7.5s-3.364 7.5-7.5 7.5h-30c-4.136 0-7.5-3.364-7.5-7.5zm52.5-16.752c-3.984-3.571-9.242-5.748-15-5.748h-30c-5.758 0-11.016 2.177-15 5.748-3.98-3.568-9.232-5.743-14.984-5.747 6.979-9.246 18.053-15 29.984-15h30c11.959 0 23.019 5.749 29.991 15-5.755.002-11.009 2.178-14.991 5.747zm-75 9.252c4.136 0 7.5 3.364 7.5 7.5s-3.364 7.5-7.5 7.5h-51.75v-11.25c0-1.259-.041-2.508-.109-3.75zm-51.75 30h34.315c8.615 18.118 27.116 30 47.435 30h30c20.329 0 38.819-11.879 47.436-30h14.314v45h-1.75c-20.327 0-38.819 11.879-47.435 30h-25.13c-8.615-18.121-27.108-30-47.435-30h-21.75v-3.75c0-18.11-12.904-33.261-30-36.745zm66.75 80.748c-3.984-3.571-9.242-5.748-15-5.748h-21.75v-15h21.75c11.952 0 23.015 5.75 29.989 15-5.754.003-11.008 2.179-14.989 5.748zm-36.75 9.252h21.75c4.136 0 7.5 3.364 7.5 7.5s-3.364 7.5-7.5 7.5h-21.75zm0 41.25v-11.25h21.75c5.758 0 11.016-2.177 15-5.748 3.981 3.569 9.235 5.745 14.989 5.748-6.974 9.25-18.036 15-29.989 15h-21.938c.123-1.234.188-2.484.188-3.75zm51.75-26.25c-4.136 0-7.5-3.364-7.5-7.5s3.364-7.5 7.5-7.5h60c4.136 0 7.5 3.364 7.5 7.5s-3.364 7.5-7.5 7.5zm75 9.252c3.984 3.571 9.242 5.748 15 5.748h1.75v15h-1.75c-11.952 0-23.015-5.75-29.989-15 5.754-.003 11.008-2.179 14.989-5.748zm-422.75-367.752h397c23.435 0 42.5 19.065 42.5 42.5v42.5h-129.25c-4.143 0-7.5 3.357-7.5 7.5s3.357 7.5 7.5 7.5h129.25v108.5h-14.315c-8.615-18.125-27.096-30-47.435-30h-30c-20.293 0-38.821 11.889-47.437 30h-36.983c-8.147-28.123-34.117-48.75-64.83-48.75s-56.683 20.627-64.83 48.75h-36.985c-8.614-18.126-27.092-30-47.434-30h-30c-20.355 0-38.821 11.871-47.435 30h-14.316v-108.5h322.75c4.143 0 7.5-3.357 7.5-7.5s-3.357-7.5-7.5-7.5h-322.75v-42.5c0-23.435 19.065-42.5 42.5-42.5zm397 482h-397c-23.435 0-42.5-19.065-42.5-42.5v-36h1.75c20.344 0 38.82-11.874 47.435-30h25.128c8.616 18.11 27.147 30 47.437 30h26.795c6.494 11.197 18.605 18.75 32.455 18.75h45c4.143 0 7.5-3.357 7.5-7.5s-3.357-7.5-7.5-7.5h-45c-12.406 0-22.5-10.094-22.5-22.5v-90c0-12.406 10.094-22.5 22.5-22.5h120c12.406 0 22.5 10.094 22.5 22.5v90c0 12.406-10.094 22.5-22.5 22.5h-45c-4.143 0-7.5 3.357-7.5 7.5s3.357 7.5 7.5 7.5h45c13.85 0 25.961-7.553 32.455-18.75h26.795c20.328 0 38.819-11.879 47.435-30h25.13c8.615 18.121 27.107 30 47.435 30h1.75v36c0 23.435-19.065 42.5-42.5 42.5z"/><path d="m263.5 375.627c12.925-3.339 22.5-15.098 22.5-29.051 0-16.542-13.458-30-30-30s-30 13.458-30 30c0 13.953 9.575 25.712 22.5 29.051v9.797c0 4.143 3.357 7.5 7.5 7.5s7.5-3.357 7.5-7.5zm-22.5-29.051c0-8.271 6.729-15 15-15s15 6.729 15 15-6.729 15-15 15-15-6.728-15-15z"/></g></g></svg>