<svg id="Capa_1" enable-background="new 0 0 512 512" height="512" viewBox="0 0 512 512" width="512" xmlns="http://www.w3.org/2000/svg"><g><path d="m416.401 134.478c5.393-5.393 5.393-14.138 0-19.532-5.393-5.393-14.138-5.393-19.532 0l-48.338 48.338-9.766 9.766c5.393-5.393 5.393-14.138 0-19.532-5.394-5.394-14.138-5.394-19.532 0l-61.6 61.6c5.55-5.55 5.389-14.649-.483-19.993-5.5-5.005-14.066-4.522-19.324.737l-97.106 97.108c-5.258 5.258-13.824 5.742-19.324.737-5.872-5.344-6.033-14.442-.483-19.992l105.394-105.394c5.393-5.393 5.393-14.138 0-19.532-5.393-5.393-14.138-5.393-19.532 0l-170.455 170.454c-37.694 37.694-38.788 99.087-1.375 137.059 37.711 38.274 99.311 38.448 137.238.52l115.71-115.71c5.55-5.55 5.389-14.648-.483-19.992-5.5-5.005-14.066-4.522-19.324.737l-59.005 59.005c-5.258 5.259-13.824 5.742-19.324.737-5.872-5.344-6.033-14.442-.483-19.992zm-246.66 188.065c-5.393-5.393-5.393-14.138 0-19.532l39.063-39.063c5.393-5.393 14.138-5.393 19.532 0s5.393 14.138 0 19.532l-39.063 39.063c-5.394 5.393-14.138 5.393-19.532 0z" fill="#fe9738"/><g fill="#fe860a"><path d="m287.41 321.12c-5.5-5.005-14.066-4.522-19.324.737l-59.005 59.005c-5.258 5.259-13.824 5.742-19.324.737-.42-.382-.811-.784-1.173-1.202l-56.418 56.418c-24.523 24.523-58.944 33.117-90.404 25.782 37.983 31.871 94.701 29.946 130.421-5.774l115.71-115.71c5.55-5.551 5.389-14.649-.483-19.993z"/><path d="m500.451 30.896c-5.394-5.394-14.138-5.394-19.532 0l-39.317 39.317c-5.393 5.394-5.393 14.138 0 19.532 5.393 5.394 14.138 5.394 19.532 0l39.317-39.317c5.394-5.394 5.394-14.138 0-19.532z"/><path d="m363.67 245.804c-5.394-5.394-14.138-5.394-19.532 0l-31.447 31.447c-5.394 5.393-5.394 14.138 0 19.532 5.394 5.393 14.138 5.393 19.532 0l31.447-31.447c5.394-5.394 5.394-14.139 0-19.532z"/><path d="m335.709 41.808c5.394 5.394 5.394 14.138 0 19.532l-62.713 62.713c-5.394 5.394-14.138 5.394-19.532 0-5.394-5.394-5.394-14.138 0-19.532l62.713-62.713c5.394-5.393 14.139-5.393 19.532 0z"/></g><path d="m141.696 353.133c-21.865-23.3-58.774-23.297-80.637.006-19.894 21.206-19.78 54.712.248 75.792.156.164.312.326.469.488 10.233 10.515 27.599 8.805 35.738-3.404 3.15-4.725 10.092-4.725 13.242 0l.164.245c6.937 10.405 21.778 11.83 30.419 2.79.144-.151.288-.303.431-.456 19.739-21.114 19.705-54.384-.074-75.461z" fill="#fed402"/><path d="m141.696 353.133c-10.29-10.966-23.913-16.77-37.731-17.413 17.464 21.133 16.735 52.599-2.212 72.866-.143.153-.287.305-.431.456-8.64 9.04-23.482 7.615-30.419-2.79l-.164-.245c-3.15-4.725-10.092-4.725-13.242 0-1.863 2.795-4.211 5.04-6.845 6.713 2.498 5.86 6.05 11.364 10.655 16.211.156.164.312.326.469.488 10.233 10.515 27.599 8.805 35.738-3.404 3.15-4.725 10.092-4.725 13.242 0l.164.245c6.937 10.405 21.778 11.83 30.419 2.79.144-.151.288-.303.431-.456 19.739-21.114 19.705-54.384-.074-75.461z" fill="#fac600"/><path d="m194.578 327.848 39.063-39.063c8.311-8.31 8.311-21.833 0-30.143-8.31-8.31-21.832-8.311-30.142 0l-39.064 39.063c-8.31 8.311-8.31 21.833 0 30.143 8.312 8.31 21.833 8.311 30.143 0zm-19.531-19.531 39.064-39.063c2.46-2.46 6.461-2.459 8.92 0 2.46 2.46 2.46 6.461 0 8.921l-39.063 39.063c-2.459 2.459-6.461 2.459-8.921 0-2.459-2.46-2.459-6.462 0-8.921z"/><path d="m505.757 25.591c-8.311-8.31-21.832-8.31-30.144 0l-39.316 39.317c-4.026 4.026-6.244 9.379-6.244 15.072s2.218 11.046 6.243 15.071c4.025 4.026 9.378 6.243 15.072 6.243 5.693 0 11.046-2.217 15.072-6.243l39.316-39.317c4.026-4.026 6.244-9.379 6.244-15.072s-2.218-11.046-6.243-15.071zm-10.612 19.531-39.316 39.317c-1.192 1.191-2.777 1.848-4.461 1.848-3.485 0-6.308-2.82-6.308-6.308 0-1.685.657-3.269 1.848-4.46l39.316-39.317c2.458-2.458 6.461-2.46 8.922 0 2.465 2.467 2.466 6.455-.001 8.92z"/><path d="m368.976 240.497c-4.025-4.025-9.378-6.242-15.071-6.242-5.694 0-11.047 2.217-15.072 6.243l-31.447 31.447c-8.309 8.31-8.309 21.832.001 30.143 8.31 8.309 21.83 8.31 30.143 0l31.447-31.447c8.309-8.31 8.309-21.832-.001-30.144.001.001.001.001 0 0zm-10.611 19.533-31.446 31.447c-2.46 2.459-6.463 2.46-8.921 0-2.459-2.459-2.459-6.461 0-8.92l31.447-31.447c2.464-2.465 6.455-2.465 8.92 0 2.459 2.458 2.459 6.461 0 8.92z"/><path d="m263.23 135.602c5.693 0 11.046-2.217 15.071-6.243l62.713-62.713c8.309-8.311 8.309-21.832-.001-30.143-8.31-8.309-21.831-8.31-30.143 0l-20.833 20.833c-2.93 2.93-2.93 7.681 0 10.611 2.931 2.93 7.681 2.93 10.612 0l20.832-20.833c2.46-2.46 6.463-2.46 8.921 0 2.459 2.459 2.459 6.461 0 8.921l-62.714 62.713c-2.464 2.465-6.454 2.465-8.92 0-2.46-2.46-2.46-6.461 0-8.921l16.509-16.509c2.931-2.93 2.931-7.681.001-10.611s-7.68-2.931-10.612 0l-16.509 16.509c-4.026 4.026-6.243 9.378-6.243 15.071s2.217 11.046 6.243 15.071c4.028 4.026 9.38 6.244 15.073 6.244z"/><path d="m312.404 199.412c-2.931-2.93-7.681-2.93-10.612 0l-29.933 29.933c-2.93 2.93-2.93 7.681 0 10.611 2.931 2.93 7.681 2.93 10.612 0l29.933-29.933c2.93-2.93 2.93-7.681 0-10.611z"/><path d="m406.635 103.398c-5.694 0-11.047 2.217-15.072 6.243l-43.706 43.706c-.972-1.847-2.234-3.582-3.787-5.135-4.025-4.025-9.378-6.242-15.071-6.242-5.694 0-11.047 2.217-15.072 6.243-9.979 9.979-37.251 37.251-47.193 47.193-1.141-2.158-2.664-4.128-4.534-5.829-8.426-7.667-21.462-7.237-29.68.981l-97.106 97.106c-2.499 2.499-6.52 2.72-8.969.493-1.296-1.18-2.033-2.787-2.073-4.527-.041-1.742.615-3.379 1.846-4.611l105.394-105.394c4.026-4.026 6.243-9.378 6.243-15.071s-2.218-11.046-6.243-15.071c-4.026-4.026-9.379-6.243-15.071-6.243-5.693 0-11.046 2.217-15.071 6.243l-170.456 170.455c-40.793 40.792-41.427 107.019-1.414 147.631 19.725 20.019 46.098 31.073 74.231 31.073 27.825 0 53.971-10.827 73.657-30.514l115.711-115.71c4.099-4.1 6.373-9.777 6.237-15.575-.139-5.881-2.615-11.305-6.976-15.273-8.426-7.669-21.464-7.237-29.68.98l-59.005 59.005c-2.499 2.498-6.521 2.72-8.969.493-1.296-1.18-2.032-2.787-2.073-4.527-.041-1.742.615-3.379 1.846-4.611l79.694-79.694c2.93-2.93 2.93-7.681 0-10.611-2.931-2.93-7.681-2.93-10.611 0l-79.694 79.694c-4.1 4.1-6.373 9.777-6.237 15.576.139 5.88 2.616 11.304 6.975 15.272 8.426 7.668 21.463 7.238 29.68-.98l59.006-59.005c2.499-2.499 6.522-2.718 8.969-.493 1.295 1.18 2.032 2.788 2.073 4.527.041 1.742-.615 3.379-1.846 4.611l-115.71 115.71c-16.851 16.851-39.228 26.118-63.048 26.118-24.056 0-46.638-9.445-63.54-26.599-34.249-34.76-33.65-91.503 1.335-126.487l170.456-170.455c2.465-2.466 6.455-2.465 8.92 0 2.459 2.46 2.459 6.461 0 8.92l-105.394 105.394c-4.1 4.1-6.373 9.777-6.237 15.575.138 5.881 2.615 11.305 6.975 15.273 8.425 7.668 21.463 7.238 29.68-.98l97.106-97.106c2.499-2.499 6.522-2.72 8.969-.493 1.296 1.18 2.033 2.787 2.073 4.527.041 1.742-.614 3.379-1.846 4.61-.127.127.57-.57-9.765 9.766-2.93 2.93-2.93 7.681 0 10.611 2.931 2.931 7.681 2.93 10.611 0 11.011-11.011 60.524-60.524 71.366-71.366 2.464-2.465 6.455-2.465 8.92 0 2.448 2.449 2.459 6.427.032 8.889l-10.982 10.983h-.001c-2.93 2.93-2.93 7.681 0 10.611s7.681 2.931 10.611 0c16.607-16.605 55.097-55.095 69.056-69.055 2.464-2.465 6.453-2.466 8.92 0 2.465 2.465 2.466 6.454-.001 8.92l-122.89 122.891c-2.93 2.93-2.93 7.681 0 10.611 2.93 2.929 7.68 2.931 10.612 0l122.89-122.891c4.026-4.026 6.244-9.379 6.244-15.072s-2.218-11.046-6.243-15.071c-4.027-4.025-9.379-6.243-15.072-6.243z"/><path d="m66.193 347.667c-3.022-2.836-7.771-2.685-10.606.339-22.711 24.208-22.587 62.025.287 86.099l.526.547c13.551 13.926 36.559 11.725 47.358-4.474.05-.076.135-.202.378-.202s.328.127.376.199l.166.249c9.602 14.404 30.122 16.33 42.088 3.809l.485-.513c22.487-24.054 22.45-61.708-.084-85.72-14.521-15.473-35.669-22.543-56.575-18.912-4.083.709-6.817 4.594-6.108 8.677s4.597 6.822 8.677 6.108c15.909-2.763 32.01 2.617 43.063 14.396 17.141 18.266 17.169 46.906.068 65.2l-.377.4c-5.291 5.535-14.456 4.675-18.749-1.765l-.166-.251c-2.874-4.31-7.683-6.884-12.864-6.884s-9.99 2.573-12.864 6.884c-5.511 8.267-17.243 9.396-24.117 2.334l-.408-.424c-17.396-18.309-17.491-47.075-.215-65.49 2.835-3.023 2.683-7.771-.339-10.606z"/><path d="m108.181 368.343c4.144 0 7.503-3.359 7.503-7.503s-3.359-7.503-7.503-7.503c-11.753 0-21.314 9.562-21.314 21.314 0 11.753 9.562 21.314 21.314 21.314 5.693 0 11.046-2.217 15.071-6.242 2.93-2.93 2.93-7.681 0-10.611s-7.681-2.93-10.611 0c-1.191 1.191-2.775 1.847-4.46 1.847-3.478 0-6.308-2.829-6.308-6.307s2.83-6.309 6.308-6.309z"/><circle cx="75.234" cy="398.506" r="7.503"/></g></svg>