<svg id="Capa_1" enable-background="new 0 0 512 512" height="512" viewBox="0 0 512 512" width="512" xmlns="http://www.w3.org/2000/svg"><g><g><path d="m356.952 501.676v-29.625c0-60.52-49.061-109.58-109.58-109.58-60.52 0-109.58 49.061-109.58 109.58v29.625z" fill="#d49c8d"/><path d="m320.518 466.376s30.713-8.554 35.361-9.657c-7.458-53.26-53.192-94.248-108.508-94.248-56.127 0-102.391 42.2-108.812 96.601 4.286 1.857 35.665 7.304 35.665 7.304s.504 30.509.807 35.299l145.487-.407c-.279-3.376 0-34.892 0-34.892z" fill="#84eac4"/><path d="m255.047 400.94c21.157 9.516 36.04 32.101 36.04 58.456v6.341c0 9.871-8.002 17.874-17.874 17.874h-98.989v18.064h146.294v-27.991c0-37.804-28.681-68.906-65.471-72.744z" fill="#71afc4"/><g fill="#d49c8d"><circle cx="406.575" cy="318.867" r="36.289"/><circle cx="88.167" cy="318.867" r="36.289"/><path d="m278.294 408.549h-61.847c-76.853 0-139.154-62.301-139.154-139.154 0-76.853 62.301-139.154 139.154-139.154h61.847c76.853 0 139.154 62.301 139.154 139.154.001 76.853-62.301 139.154-139.154 139.154z"/></g><path d="m278.294 130.158h-17.844c62.306 0 112.814 50.508 112.814 112.814v9.581c0 62.306-50.508 112.814-112.814 112.814h-70.342c-59.624 0-108.439-46.257-112.53-104.841-.181 2.906-.284 5.834-.284 8.787v.001c0 76.853 62.301 139.154 139.154 139.154h61.847c76.853 0 139.154-62.301 139.154-139.154v-.001c0-76.854-62.302-139.155-139.155-139.155z" fill="#c7758d"/><path d="m165.862 217.495s101.279 36.996 130.768 32.605c44.473-6.622 44.5-33.625 58.966-33.625 17.547 0 34.528 71.829 33.647 94.351s20.426 13.463 26.85 0 18.385-51.503 12.068-79.25c-6.318-27.747 6.755-38.304 3.374-55.659-3.24-16.631-32.915-26.461-40.53-35.272-7.614-8.811-10.007-35.771-42.437-43.144-9.746-2.216-56.688 16.731-96.945 9.206-51.179-9.566-106.468 4.357-134.391 22.815-20.498 13.549-22.713 27.492-26.874 43.507-2.26 8.696-21.797-1.173-29.752 27.774-7.198 26.193 10.421 30.541 10.613 36.819 1.534 50.222 1.137 93.88 15.593 96.191 14.457 2.311 16.961-81.525 36.289-96.503 25.066-19.425 42.761-19.815 42.761-19.815z" fill="#a183e2"/><path d="m290.368 22.408c-16.167 0-34.749 11.916-42.997 19.898-8.248-7.982-27.062-20.562-43.229-20.562-25.5 0-41.574 9.778-41.574 25.957s20.672 29.295 46.171 29.295c8.616 0 16.676-1.502 23.579-4.109v60.195c0 7.731 6.268 13.999 13.999 13.999h4.236c7.731 0 13.999-6.268 13.999-13.999v-59.441c6.411 2.139 13.705 3.355 21.451 3.355 25.5 0 46.172-13.116 46.172-29.295s-16.307-25.293-41.807-25.293z" fill="#84eac4"/></g><g><g fill="#440b29"><path d="m436.114 282.87c3.819-16.525 6.054-36.278 2.113-53.586-3.023-13.279-.9-21.45 1.347-30.102 1.97-7.583 4.007-15.423 2.094-25.239-2.987-15.334-18.71-24.734-31.344-32.287-4.424-2.645-9.93-5.936-11.508-7.762-1.023-1.184-2.559-4.495-3.914-7.416-5.631-12.139-15.057-32.455-44.046-39.045-5.343-1.214-12.102.183-25.671 3.202-13.487 3.002-31.923 7.087-50.309 7.471v-11.53c3.628.494 7.343.743 11.126.743 31.68 0 56.496-17.403 56.496-39.619 0-17.219-13.695-35.617-52.131-35.617-15.507 0-32.058 8.603-42.958 16.735-10.464-7.982-27.062-17.398-43.267-17.398-31.527 0-51.899 14.241-51.899 36.281 0 22.216 24.816 39.619 56.496 39.619 4.481 0 8.934-.364 13.254-1.074v7.133c-43.808-.979-86.405 11.633-110.455 27.53-22.36 14.78-26.405 30.736-30.316 46.166-.044.174-.088.348-.133.523-.307.079-.613.156-.89.226-7.975 2.012-22.82 5.756-29.55 30.244-6.594 23.994 4.187 35.425 9.368 40.919.292.31.637.675.942 1.009.126 4.251.24 8.452.352 12.58.259 9.553.511 18.873.89 27.611-12.443 8.376-20.649 22.585-20.649 38.681 0 25.702 20.911 46.613 46.613 46.613 4.324 0 8.508-.603 12.484-1.71 13.271 16.254 29.88 29.671 48.782 39.195-13.827 19.542-21.967 43.379-21.967 69.086v29.625c0 5.702 4.622 10.324 10.324 10.324s10.324-4.622 10.324-10.324v-29.625c0-1.67.043-3.33.125-4.981l19.825 4.307c-.022.766-.035 1.535-.035 2.307v31.41c0 3.421 2.774 6.195 6.195 6.195s6.195-2.773 6.195-6.195v-31.41c0-22.764 11.427-42.901 28.838-55.003 2.385.113 4.778.191 7.191.191h61.847c2.416 0 4.818-.064 7.207-.177 17.404 12.1 28.822 32.231 28.822 54.989v31.41c0 3.421 2.773 6.195 6.195 6.195 3.421 0 6.195-2.773 6.195-6.195v-31.41c0-.772-.014-1.54-.036-2.307l19.828-4.307c.082 1.65.124 3.31.124 4.981v29.625c0 5.702 4.622 10.324 10.324 10.324s10.324-4.622 10.324-10.324v-29.625c0-25.701-8.153-49.52-21.974-69.06 18.916-9.526 35.546-22.951 48.823-39.216 3.965 1.104 8.137 1.705 12.45 1.705 25.702 0 46.613-20.911 46.613-46.613 0-14.494-6.666-27.443-17.074-35.998zm-227.375-216.199c-20.517 0-35.847-10.015-35.847-18.97 0-11.526 16.143-15.632 31.25-15.632 12.28 0 28.473 10.325 36.049 17.657 4.003 3.874 10.357 3.874 14.36 0 7.081-6.854 23.361-16.993 35.817-16.993 15.219 0 31.482 3.932 31.482 14.969 0 8.955-15.33 18.97-35.847 18.97-6.357 0-12.645-.976-18.184-2.824-3.15-1.05-6.611-.523-9.303 1.418-2.693 1.941-4.289 5.057-4.289 8.376v59.441c0 2.027-1.648 3.675-3.674 3.675h-4.237c-2.026 0-3.674-1.648-3.674-3.675v-60.196c0-3.391-1.665-6.565-4.453-8.493-1.75-1.209-3.802-1.831-5.872-1.831-1.229 0-2.465.219-3.647.666-5.964 2.252-12.855 3.442-19.931 3.442zm-138.178 136.869c3.54-12.882 8.707-14.185 14.689-15.694 4.46-1.125 12.76-3.218 15.099-12.22.304-1.17.598-2.329.889-3.477 3.479-13.724 5.993-23.64 21.686-34.014 20-13.22 56.611-24.163 94.432-24.163 1.544 0 3.09.039 4.637.078v19.033c0 13.412 10.911 24.324 24.323 24.324h4.237c13.412 0 24.323-10.912 24.323-24.324v-14.313c20.503-.362 40.283-4.749 54.794-7.978 6.455-1.436 14.463-3.21 16.918-3.151 18.855 4.406 24.553 16.687 29.583 27.529 2.113 4.554 4.108 8.855 7.022 12.227 3.752 4.341 9.676 7.883 16.535 11.984 8.142 4.868 20.447 12.224 21.672 18.512 1.016 5.214-.17 9.78-1.812 16.099-2.511 9.665-5.636 21.693-1.495 39.878 5.626 24.71-5.417 60.143-11.319 72.512-1.708 3.58-4.962 6.154-7.177 7.244-.053-.617-.078-1.406-.039-2.394.837-21.396-12.167-80.275-29.236-98.024-4.502-4.682-9.457-7.056-14.727-7.056-10.169 0-16.036 6.692-21.213 12.596-6.872 7.837-15.424 17.591-39.273 21.142-19.582 2.913-87.495-18.137-125.706-32.091-1.206-.441-2.49-.648-3.769-.624-2.16.047-21.879 1.069-48.858 21.977-11.929 9.244-17.252 30.542-24.011 61.98-1.67 7.766-3.887 18.079-6.055 25.413-.802-3.28-1.636-7.921-2.331-14.463-1.437-13.541-1.918-31.282-2.426-50.064-.131-4.816-.264-9.73-.416-14.709-.177-5.786-3.83-9.659-6.497-12.488-4.113-4.362-7.997-8.481-4.479-21.281zm-8.359 115.328c0-3.667.773-7.155 2.151-10.322.067.519.13 1.047.2 1.554 1.291 9.366 4.312 31.3 20.627 33.909.653.104 1.279.154 1.892.178.123.211.255.417.379.628-13.986-.382-25.249-11.87-25.249-25.947zm107.196 140.121-19.762-4.293c2.87-16.205 9.686-31.063 19.415-43.546 7.434 2.492 15.126 4.412 23.026 5.714-11.479 11.167-19.599 25.766-22.679 42.125zm175.707-4.293-19.761 4.292c-3.076-16.352-11.186-30.946-22.653-42.113 7.892-1.301 15.578-3.221 23.005-5.711 9.725 12.481 16.54 27.333 19.409 43.532zm-66.811-56.471h-61.847c-48.701 0-91.157-27.175-113.053-67.147.988-2.216 1.665-4.221 2.108-5.534 2.72-8.07 5.018-18.758 7.451-30.074 3.825-17.791 9.605-44.678 16.471-49.999 17.461-13.531 30.703-16.724 35.174-17.452 16.638 6.001 92.679 32.732 126.843 32.729 2.465 0 4.719-.14 6.709-.436 31.34-4.667 43.627-18.68 51.758-27.952 1.571-1.791 3.83-4.368 5.128-5.264 2.58 2.382 8.969 11.821 15.644 35.288 5.781 20.324 8.563 39.921 8.245 48.04-.58 14.823 6.51 20.599 11.239 22.794-22.221 38.802-64.039 65.007-111.87 65.007zm129.013-53.411c3.303-5.628 6.255-11.487 8.811-17.552 3.943-3.399 7.209-7.62 9.293-11.988 1.029-2.156 2.349-5.287 3.776-9.144 2.132 3.765 3.353 8.111 3.353 12.738 0 14.071-11.254 25.556-25.233 25.946z"/><path d="m164.351 311.317c-8.58 0-15.535 6.955-15.535 15.534s6.955 15.535 15.535 15.535c8.579 0 15.535-6.955 15.535-15.535 0-8.579-6.956-15.534-15.535-15.534z"/><path d="m330.391 311.317c-8.579 0-15.535 6.955-15.535 15.534s6.955 15.535 15.535 15.535 15.534-6.955 15.534-15.535c.001-8.579-6.954-15.534-15.534-15.534z"/><path d="m179.753 275.356c-.712-.364-7.198-3.554-15.401-3.554s-14.689 3.19-15.402 3.554c-3.047 1.555-4.256 5.287-2.701 8.333 1.556 3.048 5.286 4.258 8.334 2.701.043-.022 4.543-2.199 9.769-2.199 5.278 0 9.754 2.192 9.768 2.199.902.461 1.864.679 2.811.679 2.254 0 4.427-1.234 5.522-3.38 1.556-3.047.347-6.778-2.7-8.333z"/><path d="m345.793 275.356c-.712-.364-7.198-3.554-15.401-3.554s-14.689 3.19-15.402 3.554c-3.047 1.555-4.256 5.287-2.701 8.333 1.556 3.048 5.286 4.258 8.334 2.701.043-.022 4.543-2.199 9.769-2.199 5.278 0 9.754 2.192 9.768 2.199.902.461 1.864.679 2.811.679 2.254 0 4.427-1.234 5.522-3.38 1.556-3.047.347-6.778-2.7-8.333z"/><path d="m262.906 320.657c-3.421 0-6.195 2.774-6.195 6.195 0 5.15-4.19 9.34-9.34 9.34s-9.34-4.19-9.34-9.34c0-3.421-2.774-6.195-6.195-6.195s-6.195 2.774-6.195 6.195c0 11.982 9.748 21.729 21.729 21.729s21.729-9.748 21.729-21.729c.001-3.422-2.772-6.195-6.193-6.195z"/><path d="m345.404 169.712c3.421 0 6.195-2.774 6.195-6.195v-9.911c0-3.421-2.774-6.195-6.195-6.195s-6.195 2.774-6.195 6.195v9.911c0 3.421 2.774 6.195 6.195 6.195z"/><path d="m380.695 196.282c3.421 0 6.195-2.774 6.195-6.195v-9.91c0-3.421-2.774-6.195-6.195-6.195s-6.195 2.774-6.195 6.195v9.91c0 3.421 2.774 6.195 6.195 6.195z"/><path d="m314.018 203.962c3.421 0 6.195-2.774 6.195-6.195v-9.911c0-3.421-2.774-6.195-6.195-6.195s-6.194 2.774-6.194 6.195v9.911c0 3.421 2.773 6.195 6.194 6.195z"/></g><path d="m174.399 161.465c-4.401 0-8.479-2.836-9.855-7.259-1.694-5.444 1.346-11.232 6.79-12.926 2.284-.711 4.638-1.339 6.999-1.867 5.567-1.245 11.084 2.256 12.33 7.82 1.245 5.564-2.256 11.085-7.82 12.33-1.815.406-3.623.888-5.373 1.433-1.021.318-2.055.469-3.071.469z" fill="#fff"/><path d="m132.722 195.459c-1.402 0-2.827-.287-4.19-.893-5.21-2.317-7.555-8.419-5.238-13.629 3.679-8.27 9.368-15.871 16.455-21.982 4.317-3.723 10.837-3.241 14.561 1.076 3.723 4.318 3.242 10.837-1.077 14.561-4.795 4.135-8.623 9.23-11.072 14.736-1.71 3.846-5.484 6.131-9.439 6.131z" fill="#fff"/></g><g><path d="m55.308 19.604 8.769 24.658c.376 1.056 1.119 1.892 2.057 2.315l21.908 9.87c3.095 1.394 3.095 6.326 0 7.72l-21.908 9.87c-.938.423-1.681 1.259-2.057 2.315l-8.769 24.658c-1.239 3.484-5.62 3.484-6.859 0l-8.769-24.658c-.375-1.056-1.119-1.892-2.057-2.315l-21.908-9.87c-3.095-1.394-3.095-6.326 0-7.72l21.908-9.87c.938-.423 1.681-1.259 2.057-2.315l8.769-24.658c1.238-3.483 5.62-3.483 6.859 0z" fill="#bdf4e3"/><ellipse cx="490.582" cy="111.009" fill="#84eac4" rx="19.148" ry="19.148" transform="matrix(.189 -.982 .982 .189 288.803 571.747)"/><ellipse cx="10.379" cy="146.114" fill="#84eac4" rx="8.109" ry="8.109" transform="matrix(.141 -.99 .99 .141 -135.742 135.831)"/><path d="m425.664 1.938 6.505 18.291c.279.783.83 1.404 1.526 1.717l16.251 7.322c2.296 1.035 2.296 4.692 0 5.727l-16.251 7.322c-.696.313-1.247.934-1.526 1.717l-6.505 18.291c-.919 2.584-4.169 2.584-5.088 0l-6.505-18.291c-.279-.783-.83-1.404-1.526-1.717l-16.251-7.322c-2.296-1.034-2.296-4.692 0-5.727l16.251-7.322c.696-.314 1.247-.934 1.526-1.717l6.505-18.291c.919-2.584 4.169-2.584 5.088 0z" fill="#bdf4e3"/></g></g></svg>