<svg id="Capa_1" enable-background="new 0 0 512 512" height="512" viewBox="0 0 512 512" width="512" xmlns="http://www.w3.org/2000/svg"><g><g><path d="m379.463 501.851v-32.569c0-66.534-53.937-120.471-120.471-120.471-66.534 0-120.471 53.937-120.471 120.471v32.569z" fill="#fff"/><path d="m308.972 456.872c-9.376-8.594-3.125-51.148-3.125-51.148-7.904-5.676-16.879-9.956-26.564-12.474v41.207c-12.738 9.973-25.022 10.861-36.722 0v-42.098c-10.537 2.191-20.322 6.434-28.909 12.307 0 0 4.688 42.049-2.344 51.425s-31.954 3.906-31.954 3.906c-.5 3.625-.779 7.32-.779 11.083v30.773h160.833v-30.773c0-4.033-.314-7.99-.887-11.864.001 0-20.173 6.25-29.549-2.344z" fill="#8bb6ef"/><path d="m320.098 460.683h18.642c-3.045-23.561-16.296-43.914-35.167-56.512v28.592c1.773 5.587 2.9 11.496 3.303 17.623 4.717 2.689 9.066 6.716 13.222 10.297z" fill="#eebdfa"/><g fill="#8388ef"><path d="m279.282 398.115c11.38 8.515 20.094 20.902 24.524 35.406-.04-13.634 2.04-27.797 2.04-27.797-7.904-5.676-16.879-9.956-26.564-12.474z"/><path d="m338.521 459.216s-20.174 6.25-29.549-2.344c-.741-.679-1.384-1.571-1.94-2.636.006.379.02.756.02 1.136v6.971c0 10.853-8.797 19.65-19.65 19.65h-108.826v19.86h160.833v-30.773c0-4.033-.315-7.991-.888-11.864z"/></g><g fill="#b07676"><ellipse cx="434.018" cy="300.875" rx="39.896" ry="39.896" transform="matrix(.973 -.23 .23 .973 -57.517 107.766)"/><ellipse cx="83.966" cy="300.875" rx="39.896" ry="39.896" transform="matrix(.973 -.23 .23 .973 -66.881 27.34)"/><path d="m292.989 399.47h-67.993c-84.491 0-152.984-68.493-152.984-152.984 0-84.49 68.493-152.984 152.984-152.984h67.993c84.491 0 152.984 68.493 152.984 152.984-.001 84.49-68.494 152.984-152.984 152.984z"/></g><path d="m292.989 93.411h-19.618c68.497 0 124.026 55.528 124.026 124.025v10.533c0 68.497-55.528 124.026-124.026 124.026h-77.333c-65.55 0-119.216-50.854-123.713-115.261-.199 3.196-.312 6.414-.312 9.66v.001c0 84.49 68.493 152.984 152.984 152.984h67.993c84.491 0 152.984-68.493 152.984-152.984v-.001c-.002-84.49-68.495-152.983-152.985-152.983z" fill="#a45775"/><path d="m72.413 258.06c-2.968-9.106-3.243-27.643-3.243-27.643 1.8-84.231 70.637-151.961 155.299-151.961 33.22-23.819 66.44-36.574 99.661-38.262 84.663 0 122.88 105.992 124.68 190.223 0 0 .385 16.34-5.159 25.58l-20.88 2.063c-13.951-2.612-22.946-56.188-39.182-73.928-19.957-21.807-48.378 12.507-124.597 12.507s-106.909-33.435-128.439-13.825c-20.129 18.333-16.105 66.386-36.418 75.246z" fill="#a183e2"/><path d="m83.966 345.455-25.866 72.786c-.753 2.118-.37 4.474 1.015 6.245l21.331 27.282c1.789 2.289 5.252 2.289 7.042 0l21.331-27.282c1.385-1.771 1.768-4.127 1.015-6.245z" fill="#84eac4"/><path d="m434.018 345.455-25.866 72.786c-.753 2.118-.37 4.474 1.015 6.245l21.331 27.282c1.789 2.289 5.252 2.289 7.042 0l21.331-27.282c1.385-1.771 1.768-4.127 1.015-6.245z" fill="#84eac4"/></g><g><g fill="#440b29"><ellipse cx="167.722" cy="309.653" rx="17.079" ry="17.079" transform="matrix(.707 -.707 .707 .707 -169.833 209.292)"/><path d="m350.263 292.574c-9.432 0-17.079 7.646-17.079 17.078s7.646 17.079 17.079 17.079c9.432 0 17.078-7.646 17.078-17.079 0-9.432-7.646-17.078-17.078-17.078z"/><path d="m184.326 253.68c-.767-.391-7.755-3.828-16.605-3.828s-15.837 3.436-16.604 3.828c-2.995 1.529-4.184 5.197-2.655 8.192 1.529 2.996 5.197 4.183 8.191 2.656.049-.025 5.059-2.497 11.068-2.497 5.986 0 11.044 2.485 11.068 2.497.886.452 1.832.667 2.763.667 2.216 0 4.352-1.214 5.428-3.323 1.53-2.995.341-6.663-2.654-8.192z"/><path d="m366.867 253.681c-.767-.392-7.753-3.828-16.604-3.828s-15.837 3.436-16.604 3.828c-2.985 1.523-4.165 5.166-2.655 8.158 1.509 2.992 5.167 4.196 8.166 2.702.051-.025 5.107-2.509 11.093-2.509s11.043 2.484 11.068 2.496c.886.453 1.832.668 2.763.668 2.215 0 4.352-1.214 5.428-3.322 1.529-2.997.341-6.664-2.655-8.193z"/><path d="m276.07 303.563c-3.363 0-6.089 2.727-6.089 6.089 0 6.06-4.93 10.989-10.989 10.989-6.06 0-10.989-4.93-10.989-10.989 0-3.363-2.727-6.089-6.089-6.089-3.363 0-6.089 2.727-6.089 6.089 0 12.775 10.393 23.168 23.168 23.168s23.168-10.393 23.168-23.168c-.001-3.362-2.728-6.089-6.091-6.089z"/><path d="m314.885 165.109c3.363 0 6.089-2.727 6.089-6.089v-9.43c0-3.363-2.727-6.089-6.089-6.089-3.363 0-6.089 2.726-6.089 6.089v9.43c0 3.363 2.726 6.089 6.089 6.089z"/><path d="m345.42 132.576c3.363 0 6.089-2.727 6.089-6.089v-9.429c0-3.363-2.727-6.089-6.089-6.089s-6.089 2.727-6.089 6.089v9.429c0 3.362 2.727 6.089 6.089 6.089z"/><path d="m384.517 144.562c3.363 0 6.089-2.727 6.089-6.089v-9.43c0-3.363-2.727-6.089-6.089-6.089s-6.089 2.727-6.089 6.089v9.43c0 3.362 2.726 6.089 6.089 6.089z"/><path d="m447.928 348.938c20.846-6.043 36.135-25.295 36.135-48.063 0-20.074-11.887-37.414-28.987-45.379 4.075-10.832 3.919-23.65 3.881-25.296-1.036-48.439-12.468-96.297-31.366-131.302-24.319-45.044-60.094-68.853-103.46-68.853-.13 0-.26.002-.389.007-49.496 1.899-91.507 30.099-102.714 38.291-42.298.86-82.09 17.565-112.385 47.259-31.069 30.452-48.69 71.151-49.619 114.598-.002.123-.003.245-.001.368.026 1.751.296 15.303 2.445 25.627-16.322 8.252-27.545 25.175-27.545 44.68 0 22.768 15.289 42.019 36.135 48.063l-23.209 65.307c-2.131 6.001-1.062 12.578 2.86 17.595l21.331 27.284c3.133 4.004 7.845 6.301 12.929 6.3 5.083 0 9.795-2.298 12.925-6.302l21.332-27.283c3.923-5.018 4.991-11.598 2.857-17.598l-23.21-65.313c.071-.021.144-.038.214-.059 14.858 18.383 33.625 33.478 55.02 44.026-15.552 21.496-24.735 47.886-24.735 76.386v32.569c0 5.605 4.544 10.149 10.149 10.149s10.149-4.544 10.149-10.149v-32.569c0-25.792 8.905-49.537 23.794-68.341 8.912 3.04 18.172 5.318 27.698 6.78-17.012 15.807-27.676 38.359-27.676 63.358v34.531c0 3.363 2.727 6.089 6.089 6.089 3.363 0 6.089-2.727 6.089-6.089v-34.531c0-1.018.026-2.03.067-3.039h13.685c13.482 0 24.449-10.968 24.449-24.45v-33.997c.709.009 1.417.025 2.129.025h10.695v14.819c0 13.482 10.968 24.45 24.45 24.45s24.449-10.968 24.449-24.45v-14.819h8.398c1.48 0 2.954-.026 4.425-.065v34.037c0 13.482 10.968 24.45 24.45 24.45h11.393c.041 1.008.062 2.021.062 3.039v34.531c0 3.363 2.727 6.089 6.089 6.089 3.363 0 6.089-2.727 6.089-6.089v-34.531c0-25.004-10.673-47.55-27.694-63.353 9.533-1.461 18.796-3.751 27.714-6.793 14.89 18.806 23.797 42.556 23.797 68.35v32.569c0 5.605 4.544 10.149 10.149 10.149s10.149-4.544 10.149-10.149v-32.569c0-28.499-9.179-54.892-24.73-76.387 21.395-10.55 40.156-25.652 55.013-44.038.073.022.145.046.217.066l-23.209 65.322c-2.131 6.001-1.062 12.578 2.86 17.595l21.331 27.284c3.133 4.004 7.844 6.301 12.929 6.3 5.083 0 9.795-2.298 12.925-6.302l21.332-27.283c3.923-5.018 4.991-11.598 2.857-17.598zm-13.91-18.316c-.439 0-.875-.013-1.31-.032 9.634-15.947 16.614-33.665 20.33-52.544 6.545 5.458 10.726 13.659 10.726 22.829.001 16.403-13.343 29.747-29.746 29.747zm9.039-63.82c-.413-.146-.828-.291-1.245-.425l1.312-.13c-.024.185-.043.37-.067.555zm-218.588-178.196c2.283 0 4.508-.777 6.299-2.192.432-.341 43.685-34.076 93.554-36.071 35.863.069 64.595 19.649 85.406 58.198 17.42 32.266 27.966 76.767 28.934 122.099.08 3.954-.426 10.701-1.941 15.844l-11.87 1.173c-3.712-4.225-9.267-19.004-12.69-28.113-6.028-16.037-12.26-32.619-21.086-42.262-14.751-16.119-33.048-10.495-54.239-3.986-18.121 5.568-42.939 13.194-77.845 13.194-35.327 0-59.967-7.336-79.766-13.23-22.423-6.676-40.136-11.949-55.506 2.051-11.883 10.824-16.533 28.583-20.637 44.251-2.999 11.453-6.366 24.311-11.597 28.35h-10.862c-.816-5.837-1.225-12.967-1.302-17.466 1.771-78.23 66.846-141.84 145.148-141.84zm-170.249 212.269c0-9.168 4.181-17.363 10.724-22.822 3.714 18.865 10.685 36.575 20.309 52.513-.429.018-.853.056-1.286.056-16.403 0-29.747-13.344-29.747-29.747zm29.747 136.01-13.627-17.428 13.627-38.344 13.626 38.344zm114.45 18.976h-12.181c3.415-16.339 12.217-30.716 24.451-41.202v28.931c.001 6.766-5.504 12.271-12.27 12.271zm73.994-31.423c0 6.766-5.504 12.271-12.271 12.271s-12.272-5.505-12.272-12.271v-14.819h24.542v14.819zm59.334 31.423h-9.881c-6.766 0-12.272-5.505-12.272-12.271v-26.88c11.039 10.274 18.955 23.853 22.153 39.151zm-38.757-66.54h-67.993c-71.374 0-130.679-52.626-141.174-121.112h10.315c1.396 0 2.778-.288 4.058-.846 15.076-6.576 19.879-24.92 24.525-42.659 3.554-13.575 7.23-27.611 14.668-34.387 6.332-5.767 14.454-4.032 36.048 2.397 19.951 5.94 47.273 14.074 85.557 14.074 37.954 0 64.456-8.143 83.807-14.089 21.709-6.672 27.815-7.711 33.303-1.714 6.178 6.751 11.959 22.131 17.059 35.7 8.168 21.731 14.619 38.895 27.744 41.351.617.116 1.242.174 1.867.174.333 0 .666-.016.998-.049l10.56-1.043c-10.03 69.016-69.588 122.203-141.342 122.203zm141.03 47.564-13.627-17.428 13.627-38.344 13.625 38.344z"/></g><path d="m349.712 92.137c-.262 0-.525-.01-.791-.031-3.005-.231-6.031-.351-8.99-.354-5.606-.007-10.144-4.556-10.137-10.161.007-5.601 4.55-10.136 10.149-10.136h.012c3.471.005 7.012.144 10.526.415 5.589.431 9.769 5.31 9.339 10.899-.41 5.322-4.857 9.368-10.108 9.368z" fill="#fff"/><path d="m278.379 110.032c-3.209 0-6.366-1.518-8.338-4.352-3.202-4.6-2.069-10.925 2.531-14.128 11.569-8.053 24.797-13.792 39.32-17.059 5.469-1.228 10.898 2.206 12.128 7.674 1.231 5.468-2.205 10.898-7.674 12.129-11.948 2.688-22.774 7.369-32.178 13.915-1.766 1.23-3.788 1.821-5.789 1.821z" fill="#fff"/></g><g><path d="m47.442 2.568 8.62 24.239c.369 1.038 1.1 1.86 2.022 2.276l21.535 9.703c3.042 1.371 3.042 6.218 0 7.589l-21.535 9.703c-.922.415-1.653 1.238-2.022 2.276l-8.62 24.239c-1.218 3.424-5.525 3.424-6.743 0l-8.62-24.239c-.369-1.038-1.1-1.86-2.022-2.276l-21.535-9.704c-3.042-1.371-3.042-6.218 0-7.589l21.535-9.703c.922-.416 1.653-1.238 2.022-2.276l8.62-24.239c1.218-3.423 5.525-3.423 6.743.001z" fill="#cab4ef"/><ellipse cx="153.886" cy="19.234" fill="#a183e2" rx="18.823" ry="18.823" transform="matrix(.189 -.982 .982 .189 105.898 166.706)"/><circle cx="18.873" cy="146.452" fill="#a183e2" r="7.971"/><path d="m480.198 22.148 6.394 17.98c.274.77.816 1.38 1.5 1.688l15.975 7.197c2.257 1.017 2.257 4.613 0 5.629l-15.975 7.197c-.684.308-1.226.918-1.5 1.688l-6.394 17.98c-.904 2.54-4.098 2.54-5.002 0l-6.394-17.98c-.274-.77-.816-1.38-1.5-1.688l-15.975-7.197c-2.257-1.017-2.257-4.612 0-5.629l15.975-7.197c.684-.308 1.226-.918 1.5-1.688l6.394-17.98c.904-2.54 4.099-2.54 5.002 0z" fill="#cab4ef"/></g></g></svg>