<svg id="Capa_1" enable-background="new 0 0 512 512" height="512" viewBox="0 0 512 512" width="512" xmlns="http://www.w3.org/2000/svg"><g><g><path d="m419.472 379.46c-10.737-16.148-27.854-18.645-42.136-13.565 10.981 20.548 25.138 40.151 48.683 46.646 12.237 3.475 24.076 2.55 35.584-.205-2.938-14.247-25.1-7.261-42.131-32.876z" fill="#f7e266"/><path d="m361.901 375.483c-2.486 2.444-4.601 5.177-6.211 8.123-11.129 20.356-3.549 45.698 16.707 57.009 15.936 8.898 43.232 6.173 63.483-1.305-33.109-7.754-63.243-31.924-73.979-63.827z" fill="#e58bbd"/><path d="m426.018 412.542c-23.545-6.496-37.702-26.099-48.683-46.646-5.826 2.072-11.178 5.404-15.435 9.588 10.736 31.903 40.87 56.073 73.979 63.827 14.251-5.262 25.014-12.876 25.869-20.454.291-2.585.224-4.719-.146-6.518-11.507 2.753-23.347 3.678-35.584.203z" fill="#84eac4"/><path d="m370.451 501.944v-29.729c0-60.732-49.233-109.966-109.966-109.966-60.732 0-109.966 49.233-109.966 109.966v29.729z" fill="#b2e7f1"/><path d="m333.889 501.944v-28.09c0-40.54-32.864-73.404-73.404-73.404-40.54 0-73.404 32.864-73.404 73.404v28.09z" fill="#b2e7f1"/><path d="m268.187 400.854c21.232 9.549 36.166 32.213 36.166 58.662v6.364c0 9.906-8.03 17.936-17.936 17.936h-99.337v18.128h146.808v-28.089c.001-37.939-28.782-69.15-65.701-73.001z" fill="#a7adf1"/><ellipse cx="420.248" cy="318.493" fill="#f1c7b6" rx="36.417" ry="36.417" transform="matrix(.707 -.707 .707 .707 -102.12 390.445)"/><ellipse cx="100.721" cy="318.493" fill="#f1c7b6" rx="36.417" ry="36.417" transform="matrix(.391 -.92 .92 .391 -231.787 286.547)"/><path d="m291.517 408.49h-62.064c-77.123 0-139.643-62.521-139.643-139.643 0-77.123 62.521-139.643 139.643-139.643h62.064c77.123 0 139.643 62.52 139.643 139.643 0 77.122-62.52 139.643-139.643 139.643z" fill="#f1c7b6"/><path d="m291.517 130.471h-17.907c62.525 0 113.211 50.686 113.211 113.21v9.614c0 62.524-50.686 113.211-113.211 113.211h-70.59c-59.834 0-108.82-46.42-112.926-105.21-.182 2.917-.285 5.855-.285 8.818 0 77.123 62.521 139.644 139.644 139.644h62.064c77.123 0 139.644-62.521 139.644-139.644-.001-77.123-62.521-139.643-139.644-139.643z" fill="#e795b6"/><g fill="#b2e7f1"><path d="m430.494 103.286c8.002 2.927 14.055 15.411 13.114 39.651-1.029 26.497-34.034 55.816-34.034 55.816l-21.198-19.854s-9.039-31.804 6.989-52.462c15.106-19.468 27.003-26.124 35.129-23.151z"/><path d="m90.475 103.286c-8.002 2.927-14.055 15.411-13.114 39.651 1.028 26.497 34.034 55.816 34.034 55.816l21.198-19.854s9.039-31.804-6.989-52.462c-15.106-19.468-27.003-26.124-35.129-23.151z"/><path d="m293.231 118.101h-68.254c-84.815 0-153.571 68.756-153.571 153.571 0 19.203 18.855 35.27 19.615 33.917 26.309-46.811 76.435-78.439 133.956-78.439h68.254c57.41 0 107.454 31.506 133.804 78.168 3.764 6.666 19.768-14.443 19.768-33.646 0-84.815-68.757-153.571-153.572-153.571z"/></g><path d="m294.612 115.86h-25.321c75.134 0 136.041 50.483 136.041 112.757-.164 9.81-9.488 6.729-13.901 2.133-25.945-27.026-71.284-34.823-122.141-34.823h-60.464c-50.955 0-86.761 31.011-118.665 57.593-7.344 6.119-12.538-.468-15.238-9.704-1.399 8.331-2.138 16.886-2.138 25.615 0 19.204 18.855 35.27 19.615 33.917 26.309-46.811 76.435-78.439 133.956-78.439h68.255c57.41 0 107.454 31.506 133.804 78.168 3.764 6.666 19.768-14.443 19.768-33.646 0-84.815-68.756-153.571-153.571-153.571z" fill="#a7adf1"/><path d="m251.768 70.336-20.93 109.949c0 28.811 57.645 28.811 57.645 0l-20.93-109.949c-1.658-8.71-14.127-8.71-15.785 0z" fill="#f0c4db"/><path d="m267.553 70.336c-1.106-5.807-7.015-7.737-11.324-5.8 1.677.763 3.027 2.558 3.205 5.342l5.796 90.305c-1.533 17.275-22.591 19.929-32.6 10.684l-1.793 9.418c0 28.811 57.645 28.811 57.645 0z" fill="#e69fd5"/><path d="m207.774 228.767c-15.765 18.098-14.316 30.668-4.949 37.474 8.836 6.42 21.562 5.409 36.21-9.918.019.329.046.645.069.967 7.138-18.971 11.579-38.465 20.41-56.848-.007.001-.014.001-.021.002-9.72-6.055-36.177 10.481-51.719 28.323z" fill="#e58bbd"/><path d="m261.497 200.431c-.303-.037-.607-.068-.914-.068-.358 0-.714.029-1.069.079-8.831 18.382-13.271 37.876-20.41 56.848 1.396 19.194 10.476 26.822 21.478 26.822 11.15 0 20.329-7.828 21.534-27.595.17.176.338.341.507.514-5.98-19.178-10.995-38.873-20.68-56.831-.148.077-.305.144-.446.231z" fill="#84eac4"/><path d="m313.195 228.767c-15.305-17.57-41.183-33.857-51.251-28.567 9.685 17.959 14.701 37.654 20.68 56.831 14.357 14.644 26.823 15.528 35.52 9.21 9.366-6.806 10.816-19.377-4.949-37.474z" fill="#f7e266"/><path d="m265.3 463.563h-5.81c-6.446 0-11.45-5.515-10.699-11.794l3.239-27.095c.607-5.074 4.991-8.899 10.201-8.899 5.164 0 9.525 3.76 10.186 8.782l3.567 27.089c.831 6.319-4.187 11.917-10.684 11.917z" fill="#8bb6ef"/></g><g><g fill="#440b29"><path d="m451.674 391.663c-8.004-3.156-16.281-6.42-23.828-17.771-2.247-3.38-4.781-6.357-7.556-8.928 25.606-.023 46.431-20.86 46.431-46.472 0-12.128-4.686-23.172-12.324-31.454 1.552-5.127 2.462-10.403 2.462-15.366 0-30.67-8.49-59.392-23.231-83.953 9.501-11.934 19.398-28.133 20.03-44.393 1.407-36.269-11.744-46.572-19.708-49.485-13.452-4.918-29.104 3.974-46.528 26.43-3.143 4.051-5.486 8.409-7.216 12.864-25.212-15.886-55.036-25.091-86.973-25.091h-12.358l-7.393-38.838c-1.282-6.734-6.965-11.437-13.82-11.437-6.854 0-12.537 4.703-13.819 11.437l-7.393 38.838h-13.47c-31.01 0-60.033 8.671-84.771 23.716-1.669-3.975-3.839-7.856-6.657-11.489-17.425-22.458-33.079-31.35-46.528-26.43-7.965 2.914-21.116 13.216-19.708 49.485.597 15.376 9.481 30.697 18.48 42.411-15.486 24.991-24.442 54.435-24.442 85.935 0 6.007 1.419 11.827 3.63 17.165-6.694 8.053-10.732 18.389-10.732 29.655 0 25.625 20.847 46.473 46.472 46.473 4.373 0 8.598-.626 12.611-1.763 13.387 16.446 30.189 30.005 49.318 39.585-13.961 19.612-22.187 43.574-22.187 69.428v29.729c0 5.554 4.502 10.056 10.056 10.056s10.056-4.502 10.056-10.056v-29.729c0-23.159 7.928-44.496 21.203-61.458 7.556 2.546 15.381 4.501 23.419 5.815-14.881 14.441-24.149 34.631-24.149 56.956v31.78c0 3.332 2.702 6.033 6.034 6.033s6.033-2.702 6.033-6.033v-31.78c0-22.8 11.388-42.985 28.772-55.18 2.507.126 5.029.196 7.567.196h18.254c-.853 1.654-1.436 3.474-1.668 5.412l-3.239 27.094c-.557 4.661.919 9.358 4.051 12.887 3.192 3.595 7.798 5.657 12.639 5.657h5.81c4.879 0 9.509-2.089 12.704-5.732 3.135-3.575 4.579-8.315 3.961-13.006l-3.567-27.089c-.246-1.868-.825-3.622-1.654-5.223h14.773c2.538 0 5.059-.071 7.566-.196 17.384 12.194 28.772 32.38 28.772 55.18v31.78c0 3.332 2.702 6.033 6.033 6.033 3.332 0 6.034-2.702 6.034-6.033v-31.78c0-22.327-9.272-42.515-24.155-56.956 8.039-1.315 15.866-3.267 23.423-5.813 13.275 16.961 21.204 38.296 21.204 61.455v29.729c0 5.554 4.502 10.056 10.056 10.056s10.056-4.502 10.056-10.056v-29.729c0-6.215-.483-12.318-1.398-18.281 6.059 1.577 12.709 2.302 19.586 2.302 17.831 0 37.15-4.843 51.428-12.18 13.129-6.746 20.604-15.071 21.619-24.074 2.198-19.536-11.203-24.821-20.071-28.318zm-182.742 64.245c-.531.605-1.709 1.621-3.632 1.621h-5.81c-1.908 0-3.083-1.003-3.614-1.601-.496-.559-1.297-1.748-1.094-3.444l3.239-27.094c.245-2.042 2.054-3.582 4.21-3.582 2.131 0 3.938 1.52 4.204 3.536l3.567 27.089c.224 1.706-.575 2.909-1.07 3.475zm166.967-27.406c-.753.316-1.527.622-2.309.923-.768-.175-1.544-.354-2.304-.526-20.425-4.625-36.939-8.376-54.636-36.989 1.358-.943 2.703-1.904 4.028-2.89 16.911 20.338 42.157 33.047 65.129 33.047.617 0 1.229-.029 1.843-.048-2.449 1.873-6.18 4.145-11.751 6.483zm7.225-18.593c-18.575-.987-39.149-11.899-53.053-28.486 2.531-2.219 4.99-4.519 7.367-6.901 4.638 1.341 9.569 4.353 13.66 10.506 10.566 15.891 23.224 21.389 32.026 24.881zm3.485-91.416c0 14.473-11.724 26.254-26.174 26.356 5.393-9.115 9.845-18.85 13.227-29.067 3.578-1.346 7.173-4.398 10.432-8.501 1.61 3.404 2.515 7.203 2.515 11.212zm-43.298-185.892c14.327-18.464 22.366-20.371 23.729-19.871 2.47.903 7.314 9.38 6.52 29.817-.343 8.849-5.676 18.89-12.01 27.713-7.181-9.067-15.298-17.362-24.209-24.73 1.11-4.588 2.975-9.069 5.97-12.929zm-110.079-4.444c79.135 0 143.515 64.381 143.515 143.516 0 7.213-3.157 14.937-6.211 20.033-26.764-41.207-70.718-68.174-119.249-73.584-7.812-7.365-17.169-13.955-26.012-18.515 5.597-4.596 9.241-11.059 9.241-19.324 0-.379-.036-.756-.107-1.128l-9.708-50.999h8.531zm-80.908 104.573c10.409-11.95 26.262-22.178 37.027-25.951.009.002.018.004.027.006-7.743 17.437-14.589 33.791-15.943 46.631-6.523 6.47-17.672 14.765-27.063 7.944-2.668-1.938-4.12-4.252-4.44-7.071-.623-5.495 3.067-13.151 10.392-21.559zm66.522-70.806-41.182 14.763 4.363-22.92 33.056-11.609zm-6.045-31.755-28.165 9.892 4.706-24.719 19.229-7.396zm-32.816 58.505 41.145-14.75 1.31 6.88c-.243 6.65-5.133 10.97-11.463 13.209-1.807-.433-3.523-.717-5.107-.818-1.826-.116-9.007-.092-10.65.008-1.882.115-3.944.484-6.132 1.061-3.655-1.179-6.883-3.028-9.103-5.59zm5.251 69.098c.009-10.949 7.339-28.445 15.179-46.108.263.604.527 1.21.788 1.808 7.125 16.347 15.202 34.874 14.649 44.673-.014.256-.007.507.01.756-1.023 9.311-4.621 19.176-15.277 19.176-10.959 0-14.46-10.421-15.363-19.997.003-.102.013-.203.014-.308zm42.518-4.136c-1.209-12.214-8.17-28.192-15.49-44.985-.29-.666-.583-1.339-.876-2.011 10.756 3.632 26.571 13.822 37.257 26.089 7.324 8.408 11.015 16.065 10.392 21.558-.32 2.82-1.772 5.134-4.44 7.072-9.313 6.765-20.353-1.346-26.843-7.723zm-28.094-183.799c1.099 0 1.76.547 1.966 1.627l4.652 24.436-14.28 5.492 5.697-29.928c.206-1.079.866-1.627 1.965-1.627zm-172.251 72.71c-.794-20.436 4.05-28.913 6.52-29.816 1.371-.496 9.402 1.404 23.729 19.871 2.6 3.351 4.347 7.155 5.496 11.084-9.203 7.337-17.6 15.643-25.036 24.764-5.747-8.354-10.388-17.63-10.709-25.903zm137.568-14.39h9.642l-9.708 50.999c-.071.372-.107.75-.107 1.128 0 8.587 3.93 15.234 9.902 19.857-8.421 4.46-17.229 10.701-24.674 17.654-49.121 4.519-93.832 31.107-121.271 72.257-3.626-4.769-7.299-11.477-7.299-18.379 0-79.135 64.38-143.516 143.515-143.516zm-150.617 190.336c0-4.05.919-7.889 2.559-11.321 3.733 3.953 7.412 6.711 10.121 7.819 3.413 10.508 7.96 20.507 13.493 29.858-14.449-.102-26.173-11.884-26.173-26.356zm30.055-15.622c20.377-31.493 52.165-53.529 88.114-61.902-2.24 5.177-3.109 10.082-2.588 14.679.703 6.195 3.932 11.547 9.337 15.474 5.2 3.778 18.092 10.05 35.489-2.904 5.366 20.149 20.654 21.928 25.815 21.928 5.142 0 20.383-1.767 25.78-21.805 17.318 12.794 30.153 6.541 35.328 2.781 5.406-3.928 8.634-9.279 9.337-15.474.496-4.373-.279-9.028-2.283-13.927 35.814 9.182 67.248 31.994 86.953 64.177-15.978 53.457-65.598 92.536-124.182 92.536h-62.064c-59.681 0-110.055-40.562-125.036-95.563zm272.884 128.964c-1.852-1.034-3.562-2.227-5.128-3.548-3.044-7.709-6.865-15.029-11.364-21.866-.146-1.616-.171-3.245-.069-4.874 1.939-1.016 3.853-2.073 5.741-3.17 14.134 22.733 28.23 31.947 42.675 37.063-12.208 1.493-24.156.694-31.855-3.605z"/><ellipse cx="177.173" cy="326.505" rx="15.589" ry="15.589" transform="matrix(.231 -.973 .973 .231 -181.458 423.354)"/><circle cx="343.797" cy="326.505" r="15.589"/><path d="m192.545 274.99c-.711-.363-7.183-3.546-15.372-3.546s-14.661 3.183-15.372 3.546c-2.957 1.509-4.124 5.116-2.631 8.081s5.116 4.157 8.088 2.682c.045-.023 4.571-2.241 9.915-2.241 5.343 0 9.869 2.218 9.886 2.227.879.448 1.815.661 2.738.661 2.195 0 4.312-1.202 5.379-3.292 1.514-2.969.337-6.603-2.631-8.118z"/><path d="m333.882 285.753c.045-.023 4.571-2.241 9.914-2.241s9.869 2.218 9.887 2.227c.878.448 1.815.661 2.738.661 2.195 0 4.313-1.202 5.379-3.292 1.515-2.968.337-6.602-2.631-8.117-.711-.363-7.183-3.546-15.372-3.546s-14.661 3.183-15.372 3.546c-2.956 1.509-4.124 5.116-2.63 8.081 1.491 2.963 5.115 4.156 8.087 2.681z"/><path d="m260.484 348.127c11.923 0 21.623-9.7 21.623-21.623 0-3.332-2.702-6.034-6.034-6.034s-6.034 2.702-6.034 6.034c0 5.269-4.287 9.556-9.556 9.556s-9.555-4.286-9.555-9.556c0-3.332-2.702-6.034-6.034-6.034s-6.033 2.702-6.033 6.034c.001 11.924 9.701 21.623 21.623 21.623z"/><path d="m368.392 208.437c3.332 0 6.033-2.701 6.033-6.033v-10.051c0-3.332-2.701-6.033-6.033-6.033s-6.034 2.701-6.034 6.033v10.051c.001 3.332 2.702 6.033 6.034 6.033z"/><path d="m394.152 230.207c3.332 0 6.034-2.702 6.034-6.034v-10.05c0-3.332-2.702-6.033-6.034-6.033s-6.033 2.702-6.033 6.033v10.05c0 3.332 2.701 6.034 6.033 6.034z"/></g><path d="m179.981 174.493c-4.164 0-8.057-2.606-9.499-6.762-1.821-5.247.956-10.976 6.203-12.797 3.993-1.386 8.027-2.419 11.991-3.072 5.477-.898 10.653 2.808 11.556 8.288s-2.808 10.654-8.288 11.556c-2.836.467-5.752 1.217-8.666 2.228-1.091.378-2.204.559-3.297.559z" fill="#fff"/><path d="m135.125 207.435c-2.21 0-4.433-.725-6.29-2.216-4.33-3.477-5.021-9.807-1.544-14.137 3.921-4.882 8.389-9.523 13.662-14.19 4.159-3.681 10.514-3.293 14.195.866 3.681 4.158 3.293 10.514-.865 14.195-4.411 3.904-8.11 7.738-11.31 11.723-1.987 2.473-4.905 3.759-7.848 3.759z" fill="#fff"/></g><g><path d="m153.859 2.545 8.541 24.017c.366 1.028 1.09 1.843 2.003 2.255l21.338 9.614c3.015 1.358 3.015 6.161 0 7.52l-21.338 9.614c-.914.412-1.638 1.227-2.003 2.255l-8.541 24.017c-1.207 3.393-5.474 3.393-6.681 0l-8.541-24.017c-.366-1.028-1.09-1.843-2.003-2.255l-21.338-9.614c-3.015-1.358-3.015-6.161 0-7.52l21.338-9.614c.914-.412 1.638-1.226 2.003-2.255l8.541-24.017c1.207-3.393 5.474-3.393 6.681 0z" fill="#b2e7f1"/><ellipse cx="380.551" cy="47.789" fill="#8bb6ef" rx="18.65" ry="18.651" transform="matrix(.19 -.982 .982 .19 261.422 412.359)"/><path d="m459.502 34.123c0 4.362-3.536 7.898-7.898 7.898s-7.898-3.536-7.898-7.898 3.536-7.898 7.898-7.898 7.898 3.536 7.898 7.898z" fill="#8bb6ef"/><path d="m70.301 406.444 6.336 17.815c.271.763.808 1.367 1.486 1.673l15.828 7.131c2.236 1.008 2.236 4.57 0 5.578l-15.828 7.131c-.678.305-1.215.91-1.486 1.672l-6.336 17.815c-.895 2.517-4.061 2.517-4.956 0l-6.336-17.815c-.271-.763-.808-1.367-1.486-1.672l-15.828-7.131c-2.236-1.008-2.236-4.57 0-5.578l15.828-7.131c.678-.305 1.215-.91 1.486-1.673l6.336-17.815c.895-2.517 4.061-2.517 4.956 0z" fill="#b2e7f1"/></g></g></svg>