<svg id="Capa_1" enable-background="new 0 0 512 512" height="512" viewBox="0 0 512 512" width="512" xmlns="http://www.w3.org/2000/svg"><g><g><path d="m408.631 433.581c27.055-16.128 41.672-41.405 32.702-56.941-9.108-15.775-39.076-15.524-66.936.562-27.86 16.085-43.062 41.913-33.954 57.688 3.649 6.32 10.652 10.062 19.521 11.249-1.133 1.934-2.03 4.016-2.644 6.237-4.713 17.04 8.665 35.61 29.881 41.479 21.216 5.868 42.236-3.187 46.949-20.227 4.381-15.838-6.873-32.993-25.519-40.047z" fill="#b2e7f1"/><path d="m135.124 377.202c-27.86-16.085-57.829-16.337-66.936-.562-8.969 15.535 5.647 40.813 32.702 56.941-18.646 7.054-29.9 24.209-25.519 40.047 4.713 17.039 25.733 26.095 46.949 20.227 21.216-5.869 34.594-24.44 29.881-41.479-.614-2.221-1.512-4.303-2.644-6.237 8.869-1.187 15.872-4.928 19.521-11.249 9.108-15.775-6.094-41.603-33.954-57.688z" fill="#b2e7f1"/><g fill="#a183e2"><path d="m143.004 61.805h19.352v66.982h-19.352z" transform="matrix(.925 -.379 .379 .925 -24.735 65.024)"/><path d="m158.082 55.003c2.737 11.064-4.013 22.251-15.077 24.987-11.063 2.737-22.251-4.014-24.987-15.077-2.737-11.063 4.014-22.251 15.077-24.987s22.25 4.014 24.987 15.077z"/><path d="m347.165 61.805h19.352v66.982h-19.352z" transform="matrix(-.925 -.379 .379 -.925 650.883 318.805)"/><path d="m351.44 55.003c-2.737 11.064 4.013 22.251 15.077 24.987 11.064 2.737 22.251-4.014 24.987-15.077 2.737-11.063-4.013-22.251-15.077-24.987s-22.251 4.014-24.987 15.077z"/></g><path d="m370.838 496.557v-31.381c0-64.108-51.969-116.077-116.077-116.077-64.108 0-116.077 51.97-116.077 116.077v31.381z" fill="#f1c7b6"/><path d="m332.244 496.557v-29.651c0-42.793-34.691-77.484-77.484-77.484-42.793 0-77.484 34.691-77.484 77.484v29.651z" fill="#f7e266"/><path d="m332.244 472.947v-6.04c0-10.184-1.984-19.9-5.556-28.808h-143.855c-3.571 8.908-5.556 18.623-5.556 28.808v6.04z" fill="#a183e2"/><path d="m263.241 389.849c22.412 10.08 38.176 34.004 38.176 61.922v6.717c0 10.457-8.477 18.933-18.933 18.933h-104.857v19.135h154.967v-29.651c0-40.045-30.382-72.991-69.353-77.056z" fill="#ebaa66"/><path d="m299.908 437.028h26.693c-10.701-25.568-34.699-44.189-63.36-47.179 18.345 8.251 32.23 25.779 36.667 47.179z" fill="#ebaa66"/><path d="m292.632 474.455c-2.935 1.87-6.41 2.967-10.148 2.967h-104.857v19.135h154.967v-22.103h-39.962z" fill="#ebaa66"/><path d="m294.852 472.804h37.742v-5.897c0-10.382-2.057-20.28-5.762-29.328h-26.816c.912 4.576 1.402 9.321 1.402 14.193v6.717c0 5.724-2.551 10.843-6.566 14.315z" fill="#9762e2"/><circle cx="423.403" cy="302.91" fill="#f1c7b6" r="38.441"/><circle cx="86.118" cy="302.91" fill="#f1c7b6" r="38.441"/><path d="m288.46 400.921h-67.399c-83.752 0-151.647-67.894-151.647-151.647 0-83.752 67.895-151.647 151.647-151.647h67.399c83.752 0 151.647 67.895 151.647 151.647 0 83.753-67.895 151.647-151.647 151.647z" fill="#f7e266"/><path d="m288.46 97.627h-29.875c72.329 0 130.964 58.634 130.964 130.964 0 72.329-58.635 130.964-130.964 130.964h-58.207c-68.958 0-125.467-53.295-130.586-120.942-.245 3.523-.378 7.076-.378 10.661 0 83.752 67.895 151.646 151.647 151.646h67.399c83.752 0 151.647-67.895 151.647-151.646 0-83.752-67.895-151.647-151.647-151.647z" fill="#ebaa66"/><path d="m315.439 362.302h-121.357c-40.774 0-73.827-33.054-73.827-73.827 0-40.774 33.054-73.827 73.827-73.827h121.357c40.774 0 73.827 33.053 73.827 73.827.001 40.774-33.053 73.827-73.827 73.827z" fill="#f1c7b6"/></g><g><g fill="#440b29"><path d="m423.403 351.478c26.781 0 48.568-21.787 48.568-48.568 0-17.083-8.874-32.12-22.248-40.777.335-4.243.511-8.531.511-12.859 0-60.152-33.003-112.735-81.849-140.609l7.493-18.282c12.005-1.756 22.367-10.551 25.456-23.038 4.073-16.466-6.01-33.176-22.476-37.249-7.979-1.972-16.245-.721-23.28 3.524-7.034 4.245-11.996 10.976-13.969 18.952-1.974 7.977-.723 16.245 3.523 23.281.513.851 1.064 1.669 1.648 2.457l-7.167 17.486c-16.085-5.374-33.284-8.293-51.153-8.293h-67.399c-17.869 0-35.068 2.919-51.153 8.293l-7.173-17.501c5.281-7.123 7.467-16.461 5.177-25.721-1.973-7.977-6.934-14.708-13.969-18.953-7.036-4.246-15.303-5.496-23.28-3.524-16.466 4.074-26.549 20.784-22.476 37.25 3.089 12.486 13.449 21.281 25.456 23.037l7.493 18.283c-48.846 27.874-81.849 80.458-81.849 140.609 0 4.323.175 8.606.51 12.844-13.375 8.659-22.247 23.706-22.247 40.792 0 26.78 21.788 48.568 48.567 48.568 3.064 0 6.061-.288 8.967-.836.675.837 1.357 1.668 2.049 2.492-.807-.035-1.613-.067-2.41-.074-17.134-.125-30.21 6.115-36.854 17.624-6.645 11.508-5.52 25.973 3.165 40.729 4.443 7.549 10.697 14.794 18.248 21.283-3.154 2.706-5.975 5.727-8.362 9.041-7.684 10.666-10.248 23.449-7.033 35.069 5.194 18.776 24.089 30.731 45.603 30.731 5.233 0 10.623-.708 16.007-2.197 1.977-.547 3.897-1.189 5.761-1.912 1.85 1.999 4.488 3.258 7.426 3.258 5.593 0 10.127-4.534 10.127-10.127v-31.381c0-23.404 7.632-45.055 20.533-62.605 8.182 2.768 16.659 4.887 25.364 6.319-14.54 15.039-23.506 35.495-23.506 58.017v33.271c0 3.355 2.721 6.076 6.076 6.076s6.076-2.721 6.076-6.076v-20.672h142.815v20.672c0 3.355 2.721 6.076 6.076 6.076s6.076-2.721 6.076-6.076v-33.271c0-22.522-8.967-42.979-23.507-58.016 8.701-1.432 17.175-3.55 25.353-6.316 12.904 17.55 20.545 39.196 20.545 62.601v31.381c0 5.593 4.534 10.127 10.127 10.127 2.942 0 5.582-1.262 7.432-3.265 1.864.722 3.778 1.372 5.754 1.919 5.386 1.489 10.773 2.197 16.007 2.197 21.512 0 40.409-11.956 45.602-30.731 3.214-11.621.651-24.403-7.033-35.069-2.387-3.313-5.203-6.339-8.355-9.046 7.549-6.487 13.799-13.73 18.242-21.277 8.685-14.756 9.808-29.22 3.165-40.729-6.645-11.508-19.739-17.751-36.854-17.624-.798.007-1.607.044-2.414.08.695-.828 1.382-1.664 2.061-2.507 2.904.542 5.895.842 8.957.842zm28.315-48.568c0 14.003-10.22 25.656-23.591 27.912 8.088-13.799 14.197-28.891 17.917-44.892 3.561 4.734 5.674 10.614 5.674 16.98zm-90.448-245.474c0-.001 0-.001 0 0 .674-2.726 2.37-5.025 4.773-6.475 1.659-1.001 3.521-1.515 5.411-1.515.847 0 1.699.103 2.542.312 5.625 1.391 9.07 7.1 7.679 12.724-1.392 5.626-7.104 9.071-12.726 7.679-2.725-.674-5.025-2.369-6.475-4.772-1.45-2.405-1.878-5.229-1.204-7.953zm-4.837 29.364c2.081 1.161 4.309 2.086 6.654 2.749l-5.523 13.475c-2.166-1.028-4.356-2.013-6.574-2.946zm-220.906-37.043c.843-.209 1.695-.312 2.542-.312 1.89 0 3.751.514 5.411 1.515 2.403 1.45 4.098 3.75 4.773 6.474 1.39 5.626-2.053 11.334-7.678 12.725-5.615 1.389-11.333-2.053-12.726-7.678-1.392-5.624 2.053-11.333 7.678-12.724zm10.907 39.791c2.365-.669 4.59-1.6 6.652-2.757l5.446 13.287c-2.218.933-4.408 1.918-6.574 2.946zm74.627 18.206h67.399c78.034 0 141.52 63.486 141.52 141.52s-63.486 141.52-141.52 141.52h-67.399c-78.034 0-141.52-63.486-141.52-141.52s63.486-141.52 141.52-141.52zm-163.257 195.156c0-6.361 2.124-12.224 5.68-16.955 3.721 15.992 9.828 31.076 17.911 44.867-13.371-2.255-23.591-13.909-23.591-27.912zm61.34 179.461c-14.6 4.039-29.386-1.421-32.289-11.919-1.75-6.329 1.38-11.981 3.401-14.787 2.489-3.455 5.991-6.456 10.096-8.734 9.363 4.904 19.075 8.341 28.468 10.12-.172 2.687-.263 5.396-.263 8.126v13.087c-2.81 1.734-5.974 3.155-9.413 4.107zm13.443-48.855c-7.961-1.608-16.481-4.884-24.486-9.506-11.552-6.669-21.222-15.667-26.53-24.685-4.021-6.832-5.167-13.085-3.064-16.727 2.071-3.587 7.91-5.711 15.658-5.711.12 0 .238 0 .359.001 10.464.088 23.091 3.963 34.643 10.633 6.489 3.747 12.377 8.229 17.236 13.037-6.08 10.153-10.773 21.226-13.816 32.958zm50.766 33.838v-.448c0-8.068 1.349-15.824 3.827-23.061h135.15c2.48 7.237 3.838 14.991 3.838 23.061v.448zm133.488-35.661h-124.163c4.627-8.12 10.8-15.246 18.118-20.98 3.396.214 6.817.335 10.266.335h67.399c3.448 0 6.868-.121 10.263-.335 7.319 5.732 13.488 12.862 18.117 20.98zm105.826 38.758c-2.905 10.499-17.69 15.96-32.289 11.919-3.443-.952-6.602-2.381-9.413-4.12v-13.075c0-2.73-.09-5.439-.262-8.126 9.392-1.779 19.103-5.217 28.466-10.12 4.105 2.278 7.608 5.279 10.097 8.734 2.022 2.807 5.152 8.46 3.401 14.788zm-7.669-93.563c.121-.001.239-.001.359-.001 7.747 0 13.588 2.125 15.658 5.711 4.295 7.439-5.098 27.27-29.593 41.412-8.723 5.036-17.107 8.044-24.488 9.504-3.045-11.733-7.736-22.809-13.818-32.963 4.553-4.526 10.273-9.008 17.239-13.03 11.551-6.67 24.178-10.545 34.643-10.633z"/><path d="m194.082 368.379h121.357c44.059 0 79.903-35.845 79.903-79.903s-35.844-79.903-79.903-79.903h-121.357c-44.059 0-79.903 35.845-79.903 79.903s35.844 79.903 79.903 79.903zm0-147.655h121.357c37.358 0 67.751 30.393 67.751 67.751s-30.393 67.751-67.751 67.751h-121.357c-37.358 0-67.751-30.393-67.751-67.751s30.393-67.751 67.751-67.751z"/><ellipse cx="166.819" cy="311.368" rx="16.456" ry="16.456" transform="matrix(.23 -.973 .973 .23 -174.547 402.187)"/><path d="m342.703 294.912c-9.088 0-16.456 7.368-16.456 16.456s7.367 16.456 16.456 16.456c9.088 0 16.455-7.368 16.455-16.456s-7.367-16.456-16.455-16.456z"/><path d="m156.223 268.089c.048-.024 4.882-2.396 10.596-2.396 5.715 0 10.549 2.372 10.57 2.382.885.451 1.828.665 2.757.665 2.211-.001 4.344-1.211 5.418-3.315 1.525-2.989.338-6.649-2.65-8.174-.745-.38-7.518-3.711-16.094-3.711-8.575 0-15.349 3.331-16.093 3.711-2.978 1.52-4.155 5.153-2.649 8.139 1.502 2.986 5.148 4.188 8.145 2.699z"/><path d="m332.107 268.089c.048-.024 4.882-2.396 10.596-2.396 5.715 0 10.549 2.372 10.57 2.382.885.451 1.828.665 2.757.665 2.211-.001 4.343-1.211 5.417-3.315 1.525-2.989.338-6.649-2.65-8.174-.745-.38-7.518-3.711-16.094-3.711-8.575 0-15.349 3.331-16.093 3.711-2.978 1.52-4.155 5.153-2.65 8.139s5.151 4.188 8.147 2.699z"/><path d="m254.761 333.9c12.424 0 22.531-10.108 22.531-22.532 0-3.356-2.721-6.076-6.076-6.076s-6.076 2.721-6.076 6.076c0 5.723-4.656 10.38-10.379 10.38s-10.379-4.656-10.379-10.38c0-3.356-2.721-6.076-6.076-6.076s-6.076 2.721-6.076 6.076c0 12.424 10.107 22.532 22.531 22.532z"/><path d="m347.245 169.501c3.356 0 6.076-2.721 6.076-6.076v-10.609c0-3.355-2.721-6.076-6.076-6.076s-6.076 2.721-6.076 6.076v10.609c-.001 3.356 2.72 6.076 6.076 6.076z"/><path d="m379.563 209.688c3.355 0 6.076-2.721 6.076-6.076v-10.609c0-3.355-2.721-6.076-6.076-6.076s-6.076 2.721-6.076 6.076v10.609c0 3.355 2.72 6.076 6.076 6.076z"/><path d="m308.541 185.985c3.356 0 6.076-2.721 6.076-6.076v-10.609c0-3.355-2.721-6.076-6.076-6.076s-6.076 2.721-6.076 6.076v10.609c0 3.355 2.72 6.076 6.076 6.076z"/></g><path d="m177.453 155.671c-4.609 0-8.777-3.168-9.859-7.851-1.258-5.45 2.14-10.887 7.59-12.145 4.107-.948 8.358-1.573 12.635-1.859 5.59-.364 10.406 3.85 10.779 9.43.373 5.581-3.849 10.406-9.43 10.779-3.201.213-6.373.679-9.429 1.385-.766.176-1.531.261-2.286.261z" fill="#fff"/><path d="m124.552 201.072c-1.4 0-2.823-.292-4.18-.908-5.093-2.312-7.347-8.315-5.035-13.408 4.716-10.387 11.517-19.993 20.217-28.553 3.986-3.924 10.4-3.87 14.321.116 3.923 3.987 3.871 10.398-.116 14.321-6.92 6.809-12.297 14.376-15.98 22.49-1.696 3.734-5.376 5.942-9.227 5.942z" fill="#fff"/></g><g><path d="m41.113 66.487 8.602 24.186c.368 1.036 1.097 1.856 2.017 2.271l21.489 9.681c3.036 1.368 3.036 6.205 0 7.573l-21.489 9.682c-.92.414-1.649 1.235-2.017 2.271l-8.602 24.186c-1.215 3.417-5.513 3.417-6.728 0l-8.602-24.186c-.368-1.035-1.097-1.856-2.017-2.271l-21.489-9.682c-3.036-1.368-3.036-6.205 0-7.573l21.489-9.681c.92-.415 1.649-1.235 2.017-2.271l8.602-24.186c1.215-3.417 5.513-3.417 6.728 0z" fill="#fbf2a8"/><path d="m483.876 45.393c0 10.373-8.409 18.782-18.782 18.782s-18.782-8.409-18.782-18.782 8.409-18.782 18.782-18.782c10.372-.001 18.782 8.409 18.782 18.782z" fill="#f7e266"/><ellipse cx="208.115" cy="12.419" fill="#f7e266" rx="7.954" ry="7.954" transform="matrix(.16 -.987 .987 .16 162.521 215.858)"/><path d="m486.494 114.304 6.38 17.941c.273.768.814 1.377 1.496 1.684l15.94 7.181c2.252 1.015 2.252 4.603 0 5.617l-15.94 7.182c-.683.307-1.223.916-1.496 1.684l-6.38 17.941c-.902 2.535-4.089 2.535-4.991 0l-6.381-17.941c-.273-.768-.814-1.377-1.496-1.684l-15.94-7.182c-2.252-1.015-2.252-4.603 0-5.617l15.94-7.181c.682-.308 1.223-.916 1.496-1.684l6.381-17.941c.902-2.535 4.09-2.535 4.991 0z" fill="#fbf2a8"/></g></g></svg>