<svg id="Capa_1" enable-background="new 0 0 512 512" height="512" viewBox="0 0 512 512" width="512" xmlns="http://www.w3.org/2000/svg"><g><g><path d="m360.325 437.049c-14.232-49.508-59.854-85.729-113.939-85.729-54.085 0-99.706 36.222-113.939 85.729z" fill="#fff"/><path d="m127.843 476.123h237.087v25.788h-237.087z" fill="#fbf2a8"/><path d="m127.804 471.116v3.939h236.936v-3.939c0-11.603-1.742-22.804-4.968-33.377h-226.999c-3.227 10.573-4.969 21.775-4.969 33.377z" fill="#e58bbd"/><path d="m255.141 392.947c22.888 10.294 38.987 34.726 38.987 63.238v6.86c0 10.679-8.657 19.336-19.336 19.336h-107.085v19.542h158.26v-30.28c0-40.899-31.027-74.544-70.826-78.696z" fill="#eebdfa"/><path d="m294.128 463.045c0 4.439-1.512 8.516-4.027 11.779h35.866v-3.182c0-12.362-2.851-24.052-7.906-34.475h-26.417c1.611 6.039 2.483 12.417 2.483 19.018v6.86z" fill="#e068bd"/><path d="m289.504 475.574c-3.547 4.16-8.816 6.807-14.712 6.807h-107.084v19.542h158.26v-26.348h-36.464z" fill="#edb6a8"/><g fill="#f4d6d4"><ellipse cx="418.612" cy="304.15" rx="39.257" ry="39.257" transform="matrix(.383 -.924 .924 .383 -22.582 574.504)"/><ellipse cx="74.16" cy="304.15" rx="39.257" ry="39.257" transform="matrix(.973 -.23 .23 .973 -67.896 25.175)"/><path d="m279.839 401.167h-66.905c-83.139 0-150.536-67.397-150.536-150.536 0-83.139 67.397-150.536 150.536-150.536h66.905c83.139 0 150.536 67.397 150.536 150.536 0 83.139-67.398 150.536-150.536 150.536z"/></g><path d="m399.053 141.781c-5.324-5.986 24.738-24.513 4.868-40.33-13.331-10.612-40.056 10.885-50.307 5.714-11.512-5.808 42.926-45.783-4.525-70.035-42.677-21.812-76.497 47.918-102.241 47.918-76.865 0-122.656 24.947-149.933 54.386-6.14 6.627-21.113-13.589-36.224-1.076-15.281 12.653 8.043 42.9 4.794 50.708-11.338 27.248-8.736 44.425-8.736 44.425s5.298 104.822 85.897 148.452c23.403 12.669 67.336 24.459 79.238 37.107 7.433 7.899-5.766 25.159-3.94 39.832 2.242 18.011 22.578 28.06 29.092 28.06s27.336-10.393 29.956-28.965c1.825-12.943-12.612-31.028-4.994-38.7 12.401-12.489 54.973-23.537 78.712-36.283 78.465-42.13 86.613-149.503 86.613-149.503s-.999-49.799-38.27-91.71zm-18.285 163.088c0 24.888-20.175 45.063-45.063 45.063-20.378 0-37.597-13.526-43.168-32.091-1.233-4.108-20.687.518-44.744.518-24.058 0-44.862-5.071-45.976-1.148-5.366 18.887-22.744 32.722-43.352 32.722-24.887 0-45.063-20.176-45.063-45.063 0 0-4.431-44.902 22.189-71.481 0 0 29.401-44.323 111.445-44.323s117.488 46.082 117.488 46.082c19.31 26.461 16.244 69.721 16.244 69.721z" fill="#f7e266"/><path d="m399.053 141.781c-5.324-5.986 24.738-24.514 4.868-40.33-12.067-9.606-35.108 7.096-46.972 6.514-3.332 7.874-11.325 14.703-8.623 17.743 31.769 35.723 32.619 78.17 32.619 78.17s-1.461 19.187-9.457 43.434c11.532 25.751 9.279 57.557 9.279 57.557 0 24.888-20.175 45.063-45.063 45.063-13.714 0-89.864 34.258-91.42 45.29-1.889 13.394-14.885 21.795-22.203 24.065 6.968 8.001-5.947 25.064-4.138 39.594 2.242 18.011 22.578 28.06 29.092 28.06s27.336-10.393 29.956-28.964c1.825-12.943-12.612-31.028-4.994-38.7 12.401-12.489 54.973-23.537 78.712-36.283 78.465-42.13 86.613-149.503 86.613-149.503s-.998-49.799-38.269-91.71z" fill="#ebaa66"/><path d="m255.353 335.461c-4.352-3.351-11.691-3.373-16.026 0-10.554 8.212-33.387 10.257-45.655 9.916-11.995-.333-2.385-4.771-.341-21.81.449-3.737.225-7.373.678-11.434 1.386-12.429 11.448-22.388 23.889-23.662 14.742-1.51 27.375 8.897 29.441 22.755 2.033-13.636 14.298-23.931 28.736-22.818.234.018.098.063.098.063 12.441 1.274 22.503 11.233 23.889 23.662.453 4.06.23 7.697.678 11.434 2.045 17.039 11.655 21.477-.341 21.81-12.064.335-34.083-1.889-44.857-9.764z" fill="#f7e266"/><path d="m272.836 439.735h-51.974c-5.581 0-10.106-4.525-10.106-10.106v-6.188c0-5.581 4.525-10.106 10.106-10.106h51.974c5.581 0 10.106 4.525 10.106 10.106v6.188c0 5.581-4.525 10.106-10.106 10.106z" fill="#fbf2a8"/></g><g><g fill="#440b29"><path d="m443.018 261.293c3.458-15.719 4.31-26.333 4.364-27.04.024-.321.034-.643.027-.965-.042-2.121-1.44-51.041-37.468-94.32.444-.654.912-1.324 1.324-1.915 3.346-4.795 7.508-10.762 9.036-17.892 1.467-6.846.906-16.844-10.097-25.603-12.005-9.556-27.516-3.897-39.98.652-.802.293-1.682.614-2.595.94 6.31-10.624 14.497-25.756 10.021-41.368-2.984-10.406-11.048-19.031-23.97-25.635-32.568-16.647-60.219 9.032-80.408 27.78-9.607 8.921-20.496 19.032-26.424 19.032-67.396 0-119.478 18.508-154.874 55.022-.778-.33-1.628-.712-2.352-1.039-7.555-3.402-21.62-9.737-35.365 1.644-15.447 12.79-7.296 33.369-1.901 46.987 1.197 3.022 2.781 7.022 3.237 9.026-10.713 26.47-9.353 44.114-8.894 47.849.14 2.258.885 12.242 3.791 26.435-15.286 8.392-25.676 24.634-25.676 43.269 0 27.21 22.137 49.346 49.346 49.346 5.741 0 11.254-.989 16.383-2.801 13.326 16.79 29.22 30.332 47.3 40.12 1.631.883 3.357 1.759 5.145 2.628-15.846 21.382-25.234 47.823-25.234 76.421v32.048c0 5.572 4.517 10.089 10.089 10.089s10.089-4.517 10.089-10.089v-20.803h23.272v24.501c0 3.343 2.71 6.053 6.053 6.053s6.053-2.71 6.053-6.053v-24.501h44.329c9.279 10.542 22.642 15.922 29.397 15.922 6.71 0 20.016-5.383 29.511-15.922h42.916v24.501c0 3.343 2.71 6.053 6.053 6.053s6.053-2.71 6.053-6.053v-24.501h23.271v20.803c0 5.572 4.517 10.089 10.089 10.089 5.571 0 10.089-4.517 10.089-10.089v-32.048c0-28.165-9.1-54.244-24.513-75.453 1.72-.833 3.387-1.675 4.975-2.528 18.079-9.707 34.066-23.524 47.542-40.918 4.902 1.639 10.142 2.533 15.588 2.533 27.209 0 49.346-22.137 49.346-49.346.001-18.338-10.056-34.356-24.938-42.861zm-368.857 72.026c-16.084 0-29.169-13.085-29.169-29.169 0-9.07 4.172-17.173 10.686-22.525 1.256 4.239 2.679 8.636 4.303 13.147 4.987 13.851 11.094 26.639 18.221 38.259-1.322.185-2.669.288-4.041.288zm99.358 72.9c4.118 1.605 8.498 3.312 12.822 5.064-6.014 5.984-11.142 12.856-15.167 20.403h-26.303c4.127-10.937 9.976-21.033 17.211-29.966 3.787 1.517 7.631 3.016 11.437 4.499zm121.485 10.928c4.783 4.271 9.001 9.159 12.53 14.539h-18.686c.086-.675.146-1.359.146-2.057v-6.187c0-1.12-.115-2.213-.333-3.269 1.951-1 4.082-2.011 6.343-3.026zm-22.168 2.241c2.234 0 4.052 1.818 4.052 4.053v6.187c0 2.235-1.818 4.053-4.052 4.053h-51.974c-2.235 0-4.053-1.818-4.053-4.053v-6.187c0-2.235 1.818-4.053 4.053-4.053zm-67.988 12.298h-19.62c3.713-5.665 8.188-10.787 13.283-15.214 2.375 1.083 4.612 2.162 6.647 3.224-.287 1.204-.456 2.455-.456 3.746v6.187c0 .698.059 1.382.146 2.057zm-63.748 12.107h24.781c-2.754 7.94-4.368 16.408-4.637 25.209h-23.303c.069-8.681 1.156-17.124 3.159-25.209zm32.26 25.209c.316-8.898 2.235-17.391 5.469-25.209h30.537c-1.294 5.173-2.139 10.671-1.434 16.335.393 3.159 1.175 6.114 2.25 8.875h-36.822zm73.662 7.827c-3.764-.625-17.627-7.624-19.067-19.193-.416-3.347.531-7.54 1.772-11.847h35.085c1.379 4.093 2.553 8.198 2.189 10.778-1.716 12.172-16.11 19.594-19.979 20.262zm38.311-33.036h28.615c3.235 7.816 5.147 16.312 5.464 25.209h-35.095c1.25-2.976 2.18-6.176 2.666-9.616.742-5.274-.205-10.561-1.65-15.593zm69.497 25.209h-23.304c-.269-8.802-1.883-17.27-4.64-25.209h24.781c2.003 8.086 3.095 16.527 3.163 25.209zm-6.933-37.316h-26.305c-3.858-7.226-8.727-13.834-14.417-19.636 4.031-1.604 8.147-3.186 12.136-4.718 4.031-1.548 8.106-3.112 12.116-4.702 6.897 8.706 12.484 18.492 16.47 29.056zm-1.961-57.581c-9.094 4.882-21.683 9.716-33.857 14.391-16.005 6.145-31.288 12.014-41.229 18.786h-47.316c-10.01-7.125-25.966-13.346-42.688-19.863-12.093-4.713-24.598-9.587-33.397-14.35-31.026-16.795-54-45.253-68.284-84.582-10.882-29.964-12.326-55.266-12.339-55.507-.017-.343-.035-.566-.087-.905-.02-.15-1.858-15.293 8.062-39.136 2.738-6.581-.096-13.738-3.685-22.798-3.244-8.192-8.148-20.571-3.99-24.015 1.519-1.258 2.907-1.865 4.624-1.865 2.268 0 5.11 1.06 9.586 3.076 5.807 2.616 15.528 6.994 22.98-1.049 31.45-33.943 79.405-51.154 142.533-51.154 13.851 0 26.041-11.318 40.154-24.424 21.956-20.388 38.931-34.087 57.496-24.599 7.746 3.959 12.374 8.41 13.756 13.23 2.367 8.255-4.041 18.948-9.189 27.54-4.836 8.07-8.655 14.444-6.654 21.357 1 3.453 3.365 6.27 6.66 7.932 8.322 4.198 17.913.698 28.071-3.008 6.906-2.52 17.342-6.329 20.497-3.82 4.081 3.249 4.994 4.818-2.922 16.163-3.887 5.57-10.392 14.895-3.202 22.978 32.331 36.356 35.448 79.773 35.701 84.759-.364 3.846-2.99 28.123-13.43 56.215-14.854 39.97-37.682 68.449-67.851 84.648zm72.675-40.786c-1.151 0-2.286-.07-3.402-.201 6.801-11.301 12.73-23.724 17.695-37.184 1.761-4.774 3.308-9.426 4.676-13.905 6.235 5.353 10.2 13.277 10.2 22.121 0 16.084-13.085 29.169-29.169 29.169z"/><path d="m156.575 295.982c-9.281 0-16.805 7.524-16.805 16.805s7.524 16.806 16.805 16.806 16.805-7.524 16.805-16.806c.001-9.281-7.523-16.805-16.805-16.805z"/><path d="m336.196 295.982c-9.281 0-16.805 7.524-16.805 16.805s7.524 16.806 16.805 16.806 16.805-7.524 16.805-16.806c.001-9.281-7.523-16.805-16.805-16.805z"/><path d="m172.942 257.656c-.757-.386-7.643-3.773-16.367-3.773-8.723 0-15.61 3.387-16.367 3.773-2.967 1.515-4.139 5.135-2.639 8.11 1.499 2.974 5.133 4.172 8.117 2.686.049-.025 5.013-2.463 10.888-2.463s10.839 2.438 10.862 2.45c.881.45 1.821.663 2.747.663 2.202 0 4.326-1.206 5.397-3.302 1.521-2.978.339-6.624-2.638-8.144z"/><path d="m352.562 257.656c-.757-.386-7.643-3.773-16.366-3.773s-15.61 3.387-16.367 3.773c-2.967 1.515-4.139 5.135-2.639 8.11s5.137 4.171 8.117 2.687c.049-.025 5.014-2.463 10.889-2.463 5.874 0 10.839 2.438 10.862 2.45.881.45 1.821.663 2.747.663 2.202 0 4.326-1.206 5.396-3.303 1.521-2.978.34-6.624-2.639-8.144z"/><path d="m369.322 231.456c-1.521-1.978-38.228-48.445-122.287-48.445-80.391 0-112.218 41.001-116.115 46.489-27.02 27.427-23.963 71.181-23.571 75.655.153 28.055 23.024 50.83 51.115 50.83 9.333 0 18.234-2.581 25.922-7.125 2.761 2.382 6.78 2.503 9.117 2.568.884.025 1.827.038 2.821.038 13.18 0 35.274-2.322 46.719-11.228 2.143-1.668 6.369-1.668 8.573-.014l.123.1c.075.061.152.12.23.177 12.801 9.355 37.401 11.238 48.596 10.927 2.355-.065 6.417-.188 9.179-2.622 7.713 4.575 16.636 7.179 25.959 7.179 28.116 0 51.003-22.816 51.116-50.908.245-3.841 2.459-46.273-17.407-73.498-.028-.042-.058-.082-.09-.123zm-110.099 99.35-.068-.055c-.035-.029-.072-.058-.109-.086-6.598-5.081-16.893-5.072-23.436.019-7.635 5.941-26.094 8.835-40.3 8.672 1.412-3.48 3.234-8.413 4.032-15.068.258-2.144.319-4.184.379-6.156.055-1.825.107-3.549.305-5.328 1.073-9.623 8.85-17.324 18.49-18.311 11.16-1.143 21.193 6.6 22.838 17.626.442 2.966 2.989 5.161 5.987 5.161 2.999 0 5.545-2.195 5.987-5.161 1.571-10.539 11-18.211 21.638-17.715.194.039.391.069.59.09 9.641.987 17.417 8.688 18.49 18.312.198 1.779.25 3.504.306 5.329.059 1.972.121 4.011.378 6.154.798 6.654 2.619 11.587 4.031 15.067-13.482.13-31.438-2.723-39.538-8.55zm115.506-26.365c-.01.142-.015.285-.015.428 0 21.51-17.5 39.01-39.009 39.01-9.853 0-19.119-3.807-26.151-10.154-1.09-2.801-2.259-6.345-2.803-10.879-.192-1.607-.243-3.293-.298-5.078-.06-1.986-.122-4.039-.375-6.305-1.669-14.975-13.578-27.013-28.47-28.919-.344-.085-.701-.143-1.067-.171-11.702-.896-22.607 4.502-29.174 13.41-6.704-9.168-17.963-14.575-30.085-13.333-15.27 1.564-27.588 13.765-29.288 29.013-.253 2.265-.315 4.318-.375 6.303-.054 1.786-.105 3.472-.298 5.08-.556 4.633-1.764 8.228-2.874 11.057-6.995 6.244-16.174 9.976-25.982 9.976-21.51 0-39.01-17.5-39.01-39.01 0-.194-.01-.395-.029-.587-.04-.422-3.777-42.428 20.442-66.611.275-.275.536-.596.754-.918.07-.104 7.215-10.524 23.778-20.798 15.326-9.506 42.104-20.838 82.635-20.838 40.667 0 69.128 11.88 85.842 21.846 17.513 10.443 26.176 21.033 26.82 21.839 17.676 24.332 15.061 65.233 15.032 65.639z"/><path d="m375.449 204.082c3.343 0 6.053-2.71 6.053-6.053v-10.834c0-3.343-2.71-6.053-6.053-6.053s-6.053 2.71-6.053 6.053v10.834c0 3.342 2.71 6.053 6.053 6.053z"/><path d="m334.066 166.964c3.343 0 6.053-2.71 6.053-6.053v-10.834c0-3.343-2.71-6.053-6.053-6.053s-6.053 2.71-6.053 6.053v10.834c0 3.342 2.71 6.053 6.053 6.053z"/></g><path d="m211.183 144.844c-5.233 0-9.657-4.04-10.05-9.343-.412-5.557 3.759-10.395 9.315-10.807 3.632-.27 7.375-.436 11.127-.495 5.565-.116 10.159 4.356 10.247 9.928.088 5.571-4.357 10.159-9.928 10.247-3.362.053-6.711.202-9.953.443-.255.017-.508.027-.758.027z" fill="#fff"/><path d="m135.461 176.771c-2.286 0-4.584-.773-6.473-2.355-4.271-3.578-4.833-9.942-1.255-14.212 8.598-10.262 20.417-18.276 37.197-25.22 5.147-2.129 11.049.316 13.18 5.465 2.131 5.148-.316 11.049-5.465 13.18-13.66 5.653-23.016 11.86-29.445 19.534-1.995 2.38-4.857 3.608-7.739 3.608z" fill="#fff"/></g><g><path d="m96.408 2.553 8.569 24.095c.367 1.032 1.093 1.849 2.01 2.262l21.408 9.645c3.024 1.363 3.024 6.181 0 7.544l-21.408 9.645c-.917.413-1.643 1.23-2.01 2.262l-8.569 24.095c-1.211 3.404-5.492 3.404-6.703 0l-8.569-24.095c-.367-1.032-1.093-1.849-2.01-2.262l-21.407-9.644c-3.025-1.363-3.025-6.181 0-7.544l21.408-9.645c.917-.413 1.643-1.231 2.01-2.262l8.569-24.095c1.21-3.405 5.492-3.405 6.702-.001z" fill="#fbf2a8"/><circle cx="20.866" cy="93.625" fill="#f7e266" r="7.924"/><path d="m473.648 28.356 6.357 17.874c.272.765.811 1.372 1.491 1.678l15.88 7.155c2.243 1.011 2.243 4.585 0 5.596l-15.88 7.155c-.68.306-1.219.913-1.491 1.678l-6.357 17.874c-.898 2.525-4.074 2.525-4.972 0l-6.357-17.874c-.272-.765-.811-1.372-1.491-1.678l-15.88-7.155c-2.243-1.011-2.243-4.585 0-5.596l15.88-7.155c.68-.306 1.219-.913 1.491-1.678l6.357-17.874c.898-2.525 4.074-2.525 4.972 0z" fill="#fbf2a8"/></g></g></svg>