<svg id="Capa_1" enable-background="new 0 0 512 512" height="512" viewBox="0 0 512 512" width="512" xmlns="http://www.w3.org/2000/svg"><g><g><path d="m366.795 501.945v-30.04c0-61.369-49.749-111.118-111.118-111.118-61.369 0-111.118 49.749-111.118 111.118v30.04z" fill="#e58bbd"/><path d="m359.405 431.995c-16.036-41.65-56.427-71.207-103.727-71.207-47.3 0-87.691 29.558-103.727 71.207z" fill="#fff"/><path d="m366.795 485.006v-13.101c0-4.028-.22-8.003-.638-11.92h-220.96c-.418 3.917-.638 7.893-.638 11.92v13.101z" fill="#fff"/><path d="m300.002 458.837h28.373c-6.332-31.426-32.517-55.661-64.915-59.04 21.391 9.62 36.453 32.416 36.542 59.04z" fill="#e068bd"/><path d="m288.841 482.239c-2.143.892-4.493 1.389-6.959 1.389h-100.378v18.317h148.346v-19.707h-41.009z" fill="#e068bd"/><path d="m284.363 483.439h45.488v-9.877c0-5.043-.516-9.965-1.475-14.725h-28.373c0 .079.004.157.004.237v6.43c-.001 9.165-6.812 16.723-15.644 17.935z" fill="#eebdfa"/><ellipse cx="417.115" cy="316.572" fill="#d49c8d" rx="36.798" ry="36.798" transform="matrix(.122 -.993 .993 .122 51.95 691.882)"/><ellipse cx="94.24" cy="316.572" fill="#d49c8d" rx="36.798" ry="36.798" transform="matrix(.122 -.993 .993 .122 -231.475 371.427)"/><path d="m202.727 407.512s-.69 37.643 23.3 38.26 30.432-35.273 30.432-35.273" fill="#e58bbd"/><path d="m309.759 407.512s.69 37.643-23.3 38.26-30.432-35.274-30.432-35.274" fill="#e58bbd"/><path d="m287.035 407.512h-62.715c-77.931 0-141.107-63.175-141.107-141.106 0-77.931 63.176-141.107 141.107-141.107h62.714c77.931 0 141.107 63.175 141.107 141.107 0 77.931-63.175 141.106-141.106 141.106z" fill="#d49c8d"/><path d="m287.035 125.215h-18.095c63.179 0 114.397 51.217 114.397 114.396v9.715c0 63.18-51.217 114.397-114.397 114.397h-71.329c-60.461 0-109.96-46.906-114.108-106.312-.184 2.947-.288 5.916-.288 8.91 0 77.931 63.176 141.106 141.107 141.106h62.714c77.931 0 141.107-63.176 141.107-141.106-.002-77.93-63.177-141.106-141.108-141.106z" fill="#c7758d"/><g fill="#f7e266"><path d="m287.295 308.856c-2.212 0-4.453-.452-6.523-1.405-18.438-8.483-35.072-8.524-52.348-.13-6.402 3.11-14.641 1.34-18.402-3.956s-1.62-12.111 4.783-15.223c25.597-12.439 52.189-12.483 79.037-.13 6.49 2.985 8.824 9.758 5.214 15.125-2.458 3.657-7.039 5.719-11.761 5.719z"/><path d="m170.276 268.917c-30.791 0-55.751 24.961-55.751 55.752s24.961 55.752 55.751 55.752c30.791 0 55.751-24.961 55.751-55.752s-24.961-55.752-55.751-55.752zm0 91.349c-19.66 0-35.598-15.938-35.598-35.598s15.938-35.598 35.598-35.598 35.598 15.938 35.598 35.598c0 19.661-15.938 35.598-35.598 35.598z"/><path d="m338.646 268.917c-30.791 0-55.751 24.961-55.751 55.752s24.961 55.752 55.751 55.752 55.751-24.961 55.751-55.752-24.961-55.752-55.751-55.752zm0 91.349c-19.66 0-35.598-15.938-35.598-35.598s15.938-35.598 35.598-35.598 35.598 15.938 35.598 35.598c-.001 19.661-15.938 35.598-35.598 35.598z"/></g><path d="m476.044 211.35c0-16.859-10.408-31.278-25.145-37.208.609-3.12.938-6.34.938-9.638 0-27.604-22.378-49.982-49.982-49.982-2.068 0-4.101.14-6.103.384-8.096-20.621-28.164-35.228-51.658-35.228-8.175 0-15.93 1.782-22.918 4.957-13.204-13.624-31.684-22.105-52.155-22.105-15.81 0-30.429 5.067-42.354 13.643-12.217-9.07-27.345-14.44-43.729-14.44-33.42 0-61.607 22.332-70.5 52.882-.973-.056-1.951-.093-2.937-.093-27.605 0-49.982 22.378-49.982 49.982 0 3.298.328 6.518.938 9.638-14.737 5.93-25.145 20.35-25.145 37.208 0 17.343 11.01 32.112 26.421 37.706-6.133 5.369-10.011 13.249-10.011 22.039 0 16.176 13.113 29.289 29.288 29.289s29.288-13.113 29.288-29.289c0-4.163-.874-8.12-2.44-11.706.546.022 1.092.041 1.643.041 22.148 0 40.103-17.955 40.103-40.103 0-.08-.005-.158-.006-.237 8.17-1.023 15.292-5.405 19.939-11.726 4.347.802 8.822 1.242 13.401 1.242 16.385 0 31.513-5.37 43.729-14.44 11.925 8.576 26.544 13.643 42.354 13.643 20.471 0 38.951-8.481 52.155-22.105 4.68 2.126 9.702 3.625 14.967 4.381.023 14.91 11.189 27.199 25.615 29.005 0 .08-.006.158-.006.237 0 22.148 17.955 40.103 40.103 40.103.551 0 1.097-.019 1.643-.041-1.566 3.586-2.44 7.543-2.44 11.706 0 16.176 13.113 29.289 29.288 29.289s29.288-13.113 29.288-29.289c0-8.791-3.878-16.671-10.011-22.039 15.411-5.594 26.421-20.363 26.421-37.706z" fill="#b07676"/></g><g><g fill="#440b29"><path d="m171.493 308.916c-8.7 0-15.753 7.053-15.753 15.753s7.053 15.752 15.753 15.752 15.753-7.052 15.753-15.752c-.001-8.7-7.053-15.753-15.753-15.753z"/><path d="m339.862 340.421c8.7 0 15.752-7.052 15.752-15.752s-7.053-15.753-15.752-15.753c-8.7 0-15.753 7.053-15.753 15.753.001 8.7 7.054 15.752 15.753 15.752z"/><path d="m170.275 282.981c-22.986 0-41.687 18.701-41.687 41.688 0 22.986 18.701 41.687 41.687 41.687 22.987 0 41.688-18.701 41.688-41.687 0-22.987-18.701-41.688-41.688-41.688zm0 71.309c-16.333 0-29.621-13.288-29.621-29.622 0-16.333 13.288-29.622 29.621-29.622 16.334 0 29.622 13.289 29.622 29.622.001 16.334-13.288 29.622-29.622 29.622z"/><path d="m338.646 366.356c22.987 0 41.688-18.701 41.688-41.687 0-22.987-18.701-41.688-41.688-41.688s-41.688 18.701-41.688 41.688c0 22.986 18.701 41.687 41.688 41.687zm0-71.31c16.333 0 29.622 13.289 29.622 29.622 0 16.334-13.289 29.622-29.622 29.622-16.334 0-29.622-13.288-29.622-29.622 0-16.333 13.288-29.622 29.622-29.622z"/><path d="m486.098 211.35c0-17.899-9.334-34.047-24.331-43.008.083-1.281.125-2.562.125-3.839 0-33.052-26.846-59.951-59.879-60.037-11.275-21.388-33.283-34.844-57.92-34.844-7.08 0-13.991 1.115-20.622 3.323-15.074-13.248-34.166-20.471-54.45-20.471-15.024 0-29.497 3.997-42.259 11.618-13.149-8.143-28.162-12.415-43.824-12.415-34.337 0-65.271 21.423-77.697 52.939-31.124 2.193-55.777 28.216-55.777 59.888 0 1.277.041 2.558.124 3.838-14.997 8.962-24.331 25.109-24.331 43.008 0 16.483 8.156 31.688 21.199 40.947-3.109 5.709-4.789 12.16-4.789 18.798 0 10.005 3.76 19.144 9.933 26.094-2.701 5.91-4.212 12.472-4.212 19.384 0 25.835 21.018 46.853 46.852 46.853 4.431 0 8.715-.632 12.78-1.789 13.551 16.662 30.575 30.387 49.957 40.074-14.138 19.819-22.471 44.049-22.471 70.195v30.041c0 5.553 4.502 10.054 10.054 10.054 5.553 0 10.054-4.501 10.054-10.054v-12.001h20.857v15.467c0 3.332 2.701 6.033 6.033 6.033s6.033-2.701 6.033-6.033v-15.467h136.281v15.467c0 3.332 2.701 6.033 6.033 6.033s6.033-2.701 6.033-6.033v-15.467h20.858v12.001c0 5.553 4.502 10.054 10.054 10.054 5.553 0 10.054-4.501 10.054-10.054v-30.041c0-26.145-8.33-50.379-22.467-70.199 19.373-9.684 36.391-23.405 49.939-40.06 4.068 1.158 8.359 1.779 12.793 1.779 25.835 0 46.853-21.018 46.853-46.853 0-6.911-1.515-13.471-4.215-19.381 6.174-6.95 9.936-16.091 9.936-26.097 0-6.638-1.68-13.089-4.789-18.798 13.042-9.26 21.198-24.464 21.198-40.947zm-418.602 105.223c0-2.823.457-5.538 1.273-8.094 3.461 1.136 7.131 1.801 10.937 1.926 3.543 11.622 8.448 22.656 14.534 32.911-14.747 0-26.744-11.997-26.744-26.743zm52.76-48.25c20.02-4.39 35.599-20.774 38.798-41.208 5.384-1.914 10.321-4.991 14.419-9.002 3.166.364 6.332.547 9.465.547 15.663 0 30.676-4.272 43.824-12.415 12.764 7.621 27.236 11.619 42.259 11.619 20.286 0 39.379-7.224 54.455-20.476 1.164.386 2.338.739 3.521 1.059 2.905 13.248 12.532 24.156 25.306 28.68 3.202 20.43 18.78 36.808 38.797 41.197-.064.919-.096 1.842-.096 2.771 0 15.069 8.52 28.18 20.992 34.786-3.028 9.563-7.121 18.657-12.146 27.136.371-2.733.58-5.516.58-8.348 0-34.068-27.716-61.784-61.784-61.784-17.352 0-33.046 7.201-44.28 18.758-27.071-11.878-53.91-11.891-79.843-.033-11.231-11.539-26.912-18.725-44.248-18.725-34.067 0-61.784 27.716-61.784 61.784 0 1.052.028 2.098.08 3.138-3.706-6.96-6.797-14.294-9.213-21.925 12.473-6.606 20.993-19.717 20.993-34.787.001-.929-.031-1.854-.095-2.772zm234.664 184.46h-21.776c-1.214-4.513-2.813-8.868-4.759-13.031h23.106c1.423 4.226 2.572 8.576 3.429 13.031zm-34.365 0h-58.845v-13.031h.693c5.405 6.757 12.967 12.062 23.408 12.062.266 0 .534-.003.803-.01 8.748-.225 15.937-4.428 20.995-12.052h7.203c2.351 4.093 4.274 8.461 5.743 13.031zm-160.692-13.032h23.124c-1.948 4.166-3.566 8.515-4.78 13.031h-21.774c.857-4.453 2.006-8.804 3.43-13.031zm36.674 0h8.341c5.057 7.623 12.247 11.826 20.995 12.052.271.007.536.01.803.01 10.165-.001 17.595-5.036 22.969-11.538v12.507h-58.865c1.468-4.571 3.406-8.934 5.757-13.031zm89.767-.01c-12.318.306-18.994-13.093-22.099-22.175h22.83c5.416 0 10.764-.292 16.034-.85-1.308 9.393-5.199 22.728-16.765 23.025zm-60.121 0c-11.459-.295-15.383-13.52-16.725-22.909 4.891.48 9.848.734 14.863.734h23.963c-3.108 9.094-9.785 22.508-22.101 22.175zm60.851-42.283h-62.714c-18.712 0-36.519-3.943-52.637-11.041 33.419-.753 60.377-28.152 60.377-61.748 0-4.055-.404-8.015-1.153-11.854.051-.024.103-.043.154-.067 15.663-7.61 30.155-7.584 46.951.08-.594 3.047-.961 6.172-1.088 9.358-.947-2.092-3.048-3.55-5.494-3.55-3.332 0-6.033 2.701-6.033 6.033 0 5.36-4.361 9.72-9.721 9.72-5.359 0-9.72-4.36-9.72-9.72 0-3.332-2.701-6.033-6.033-6.033s-6.033 2.701-6.033 6.033c0 12.012 9.773 21.785 21.785 21.785 10.531 0 19.34-7.511 21.353-17.456 2.232 32.053 29.004 57.455 61.616 57.455.336 0 .666-.02 1-.026-16.109 7.091-33.907 11.031-52.61 11.031zm51.612-122.508c27.415 0 49.718 22.304 49.718 49.719s-22.303 49.718-49.718 49.718-49.719-22.303-49.719-49.718 22.304-49.719 49.719-49.719zm-57.14 26.245c-9.478-4.125-18.549-6.215-27.484-6.215-8.909 0-17.691 2.078-26.621 6.179-1.415-3.425-3.134-6.691-5.115-9.776 20.894-8.742 42.48-8.721 64.304.07-1.969 3.075-3.677 6.33-5.084 9.742zm-61.511 23.474c0 27.415-22.304 49.718-49.719 49.718s-49.718-22.303-49.718-49.718 22.303-49.719 49.718-49.719 49.719 22.304 49.719 49.719zm-22.895 90.435c.106 1.04.24 2.151.409 3.32-2.744 2.893-5.274 5.988-7.568 9.262h-25.118c3.133-6.408 6.92-12.44 11.281-18.003 6.796 2.293 13.809 4.109 20.996 5.421zm-42.485 62.775v-5.974c0-2.372.084-4.725.246-7.057h21.088c-.311 2.863-.477 5.769-.477 8.714v4.318h-20.857zm32.922 0v-4.318c0-2.952.196-5.859.562-8.714h61.546v3.498c0 3.332 2.701 6.033 6.033 6.033s6.033-2.701 6.033-6.033v-3.498h61.534c.367 2.855.574 5.76.574 8.714v4.318zm148.346 0v-4.318c0-2.944-.16-5.852-.471-8.714h21.08c.162 2.332.249 4.684.249 7.057v5.974h-20.858zm10.654-50.193h-25.127c-2.018-2.88-4.223-5.621-6.592-8.208.259-1.64.451-3.183.591-4.59 6.784-1.294 13.411-3.036 19.843-5.207 4.361 5.564 8.152 11.595 11.285 18.005zm70.58-84.37c6.085-10.255 10.987-21.29 14.529-32.911 3.813-.125 7.489-.792 10.955-1.932.816 2.556 1.257 5.277 1.257 8.099.001 14.746-11.995 26.743-26.741 26.744zm29.076-103.712c-3.342 1.213-5.796 4.102-6.451 7.597-.656 3.495.583 7.076 3.259 9.419 4.181 3.661 6.579 8.936 6.579 14.474 0 10.606-8.628 19.234-19.233 19.234s-19.234-8.629-19.234-19.234c0-2.667.538-5.252 1.599-7.683 1.386-3.174 1.041-6.839-.914-9.699-1.878-2.747-4.988-4.379-8.299-4.379-.135 0-.271.003-.408.008-.411.017-.822.033-1.237.033-16.526 0-29.98-13.411-30.048-29.921.004-.121.006-.242.006-.364 0-5.07-3.775-9.347-8.806-9.976-9.568-1.198-16.794-9.385-16.81-19.045-.008-4.995-3.681-9.227-8.625-9.937-4.22-.606-8.337-1.812-12.239-3.583-3.867-1.757-8.422-.893-11.378 2.158-11.903 12.283-27.861 19.048-44.934 19.048-13.178 0-25.794-4.064-36.484-11.752-3.553-2.554-8.35-2.52-11.864.09-10.977 8.15-24.026 12.458-37.735 12.458-3.816 0-7.711-.362-11.577-1.075-3.786-.698-7.645.828-9.926 3.933-3.12 4.246-7.89 7.054-13.086 7.704-5.077.635-8.868 4.983-8.804 10.1l.005.2c-.048 16.528-13.509 29.961-30.048 29.961-.414 0-.826-.016-1.235-.033-3.478-.154-6.752 1.512-8.707 4.371s-2.301 6.524-.914 9.699c1.061 2.431 1.599 5.015 1.599 7.683 0 10.606-8.629 19.234-19.234 19.234s-19.234-8.629-19.234-19.234c0-5.538 2.398-10.813 6.579-14.474 2.676-2.342 3.915-5.924 3.259-9.419-.655-3.495-3.109-6.384-6.452-7.597-11.84-4.298-19.797-15.652-19.797-28.255 0-12.33 7.396-23.274 18.844-27.88 4.474-1.801 7.039-6.524 6.114-11.257-.499-2.549-.751-5.143-.751-7.709 0-22.017 17.911-39.928 39.928-39.928.705 0 1.475.025 2.354.076 4.682.282 8.927-2.726 10.237-7.227 7.822-26.871 32.843-45.638 60.847-45.638 13.709 0 26.757 4.308 37.735 12.459 3.513 2.609 8.312 2.645 11.864.09 10.69-7.688 23.306-11.752 36.484-11.752 17.073 0 33.03 6.765 44.935 19.048 2.954 3.05 7.51 3.914 11.378 2.157 5.926-2.691 12.237-4.056 18.76-4.056 18.816 0 35.419 11.324 42.299 28.849 1.675 4.265 6.016 6.859 10.576 6.306 1.714-.209 3.313-.311 4.886-.311 22.017 0 39.929 17.911 39.929 39.928 0 2.562-.253 5.157-.751 7.712-.924 4.732 1.642 9.454 6.114 11.253 11.447 4.607 18.843 15.551 18.843 27.881-.001 12.603-7.956 23.958-19.797 28.255z"/><path d="m407.787 163.485c-3.332 0-6.033 2.701-6.033 6.033v10.156c0 3.331 2.701 6.033 6.033 6.033 3.331 0 6.033-2.701 6.033-6.033v-10.156c-.001-3.332-2.702-6.033-6.033-6.033z"/><path d="m352.624 125.116c-3.332 0-6.033 2.701-6.033 6.033v10.156c0 3.332 2.701 6.033 6.033 6.033s6.033-2.701 6.033-6.033v-10.156c-.001-3.332-2.702-6.033-6.033-6.033z"/></g><path d="m102.475 186.063c-.981 0-1.978-.144-2.965-.449-5.306-1.636-8.282-7.263-6.646-12.57 3.114-10.1 9.612-19.357 18.296-26.066 4.394-3.395 10.707-2.585 14.104 1.81 3.394 4.394 2.584 10.708-1.811 14.103-5.431 4.196-9.47 9.906-11.372 16.077-1.333 4.32-5.31 7.095-9.606 7.095z" fill="#fff"/><path d="m169.161 122.55c-3.311 0-6.552-1.633-8.473-4.627-2.999-4.674-1.64-10.893 3.033-13.892 1.746-1.12 3.539-2.16 5.329-3.092 4.925-2.566 10.997-.649 13.561 4.276 2.564 4.926.65 10.997-4.276 13.561-1.254.653-2.518 1.387-3.754 2.18-1.681 1.078-3.561 1.594-5.42 1.594z" fill="#fff"/></g><g><path d="m41.051 12.902 8.54 24.013c.366 1.028 1.09 1.843 2.003 2.255l21.335 9.612c3.014 1.358 3.014 6.16 0 7.518l-21.335 9.612c-.913.411-1.637 1.226-2.003 2.254l-8.54 24.013c-1.207 3.393-5.473 3.393-6.68 0l-8.54-24.013c-.366-1.028-1.09-1.843-2.003-2.254l-21.335-9.612c-3.014-1.358-3.014-6.16 0-7.518l21.335-9.612c.914-.412 1.637-1.226 2.003-2.255l8.54-24.013c1.207-3.393 5.474-3.393 6.68 0z" fill="#f1c7b6"/><ellipse cx="419.278" cy="19.365" fill="#eaa585" rx="18.648" ry="18.648" transform="matrix(.189 -.982 .982 .189 320.974 427.416)"/><path d="m135.581 7.897c0 4.362-3.536 7.897-7.897 7.897s-7.897-3.536-7.897-7.897 3.535-7.897 7.897-7.897c4.361 0 7.897 3.536 7.897 7.897z" fill="#eaa585"/><path d="m486.444 46.965 6.335 17.813c.271.763.808 1.367 1.486 1.672l15.826 7.13c2.236 1.007 2.236 4.57 0 5.577l-15.826 7.13c-.678.305-1.215.91-1.486 1.672l-6.335 17.813c-.895 2.516-4.06 2.516-4.955 0l-6.335-17.813c-.271-.763-.808-1.367-1.486-1.672l-15.826-7.13c-2.236-1.007-2.236-4.57 0-5.577l15.826-7.13c.678-.305 1.215-.91 1.486-1.672l6.335-17.813c.895-2.516 4.06-2.516 4.955 0z" fill="#f1c7b6"/></g></g></svg>