<svg id="Capa_1" enable-background="new 0 0 512 512" height="512" viewBox="0 0 512 512" width="512" xmlns="http://www.w3.org/2000/svg"><g><g><path d="m365.484 501.998v-31.315c0-63.973-51.86-115.833-115.833-115.833-63.973 0-115.833 51.86-115.833 115.833v31.315z" fill="#f1c7b6"/><path d="m326.972 501.998v-29.588c0-42.703-34.618-77.321-77.32-77.321-42.703 0-77.32 34.618-77.32 77.321v29.588z" fill="#bdf4e3"/><path d="m257.765 395.515c22.365 10.059 38.096 33.932 38.096 61.792v6.703c0 10.435-8.459 18.893-18.893 18.893h-104.637v19.095h154.641v-29.588c0-39.963-30.318-72.839-69.207-76.895z" fill="#b1b7e3"/><path d="m282.339 403.557h-65.375c-81.238 0-147.094-65.856-147.094-147.094 0-81.238 65.856-147.094 147.094-147.094h65.375c81.238 0 147.094 65.856 147.094 147.094 0 81.238-65.856 147.094-147.094 147.094z" fill="#f4d6d4"/><path d="m226.844 58.425c22.298 5.758 34.676 23.301 44.084 38.82 12.915-12.751 44.36-31.064 67.368-28.21 35.113 4.355 60.927 29.263 57.656 55.635-3.271 26.371-34.387 44.219-69.501 39.864-23.008-2.854-49.368-25.542-58.776-41.062-12.915 12.751-31.637 29.711-54.645 26.858-35.113-4.355-56.15-28.534-52.88-54.905 3.272-26.372 32.426-45.849 66.694-37z" fill="#bdf4e3"/><path d="m264.213 125.473c26.331-12.537 55.108-16.695 82.683-9.973 52.466 12.79 85.66 61.307 88.014 119.475.782 19.33-1.841 39.726-8.295 60.231-11.786 37.447-34.323 68.785-61.958 90.225-5.568 4.32-16.936 11.499-24.535 15.487-18.452 9.685-49.018 21.647-95.131 30.616-24.068 4.681-49.072 1.061-70.632-10.615-.126-.068-.251-.136-.377-.204-47.066-25.592-78.777-68.645-96.702-118.335.355 1.388.814 2.881 1.242 4.303-4.39-15.407-7.633-30.747-8.428-46.805-4.238-85.562 50.901-155.901 123.156-157.105 25.657-.429 50.018 7.925 70.963 22.7" fill="#eaa585"/><path d="m434.91 234.974c-2.354-58.167-35.547-106.684-88.014-119.474-14.696-3.583-29.734-4.074-44.561-1.854 37.875 12.875 61.564 50 63.344 93.985.63 15.56-1.482 31.979-6.678 48.485-9.488 30.143-27.629 55.37-49.875 72.629-4.482 3.477-13.633 9.256-19.75 12.467-17.948 9.42-50.13 21.515-101.426 28.805-11.278-2.519-22.21-7.376-32.313-12.869-37.734-20.518-63.203-54.98-77.664-94.775.271.994.537 1.987.821 2.981-.345-1.144-.714-2.346-1-3.463.058.161.12.321.179.482-3.108-11.404-5.375-22.806-5.964-34.695-.064-1.3-.106-2.594-.137-3.884-1.753 11.6-2.394 23.68-1.779 36.084.73 14.735 3.524 28.866 7.371 43 17.957 49.479 49.609 92.332 96.517 117.837 1.265.688 2.542 1.368 3.828 2.038 19.651 10.237 42.194 13.501 63.968 9.397 47.911-9.032 79.467-21.323 98.345-31.231 7.599-3.988 18.967-11.167 24.535-15.487 27.635-21.44 50.172-52.779 61.958-90.225 6.454-20.506 9.077-40.902 8.295-60.233z" fill="#e37c85"/><path d="m310.203 368.698h-121.102c-40.688 0-73.672-32.984-73.672-73.672 0-40.688 32.984-73.672 73.672-73.672h121.102c40.688 0 73.672 32.984 73.672 73.672-.001 40.688-32.985 73.672-73.672 73.672z" fill="#f1c7b6"/></g><g><g fill="#440b29"><path d="m444.905 234.57c-1.629-40.259-16.781-75.03-41.353-98.822 1.116-3.171 1.907-6.459 2.327-9.848 1.978-15.953-4.206-31.757-17.415-44.503-12.439-12.003-29.818-19.919-48.937-22.29-22.134-2.745-49.309 10.339-66.354 23.132-10.3-14.954-23.353-28.213-43.828-33.5-20.004-5.166-40.351-2.091-55.824 8.434-12.983 8.832-21.475 22.324-23.297 37.019-.308 2.484-.416 4.954-.375 7.405-17.141 6.935-32.945 17.816-46.404 32.196-29.943 31.993-45.741 78.129-43.341 126.578 1.102 15.329 3.565 35.387 10.305 52.164 15.647 40.136 39.213 73.145 69.192 97.228-10.041 18.063-15.784 38.828-15.784 60.918v31.315c0 5.524 4.478 10.003 10.003 10.003s10.003-4.478 10.003-10.003v-31.315c0-17.711 4.378-34.418 12.101-49.101 4.318 2.804 8.742 5.452 13.279 7.919.521.284 1.044.566 1.562.843 1.805.966 3.637 1.871 5.485 2.734-6.314 11.723-9.92 25.11-9.92 39.333v33.201c0 3.314 2.687 6.002 6.002 6.002 3.314 0 6.002-2.687 6.002-6.002v-33.2c0-12.642 3.326-24.513 9.123-34.817 11.796 4.034 24.187 6.104 36.613 6.104 6.989 0 13.989-.652 20.897-1.971 23.779-4.541 43.364-9.831 59.276-15.123 10.426 12.401 16.729 28.376 16.729 45.807v33.201c0 3.314 2.687 6.002 6.002 6.002 3.314 0 6.002-2.687 6.002-6.002v-33.201c0-18.767-6.258-36.087-16.77-50.029 8.701-3.26 16.025-6.441 22.111-9.367 10.839 16.602 17.166 36.405 17.166 57.669v31.315c0 5.524 4.478 10.003 10.003 10.003 5.524 0 10.003-4.478 10.003-10.003v-31.315c0-24.747-7.199-47.835-19.588-67.315 5.685-3.498 11.324-7.267 14.889-10.033 30.227-23.451 53.441-57.234 65.367-95.125 6.657-21.154 9.6-42.566 8.748-63.64zm-260.132-160.855c10.715-7.288 25.138-9.332 39.57-5.605 18.845 4.866 29.512 20.267 38.031 34.321 1.587 2.617 4.285 4.364 7.322 4.741 3.036.376 6.08-.658 8.259-2.808 12.299-12.143 40.737-27.674 59.109-25.402 14.847 1.841 28.167 7.819 37.508 16.833 8.088 7.804 12.161 16.986 11.598 26.027-11.092-7.296-23.467-12.762-36.906-16.038-27.256-6.646-56.212-3.777-84.089 8.27-22.191-14.358-46.992-21.698-72.093-21.283-7.718.128-15.343 1.007-22.807 2.584 1.448-8.588 6.552-16.235 14.498-21.64zm232.3 218.488c-10.716 34.044-31.508 64.347-58.548 85.325-5.076 3.938-16.063 10.865-23.052 14.533-16.417 8.616-46.097 20.817-94.26 30.014-20.673 3.948-42.34.619-61.019-9.375-.479-.256-.956-.514-1.435-.774-41.531-22.582-73.24-61.313-91.747-112.051-4.105-15.182-6.317-28.14-6.929-40.494-2.133-43.067 11.705-83.859 37.966-111.918 20.5-21.903 47.265-34.223 75.366-34.692 17.392-.287 34.71 3.904 50.821 12.229-18.353 11.355-35.01 26.552-48.82 44.64-3.352 4.391-2.51 10.668 1.88 14.02 4.391 3.352 10.668 2.51 14.02-1.88 15.729-20.603 35.507-36.951 57.196-47.278.001-.001.001-.001 0 0 25.276-12.035 51.561-15.247 76.013-9.286 46.586 11.357 78.14 54.597 80.389 110.161.761 18.762-1.878 37.881-7.841 56.826z"/><path d="m310.202 215.352h-121.101c-43.932 0-79.673 35.741-79.673 79.674 0 43.932 35.741 79.673 79.673 79.673h121.102c43.932 0 79.673-35.741 79.673-79.673s-35.742-79.674-79.674-79.674zm0 147.344h-121.101c-37.314 0-67.67-30.357-67.67-67.67 0-37.314 30.357-67.67 67.67-67.67h121.102c37.314 0 67.67 30.357 67.67 67.67s-30.357 67.67-67.671 67.67z"/><ellipse cx="161.895" cy="317.199" rx="16.421" ry="16.421" transform="matrix(.989 -.151 .151 .989 -46.135 28.151)"/><ellipse cx="337.408" cy="317.199" rx="16.421" ry="16.421" transform="matrix(.973 -.23 .23 .973 -63.851 86.006)"/><path d="m177.926 263.25c-.741-.378-7.488-3.696-16.032-3.696-8.543 0-15.29 3.318-16.032 3.696-2.942 1.501-4.104 5.091-2.617 8.04 1.486 2.949 5.091 4.136 8.048 2.665.048-.024 4.883-2.397 10.601-2.397s10.553 2.373 10.575 2.384c.874.446 1.806.657 2.723.657 2.184 0 4.29-1.196 5.351-3.275 1.507-2.952.336-6.567-2.617-8.074z"/><path d="m353.44 263.25c-.741-.378-7.488-3.696-16.032-3.696s-15.29 3.318-16.032 3.696c-2.942 1.501-4.104 5.091-2.617 8.04s5.091 4.136 8.047 2.665c.048-.024 4.883-2.397 10.601-2.397s10.553 2.373 10.575 2.384c.874.446 1.806.657 2.723.657 2.184 0 4.29-1.196 5.351-3.275 1.508-2.952.336-6.567-2.616-8.074z"/><path d="m266.073 311.197c-3.314 0-6.002 2.687-6.002 6.002 0 5.745-4.674 10.419-10.419 10.419-5.746 0-10.42-4.674-10.42-10.419 0-3.314-2.687-6.002-6.002-6.002-3.314 0-6.002 2.687-6.002 6.002 0 12.364 10.059 22.422 22.423 22.422s22.423-10.059 22.423-22.422c0-3.315-2.687-6.002-6.001-6.002z"/><path d="m339.666 183.727c3.314 0 6.002-2.687 6.002-6.002v-10.3c0-3.314-2.687-6.002-6.002-6.002-3.314 0-6.001 2.687-6.001 6.002v10.3c0 3.315 2.687 6.002 6.001 6.002z"/><path d="m381.006 216.978c3.314 0 6.002-2.687 6.002-6.002v-10.3c0-3.314-2.687-6.002-6.002-6.002-3.314 0-6.002 2.687-6.002 6.002v10.3c.001 3.314 2.688 6.002 6.002 6.002z"/></g><path d="m119.727 214.375c-.976 0-1.969-.144-2.95-.446-5.279-1.627-8.239-7.226-6.612-12.505 3.039-9.858 7.098-18.791 12.064-26.551 2.978-4.653 9.164-6.012 13.817-3.034s6.011 9.164 3.034 13.817c-3.994 6.24-7.29 13.529-9.797 21.661-1.325 4.297-5.282 7.058-9.556 7.058z" fill="#fff"/><path d="m156.053 166.432c-3.677 0-7.215-2.035-8.964-5.55-2.46-4.947-.445-10.951 4.501-13.411 2.562-1.274 5.135-2.271 7.649-2.963 5.326-1.463 10.833 1.663 12.299 6.99 1.466 5.326-1.663 10.832-6.99 12.299-1.276.351-2.638.885-4.049 1.587-1.43.71-2.95 1.048-4.446 1.048z" fill="#fff"/></g><g><path d="m69.925 2.531 8.496 23.89c.364 1.023 1.084 1.833 1.993 2.243l21.225 9.563c2.999 1.351 2.999 6.129 0 7.48l-21.225 9.563c-.909.409-1.629 1.22-1.993 2.243l-8.496 23.89c-1.2 3.375-5.445 3.375-6.645 0l-8.496-23.89c-.364-1.023-1.084-1.833-1.993-2.243l-21.225-9.563c-2.999-1.351-2.999-6.129 0-7.48l21.225-9.563c.909-.41 1.629-1.22 1.993-2.243l8.496-23.89c1.2-3.375 5.445-3.375 6.645 0z" fill="#f1c7b6"/><ellipse cx="423.167" cy="33.307" fill="#eaa585" rx="18.552" ry="18.552" transform="matrix(.189 -.982 .982 .189 310.436 442.54)"/><circle cx="14.335" cy="140.067" fill="#eaa585" r="7.856"/><path d="m480.328 101.678 6.302 17.721c.27.759.804 1.36 1.478 1.664l15.744 7.093c2.224 1.002 2.224 4.546 0 5.548l-15.744 7.093c-.674.304-1.208.905-1.478 1.664l-6.302 17.721c-.89 2.504-4.039 2.504-4.93 0l-6.302-17.721c-.27-.759-.804-1.36-1.478-1.664l-15.745-7.093c-2.224-1.002-2.224-4.546 0-5.548l15.745-7.093c.674-.304 1.208-.905 1.478-1.664l6.302-17.721c.891-2.504 4.04-2.504 4.93 0z" fill="#f1c7b6"/></g></g></svg>