<svg id="Capa_1" enable-background="new 0 0 512 512" height="512" viewBox="0 0 512 512" width="512" xmlns="http://www.w3.org/2000/svg"><g><g><path d="m365.825 501.977v-29.987c0-61.259-49.66-110.92-110.92-110.92-61.259 0-110.92 49.66-110.92 110.92v29.987z" fill="#84eac4"/><path d="m262.675 400.01c21.416 9.632 36.48 32.493 36.48 59.171v6.419c0 9.992-8.1 18.092-18.092 18.092h-100.199v18.285h148.082v-28.333c0-38.268-29.032-69.75-66.271-73.634z" fill="#71afc4"/><g fill="#e58bbd"><ellipse cx="152.19" cy="185.536" rx="97.835" ry="97.835" transform="matrix(.707 -.707 .707 .707 -86.618 161.957)"/><circle cx="282.778" cy="160.871" r="97.835"/><ellipse cx="367.822" cy="207.819" rx="97.835" ry="97.835" transform="matrix(.707 -.707 .707 .707 -39.218 320.958)"/><circle cx="232.981" cy="377.49" r="97.835"/><ellipse cx="353.539" cy="341.642" rx="97.835" ry="97.835" transform="matrix(.707 -.707 .707 .707 -138.028 350.055)"/><ellipse cx="144.322" cy="317.39" rx="97.835" ry="97.835" transform="matrix(.707 -.707 .707 .707 -182.158 195.012)"/><ellipse cx="192.873" cy="249.672" rx="70.985" ry="95.345" transform="matrix(.64 -.768 .768 .64 -122.401 237.918)"/><ellipse cx="312.321" cy="253.793" rx="101.173" ry="72.086" transform="matrix(.767 -.642 .642 .767 -90.075 259.5)"/><ellipse cx="254.957" cy="294.92" rx="82.809" ry="134.049"/></g><path d="m309.982 361.437h-110.05c-36.975 0-66.949-29.974-66.949-66.948 0-36.975 29.974-66.949 66.949-66.949h110.05c36.975 0 66.948 29.974 66.948 66.949.001 36.974-29.973 66.948-66.948 66.948z" fill="#d49c8d"/><path d="m465.657 207.819c0-54.033-43.802-97.835-97.835-97.835-.488 0-.973.011-1.459.018-17.176-28.163-48.184-46.966-83.585-46.966-6.941 0-13.712.727-20.244 2.102 21.718 5.016 55.598 28.487 66.875 46.978.407-.006 1.22-.016 1.22-.016 45.177 0 66.332 26.813 66.332 71.991 0 24.924-18.009 52.486-35.59 67.49 10.249 13.401 14.624 33.873 14.947 51.969.809 45.254-52.908 57.89-53.215 57.887-3.905 7.749-22.296 32.135-38.819 42.452-26.349 16.452-63.445 4.004-74.825-10.621-116.45 11.597-153.857-70.969-160.53-97.66-1.594 7.006-2.442 14.295-2.442 21.783 0 53.485 42.921 96.938 96.197 97.815 14.765 35.308 49.632 60.12 90.297 60.12 34.101 0 64.122-17.45 81.634-43.905 12.541 5.445 26.443 8.346 41.058 8.034 51.703-1.103 93.971-42.871 95.649-94.559.766-23.584-6.825-45.367-20.028-62.631 21.027-17.944 34.363-44.636 34.363-74.446z" fill="#e068bd"/></g><g><g fill="#440b29"><path d="m475.68 207.819c0-58.147-46.252-105.685-103.897-107.778-19.451-28.371-52.084-47.028-89.005-47.028-32.258 0-61.25 14.239-81.032 36.756-14.848-7.716-31.697-12.092-49.555-12.092-59.474 0-107.858 48.385-107.858 107.858 0 22.567 6.973 43.532 18.869 60.868-16.633 18.983-26.738 43.824-26.738 70.986 0 56.721 44.011 103.356 99.677 107.55 1.333 2.709 2.785 5.349 4.333 7.926-4.212 12.278-6.511 25.436-6.511 39.124v29.987c0 5.535 4.488 10.023 10.023 10.023s10.023-4.488 10.023-10.023v-29.986c0-6.564.638-12.981 1.842-19.198 5.767 5.906 12.195 11.164 19.179 15.631-.114 1.727-.179 3.466-.179 5.221v31.793c0 3.321 2.693 6.014 6.014 6.014s6.014-2.693 6.014-6.014v-30.464c13.988 6.642 29.614 10.376 46.102 10.376 33.785 0 63.981-15.623 83.772-40.015 3.964 8.625 6.18 18.213 6.18 28.309v31.793c0 3.321 2.693 6.014 6.014 6.014s6.014-2.693 6.014-6.014v-31.793c0-9.34-1.613-18.309-4.568-26.647 7.372 1.618 15.023 2.48 22.869 2.501 1.655 7.235 2.54 14.762 2.54 22.493v29.987c0 5.535 4.488 10.023 10.023 10.023s10.023-4.488 10.023-10.023v-29.987c0-8.332-.863-16.464-2.477-24.324 50.033-9.338 88.026-53.324 88.026-106.023 0-21.333-6.234-41.233-16.965-57.991 19.304-19.498 31.248-46.293 31.248-75.833zm-20.046 0c0 23.127-8.989 44.191-23.655 59.89-7.555-8.01-16.313-14.872-25.992-20.282 6.03-24.215 1.986-46.34-11.449-62.403-13.636-16.301-35.12-24.195-60.512-22.224-12.056.936-24.316 4.081-36.239 9.157-2.384-2.06-4.828-3.938-7.321-5.637 14.836-27.543 43.94-46.313 77.356-46.313 48.42 0 87.812 39.392 87.812 87.812zm-123.625 17.113c-3.664-10.064-8.133-19.464-13.381-27.959-3.606-5.838-7.484-11.108-11.588-15.791 11.742-4.437 23.476-6.702 34.422-6.702 17.837 0 33.585 5.986 43.851 18.261 11.071 13.236 14.185 31.964 8.767 52.734-2.695 10.332-7.335 20.533-13.612 30.181-6.432-24.046-24.86-43.235-48.459-50.724zm-77.052 198.022c-19.956 0-38.934-12.93-53.438-36.409-3.737-6.05-7.041-12.616-9.916-19.584 2.736.312 5.511.489 8.329.489h110.05c2.822 0 5.601-.177 8.341-.491-2.878 6.969-6.188 13.534-9.927 19.586-14.505 23.479-33.483 36.409-53.439 36.409zm55.025-67.531h-110.05c-33.6 0-60.935-27.335-60.935-60.935 0-33.599 27.335-60.934 60.935-60.934h110.05c33.6 0 60.935 27.335 60.935 60.934 0 33.6-27.335 60.935-60.935 60.935zm-180.558-79.688c-6.953-10.107-11.961-20.994-14.628-32.092-4.79-19.936-1.428-38.112 9.467-51.178 10.446-12.529 26.381-18.672 44.218-18.672 11.1 0 22.933 2.403 34.635 7.109-4.195 4.752-8.153 10.118-11.83 16.071-5.244 8.489-9.7 17.892-13.359 27.952-23.636 7.494-42.089 26.719-48.503 50.81zm178.971-72.441c3.577 5.79 6.767 12.045 9.56 18.677-2.62-.287-5.278-.444-7.973-.444h-110.05c-2.688 0-5.34.157-7.954.441 2.787-6.629 5.966-12.887 9.541-18.674 14.504-23.479 33.482-36.409 53.438-36.409s38.934 12.93 53.438 36.409zm-25.617-130.235c25.712 0 48.877 11.111 64.95 28.781-32.68 6.182-60.183 27.162-75.283 55.677-5.689-1.756-11.538-2.659-17.488-2.659-15.215 0-29.775 5.875-42.655 16.943-5.694-2.556-11.45-4.624-17.195-6.19-.085-1.57-.141-3.148-.141-4.739-.001-48.421 39.392-87.813 87.812-87.813zm-130.588 24.664c13.463 0 26.224 3.053 37.638 8.492-9.467 16.038-14.909 34.722-14.909 54.656 0 .427.017.85.022 1.274-23.894-1.653-45.882 5.785-59.917 22.615-7.932 9.514-12.65 21.081-13.994 33.862-8.274 3.64-16.006 8.287-23.041 13.79-8.608-13.574-13.611-29.648-13.611-46.877 0-48.42 39.392-87.812 87.812-87.812zm-95.681 219.667c0-33.036 18.345-61.858 45.376-76.845.338 1.955.739 3.924 1.215 5.907 3.904 16.249 12.192 32.031 23.922 45.929-.02.702-.053 1.4-.053 2.107 0 32.42 21.26 59.955 50.566 69.432 3.595 10.064 8.01 19.457 13.177 27.98-13.472 8.419-29.368 13.302-46.391 13.302-48.419.001-87.812-39.392-87.812-87.812zm176.472 147.913c-31.234 0-58.701-16.398-74.271-41.031 15.943-2.137 30.797-7.756 43.758-16.086 15.07 17.402 33.254 26.796 52.489 26.796 10.977 0 21.611-3.067 31.521-8.926 4.071 3.241 8.382 6.191 12.9 8.826-16.113 18.618-39.9 30.421-66.397 30.421zm120.558-35.849c-18.905 0-36.42-6.024-50.765-16.227 5.702-5.732 11.021-12.537 15.853-20.359 5.417-8.768 10-18.504 13.726-28.94 29.319-9.468 50.591-37.011 50.591-69.44 0-.577-.03-1.145-.044-1.718 6.587-8.253 12.061-17.038 16.254-26.107 25.278 15.431 42.197 43.258 42.197 74.979.001 48.419-39.392 87.812-87.812 87.812z"/><path d="m174.634 298.413c-8.301 0-15.03 6.728-15.03 15.03 0 8.3 6.729 15.03 15.03 15.03s15.03-6.729 15.03-15.03-6.729-15.03-15.03-15.03z"/><ellipse cx="335.279" cy="313.443" rx="15.03" ry="15.03" transform="matrix(.987 -.16 .16 .987 -45.879 57.753)"/><path d="m189.545 263.602c-.69-.352-6.969-3.44-14.91-3.44s-14.22 3.088-14.91 3.44c-2.947 1.503-4.11 5.098-2.622 8.053 1.487 2.953 5.098 4.146 8.061 2.674.044-.021 4.37-2.14 9.472-2.14s9.428 2.119 9.443 2.125c.875.447 1.809.659 2.729.659 2.188 0 4.298-1.198 5.361-3.281 1.508-2.959.334-6.581-2.624-8.09z"/><path d="m350.19 263.602c-.69-.352-6.969-3.44-14.91-3.44s-14.22 3.088-14.91 3.44c-2.947 1.503-4.11 5.098-2.622 8.053 1.486 2.953 5.096 4.146 8.061 2.674.044-.021 4.37-2.14 9.472-2.14s9.428 2.119 9.443 2.125c.875.447 1.809.659 2.729.659 2.188 0 4.298-1.198 5.361-3.281 1.508-2.959.334-6.581-2.624-8.09z"/><path d="m269.987 307.429c-3.321 0-6.014 2.693-6.014 6.014 0 4.971-4.044 9.016-9.016 9.016s-9.016-4.044-9.016-9.016c0-3.321-2.693-6.014-6.014-6.014s-6.014 2.693-6.014 6.014c0 11.604 9.44 21.043 21.044 21.043s21.043-9.44 21.043-21.043c0-3.321-2.692-6.014-6.013-6.014z"/><path d="m404.616 347.236c-3.321 0-6.014 2.693-6.014 6.014v10.428c0 3.321 2.693 6.014 6.014 6.014s6.014-2.693 6.014-6.014v-10.428c-.001-3.321-2.693-6.014-6.014-6.014z"/><path d="m364.542 377.584c-3.321 0-6.014 2.693-6.014 6.014v10.427c0 3.321 2.693 6.014 6.014 6.014s6.014-2.693 6.014-6.014v-10.427c0-3.321-2.693-6.014-6.014-6.014z"/><path d="m360.171 194.335c-3.321 0-6.014 2.693-6.014 6.014v10.427c0 3.321 2.693 6.014 6.014 6.014s6.014-2.693 6.014-6.014v-10.427c0-3.321-2.693-6.014-6.014-6.014z"/><path d="m145.362 371.15c0-3.321-2.693-6.014-6.014-6.014s-6.014 2.693-6.014 6.014v10.428c0 3.321 2.693 6.014 6.014 6.014s6.014-2.693 6.014-6.014z"/></g><path d="m158.198 133.683c-.586 0-1.18-.052-1.779-.159-3.072-.55-6.094-.849-8.98-.886-5.535-.072-9.964-4.616-9.893-10.151.07-5.491 4.545-9.894 10.019-9.894.044 0 .088 0 .132.001 3.981.051 8.104.454 12.255 1.197 5.449.976 9.075 6.184 8.1 11.633-.868 4.851-5.093 8.259-9.854 8.259z" fill="#fff"/><path d="m95.032 170.897c-1.344 0-2.708-.272-4.018-.846-5.07-2.222-7.379-8.133-5.157-13.203 3.899-8.896 9.25-17.129 15.905-24.471 3.718-4.103 10.058-4.413 14.158-.695 4.101 3.717 4.412 10.056.695 14.157-5.199 5.735-9.369 12.146-12.397 19.055-1.65 3.761-5.328 6.003-9.186 6.003z" fill="#fff"/></g><g><path d="m45.669 2.536 8.514 23.938c.364 1.025 1.086 1.837 1.997 2.248l21.268 9.582c3.005 1.354 3.005 6.141 0 7.495l-21.268 9.582c-.911.41-1.632 1.222-1.997 2.247l-8.514 23.938c-1.203 3.382-5.456 3.382-6.659 0l-8.513-23.938c-.365-1.025-1.086-1.837-1.997-2.247l-21.269-9.581c-3.005-1.354-3.005-6.141 0-7.495l21.269-9.583c.911-.41 1.632-1.222 1.997-2.248l8.513-23.938c1.203-3.381 5.456-3.381 6.659 0z" fill="#f0c4db"/><path d="m406.242 26.23c0 10.267-8.323 18.59-18.59 18.59s-18.59-8.323-18.59-18.59 8.323-18.59 18.59-18.59c10.267.001 18.59 8.323 18.59 18.59z" fill="#e58bbd"/><ellipse cx="192.873" cy="32.871" fill="#e58bbd" rx="7.873" ry="7.872" transform="matrix(.16 -.987 .987 .16 129.532 217.988)"/><path d="m481.778 48.559 6.315 17.757c.27.76.805 1.363 1.481 1.667l15.777 7.108c2.229 1.004 2.229 4.555 0 5.56l-15.777 7.108c-.676.304-1.211.907-1.481 1.667l-6.315 17.757c-.892 2.509-4.047 2.509-4.94 0l-6.315-17.757c-.27-.76-.806-1.363-1.481-1.667l-15.777-7.108c-2.229-1.004-2.229-4.555 0-5.56l15.777-7.108c.675-.304 1.211-.907 1.481-1.667l6.315-17.757c.893-2.509 4.048-2.509 4.94 0z" fill="#f0c4db"/></g></g></svg>