<svg id="Capa_1" enable-background="new 0 0 512 512" height="512" viewBox="0 0 512 512" width="512" xmlns="http://www.w3.org/2000/svg"><g><g><path d="m322.572 482.077h-233.57c-21.297 0-38.561-17.264-38.561-38.561v-114.581h310.692v114.581c0 21.297-17.264 38.561-38.561 38.561z" fill="#f7e266"/><path d="m309.116 500.878v-27.935c0-57.067-46.262-103.329-103.329-103.329-57.067 0-103.329 46.262-103.329 103.329v27.935z" fill="#fff"/><path d="m248.584 462.192c-8.064-7.392-2.688-43.99-2.688-43.99-6.798-4.882-14.517-8.563-22.847-10.728v35.441c-10.955 8.578-21.521 9.341-31.583 0v-36.207c-9.062 1.885-17.478 5.533-24.863 10.585 0 0 4.032 36.164-2.016 44.228s-27.482 3.36-27.482 3.36c-.43 3.118-.67 6.296-.67 9.532v26.467h138.326v-26.467c0-3.468-.27-6.872-.763-10.203 0-.002-17.351 5.374-25.414-2.018z" fill="#84eac4"/><path d="m213.025 405.89c19.95 8.973 33.984 30.269 33.984 55.121v5.98c0 9.308-7.546 16.854-16.854 16.854h-93.341v17.034h137.948v-26.394c-.001-35.65-27.046-64.977-61.737-68.595z" fill="#eebdfa"/><g fill="#71afc4"><path d="m223.049 407.473v4.324c9.762 7.255 17.253 17.823 21.096 30.211-.024-11.696 1.751-23.807 1.751-23.807-6.798-4.881-14.517-8.562-22.847-10.728z"/><path d="m274.761 474.411c0-3.468-.27-6.872-.763-10.203 0 0-17.351 5.376-25.414-2.016-.607-.557-1.13-1.296-1.592-2.155.005.325.017.648.017.974v5.979c0 9.309-7.546 16.854-16.854 16.854h-93.341v17.034h137.948v-26.467z"/></g><g fill="#f4d6d4"><ellipse cx="355.908" cy="328.499" rx="34.219" ry="34.219" transform="matrix(.16 -.987 .987 .16 -25.359 627.192)"/><ellipse cx="55.666" cy="328.499" rx="34.219" ry="34.219" transform="matrix(.16 -.987 .987 .16 -277.508 330.827)"/><path d="m234.946 413.064h-58.318c-72.468 0-131.215-58.747-131.215-131.215 0-72.468 58.747-131.215 131.215-131.215h58.318c72.468 0 131.215 58.747 131.215 131.215.001 72.468-58.747 131.215-131.215 131.215z"/></g><path d="m234.946 150.555h-16.826c58.751 0 106.378 47.627 106.378 106.378v9.034c0 58.751-47.627 106.378-106.378 106.378h-66.329c-56.223 0-102.252-43.618-106.11-98.86-.171 2.741-.268 5.502-.268 8.286 0 72.468 58.747 131.215 131.215 131.215h58.318c72.468 0 131.215-58.747 131.215-131.215.001-72.469-58.747-131.216-131.215-131.216z" fill="#e69fd5"/><path d="m354.706 334.516c15.669-9.7 29.1-24.623 30.808-50.162v-15.396c0-85.262-69.119-154.381-154.381-154.381h-50.691c-85.262 0-154.381 69.119-154.381 154.381v15.396c1.088 27.032 17.255 41.457 28.696 50.908l31.315-99.629 37.126 26.036 40.48-30.706 42.111 30.958 43.733-33.52 44.84 33.751 30.376-27.965z" fill="#f7e266"/><path d="m267.794 41.898-214.923 36.773c-15.993 2.737-26.74 17.92-24.004 33.913l13.36 78.085 272.84-46.683-13.36-78.085c-2.736-15.993-17.92-26.74-33.913-24.003z" fill="#f5dbb6"/><path d="m31.962 94.341h276.113v45.117h-276.113z" fill="#e58bbd" transform="matrix(.986 -.169 .169 .986 -17.28 30.348)"/><path d="m248.694 66.763 2.301 13.445c7.463-1.399 14.905-2.923 22.393-4.199 9.734-1.659 19.487-3.203 29.252-4.662l-.932-5.446c-2.737-15.993-17.92-26.74-33.914-24.004l-43.673 7.472c11.588-1.982 22.59 5.805 24.573 17.394z" fill="#eaa5b6"/><path d="m237.696 118.1v10.106l72.206-12.355-7.609-44.47-51.308 8.779 2.069 12.093c1.949 11.383-4.762 22.243-15.358 25.847z" fill="#e068bd"/><path d="m332.811 155.702-303.423 51.916c-7.444 1.274-14.511-3.729-15.785-11.173l-3.372-19.704c-1.274-7.444 3.729-14.512 11.173-15.785l303.423-51.916c7.444-1.274 14.511 3.729 15.785 11.173l3.372 19.705c1.274 7.443-3.729 14.51-11.173 15.784z" fill="#f5dbb6"/><path d="m332.461 503.107c-6.562-2.735-9.664-10.272-6.929-16.833l104.473-250.649c2.735-6.562 10.271-9.664 16.833-6.929 6.562 2.735 9.664 10.272 6.929 16.833l-104.473 250.649c-2.735 6.562-10.271 9.664-16.833 6.929z" fill="#d49c8d"/></g><g fill="#440b29"><circle cx="127.503" cy="336.028" r="14.648"/><ellipse cx="284.071" cy="336.028" rx="14.648" ry="14.648" transform="matrix(.707 -.707 .707 .707 -154.405 299.289)"/><path d="m142.107 287.311c-.676-.345-6.827-3.37-14.604-3.37-7.778 0-13.928 3.026-14.604 3.37-2.949 1.505-4.113 5.102-2.624 8.06 1.488 2.957 5.102 4.149 8.068 2.679.042-.021 4.228-2.069 9.16-2.069s9.118 2.049 9.13 2.054c.876.448 1.811.659 2.732.659 2.19 0 4.302-1.199 5.367-3.284 1.512-2.962.336-6.589-2.625-8.099z"/><path d="m298.675 287.311c-.676-.345-6.827-3.37-14.604-3.37s-13.929 3.026-14.605 3.37c-2.961 1.512-4.136 5.137-2.624 8.099 1.512 2.96 5.136 4.136 8.099 2.624.04-.021 4.242-2.054 9.13-2.054 4.931 0 9.117 2.049 9.129 2.054.877.448 1.812.659 2.733.659 2.19 0 4.302-1.199 5.366-3.283 1.512-2.962.337-6.588-2.624-8.099z"/><path d="m220.436 330.008c-3.324 0-6.02 2.695-6.02 6.02 0 4.758-3.871 8.629-8.629 8.629s-8.628-3.871-8.628-8.629c0-3.324-2.695-6.02-6.02-6.02-3.324 0-6.02 2.695-6.02 6.02 0 11.397 9.272 20.669 20.668 20.669s20.668-9.272 20.668-20.669c0-3.325-2.695-6.02-6.019-6.02z"/><path d="m487.983 286.918c-10.508-22.263-22.153-42.243-28.126-52.121-.153-.473-.31-.945-.502-1.409-1.92-4.667-5.544-8.306-10.203-10.248-9.611-4.004-20.697.555-24.704 10.169l-30.368 72.858c-.208-.354-.427-.7-.644-1.047 2.091-6.224 3.38-12.886 3.855-19.978.018-.262.027-.525.027-.788v-15.395c0-44.546-17.63-85.043-46.265-114.911 2.76-4.777 3.762-10.316 2.82-15.822l-3.372-19.704c-2.204-12.884-14.479-21.579-27.366-19.37l-5.403.924-6.136-35.865c-1.775-10.377-7.486-19.441-16.078-25.523-8.593-6.081-19.039-8.454-29.416-6.677l-214.923 36.772c-10.377 1.775-19.441 7.486-25.523 16.078-6.082 8.593-8.454 19.039-6.678 29.416l6.137 35.865-5.402.924c-12.885 2.204-21.574 14.481-19.37 27.367l3.371 19.704c1.701 9.943 9.402 17.371 18.749 19.24-5.32 16.245-8.207 33.581-8.207 51.581v15.395c0 .159.003.316.01.475.308 7.646 1.673 14.458 3.705 20.533-4.153 6.736-6.557 14.66-6.557 23.138 0 18.368 11.251 34.155 27.222 40.84v74.178c0 27.772 22.594 50.366 50.366 50.366h3.423v6.996c0 5.541 4.492 10.033 10.033 10.033s10.033-4.492 10.033-10.033v-27.935c0-21.476 7.301-41.277 19.543-57.062 6.827 2.277 13.884 4.044 21.126 5.261-13.794 13.603-22.368 32.483-22.368 53.341v29.618c0 3.324 2.695 6.02 6.02 6.02s6.02-2.695 6.02-6.02v-29.618c0-.638.021-1.271.04-1.904h10.627c12.027 0 21.811-9.784 21.811-21.811v-27.684c.439.004.877.013 1.317.013h8.146v11.199c0 12.027 9.784 21.811 21.811 21.811s21.812-9.784 21.812-21.811v-11.199h6.549c.974 0 1.945-.01 2.914-.03v27.702c0 12.027 9.785 21.811 21.812 21.811h9.034c.019.633.036 1.266.036 1.904v29.618c0 3.324 2.695 6.02 6.02 6.02 3.324 0 6.02-2.695 6.02-6.02v-29.618c0-20.857-8.574-39.737-22.366-53.342 7.243-1.216 14.299-2.985 21.126-5.263 12.242 15.786 19.541 35.588 19.541 57.065v27.935c0 5.541 4.492 10.033 10.033 10.033s10.033-4.492 10.033-10.033v-4.939c1.435 5.532 5.327 10.361 10.997 12.724 2.367.987 4.823 1.454 7.242 1.454 7.401 0 14.443-4.377 17.464-11.623l39.945-95.836c10.247 1.667 25.337 3.638 41.248 4.035 1.924.048 3.81.072 5.662.072 36.112 0 58.223-9.142 65.753-27.208 7.546-18.106.994-49.275-19.476-92.641zm-31.02-33.409c5.071 8.867 10.644 19.168 16.02 30.043l-8.588 20.604-17.123-27.398zm-15.371 36.877 17.123 27.398-6.654 15.963-21.331-17.302zm24.948 39.918 19.249 30.8-23.98-19.451zm-40.638-2.274 21.331 17.302-7.712 18.501-25.593-7.076zm31.079 25.209 28.845 23.397-34.609-9.569zm41.446 5.371-26.207-41.933 7.699-18.472c9.706 21.492 17.528 43.665 18.508 60.405zm-263.481 44.421h-58.318c-48.03 0-89.61-28.095-109.204-68.708l25.072-79.766 23.923 16.777c4.201 2.946 9.824 2.841 13.912-.26l33.456-25.38 35.009 25.737c4.23 3.11 10.006 3.052 14.173-.142l36.617-28.066 37.677 28.359c4.551 3.426 10.903 3.112 15.094-.747l16.477-15.17 24.176 80.938c-20.034 39.378-60.94 66.428-108.064 66.428zm145.148-74.566c0 .011.001.022.001.034 0 12.93-10.201 23.523-22.977 24.155 1.639-2.817 3.185-5.694 4.631-8.63 7.19-4.551 13.31-9.743 18.345-15.559zm-6.385-44.521c-.892 12.296-4.993 22.247-12.688 30.471l-24.974-83.607c-1.165-3.9-4.257-6.925-8.182-8.004-1.033-.284-2.084-.422-3.128-.422-2.926 0-5.789 1.089-7.996 3.12l-23.14 21.303-36.982-27.836c-4.235-3.186-10.073-3.163-14.28.063l-36.7 28.13-34.972-25.71c-4.212-3.097-9.962-3.052-14.126.106l-33.618 25.502-30.076-21.091c-3.081-2.161-7.009-2.724-10.573-1.513-3.564 1.21-6.337 4.048-7.466 7.637l-25.619 81.51c-6.181-7.46-10.759-16.674-11.325-29.498v-15.148c0-19.281 3.856-37.675 10.823-54.464l281.335-48.137c26.914 25.949 43.686 62.35 43.686 102.601v14.987zm-331.675-187.49c2.985-4.218 7.435-7.021 12.529-7.893l214.923-36.773c5.098-.869 10.223.293 14.439 3.278 4.218 2.985 7.021 7.435 7.893 12.529l.064.376-253.061 43.298-.064-.376c-.872-5.094.292-10.221 3.277-14.439zm-1.183 26.682 253.062-43.299 4.042 23.621-253.062 43.3zm-17.755 47.708 303.424-51.916c.207-.035.413-.052.616-.052 1.74 0 3.284 1.256 3.588 3.028l3.371 19.704c.221 1.293-.292 2.257-.617 2.717-.325.459-1.065 1.265-2.359 1.486l-303.423 51.918c-1.975.337-3.865-.996-4.204-2.976l-3.371-19.704c-.339-1.98.996-3.866 2.975-4.205zm8.403 158.415c5.692 6.8 11.612 11.695 15.739 15.104 1.147.948 2.448 1.648 3.822 2.102 1.081 2.093 2.209 4.159 3.39 6.19-12.522-.624-22.56-10.816-22.951-23.396zm60.958 141.014h-3.455c-14.754 0-26.757-12.003-26.757-26.757v-71.27c1.722-.26 3.413-.612 5.065-1.064 12.447 15.206 27.995 27.777 45.672 36.739-12.468 17.741-19.987 39.197-20.525 62.352zm61.042-9.733h-9.097c2.881-12.68 9.599-23.913 18.869-32.415v22.644c0 5.387-4.383 9.771-9.772 9.771zm62.858-26.244c0 5.388-4.384 9.771-9.772 9.771s-9.771-4.384-9.771-9.771v-11.199h19.543zm50.825 26.244h-7.51c-5.388 0-9.772-4.384-9.772-9.771v-21.136c8.446 8.305 14.569 18.963 17.282 30.907zm31.408-52.614c17.681-8.963 33.233-21.538 45.682-36.747 1.65.451 3.337.806 5.057 1.065v41.29l-23.56 56.525c-1.051.126-2.113.215-3.197.215h-3.455c-.538-23.155-8.06-44.608-20.527-62.348zm45.148 85.936c-1.454 3.487-5.473 5.141-8.962 3.689-3.487-1.454-5.141-5.474-3.688-8.961l104.473-250.648c1.095-2.629 3.649-4.216 6.333-4.216.877 0 1.768.17 2.627.527 1.69.704 3.004 2.024 3.701 3.717.697 1.692.693 3.555-.012 5.244zm65.521-125.904 25.593 7.076-7.987 19.162c-.011.026-.018.054-.029.08-9.741-.608-19.169-1.733-27.299-2.995zm30.421 26.787 6.868-16.477 35.703 9.871c-11.056 5.083-26.651 6.743-42.571 6.606z"/><path d="m230.66 473.252h-50.124c-3.324 0-6.02 2.695-6.02 6.02 0 17.138 13.943 31.082 31.082 31.082 17.138 0 31.082-13.943 31.082-31.082 0-3.325-2.695-6.02-6.02-6.02zm-25.062 25.062c-8.397 0-15.542-5.463-18.067-13.022h36.135c-2.526 7.559-9.671 13.022-18.068 13.022z"/></g><g><path d="m475.778 3.628 8.522 23.962c.365 1.026 1.087 1.839 1.999 2.25l21.29 9.592c3.008 1.355 3.008 6.147 0 7.502l-21.29 9.592c-.911.411-1.634 1.224-1.999 2.25l-8.522 23.962c-1.204 3.385-5.462 3.385-6.666 0l-8.522-23.962c-.365-1.026-1.087-1.839-1.999-2.25l-21.29-9.592c-3.008-1.355-3.008-6.147 0-7.502l21.29-9.592c.912-.411 1.634-1.224 1.999-2.25l8.522-23.962c1.204-3.385 5.462-3.385 6.666 0z" fill="#fbf2a8"/><path d="m374.516 22.864c0 10.277-8.331 18.608-18.608 18.608s-18.608-8.331-18.608-18.608 8.331-18.608 18.608-18.608 18.608 8.331 18.608 18.608z" fill="#f7e266"/><path d="m512 190.67c0 4.352-3.528 7.88-7.88 7.88s-7.88-3.528-7.88-7.88 3.528-7.88 7.88-7.88c4.352-.001 7.88 3.527 7.88 7.88z" fill="#f7e266"/><path d="m432.47 108.833 6.322 17.775c.271.761.806 1.364 1.483 1.669l15.792 7.115c2.231 1.005 2.231 4.56 0 5.565l-15.792 7.115c-.676.305-1.212.908-1.483 1.669l-6.322 17.775c-.893 2.511-4.051 2.511-4.944 0l-6.322-17.775c-.271-.761-.806-1.364-1.483-1.669l-15.792-7.115c-2.231-1.005-2.231-4.56 0-5.565l15.792-7.115c.676-.305 1.212-.908 1.483-1.669l6.322-17.775c.893-2.511 4.051-2.511 4.944 0z" fill="#fbf2a8"/></g></g></svg>