<svg id="Capa_1" enable-background="new 0 0 512 512" height="512" viewBox="0 0 512 512" width="512" xmlns="http://www.w3.org/2000/svg"><g><g><path d="m139.609 424.952c-27.919 24.461-74.541 23.604-80.444 17.701s.375-63.118 17.701-80.444 45.417-17.326 62.743 0 17.326 45.416 0 62.743z" fill="#f7e266"/><path d="m369.91 424.952c27.919 24.461 74.54 23.604 80.444 17.701s-.375-63.118-17.701-80.444-45.417-17.326-62.743 0-17.326 45.416 0 62.743z" fill="#f7e266"/><path d="m371.848 501.93v-31.655c0-64.667-52.423-117.089-117.089-117.089-64.667 0-117.089 52.423-117.089 117.089v31.655z" fill="#f1c7b6"/><path d="m181.666 444.329c-3.264 8.61-5.066 17.939-5.066 27.692v29.91h156.318v-29.91c0-9.754-1.802-19.082-5.066-27.692z" fill="#e58bbd"/><path d="m300.424 444.413h27.458c-10.235-27.088-35.073-47.006-64.922-50.118 19.223 8.645 33.591 27.388 37.464 50.118z" fill="#e795b6"/><path d="m300.996 448.449c.308 2.723.474 5.493.474 8.307v6.776c0 10.548-8.551 19.098-19.098 19.098h-105.772v19.303h156.318v-29.909c0-8.22-1.288-16.134-3.64-23.575z" fill="#e068bd"/><g fill="#f1c7b6"><circle cx="424.872" cy="306.596" r="38.776"/><circle cx="84.647" cy="306.596" r="38.776"/><path d="m287.801 402.422h-66.084c-82.119 0-148.689-66.57-148.689-148.689 0-82.119 66.57-148.689 148.689-148.689h66.084c82.119 0 148.689 66.57 148.689 148.689.001 82.119-66.57 148.689-148.689 148.689z"/></g><path d="m287.801 104.955h-19.067c66.575 0 120.544 53.969 120.544 120.544v10.237c0 66.575-53.969 120.544-120.544 120.544h-75.162c-63.71 0-115.869-49.427-120.24-112.025-.194 3.106-.304 6.234-.304 9.389v.001c0 82.119 66.57 148.689 148.689 148.689h66.084c82.119 0 148.689-66.57 148.689-148.689v-.001c.001-82.119-66.57-148.689-148.689-148.689z" fill="#e795b6"/><path d="m52.505 274.855c-3.217-9.871-3.516-29.965-3.516-29.965 1.951-91.307 76.571-164.727 168.346-164.727h74.842c91.775 0 166.395 73.42 168.346 164.727 0 0 .418 17.713-5.592 27.729l-19.549-15.195c-38.994 12.559-89.342 2.067-130.426-31.114-23.87-19.278-40.907-43.227-50.2-67.906-9.293 24.679-26.33 48.628-50.2 67.906-41.106 33.199-91.485 43.684-130.488 31.093" fill="#a183e2"/><path d="m52.505 274.855c-3.217-9.871-3.516-29.965-3.516-29.965 1.951-91.307 76.571-164.727 168.346-164.727h74.842c91.775 0 166.395 73.42 168.346 164.727 0 0 .418 17.713-5.592 27.729l-19.549-15.195c-38.994 12.559-89.342 2.067-130.426-31.114-23.87-19.278-40.907-43.227-50.2-67.906-9.293 24.679-26.33 48.628-50.2 67.906-41.106 33.199-91.485 43.684-130.488 31.093" fill="#f7e266"/><path d="m78.617 153.11c-6.359-4.383-7.766-13.21-3.059-19.333 35.285-45.894 82.694-81.788 141.105-81.788h74.842c54.817 0 98.733 33.588 133.89 74.852 4.913 5.766 4.084 14.45-1.883 19.117-5.355 4.189-12.956 3.602-17.729-1.24-28.476-28.891-72.75-32.879-113.607-32.879h-74.842c-43.613 0-92.207 6.413-120.876 39.012-4.535 5.159-12.185 6.158-17.841 2.259z" fill="#e58bbd"/><path d="m292.605 305.235c-25.659-28.613-51.34-28.624-77.043 0v-34.165c25.681-19.993 51.362-19.509 77.043 0z" fill="#84eac4"/><path d="m107.599 297.828h-15.18c-9.434 0-17.082-7.648-17.082-17.082 0-9.434 7.648-17.082 17.082-17.082h15.18c9.434 0 17.083 7.648 17.083 17.082-.001 9.434-7.649 17.082-17.083 17.082z" fill="#84eac4"/><ellipse cx="165.075" cy="297.829" fill="#84eac4" rx="62.495" ry="62.495" transform="matrix(.973 -.23 .23 .973 -64.011 45.894)"/><circle cx="165.075" cy="297.828" fill="#8bb6ef" r="38.065"/><path d="m401.92 297.828h15.18c9.434 0 17.082-7.648 17.082-17.082 0-9.434-7.648-17.082-17.082-17.082h-15.18c-9.434 0-17.083 7.648-17.083 17.082 0 9.434 7.648 17.082 17.083 17.082z" fill="#84eac4"/><ellipse cx="344.444" cy="297.829" fill="#84eac4" rx="62.495" ry="62.495" transform="matrix(.707 -.707 .707 .707 -109.711 330.791)"/><circle cx="344.444" cy="297.828" fill="#8bb6ef" r="38.065"/><g fill="#fff"><path d="m63.128 142.313c5.123 8.816 33.645 21.153 33.645 21.153s3.403-30.889-1.72-39.705-16.423-11.81-25.239-6.687c-8.815 5.123-11.809 16.423-6.686 25.239z"/><path d="m65.055 187.554c10.099-1.406 32.313-23.137 32.313-23.137s-27.304-14.84-37.403-13.435c-10.099 1.406-17.147 10.732-15.741 20.831s10.732 17.147 20.831 15.741z"/><path d="m111.505 198.008c.721-10.171-15.927-36.411-15.927-36.411s-20.184 23.629-20.905 33.8 6.94 19.001 17.111 19.722c10.17.721 19-6.94 19.721-17.111z"/><path d="m135.301 159.628c-9.22-4.354-39.707 1.667-39.707 1.667s14.72 27.368 23.941 31.722c9.22 4.354 20.224.409 24.578-8.811 4.353-9.22.408-20.224-8.812-24.578z"/><path d="m103.966 125.142c-6.181 8.109-6.653 39.182-6.653 39.182s29.837-8.688 36.019-16.797c6.181-8.109 4.619-19.694-3.49-25.875-8.11-6.182-19.694-4.619-25.876 3.49z"/></g><path d="m81.413 170.612c4.682 8.056 15.008 10.792 23.064 6.111 8.056-4.682 10.792-15.008 6.11-23.064-4.681-8.056-15.008-10.792-23.064-6.11-8.056 4.68-10.792 15.006-6.11 23.063z" fill="#f7e266"/><g fill="#fff"><path d="m382.717 142.313c5.123 8.816 33.645 21.153 33.645 21.153s3.403-30.889-1.72-39.705-16.423-11.81-25.239-6.687c-8.815 5.123-11.809 16.423-6.686 25.239z"/><path d="m384.644 187.554c10.099-1.406 32.313-23.137 32.313-23.137s-27.304-14.84-37.403-13.435c-10.099 1.406-17.147 10.732-15.741 20.831s10.732 17.147 20.831 15.741z"/><path d="m431.094 198.008c.721-10.171-15.927-36.411-15.927-36.411s-20.184 23.629-20.905 33.8 6.94 19.001 17.111 19.722c10.17.721 19-6.94 19.721-17.111z"/><path d="m454.89 159.628c-9.22-4.354-39.707 1.667-39.707 1.667s14.72 27.368 23.941 31.722c9.22 4.354 20.224.409 24.578-8.811 4.353-9.22.408-20.224-8.812-24.578z"/><path d="m423.555 125.142c-6.181 8.109-6.653 39.182-6.653 39.182s29.837-8.688 36.018-16.797c6.182-8.109 4.619-19.694-3.49-25.875-8.108-6.182-19.694-4.619-25.875 3.49z"/></g><path d="m401.002 170.612c4.682 8.056 15.008 10.792 23.064 6.111 8.056-4.682 10.792-15.008 6.11-23.064s-15.008-10.792-23.064-6.11c-8.056 4.68-10.792 15.006-6.11 23.063z" fill="#f7e266"/></g><g fill="#440b29"><path d="m439.773 355.088c-.515-.515-1.039-1.018-1.572-1.51 20.473-5.817 35.516-24.669 35.516-46.982 0-11.008-3.67-21.166-9.84-29.342 6.977-12.176 6.762-30.521 6.713-32.58-.363-16.996-3.112-33.596-8.047-49.424 2.771-2.272 5.045-5.128 6.62-8.464 5.769-12.218.522-26.851-11.695-32.622 0 0 0 0-.001 0-.57-.27-1.206-.5-1.871-.712.828-.744 1.547-1.5 2.128-2.262 8.192-10.746 6.114-26.152-4.632-34.344-5.205-3.968-11.645-5.672-18.131-4.796-2.549.344-4.983 1.075-7.242 2.145-43.273-48.606-87.895-72.276-136.215-72.276h-74.842c-47.984 0-93.734 23.071-133.442 66.967-5.656-.977-11.42.044-16.442 2.964-5.659 3.288-9.699 8.584-11.375 14.911-1.664 6.279-.798 12.826 2.428 18.455-12.682 2.46-21.393 14.486-19.591 27.43.998 7.167 5.03 13.165 10.605 16.923-6.121 17.519-9.518 36.064-9.924 55.106-.002.122-.003.244-.001.365.034 2.213.425 21.935 4.011 32.937.22.673.52 1.305.866 1.906-5.045 7.683-7.996 16.855-7.996 26.714 0 22.313 15.044 41.166 35.518 46.982-.532.492-1.058.993-1.574 1.51-12.295 12.296-18.034 36.54-20.361 49.898-1.547 8.882-2.417 17.761-2.45 24.999-.046 10.242 1.482 16.161 5.111 19.789 5.152 5.152 15.881 6.406 25.113 6.406 6.965 0 13.077-.714 15.297-1.008 8.926-1.184 23.672-4.205 38.029-11.855-1.884 8.693-2.884 17.711-2.884 26.959v31.654c0 5.561 4.509 10.07 10.07 10.07s10.07-4.509 10.07-10.07v-31.654c0-24.972 8.607-47.965 22.998-66.19 8.54 2.904 17.404 5.098 26.522 6.515-16.417 15.37-26.702 37.21-26.702 61.42v33.561c0 3.337 2.705 6.042 6.042 6.042s6.042-2.705 6.042-6.042v-33.561c0-6.883.974-13.542 2.784-19.85h138.665c1.81 6.309 2.784 12.967 2.784 19.85v33.561c0 3.337 2.705 6.042 6.042 6.042s6.042-2.705 6.042-6.042v-33.561c0-24.211-10.284-46.05-26.701-61.42 9.119-1.416 17.982-3.612 26.522-6.516 14.39 18.226 22.996 41.219 22.996 66.19v31.654c0 5.561 4.509 10.07 10.07 10.07s10.07-4.509 10.07-10.07v-31.654c0-9.249-1.001-18.267-2.886-26.961 14.358 7.651 29.105 10.673 38.031 11.857 2.221.294 8.331 1.008 15.296 1.008 9.23 0 19.963-1.255 25.115-6.407 3.628-3.628 5.156-9.546 5.11-19.789-.032-7.238-.903-16.115-2.45-24.998-2.325-13.358-8.064-37.602-20.359-49.898zm-151.972 37.264h-66.084c-36.687 0-70.082-14.331-94.899-37.684 10.933 7.383 24.1 11.698 38.257 11.698 37.791 0 68.537-30.746 68.537-68.537 0-.263-.017-.52-.02-.782 6.958-4.807 13.817-7.233 20.505-7.233h.009c7.108.002 14.405 2.763 21.805 8.197.099 37.707 30.802 68.355 68.532 68.355 14.15 0 27.313-4.312 38.243-11.689-24.813 23.346-58.203 37.675-94.885 37.675zm-66.084 20.14h64.051v27.594h-64.163v-27.595c.037 0 .075.001.112.001zm-95.539-286.036c2.638 2.011 4.336 4.93 4.78 8.218.443 3.288-.42 6.552-2.431 9.19-1.522 1.997-6.335 4.656-12.432 7.307-.099-.18-.179-.368-.283-.547-2.466-4.245-6.152-7.493-10.563-9.43.917-5.87 2.121-10.549 3.523-12.389 4.152-5.446 11.96-6.5 17.406-2.349zm-45.478 69.368c.175-2.466 2.661-7.219 6.218-12.677 1.038.447 2.102.843 3.214 1.138 1.954.517 3.937.774 5.906.774 1.755 0 3.497-.215 5.203-.619 2.676 5.781 4.408 10.714 4.236 13.142-.485 6.831-6.406 12.013-13.267 11.51-6.831-.484-11.995-6.436-11.51-13.268zm32.185-18.192c2.485-2.701 4.298-5.979 5.265-9.629.326-1.229.523-2.469.643-3.71 6.423-.414 11.711-.248 13.929.799h-.001c6.193 2.925 8.853 10.342 5.928 16.534-2.923 6.192-10.342 8.856-16.535 5.927-2.17-1.024-5.559-4.86-9.229-9.921zm-16.903-26.332c.93 0 1.868.122 2.791.366 2.796.742 5.136 2.526 6.59 5.028 1.453 2.501 1.846 5.418 1.105 8.215-.741 2.796-2.526 5.135-5.027 6.589s-5.417 1.848-8.215 1.105c-2.796-.74-5.136-2.526-6.59-5.027-3-5.163-1.241-11.804 3.922-14.804 1.676-.974 3.537-1.472 5.424-1.472zm-27.255 42.993c-.028.226-.066.458-.082.678-.462 6.528 1.645 12.846 5.935 17.791 4.289 4.944 10.247 7.921 16.776 8.385.587.041 1.169.062 1.75.062 12.634 0 23.346-9.736 24.399-22.485 3.207 1.419 6.562 2.102 9.875 2.102 9.191 0 18.017-5.191 22.197-14.039 5.769-12.218.522-26.851-11.695-32.622h-.001c-.572-.27-1.21-.501-1.877-.713.828-.745 1.552-1.499 2.133-2.261 4.207-5.519 5.699-12.266 4.705-18.636 23.685-8.283 50.818-9.777 74.493-9.777h74.842c27.536 0 57.587 1.218 82.073 12.327.295 3.52 1.363 6.96 3.17 10.112-12.682 2.46-21.392 14.487-19.591 27.43.902 6.483 4.274 12.227 9.496 16.172 4.299 3.249 9.427 4.959 14.723 4.959 1.138 0 2.283-.079 3.429-.239.974-.136 2.016-.412 3.1-.782-.168.768-.294 1.512-.344 2.214-.462 6.528 1.645 12.846 5.935 17.791 4.289 4.944 10.247 7.921 16.776 8.385.587.041 1.169.062 1.75.062 12.634 0 23.345-9.736 24.399-22.485 1.891.838 3.849 1.435 5.84 1.773 4.568 14.139 7.191 29.12 7.523 44.632.056 2.385-.127 6.473-.738 10.684l-8.156-6.34c-2.63-2.043-6.099-2.656-9.267-1.634-11.504 3.705-23.866 5.195-36.556 4.606-12.566-14.186-30.898-23.152-51.295-23.152-5.265 0-10.386.617-15.314 1.747-6.119-3.732-12.092-7.917-17.846-12.563-21.761-17.576-38.05-39.575-47.103-63.62-1.477-3.924-5.231-6.522-9.424-6.522-4.192 0-7.947 2.598-9.424 6.521-9.055 24.047-25.344 46.047-47.104 63.621-5.755 4.648-11.728 8.832-17.847 12.561-4.925-1.129-10.044-1.745-15.306-1.745-20.397 0-38.731 8.967-51.297 23.155-12.712.587-25.095-.909-36.617-4.627-3.237-1.042-6.784-.384-9.429 1.756l-8.095 6.551c-.34-4.162-.527-8.219-.577-11.207.4-17.728 3.793-34.759 9.666-50.628zm315.084-12.723c-3.289.455-6.555-.393-9.2-2.393-2.646-2-4.357-4.911-4.814-8.198-.943-6.783 3.807-13.069 10.59-14.014.24-.034.504-.049.795-.049 2.462 0 6.681 1.178 11.614 3.017-.452 4.615.479 9.408 2.982 13.714.143.245.309.47.46.709-5.286 3.996-9.947 6.869-12.427 7.214zm16.477 14.255c.175-2.467 2.665-7.221 6.221-12.677 1.037.445 2.1.843 3.211 1.137 1.955.517 3.937.774 5.906.774 1.755 0 3.497-.215 5.203-.619 2.675 5.781 4.408 10.714 4.236 13.142-.485 6.83-6.407 12.005-13.267 11.51-6.83-.484-11.994-6.436-11.51-13.267zm25.769-30.917c-.741 2.797-2.526 5.136-5.027 6.59-5.164 3.001-11.804 1.241-14.805-3.922-2.999-5.163-1.24-11.804 3.923-14.804 2.5-1.454 5.415-1.847 8.215-1.105 2.796.742 5.136 2.526 6.59 5.028 1.452 2.5 1.845 5.417 1.104 8.213zm-24.197-43.877c3.207.85 5.892 2.898 7.559 5.766 1.168 2.011 1.781 6.849 1.956 12.832-2.535.477-5.001 1.361-7.297 2.695-2.325 1.351-4.32 3.054-5.965 4.998-5.107-3.112-9.003-6.035-10.171-8.044-1.667-2.868-2.116-6.214-1.267-9.421.85-3.207 2.897-5.891 5.766-7.558 2.866-1.668 6.212-2.117 9.419-1.268zm-124.631 163.408c-7.637-4.449-15.363-6.708-23.119-6.71h-.013c-7.356 0-14.689 2.02-21.947 6.02-.998-4.76-2.501-9.332-4.433-13.675 17.83-10.527 35.549-10.288 53.757.718-1.868 4.338-3.302 8.904-4.245 13.647zm-180.409 7.348h-4.401c-6.087 0-11.04-4.952-11.04-11.041 0-6.087 4.952-11.04 11.04-11.04h10.18c-3.092 6.841-5.094 14.273-5.779 22.081zm0 12.084c.526 5.988 1.814 11.76 3.786 17.211-3.08-5.518-5.795-11.265-8.109-17.211zm11.802-6.042c0-31.128 25.324-56.452 56.452-56.452s56.452 25.324 56.452 56.452-25.324 56.453-56.452 56.453c-31.127-.001-56.452-25.325-56.452-56.453zm93.921-57.345c2.82-2.027 5.605-4.133 8.34-6.341 18.299-14.778 33.199-32.413 43.874-51.782 10.673 19.37 25.572 37.002 43.872 51.782 2.735 2.209 5.521 4.317 8.342 6.344-7.845 5.143-14.575 11.847-19.744 19.674-21.92-13.11-43.831-13.339-65.369-.673-5.111-7.543-11.691-14.006-19.315-19.004zm141.901.892c31.128 0 56.453 25.324 56.453 56.452s-25.324 56.453-56.453 56.453c-31.128 0-56.453-25.324-56.453-56.453 0-31.128 25.324-56.452 56.453-56.452zm68.255 50.411c-.686-7.807-2.687-15.239-5.779-22.081h10.18c6.087 0 11.04 4.952 11.04 11.04s-4.953 11.041-11.04 11.041zm0 12.084h4.32c-2.313 5.942-5.026 11.684-8.102 17.198 1.969-5.447 3.256-11.214 3.782-17.198zm12.173 31.43c-.306 0-.608-.015-.911-.025 9.223-15.345 15.919-32.37 19.528-50.497 6.166 5.269 10.089 13.089 10.089 21.816-.001 15.829-12.878 28.706-28.706 28.706zm33.365-153.674c-1.416 2.999-3.916 5.268-7.039 6.387-3.124 1.118-6.496.955-9.495-.461-2.17-1.025-5.558-4.862-9.228-9.923 2.485-2.701 4.297-5.978 5.264-9.627.326-1.229.523-2.47.643-3.711 6.418-.413 11.708-.249 13.928.799h-.001c6.192 2.926 8.852 10.343 5.928 16.536zm-21.659-57.601c.564-.077 1.127-.114 1.686-.114 2.703 0 5.317.878 7.503 2.544 2.638 2.011 4.336 4.93 4.779 8.218.444 3.288-.42 6.552-2.431 9.191-1.523 1.996-6.332 4.656-12.43 7.308-.099-.182-.18-.37-.285-.55-2.467-4.245-6.154-7.493-10.565-9.43.917-5.87 2.123-10.549 3.525-12.388 2.011-2.639 4.929-4.335 8.218-4.779zm-219.915-61.966h74.842c35.747 0 69.673 15.382 103.041 46.817-2.844.488-5.609 1.48-8.178 2.974-2.02 1.173-3.822 2.612-5.396 4.252-26.441-11.424-57.815-13.466-88.796-13.466h-74.842c-27.133 0-58.47 1.922-86.037 12.713-10.162-6.136-23.443-4.072-31.245 5.03-.005-.008-.011-.016-.016-.025 27.622-29.828 66.976-58.295 116.627-58.295zm-149.579 67.796c.85-3.207 2.897-5.891 5.766-7.558 1.921-1.116 4.056-1.687 6.22-1.687 1.067 0 2.142.139 3.201.419 3.207.85 5.891 2.897 7.558 5.766 1.169 2.01 1.781 6.847 1.956 12.833-2.535.476-5.002 1.36-7.298 2.695s-4.285 3.039-5.954 5.006c-5.112-3.116-9.012-6.041-10.181-8.052-1.667-2.87-2.117-6.215-1.268-9.422zm-6.286 27.11c.24-.034.504-.049.795-.049 2.463 0 6.684 1.178 11.619 3.019-.468 4.747.533 9.507 2.977 13.712.143.247.31.473.462.712-5.287 3.996-9.948 6.865-12.429 7.21-6.779.931-13.069-3.807-14.014-10.59-.943-6.783 3.808-13.069 10.59-14.014zm-4.857 149.63c0-8.727 3.92-16.548 10.086-21.815 3.608 18.126 10.305 35.154 19.528 50.499-.302.01-.604.022-.909.022-15.828-.001-28.705-12.878-28.705-28.706zm11.29 128.69c-1.299-11.97 4.352-53.552 16.756-65.956 5.495-5.495 12.408-8.714 19.572-9.693 11.18 12.464 24.293 23.16 38.871 31.598.642 9.446-2.59 19.108-9.712 26.365-21.088 18.246-55.172 19.925-65.487 17.686zm142.29-19.357v24.157h-19.394c4.662-9.391 11.309-17.627 19.394-24.157zm109.871 24.157h-21.54v-25.823c9.057 6.77 16.471 15.614 21.54 25.823zm122.896-4.799c-10.321 2.232-44.402.559-65.486-17.687-7.124-7.258-10.353-16.923-9.706-26.37 14.585-8.445 27.703-19.148 38.886-31.621 7.378 1.005 14.195 4.364 19.549 9.72 12.404 12.405 18.056 53.987 16.757 65.958z"/><path d="m271.359 309.084c-3.337 0-6.042 2.705-6.042 6.042 0 5.821-4.736 10.557-10.557 10.557s-10.557-4.736-10.557-10.557c0-3.337-2.705-6.042-6.042-6.042s-6.042 2.705-6.042 6.042c0 12.485 10.157 22.641 22.641 22.641 12.485 0 22.641-10.157 22.641-22.641 0-3.337-2.706-6.042-6.042-6.042z"/><path d="m209.181 297.829c0-24.32-19.786-44.107-44.107-44.107s-44.108 19.786-44.108 44.107 19.786 44.107 44.108 44.107c24.321-.001 44.107-19.787 44.107-44.107zm-76.129 0c0-17.657 14.366-32.022 32.023-32.022s32.022 14.365 32.022 32.022-14.365 32.022-32.022 32.022-32.023-14.365-32.023-32.022z"/><path d="m344.444 341.935c24.32 0 44.107-19.786 44.107-44.107s-19.786-44.107-44.107-44.107-44.107 19.786-44.107 44.107 19.787 44.107 44.107 44.107zm0-76.129c17.657 0 32.022 14.365 32.022 32.022s-14.365 32.022-32.022 32.022-32.022-14.365-32.022-32.022 14.364-32.022 32.022-32.022z"/></g><g><path d="m44.678 3.666 8.554 24.051c.366 1.03 1.091 1.846 2.006 2.258l21.369 9.627c3.019 1.36 3.019 6.17 0 7.53l-21.369 9.628c-.915.412-1.64 1.228-2.006 2.258l-8.554 24.052c-1.208 3.398-5.482 3.398-6.69 0l-8.553-24.051c-.366-1.03-1.091-1.846-2.006-2.258l-21.37-9.628c-3.019-1.36-3.019-6.17 0-7.53l21.369-9.627c.915-.412 1.64-1.228 2.006-2.258l8.553-24.051c1.209-3.399 5.483-3.399 6.691-.001z" fill="#bdf4e3"/><ellipse cx="404.715" cy="18.677" fill="#84eac4" rx="18.677" ry="18.677" transform="matrix(.099 -.995 .995 .099 346.249 419.583)"/><path d="m482.842 29.53 6.345 17.841c.272.764.809 1.369 1.488 1.675l15.851 7.141c2.239 1.009 2.239 4.577 0 5.586l-15.851 7.141c-.679.306-1.216.911-1.488 1.675l-6.345 17.841c-.896 2.521-4.066 2.521-4.963 0l-6.345-17.841c-.272-.764-.809-1.369-1.488-1.675l-15.851-7.141c-2.239-1.009-2.239-4.577 0-5.586l15.851-7.141c.679-.306 1.216-.911 1.488-1.675l6.345-17.841c.896-2.52 4.066-2.52 4.963 0z" fill="#bdf4e3"/></g></g></svg>