<svg id="Capa_1" enable-background="new 0 0 512 512" height="512" viewBox="0 0 512 512" width="512" xmlns="http://www.w3.org/2000/svg"><g><g><path d="m374.562 501.856v-30.119c0-61.528-49.879-111.407-111.407-111.407-61.528 0-111.407 49.879-111.407 111.407v30.119z" fill="#8bb6ef"/><path d="m270.958 399.441c21.51 9.674 36.64 32.636 36.64 59.431v6.447c0 10.036-8.136 18.172-18.172 18.172h-100.638v18.365h148.732v-28.458c.001-38.435-29.159-70.055-66.562-73.957z" fill="#8388ef"/><g fill="#f4d6d4"><circle cx="425.012" cy="316" r="36.894"/><circle cx="101.297" cy="316" r="36.894"/><path d="m294.593 407.177h-62.878c-78.134 0-141.474-63.34-141.474-141.474 0-78.134 63.34-141.474 141.474-141.474h62.878c78.134 0 141.474 63.34 141.474 141.474 0 78.134-63.34 141.474-141.474 141.474z"/></g><path d="m290.482 86.297h-54.654c-91.928 0-166.451 74.523-166.451 166.451v16.599c1.174 29.146 16.537 44.435 28.872 54.624l.902 30.124c-4 51.832 26.268 75.521 49.578 58.066 0 22.277 17.493 40.336 39.072 40.336 17.102 0 31.628-11.348 36.923-27.145 3.002 21.926 19.061 38.669 38.43 38.669s35.428-16.743 38.43-38.669c5.295 15.796 19.821 27.145 36.923 27.145 21.579 0 39.072-18.06 39.072-40.336 24.208 11.533 46.581-10.84 49.578-58.066l2.241-30.759c16.894-10.458 25.692-26.453 27.534-53.989v-16.599c0-91.928-74.522-166.451-166.45-166.451zm100.042 234.411c0 23.704-19.215 42.919-42.919 42.919s-42.919-19.216-42.919-42.919h.003c0-22.913-18.575-41.488-41.488-41.488s-41.488 18.575-41.488 41.488h.003c0 23.704-19.215 42.919-42.919 42.919s-42.919-19.216-42.919-42.919c0 0-4.22-42.766 21.134-68.08l60.739-40.844 64.984 35.099c6.94 3.749 15.475-.674 16.415-8.506l3.039-25.328c.333-2.773 3.465-4.231 5.801-2.699l67.062 43.954c18.392 25.202 15.472 66.404 15.472 66.404z" fill="#eaa585"/><path d="m290.482 86.297h-31.179c78.965 0 142.979 64.014 142.979 142.979v14.259c-1.583 23.653-.764 32.361-15.275 41.345l3.055 32.842c-.925 28.425-16.614 39.286-32.302 45.923 0 19.135-15.026 34.648-33.562 34.648-4.487 0-8.768-.909-12.679-2.559-10.899-4.598-23.545-2.627-32.553 5.039-5.488 4.67-12.219 7.42-19.494 7.42s-14.007-2.75-19.495-7.42c-9.009-7.666-21.654-9.637-32.553-5.039-3.911 1.65-8.192 2.559-12.679 2.559-11.842 0-22.252-6.332-28.226-15.895-4.788-7.665-12.848-12.812-21.798-14.065-8.919-1.249-34.959 15.828-45.69-18.312l.122 4.075c-4 51.832 26.268 75.52 49.578 58.066 0 22.277 17.493 40.336 39.072 40.336 17.102 0 31.628-11.348 36.923-27.145 3.002 21.926 19.061 38.669 38.43 38.669s35.428-16.743 38.43-38.669c5.295 15.796 19.821 27.145 36.923 27.145 21.579 0 39.072-18.06 39.072-40.336 24.208 11.532 46.581-10.84 49.578-58.066l2.241-30.759c16.894-10.458 25.692-26.453 27.534-53.989v-16.599c-.002-91.929-74.524-166.452-166.452-166.452z" fill="#e37c85"/><path d="m368.448 41.228h-210.587c-15.671 0-28.374 12.704-28.374 28.374v76.509h267.335v-76.508c0-15.671-12.704-28.375-28.374-28.375z" fill="#f5dbb6"/><path d="m129.821 74.914h266.667v43.573h-266.667z" fill="#84eac4"/><path d="m368.448 41.228h-42.791c11.354 0 20.559 9.204 20.559 20.559v24.975c0 12.365-10.023 22.389-22.389 22.389h-2.485v4.051h75.48v-43.6c0-15.67-12.704-28.374-28.374-28.374z" fill="#eaa5b6"/><path d="m346.215 74.391v12.371c0 12.365-10.023 22.389-22.389 22.389h-.202v8.617h73.197v-43.377z" fill="#71afc4"/><path d="m411.805 160.155h-297.301c-7.294 0-13.207-5.913-13.207-13.207v-19.307c0-7.294 5.913-13.207 13.207-13.207h297.301c7.294 0 13.207 5.913 13.207 13.207v19.307c0 7.294-5.913 13.207-13.207 13.207z" fill="#f5dbb6"/></g><g><g fill="#440b29"><path d="m472.049 316c0-8.732-2.397-16.91-6.562-23.922 1.696-6.601 2.813-13.868 3.353-21.934.018-.265.027-.531.027-.797v-16.6c0-38.911-12.535-74.943-33.764-104.294.032-.499.054-1 .054-1.506v-19.307c0-12.876-10.476-23.351-23.352-23.351h-4.839v-34.687c0-21.239-17.279-38.518-38.518-38.518h-210.587c-21.239 0-38.518 17.279-38.518 38.518v34.687h-4.839c-12.875 0-23.351 10.475-23.351 23.351v19.307c0 .504.022 1.003.053 1.498-21.231 29.353-33.765 65.389-33.765 104.302v16.599c0 .16.004.32.01.48.328 8.145 1.627 15.384 3.611 21.861-4.31 7.099-6.804 15.416-6.804 24.312 0 20.95 13.774 38.727 32.737 44.793-.303 35.762 12.953 52.238 24.553 59.795 8.207 5.347 17.916 7.597 27.41 6.657 1.486 5.044 3.706 9.762 6.518 14.04-2.524 9.735-3.873 19.938-3.873 30.451v30.119c0 5.602 4.541 10.144 10.144 10.144s10.144-4.541 10.144-10.144v-30.119c0-4.75.338-9.421.976-13.998 6.114 3.527 13.001 5.801 20.334 6.477-.323 2.908-.499 5.86-.499 8.853v32.197c0 3.361 2.725 6.086 6.086 6.086s6.086-2.725 6.086-6.086v-32.197c0-3.137.22-6.222.637-9.246 9.758-1.527 18.75-5.9 25.984-12.419 9.233 15.026 24.498 24.554 41.659 24.554s32.426-9.528 41.659-24.554c7.233 6.519 16.223 10.891 25.979 12.418.414 3.025.642 6.109.642 9.247v32.197c0 3.361 2.725 6.086 6.086 6.086s6.086-2.725 6.086-6.086v-32.197c0-2.993-.176-5.944-.498-8.852 7.331-.675 14.216-2.95 20.329-6.475.638 4.577.98 9.246.98 13.995v30.119c0 5.602 4.542 10.144 10.144 10.144s10.144-4.541 10.144-10.144v-30.119c0-10.511-1.35-20.71-3.872-30.443 3.111-4.732 5.491-10.009 6.964-15.662 9.008-.025 17.774-2.757 25.233-8.033 14.863-10.512 23.478-29.54 25.658-56.608 19.285-5.869 33.361-23.809 33.361-44.989zm-314.188-264.628h210.587c10.052 0 18.23 8.178 18.23 18.23v.096h-247.048v-.096c0-10.052 8.179-18.23 18.231-18.23zm-18.231 30.499h247.048v22.418h-247.048zm-28.189 45.77c0-1.689 1.374-3.063 3.063-3.063h297.301c1.69 0 3.064 1.374 3.064 3.063v19.307c0 1.689-1.374 3.063-3.064 3.063h-297.301c-1.689 0-3.063-1.374-3.063-3.063zm-36.865 189.527c3.782 4.747 7.864 8.84 11.901 12.434l.264 8.818c-7.026-4.575-11.78-12.353-12.165-21.252zm342.919 5.301-2.241 30.759c-.009.122-.016.245-.021.367-.926 22.07-6.603 37.88-15.987 44.516-7.312 5.171-15.141 3.569-18.167 2.64-3.621-1.111-7.551-.437-10.596 1.813-3.044 2.25-4.84 5.811-4.84 9.597 0 15.661-12.174 28.401-27.137 28.401-11.507 0-21.797-7.637-25.607-19.003-1.761-5.256-6.909-8.607-12.432-8.089-5.52.519-9.956 4.77-10.708 10.263-2.213 16.164-13.65 28.354-26.605 28.354-12.954 0-24.392-12.19-26.605-28.354-.752-5.493-5.188-9.745-10.708-10.263-.376-.036-.751-.053-1.123-.053-5.083 0-9.667 3.244-11.309 8.142-3.81 11.366-14.101 19.003-25.607 19.003-14.964 0-27.137-12.741-27.137-28.401 0-4.155-2.161-8.011-5.705-10.18s-7.96-2.339-11.661-.447c-4.465 2.282-12.046 3.403-18.72-.945-10.016-6.526-14.815-22.798-13.512-45.82.019-.343.024-.687.014-1.031l-.902-30.124c-.103-3.434-1.68-6.656-4.328-8.844-12.155-10.041-23.535-22.525-24.539-45.672v-16.35c0-30.946 9.153-59.79 24.883-83.983 2.583.988 5.383 1.533 8.309 1.533h297.301c2.926 0 5.726-.546 8.309-1.533 15.73 24.193 24.883 53.037 24.883 83.983v16.193c-1.585 22.782-7.94 35.618-21.881 44.247-3.253 2.014-5.343 5.465-5.621 9.281zm22.807 15.457.58-7.964c3.961-2.935 7.449-6.192 10.53-9.778-1.157 7.321-5.278 13.663-11.11 17.742z"/><path d="m378.389 249.213-67.062-43.955c-2.872-1.882-6.444-2.141-9.556-.692s-5.215 4.349-5.624 7.757l-3.039 25.328c-.204 1.701-1.194 3.128-2.715 3.917-1.52.788-3.258.772-4.765-.041l-64.984-35.099c-1.991-1.075-4.413-.958-6.289.305l-60.739 40.844c-.324.218-.627.468-.904.743-26.207 26.167-23.301 68.294-22.919 72.675.155 26.89 22.078 48.718 49.004 48.718 27.022 0 49.005-21.984 49.005-49.005 0-.064-.001-.127-.003-.191.103-19.434 15.944-35.211 35.401-35.211 19.461 0 35.305 15.785 35.402 35.224-.002.059-.003.118-.003.178 0 27.021 21.984 49.005 49.005 49.005 26.953 0 48.893-21.869 49.005-48.796.238-3.739 2.328-44.207-16.641-70.202-.43-.591-.965-1.101-1.579-1.502zm6.064 71.065c-.01.143-.015.287-.015.43 0 20.31-16.523 36.832-36.833 36.832-20.25 0-36.736-16.426-36.833-36.654.002-.059.003-.119.003-.178 0-26.233-21.342-47.574-47.574-47.574s-47.575 21.342-47.575 47.574c0 .064.001.128.003.191-.103 20.223-16.586 36.641-36.832 36.641-20.309 0-36.832-16.523-36.832-36.832 0-.195-.01-.397-.029-.59-.038-.398-3.539-39.796 18.974-62.778l57.185-38.454 61.748 33.351c5.034 2.719 11.071 2.771 16.15.139 5.08-2.632 8.519-7.595 9.201-13.275l2.593-21.61 62.975 41.276c16.144 23.162 13.718 61.13 13.691 61.511z"/><path d="m178.75 308.324c-8.723 0-15.793 7.071-15.793 15.794 0 8.722 7.071 15.793 15.793 15.793s15.794-7.071 15.794-15.793c0-8.723-7.071-15.794-15.794-15.794z"/><path d="m347.558 308.324c-8.722 0-15.793 7.071-15.793 15.794 0 8.722 7.071 15.793 15.793 15.793 8.723 0 15.794-7.071 15.794-15.793 0-8.723-7.071-15.794-15.794-15.794z"/><path d="m194.312 271.952c-.72-.367-7.271-3.59-15.562-3.59s-14.842 3.222-15.562 3.59c-2.983 1.523-4.16 5.161-2.653 8.151 1.506 2.99 5.16 4.194 8.16 2.704.046-.023 4.636-2.273 10.056-2.273s10.01 2.25 10.027 2.259c.886.453 1.831.667 2.762.667 2.215 0 4.35-1.213 5.426-3.32 1.528-2.994.341-6.66-2.654-8.188z"/><path d="m363.12 271.951c-.719-.367-7.271-3.589-15.561-3.589-8.291 0-14.842 3.222-15.562 3.59-2.982 1.523-4.159 5.161-2.653 8.151 1.507 2.991 5.162 4.195 8.16 2.704.046-.023 4.635-2.273 10.056-2.273 5.42 0 10.01 2.251 10.028 2.259.886.452 1.831.667 2.762.667 2.214 0 4.35-1.213 5.426-3.32 1.526-2.995.339-6.66-2.656-8.189z"/><path d="m278.948 318.031c-3.361 0-6.086 2.725-6.086 6.086 0 5.352-4.355 9.707-9.707 9.707s-9.707-4.355-9.707-9.707c0-3.361-2.725-6.086-6.086-6.086s-6.086 2.725-6.086 6.086c0 12.065 9.815 21.88 21.88 21.88s21.88-9.815 21.88-21.88c-.002-3.36-2.727-6.086-6.088-6.086z"/><path d="m272.418 386.748c-3.361 0-6.086 2.725-6.086 6.086v10.182c0 3.361 2.725 6.086 6.086 6.086s6.086-2.725 6.086-6.086v-10.182c0-3.361-2.725-6.086-6.086-6.086z"/><path d="m302.34 371.927c-3.361 0-6.086 2.725-6.086 6.086v10.182c0 3.361 2.725 6.086 6.086 6.086s6.086-2.725 6.086-6.086v-10.182c.001-3.361-2.725-6.086-6.086-6.086z"/><path d="m337.24 395.754c-3.361 0-6.086 2.725-6.086 6.086v10.182c0 3.361 2.725 6.086 6.086 6.086s6.086-2.725 6.086-6.086v-10.182c0-3.361-2.725-6.086-6.086-6.086z"/></g><path d="m116.539 259.191c-.267 0-.535-.01-.805-.032-5.585-.439-9.757-5.322-9.318-10.907.573-7.294 1.685-14.336 3.303-20.928 1.335-5.44 6.829-8.769 12.27-7.432 5.44 1.336 8.768 6.829 7.432 12.27-1.358 5.529-2.293 11.477-2.78 17.679-.418 5.314-4.86 9.35-10.102 9.35z" fill="#fff"/><path d="m132.431 211.04c-2.105 0-4.228-.653-6.048-2.007-4.494-3.344-5.427-9.699-2.082-14.193 1.392-1.872 2.769-3.468 4.207-4.88 3.998-3.925 10.42-3.867 14.345.13s3.867 10.42-.13 14.345c-.683.671-1.385 1.494-2.146 2.517-1.991 2.674-5.05 4.088-8.146 4.088z" fill="#fff"/></g><g><path d="m46.255 2.567 8.616 24.227c.369 1.037 1.099 1.859 2.021 2.274l21.525 9.698c3.041 1.37 3.041 6.215 0 7.585l-21.525 9.698c-.922.415-1.652 1.237-2.021 2.274l-8.616 24.227c-1.217 3.423-5.522 3.423-6.739 0l-8.616-24.227c-.369-1.037-1.099-1.859-2.021-2.274l-21.525-9.697c-3.041-1.37-3.041-6.215 0-7.585l21.525-9.698c.922-.415 1.652-1.237 2.021-2.274l8.616-24.227c1.217-3.424 5.522-3.424 6.739-.001z" fill="#f1c7b6"/><ellipse cx="451.431" cy="460.907" fill="#eaa585" rx="18.814" ry="18.814" transform="matrix(.189 -.982 .982 .189 -86.529 817.032)"/><ellipse cx="494.002" cy="399.589" fill="#eaa585" rx="7.967" ry="7.967" transform="matrix(.16 -.987 .987 .16 20.443 823.206)"/><path d="m481.378 33.454 6.391 17.971c.274.769.815 1.379 1.499 1.687l15.967 7.194c2.256 1.016 2.256 4.61 0 5.627l-15.967 7.194c-.684.308-1.225.918-1.499 1.687l-6.391 17.971c-.903 2.539-4.096 2.539-4.999 0l-6.391-17.971c-.274-.77-.815-1.379-1.499-1.687l-15.967-7.194c-2.256-1.016-2.256-4.61 0-5.627l15.967-7.194c.684-.308 1.225-.918 1.499-1.687l6.391-17.971c.903-2.539 4.096-2.539 4.999 0z" fill="#f1c7b6"/></g></g></svg>