<svg id="Capa_1" enable-background="new 0 0 512 512" height="512" viewBox="0 0 512 512" width="512" xmlns="http://www.w3.org/2000/svg"><g><g><path d="m389.66 490.172h-288.734c-13.857 0-25.091-11.233-25.091-25.091v-181.762c0-77.69 62.98-140.669 140.669-140.669h57.576c77.69 0 140.669 62.98 140.669 140.669v181.762c.001 13.857-11.232 25.091-25.089 25.091z" fill="#a183e2"/><path d="m354.795 501.955v-29.604c0-60.477-49.026-109.502-109.502-109.502-60.477 0-109.502 49.026-109.502 109.502v29.604z" fill="#b07676"/><path d="m286.449 413.577c-5.938 6.896-27.486 37.639-41.156 37.639s-36.828-32.912-39.866-38.487c-19.999 13.043-33.229 35.596-33.229 61.254v27.971h146.19v-27.971c0-25.103-12.66-47.245-31.939-60.406z" fill="#f7e266"/><path d="m252.963 401.291c21.142 9.509 36.014 32.078 36.014 58.415v6.337c0 9.864-7.997 17.861-17.861 17.861h-98.918v18.051h146.19v-27.971c0-37.779-28.661-68.858-65.425-72.693z" fill="#ebaa66"/><ellipse cx="404.383" cy="319.277" fill="#b07676" rx="36.263" ry="36.263" transform="matrix(.924 -.383 .383 .924 -91.4 179.054)"/><ellipse cx="86.202" cy="319.277" fill="#b07676" rx="36.263" ry="36.263" transform="matrix(.383 -.924 .924 .383 -241.759 276.736)"/><path d="m276.194 408.894h-61.803c-76.798 0-139.055-62.257-139.055-139.055 0-76.798 62.257-139.055 139.055-139.055h61.803c76.798 0 139.055 62.257 139.055 139.055 0 76.798-62.257 139.055-139.055 139.055z" fill="#b07676"/><path d="m276.194 130.701h-17.832c62.261 0 112.734 50.472 112.734 112.733v9.574c0 62.261-50.473 112.734-112.734 112.734h-70.292c-59.582 0-108.362-46.224-112.45-104.767-.181 2.905-.284 5.83-.284 8.78v.001c0 76.798 62.257 139.055 139.055 139.055h61.803c76.798 0 139.055-62.257 139.055-139.055v-.001c0-76.797-62.257-139.054-139.055-139.054z" fill="#a45775"/><path d="m396.113 316.713c15.869-9.193 28.23-22.375 31.201-47.54v-14.591c0-80.806-70.001-146.312-156.352-146.312h-51.338c-86.351 0-156.352 65.506-156.352 146.312v14.591c4.018 25.913 17.475 39.29 29.062 48.247 68.91-29.364 154.605-76.997 218.393-132.469 22.551 51.251 48.325 91.045 85.386 131.762z" fill="#a183e2"/><path d="m249.414 173.398c-.607 0-1.221-.045-1.839-.137-6.703-1.007-11.32-7.257-10.312-13.96 8.342-55.507-24.418-93.904-24.749-94.285-4.45-5.113-3.912-12.865 1.201-17.314 5.113-4.45 12.865-3.912 17.314 1.201 1.659 1.906 40.514 47.453 30.507 114.046-.916 6.083-6.151 10.449-12.122 10.449z" fill="#84eac4"/><g fill="#fff"><path d="m180.938 37.668c6.348 9.134 38.448 20.032 38.448 20.032s.976-33.886-5.372-43.02-18.898-11.392-28.032-5.045c-9.133 6.349-11.391 18.9-5.044 28.033z"/><path d="m187.024 86.689c10.857-2.419 33.093-28.007 33.093-28.007s-30.996-13.728-41.853-11.309-17.697 13.181-15.278 24.038 13.181 17.697 24.038 15.278z"/><path d="m238.451 93.959c-.113-11.122-20.529-38.185-20.529-38.185s-19.862 27.472-19.749 38.595c.113 11.122 9.221 20.048 20.344 19.935 11.122-.114 20.047-9.222 19.934-20.345z"/><path d="m260.939 50.13c-10.409-3.921-43.027 5.314-43.027 5.314s18.419 28.459 28.828 32.38 22.026-1.339 25.947-11.748c3.921-10.408-1.339-22.025-11.748-25.946z"/><path d="m223.828 15.396c-6.006 9.362-3.778 43.189-3.778 43.189s31.676-12.077 37.682-21.44c6.006-9.362 3.285-21.82-6.077-27.826-9.363-6.006-21.821-3.285-27.827 6.077z"/></g><ellipse cx="218.429" cy="56.322" fill="#f7e266" rx="18.405" ry="18.405" transform="matrix(.177 -.984 .984 .177 124.312 261.322)"/></g><g><g fill="#440b29"><path d="m450.692 319.277c0-13.306-5.657-25.302-14.674-33.755 1.396-4.674 2.406-9.651 3.034-14.963.054-.46.081-.923.081-1.386v-14.591c0-87.193-75.442-158.131-168.171-158.131h-8.494c-.26-.851-.526-1.688-.795-2.521 7.406-2.334 13.712-7.914 16.655-15.727 2.463-6.541 2.233-13.65-.65-20.017s-8.074-11.231-14.614-13.694c-.908-.342-1.923-.609-3.026-.81 1.113-1.093 2.067-2.19 2.766-3.28 3.774-5.883 5.031-12.884 3.54-19.712-1.491-6.829-5.552-12.668-11.435-16.442-5.884-3.774-12.885-5.03-19.712-3.54-6.595 1.44-12.261 5.283-16.041 10.842-.065-.099-.125-.212-.191-.307-3.989-5.739-9.974-9.582-16.853-10.82-6.881-1.238-13.829.277-19.568 4.266-11.848 8.234-14.788 24.572-6.555 36.421h.001c.121.174.272.348.405.521-13.757 3.381-22.388 17.197-19.292 31.092 2.713 12.176 13.55 20.48 25.538 20.48 1.878 0 3.786-.204 5.694-.629 1.294-.288 2.686-.821 4.133-1.515-.218 1.198-.332 2.329-.321 3.373.014 1.394.141 2.76.365 4.093-79.882 12.228-141.058 77.544-141.058 156.058v14.591c0 .606.047 1.212.14 1.811.796 5.134 1.939 9.848 3.336 14.198-9.229 8.47-15.035 20.612-15.035 34.096 0 18.212 10.571 33.995 25.896 41.553v104.251c0 19.374 15.762 35.136 35.136 35.136h24.819v1.738c0 5.548 4.497 10.045 10.045 10.045s10.045-4.497 10.045-10.045v-29.604c0-23.046 7.883-44.283 21.089-61.165 7.592 2.556 15.453 4.524 23.533 5.833-14.958 14.402-24.286 34.61-24.286 56.964v31.387c0 3.328 2.699 6.027 6.027 6.027s6.027-2.699 6.027-6.027v-31.387c0-21.575 10.246-40.795 26.122-53.071 2.697 3.814 6.716 9.272 11.322 14.781 16.149 19.316 24.641 21.55 29.624 21.55 4.968 0 13.472-2.229 29.894-21.507 4.603-5.403 8.634-10.749 11.387-14.549 15.684 12.283 25.786 31.376 25.786 52.796v31.387c0 3.328 2.699 6.027 6.027 6.027s6.027-2.699 6.027-6.027v-31.387c0-22.353-9.319-42.569-24.275-56.971 8.072-1.309 15.928-3.27 23.514-5.825 13.208 16.882 21.096 38.116 21.096 61.163v29.604c0 5.548 4.498 10.045 10.045 10.045 5.548 0 10.045-4.497 10.045-10.045v-1.738h24.819c19.375 0 35.137-15.762 35.137-35.136v-104.252c15.325-7.559 25.896-23.342 25.896-41.553zm-174.498 79.572h-61.803c-50.452 0-94.218-29.118-115.412-71.426 75.86-32.551 152.063-77.953 207.452-123.383 21.626 45.89 46.367 82.646 80.94 120.628 1.182 1.298 2.599 2.278 4.136 2.927-21.227 42.212-64.932 71.254-115.313 71.254zm-35.891-290.493c2.767-4.269 4.228-9.255 4.174-14.458-.002-.163-.024-.34-.032-.508.056.022.114.053.17.075 1.552.585 3.126 1.007 4.703 1.284 6.197 17.945 10.228 40.875 6.256 67.303-.455 3.032-3.104 5.318-6.16 5.318-.314 0-.631-.023-.944-.071-3.405-.512-5.759-3.698-5.247-7.104 2.941-19.567.981-37.123-2.92-51.839zm-19.682-64.216c3.254.586 6.085 2.403 7.972 5.118 1.886 2.715 2.604 6.002 2.018 9.256s-2.403 6.085-5.118 7.971c-5.606 3.896-13.333 2.504-17.228-3.1s-2.504-13.333 3.1-17.228c2.715-1.886 6.004-2.604 9.256-2.017zm-2.158 36.606c2.648 0 5.306-.445 7.871-1.322 3.596 6.321 6.061 11.813 6.089 14.597.038 3.77-1.394 7.328-4.032 10.021-2.638 2.692-6.168 4.196-9.937 4.235-3.777.045-7.328-1.394-10.021-4.032s-4.197-6.167-4.235-9.937c-.029-2.827 2.394-8.496 5.949-15.014 2.667.956 5.483 1.452 8.316 1.452zm48.233-17.589c1.555 3.434 1.68 7.268.35 10.796-2.743 7.283-10.902 10.974-18.182 8.232-2.571-.968-6.806-5.067-11.437-10.505 2.56-3.157 4.306-6.919 5.046-11.031.268-1.49.392-2.983.387-4.465 7.257-1.08 13.332-1.401 15.954-.414 3.529 1.329 6.328 3.953 7.882 7.387zm-28.928-50.674c3.683-.803 7.459-.126 10.632 1.91 3.173 2.035 5.363 5.184 6.167 8.867s.126 7.458-1.909 10.631c-1.551 2.418-6.831 5.899-13.528 9.458-.205-.327-.418-.65-.639-.97-3.069-4.416-7.414-7.603-12.438-9.244.484-6.774 1.418-12.256 2.847-14.485 2.036-3.172 5.186-5.362 8.868-6.167zm-48.345 2.103c3.096-2.151 6.845-2.967 10.553-2.3 3.71.668 6.938 2.74 9.09 5.836 1.521 2.188 2.661 7.69 3.395 14.502-2.819.711-5.517 1.928-7.976 3.636-2.491 1.731-4.556 3.848-6.179 6.212-6.134-3.065-10.897-6.053-12.419-8.243-4.44-6.39-2.854-15.202 3.536-19.643zm-3.71 66.22c-7.594 1.689-15.152-3.111-16.844-10.706-1.692-7.596 3.111-15.152 10.706-16.844.491-.109 1.085-.162 1.772-.162 2.902 0 7.443.937 12.672 2.434-.171 5.079 1.23 10.252 4.347 14.736.27.389.552.764.84 1.132-5.629 5.047-10.696 8.788-13.493 9.41zm-110.622 173.775c0-72.815 62.508-132.294 140.213-134.428.987.113 1.988.178 3.004.178.089 0 .18-.001.269-.002 1.101-.011 2.19-.098 3.265-.242h8.747c2.132 11.392 2.821 24.293.713 38.316-.726 4.834.473 9.661 3.378 13.592 2.904 3.932 7.166 6.497 11.997 7.223.904.136 1.825.205 2.737.205 8.972 0 16.745-6.698 18.081-15.581 2.376-15.81 2.097-30.49.23-43.756h3.237c79.696 0 144.534 60.333 144.534 134.493v13.872c-1.82 14.36-7.18 24.581-17.426 32.716-32.648-37.202-55.813-73.911-76.525-120.978-1.513-3.438-4.569-5.953-8.235-6.773-3.665-.82-7.502.15-10.338 2.615-53.253 46.309-130.832 93.729-208.677 127.672-8.387-7.529-16.29-17.984-19.203-35.475v-13.647zm-10.787 50.319c2.552 3.882 5.289 7.294 8.062 10.313 3.413 10.66 7.992 20.803 13.592 30.275-14.344-.133-25.973-11.837-25.973-26.211-.001-5.309 1.595-10.246 4.319-14.377zm61.441 167.451v7.775h-24.819c-8.296 0-15.045-6.749-15.045-15.045v-99.504c.108.001.214.008.322.008 4.349 0 8.553-.621 12.545-1.75 13.323 16.363 30.041 29.852 49.071 39.389-13.893 19.53-22.074 43.389-22.074 69.127zm119.548-27.162c-5.242 0-17.145-12.3-27.543-26.249h55.538c-10.63 13.953-22.737 26.249-27.995 26.249zm159.412 19.892c0 8.296-6.75 15.045-15.046 15.045h-24.819v-7.775c0-25.736-8.182-49.593-22.071-69.122 19.026-9.536 35.74-23.026 49.061-39.385 3.994 1.129 8.203 1.74 12.553 1.74.108 0 .214-.007.322-.008zm-.082-119.592c5.668-9.588 10.292-19.86 13.718-30.663 3.077-2.972 5.805-6.145 8.197-9.537 2.569 4.05 4.063 8.845 4.063 13.987 0 14.377-11.631 26.083-25.978 26.213z"/><ellipse cx="162.332" cy="327.255" rx="15.523" ry="15.524" transform="matrix(.998 -.071 .071 .998 -22.791 12.331)"/><path d="m328.254 311.731c-8.573 0-15.523 6.95-15.523 15.524 0 8.573 6.95 15.524 15.523 15.524 8.574 0 15.524-6.95 15.524-15.524-.001-8.573-6.951-15.524-15.524-15.524z"/><path d="m343.569 275.94c-.708-.362-7.156-3.533-15.315-3.533-8.16 0-14.608 3.171-15.316 3.533-2.954 1.508-4.12 5.11-2.628 8.072 1.491 2.962 5.112 4.155 8.08 2.679.044-.023 4.547-2.229 9.864-2.229 5.316 0 9.819 2.207 9.835 2.215.877.448 1.813.66 2.735.66 2.192-.001 4.307-1.201 5.373-3.288 1.514-2.965.338-6.595-2.628-8.109z"/><path d="m260.816 321.228c-3.328 0-6.027 2.699-6.027 6.027 0 5.237-4.26 9.496-9.496 9.496s-9.496-4.26-9.496-9.496c0-3.328-2.699-6.027-6.027-6.027s-6.027 2.699-6.027 6.027c0 11.883 9.668 21.551 21.551 21.551s21.551-9.668 21.551-21.551c-.001-3.328-2.7-6.027-6.029-6.027z"/></g><path d="m116.478 240.455c-.635 0-1.279-.061-1.927-.186-5.446-1.058-9.003-6.331-7.945-11.777 1.837-9.455 12.945-32.938 21.076-40.3 4.112-3.724 10.466-3.408 14.188.704 3.724 4.112 3.409 10.465-.704 14.189-3.947 3.574-13.516 22.43-14.839 29.24-.931 4.798-5.136 8.13-9.849 8.13z" fill="#fff"/><path d="m163.817 180.481c-3.724 0-7.301-2.079-9.04-5.652-2.428-4.988-.352-11 4.637-13.428 2.325-1.132 4.532-2.035 6.747-2.762 5.273-1.731 10.947 1.141 12.676 6.413 1.73 5.271-1.141 10.947-6.413 12.676-1.341.44-2.721 1.008-4.22 1.737-1.415.689-2.912 1.016-4.387 1.016z" fill="#fff"/></g><g><path d="m465.038 60.496 8.532 23.992c.365 1.027 1.089 1.841 2.001 2.253l21.316 9.604c3.011 1.357 3.011 6.155 0 7.511l-21.316 9.604c-.913.411-1.636 1.225-2.001 2.252l-8.532 23.992c-1.205 3.389-5.468 3.389-6.674 0l-8.532-23.992c-.365-1.027-1.089-1.841-2.001-2.252l-21.316-9.604c-3.011-1.357-3.011-6.155 0-7.511l21.316-9.604c.913-.411 1.636-1.225 2.001-2.253l8.532-23.992c1.206-3.389 5.469-3.389 6.674 0z" fill="#cab4ef"/><ellipse cx="373.801" cy="32.357" fill="#a183e2" rx="18.631" ry="18.631" transform="matrix(.189 -.982 .982 .189 271.339 393.294)"/><ellipse cx="20.744" cy="144.392" fill="#a183e2" rx="7.89" ry="7.89" transform="matrix(.23 -.973 .973 .23 -124.551 131.407)"/><path d="m73.503 37.754 6.329 17.797c.271.762.807 1.366 1.484 1.671l15.812 7.124c2.234 1.007 2.234 4.565 0 5.572l-15.812 7.124c-.677.305-1.214.909-1.484 1.671l-6.329 17.797c-.894 2.514-4.056 2.514-4.951 0l-6.329-17.797c-.271-.762-.807-1.366-1.484-1.671l-15.812-7.124c-2.234-1.007-2.234-4.565 0-5.572l15.812-7.124c.677-.305 1.214-.909 1.484-1.671l6.329-17.797c.894-2.514 4.056-2.514 4.951 0z" fill="#cab4ef"/></g></g></svg>