<svg id="Capa_1" enable-background="new 0 0 512 512" height="512" viewBox="0 0 512 512" width="512" xmlns="http://www.w3.org/2000/svg"><g><g><path d="m341.543 501.893v-30.38c0-62.062-50.311-112.372-112.372-112.372-62.062 0-112.373 50.311-112.373 112.372v30.38z" fill="#fbf2a8"/><path d="m248.536 403.275c-5.689-2.953-11.835-4.567-18.249-4.567-8.099 0-15.769 2.579-22.631 7.172v96.093h40.88z" fill="#cab4ef"/><path d="m237.042 398.591c21.696 9.758 36.958 32.918 36.958 59.946v6.503c0 10.123-8.206 18.329-18.329 18.329h-4.982v18.525h53.492v-28.704c0-38.77-29.412-70.664-67.139-74.599z" fill="#edb6a8"/><path d="m154.16 483.369h52.403v18.525h-52.403z" fill="#edb6a8"/><path d="m207.07 483.369h43.619v18.525h-43.619z" fill="#be87ef"/><ellipse cx="392.431" cy="314.427" fill="#f4d6d4" rx="37.214" ry="37.214" transform="matrix(.526 -.851 .851 .526 -81.35 482.944)"/><ellipse cx="65.91" cy="314.427" fill="#f4d6d4" rx="37.214" ry="37.214" transform="matrix(.29 -.957 .957 .29 -254.125 286.393)"/><path d="m260.882 406.394h-63.423c-78.811 0-142.7-63.889-142.7-142.7 0-78.811 63.889-142.7 142.7-142.7h63.423c78.811 0 142.7 63.889 142.7 142.7-.001 78.811-63.889 142.7-142.7 142.7z" fill="#f4d6d4"/><path d="m260.882 120.909h-18.299c63.893 0 115.688 51.795 115.688 115.688v9.825c0 63.893-51.795 115.688-115.688 115.688h-72.135c-61.144 0-111.202-47.436-115.397-107.513-.186 2.981-.291 5.983-.291 9.011 0 78.811 63.889 142.7 142.7 142.7h63.423c78.811 0 142.7-63.889 142.7-142.7-.002-78.81-63.89-142.699-142.701-142.699z" fill="#e69fd5"/><path d="m391.123 321.475c17.04-10.549 33.288-31.498 33.505-54.553v-16.743c0-92.725-75.169-167.893-167.893-167.893h-55.128c-92.725 0-167.893 75.168-167.893 167.893v16.743c1.184 29.398 18.765 45.086 31.207 55.364 73.996-33.696 166.017-88.355 234.514-152.008 24.216 58.81 51.891 104.475 91.688 151.197z" fill="#d49c8d"/><path d="m151.487 151.528c-4.013 0-7.809-2.406-9.388-6.359-2.071-5.184.452-11.064 5.636-13.135 3.586-1.432 7.261-2.632 10.927-3.567 5.409-1.38 10.91 1.888 12.29 7.296 1.38 5.409-1.887 10.911-7.296 12.291-2.816.718-5.649 1.644-8.422 2.752-1.231.489-2.5.722-3.747.722z" fill="#fff"/><path d="m93.514 208.442c-1.515 0-3.052-.342-4.5-1.063-4.996-2.49-7.027-8.557-4.538-13.553 6.554-13.152 15.805-25.795 27.497-37.578 3.932-3.962 10.332-3.987 14.293-.055 3.962 3.932 3.986 10.331.055 14.293-10.172 10.25-18.163 21.135-23.754 32.355-1.767 3.547-5.341 5.601-9.053 5.601z" fill="#fff"/><g fill="#e58bbd"><ellipse cx="436.055" cy="374.462" rx="29.092" ry="14.273" transform="matrix(.712 -.702 .702 .712 -137.374 413.773)"/><ellipse cx="382.559" cy="427.173" rx="29.092" ry="14.273" transform="matrix(.712 -.702 .702 .712 -189.759 391.391)"/><ellipse cx="435.662" cy="427.566" rx="14.273" ry="29.092" transform="matrix(.712 -.702 .702 .712 -174.758 428.773)"/><path d="m372.784 384.087c-11.277-11.445-15.866-25.208-10.251-30.74 5.615-5.533 19.309-.74 30.585 10.705 11.277 11.445 15.866 25.208 10.251 30.74-5.614 5.533-19.308.74-30.585-10.705z"/></g><path d="m429.826 362.374c-.083 11.181-20.531 38.443-20.531 38.443s-20.042-27.561-19.96-38.742c.083-11.181 9.214-20.178 20.395-20.095 11.182.082 20.179 9.213 20.096 20.394z" fill="#f0c4db"/><path d="m447.889 421.063c-11.181 0-38.594-20.246-38.594-20.246s27.412-20.246 38.594-20.246c11.181 0 20.246 9.064 20.246 20.246s-9.064 20.246-20.246 20.246z" fill="#f0c4db"/><path d="m388.48 439.107c.165-11.18 20.815-38.29 20.815-38.29s19.838 27.709 19.673 38.889-9.363 20.109-20.543 19.944c-11.181-.166-20.11-9.363-19.945-20.543z" fill="#f0c4db"/><path d="m370.852 380.285c11.181.083 38.443 20.531 38.443 20.531s-27.561 20.043-38.742 19.96-20.178-9.214-20.096-20.395 9.214-20.178 20.395-20.096z" fill="#f0c4db"/><ellipse cx="409.307" cy="400.818" fill="#f7e266" rx="17.309" ry="17.309" transform="matrix(.338 -.941 .941 .338 -106.256 650.58)"/></g><g fill="#440b29"><path d="m144.035 306.684c-8.798 0-15.93 7.132-15.93 15.93s7.132 15.931 15.93 15.931 15.93-7.132 15.93-15.931c.001-8.797-7.132-15.93-15.93-15.93z"/><path d="m314.306 306.684c-8.798 0-15.93 7.132-15.93 15.93s7.132 15.931 15.93 15.931 15.93-7.132 15.93-15.931c0-8.797-7.132-15.93-15.93-15.93z"/><path d="m304.157 280.865c.045-.023 4.634-2.286 10.149-2.286 5.487 0 10.13 2.277 10.149 2.286.882.451 1.824.664 2.752.664 2.206 0 4.334-1.209 5.406-3.309 1.523-2.983.339-6.635-2.644-8.158-.724-.37-7.317-3.612-15.662-3.612s-14.938 3.242-15.662 3.612c-2.984 1.523-4.167 5.175-2.644 8.158 1.521 2.983 5.174 4.166 8.156 2.645z"/><path d="m229.17 344.609c12.128 0 21.995-9.867 21.995-21.994 0-3.349-2.715-6.064-6.064-6.064s-6.064 2.715-6.064 6.064c0 5.441-4.426 9.867-9.867 9.867-5.44 0-9.867-4.426-9.867-9.867 0-3.349-2.715-6.064-6.064-6.064s-6.064 2.715-6.064 6.064c.001 12.127 9.868 21.994 21.995 21.994z"/><path d="m474.199 400.817c0-10.287-5.938-19.208-14.563-23.531 1.635-2.694 2.949-5.411 3.879-8.069 2.827-8.077 1.968-14.977-2.419-19.428-4.386-4.452-11.273-5.414-19.39-2.706-2.742.914-5.551 2.244-8.34 3.902-1.139-2.401-2.636-4.601-4.415-6.538 6.735-8.174 10.799-18.626 10.799-30.02 0-9.477-2.803-18.31-7.62-25.719 2.069-6.296 3.5-13.103 4.315-20.48.047-.434.072-.87.072-1.306v-16.744c0-99.133-80.652-179.784-179.785-179.784h-55.128c-99.133 0-179.784 80.651-179.784 179.784v16.744c0 .572.042 1.142.123 1.707 1.05 7.24 2.639 13.728 4.62 19.574-5.027 7.512-7.976 16.525-7.976 26.223 0 26.092 21.228 47.32 47.32 47.32 4.494 0 8.84-.636 12.962-1.812 13.716 16.871 30.956 30.757 50.583 40.555-14.32 20.046-22.763 44.564-22.763 71.023v30.38c0 5.582 4.525 10.107 10.106 10.107s10.106-4.525 10.106-10.107v-30.38c0-23.756 8.151-45.639 21.792-63.018 7.918 2.674 16.12 4.726 24.555 6.074-15.484 14.77-25.156 35.58-25.156 58.619v32.21c0 3.349 2.715 6.064 6.064 6.064s6.064-2.715 6.064-6.064v-32.21c0-9.304 1.857-18.18 5.214-26.284l37.022 61.617c1.36 2.31 4.302 3.477 6.873 2.701 2.554-.7 4.408-3.183 4.389-5.824v-88.897h30.398v88.898c-.002 2.119 1.169 4.185 3.015 5.235 2.75 1.682 6.636.674 8.247-2.112l37.313-62.101c3.486 8.235 5.424 17.277 5.424 26.768v32.21c0 3.349 2.715 6.064 6.064 6.064s6.064-2.715 6.064-6.064v-32.21c0-23.033-9.662-43.846-25.137-58.619 8.433-1.35 16.638-3.39 24.554-6.065 13.634 17.377 21.774 39.26 21.774 63.009v30.38c0 5.582 4.525 10.107 10.107 10.107s10.106-4.525 10.106-10.107v-30.38c0-26.453-8.439-50.967-22.754-71.01 6.113-3.053 11.99-6.508 17.605-10.323-1.355 3.168-2.081 6.605-2.108 10.155-.052 7.027 2.636 13.655 7.568 18.66 2.107 2.138 4.517 3.867 7.132 5.155-6.626 10.862-7.574 21.608-1.577 27.695 2.754 2.795 6.49 4.213 10.9 4.213 2.615 0 5.469-.5 8.491-1.508 2.661-.888 5.385-2.168 8.093-3.758 1.215 2.525 2.837 4.868 4.846 6.938 2.639 2.718 5.765 4.787 9.185 6.14-.808 14.875-4.475 21.594-14.743 30.32-4.253 3.615-4.77 9.992-1.156 14.246 2 2.352 4.844 3.561 7.706 3.561 2.314 0 4.639-.79 6.541-2.406 16.377-13.919 21.076-26.823 21.903-46.099 5.717-2.517 10.384-7.008 13.115-12.622 6.049 3.74 12.072 5.731 17.287 5.731 4.22 0 7.91-1.294 10.653-3.997 6.133-6.043 5.293-16.919-1.306-27.963 8.955-4.199 15.171-13.297 15.171-23.824zm-28.656-42.229c1.917-.639 3.452-.871 4.597-.871 1.229 0 2.007.267 2.318.583.601.611.994 2.956-.39 6.911-1.043 2.98-2.862 6.207-5.224 9.354-4.799.34-11.097 2.92-17.364 6.216 3.239-6.05 5.821-12.143 6.318-16.879 3.282-2.428 6.651-4.282 9.745-5.314zm-43.351 19.98c-3.884-6.866-6.817-13.245-6.793-16.449.028-3.788 1.53-7.339 4.228-9.997 2.673-2.633 6.202-4.08 9.951-4.08h.108c7.819.057 14.133 6.467 14.076 14.286-.023 3.036-2.921 9.288-7.026 16.334-4.861-1.633-9.939-1.57-14.544-.094zm-29.823-4.255c-6.184-8.35-6.977-15.27-5.58-16.647.612-.602 2.956-.995 6.911.39 3.07 1.074 6.401 2.97 9.638 5.436.429 4.827 2.997 11.095 6.227 17.302-6.155-3.318-12.378-5.978-17.196-6.481zm32.643 36.898c-5.731-2.368-8.466-8.958-6.098-14.688 1.79-4.33 5.99-6.95 10.408-6.95 1.429 0 2.881.274 4.28.852 5.73 2.369 8.466 8.958 6.098 14.688-2.369 5.729-8.96 8.464-14.688 6.098zm14.451-98.801c.049.666.075 1.338.075 2.017 0 8.751-4.172 16.543-10.628 21.502-5.69.138-11.101 2.09-15.546 5.582-.311.01-.621.024-.934.024-.044 0-.086-.004-.13-.004 1.992-3.346 3.863-6.772 5.601-10.276 8.692-5.45 15.848-11.68 21.562-18.845zm-373.859-62.232c0-86.02 69.982-156.003 156.002-156.003h55.128c86.021 0 156.003 69.982 156.003 156.003v16.069c-2.386 20.337-10.451 31.658-19.529 39.196-35.35-42.968-60.392-85.326-82.779-139.693-1.484-3.605-4.642-6.253-8.449-7.088-3.807-.833-7.784.25-10.639 2.905-57.268 53.219-140.682 107.702-224.365 146.681-9.322-8.878-18.151-21.257-21.371-42.208v-15.862zm20.306 91.356c-14.947 0-27.107-12.16-27.107-27.107 0-.737.035-1.466.093-2.188 5.873 8.1 12.414 14.227 18.451 19.214 1.298 1.073 2.784 1.829 4.347 2.27 1.371 2.647 2.812 5.252 4.331 7.806-.039.001-.076.005-.115.005zm15.491-13.796c78.462-37.052 156.447-87.26 213.618-137.457 22.48 51.181 48.087 92.417 83.436 134.622-3.778 7.228-8.194 14.071-13.188 20.442-2.713.57-5.078 1.799-6.989 3.682-2.321 2.287-3.639 5.269-4.029 8.688-23.981 23.819-56.977 38.571-93.367 38.571h-63.422c-49.899.001-93.435-27.711-116.059-68.548zm120.192 155.795-29.453-49.019c4.858-7.137 11.017-13.317 18.137-18.199 2.382.111 4.774.185 7.183.185h4.133zm84.345-49.416-29.691 49.415v-67.032h4.635c2.416 0 4.817-.061 7.206-.173 6.979 4.791 13.039 10.827 17.85 17.79zm74.81-43.688c2.673-2.634 6.202-4.08 9.951-4.08h.108.001c3.038.022 9.296 2.922 16.348 7.031-1.635 4.86-1.573 9.937-.099 14.542-7.088 3.99-13.368 6.791-16.422 6.791-.013 0-.025 0-.037 0-3.789-.028-7.339-1.529-9.998-4.228-2.659-2.698-4.108-6.271-4.079-10.059.027-3.788 1.53-7.339 4.227-9.997zm12.323 52.618c-3.977 1.324-6.314.899-6.916.288-1.377-1.398-.48-8.307 5.829-16.567 4.742-.424 10.87-2.908 16.967-6.057-3.385 6.213-6.053 12.47-6.464 17.261-3.176 2.311-6.425 4.078-9.416 5.075zm35.656 10.542c-.071 0-.142-.001-.213-.002-3.788-.056-7.327-1.584-9.965-4.302-2.639-2.718-4.061-6.301-4.005-10.088 0 0 0 0 0-.001.045-3.037 2.985-9.268 7.144-16.287 2.502.865 5.061 1.281 7.589 1.281 2.379 0 4.725-.373 6.964-1.071 3.95 7.14 6.71 13.459 6.665 16.497-.117 7.748-6.456 13.973-14.179 13.973zm43.098-9.62c-1.419 1.394-8.496.448-16.902-6.093-.524-4.929-3.134-11.269-6.367-17.509 6.201 3.331 12.513 6.037 17.439 6.628 6.405 8.495 7.245 15.579 5.83 16.974zm-3.935-28.969c-3.036 0-9.306-2.85-16.38-6.9 1.602-4.875 1.503-9.96-.011-14.563 7.08-4.054 13.353-6.901 16.391-6.901 7.82 0 14.182 6.362 14.182 14.182-.001 7.82-6.363 14.182-14.182 14.182z"/><path d="m360.238 199.372c3.349 0 6.064-2.715 6.064-6.064v-10.064c0-3.349-2.715-6.064-6.064-6.064s-6.064 2.715-6.064 6.064v10.064c0 3.349 2.715 6.064 6.064 6.064z"/><path d="m382.952 242.833c3.349 0 6.064-2.715 6.064-6.064v-10.065c0-3.349-2.715-6.064-6.064-6.064s-6.064 2.715-6.064 6.064v10.065c0 3.349 2.715 6.064 6.064 6.064z"/></g><g><path d="m469.999 34.316 8.584 24.138c.367 1.033 1.095 1.852 2.013 2.266l21.445 9.662c3.03 1.365 3.03 6.192 0 7.557l-21.445 9.662c-.918.414-1.646 1.233-2.013 2.266l-8.584 24.138c-1.213 3.41-5.501 3.41-6.714 0l-8.585-24.138c-.368-1.033-1.095-1.852-2.013-2.266l-21.445-9.662c-3.03-1.365-3.03-6.192 0-7.557l21.445-9.662c.918-.414 1.646-1.233 2.013-2.266l8.584-24.138c1.213-3.41 5.502-3.41 6.715 0z" fill="#f1c7b6"/><ellipse cx="346.37" cy="21.057" fill="#eaa585" rx="18.744" ry="18.744" transform="matrix(.083 -.997 .997 .083 296.816 364.51)"/><ellipse cx="15.624" cy="90.103" fill="#eaa585" rx="7.938" ry="7.938" transform="matrix(.973 -.23 .23 .973 -20.284 6)"/><path d="m80.881 1.897 6.368 17.905c.272.767.812 1.374 1.493 1.681l15.908 7.167c2.247 1.013 2.247 4.593 0 5.606l-15.908 7.167c-.681.307-1.221.914-1.493 1.681l-6.368 17.905c-.9 2.529-4.081 2.529-4.981 0l-6.368-17.905c-.273-.767-.812-1.374-1.493-1.681l-15.908-7.167c-2.247-1.013-2.247-4.593 0-5.606l15.908-7.167c.681-.307 1.221-.914 1.493-1.681l6.368-17.905c.9-2.529 4.081-2.529 4.981 0z" fill="#f1c7b6"/></g></g></svg>