<svg id="Capa_1" enable-background="new 0 0 512 512" height="512" viewBox="0 0 512 512" width="512" xmlns="http://www.w3.org/2000/svg"><g><g><path d="m310.031 499.444v-28.016c0-57.234-46.397-103.631-103.631-103.631-57.234 0-103.631 46.397-103.631 103.631v28.016z" fill="#fff"/><path d="m249.322 460.645c-8.087-7.413-2.696-44.119-2.696-44.119-6.818-4.896-14.559-8.588-22.914-10.76v35.544c-10.987 8.603-21.584 9.368-31.675 0v-36.312c-9.089 1.89-17.529 5.549-24.936 10.616 0 0 4.044 36.27-2.022 44.358-6.065 8.087-27.562 3.37-27.562 3.37-.431 3.127-.672 6.314-.672 9.56v26.544h138.73v-26.546c0-3.479-.271-6.892-.765-10.233 0-.001-17.401 5.391-25.488-2.022z" fill="#eaa585"/><path d="m213.659 404.178c20.009 8.999 34.083 30.358 34.083 55.283v5.997c0 9.336-7.568 16.903-16.903 16.903h-93.614v17.083h138.351v-26.471c0-35.753-27.125-65.166-61.917-68.795z" fill="#eebdfa"/><g fill="#e37c85"><path d="m223.712 405.766v4.337c9.79 7.277 17.303 17.876 21.157 30.299-.024-11.73 1.756-23.876 1.756-23.876-6.817-4.896-14.558-8.588-22.913-10.76z"/><path d="m275.576 472.9c0-3.479-.271-6.892-.765-10.234 0 0-17.401 5.392-25.488-2.021-.609-.558-1.133-1.3-1.597-2.162.005.326.017.65.017.977v5.997c0 9.335-7.568 16.903-16.903 16.903h-93.614v17.083h138.351v-26.543z"/></g><g fill="#f1c7b6"><circle cx="356.96" cy="326.561" r="34.319"/><circle cx="55.84" cy="326.561" r="34.319"/><path d="m235.644 411.373h-58.489c-72.68 0-131.599-58.919-131.599-131.599 0-72.68 58.919-131.599 131.599-131.599h58.489c72.68 0 131.599 58.919 131.599 131.599 0 72.681-58.919 131.599-131.599 131.599z"/></g><path d="m235.644 148.097h-16.876c58.922 0 106.689 47.766 106.689 106.689v9.06c0 58.923-47.766 106.689-106.689 106.689h-66.523c-56.387 0-102.551-43.746-106.42-99.149-.171 2.749-.269 5.518-.269 8.31 0 72.68 58.919 131.599 131.599 131.599h58.489c72.68 0 131.599-58.919 131.599-131.599 0-72.68-58.919-131.599-131.599-131.599z" fill="#e795b6"/><path d="m355.754 332.595c15.715-9.728 29.185-24.694 30.898-50.309v-15.441c0-85.512-69.321-154.833-154.833-154.833h-50.839c-85.512 0-154.832 69.321-154.832 154.833v15.441c1.092 27.111 17.305 41.578 28.779 51.057l31.406-99.92 18.309 12.84c11.276 7.908 26.37 7.626 37.343-.698l22.181-16.826 23.069 16.96c11.355 8.348 26.858 8.192 38.044-.381l24.982-19.148 23.878 17.973c12.219 9.197 29.264 8.354 40.516-2.005l11.042-10.165z" fill="#b07676"/><path d="m268.588 39.122-215.551 36.881c-16.04 2.745-26.819 17.973-24.074 34.013l13.399 78.313 273.638-46.82-13.399-78.313c-2.745-16.04-17.973-26.818-34.013-24.074z" fill="#f5dbb6"/><path d="m32.067 91.718h276.92v45.248h-276.92z" fill="#b2e7f1" transform="matrix(.986 -.169 .169 .986 -16.841 30.397)"/><path d="m249.432 64.06 2.469 14.433c17.262-2.978 34.444-6.48 51.713-9.372l-1.014-5.925c-2.744-16.04-17.973-26.818-34.013-24.074l-43.8 7.494c11.623-1.988 22.657 5.822 24.645 17.444z" fill="#eaa5b6"/><path d="m237.455 115.844v10l73.365-12.553-7.631-44.6-51.457 8.804 2.075 12.128c2.01 11.753-5.182 22.946-16.352 26.221z" fill="#a7adf1"/><path d="m333.796 153.259-304.31 52.068c-7.466 1.277-14.554-3.739-15.831-11.205l-3.381-19.762c-1.278-7.466 3.739-14.554 11.205-15.831l304.31-52.068c7.466-1.277 14.554 3.739 15.831 11.205l3.381 19.762c1.277 7.466-3.74 14.554-11.205 15.831z" fill="#f5dbb6"/><path d="m333.444 501.679c-6.581-2.743-9.692-10.302-6.949-16.883l104.778-251.381c2.743-6.581 10.302-9.692 16.883-6.949 6.581 2.743 9.692 10.302 6.949 16.883l-104.778 251.381c-2.743 6.581-10.302 9.692-16.883 6.949z" fill="#fbf2a8"/></g><g fill="#440b29"><circle cx="127.888" cy="334.112" r="14.691"/><ellipse cx="284.913" cy="334.112" rx="14.691" ry="14.691" transform="matrix(.189 -.982 .982 .189 -97.05 550.7)"/><path d="m142.537 285.247c-.678-.346-6.849-3.381-14.65-3.381-7.8 0-13.971 3.035-14.648 3.381-2.96 1.511-4.128 5.121-2.635 8.09 1.495 2.969 5.123 4.165 8.099 2.689.041-.021 4.24-2.075 9.184-2.075 4.945 0 9.144 2.054 9.156 2.059.879.449 1.817.662 2.742.662 2.198 0 4.318-1.204 5.386-3.297 1.518-2.971.339-6.611-2.634-8.128z"/><path d="m275.728 296.026c.041-.021 4.24-2.075 9.184-2.075s9.144 2.054 9.156 2.059c.879.449 1.817.662 2.742.662 2.198 0 4.318-1.204 5.386-3.297 1.517-2.972.338-6.612-2.635-8.128-.678-.346-6.849-3.381-14.649-3.381s-13.971 3.035-14.648 3.381c-2.96 1.511-4.129 5.121-2.635 8.09 1.495 2.969 5.124 4.165 8.099 2.689z"/><path d="m206.4 354.845c11.433 0 20.734-9.3 20.734-20.733 0-3.337-2.705-6.042-6.042-6.042s-6.042 2.706-6.042 6.042c0 4.769-3.88 8.648-8.649 8.648s-8.648-3.88-8.648-8.648c0-3.337-2.706-6.042-6.042-6.042-3.337 0-6.042 2.706-6.042 6.042-.002 11.433 9.298 20.733 20.731 20.733z"/><path d="m489.425 284.855c-10.551-22.352-22.244-42.412-28.228-52.307-1.65-5.082-5.41-9.447-10.716-11.659-4.673-1.948-9.825-1.959-14.506-.032s-8.332 5.561-10.279 10.234l-30.444 73.042c-.205-.348-.426-.685-.64-1.027 2.095-6.239 3.388-12.918 3.863-20.027.018-.263.026-.527.026-.791v-15.441c0-44.677-17.677-85.298-46.396-115.255 2.764-4.79 3.766-10.341 2.821-15.861l-3.381-19.762c-2.212-12.926-14.524-21.643-27.456-19.433l-5.41.925-6.153-35.962c-1.78-10.409-7.509-19.502-16.128-25.603-8.619-6.1-19.102-8.48-29.508-6.698l-215.551 36.879c-10.409 1.78-19.502 7.509-25.603 16.129-6.1 8.62-8.48 19.1-6.698 29.508l6.153 35.961-5.411.926c-6.263 1.071-11.733 4.517-15.403 9.704-3.671 5.186-5.102 11.491-4.03 17.752l3.381 19.762c1.071 6.263 4.517 11.733 9.703 15.403 2.772 1.962 5.866 3.267 9.099 3.909-5.332 16.288-8.231 33.667-8.231 51.714v15.441c0 .159.003.318.01.477.309 7.673 1.679 14.509 3.719 20.604-4.162 6.754-6.577 14.693-6.577 23.193 0 24.476 19.913 44.389 44.389 44.389 4.039 0 7.945-.563 11.665-1.582 12.484 15.253 28.08 27.863 45.81 36.853-12.981 18.474-20.617 40.963-20.617 65.206v28.016c0 5.561 4.509 10.07 10.071 10.07 5.561 0 10.07-4.509 10.07-10.07v-28.016c0-21.537 7.323-41.39 19.599-57.22 6.836 2.28 13.903 4.051 21.155 5.27-13.824 13.645-22.411 32.582-22.411 53.495v29.703c0 3.337 2.705 6.042 6.042 6.042s6.042-2.706 6.042-6.042v-29.703c0-.639.026-1.271.045-1.905h10.647c12.065 0 21.88-9.815 21.88-21.88v-27.757c.439.004.877.013 1.317.013h8.165v11.224c0 12.065 9.815 21.88 21.88 21.88s21.881-9.815 21.881-21.88v-11.224h6.564c.975 0 1.947-.011 2.918-.03v27.775c0 12.065 9.815 21.88 21.88 21.88h9.046c.019.634.045 1.267.045 1.905v29.703c0 3.337 2.705 6.042 6.042 6.042s6.042-2.706 6.042-6.042v-29.703c0-20.914-8.592-39.845-22.42-53.488 7.256-1.219 14.324-2.998 21.164-5.279 12.277 15.83 19.599 35.684 19.599 57.222v28.016c0 5.561 4.509 10.07 10.07 10.07s10.07-4.509 10.07-10.07v-4.9c1.451 5.527 5.349 10.349 11.018 12.713 2.376.99 4.84 1.458 7.266 1.458 7.424 0 14.488-4.391 17.519-11.661l40.06-96.112c10.276 1.672 25.403 3.649 41.365 4.047 1.931.048 3.822.073 5.678.073 36.22 0 58.397-9.171 65.95-27.291 7.57-18.158.998-49.42-19.532-92.915zm-31.113-33.496c5.084 8.888 10.673 19.217 16.062 30.118l-8.611 20.66-17.167-27.468zm-15.417 36.988 17.167 27.468-6.669 16.001-21.385-17.346zm25.021 40.035 19.284 30.856-24.023-19.486zm-40.756-2.284 21.385 17.346-7.731 18.549-25.658-7.094zm31.169 25.283 28.907 23.447-34.683-9.589zm15.288-36.677 7.721-18.524c9.731 21.548 17.573 43.78 18.556 60.568zm-92.409 11.847v.01c0 12.959-10.219 23.576-23.022 24.217 1.639-2.818 3.184-5.697 4.63-8.634 7.208-4.561 13.343-9.765 18.392-15.593zm-6.404-44.675c-.894 12.322-5.004 22.297-12.712 30.542l-25.042-83.836c-1.169-3.915-4.273-6.951-8.213-8.034-1.037-.285-2.092-.424-3.139-.424-2.936 0-5.811 1.093-8.026 3.131l-8.918 8.211c-8.277 7.619-20.809 8.238-29.796 1.474l-21.572-16.237c-4.25-3.198-10.111-3.174-14.333.063l-22.918 17.565c-8.175 6.265-19.68 6.381-27.978.28l-20.974-15.419c-4.228-3.109-9.997-3.065-14.178.106l-20.167 15.298c-8.102 6.145-19.137 6.351-27.463.513l-16.24-11.388c-3.091-2.169-7.033-2.732-10.612-1.518-3.577 1.215-6.361 4.063-7.493 7.666l-25.69 81.734c-6.193-7.479-10.779-16.713-11.344-29.566v-15.19c0-19.334 3.865-37.78 10.851-54.616l282.134-48.273c26.994 26.023 43.823 62.522 43.823 102.889zm-332.628-188.035c2.993-4.228 7.453-7.037 12.56-7.912l215.551-36.881c1.106-.189 2.213-.282 3.312-.282 3.978 0 7.851 1.224 11.164 3.569 4.228 2.993 7.038 7.454 7.912 12.56l.064.372-253.786 43.423-.064-.372c-.873-5.107.294-10.248 3.287-14.477zm-1.185 26.76 253.785-43.423 4.051 23.678-253.785 43.423zm-20.175 49.339c.326-.46 1.066-1.265 2.36-1.487l304.31-52.068c.208-.035.413-.052.617-.052 1.742 0 3.287 1.257 3.591 3.03l3.381 19.762c.221 1.295-.292 2.26-.618 2.72s-1.065 1.265-2.36 1.487l-304.31 52.068c-1.297.22-2.26-.293-2.72-.618-.46-.326-1.265-1.065-1.487-2.36l-3.381-19.762c-.222-1.294.292-2.259.617-2.72zm10.796 157.408c5.704 6.81 11.634 11.714 15.769 15.13 1.151.951 2.454 1.653 3.832 2.107 1.083 2.096 2.219 4.159 3.402 6.192-12.543-.626-22.598-10.83-23.003-23.429zm36.037 5.035 25.134-79.964 2.987 2.095c16.79 11.777 39.051 11.36 55.39-1.035l13.117-9.95 13.845 10.178c16.738 12.305 39.943 12.073 56.429-.565l15.776-12.09 14.382 10.825c16.339 12.298 38.483 12.496 54.915 1.164l24.393 81.661c-20.092 39.484-61.117 66.603-108.372 66.603h-58.489c-48.172-.002-89.86-28.189-109.507-68.922zm86.31 126.6h-9.117c2.889-12.712 9.622-23.972 18.912-32.497v22.701c0 5.402-4.394 9.796-9.795 9.796zm63.037-26.315c0 5.401-4.394 9.795-9.796 9.795-5.401 0-9.795-4.394-9.795-9.795v-11.224h19.591zm50.963 26.315h-7.517c-5.401 0-9.795-4.394-9.795-9.795v-21.172c8.461 8.323 14.592 19 17.312 30.967zm52.959 23.489c-.34.817-.597 1.646-.816 2.478v-13.522c0-24.242-7.633-46.732-20.614-65.204 17.726-8.988 33.316-21.598 45.798-36.846 3.722 1.017 7.634 1.573 11.674 1.573 3.802 0 7.494-.482 11.018-1.386zm23.832 9.933c-1.457 3.494-5.488 5.152-8.981 3.698-3.495-1.458-5.153-5.487-3.697-8.981l52.429-125.787c10.253-8.138 16.848-20.696 16.848-34.773 0-1.682-.097-3.341-.281-4.975l35.781-85.846c.706-1.693 2.029-3.01 3.725-3.709 1.697-.699 3.565-.694 5.256.011 3.495 1.458 5.153 5.486 3.697 8.981zm65.72-126.264 25.658 7.094-8.008 19.213c-.011.026-.018.052-.028.078-9.765-.61-19.218-1.737-27.368-3.002zm30.513 26.856 6.884-16.516 35.794 9.896c-11.086 5.094-26.719 6.757-42.678 6.62z"/><path d="m231.346 471.732h-50.271c-3.337 0-6.042 2.705-6.042 6.042 0 17.192 13.987 31.178 31.178 31.178s31.177-13.987 31.177-31.178c0-3.337-2.705-6.042-6.042-6.042zm-25.135 25.136c-8.417 0-15.58-5.476-18.114-13.051h36.227c-2.533 7.575-9.696 13.051-18.113 13.051z"/></g><g><path d="m473.26 5.034 8.554 24.052c.366 1.03 1.091 1.846 2.006 2.258l21.369 9.628c3.019 1.36 3.019 6.17 0 7.53l-21.369 9.628c-.915.412-1.64 1.228-2.006 2.258l-8.554 24.052c-1.208 3.398-5.482 3.398-6.691 0l-8.554-24.052c-.366-1.03-1.091-1.846-2.006-2.258l-21.369-9.628c-3.019-1.36-3.019-6.17 0-7.53l21.369-9.628c.915-.412 1.64-1.228 2.006-2.258l8.554-24.052c1.209-3.398 5.482-3.398 6.691 0z" fill="#f1c7b6"/><path d="m381.737 39.543c0 10.315-8.362 18.678-18.678 18.678s-18.678-8.362-18.678-18.678 8.362-18.678 18.678-18.678 18.678 8.362 18.678 18.678z" fill="#eaa585"/><circle cx="499.543" cy="196.238" fill="#eaa585" r="7.91"/><path d="m429.787 112.721 6.345 17.841c.272.764.809 1.369 1.488 1.675l15.851 7.142c2.239 1.009 2.239 4.577 0 5.586l-15.851 7.142c-.679.306-1.216.911-1.488 1.675l-6.345 17.841c-.896 2.521-4.066 2.521-4.963 0l-6.345-17.841c-.272-.764-.809-1.369-1.488-1.675l-15.851-7.142c-2.239-1.009-2.239-4.577 0-5.586l15.851-7.142c.679-.306 1.217-.911 1.488-1.675l6.345-17.841c.896-2.521 4.066-2.521 4.963 0z" fill="#f1c7b6"/></g></g></svg>