<svg id="Capa_1" enable-background="new 0 0 512 512" height="512" viewBox="0 0 512 512" width="512" xmlns="http://www.w3.org/2000/svg"><g><g><path d="m366.923 501.893v-30.729c0-62.776-50.89-113.666-113.666-113.666-62.776 0-113.666 50.89-113.666 113.666v30.729z" fill="#f7e266"/><path d="m329.131 501.893v-29.035c0-41.904-33.97-75.874-75.874-75.874-41.904 0-75.874 33.97-75.874 75.874v29.035z" fill="#fbf2a8"/><path d="m261.219 397.402c21.946 9.871 37.384 33.297 37.384 60.636v6.578c0 10.24-8.301 18.54-18.54 18.54h-102.68v18.737h151.749v-29.034c-.001-39.215-29.752-71.477-67.913-75.457z" fill="#edb6a8"/><path d="m391.272 153.058c9.493-11.259 15.058-25.939 14.573-41.928-.999-32.974-28.153-59.68-61.138-60.163-23.776-.348-44.544 12.669-55.275 32.021-4.94 8.909-67.995 6.882-73.882-2.611-11.102-17.902-31.052-29.742-53.742-29.41-32.985.482-60.139 27.188-61.139 60.161-.485 15.99 5.08 30.67 14.573 41.929 1.993 2.364 1.904 5.814-.238 8.044-25.302 26.336-40.86 62.104-40.86 101.51 0 80.936 65.611 146.547 146.547 146.547h65.133c80.936 0 146.547-65.612 146.547-146.547 0-39.405-15.558-75.174-40.86-101.51-2.143-2.229-2.232-5.679-.239-8.043z" fill="#84eac4"/><path d="m391.51 161.102c-2.142-2.23-2.232-5.68-.238-8.044 9.493-11.259 15.058-25.939 14.573-41.928-.999-32.974-28.153-59.68-61.138-60.163-7.052-.103-13.831.987-20.17 3.051 20.286 7.193 35.132 26.323 35.816 48.859.418 13.797-4.383 26.463-12.575 36.177-1.72 2.04-1.643 5.017.206 6.94 21.832 22.724 35.256 53.587 35.256 87.588 0 69.835-56.613 126.448-126.448 126.448h-56.2c-65.117 0-118.729-49.224-125.678-112.489-.506 4.955-.771 9.98-.771 15.069 0 80.936 65.611 146.547 146.547 146.547h65.133c80.936 0 146.547-65.612 146.547-146.547 0-39.404-15.557-75.172-40.86-101.508z" fill="#71afc4"/><ellipse cx="162.131" cy="111.872" fill="#fff" rx="33.252" ry="33.252" transform="matrix(.707 -.707 .707 .707 -31.619 147.411)"/><ellipse cx="344.22" cy="111.872" fill="#fff" rx="33.252" ry="33.252" transform="matrix(.707 -.707 .707 .707 21.714 276.167)"/><path d="m311.895 371.838h-117.276c-39.403 0-71.345-31.942-71.345-71.344 0-39.402 31.942-71.345 71.345-71.345h117.276c39.402 0 71.344 31.942 71.344 71.345.001 39.403-31.941 71.344-71.344 71.344z" fill="#d49c8d"/></g><g><g fill="#440b29"><path d="m442.477 262.611c0-39.452-14.603-76.904-41.204-105.878 9.988-13.133 15.178-29.295 14.674-45.91-.562-18.56-8.229-36.02-21.588-49.164-13.355-13.14-30.936-20.526-49.504-20.798-24.008-.311-46.443 11.131-60.215 30.756-3.006 1.693-14.232 4.24-30.627 4.78-15.967.523-27.206-1.152-30.67-2.601-13.617-21.018-36.588-33.297-61.684-32.935-18.568.272-36.148 7.658-49.503 20.798-13.359 13.143-21.026 30.603-21.589 49.163-.505 16.615 4.685 32.78 14.674 45.912-26.6 28.972-41.204 66.426-41.204 105.878 0 61.082 35.145 114.103 86.271 139.925-13.146 19.654-20.824 43.259-20.824 68.627v30.729c0 5.582 4.525 10.107 10.107 10.107s10.107-4.525 10.107-10.107v-30.729c0-22.596 7.278-43.522 19.608-60.565 7.802 2.717 15.881 4.837 24.185 6.298-13.738 14.656-22.173 34.337-22.173 55.962v32.121c0 3.349 2.715 6.064 6.064 6.064s6.064-2.715 6.064-6.064v-32.121c0-21.759 10.014-41.213 25.669-54.022 3.823.28 7.682.428 11.575.428h26.502v85.714c0 3.349 2.715 6.064 6.064 6.064s6.064-2.715 6.064-6.064v-85.714h26.502c3.888 0 7.743-.148 11.561-.427 15.66 12.807 25.683 32.258 25.683 54.021v32.121c0 3.349 2.715 6.064 6.064 6.064s6.064-2.715 6.064-6.064v-32.121c0-21.626-8.435-41.307-22.175-55.962 8.305-1.46 16.384-3.58 24.187-6.297 12.33 17.043 19.608 37.968 19.608 60.565v30.729c0 5.582 4.525 10.107 10.107 10.107s10.107-4.525 10.107-10.107v-30.729c0-25.369-7.678-48.975-20.823-68.628 51.128-25.823 86.272-78.844 86.272-139.926zm-156.654 136.44h-65.133c-75.233 0-136.439-61.206-136.439-136.44 0-35.41 13.51-68.974 38.039-94.506 5.727-5.959 6.019-15.228.679-21.562-8.256-9.792-12.588-22.26-12.198-35.108.83-27.369 23.791-49.961 51.184-50.362.264-.004.525-.006.788-.006 18.139 0 34.624 9.168 44.217 24.637 1.908 3.077 6.378 10.284 36.969 10.96 10.91.241 22.594-.486 32.05-1.993 13.493-2.151 21.152-5.512 24.831-10.899 9.886-14.469 26.221-22.964 43.748-22.699 27.393.401 50.354 22.993 51.183 50.363.389 12.847-3.943 25.315-12.198 35.107v.001c-5.34 6.334-5.048 15.603.678 21.56 24.53 25.533 38.04 59.097 38.04 94.507.002 75.234-61.205 136.44-136.438 136.44z"/><path d="m162.131 151.188c21.679 0 39.316-17.637 39.316-39.316s-17.637-39.316-39.316-39.316c-21.68 0-39.317 17.637-39.317 39.316.001 21.679 17.638 39.316 39.317 39.316zm0-66.503c14.991 0 27.187 12.196 27.187 27.187s-12.197 27.188-27.187 27.188c-14.992 0-27.188-12.197-27.188-27.188s12.196-27.187 27.188-27.187z"/><path d="m162.131 129.247c9.595 0 17.374-7.779 17.374-17.374s-7.779-17.374-17.374-17.374-17.374 7.779-17.374 17.374 7.779 17.374 17.374 17.374z"/><path d="m344.22 151.188c21.68 0 39.317-17.637 39.317-39.316s-17.637-39.316-39.317-39.316c-21.679 0-39.316 17.637-39.316 39.316s17.637 39.316 39.316 39.316zm0-66.503c14.992 0 27.188 12.196 27.188 27.187s-12.197 27.188-27.188 27.188-27.187-12.197-27.187-27.188 12.196-27.187 27.187-27.187z"/><path d="m344.22 129.247c9.595 0 17.374-7.779 17.374-17.374s-7.779-17.374-17.374-17.374-17.374 7.779-17.374 17.374c.001 9.595 7.779 17.374 17.374 17.374z"/><path d="m232.175 159.376c7.449 4.806 15.111 7.209 22.773 7.209s15.324-2.403 22.773-7.209c2.814-1.816 3.623-5.569 1.808-8.384-1.815-2.814-5.57-3.623-8.384-1.808-11.051 7.13-21.345 7.13-32.396 0-2.815-1.816-6.569-1.006-8.384 1.808-1.813 2.814-1.004 6.567 1.81 8.384z"/><path d="m311.895 223.085h-117.276c-42.683 0-77.408 34.726-77.408 77.409s34.725 77.409 77.408 77.409h117.277c42.683 0 77.408-34.726 77.408-77.409s-34.725-77.409-77.409-77.409zm0 142.689h-117.276c-35.995 0-65.28-29.285-65.28-65.28s29.285-65.28 65.28-65.28h117.277c35.995 0 65.28 29.285 65.28 65.28s-29.285 65.28-65.281 65.28z"/><ellipse cx="167.141" cy="320.55" rx="16.114" ry="16.114" transform="matrix(.99 -.139 .139 .99 -42.845 26.281)"/><circle cx="339.372" cy="320.55" r="16.114"/><path d="m182.952 267.456c-.73-.373-7.386-3.646-15.811-3.646s-15.081 3.273-15.811 3.646c-2.984 1.523-4.167 5.175-2.644 8.159 1.522 2.983 5.177 4.166 8.158 2.644.045-.024 4.702-2.32 10.298-2.32 5.567 0 10.278 2.311 10.298 2.32.882.451 1.824.664 2.752.664 2.206 0 4.334-1.209 5.406-3.309 1.521-2.983.338-6.635-2.646-8.158z"/><path d="m355.184 267.456c-.731-.373-7.387-3.646-15.811-3.646-8.425 0-15.081 3.273-15.811 3.646-2.984 1.523-4.167 5.175-2.644 8.159 1.072 2.1 3.199 3.309 5.406 3.309.928 0 1.869-.214 2.752-.664.045-.024 4.702-2.32 10.298-2.32 5.567 0 10.278 2.311 10.297 2.32 2.982 1.522 6.635.339 8.158-2.645 1.522-2.984.337-6.637-2.645-8.159z"/><path d="m269.371 314.486c-3.349 0-6.064 2.715-6.064 6.064 0 5.542-4.509 10.05-10.05 10.05s-10.05-4.508-10.05-10.05c0-3.349-2.715-6.064-6.064-6.064s-6.064 2.715-6.064 6.064c0 12.229 9.949 22.178 22.178 22.178s22.178-9.949 22.178-22.178c0-3.348-2.715-6.064-6.064-6.064z"/><path d="m281.415 435.756c-5.064 0-9.169 4.105-9.169 9.169s4.105 9.169 9.169 9.169 9.169-4.105 9.169-9.169-4.105-9.169-9.169-9.169z"/><path d="m281.415 470.306c-5.064 0-9.169 4.105-9.169 9.169 0 5.063 4.105 9.168 9.169 9.168s9.169-4.105 9.169-9.168c0-5.064-4.105-9.169-9.169-9.169z"/></g><path d="m121.317 239.258c-.684 0-1.378-.07-2.075-.215-5.464-1.14-8.969-6.494-7.829-11.958.963-4.619 2.485-9.397 4.521-14.201 2.179-5.139 8.107-7.54 13.251-5.36 5.139 2.179 7.539 8.111 5.36 13.251-1.524 3.595-2.649 7.107-3.345 10.44-.994 4.766-5.197 8.043-9.883 8.043z" fill="#fff"/><path d="m142.433 199.858c-2.216 0-4.447-.726-6.312-2.219-4.357-3.49-5.059-9.85-1.569-14.207.902-1.126 1.762-2.15 2.629-3.133 3.695-4.183 10.081-4.579 14.266-.884 4.184 3.695 4.58 10.083.884 14.266-.652.737-1.307 1.518-2.004 2.388-1.995 2.493-4.931 3.789-7.894 3.789z" fill="#fff"/></g><g><ellipse cx="432.37" cy="18.745" fill="#84eac4" rx="18.745" ry="18.745" transform="matrix(.23 -.973 .973 .23 314.788 435.242)"/><circle cx="219.66" cy="18.359" fill="#84eac4" r="7.938"/><g fill="#bdf4e3"><path d="m484.518 118.503 6.368 17.906c.273.767.812 1.374 1.493 1.681l15.909 7.168c2.248 1.013 2.248 4.594 0 5.606l-15.909 7.167c-.681.307-1.221.914-1.493 1.681l-6.368 17.906c-.9 2.53-4.081 2.53-4.981 0l-6.368-17.906c-.273-.767-.812-1.374-1.493-1.681l-15.909-7.167c-2.247-1.013-2.247-4.594 0-5.606l15.909-7.168c.681-.307 1.221-.914 1.493-1.681l6.368-17.906c.9-2.529 4.081-2.529 4.981 0z"/><path d="m32.463 24.232 6.368 17.906c.273.767.812 1.374 1.493 1.681l15.909 7.167c2.247 1.013 2.247 4.594 0 5.606l-15.908 7.168c-.681.307-1.221.914-1.493 1.681l-6.368 17.906c-.9 2.53-4.081 2.53-4.981 0l-6.368-17.906c-.273-.767-.812-1.374-1.493-1.681l-15.91-7.168c-2.247-1.013-2.247-4.593 0-5.606l15.909-7.167c.681-.307 1.221-.915 1.493-1.681l6.368-17.906c.9-2.53 4.081-2.53 4.981 0z"/></g></g></g></svg>