<svg id="Capa_1" enable-background="new 0 0 512 512" height="512" viewBox="0 0 512 512" width="512" xmlns="http://www.w3.org/2000/svg"><g><g><path d="m390.909 501.918v-33.092c0-67.603-54.803-122.406-122.406-122.406-67.603 0-122.406 54.803-122.406 122.406v33.092z" fill="#eaa585"/><path d="m350.212 501.918v-31.268c0-45.126-36.582-81.708-81.708-81.708-45.126 0-81.708 36.582-81.708 81.708v31.267h163.416z" fill="#eaa585"/><path d="m321.396 428.213c-11.194-5.763-38.625-22.199-52.082-22.199h-2.988c-12.646 0-40.542 17.497-51.229 22.626l52.51 73.039h3.415z" fill="#b2e7f1"/><path d="m277.005 389.372c23.634 10.63 40.258 35.857 40.258 65.298v7.083c0 11.026-8.939 19.965-19.966 19.965h-15.602c-2.629 4.271-5.824 8.184-8.159 12.718-1.704 3.308-6.989 3.263-8.706 0-2.43-4.619-5.565-8.707-8.831-12.718h-69.277v20.178h163.417v-31.267c0-42.229-32.038-76.97-73.134-81.257z" fill="#e37c85"/><path d="m270.827 501.898c3.874-6.822 7.81-13.605 12.09-20.178h-27.089c4.731 6.794 9.749 13.396 14.492 20.178z" fill="#a7adf1"/><g fill="#b07676"><ellipse cx="446.341" cy="297.713" rx="40.536" ry="40.536" transform="matrix(.383 -.924 .924 .383 .483 596.149)"/><ellipse cx="90.666" cy="297.713" rx="40.536" ry="40.536" transform="matrix(.23 -.973 .973 .23 -219.914 317.554)"/><path d="m303.046 397.891h-69.085c-85.848 0-155.441-69.593-155.441-155.441 0-85.848 69.593-155.441 155.441-155.441h69.085c85.848 0 155.441 69.593 155.441 155.441 0 85.848-69.593 155.441-155.441 155.441z"/></g><path d="m303.046 86.917h-19.933c69.598 0 126.018 56.42 126.018 126.018v10.702c0 69.598-56.42 126.018-126.018 126.018h-78.575c-66.603 0-121.131-51.671-125.701-117.112-.202 3.247-.317 6.517-.317 9.815v.001c0 85.847 69.593 155.441 155.441 155.441h69.085c85.848 0 155.441-69.593 155.441-155.441v-.001c0-85.848-69.593-155.441-155.441-155.441z" fill="#a45775"/><path d="m302.444 385.748-17.674 14.704c-2.401-2.569-5.809-4.183-9.602-4.183h-12.632c-3.793 0-7.201 1.614-9.602 4.183l-17.674-14.704c-13.193-10.977-33.204-1.594-33.204 15.568v33.226c0 17.162 20.01 26.545 33.204 15.568l17.674-14.704c2.401 2.568 5.809 4.183 9.602 4.183h12.632c3.793 0 7.201-1.614 9.602-4.183l17.674 14.704c13.194 10.977 33.204 1.594 33.204-15.568v-33.226c0-17.162-20.01-26.544-33.204-15.568z" fill="#f7e266"/><path d="m333.876 339.956c0 38.821-46.291 74.781-65.372 74.781s-65.372-35.96-65.372-74.781 29.268-65.802 65.372-65.802 65.372 26.981 65.372 65.802z" fill="#a183e2"/><path d="m165.298 185.579c22.681-.221 50.128 24.08 104.488 24.08 54.359 0 73.997-24.504 96.675-24.898 63.799-1.107 48.328 81.826 67.705 110.553 2.768 4.104 21.618-34.125 24.599-30.617.978-6.956 1.495-46.807 1.495-54.028 0-84.842-69.773-153.62-155.843-153.62h-69.264c-86.07 0-155.843 68.778-155.843 153.62 0 7.221.517 47.072 1.495 54.028 3.335-3.924 18.523 41.656 21.344 37.035 17.349-28.424-2.603-115.512 63.149-116.153z" fill="#a183e2"/><path d="m149.498 207.705c-.655-1.015-1.367-1.971-2.12-2.879l6.525-30.252-30.69-6.619c-.694-1.719-1.553-3.4-2.595-5.015-8.898-13.792-27.291-17.759-41.082-8.861-1.616 1.042-3.091 2.219-4.432 3.5l-28.418-6.129-5.952 27.595c-1.632.676-3.228 1.499-4.765 2.49-13.791 8.898-17.759 27.291-8.861 41.083.992 1.537 2.107 2.945 3.315 4.233l-6.862 31.817 31.272 6.745c.361.665.74 1.324 1.157 1.97 8.898 13.791 27.291 17.758 41.083 8.861.646-.417 1.263-.861 1.866-1.318l31.841 6.867 6.742-31.256c1.06-.517 2.103-1.094 3.118-1.749 13.789-8.898 17.756-27.291 8.858-41.083z" fill="#e58bbd"/></g><g><g fill="#440b29"><path d="m469.805 252.89c.665-6.969.644-22.103.56-37.143-.012-2.137-.022-3.893-.022-5.079 0-90.265-74.433-163.702-165.925-163.702h-69.264c-68.08 0-126.706 40.666-152.256 98.666-2.283.871-4.51 1.986-6.644 3.363-.987.637-1.927 1.318-2.829 2.033l-25.465-5.492c-3.266-.706-6.485 1.372-7.189 4.639l-5.319 24.662c-.936.492-1.858 1.03-2.764 1.614-16.572 10.692-21.357 32.874-10.665 49.446.582.901 1.204 1.766 1.854 2.603l-6.232 28.892c-.704 3.266 1.372 6.484 4.639 7.189l25.948 5.597c-5.169 7.931-8.186 17.384-8.186 27.536 0 27.911 22.708 50.619 50.619 50.619 5.024 0 9.877-.743 14.461-2.113 15.145 18.765 34.282 34.177 56.129 44.904-15.87 21.843-25.242 48.698-25.242 77.703v33.091c0 5.568 4.515 10.083 10.083 10.083s10.083-4.514 10.083-10.083v-33.091c0-26.33 9.117-50.565 24.347-69.736 5.057 1.73 10.217 3.236 15.48 4.475v17.714c-9.62 14.075-15.261 31.074-15.261 49.372v35.085c0 3.341 2.709 6.05 6.05 6.05s6.05-2.709 6.05-6.05v-35.087c0-4.405.386-8.719 1.113-12.919 14.06 25.234 39.685 44.055 73.254 53.517.012.004.025.005.037.008.016.004.032.009.048.014.131.035.263.056.395.082.088.017.173.038.262.052.033.005.067.014.1.018.004 0 .007.001.011.001.239.031.479.046.718.049.012 0 .024.003.036.003.01 0 .02.003.031.003h.003s.002 0 .003 0c.01 0 .02-.003.031-.003.01 0 .021-.002.031-.002.236-.002.472-.017.708-.047.007-.001.014-.002.021-.003.036-.005.071-.013.106-.019.084-.013.166-.033.249-.049.127-.025.254-.045.379-.078.022-.006.044-.013.066-.019.016-.005.031-.005.047-.01 34.913-9.841 59.368-27.173 72.861-51.581.526 3.586.807 7.251.807 10.982v35.085c0 3.341 2.709 6.05 6.049 6.05 3.341 0 6.05-2.709 6.05-6.05v-35.084c0-17.853-5.367-34.47-14.564-48.339v-18.904c5.027-1.207 9.963-2.647 14.8-4.302 15.222 19.168 24.329 43.399 24.329 69.721v33.091c0 5.568 4.514 10.083 10.083 10.083 5.568 0 10.083-4.514 10.083-10.083v-33.091c0-29.005-9.38-55.854-25.252-77.696 21.855-10.729 41.012-26.136 56.159-44.909 4.578 1.37 9.424 2.112 14.443 2.112 27.911 0 50.619-22.708 50.619-50.619-.001-19.447-11.031-36.352-27.156-44.824zm-234.651-185.759h69.264c80.372 0 145.76 64.391 145.76 143.537 0 1.211.01 3.006.022 5.191.049 8.787.161 28.847-.453 35.025-1.943 5.794-7.313 17.498-12.122 26.743-1.687-6.482-3.052-13.997-4.459-21.737-3.174-17.468-6.773-37.267-15.616-52.8-10.961-19.254-28.214-28.853-51.262-28.412-10.882.188-20.298 4.456-31.202 9.397-15.237 6.904-34.199 15.498-65.3 15.498-30.987 0-52.813-8.419-70.349-15.183-12.369-4.77-23.07-8.899-33.829-8.899-.135 0-.272.001-.408.002-1.831.018-3.614.11-5.367.249.637-3.23-1.425-6.386-4.656-7.083l-27.728-5.981c-.531-1.028-1.113-2.036-1.749-3.021-4.838-7.499-12.032-12.574-19.99-14.904 24.29-46.068 73.189-77.622 129.444-77.622zm-139.547 88.258c7.778 0 15.404 3.822 19.926 10.83 3.254 5.043 4.454 11.002 3.427 16.88-12.553-11.314-30.64-14.737-46.527-8.582.03-.152.043-.305.076-.456 1.333-6.18 4.992-11.471 10.305-14.898 3.958-2.555 8.4-3.774 12.793-3.774zm48.013 38.166c-3.498-2.205-7.391-3.805-11.553-4.703-.641-.138-1.283-.258-1.925-.361.171-.627.329-1.259.467-1.899.77-3.569.987-7.17.677-10.705l15.428 3.328zm-72.804-4.701c5.528-3.566 11.728-5.269 17.863-5.269 10.858 0 21.507 5.338 27.819 15.121 9.878 15.311 5.459 35.804-9.852 45.682-15.311 9.879-35.804 5.459-45.682-9.852s-5.459-35.804 9.852-45.682zm-9.744 75.248c-2.909-4.508-4.173-9.748-3.677-15.007 8.536 8.236 19.876 12.657 31.407 12.657 4.823 0 9.678-.776 14.371-2.36-1.703 4.681-4.883 8.864-9.382 11.767-5.311 3.426-11.64 4.581-17.822 3.248-6.179-1.333-11.47-4.991-14.897-10.305zm49.528 7.15c2.607-3.882 4.402-8.214 5.337-12.73.35.086.696.182 1.05.258 2.532.547 5.081.816 7.612.816 1.628 0 3.248-.119 4.851-.341l-3.31 15.348zm26.758-27.548c-4.657 3.005-10.096 4.261-15.534 3.627 11.473-12.366 15.113-30.325 9.293-46.223 5.487 1.584 10.172 5.032 13.297 9.877 7.076 10.965 3.91 25.643-7.056 32.719zm-86.034-85.065 13.175 2.842c-1.817 3.235-3.11 6.723-3.856 10.326-3.892-.96-7.94-1.273-11.966-.896zm-22.381 42.877c1.333-6.181 4.992-11.471 10.305-14.898 3.958-2.554 8.4-3.773 12.793-3.773 1.999 0 3.983.269 5.91.765-12.503 11.648-17.251 29.407-12.576 45.575-5.438-1.6-10.08-5.035-13.184-9.847-3.427-5.313-4.581-11.642-3.248-17.822zm5.359 36.038c3.15 1.799 6.588 3.129 10.236 3.916.648.14 1.298.26 1.948.364-1.363 4.988-1.638 10.255-.767 15.424l-14.97-3.229zm56.365 90.614c-16.792 0-30.454-13.662-30.454-30.454 0-5.405 1.425-10.478 3.906-14.881 2.892 1.538 6.011 2.693 9.301 3.402.323.069.646.122.969.182 4.092 14.833 10.191 28.838 18.003 41.699-.572.032-1.146.052-1.725.052zm116.152 127.63c1.341.968 2.778 1.833 4.323 2.557 3.617 1.696 7.441 2.528 11.23 2.528 4.637 0 9.214-1.259 13.3-3.694l20.481 37.577c-21.929-8.695-38.675-21.918-49.334-38.968zm114.607-67.341c5.117 2.4 8.172 7.206 8.172 12.859v33.225c0 5.653-3.055 10.46-8.173 12.859-5.116 2.398-10.765 1.674-15.111-1.942l-13.577-11.296c1.046-2.368 1.638-4.98 1.638-7.731v-15.469c6.158-3.978 12.417-8.998 18.231-14.764 2.267-2.248 4.876-5.025 7.562-8.257.421.155.842.321 1.258.516zm-52.922 32.329c3.981 0 8.695-1.175 13.771-3.315v8.962c0 3.919-3.188 7.107-7.107 7.107h-12.632c-3.919 0-7.107-3.188-7.107-7.107v-8.678c4.81 1.957 9.277 3.031 13.075 3.031zm-15.408 22.354c2.791 1.583 6.008 2.499 9.44 2.499h12.632c3.432 0 6.649-.916 9.44-2.499l8.406 6.993-24.078 42.804-23.616-43.328zm50.989-55.531c-13.805 13.69-28.636 21.078-35.582 21.078s-21.777-7.388-35.582-21.078c-15.089-14.962-23.741-32.331-23.741-47.652 0-34.065 25.503-59.753 59.323-59.753s59.323 25.688 59.323 59.753c.001 15.32-8.652 32.689-23.741 47.652zm-87.806.848c.244-.115.493-.2.74-.3 2.623 3.141 5.167 5.844 7.384 8.042 6.034 5.984 12.546 11.168 18.928 15.213v15.02c0 2.751.592 5.363 1.638 7.731l-13.579 11.297c-4.344 3.616-9.994 4.342-15.111 1.941-5.118-2.4-8.173-7.207-8.173-12.858v-33.225c-.001-5.654 3.055-10.461 8.173-12.861zm65.487 106.35 20.94-37.227c3.913 2.178 8.244 3.303 12.626 3.303 3.788 0 7.613-.832 11.229-2.528 2.093-.981 3.997-2.212 5.709-3.631-10.075 17.79-26.733 31.015-50.504 40.083zm53.611-110.648c-2.152-2.493-4.807-4.587-7.864-6.169 6.751-10.393 12.413-23.45 12.413-38.034 0-40.963-30.705-71.852-71.422-71.852s-71.422 30.89-71.422 71.852c0 14.709 5.76 27.865 12.587 38.301-2.897 1.579-5.413 3.631-7.466 6.044-41.61-9.31-76.521-36.518-96.244-73.081 1.94-.872 3.623-2.313 4.798-4.237 3.61-5.916 5.815-13.393 7.405-21.724l11.34 2.446c.429.093.859.137 1.281.137 2.788 0 5.296-1.939 5.908-4.776l6.16-28.561c.355-.213.717-.41 1.066-.636 16.572-10.693 21.356-32.874 10.665-49.446-.227-.352-.467-.694-.705-1.037l1.438-6.669c3.047-.659 6.391-1.022 10.082-1.058 7.036-.102 15.753 3.292 26.783 7.546 18.09 6.978 42.864 16.534 77.606 16.534 35.457 0 57.516-9.997 73.623-17.296 9.23-4.183 16.519-7.487 23.229-7.603.348-.006.689-.009 1.031-.009 31.522 0 38.57 25.667 45.657 64.665 3.107 17.089 6.04 33.23 13.421 44.174 1.464 2.17 3.584 3.676 5.978 4.35-19.294 38.004-54.79 66.433-97.348 76.139zm110.964-55.991c-.579 0-1.152-.02-1.724-.052 9.944-16.372 17.125-34.598 20.902-54.026 6.872 5.587 11.276 14.097 11.276 23.625-.001 16.791-13.662 30.453-30.454 30.453z"/><path d="m175.767 289.279c-9.584 0-17.353 7.769-17.353 17.353s7.769 17.353 17.353 17.353 17.353-7.769 17.353-17.353c-.001-9.584-7.77-17.353-17.353-17.353z"/><path d="m361.24 289.279c-9.584 0-17.353 7.769-17.353 17.353s7.769 17.353 17.353 17.353c9.583 0 17.353-7.769 17.353-17.353s-7.769-17.353-17.353-17.353z"/><path d="m192.575 249.883c-.776-.397-7.848-3.874-16.808-3.874-8.961 0-16.033 3.478-16.809 3.874-2.966 1.513-4.137 5.133-2.638 8.105 1.499 2.973 5.131 4.17 8.113 2.683.051-.026 5.216-2.564 11.333-2.564s11.281 2.538 11.308 2.551c.88.45 1.82.663 2.745.663 2.201 0 4.324-1.205 5.393-3.3 1.52-2.975.339-6.618-2.637-8.138z"/><path d="m378.049 249.883c-.777-.397-7.849-3.874-16.809-3.874s-16.032 3.478-16.808 3.874c-2.977 1.519-4.157 5.162-2.638 8.138 1.519 2.975 5.163 4.158 8.138 2.638.05-.026 5.17-2.551 11.307-2.551 6.118 0 11.282 2.538 11.309 2.551.88.45 1.82.663 2.745.663 2.202 0 4.323-1.205 5.393-3.3 1.52-2.976.338-6.62-2.637-8.139z"/><path d="m285.857 302.557c-3.341 0-6.05 2.709-6.05 6.05 0 6.233-5.071 11.303-11.304 11.303s-11.303-5.07-11.303-11.303c0-3.341-2.709-6.05-6.05-6.05s-6.05 2.709-6.05 6.05c0 12.904 10.498 23.402 23.403 23.402s23.403-10.498 23.403-23.402c0-3.341-2.708-6.05-6.049-6.05z"/><path d="m58.642 215.36 12.132 11.931 6.744 17.367c.737 1.898 2.38 3.299 4.371 3.725.421.091.846.135 1.268.135 1.573 0 3.103-.613 4.246-1.74l13.163-12.97 16.106-5.936c1.997-.736 3.46-2.467 3.853-4.559.394-2.091-.341-4.235-1.934-5.646l-12.562-11.126-5.992-17.706c-.677-2.001-2.347-3.502-4.408-3.964-2.06-.463-4.212.184-5.677 1.703l-12.835 13.311-16.158 5.426c-1.994.67-3.496 2.327-3.969 4.376-.473 2.051.153 4.198 1.652 5.673zm23.728-4.476c.922-.309 1.755-.836 2.429-1.535l6.962-7.221 3.321 9.815c.338.998.93 1.891 1.719 2.59l6.193 5.485-7.839 2.89c-.806.297-1.541.764-2.153 1.367l-7.537 7.426-3.883-10.001c-.31-.799-.786-1.522-1.397-2.124l-6.032-5.931z"/><path d="m319.691 156.239c3.341 0 6.05-2.709 6.05-6.05v-10.01c0-3.341-2.709-6.05-6.05-6.05s-6.049 2.709-6.049 6.05v10.01c-.001 3.341 2.708 6.05 6.049 6.05z"/><path d="m361.24 133.792c3.341 0 6.05-2.709 6.05-6.05v-10.01c0-3.341-2.709-6.049-6.05-6.049s-6.05 2.709-6.05 6.049v10.01c.001 3.341 2.709 6.05 6.05 6.05z"/><path d="m391.991 158.333c3.341 0 6.05-2.709 6.05-6.05v-10.01c0-3.341-2.709-6.05-6.05-6.05s-6.05 2.709-6.05 6.05v10.01c.001 3.342 2.709 6.05 6.05 6.05z"/><path d="m300.543 349.231c-3.341 0-6.05 2.709-6.05 6.049v10.01c0 3.341 2.709 6.05 6.05 6.05s6.05-2.709 6.05-6.05v-10.01c-.001-3.341-2.71-6.049-6.05-6.049z"/><path d="m269.786 367.333c-3.341 0-6.05 2.709-6.05 6.05v10.01c0 3.341 2.709 6.05 6.05 6.05s6.05-2.709 6.05-6.05v-10.01c-.001-3.341-2.709-6.05-6.05-6.05z"/></g><path d="m233.524 111.772c-5.32 0-9.77-4.164-10.059-9.54-.3-5.56 3.965-10.311 9.525-10.61 4.07-.22 8.243-.236 12.4-.05 5.563.249 9.871 4.962 9.622 10.524-.249 5.564-4.975 9.885-10.524 9.622-3.499-.158-7.002-.143-10.413.04-.184.009-.368.014-.551.014z" fill="#fff"/><path d="m163.986 145.624c-2.106 0-4.229-.658-6.043-2.019-4.454-3.342-5.356-9.662-2.014-14.116 7.475-9.965 18.196-18.615 31.865-25.711 4.943-2.566 11.028-.64 13.594 4.303 2.566 4.942.64 11.028-4.303 13.594-10.806 5.611-19.459 12.497-25.025 19.915-1.982 2.642-5.009 4.034-8.074 4.034z" fill="#fff"/></g><g><path d="m471.566 4.746 8.564 24.081c.367 1.031 1.093 1.848 2.009 2.261l21.395 9.639c3.023 1.362 3.023 6.178 0 7.539l-21.395 9.639c-.916.413-1.642 1.23-2.009 2.261l-8.564 24.081c-1.21 3.402-5.488 3.402-6.699 0l-8.564-24.081c-.367-1.031-1.093-1.848-2.009-2.261l-21.394-9.639c-3.023-1.362-3.023-6.178 0-7.539l21.395-9.639c.916-.413 1.642-1.23 2.009-2.261l8.564-24.081c1.21-3.402 5.488-3.402 6.698 0z" fill="#cab4ef"/><path d="m43.6 87.009c0 10.328-8.372 18.7-18.7 18.7s-18.7-8.372-18.7-18.7 8.372-18.7 18.7-18.7c10.327 0 18.7 8.373 18.7 18.7z" fill="#a183e2"/><circle cx="388.755" cy="16.328" fill="#a183e2" r="7.919"/><path d="m98.13 1.893 6.353 17.863c.272.764.81 1.371 1.49 1.677l15.87 7.15c2.242 1.01 2.242 4.583 0 5.593l-15.87 7.15c-.68.306-1.218.912-1.49 1.677l-6.353 17.862c-.898 2.524-4.072 2.524-4.969 0l-6.353-17.863c-.272-.765-.81-1.371-1.49-1.677l-15.87-7.15c-2.242-1.01-2.242-4.582 0-5.593l15.87-7.15c.68-.306 1.218-.912 1.49-1.677l6.353-17.863c.897-2.523 4.071-2.523 4.969.001z" fill="#cab4ef"/></g></g></svg>