<svg id="Capa_1" enable-background="new 0 0 507.905 507.905" height="512" viewBox="0 0 507.905 507.905" width="512" xmlns="http://www.w3.org/2000/svg"><g><g><path d="m357.787 497.904v-29.32c0-59.897-48.556-108.454-108.454-108.454-59.897 0-108.454 48.556-108.454 108.454v29.32z" fill="#f1c7b6"/><path d="m357.787 468.599v-.015c0-59.897-48.556-108.454-108.454-108.454-59.897 0-108.454 48.557-108.454 108.454v.015z" fill="#84eac4"/><path d="m321.728 497.904v-27.703c0-39.983-32.412-72.395-72.395-72.395-39.983 0-72.395 32.413-72.395 72.395v27.703z" fill="#84eac4"/><path d="m256.93 398.204c20.94 9.418 35.669 31.771 35.669 57.855v6.276c0 9.77-7.92 17.69-17.69 17.69h-97.971v17.878h144.79v-27.703c0-37.416-28.387-68.198-64.798-71.996z" fill="#71afc4"/><g fill="#f1c7b6"><path d="m208.058 411.77s21.314 41.917 40.251 41.917 42.3-41.917 42.3-41.917"/><ellipse cx="406.9" cy="316.975" rx="35.916" ry="35.916" transform="matrix(.374 -.927 .927 .374 -39.374 575.588)"/><ellipse cx="91.766" cy="316.975" rx="35.916" ry="35.916" transform="matrix(.92 -.391 .391 .92 -116.688 61.161)"/><path d="m279.939 405.735h-61.211c-76.063 0-137.724-61.661-137.724-137.724 0-76.063 61.661-137.724 137.724-137.724h61.211c76.063 0 137.724 61.661 137.724 137.724-.001 76.063-61.662 137.724-137.724 137.724z"/></g><path d="m279.939 130.205h-17.661c61.665 0 111.654 49.989 111.654 111.654v9.482c0 61.665-49.989 111.654-111.654 111.654h-69.619c-59.012 0-107.324-45.782-111.373-103.763-.179 2.877-.281 5.775-.281 8.697 0 76.062 61.661 137.724 137.724 137.724h61.211c76.063 0 137.724-61.661 137.724-137.724-.002-76.063-61.663-137.724-137.725-137.724z" fill="#e795b6"/><path d="m464.417 219.916c0-16.455-10.159-30.528-24.542-36.316.595-3.045.915-6.188.915-9.407 0-26.943-21.842-48.784-48.784-48.784-2.018 0-4.003.137-5.957.375-7.902-20.127-27.489-34.384-50.419-34.384-7.979 0-15.548 1.74-22.369 4.838-12.887-13.298-30.924-21.575-50.904-21.575-15.431 0-29.699 4.945-41.338 13.316-11.924-8.853-26.689-14.094-42.681-14.094-32.619 0-60.13 21.797-68.81 51.615-.949-.055-1.904-.091-2.867-.091-26.943 0-48.784 21.842-48.784 48.784 0 3.219.32 6.362.915 9.407-14.383 5.788-24.542 19.862-24.542 36.316 0 16.927 10.746 31.343 25.787 36.802-5.986 5.24-9.771 12.931-9.771 21.511 0 15.788 12.799 28.586 28.586 28.586 15.788 0 28.586-12.798 28.586-28.586 0-4.063-.853-7.926-2.382-11.426.533.021 1.066.04 1.604.04 21.617 0 39.142-17.524 39.142-39.142 0-.078-.005-.154-.006-.231 7.974-.998 14.926-5.275 19.461-11.445 4.243.783 8.61 1.212 13.08 1.212 15.992 0 30.757-5.241 42.681-14.094 11.639 8.371 25.907 13.316 41.338 13.316 19.98 0 38.017-8.278 50.904-21.576 4.568 2.075 9.469 3.538 14.608 4.276.023 14.553 10.921 26.547 25.001 28.31 0 .078-.006.154-.006.231 0 21.617 17.524 39.142 39.142 39.142.538 0 1.071-.019 1.604-.04-1.529 3.5-2.382 7.362-2.382 11.426 0 15.788 12.798 28.586 28.586 28.586s28.586-12.798 28.586-28.586c0-8.58-3.785-16.271-9.771-21.511 15.043-5.459 25.789-19.874 25.789-36.801z" fill="#e58bbd"/><path d="m150.644 147.936c-1.439 0-2.901-.311-4.288-.971-4.988-2.372-7.108-8.338-4.736-13.325 5.446-11.454 16.065-20.75 25.824-22.607 5.425-1.025 10.661 2.53 11.693 7.955 1.032 5.426-2.529 10.66-7.955 11.693-2.306.439-8.288 4.791-11.5 11.547-1.713 3.602-5.299 5.708-9.038 5.708z" fill="#fff"/><path d="m269.674 120.591-1.524 6.327 6.237 1.858c11.883 3.541 10.037 20.909-2.325 21.873l-6.488.506.16 6.506c.305 12.395-16.784 16.007-21.521 4.548l-2.486-6.014-6.138 2.163c-11.694 4.12-20.41-11.016-10.976-19.062l4.952-4.223-3.953-5.169c-7.532-9.849 4.17-22.815 14.737-16.329l5.546 3.404 3.695-5.357c7.039-10.208 22.987-3.086 20.084 8.969z" fill="#f0c4db"/><path d="m315.807 180.234 3.571 5.441 5.623-3.277c10.713-6.243 22.116 6.988 14.36 16.662l-4.071 5.078 4.854 4.335c9.248 8.259.189 23.192-11.409 18.806l-6.087-2.302-2.623 5.956c-4.997 11.347-21.999 7.346-21.411-5.039l.309-6.501-6.475-.654c-12.336-1.246-13.785-18.652-1.824-21.92l6.278-1.715-1.379-6.36c-2.627-12.12 13.479-18.876 20.284-8.51z" fill="#f0c4db"/><path d="m399.173 162.154 5.755 3.038 3.34-5.585c6.364-10.641 22.74-4.566 20.622 7.652l-1.111 6.412 6.344 1.451c12.087 2.764 11.369 20.216-.904 21.977l-6.442.925.581 6.482c1.106 12.35-15.713 17.06-21.181 5.931l-2.87-5.841-5.985 2.555c-11.403 4.868-21.08-9.672-12.186-18.312l4.668-4.535-4.28-4.903c-8.155-9.339 2.684-23.035 13.649-17.247z" fill="#f0c4db"/><path d="m115.349 176.984 1.947 6.21 6.305-1.614c12.012-3.074 19.36 12.771 9.254 19.955l-5.304 3.77 3.483 5.498c6.636 10.474-6.163 22.359-16.118 14.968l-5.225-3.88-4.152 5.011c-7.911 9.548-23.17 1.048-19.216-10.704l2.075-6.168-6.049-2.4c-11.525-4.574-8.156-21.712 4.242-21.583l6.508.068.414-6.495c.787-12.375 18.127-14.467 21.836-2.636z" fill="#f0c4db"/></g><g fill="#440b29"><circle cx="167.167" cy="324.877" r="15.375"/><ellipse cx="331.5" cy="324.877" rx="15.375" ry="15.375" transform="matrix(.098 -.995 .995 .098 -24.373 622.857)"/><path d="m182.349 274.026c-.702-.358-7.095-3.501-15.183-3.501s-14.48 3.143-15.183 3.501c-2.951 1.507-4.123 5.12-2.617 8.072 1.061 2.078 3.165 3.273 5.349 3.273.917 0 1.849-.211 2.723-.656.043-.022 4.525-2.19 9.728-2.19 5.257 0 9.712 2.183 9.729 2.19 2.952 1.505 6.566.334 8.071-2.617 1.507-2.952.335-6.565-2.617-8.072z"/><path d="m346.683 274.026c-.703-.358-7.095-3.501-15.183-3.501s-14.48 3.143-15.183 3.501c-2.94 1.501-4.102 5.087-2.617 8.035 1.484 2.949 5.088 4.136 8.043 2.668.044-.021 4.5-2.204 9.757-2.204 5.258 0 9.712 2.183 9.728 2.19.874.445 1.805.656 2.723.656 2.183 0 4.289-1.195 5.349-3.273 1.506-2.952.334-6.565-2.617-8.072z"/><path d="m264.708 318.877c-3.314 0-6 2.686-6 6 0 5.169-4.206 9.375-9.375 9.375s-9.375-4.206-9.375-9.375c0-3.314-2.687-6-6-6-3.314 0-6 2.686-6 6 0 11.786 9.589 21.375 21.375 21.375s21.375-9.589 21.375-21.375c0-3.313-2.686-6-6-6z"/><path d="m474.417 219.915c0-17.497-9.106-33.287-23.741-42.079.076-1.216.114-2.432.114-3.644 0-32.325-26.226-58.641-58.517-58.784-11.052-20.878-32.565-34.01-56.643-34.01-6.894 0-13.624 1.081-20.085 3.22-14.735-12.916-33.38-19.956-53.188-19.956-14.659 0-28.781 3.89-41.244 11.308-12.84-7.928-27.491-12.086-42.775-12.086-33.551 0-63.78 20.906-75.964 51.678-30.42 2.204-54.497 27.659-54.497 58.631 0 1.213.038 2.429.114 3.644-14.635 8.792-23.741 24.582-23.741 42.079 0 16.093 7.935 30.941 20.634 40.021-2.998 5.564-4.618 11.837-4.618 18.291 0 8.914 3.047 17.125 8.142 23.666-1.652 4.726-2.558 9.798-2.558 15.081 0 25.318 20.598 45.916 45.916 45.916 4.299 0 8.457-.605 12.406-1.717 13.185 16.183 29.724 29.525 48.546 38.968-13.743 19.341-21.838 42.962-21.838 68.442v29.32c0 5.522 4.477 10 10 10s10-4.478 10-10v-21.468h20.059v24.851c0 3.313 2.686 6 6 6 3.313 0 6-2.687 6-6v-31.087c0-19.966 8.867-37.889 22.862-50.064 2.39 4.167 6.03 10.13 10.446 16.144 11.406 15.532 22.193 23.407 32.062 23.407 9.93 0 20.716-7.608 32.975-23.259 4.828-6.164 8.833-12.272 11.415-16.44 14.092 12.18 23.029 30.166 23.029 50.212v31.087c0 3.313 2.686 6 6 6 3.313 0 6-2.687 6-6v-24.851h20.059v21.468c0 5.522 4.477 10 10 10s10-4.478 10-10v-29.32c0-25.48-8.093-49.103-21.835-68.444 18.819-9.442 35.353-22.789 48.536-38.972 3.95 1.115 8.11 1.723 12.412 1.723 25.318 0 45.917-20.598 45.917-45.916 0-5.284-.903-10.358-2.555-15.085 5.094-6.54 8.139-14.749 8.139-23.662 0-6.454-1.62-12.727-4.618-18.291 12.699-9.08 20.634-23.929 20.634-40.022zm-53.616-21.355.581 6.481c.357 3.984-2.793 5.185-3.767 5.457-.974.271-4.289.883-6.053-2.707l-2.87-5.841c-1.039-2.114-3.165-3.354-5.388-3.354-.787 0-1.585.155-2.353.482l-5.986 2.556c-3.68 1.569-5.793-1.056-6.354-1.896-.56-.842-2.166-3.806.704-6.594l4.668-4.534c2.288-2.222 2.437-5.846.34-8.249l-4.28-4.904c-2.631-3.014-.788-5.835-.16-6.628s2.952-3.232 6.488-1.368l5.755 3.038c2.819 1.489 6.313.511 7.95-2.226l3.34-5.586c2.053-3.434 5.306-2.553 6.255-2.2.948.352 3.989 1.807 3.306 5.748l-1.112 6.412c-.544 3.143 1.465 6.162 4.574 6.873l6.345 1.451c3.9.892 4.067 4.259 4.026 5.269-.042 1.011-.485 4.352-4.445 4.921l-6.442.925c-3.156.452-5.407 3.297-5.122 6.474zm-354.951 118.415c0-.804.038-1.598.11-2.383 4.034 1.435 8.372 2.223 12.893 2.223.146 0 .289-.01.435-.011 3.206 9.135 7.289 17.859 12.141 26.078-14.135-.181-25.579-11.73-25.579-25.907zm105.304 147.462h-20.182c.883-21.198 8.501-40.682 20.766-56.37 7.49 2.52 15.246 4.454 23.215 5.749-13.496 13.014-22.351 30.801-23.799 50.621zm77.155-16.75c-9.106 0-22.52-16.993-31.252-31.97.557.006 1.113.018 1.671.018h61.211c.442 0 .881-.01 1.322-.014-9.519 15.014-23.787 31.966-32.952 31.966zm99.385 16.75h-20.184c-1.449-19.82-10.303-37.608-23.799-50.622 7.969-1.295 15.726-3.228 23.217-5.749 12.265 15.688 19.882 35.173 20.766 56.371zm-67.755-68.702h-61.211c-55.212 0-102.346-35.219-120.138-84.367 11.278-6.742 18.849-19.071 18.849-33.14 0-.857-.028-1.71-.083-2.558 19.502-4.345 34.673-20.314 37.837-40.23 5.212-1.869 9.992-4.851 13.973-8.727 3.066.349 6.134.524 9.171.524 15.284 0 29.935-4.158 42.775-12.086 12.463 7.419 26.585 11.309 41.244 11.309 8.089 0 15.976-1.191 23.488-3.465 1.825.898 3.843 1.495 6.001 1.713l.814.082-.039.818c-.399 8.402 5.042 15.617 13.23 17.544 1.369.322 2.733.478 4.074.478 6.685 0 12.768-3.868 15.591-10.279l.331-.75.766.29c3.922 1.483 8.012 1.495 11.667.243 1.66.893 3.393 1.675 5.195 2.318 3.168 19.912 18.337 35.874 37.836 40.219-.056.848-.084 1.701-.084 2.558 0 14.067 7.57 26.396 18.847 33.139-17.79 49.148-64.922 84.367-120.134 84.367zm22.826-201.905-1.379-6.36c-.848-3.909 2.13-5.489 3.062-5.881.403-.169 1.232-.455 2.222-.455 1.299 0 2.874.493 4.12 2.392v.001l3.571 5.44c1.75 2.666 5.279 3.497 8.037 1.891l5.622-3.276c3.459-2.015 5.88.329 6.54 1.095.66.767 2.62 3.509.118 6.63l-4.071 5.078c-1.995 2.489-1.694 6.104.685 8.229l4.854 4.335c2.983 2.664 1.504 5.692.979 6.558-.525.864-2.526 3.577-6.27 2.16l-6.087-2.302c-2.981-1.129-6.328.274-7.613 3.193l-2.624 5.956c-1.612 3.661-4.95 3.189-5.934 2.958-.985-.231-4.182-1.298-3.993-5.295l.309-6.5c.151-3.186-2.216-5.933-5.39-6.254l-6.475-.654c-3.98-.402-4.564-3.722-4.647-4.729-.083-1.009-.058-4.379 3.802-5.433l6.278-1.716c3.079-.842 4.96-3.943 4.284-7.061zm104.465 149.052c4.852-8.218 8.928-16.945 12.134-26.079.151.002.299.012.451.012 4.517 0 8.852-.787 12.884-2.22.072.785.119 1.577.119 2.38-.001 14.18-11.45 25.73-25.588 25.907zm27.988-95.565c-3.325 1.207-5.765 4.08-6.417 7.556-.652 3.477.58 7.039 3.241 9.368 4.041 3.538 6.358 8.636 6.358 13.987 0 10.249-8.338 18.587-18.586 18.587-10.249 0-18.587-8.338-18.587-18.587 0-2.576.52-5.074 1.546-7.424 1.378-3.157 1.035-6.802-.91-9.645-1.868-2.733-4.961-4.357-8.254-4.357-.134 0-.269.003-.404.008-.399.017-.798.032-1.201.032-16.027 0-29.075-13.005-29.141-29.018.003-.097.004-.194.005-.293.032-5.066-3.731-9.356-8.758-9.985-1.462-.183-2.865-.538-4.193-1.039-.066-4.638-2.035-9.168-5.778-12.511l-.611-.545.512-.64c5.262-6.564 5.101-15.597-.391-21.969-5.491-6.373-14.403-7.865-21.672-3.63l-.708.412-.449-.684c-4.616-7.034-13.258-9.671-21.015-6.419-7.757 3.254-11.931 11.269-10.148 19.49l.174.801-.79.216c-6.704 1.831-11.394 7.206-12.433 13.745-4.611 1.104-9.383 1.684-14.254 1.684-12.821 0-25.097-3.954-35.5-11.436-3.533-2.541-8.305-2.504-11.799.09-10.683 7.931-23.38 12.123-36.72 12.123-3.715 0-7.505-.352-11.265-1.046-3.767-.69-7.603.823-9.873 3.911-3.016 4.103-7.624 6.816-12.645 7.444-2.481.311-4.651 1.515-6.212 3.262 1.062-4.369.365-9.102-2.241-13.216l-.439-.692.667-.475c6.857-4.873 9.174-13.606 5.635-21.238s-11.705-11.509-19.852-9.419l-.794.203-.245-.782c-2.516-8.028-10.112-12.926-18.458-11.921-8.352 1.007-14.558 7.574-15.093 15.97l-.052.817-.819-.009c-.064 0-.127-.001-.191-.001-8.326 0-15.241 5.681-16.851 13.872-1.622 8.254 2.705 16.187 10.524 19.289l.761.302-.261.776c-2.683 7.973.576 16.4 7.925 20.494 2.693 1.5 5.592 2.228 8.448 2.228 4.938-.001 9.748-2.173 13.148-6.276l.523-.631.658.489c6.754 5.016 15.776 4.519 21.94-1.205 1-.929 1.854-1.949 2.587-3.026-.043.387-.072.777-.069 1.175.001.098.002.193.005.293-.066 16.013-13.114 29.018-29.141 29.018-.402 0-.802-.016-1.201-.032-3.432-.118-6.714 1.505-8.658 4.349-1.944 2.845-2.288 6.489-.909 9.646 1.026 2.348 1.546 4.846 1.546 7.423 0 10.249-8.338 18.587-18.586 18.587-10.249 0-18.586-8.338-18.586-18.587 0-5.352 2.317-10.449 6.358-13.986 2.661-2.33 3.894-5.893 3.242-9.368-.652-3.477-3.092-6.35-6.417-7.557-11.484-4.167-19.199-15.18-19.199-27.401 0-11.958 7.173-22.572 18.275-27.039 4.449-1.791 7.001-6.488 6.081-11.196-.484-2.475-.729-4.994-.729-7.487 0-21.387 17.398-38.785 38.784-38.785.674 0 1.424.024 2.292.074 4.637.239 8.873-2.714 10.177-7.189 7.611-26.147 31.959-44.409 59.208-44.409 13.34 0 26.037 4.192 36.72 12.123 3.495 2.596 8.266 2.631 11.799.09 10.402-7.48 22.678-11.435 35.5-11.435 16.612 0 32.141 6.582 43.724 18.534 2.94 3.032 7.47 3.893 11.316 2.146 5.761-2.617 11.895-3.943 18.233-3.943 18.287 0 34.424 11.006 41.111 28.038 1.667 4.243 5.993 6.83 10.514 6.272 1.674-.203 3.228-.302 4.751-.302 11.508 0 21.855 5.043 28.964 13.029-7.007-1.335-14.055 1.743-17.852 8.091l-.42.703-.725-.382c-7.438-3.927-16.28-2.063-21.501 4.533-5.22 6.596-5.002 15.629.53 21.966l.539.617-.588.571c-6.034 5.862-6.993 14.847-2.332 21.85 4.661 7.004 13.318 9.584 21.055 6.284l.753-.322.362.736c2.978 6.061 8.88 9.633 15.284 9.633 1.573 0 3.177-.216 4.775-.663 8.1-2.269 13.233-9.705 12.483-18.083l-.073-.815.811-.116c4.064-.583 7.58-2.485 10.162-5.251 6.365 5.425 10.183 13.413 10.183 22.127.006 12.223-7.709 23.236-19.193 27.403zm-312.736-38.801 3.483 5.498c2.141 3.379-.111 5.888-.853 6.576-.741.688-3.409 2.75-6.62.363l-5.225-3.88c-2.562-1.9-6.162-1.468-8.197.989l-4.153 5.011c-2.553 3.079-5.634 1.714-6.518 1.222s-3.667-2.393-2.391-6.185l2.075-6.168c1.017-3.023-.509-6.313-3.474-7.49l-6.049-2.4c-3.718-1.476-3.371-4.828-3.176-5.82.194-.986 1.13-4.187 5.067-4.187.025 0 .051 0 .076.001l6.508.067h.063c3.161 0 5.786-2.457 5.987-5.619l.414-6.494c.254-3.992 3.55-4.698 4.555-4.819 1.004-.121 4.373-.221 5.57 3.598l1.947 6.21c.954 3.044 4.123 4.808 7.212 4.018l6.305-1.613c3.869-.988 5.564 1.925 5.99 2.843.426.917 1.561 4.091-1.7 6.408l-5.304 3.77c-2.6 1.848-3.299 5.407-1.592 8.101z"/><path d="m276.1 123.027-.785-.234.191-.796c1.97-8.179-2.018-16.286-9.699-19.717-7.681-3.433-16.381-.99-21.157 5.935l-.465.674-.698-.428c-7.167-4.399-16.111-3.113-21.749 3.132-5.636 6.245-6.004 15.273-.894 21.955l.498.651-.624.531c-6.4 5.459-7.939 14.362-3.742 21.652 4.197 7.289 12.671 10.431 20.604 7.634l.773-.273.314.758c2.729 6.604 8.906 10.639 15.748 10.638 1.213 0 2.448-.127 3.688-.389 8.23-1.739 13.834-8.827 13.627-17.237l-.02-.818.816-.064c8.387-.653 14.866-6.953 15.754-15.318.892-8.365-4.118-15.885-12.18-18.286zm.25 17.017c-.107 1.006-.766 4.311-4.754 4.623l-6.488.506c-3.18.247-5.61 2.94-5.532 6.129l.16 6.506c.098 3.999-3.123 4.992-4.113 5.202-.99.206-4.338.603-5.865-3.093l-2.486-6.015c-.952-2.303-3.181-3.709-5.545-3.709-.662 0-1.335.11-1.993.342l-6.139 2.162c-3.772 1.331-5.713-1.427-6.218-2.304-.505-.876-1.915-3.938 1.129-6.533l4.952-4.223c2.427-2.069 2.811-5.677.873-8.21l-3.954-5.17c-2.43-3.178-.408-5.875.27-6.626.678-.75 3.154-3.036 6.563-.945l5.547 3.404c2.72 1.672 6.268.919 8.078-1.707l3.694-5.357c2.272-3.291 5.462-2.202 6.384-1.791.924.413 3.864 2.061 2.927 5.95l-1.524 6.327c-.747 3.102 1.063 6.245 4.12 7.155l6.238 1.858c3.833 1.144 3.783 4.513 3.676 5.519z"/></g><g><path d="m71.007 2.531 8.494 23.883c.364 1.023 1.084 1.833 1.992 2.242l21.219 9.56c2.998 1.351 2.998 6.127 0 7.478l-21.219 9.56c-.909.409-1.629 1.22-1.992 2.242l-8.494 23.884c-1.2 3.374-5.444 3.374-6.644 0l-8.494-23.883c-.364-1.022-1.084-1.833-1.992-2.242l-21.22-9.56c-2.998-1.351-2.998-6.127 0-7.478l21.22-9.56c.909-.409 1.628-1.22 1.992-2.242l8.494-23.883c1.2-3.376 5.444-3.376 6.644-.001z" fill="#f0c4db"/><ellipse cx="391.242" cy="21.842" fill="#e58bbd" rx="18.547" ry="18.547" transform="matrix(.19 -.982 .982 .19 295.56 401.832)"/><circle cx="17.642" cy="121.541" fill="#e58bbd" r="7.854"/><path d="m472.931 54.666 6.301 17.716c.27.758.804 1.359 1.478 1.663l15.74 7.092c2.224 1.002 2.224 4.545 0 5.547l-15.74 7.092c-.674.304-1.208.905-1.478 1.663l-6.301 17.716c-.89 2.503-4.038 2.503-4.928 0l-6.301-17.716c-.27-.759-.804-1.36-1.478-1.663l-15.74-7.092c-2.224-1.002-2.224-4.545 0-5.547l15.74-7.092c.674-.304 1.208-.905 1.478-1.663l6.301-17.716c.89-2.503 4.038-2.503 4.928 0z" fill="#f0c4db"/></g></g></svg>