<svg id="Capa_1" enable-background="new 0 0 512 512" height="512" viewBox="0 0 512 512" width="512" xmlns="http://www.w3.org/2000/svg"><g><g><path d="m257.186 51.16c-90.856 0-175.676 100.299-192.346 135.517-70.835 149.654 79.876 237.891 79.876 237.891l222.958.655s153.848-90.709 80.57-241.018c-17.712-33.729-99.694-133.045-191.058-133.045z" fill="#f7e266"/><path d="m371.509 501.949v-30.909c0-63.143-51.188-114.331-114.332-114.331-63.144 0-114.332 51.188-114.332 114.331v30.909h66.427l46.958-6.175 49.603 6.175z" fill="#f7e266"/><path d="m301.313 501.881c-6.728-13.456-27.371-54.393-42.848-86.464-15.391 28.412-30.049 57.234-43.678 86.532z" fill="#b2e7f1"/><path d="m220.441 482.865h-77.595v19.084h66.146c4.183-6.168 8.252-12.422 11.449-19.084z" fill="#ebaa66"/><path d="m257.178 356.708c-4.067 0-8.083.216-12.04.631 45.902 5.557 81.587 47.613 81.587 98.678v3.882c0 12.684-10.282 22.966-22.966 22.966h-9.649c4.267 6.239 8.342 12.604 12.243 19.084h65.156v-30.909c0-63.144-51.188-114.332-114.331-114.332z" fill="#ebaa66"/><path d="m296.059 482.865h-75.893c-3.779 6.396-7.585 12.776-11.504 19.084h99.718c-4.064-6.389-8.141-12.771-12.321-19.084z" fill="#a7adf1"/><g fill="#d49c8d"><ellipse cx="423.284" cy="311.215" rx="37.862" ry="37.863" transform="matrix(.998 -.071 .071 .998 -20.997 30.789)"/><ellipse cx="91.071" cy="311.215" rx="37.862" ry="37.863" transform="matrix(.924 -.383 .383 .924 -112.164 58.541)"/><path d="m289.442 404.785h-64.528c-80.185 0-145.187-65.003-145.187-145.188 0-80.185 63.693-100.753 143.878-100.753h64.528c80.185 0 146.497 20.568 146.497 100.753-.001 80.185-65.004 145.188-145.188 145.188z"/></g><path d="m388.528 239.998v2.182c0 65.007-52.698 117.705-117.705 117.705h-73.392c-62.209 0-113.14-48.263-117.409-109.387-.189 3.033-.297 6.088-.297 9.168 0 80.185 65.003 145.188 145.188 145.188h64.528c80.185 0 145.188-65.003 145.188-145.188 0-6.672-.457-13.236-1.33-19.668z" fill="#c7758d"/><path d="m292.274 152.011h-71.469c-88.81 0-143.474 22.874-143.474 115.44 6.508 50.663 31.371 76.237 36.721 20.189l-.078-15.552c0-12.641 9.832-22.889 21.961-22.889h243.503c11.587 0 21.611 9.574 21.611 24.705v13.736c8.536 66.569 35.556 13.718 35.965-29.361.808-85.026-55.93-106.268-144.74-106.268z" fill="#a183e2"/></g><g><g fill="#440b29"><path d="m457.277 179.802c-.043-.09-.089-.18-.135-.269-10.212-19.446-36.564-53.448-70.293-82.153-30.165-25.67-77.145-56.271-129.662-56.271-52.543 0-99.971 30.968-130.506 56.948-35.675 30.352-61.773 64.986-70.924 84.32-24.28 51.297-23.424 95.652-12.534 131.31.564 11.04 4.893 21.097 11.712 28.933 4.652 9.158 9.814 17.483 15.075 24.924 27.759 39.261 62.953 61.642 68.824 65.214-3.914 12.065-6.037 24.928-6.037 38.281v30.909c0 5.551 4.5 10.051 10.051 10.051s10.051-4.5 10.051-10.051v-30.908c0-24.273 8.338-46.633 22.298-64.373 15.616 5.293 32.337 8.168 49.718 8.168h23.223l-45.584 87.7c-1.536 2.955-.386 6.597 2.57 8.133.889.461 1.839.68 2.776.68 2.178 0 4.282-1.184 5.356-3.25l43.925-84.507 43.924 84.507c1.075 2.066 3.178 3.25 5.356 3.25.937 0 1.887-.219 2.777-.68 2.954-1.536 4.106-5.177 2.57-8.133l-45.585-87.7h23.222c17.378 0 34.097-2.873 49.71-8.165 13.962 17.739 22.307 40.095 22.307 64.37v30.909c0 5.551 4.5 10.051 10.051 10.051 5.55 0 10.051-4.5 10.051-10.051v-30.909c0-13.53-2.176-26.56-6.191-38.763 9.392-5.985 42.131-28.398 68.277-65.396 4.652-6.583 9.222-13.845 13.437-21.74 8.714-8.681 14.115-20.684 14.115-33.926 0-.112-.006-.223-.007-.335 10.568-35.875 10.892-80.187-13.918-131.078zm-115.336 27.419c-3.33 0-6.03 2.7-6.03 6.03v25.896h-47.811v-45.755c0-3.33-2.7-6.03-6.03-6.03s-6.03 2.7-6.03 6.03v45.755h-37.271v-45.755c0-3.33-2.7-6.03-6.03-6.03s-6.03 2.7-6.03 6.03v45.755h-47.814v-25.896c0-3.33-2.7-6.03-6.03-6.03s-6.03 2.7-6.03 6.03v25.896h-30.897c-17.651 0-32.012 14.777-32.012 32.991l.076 15.041c-1.08 10.96-2.798 16.881-4.067 19.937-3.667-5.113-9.593-17.914-12.549-40.307.296-71.456 50.006-104.747 156.371-104.747h26.953c66.345 0 110.356 11.873 134.551 36.297 14.845 14.988 21.945 34.556 21.705 59.825-.192 20.309-6.689 40.211-11.624 48.144-1.254-3.243-2.889-9.085-4.239-19.338v-13.086c0-19.815-13.612-34.756-31.662-34.756h-31.467v-25.896c-.003-3.331-2.703-6.031-6.033-6.031zm-278.682 103.994c0-7.842 3.265-14.934 8.504-19.994 1.423 5.284 3.116 10.374 5.082 15.027 3.65 11.56 8.614 22.541 14.724 32.763-.167.003-.331.016-.498.016-15.335-.001-27.812-12.476-27.812-27.812zm373.683-3.206c.756-1.747 1.493-3.586 2.204-5.545 1.301-3.585 2.455-7.356 3.458-11.228 5.231 5.06 8.492 12.144 8.492 19.979 0 15.336-12.476 27.812-27.812 27.812-.172 0-.34-.015-.511-.019 5.8-9.702 10.578-20.083 14.169-30.999zm-363.018-117.032c6.894-14.565 30.102-47.254 65.782-77.61 27.965-23.794 71.048-52.156 117.48-52.156 46.404 0 89.04 27.993 116.635 51.478 33.746 28.719 57.588 61.153 65.455 76.058 14.807 30.425 20.834 60.126 18.135 88.887-3.218-3.269-6.897-6.082-10.936-8.327.355-3.696.557-7.361.591-10.932.289-30.479-8.972-55.431-27.525-74.161-28.163-28.432-76.847-42.253-148.831-42.253h-26.953c-52.871 0-92.604 7.953-121.471 24.315-36.497 20.685-55.003 54.726-55.003 101.176 0 .428.028.856.082 1.281.035.271.075.545.111.817-4.083 2.32-7.792 5.222-11.017 8.593-2.501-28.128 3.305-57.25 17.465-87.166zm72.777 222.965c-9.007-5.887-35.926-24.895-58.015-54.874.791.039 1.586.06 2.385.06 4.6 0 9.045-.667 13.258-1.884 14.009 17.267 31.638 31.483 51.729 41.467-3.466 4.833-6.6 9.918-9.357 15.231zm78.212-19.208c-49.738 0-93.271-27.023-116.731-67.148 12.782-6.701 15.055-30.388 15.876-38.991.032-.335.047-.67.046-1.006l-.078-15.501c0-7.08 5.343-12.839 11.91-12.839h243.503c6.807 0 11.561 6.027 11.561 14.655v15.576c0 1.226.22 2.401.621 3.488 1.494 10.505 4.88 27.995 14.865 34.1-23.387 40.413-67.089 67.667-117.045 67.667h-64.528zm142.479 18.715c-2.695-5.135-5.737-10.06-9.097-14.743 20.095-9.988 37.735-24.2 51.744-41.472 4.209 1.22 8.647 1.894 13.246 1.894.392 0 .779-.02 1.169-.029-21.185 28.532-46.631 47.316-57.062 54.35z"/><ellipse cx="170.558" cy="319.545" rx="16.208" ry="16.208" transform="matrix(.383 -.924 .924 .383 -189.933 354.835)"/><ellipse cx="343.797" cy="319.545" rx="16.208" ry="16.208" transform="matrix(.383 -.924 .924 .383 -82.99 514.887)"/><path d="m186.43 266.202c-.734-.375-7.414-3.66-15.872-3.66s-15.138 3.285-15.872 3.66c-2.956 1.509-4.123 5.114-2.629 8.077 1.493 2.963 5.113 4.156 8.085 2.678.048-.023 4.799-2.355 10.416-2.355s10.369 2.331 10.389 2.341c.878.448 1.814.66 2.736.66 2.194 0 4.31-1.201 5.376-3.29 1.515-2.965.337-6.598-2.629-8.111z"/><path d="m359.669 266.202c-.733-.375-7.413-3.66-15.872-3.66-8.457 0-15.138 3.285-15.872 3.659-2.955 1.509-4.123 5.115-2.629 8.078 1.492 2.963 5.115 4.156 8.085 2.678.048-.023 4.8-2.355 10.417-2.355s10.369 2.331 10.389 2.341c.878.448 1.814.66 2.736.66 2.194 0 4.31-1.201 5.376-3.29 1.514-2.965.337-6.598-2.63-8.111z"/><path d="m273.386 313.514c-3.33 0-6.03 2.7-6.03 6.03 0 5.612-4.566 10.178-10.178 10.178s-10.178-4.566-10.178-10.178c0-3.33-2.7-6.03-6.03-6.03s-6.03 2.7-6.03 6.03c0 12.263 9.976 22.239 22.238 22.239s22.238-9.976 22.238-22.239c0-3.33-2.7-6.03-6.03-6.03z"/><path d="m309.513 428.917c-3.33 0-6.03 2.7-6.03 6.03v10.45c0 3.33 2.7 6.03 6.03 6.03s6.03-2.7 6.03-6.03v-10.45c0-3.33-2.7-6.03-6.03-6.03z"/><path d="m340.315 444.463c-3.33 0-6.03 2.7-6.03 6.03v10.449c0 3.33 2.7 6.03 6.03 6.03s6.03-2.7 6.03-6.03v-10.449c.001-3.33-2.699-6.03-6.03-6.03z"/><path d="m191.536 438.104c-3.33 0-6.03 2.7-6.03 6.03v10.449c0 3.33 2.7 6.03 6.03 6.03s6.03-2.7 6.03-6.03v-10.449c.001-3.329-2.699-6.03-6.03-6.03z"/></g><path d="m186.889 124.09c-3.126 0-6.206-1.453-8.169-4.185-3.24-4.507-2.213-10.788 2.294-14.028 9.598-6.899 20.372-12.318 28.239-16.273l1.457-.734c4.954-2.499 11-.507 13.499 4.45s.507 11.001-4.45 13.5l-1.475.742c-7.27 3.656-17.225 8.663-25.537 14.638-1.775 1.275-3.826 1.89-5.858 1.89z" fill="#fff"/><path d="m244.276 99.132c-4.993 0-9.321-3.717-9.959-8.799-.692-5.507 3.212-10.533 8.72-11.224 3.259-.409 6.198-.587 8.954-.572 5.551.05 10.01 4.59 9.961 10.14s-4.554 10.033-10.14 9.961c-1.854-.017-3.912.119-6.27.415-.426.053-.848.079-1.266.079z" fill="#fff"/></g><g><path d="m477.281 35.696 8.537 24.004c.366 1.028 1.089 1.842 2.002 2.254l21.327 9.609c3.013 1.357 3.013 6.158 0 7.516l-21.327 9.609c-.913.411-1.637 1.226-2.002 2.254l-8.537 24.004c-1.206 3.391-5.471 3.391-6.677 0l-8.537-24.004c-.366-1.028-1.089-1.842-2.002-2.254l-21.327-9.609c-3.013-1.357-3.013-6.158 0-7.516l21.327-9.609c.913-.411 1.637-1.226 2.002-2.254l8.537-24.004c1.206-3.391 5.471-3.391 6.677 0z" fill="#fbf2a8"/><ellipse cx="19.234" cy="96.914" fill="#f7e266" rx="18.641" ry="18.641" transform="matrix(.099 -.995 .995 .099 -79.104 106.505)"/><ellipse cx="388.369" cy="13.48" fill="#f7e266" rx="7.894" ry="7.894" transform="matrix(.16 -.987 .987 .16 312.853 394.676)"/><path d="m99.625 1.887 6.332 17.806c.271.762.808 1.366 1.485 1.672l15.82 7.128c2.235 1.007 2.235 4.568 0 5.575l-15.82 7.127c-.677.305-1.214.909-1.485 1.672l-6.332 17.806c-.895 2.516-4.059 2.516-4.953 0l-6.332-17.806c-.271-.763-.808-1.367-1.485-1.672l-15.82-7.127c-2.235-1.007-2.235-4.568 0-5.575l15.82-7.128c.677-.305 1.214-.909 1.485-1.672l6.332-17.806c.894-2.516 4.058-2.516 4.953 0z" fill="#fbf2a8"/></g></g></svg>