<svg id="Capa_1" enable-background="new 0 0 512 512" height="512" viewBox="0 0 512 512" width="512" xmlns="http://www.w3.org/2000/svg"><g><g><path d="m342.201 500.495v-32.253c0-65.887-53.413-119.3-119.3-119.3-65.887 0-119.3 53.413-119.3 119.3v32.253z" fill="#f7e266"/><path d="m302.536 500.495v-30.474c0-43.981-35.654-79.635-79.635-79.635-43.981 0-79.635 35.654-79.635 79.635v30.474z" fill="#fbf2a8"/><path d="m231.257 390.825c23.034 10.36 39.236 34.948 39.236 63.641v6.904c0 10.747-8.712 19.459-19.459 19.459h-107.768v19.666h159.27v-30.474c0-41.158-31.226-75.018-71.279-79.196z" fill="#edb6a8"/><ellipse cx="49.576" cy="301.472" fill="#f1c7b6" rx="39.508" ry="39.508" transform="matrix(.707 -.707 .707 .707 -198.653 123.355)"/><path d="m256.567 399.108h-67.332c-83.669 0-151.497-67.827-151.497-151.497 0-83.669 67.827-151.497 151.497-151.497h67.332c83.669 0 151.497 67.827 151.497 151.497 0 83.67-67.828 151.497-151.497 151.497z" fill="#f1c7b6"/><path d="m256.567 96.024h-19.427c67.832 0 122.82 54.988 122.82 122.82v10.43c0 67.832-54.988 122.82-122.82 122.82h-76.582c-64.913 0-118.057-50.36-122.511-114.141-.197 3.164-.309 6.352-.309 9.566v.001c0 83.669 67.827 151.497 151.497 151.497h67.332c83.669 0 151.497-67.828 151.497-151.497v-.001c0-83.667-67.828-151.495-151.497-151.495z" fill="#e795b6"/><path d="m385.751 300.655c17.163-10.624 31.873-26.97 33.745-54.944v-16.863c0-93.39-75.707-169.097-169.097-169.097h-55.523c-93.39 0-169.097 75.707-169.097 169.097v16.863c1.192 29.608 18.9 45.409 31.431 55.761l34.299-49.95 16.312 11.44c14.509 10.176 33.931 9.813 48.05-.898l20.641-15.657 21.465 15.78c14.611 10.741 34.559 10.541 48.952-.49l23.61-18.096 21.973 16.539c15.723 11.835 37.655 10.749 52.133-2.58l8.279-7.622z" fill="#f7e266"/><path d="m400.939 156.342c-16.441-33.669-69.322-120.34-178.038-120.34s-161.597 86.671-178.038 120.34c-16.626 1.923-29.536 16.042-29.536 33.184 0 18.454 14.96 33.415 33.415 33.415h348.319c18.454 0 33.415-14.961 33.415-33.415-.001-17.142-12.911-31.261-29.537-33.184z" fill="#f5dbb6"/><path d="m378.464 119.119h-310.826l-22.775 40.635h355.549z" fill="#b2e7f1"/><path d="m400.939 156.342c-16.441-33.669-69.322-120.34-178.038-120.34-12.904 0-25.012 1.233-36.375 3.442 84.372 16.398 127.174 87.225 141.664 116.898 16.626 1.924 29.536 16.042 29.536 33.183 0 18.454-14.96 33.415-33.415 33.415h72.75c18.454 0 33.415-14.961 33.415-33.415-.001-17.141-12.911-31.26-29.537-33.183z" fill="#eaa5b6"/><path d="m400.913 156.289c-4.405-9.014-11.416-21.809-21.399-35.719h-72.755c10.004 13.935 17.027 26.755 21.43 35.772 4.453.515 8.636 1.912 12.379 4.001h57.302c.942-1.403 1.961-2.752 3.043-4.054z" fill="#a7adf1"/><path d="m430.862 459.517c3.458-6.534 6.892-13.206 10.285-20.006 51.928-104.059 75.018-197.9 51.572-209.6-23.445-11.7-84.547 63.172-136.475 167.231-3.393 6.8-6.66 13.554-9.802 20.247 19.687-4.703 33.611 2.623 42.21 21.064 16.184-3.695 30.709 1.023 42.21 21.064z" fill="#b2e7f1"/></g><g><g fill="#440b29"><circle cx="132.517" cy="310.165" r="16.912"/><circle cx="313.285" cy="310.165" r="16.912"/><path d="m222.901 333.117c12.657 0 22.953-10.297 22.953-22.953 0-3.336-2.705-6.041-6.041-6.041s-6.041 2.705-6.041 6.041c0 5.995-4.877 10.871-10.871 10.871-5.995 0-10.871-4.877-10.871-10.871 0-3.336-2.705-6.041-6.041-6.041s-6.041 2.705-6.041 6.041c0 12.656 10.296 22.953 22.953 22.953z"/><path d="m250.271 428.203c-5.567 0-10.08 4.513-10.08 10.08 0 5.568 4.513 10.081 10.08 10.081s10.08-4.513 10.08-10.081c.001-5.567-4.513-10.08-10.08-10.08z"/><path d="m250.271 462.639c-5.567 0-10.08 4.513-10.08 10.08s4.513 10.08 10.08 10.08 10.08-4.513 10.08-10.08c.001-5.567-4.513-10.08-10.08-10.08z"/><path d="m505.137 227.575 4.311-8.64c2.483-4.975.462-11.022-4.514-13.505-4.977-2.481-11.022-.462-13.504 4.514l-4.311 8.639c-15.123.096-34.29 14.38-58.148 43.22 1.201-4.875 1.986-9.975 2.342-15.301.018-.263.026-.527.026-.791v-16.863c0-4.066-.142-8.098-.411-12.097 6.007-7.458 9.613-16.926 9.613-27.225 0-20.161-13.774-37.389-32.849-42.165-9.001-17.454-26.572-46.319-54.45-71.311-37.094-33.255-80.948-50.116-130.343-50.116s-93.248 16.861-130.343 50.116c-27.878 24.993-45.45 53.857-54.45 71.311-19.076 4.777-32.849 22.005-32.849 42.165 0 10.022 3.417 19.255 9.135 26.617-.294 4.199-.46 8.433-.46 12.705v16.863c0 .159.003.318.01.477.267 6.627 1.269 12.677 2.789 18.203-10.25 9.087-16.731 22.336-16.731 37.081 0 27.337 22.239 49.576 49.576 49.576 4.856 0 9.541-.724 13.978-2.033 14.711 18.2 33.288 33.148 54.468 43.594-15.396 21.286-24.489 47.414-24.489 75.633v32.253c0 5.56 4.508 10.068 10.068 10.068s10.068-4.508 10.068-10.068v-32.253c0-25.533 8.807-49.048 23.542-67.666 8.823 3.009 17.986 5.275 27.416 6.722-16.84 15.653-27.402 37.972-27.402 62.723v34.195c0 3.336 2.704 6.041 6.041 6.041 3.336 0 6.041-2.705 6.041-6.041v-34.195c0-25.378 12.923-47.78 32.525-61.013 2.454.112 4.922.168 7.403.168h27.362v95.04c0 3.336 2.704 6.041 6.041 6.041s6.041-2.705 6.041-6.041v-95.04h27.889c2.48 0 4.947-.057 7.4-.168 19.603 13.232 32.529 35.633 32.529 61.012v34.195c0 3.336 2.705 6.041 6.041 6.041s6.041-2.705 6.041-6.041v-34.195c0-24.748-10.555-47.071-27.39-62.726 9.423-1.447 18.579-3.712 27.396-6.718 14.737 18.619 23.55 42.131 23.55 67.665v32.253c0 5.56 4.508 10.068 10.068 10.068 3.232 0 6.101-1.529 7.943-3.897.86 1.023 1.935 1.893 3.207 2.527 1.444.72 2.977 1.061 4.488 1.061 3.696 0 7.254-2.043 9.017-5.575l28.538-57.188c8.487-.918 17.878 1.6 26.736 17.036 1.797 3.132 5.13 5.057 8.732 5.057.057 0 .116 0 .173-.001 3.667-.063 7.01-2.116 8.726-5.358 3.54-6.688 7.037-13.491 10.395-20.22 25.437-50.974 44.906-101.234 54.819-141.524 9.298-37.794 9.377-62.49.16-74.905zm-450.076 56.101c-9.222-9.219-16.669-20.678-17.435-38.213v-13.9c3.55.94 7.274 1.446 11.116 1.446h216.508c-.666.333-1.31.724-1.917 1.19l-23.61 18.096c-10.147 7.777-24.429 7.921-34.729.348l-21.465-15.78c-4.227-3.108-9.995-3.064-14.175.106l-20.641 15.657c-10.056 7.629-23.755 7.885-34.089.637l-16.312-11.44c-2.589-1.815-5.797-2.517-8.908-1.959-3.111.562-5.869 2.345-7.659 4.951zm352.589-51.977v13.602c-1.152 16.011-7.172 28.462-18.735 38.442l-26.046-40.241c-1.897-2.931-4.99-4.876-8.454-5.315-.497-.063-.995-.094-1.491-.094-2.954 0-5.823 1.106-8.022 3.131l-8.279 7.621c-10.274 9.46-25.828 10.228-36.987 1.831l-21.973-16.539c-.582-.438-1.196-.81-1.83-1.127h121.228c3.651-.001 7.197-.46 10.589-1.311zm-332.335-106.539h295.171c7.536 10.395 13.422 20.29 17.812 28.553h-330.795c4.39-8.263 10.276-18.158 17.812-28.553zm147.586-79.09c66.238 0 110.614 33.84 138.202 67.008h-276.404c27.588-33.169 71.964-67.008 138.202-67.008zm-176.881 120.273c.789-.091 1.551-.283 2.281-.549h349.201c.73.265 1.492.457 2.281.549 11.758 1.361 20.625 11.327 20.625 23.182 0 12.873-10.473 23.347-23.347 23.347h-348.32c-12.873 0-23.347-10.473-23.347-23.347.001-11.855 8.867-21.821 20.626-23.182zm3.556 164.569c-16.233 0-29.44-13.207-29.44-29.44 0-6.315 2.009-12.163 5.409-16.962 3.136 5.052 6.616 9.402 10.065 13.139 3.825 11.717 8.963 22.844 15.226 33.219-.419.019-.836.044-1.26.044zm13.62-19.23c1.485-.871 2.784-2.054 3.78-3.504l27.527-40.089 6.518 4.571c18.798 13.182 43.718 12.717 62.01-1.158l13.593-10.311 14.337 10.54c18.737 13.774 44.716 13.515 63.174-.633l16.468-12.623 14.784 11.128c19.552 14.716 46.527 13.959 65.184-1.498l25.234 38.987c1.609 2.487 4 4.16 6.642 4.927-23.469 45.689-71.082 77.021-125.882 77.021h-67.332c-54.93 0-102.628-31.491-126.037-77.358zm264.588 80.923c10.262-5.061 19.911-11.178 28.807-18.212-3.156 5.999-6.278 12.087-9.356 18.254-2.918 5.847-5.811 11.81-8.63 17.766-3.133-6.241-6.759-12.192-10.821-17.808zm24.485 96.208v-20.57c0-14.263-2.327-27.991-6.611-40.833 1.032.081 2.083.02 3.123-.228 13.294-3.177 22.055.234 28.572 11.364zm133.152-191.143c-9.568 38.887-28.491 87.663-53.283 137.345-.938 1.881-1.888 3.768-2.847 5.656-9.113-9.233-19.107-12.721-28.359-13.299l19.511-39.098c1.49-2.985.277-6.612-2.708-8.103-2.984-1.487-6.614-.277-8.103 2.709l-19.449 38.974c-7.202-8.925-16.439-14.195-27.247-15.542.77-1.565 1.543-3.124 2.316-4.675 24.792-49.681 52.39-94.129 77.71-125.155 17.964-22.012 30.208-31.588 37.444-35.427l-45.127 90.429c-1.49 2.985-.277 6.612 2.708 8.103.866.432 1.786.636 2.693.636 2.218 0 4.353-1.225 5.41-3.345l45.124-90.424c1.283 8.091.995 23.629-5.793 51.216z"/><path d="m247.511 91.92c3.336 0 6.041-2.705 6.041-6.041v-10.144c0-3.336-2.705-6.041-6.041-6.041s-6.041 2.705-6.041 6.041v10.144c.001 3.336 2.705 6.041 6.041 6.041z"/><path d="m292.114 102.065c3.336 0 6.041-2.705 6.041-6.041v-10.145c0-3.336-2.705-6.041-6.041-6.041s-6.041 2.705-6.041 6.041v10.145c0 3.336 2.705 6.041 6.041 6.041z"/></g><path d="m123.655 195.568c-7.526 0-15.078-.026-22.761-.077-5.561-.037-10.038-4.575-10.001-10.136.037-5.536 4.538-10 10.067-10h.069c15.275.102 30.027.102 45.097 0h.07c5.529 0 10.029 4.463 10.067 10 .037 5.56-4.44 10.098-10 10.136-7.581.051-15.082.077-22.608.077z" fill="#fff"/><path d="m66.947 195.491h-13.62c-5.561 0-10.068-4.508-10.068-10.068s4.508-10.068 10.068-10.068h13.62c5.561 0 10.068 4.508 10.068 10.068s-4.507 10.068-10.068 10.068z" fill="#fff"/></g><g><path d="m444.03 3.984 8.552 24.046c.366 1.03 1.091 1.845 2.006 2.258l21.364 9.625c3.018 1.36 3.018 6.169 0 7.529l-21.364 9.625c-.915.412-1.64 1.228-2.006 2.257l-8.552 24.046c-1.208 3.397-5.481 3.397-6.689 0l-8.552-24.046c-.366-1.03-1.091-1.845-2.006-2.257l-21.364-9.625c-3.018-1.36-3.018-6.169 0-7.529l21.364-9.625c.915-.412 1.64-1.228 2.006-2.258l8.552-24.046c1.209-3.397 5.481-3.397 6.689 0z" fill="#b2e7f1"/><ellipse cx="492.487" cy="121.664" fill="#8bb6ef" rx="18.673" ry="18.673" transform="matrix(.099 -.995 .995 .099 322.712 599.703)"/><circle cx="354.35" cy="20.252" fill="#8bb6ef" r="7.908"/><path d="m40.219 14.234 6.344 17.837c.272.764.809 1.369 1.488 1.675l15.848 7.14c2.239 1.009 2.239 4.576 0 5.585l-15.849 7.139c-.679.306-1.216.911-1.488 1.675l-6.344 17.837c-.896 2.52-4.066 2.52-4.962 0l-6.344-17.837c-.272-.764-.809-1.369-1.488-1.675l-15.848-7.14c-2.239-1.009-2.239-4.576 0-5.585l15.848-7.14c.679-.306 1.216-.911 1.488-1.675l6.344-17.837c.897-2.519 4.067-2.519 4.963.001z" fill="#b2e7f1"/></g></g></svg>