<svg id="Capa_1" enable-background="new 0 0 512 512" height="512" viewBox="0 0 512 512" width="512" xmlns="http://www.w3.org/2000/svg"><g><g><path d="m382.051 501.837v-30.974c0-63.276-51.295-114.571-114.571-114.571-63.276 0-114.571 51.295-114.571 114.571v30.974z" fill="#b07676"/><path d="m343.958 501.837v-29.266c0-42.238-34.24-76.478-76.478-76.478-42.238 0-76.478 34.241-76.478 76.478v29.266z" fill="#84eac4"/><path d="m275.506 396.514c22.121 9.949 37.681 33.562 37.681 61.118v6.63c0 10.321-8.367 18.688-18.688 18.688h-103.497v18.887h152.956v-29.266c0-39.527-29.987-72.045-68.452-76.057z" fill="#71afc4"/><path d="m308.353 466.826c6.877-3.364 10.136-11.023 17.831-13.475 7.794-2.484 15.95-.021 23.851.298 9.478.383 18.819-2 27.59-5.38.04-.016.081-.031.121-.047 7.022-2.718 10.764-10.461 8.581-17.668-15.551-51.347-63.236-88.728-119.66-88.728-52.784 0-97.923 32.712-116.26 78.969-3.133 7.902-.42 16.901 6.417 21.953 6.023 4.451 11.908 9.135 18.261 13.234 1.926 1.242 3.882 2.424 5.852 3.578 8.027-.269 16.534-4.481 24.541-2.632 5.991 1.384 10.538 5.715 14.861 9.897h40.924c-.348-2.742 1.257-5.781 4.82-5.781 3.569 0 5.17 3.039 4.819 5.781h37.451z" fill="#e58bbd"/><g fill="#b07676"><ellipse cx="433.934" cy="310.704" rx="37.942" ry="37.942" transform="matrix(.707 -.707 .707 .707 -92.604 397.841)"/><ellipse cx="101.026" cy="310.704" rx="37.942" ry="37.942" transform="matrix(.376 -.927 .927 .376 -224.865 287.515)"/><path d="m299.812 404.469h-64.663c-80.353 0-145.491-65.139-145.491-145.491 0-80.353 65.139-145.491 145.491-145.491h64.663c80.353 0 145.491 65.139 145.491 145.491 0 80.353-65.138 145.491-145.491 145.491z"/></g><path d="m299.812 113.4h-18.657c65.143 0 117.952 52.809 117.952 117.951v10.017c0 65.143-52.809 117.952-117.952 117.952h-73.546c-62.34 0-113.377-48.364-117.655-109.616-.189 3.039-.297 6.1-.297 9.187 0 80.353 65.139 145.491 145.491 145.491h64.663c80.353 0 145.491-65.139 145.491-145.491.001-80.353-65.137-145.491-145.49-145.491z" fill="#a45775"/><ellipse cx="429.951" cy="130.384" fill="#e58bbd" rx="59.73" ry="50.805" transform="matrix(.888 -.461 .461 .888 -11.709 212.813)"/><ellipse cx="105.009" cy="130.384" fill="#e58bbd" rx="50.805" ry="59.73" transform="matrix(.461 -.888 .888 .461 -59.097 163.491)"/><path d="m298.725 110.367h-65.705c-81.648 0-147.837 66.188-147.837 147.837 5.983 44.688 46.428 23.236 51.347-26.203 0-11.151 9.039-20.19 20.19-20.19h213.723c11.151 0 20.19 9.039 20.19 20.19 7.848 58.718 48.915 63.603 55.929 26.203 15.05-80.249-66.189-147.837-147.837-147.837z" fill="#84eac4"/></g><g><g fill="#440b29"><ellipse cx="180.679" cy="319.051" rx="16.242" ry="16.242" transform="matrix(.999 -.045 .045 .999 -14.293 8.528)"/><ellipse cx="354.281" cy="319.051" rx="16.242" ry="16.242" transform="matrix(.998 -.071 .071 .998 -21.774 25.979)"/><path d="m196.61 265.548c-.736-.376-7.442-3.674-15.931-3.674-8.488 0-15.194 3.298-15.931 3.674-2.999 1.531-4.19 5.204-2.659 8.204 1.078 2.112 3.218 3.327 5.436 3.327.933 0 1.88-.215 2.768-.668.046-.024 4.743-2.341 10.386-2.341 5.615 0 10.366 2.331 10.386 2.34 2.999 1.532 6.672.341 8.203-2.658 1.532-3 .341-6.673-2.658-8.204z"/><path d="m370.212 265.547c-.737-.376-7.443-3.674-15.931-3.674-8.489 0-15.194 3.298-15.931 3.674-2.988 1.526-4.168 5.171-2.658 8.168 1.51 2.996 5.171 4.201 8.176 2.708.048-.024 4.799-2.355 10.413-2.355s10.366 2.331 10.386 2.341c.888.453 1.835.668 2.767.668 2.219-.001 4.358-1.215 5.436-3.327 1.532-2.999.341-6.671-2.658-8.203z"/><path d="m283.723 312.954c-3.367 0-6.098 2.73-6.098 6.098 0 5.594-4.551 10.144-10.145 10.144-5.593 0-10.144-4.551-10.144-10.144 0-3.367-2.73-6.098-6.098-6.098-3.367 0-6.098 2.73-6.098 6.098 0 12.318 10.021 22.34 22.339 22.34 12.319 0 22.34-10.021 22.34-22.34.001-3.368-2.729-6.098-6.096-6.098z"/><path d="m493.401 146.638c6.734-16.52 6.229-33.732-1.421-48.464s-21.438-25.046-38.825-29.042c-16.782-3.857-35.003-1.32-51.301 7.143-16.954 8.804-29.211 22.766-35.406 38.235-21.345-9.229-44.588-14.307-67.723-14.307h-65.705c-23.003 0-44.872 4.945-64.605 13.822-6.512-15.901-19.046-29.305-35.309-37.751-16.298-8.463-34.519-11-51.301-7.143-17.387 3.996-31.175 14.31-38.825 29.042s-8.155 31.944-1.421 48.464c6.499 15.947 19.055 29.391 35.353 37.854 4.409 2.289 8.96 4.138 13.583 5.549-9.915 20.648-15.475 43.768-15.475 68.163 0 .451.03.902.09 1.349.472 3.521 1.133 6.656 1.933 9.474-14.403 8.32-24.121 23.881-24.121 41.677 0 26.525 21.58 48.105 48.104 48.105 4.596 0 9.034-.671 13.245-1.884 11.784 14.514 26.121 26.872 42.325 36.384-5.597 8.59-10.204 17.976-13.639 28.063-.001.002-.002.005-.003.007l-.108.332c-1.894 6.052-.832 12.806 2.843 18.069l.723 1.036c-2.39 9.628-3.667 19.691-3.667 30.048v30.973c0 5.613 4.55 10.163 10.163 10.163s10.163-4.55 10.163-10.163v-30.973c0-4.472.305-8.873.855-13.198 6.597 3.486 14.06 5.224 21.614 4.929-.403 3.273-.637 6.597-.637 9.977v32.839c0 3.367 2.73 6.098 6.098 6.098 3.367 0 6.098-2.73 6.098-6.098v-32.839c0-4.187.377-8.285 1.083-12.272l5.352-1.424 6.191 5.649c8.034 7.331 18.292 11.12 28.649 11.12 7.085-.001 14.217-1.773 20.714-5.398l7.334-4.091 7.759 4.06c15.997 8.369 35.596 5.699 48.771-6.643l6.34-5.94 7.366 2.036c.782 4.185 1.203 8.496 1.203 12.905v32.839c0 3.367 2.73 6.098 6.098 6.098 3.367 0 6.098-2.73 6.098-6.098v-32.839c0-3.669-.263-7.276-.736-10.817 7.596.132 15.017-1.774 21.541-5.48.672 4.769 1.027 9.638 1.027 14.59v30.973c0 5.613 4.55 10.163 10.163 10.163s10.163-4.55 10.163-10.163v-30.973c0-11.023-1.442-21.714-4.141-31.901 3.242-5.558 3.768-12.409 1.298-18.427-3.467-9.183-7.93-17.857-13.264-25.928 17.13-9.674 32.254-22.497 44.581-37.682 4.212 1.211 8.65 1.882 13.247 1.882 26.525 0 48.105-21.58 48.105-48.105 0-18.882-10.944-35.239-26.815-43.106.043-.776.074-1.555.105-2.334.476-1.668.887-3.396 1.222-5.186 4.516-24.08 1.172-48.439-9.418-70.916 3.706-1.276 7.358-2.823 10.915-4.67 16.296-8.464 28.852-21.908 35.351-37.855zm-19.46-39.097c4.858 9.355 5.084 20.515.638 31.426-1.134 2.782-2.538 5.461-4.178 8.015l-15.409-7.38-15.719-51.854c3.159.11 6.284.495 9.33 1.195 11.482 2.638 20.48 9.243 25.338 18.598zm-62.72-13.226c5.047-2.621 10.315-4.461 15.622-5.528l13.239 43.672-47.62-22.809c4.798-6.055 11.139-11.378 18.759-15.335zm-75.569 72.973c-3.367 0-6.098 2.73-6.098 6.098v28.264h-37.223v-45.643c0-3.367-2.73-6.098-6.098-6.098-3.367 0-6.098 2.73-6.098 6.098v45.643h-28.524v-45.643c0-3.367-2.73-6.098-6.098-6.098s-6.098 2.73-6.098 6.098v45.643h-37.225v-17.041c0-3.368-2.73-6.098-6.098-6.098s-6.098 2.73-6.098 6.098v17.041h-33.274c-16.547 0-30.044 13.309-30.348 29.784-2.791 26.704-16.588 40.88-23.256 40.993-.016 0-.032.001-.048.001-.933 0-1.843-.477-2.701-1.339-.356-3.991-.548-8.029-.548-12.111 0-74.62 60.708-135.328 135.328-135.328h64.663c74.62 0 135.328 60.708 135.328 135.329 0 .94-.017 1.877-.036 2.813-2.308 6.403-6.16 10.251-10.505 10.139-7.364-.193-19.729-11.2-23.813-40.684-.402-16.389-13.859-29.596-30.344-29.596h-28.694v-28.264c.003-3.369-2.727-6.099-6.094-6.099zm-193.145-57.642-47.63 22.814 13.239-43.672c5.308 1.067 10.577 2.906 15.622 5.527 7.49 3.889 13.882 9.144 18.769 15.331zm-81.487-2.105c4.858-9.355 13.856-15.96 25.338-18.599 3.047-.7 6.171-1.085 9.33-1.195l-15.719 51.854-15.409 7.38c-1.64-2.554-3.045-5.233-4.179-8.015-4.446-10.909-4.22-22.07.639-31.425zm25.26 58.912c-5.132-2.665-9.743-5.976-13.714-9.784l76.333-36.563c.255.562.507 1.124.739 1.695.247.607.475 1.215.693 1.824-19.817 12.221-36.741 28.693-49.499 48.137-4.946-1.091-9.845-2.864-14.552-5.309zm14.746 172.029c-15.317 0-27.779-12.461-27.779-27.779 0-8.246 3.624-15.649 9.349-20.739 3.527 17.391 9.968 33.735 18.78 48.509-.117.001-.232.009-.35.009zm57.936 99.004-3.272-4.687c-1.528-2.188-1.978-4.972-1.204-7.445l.019-.058c3.217-9.445 7.575-18.21 12.898-26.196 12.719 6.174 26.4 10.665 40.751 13.185l-8.082 34.894-8.461 2.251c-12.264 3.26-25.384-1.538-32.649-11.944zm94.185 22.11c-11.406 6.362-25.553 4.724-35.201-4.08l-6.015-5.489 8.363-36.108c4.891.465 9.844.713 14.855.713h25.083v41.011zm26.688-.188-7.408-3.876v-40.901h27.385c3.885 0 7.737-.147 11.552-.429l9.411 34.696-6.161 5.772c-9.395 8.803-23.371 10.707-34.779 4.738zm98.157-34.481c.025.066.051.132.078.198 1.172 2.81.766 6.068-1.059 8.505l-2.83 3.777c-7.534 10.055-20.227 14.39-32.336 11.042l-9.251-2.557-8.973-33.078c14.6-2.25 28.533-6.545 41.507-12.569 5.182 7.602 9.539 15.854 12.864 24.682zm-78.18-30.621h-64.663c-62.976 0-116.043-43.24-131.071-101.591 20.671-.854 39.3-26.889 42.565-59.707.033-.335.05-.67.05-1.006 0-5.529 4.498-10.027 10.027-10.027h213.723c5.529 0 10.027 4.498 10.027 10.026 0 .45.03.9.089 1.346 5.718 42.782 27.011 58.468 43.507 58.901 2.45.07 4.824-.171 7.101-.696-14.619 58.937-67.962 102.754-131.355 102.754zm161.901-83.602c0 15.317-12.461 27.779-27.779 27.779-.117 0-.23-.014-.347-.015 8.811-14.772 15.25-31.114 18.777-48.504 5.725 5.09 9.349 12.494 9.349 20.74zm-24.941-139.597c-2.46-3.602-5.115-7.137-7.978-10.587-12.175-14.67-27.306-27.138-44.186-36.872.427-1.192.913-2.374 1.446-3.546l76.342 36.567c-3.971 3.808-8.582 7.119-13.714 9.784-3.868 2.008-7.865 3.557-11.91 4.654z"/></g><path d="m201.132 157.215c-4.553 0-8.695-3.081-9.851-7.697-1.363-5.445 1.945-10.964 7.39-12.327 1.771-.443 3.556-.835 5.304-1.163 5.515-1.034 10.828 2.596 11.863 8.113 1.036 5.516-2.596 10.828-8.113 11.863-1.353.254-2.738.558-4.117.904-.828.208-1.659.307-2.476.307z" fill="#fff"/><path d="m148.497 189.972c-2.761 0-5.512-1.118-7.518-3.321-3.778-4.15-3.477-10.578.673-14.357 6.809-6.199 14.527-13.226 23.12-18.315 4.829-2.861 11.063-1.264 13.923 3.565s1.264 11.063-3.565 13.923c-6.805 4.03-13.706 10.313-19.794 15.857-1.948 1.773-4.398 2.648-6.839 2.648z" fill="#fff"/></g><g><path d="m55.15 392.485 8.632 24.272c.37 1.039 1.101 1.863 2.025 2.279l21.565 9.716c3.047 1.373 3.047 6.227 0 7.599l-21.565 9.716c-.923.416-1.655 1.24-2.025 2.279l-8.632 24.272c-1.219 3.429-5.532 3.429-6.752 0l-8.632-24.272c-.37-1.039-1.101-1.863-2.025-2.279l-21.565-9.716c-3.047-1.373-3.047-6.227 0-7.599l21.565-9.716c.923-.416 1.655-1.24 2.025-2.279l8.632-24.272c1.22-3.429 5.533-3.429 6.752 0z" fill="#bdf4e3"/><ellipse cx="180.679" cy="31.629" fill="#84eac4" rx="18.849" ry="18.849" transform="matrix(.19 -.982 .982 .19 115.34 203.024)"/><path d="m315.385 63.258c0 4.409-3.574 7.982-7.982 7.982-4.409 0-7.982-3.574-7.982-7.982 0-4.409 3.574-7.982 7.982-7.982 4.408-.001 7.982 3.573 7.982 7.982z" fill="#84eac4"/><path d="m361.352 1.908 6.403 18.005c.274.771.817 1.382 1.502 1.69l15.997 7.207c2.26 1.018 2.26 4.619 0 5.637l-15.997 7.207c-.685.309-1.228.919-1.502 1.69l-6.403 18.005c-.905 2.544-4.104 2.544-5.009 0l-6.403-18.005c-.274-.771-.817-1.382-1.502-1.69l-15.997-7.207c-2.26-1.018-2.26-4.619 0-5.637l15.997-7.207c.685-.309 1.228-.92 1.502-1.69l6.403-18.005c.905-2.544 4.104-2.544 5.009 0z" fill="#bdf4e3"/></g></g></svg>