<svg id="Capa_1" enable-background="new 0 0 512 512" height="512" viewBox="0 0 512 512" width="512" xmlns="http://www.w3.org/2000/svg"><g><g><path d="m364.967 501.94v-30.331c0-61.962-50.23-112.192-112.192-112.192-61.962 0-112.192 50.23-112.192 112.192v30.331z" fill="#b07676"/><g fill="#f7e266"><path d="m275.583 455.412h88.216c-6.764-46.771-42.377-84.204-88.216-93.672z"/><path d="m234.02 360.983c-47.782 8.043-85.307 46.288-92.269 94.429h92.269z"/><path d="m232.38 397.309c-31.444 8.884-54.495 37.769-54.495 72.056v32.158h54.495z"/><path d="m277.771 398.764v102.759h49.895v-32.158c0-32.593-20.828-60.309-49.895-70.601z"/></g><path d="m177.885 483.445h54.567v18.494h-54.567z" fill="#ebaa66"/><path d="m260.634 398.803c21.662 9.743 36.899 32.865 36.899 59.85v6.492c0 10.106-8.193 18.3-18.3 18.3h-2.088v18.494h50.521v-28.658c0-38.705-29.366-70.549-67.032-74.478z" fill="#ebaa66"/><path d="m233.607 483.445h41.996v18.494h-41.996z" fill="#a45775"/><ellipse cx="415.774" cy="314.774" fill="#b07676" rx="37.154" ry="37.154" transform="matrix(.924 -.383 .383 .924 -88.81 183.07)"/><ellipse cx="89.777" cy="314.774" fill="#b07676" rx="37.154" ry="37.154" transform="matrix(.885 -.466 .466 .885 -136.358 78.119)"/><path d="m284.436 406.594h-63.321c-78.685 0-142.471-63.786-142.471-142.471 0-78.685 63.786-142.471 142.471-142.471h63.321c78.685 0 142.471 63.786 142.471 142.471-.001 78.684-63.787 142.471-142.471 142.471z" fill="#b07676"/><path d="m284.436 121.567h-18.27c63.79 0 115.503 51.712 115.503 115.503v9.809c0 63.791-51.712 115.503-115.503 115.503h-72.019c-61.046 0-111.023-47.36-115.212-107.34-.186 2.976-.291 5.974-.291 8.996 0 78.684 63.786 142.471 142.471 142.471h63.321c78.685 0 142.471-63.787 142.471-142.471-.001-78.685-63.787-142.471-142.471-142.471z" fill="#a45775"/><path d="m261.956 351.396c-4.803-3.699-12.905-3.723-17.69 0-11.65 9.065-36.853 11.322-50.396 10.946-13.241-.368-2.633-5.266-.376-24.075.495-4.124.249-8.139.749-12.621 1.53-13.72 12.637-24.713 26.37-26.119 16.273-1.666 30.218 9.821 32.498 25.117 2.244-15.052 15.782-26.415 31.719-25.187.259.02.108.07.108.07 13.733 1.406 24.84 12.4 26.37 26.119.5 4.482.253 8.496.749 12.621 2.257 18.808 12.865 23.707-.376 24.075-13.316.37-37.621-2.086-49.515-10.777z" fill="#a183e2"/><path d="m339.835 191.136s-107.61 39.309-138.942 34.643c-47.253-7.036-47.281-35.727-62.651-35.727-18.644 0-36.686 76.319-35.75 100.249s-21.703 14.305-28.528 0-19.535-54.723-12.822-84.204-7.177-40.698-3.585-59.138c3.442-17.67 34.973-28.115 43.063-37.477s10.633-38.007 45.09-45.841c10.355-2.354 60.231 17.777 103.004 9.782 54.378-10.164 113.123 4.63 142.791 24.241 21.78 14.396 24.132 29.21 28.554 46.226 2.401 9.239 23.159-1.246 31.611 29.51 7.648 27.83-11.072 32.45-11.276 39.12-1.63 53.361-1.208 99.747-16.568 102.203s-18.021-86.62-38.557-102.535c-26.633-20.638-45.434-21.052-45.434-21.052z" fill="#a183e2"/></g><g><g fill="#440b29"><path d="m447.64 279.998c1.371-14.745 1.859-32.752 2.371-51.615.122-4.495.246-9.071.384-13.703.381-.423.85-.921 1.238-1.332 5.805-6.155 16.609-17.611 9.739-42.612-7.01-25.507-22.449-29.402-30.743-31.493-.455-.115-.98-.248-1.472-.379-.091-.359-.182-.718-.273-1.076-4.113-16.227-8.367-33.005-31.83-48.515-31.536-20.847-93.254-36.378-150.187-25.738-26.196 4.899-56.474-1.841-76.511-6.299-14.281-3.179-21.39-4.651-26.875-3.403-30.366 6.904-40.263 28.236-46.176 40.982-1.537 3.312-3.125 6.737-4.296 8.091-1.772 2.05-7.444 5.441-12.448 8.432-13.268 7.932-29.782 17.804-32.877 33.698-1.992 10.227.146 18.456 2.213 26.415 2.416 9.302 4.699 18.089 1.437 32.414-5.801 25.479 1.097 55.998 7.517 75.277-9.969 8.662-16.287 21.422-16.287 35.634 0 13.098 5.364 24.964 14.007 33.525-2.669 4.626-4.204 9.984-4.204 15.697 0 17.381 14.141 31.523 31.522 31.523 14.339 0 26.464-9.628 30.273-22.755 11.422 11.248 24.604 20.712 39.089 27.94-14.299 20.011-22.727 44.491-22.727 70.906v30.331c0 5.556 4.504 10.06 10.06 10.06s10.06-4.504 10.06-10.06v-30.331c0-3.277.159-6.518.462-9.717h21.553c-.527 3.723-.81 7.524-.81 11.39v32.157c0 3.333 2.703 6.036 6.036 6.036s6.036-2.703 6.036-6.036v-32.157c0-10.274 2.275-20.021 6.328-28.785l38.484 64.05c1.606 2.775 5.477 3.779 8.215 2.099 1.835-1.045 2.997-3.101 2.996-5.208v-88.786h30.571v88.786c-.013 2.375 1.484 4.639 3.675 5.556 2.686 1.182 6.057.087 7.535-2.447l35.593-59.237c2.785 7.467 4.312 15.543 4.312 23.972v32.157c0 3.333 2.703 6.036 6.036 6.036s6.036-2.703 6.036-6.036v-32.157c0-3.867-.282-7.668-.81-11.39h21.549c.304 3.2.466 6.44.466 9.717v30.331c0 5.556 4.504 10.06 10.06 10.06s10.06-4.504 10.06-10.06v-30.331c0-26.417-8.431-50.896-22.733-70.908 19.616-9.787 36.845-23.672 50.547-40.534 4.112 1.177 8.446 1.821 12.931 1.821 26.034 0 47.214-21.18 47.214-47.214.002-13.759-5.927-26.144-15.346-34.779zm-380.209-131.116c1.379-7.079 14.137-14.706 23.452-20.275 7.221-4.317 13.457-8.045 17.347-12.547 3.013-3.487 5.107-8.001 7.324-12.78 5.441-11.727 11.606-25.013 32.143-29.775 2.548-.156 11.271 1.807 18.286 3.368 21.636 4.815 54.334 12.09 84.578 6.438 51.685-9.661 107.234 4.128 135.395 22.743 16.968 11.216 19.675 21.896 23.422 36.674.309 1.219.621 2.449.943 3.691 2.35 9.042 10.51 11.1 15.385 12.33 6.632 1.673 12.361 3.117 16.263 17.315 3.873 14.094-.425 18.651-4.975 23.475-2.886 3.06-6.479 6.869-6.656 12.671-.162 5.288-.303 10.509-.442 15.625-.549 20.27-1.068 39.414-2.655 53.928-.965 8.826-2.175 14.373-3.25 17.836-2.61-7.847-5.366-20.662-7.381-30.037-7.14-33.208-12.749-55.695-25.18-65.327-28.435-22.036-49.111-23.111-51.375-23.161-.074-.001-.148-.002-.222-.002-1.177 0-2.345.206-3.451.611-39.521 14.433-103.745 34.449-129.233 34.447-1.79 0-3.391-.098-4.777-.305-25.669-3.823-34.878-14.325-42.278-22.764-5.373-6.127-11.463-13.073-21.855-13.073-5.342 0-10.387 2.429-14.992 7.217-17.992 18.71-31.695 80.879-30.81 103.485.072 1.848-.056 3.089-.207 3.876-2.46-.84-6.965-3.937-9.189-8.601-6.314-13.232-18.124-51.152-12.093-77.638 4.35-19.105 1.061-31.766-1.582-41.939-1.772-6.827-3.053-11.762-1.935-17.506zm16.457 183.592c-4.321 0-8.441.875-12.194 2.456-5.527-4.964-9.011-12.16-9.011-20.156 0-5.764 1.816-11.108 4.898-15.503 1.987 2.894 4.447 5.602 7.21 7.926 2.591 8.788 5.957 17.246 10.013 25.3-.305-.008-.609-.023-.916-.023zm0 42.925c-6.287 0-11.402-5.115-11.402-11.402 0-1.743.404-3.388 1.106-4.867 5.05 1.849 10.502 2.859 16.184 2.859 1.785 0 3.546-.103 5.279-.299.154.746.235 1.517.235 2.307 0 6.287-5.115 11.402-11.402 11.402zm69.099 74.42c3.331-15.263 10.083-29.263 19.413-41.15 7.926 2.678 16.14 4.726 24.585 6.074-9.986 9.518-17.547 21.552-21.657 35.076zm74.885 33.855-30.409-50.61c-.077-.129-.163-.25-.249-.37 4.617-6.297 10.268-11.79 16.715-16.21 2.382.111 4.777.17 7.186.17h6.757zm54.715-.001v-67.02h1.848c2.397 0 4.779-.061 7.149-.171 7.725 5.289 14.32 12.106 19.347 20.016zm69.973-33.854h-22.338c-4.111-13.527-11.676-25.563-21.667-35.079 8.446-1.348 16.662-3.389 24.588-6.068 9.331 11.887 16.086 25.884 19.417 41.147zm-68.124-53.286h-63.321c-55.287 0-102.757-34.065-122.552-82.304 4.829-1.35 14.686-6.32 13.981-24.321-.345-8.817 2.676-29.996 8.952-51.878 7.544-26.3 14.701-35.91 17.237-37.8 1.413.6 3.86 3.391 6.236 6.1 8.551 9.753 21.474 24.49 54.443 29.4 31.338 4.668 123.251-27.694 141.677-34.346 4.655.722 19.027 4.042 38.018 18.759 7.557 5.856 13.741 34.619 17.834 53.652 2.579 11.997 5.015 23.328 7.889 31.854.542 1.608 1.428 4.229 2.781 7.022-19.405 49.06-67.296 83.862-123.175 83.862zm131.338-54.665c-.053 0-.104-.006-.156-.007 3.26-5.481 6.186-11.182 8.751-17.077.344-.031.69-.069 1.045-.126 8.729-1.395 13.746-8.322 16.741-16.005.457 1.969.712 4.014.712 6.121 0 14.94-12.154 27.094-27.093 27.094z"/><circle cx="167.776" cy="322.949" r="15.905"/><ellipse cx="337.774" cy="322.949" rx="15.905" ry="15.905" transform="matrix(.987 -.16 .16 .987 -47.369 58.275)"/><path d="m157.636 281.249c.045-.023 4.63-2.284 10.141-2.284 5.482 0 10.123 2.275 10.141 2.284 2.97 1.518 6.605.337 8.12-2.632s.337-6.605-2.633-8.12c-.723-.369-7.302-3.605-15.629-3.605s-14.906 3.235-15.629 3.605c-2.969 1.515-4.148 5.151-2.632 8.12 1.067 2.091 3.185 3.293 5.381 3.293.923.001 1.861-.212 2.74-.661z"/><path d="m353.403 270.498c-.723-.369-7.302-3.605-15.629-3.605s-14.907 3.235-15.629 3.605c-2.969 1.515-4.148 5.151-2.632 8.12 1.515 2.969 5.151 4.15 8.12 2.632.045-.023 4.63-2.284 10.141-2.284 5.481 0 10.122 2.275 10.141 2.284.879.449 1.816.661 2.739.661 2.196 0 4.314-1.203 5.381-3.293 1.516-2.97.337-6.605-2.632-8.12z"/><path d="m318.049 337.548c-.216-1.803-.273-3.678-.332-5.664-.066-2.179-.134-4.432-.41-6.907-1.811-16.246-14.739-29.302-30.898-31.357-.359-.091-.731-.152-1.114-.182-13.012-.998-25.101 5.177-32.155 15.267-7.197-10.38-19.689-16.552-33.141-15.184-16.556 1.695-29.91 14.923-31.754 31.455-.276 2.475-.344 4.727-.41 6.907-.06 1.986-.116 3.861-.332 5.664-.784 6.528-2.721 11.223-4.136 14.65-1.618 3.923-3.293 7.978-.787 11.837 2.46 3.788 7.031 4.227 11.124 4.34.974.027 2.014.041 3.109.041 14.458 0 38.665-2.535 51.161-12.257 2.567-1.996 7.629-1.996 10.258-.014l.149.121c.073.058.147.115.223.171 13.992 10.224 40.951 12.273 53.244 11.938 4.092-.114 8.664-.552 11.124-4.34 2.506-3.859.832-7.915-.786-11.837-1.416-3.426-3.354-8.121-4.137-14.649zm-52.216 9.22-.092-.075c-.034-.026-.068-.053-.102-.08-6.944-5.347-18.195-5.339-25.079.019-9.815 7.637-32.511 9.965-45.836 9.692 1.581-3.84 3.824-9.502 4.765-17.338.28-2.338.348-4.575.413-6.738.061-2.028.119-3.943.34-5.932 1.218-10.923 10.044-19.663 20.986-20.783 12.664-1.307 24.048 7.489 25.913 20.003.441 2.957 2.98 5.146 5.97 5.146s5.529-2.189 5.97-5.146c1.785-11.977 12.517-20.681 24.61-20.101.207.043.418.077.632.098 10.942 1.12 19.768 9.861 20.985 20.783.222 1.989.279 3.904.341 5.932.065 2.163.133 4.4.414 6.738.94 7.835 3.183 13.498 4.764 17.338-12.283.21-34.681-2.115-44.994-9.556z"/><path d="m324.889 138.043c3.333 0 6.036-2.703 6.036-6.036v-10.44c0-3.333-2.703-6.036-6.036-6.036s-6.036 2.703-6.036 6.036v10.44c0 3.333 2.703 6.036 6.036 6.036z"/><path d="m366.755 161.249c3.333 0 6.036-2.703 6.036-6.036v-10.44c0-3.333-2.703-6.036-6.036-6.036-3.334 0-6.036 2.703-6.036 6.036v10.44c0 3.334 2.702 6.036 6.036 6.036z"/></g><path d="m204.902 128.95c-3.857 0-7.618-.145-11.314-.437-5.539-.435-9.676-5.279-9.24-10.818s5.277-9.696 10.819-9.24c8.716.685 17.952.43 28.237-.781 5.509-.657 10.518 3.296 11.168 8.815.649 5.517-3.297 10.517-8.815 11.167-7.334.864-14.236 1.294-20.855 1.294z" fill="#fff"/><path d="m159.602 119.063c-1.677 0-3.377-.42-4.941-1.304-2.776-1.57-6.364-3.774-9.487-6.922-3.913-3.945-3.888-10.314.057-14.227 3.945-3.914 10.315-3.888 14.227.056 1.385 1.396 3.455 2.645 5.103 3.576 4.837 2.734 6.542 8.871 3.808 13.708-1.849 3.274-5.257 5.113-8.767 5.113z" fill="#fff"/></g><g><path d="m475.119 13.445 8.545 24.027c.366 1.029 1.09 1.844 2.004 2.256l21.347 9.618c3.016 1.359 3.016 6.164 0 7.523l-21.347 9.618c-.914.412-1.638 1.227-2.004 2.256l-8.545 24.027c-1.207 3.395-5.476 3.395-6.684 0l-8.545-24.027c-.366-1.029-1.09-1.844-2.004-2.256l-21.347-9.618c-3.016-1.359-3.016-6.164 0-7.523l21.347-9.618c.914-.412 1.638-1.227 2.004-2.256l8.545-24.027c1.208-3.395 5.477-3.395 6.684 0z" fill="#cab4ef"/><ellipse cx="386.736" cy="18.659" fill="#a183e2" rx="18.658" ry="18.659" transform="matrix(.122 -.993 .993 .122 320.964 400.217)"/><path d="m18.525 103.752c0 4.364-3.538 7.902-7.901 7.902-4.364 0-7.902-3.538-7.902-7.902s3.538-7.902 7.902-7.902 7.901 3.538 7.901 7.902z" fill="#a183e2"/><path d="m55.302 5.191 6.339 17.823c.271.763.808 1.368 1.487 1.673l15.835 7.134c2.237 1.008 2.237 4.572 0 5.58l-15.835 7.134c-.678.306-1.215.91-1.487 1.673l-6.339 17.823c-.896 2.518-4.062 2.518-4.958 0l-6.339-17.823c-.271-.763-.809-1.368-1.487-1.673l-15.835-7.134c-2.237-1.008-2.237-4.572 0-5.58l15.835-7.134c.678-.306 1.215-.91 1.487-1.673l6.339-17.823c.895-2.518 4.062-2.518 4.958 0z" fill="#cab4ef"/></g></g></svg>