<svg id="Capa_1" enable-background="new 0 0 512 512" height="512" viewBox="0 0 512 512" width="512" xmlns="http://www.w3.org/2000/svg"><g><g><path d="m359.127 501.963v-30.081c0-61.452-49.817-111.269-111.269-111.269-61.452 0-111.269 49.817-111.269 111.269v30.081z" fill="#b07676"/><path d="m322.133 501.963v-28.423c0-41.02-33.254-74.274-74.274-74.274-41.02 0-74.274 33.254-74.274 74.274v28.423z" fill="#bdf4e3"/><path d="m255.652 399.675c21.483 9.663 36.595 32.595 36.595 59.357v6.439c0 10.023-8.126 18.149-18.149 18.149h-100.514v18.342h148.548v-28.422c.001-38.387-29.123-69.968-66.48-73.865z" fill="#b1b7e3"/><path d="m184.631 439.815 7.708 10.357c10.135 13.619 29.273 13.526 39.296-.19l17.678-24.192 17.419 24.155c9.919 13.754 28.999 14.018 39.237.542l7.896-10.395v-41.588h-129.103s-.131 40.801-.131 41.311z" fill="#84eac4"/><path d="m425.897 229.324c.242-103.555-62.336-185.108-131.863-115.417-26.379-31.647-65.979-31.651-92.362-.012-69.538-69.662-132.082 11.869-131.852 115.426 1.438 39.856 5.66 82.415 27.182 116.946 24.053 38.497 67.427 63.89 112.826 65.651 29.946-.819 81.351 3.849 109.949-5.742 82.337-26.089 105.019-97.784 106.12-176.852z" fill="#e58bbd"/><path d="m323.82 92.678c29.048 14.642 48.973 61.561 48.846 115.512-.936 67.248-20.227 128.226-90.256 150.414-24.322 8.158-68.043 4.187-93.512 4.884-38.612-1.498-75.502-23.095-95.96-55.837-16.921-27.147-21.266-60.127-22.793-91.734-.224 4.42-.336 8.891-.326 13.405 1.438 39.856 5.66 82.415 27.182 116.946 24.053 38.497 67.428 63.89 112.826 65.651 29.946-.819 81.352 3.849 109.949-5.743 82.337-26.088 105.018-97.784 106.12-176.852.208-88.461-45.427-160.861-102.076-136.646z" fill="#e068bd"/><path d="m306.024 367.291h-116.331c-39.085 0-70.769-31.684-70.769-70.769 0-39.085 31.684-70.769 70.769-70.769h116.331c39.085 0 70.769 31.684 70.769 70.769 0 39.084-31.685 70.769-70.769 70.769z" fill="#b07676"/></g><g><g fill="#440b29"><path d="m418.126 137.485c-12.244-27.594-29.358-46.595-49.494-54.949-21.822-9.055-45.59-4.584-68.216 12.479l.094-40.459c.001-.255-.02-.505-.05-.752 5.231-2.32 8.885-7.55 8.885-13.641 0-8.243-6.682-14.925-14.925-14.925s-14.925 6.682-14.925 14.925c0 6.141 3.712 11.411 9.012 13.702-.024.218-.04.439-.04.664l-.092 40.019c-12.162-9.377-26.101-14.414-40.519-14.416-.003 0-.003 0-.006 0-14.255 0-28.043 4.926-40.108 14.099l.092-39.675c.001-.255-.02-.505-.05-.752 5.231-2.32 8.885-7.55 8.885-13.641 0-8.243-6.682-14.925-14.925-14.925s-14.925 6.682-14.925 14.925c0 6.141 3.712 11.411 9.012 13.702-.024.218-.04.439-.04.664l-.094 40.784c-22.748-17.307-46.668-21.884-68.618-12.773-20.132 8.354-37.243 27.354-49.483 54.946-11.725 26.429-17.883 58.193-17.808 91.858 0 .113.002.226.006.34 1.509 41.819 6.03 85.53 28.701 121.902 14.243 22.796 34.648 41.19 58.204 53.468-12.712 19.178-20.142 42.147-20.142 66.829v30.082c0 5.543 4.493 10.037 10.037 10.037 5.543 0 10.037-4.493 10.037-10.037v-30.082c0-21.831 6.958-42.06 18.757-58.612 4.361 1.575 8.796 2.945 13.287 4.11l-.049 15.57c-7.02 11.916-11.058 25.788-11.058 40.592v31.893c0 3.326 2.696 6.022 6.022 6.022s6.022-2.696 6.022-6.022v-31.893c0-8.576 1.601-16.78 4.505-24.344 6.844 8.977 16.924 14.113 27.758 14.113h.15c11.045-.048 21.284-5.418 28.091-14.733l9.16-12.535 8.987 12.461c6.74 9.349 16.933 14.789 27.961 14.926.143.002.284.003.426.003 9.848 0 19.089-4.26 25.837-11.802 2.341 6.882 3.628 14.247 3.628 21.912v31.893c0 3.326 2.696 6.022 6.022 6.022s6.022-2.696 6.022-6.022v-31.893c0-12.997-3.117-25.273-8.626-36.142.229-1.403.348-2.824.348-4.25v-16.492c1.023-.298 2.029-.609 3.012-.938 2.505-.795 4.965-1.635 7.386-2.515 11.83 16.565 18.816 36.816 18.816 58.678v30.082c0 5.543 4.494 10.037 10.037 10.037s10.037-4.493 10.037-10.037v-30.082c0-24.656-7.4-47.612-20.088-66.777 57.136-28.913 85.616-86.683 86.856-175.641.001-.039.001-.077.001-.116.074-33.668-6.083-65.433-17.812-91.866zm-187.739 303.985c-4.526 6.194-11.24 9.764-18.42 9.795h-.095c-7.133 0-13.827-3.499-18.376-9.612-1.836-2.467-2.842-5.518-2.832-8.591l.042-13.093c6.18 1.061 12.437 1.733 18.734 1.978.221.008.443.009.664.003 7.827-.213 17.385-.038 27.505.148 2.26.042 4.547.082 6.847.121-.004.006-.01.011-.014.017zm77.446-8.322c0 3.171-1.056 6.307-2.974 8.832-4.61 6.066-11.361 9.474-18.49 9.405-7.172-.089-13.858-3.708-18.343-9.927l-13.778-19.106c2.44.023 4.884.04 7.332.04 16.148 0 32.288-.603 46.254-3.015v13.771zm8.912-36.54c-.054.017-.107.034-.16.052-19.26 6.46-52.167 5.855-78.608 5.369-6.911-.128-13.566-.25-19.691-.25-2.927 0-5.735.028-8.39.097-42-1.741-81.974-25.064-104.376-60.918-20.146-32.323-24.249-72.84-25.663-111.827-.093-60.966 22.988-114.803 54.912-128.051 23.337-9.684 45.4 5.479 59.8 19.906 1.993 1.996 4.736 3.068 7.552 2.935 2.818-.126 5.453-1.432 7.259-3.599 10.818-12.973 24.479-20.117 38.468-20.117h.004c13.992.002 27.655 7.15 38.473 20.128 1.807 2.168 4.443 3.474 7.262 3.6 2.811.123 5.56-.94 7.553-2.938 14.398-14.432 36.463-29.602 59.8-19.919 31.956 13.258 55.049 67.152 54.92 128.164-1.309 93.179-32.804 146.358-99.115 167.368z"/><path d="m306.024 219.73h-116.331c-42.343 0-76.791 34.449-76.791 76.792s34.448 76.791 76.791 76.791h116.331c42.343 0 76.791-34.449 76.791-76.791 0-42.343-34.448-76.792-76.791-76.792zm0 141.539h-116.331c-35.702 0-64.747-29.046-64.747-64.747 0-35.702 29.046-64.748 64.747-64.748h116.331c35.702 0 64.747 29.046 64.747 64.748 0 35.701-29.046 64.747-64.747 64.747z"/><ellipse cx="163.559" cy="324.445" rx="15.774" ry="15.774" transform="matrix(.987 -.16 .16 .987 -49.858 30.389)"/><circle cx="332.158" cy="324.445" r="15.774"/><path d="m179.076 272.394c-.717-.366-7.25-3.579-15.517-3.579-8.268 0-14.8 3.213-15.517 3.579-2.962 1.512-4.138 5.139-2.625 8.101 1.512 2.963 5.14 4.14 8.101 2.625.045-.023 4.584-2.262 10.041-2.262 5.428 0 10.023 2.254 10.041 2.262.877.448 1.812.66 2.733.66 2.191 0 4.304-1.2 5.368-3.285 1.513-2.961.337-6.589-2.625-8.101z"/><path d="m347.675 272.394c-.717-.366-7.25-3.579-15.517-3.579s-14.8 3.213-15.518 3.579c-2.962 1.512-4.137 5.139-2.625 8.101 1.512 2.963 5.14 4.139 8.102 2.625.044-.023 4.583-2.262 10.041-2.262 5.427 0 10.023 2.254 10.042 2.263.876.447 1.811.66 2.733.66 2.191 0 4.304-1.2 5.368-3.285 1.512-2.963.337-6.59-2.626-8.102z"/><path d="m263.633 318.423c-3.326 0-6.022 2.696-6.022 6.022 0 5.377-4.374 9.752-9.752 9.752s-9.752-4.375-9.752-9.752c0-3.326-2.696-6.022-6.022-6.022s-6.022 2.696-6.022 6.022c0 12.018 9.778 21.796 21.796 21.796s21.796-9.777 21.796-21.796c0-3.326-2.697-6.022-6.022-6.022z"/><path d="m372.668 214.732c3.326 0 6.022-2.696 6.022-6.022v-10.868c0-3.326-2.696-6.022-6.022-6.022s-6.022 2.696-6.022 6.022v10.868c0 3.326 2.697 6.022 6.022 6.022z"/><path d="m344.937 166.344c3.326 0 6.022-2.696 6.022-6.022v-10.868c0-3.326-2.696-6.022-6.022-6.022s-6.022 2.696-6.022 6.022v10.868c0 3.326 2.697 6.022 6.022 6.022z"/><path d="m297.319 189.172c3.326 0 6.022-2.696 6.022-6.022v-10.869c0-3.326-2.696-6.022-6.022-6.022s-6.022 2.696-6.022 6.022v10.869c0 3.325 2.696 6.022 6.022 6.022z"/></g><path d="m119.321 215.569c-.234 0-.469-.008-.705-.025-5.53-.384-9.701-5.178-9.318-10.708.727-10.467 2.045-18.372 4.701-28.197 1.447-5.351 6.955-8.517 12.308-7.069 5.351 1.447 8.516 6.957 7.069 12.308-2.288 8.462-3.424 15.289-4.053 24.348-.367 5.294-4.775 9.343-10.002 9.343z" fill="#fff"/><path d="m134.784 159.492c-1.511 0-3.046-.343-4.489-1.066-4.956-2.483-6.96-8.514-4.476-13.47.676-1.348.946-1.835 1.404-2.646.149-.265.33-.585.582-1.041 2.682-4.852 8.79-6.609 13.64-3.927 4.851 2.682 6.609 8.788 3.927 13.64-.289.522-.495.889-.667 1.192-.307.544-.462.82-.941 1.776-1.759 3.513-5.302 5.542-8.98 5.542z" fill="#fff"/></g><g><ellipse cx="403.181" cy="22.997" fill="#e58bbd" rx="18.615" ry="18.615" transform="matrix(.083 -.997 .997 .083 347.008 422.907)"/><path d="m23.747 143.765c0 4.354-3.529 7.883-7.883 7.883s-7.883-3.53-7.883-7.883c0-4.354 3.529-7.883 7.883-7.883 4.354-.001 7.883 3.529 7.883 7.883z" fill="#e58bbd"/><g fill="#f0c4db"><path d="m478.74 58.602 6.324 17.781c.271.761.807 1.364 1.483 1.669l15.798 7.118c2.232 1.006 2.232 4.562 0 5.567l-15.798 7.118c-.677.305-1.212.908-1.483 1.669l-6.324 17.781c-.894 2.512-4.053 2.512-4.946 0l-6.324-17.781c-.271-.761-.807-1.365-1.483-1.669l-15.798-7.118c-2.232-1.006-2.232-4.562 0-5.567l15.798-7.118c.676-.305 1.212-.908 1.483-1.669l6.324-17.781c.893-2.512 4.053-2.512 4.946 0z"/><path d="m64.494 2.54 8.525 23.971c.365 1.026 1.088 1.84 1.999 2.251l21.297 9.595c3.009 1.355 3.009 6.15 0 7.505l-21.297 9.595c-.912.411-1.634 1.224-1.999 2.25l-8.525 23.971c-1.204 3.387-5.464 3.387-6.668 0l-8.525-23.971c-.365-1.026-1.088-1.84-2-2.25l-21.297-9.595c-3.009-1.356-3.009-6.15 0-7.505l21.297-9.595c.912-.411 1.634-1.224 2-2.251l8.525-23.971c1.204-3.387 5.463-3.387 6.668 0z"/></g></g></g></svg>