<svg id="Capa_1" enable-background="new 0 0 512 512" height="512" viewBox="0 0 512 512" width="512" xmlns="http://www.w3.org/2000/svg"><g><g><path d="m443.623 456.59c15.044-6.083 30.913-13.051 34.053-29.538 4.848-25.455-12.042-30.734-9.333-51.635 2.105-16.236 23.998-21.791 22.238-51.866-2.238-38.247-27.359-49.43-41.812-80.988-15.816-34.535-24.06-75.934-52.316-96.678-29.49-21.65-70.309-16.041-107.686-16.041s-78.196-5.609-107.686 16.041c-28.256 20.745-36.5 62.143-52.316 96.678-14.453 31.558-39.574 42.74-41.812 80.988-1.76 30.075 20.134 35.63 22.238 51.866 2.709 20.901-14.181 26.18-9.333 51.635 3.14 16.487 19.009 23.454 34.053 29.538" fill="#a183e2"/><path d="m403.862 501.737v-32.225c0-65.831-53.367-119.198-119.198-119.198-65.831 0-119.198 53.367-119.198 119.198v32.225z" fill="#d49c8d"/><path d="m358.253 462.42c-6.76-4.567-14.274-7.654-22.139-9.137v-38.378l-24.087-11.199v50.075c-9.781 2.267-18.9 7.022-26.512 13.87-.444 0-.887 0-1.33 0-7.607-6.845-16.721-11.598-26.496-13.867v-50.079l-24.087 11.199v38.377c-8.052 1.515-15.731 4.707-22.618 9.453-4.887 3.368-6.414 9.776-3.814 14.931v24.354h155.377v-25.434c2.065-5.035.395-10.998-4.294-14.165z" fill="#b2e7f1"/><path d="m344.414 454.166c.095.029.187.064.282.092 5.021 1.495 10.188 1.953 14.772 4.706.004.002.007.005.011.007h4.207c-2.99-18.763-12.542-35.333-26.227-47.299v39.553c2.339.906 4.65 1.938 6.955 2.941z" fill="#c7758d"/><path d="m362.547 476.586c2.066-5.036.396-10.999-4.294-14.166-6.76-4.567-14.274-7.654-22.139-9.137v-38.378l-24.087-11.199v1.577c12.682 12.581 20.643 30.652 20.643 50.747v6.898c0 10.737-8.705 19.442-19.442 19.442h-106.058v19.649h155.377z" fill="#a7adf1"/><g fill="#d49c8d"><circle cx="457.841" cy="302.884" r="39.474"/><circle cx="111.487" cy="302.884" r="39.474"/><path d="m318.301 400.437h-67.275c-83.598 0-151.367-67.769-151.367-151.367 0-83.598 67.769-151.367 151.367-151.367h67.275c83.598 0 151.367 67.77 151.367 151.367 0 83.597-67.769 151.367-151.367 151.367z"/></g><path d="m318.301 97.611h-19.41c67.774 0 122.715 54.941 122.715 122.715v10.421c0 67.774-54.941 122.715-122.715 122.715h-76.516c-64.857 0-117.956-50.317-122.406-114.043-.197 3.162-.309 6.347-.309 9.558v.001c0 83.598 67.769 151.367 151.367 151.367h67.275c83.598 0 151.367-67.77 151.367-151.367v-.001c-.001-83.596-67.77-151.366-151.368-151.366z" fill="#c7758d"/><path d="m82.87 271.795c-3.275-10.049-3.579-30.505-3.579-30.505 1.986-92.952 77.951-167.694 171.379-167.694h76.19c93.428 0 169.392 74.742 171.379 167.694 0 0 .425 18.031-5.693 28.228l-19.901-15.469c-39.697 12.785-90.951 2.104-132.775-31.674-24.3-19.625-41.644-44.005-51.105-69.129-9.46 25.124-26.805 49.504-51.105 69.129-41.846 33.796-93.133 44.471-132.839 31.654" fill="#a183e2"/><circle cx="326.845" cy="208.386" fill="#f7e266" r="20.87"/><circle cx="370.299" cy="208.386" fill="#e58bbd" r="20.87"/><ellipse cx="414.83" cy="200.075" fill="#eaa585" rx="20.87" ry="20.87" transform="matrix(.707 -.707 .707 .707 -19.973 351.929)"/><path d="m46.333 372.36c12.644 12.458 27.849 17.529 33.961 11.325 6.113-6.203.818-21.332-11.826-33.79s-27.849-17.529-33.961-11.325c-6.113 6.204-.818 21.332 11.826 33.79z" fill="#e58bbd"/><path d="m105.435 430.594c12.644 12.458 27.849 17.529 33.961 11.325 6.113-6.203.818-21.332-11.826-33.79s-27.849-17.529-33.961-11.325c-6.113 6.203-.818 21.331 11.826 33.79z" fill="#8bb6ef"/><path d="m69.067 430.863c12.458-12.644 17.529-27.849 11.325-33.961-6.204-6.113-21.332-.818-33.79 11.826s-17.529 27.849-11.325 33.961c6.203 6.113 21.332.818 33.79-11.826z" fill="#eaa585"/><path d="m127.301 371.761c12.458-12.644 17.529-27.849 11.325-33.961s-21.332-.817-33.79 11.826c-12.458 12.644-17.529 27.849-11.325 33.961 6.203 6.113 21.331.818 33.79-11.826z" fill="#f7e266"/><path d="m64.282 347.773c.091 12.353 22.682 42.471 22.682 42.471s22.143-30.449 22.051-42.802-10.179-22.292-22.532-22.201c-12.352.091-22.292 10.179-22.201 22.532z" fill="#f0c4db"/><path d="m44.326 412.612c12.353 0 42.638-22.367 42.638-22.367s-30.285-22.367-42.638-22.367-22.367 10.014-22.367 22.367c0 12.352 10.014 22.367 22.367 22.367z" fill="#f1c7b6"/><path d="m109.96 432.546c-.183-12.352-22.996-42.302-22.996-42.302s-21.917 30.612-21.734 42.964 10.344 22.216 22.696 22.034c12.352-.183 22.217-10.345 22.034-22.696z" fill="#b2e7f1"/><path d="m129.436 367.561c-12.353.092-42.471 22.682-42.471 22.682s30.449 22.143 42.802 22.051c12.353-.091 22.292-10.179 22.201-22.532-.092-12.353-10.18-22.292-22.532-22.201z" fill="#fbf2a8"/><path d="m69.278 397.548c4.034 9.76 15.216 14.403 24.977 10.369s14.403-15.216 10.369-24.977c-4.034-9.76-15.216-14.403-24.977-10.369-9.76 4.034-14.403 15.217-10.369 24.977z" fill="#84eac4"/></g><g><g fill="#440b29"><path d="m485.194 365.442c6.558-7.953 15.357-18.637 15.568-37.82 4.216-7.286 6.642-15.731 6.642-24.738 0-9.681-2.793-18.719-7.612-26.357.53-.548 1.004-1.153 1.404-1.818 7.409-12.348 7.18-31.513 7.129-33.635-.45-21.055-4.48-41.519-11.772-60.688 3.351-2.84 4.571-7.651 2.67-11.851-1.879-4.152-6.222-6.41-10.522-5.838-8.838-17.341-20.518-33.318-34.799-47.317-34.129-33.452-79.246-51.875-127.042-51.875h-76.19c-47.796 0-92.914 18.423-127.043 51.875-22.881 22.427-39.099 49.924-47.603 79.994-2.82-.078-4.444-.125-4.641-.131-.103-.004-.204-.005-.305-.005-5.433 0-9.917 4.322-10.078 9.79-.166 5.57 4.215 10.219 9.785 10.384.186.005.453.013.777.023-1.374 8.414-2.172 16.976-2.357 25.639-.002.122-.003.244-.001.365.031 2.085.378 19.457 3.327 30.888-6.629 8.426-10.606 19.028-10.606 30.557 0 8.478 2.153 16.456 5.923 23.438-3.045 2.694-5.508 6.027-7.179 9.787-3.246-1.981-6.524-3.553-9.715-4.617-8.723-2.909-16.094-1.905-20.759 2.83-6.488 6.585-5.328 18.331 2.058 30.202-9.65 4.548-16.348 14.365-16.348 25.721 0 11.632 7.026 21.648 17.055 26.042-2.049 3.325-3.67 6.686-4.761 9.957-2.91 8.723-1.904 16.094 2.83 20.758 2.89 2.848 6.77 4.292 11.33 4.292 2.907 0 6.089-.586 9.467-1.77 3.256-1.139 6.596-2.809 9.893-4.911 3.02 6.635 8.512 11.899 15.281 14.63.884 21.099 5.981 35.189 23.828 50.357 1.898 1.613 4.219 2.401 6.528 2.401 2.857 0 5.697-1.207 7.693-3.556 3.608-4.246 3.092-10.612-1.155-14.221-11.554-9.819-15.761-17.704-16.669-34.598 3.454-1.24 6.648-3.152 9.422-5.667 7.641 5.568 16.443 9.139 23.481 11.985.593.239 1.207.423 1.834.546 7.754 1.526 15.562 2.921 23.415 4.201v31.047c0 5.572 4.518 10.089 10.089 10.089s10.089-4.517 10.089-10.089v-32.224c0-25.498 8.794-48.98 23.507-67.575 8.794 2.999 17.925 5.261 27.323 6.707-16.806 15.64-27.341 37.931-27.341 62.645v34.166c0 3.343 2.71 6.053 6.053 6.053s6.053-2.71 6.053-6.053v-34.166c0-.84.023-1.674.051-2.508 1.114-.039 2.231-.381 3.217-1.062 8.925-6.149 19.322-9.4 30.07-9.4 13.075 0 25.734 4.913 35.649 13.832 1.111.999 2.554 1.553 4.048 1.553h1.33c1.495 0 2.937-.554 4.048-1.553 9.915-8.92 22.575-13.832 35.648-13.832 10.571 0 20.825 3.153 29.652 9.117 1.002.676 2.133 1.008 3.257 1.032.036.936.056 1.876.056 2.821v34.166c0 3.343 2.711 6.053 6.053 6.053 3.343 0 6.053-2.71 6.053-6.053v-34.166c0-24.712-10.529-47.006-27.33-62.648 9.392-1.445 18.517-3.707 27.307-6.703 14.713 18.596 23.512 42.076 23.512 67.575v32.224c0 5.572 4.517 10.089 10.089 10.089s10.089-4.517 10.089-10.089v-30.259c10.421-1.477 20.887-3.121 31.4-4.948.704-.122 1.392-.319 2.055-.587 14.295-5.781 35.9-14.516 40.181-37.003 3.212-16.862-1.538-27.051-5.356-35.236-2.764-5.928-4.761-10.211-3.882-16.99.436-3.357 2.886-6.471 6.847-11.274zm-166.892 24.906h-67.275c-40.949 0-77.871-17.525-103.698-45.454-.039-4.619-1.535-8.529-4.455-11.405-2.135-2.105-4.815-3.435-7.906-3.99-12.805-18.421-21.336-40.013-24.163-63.348 9.327 2.19 19.007 3.266 28.873 3.266 35.245-.002 72.769-13.711 104.322-39.194 4.632-3.741 9.048-7.663 13.239-11.746 2.314.004 4.624.006 6.925.006 12.876 0 25.524-.063 37.65-.202 3.952 9.962 13.679 17.028 25.031 17.028 3.709 0 7.244-.754 10.462-2.116 37.04 28.404 81.641 40.94 121.024 34.612-9.193 69.076-68.481 122.543-140.029 122.543zm-225.666-109.969c3.679 18.633 10.581 36.117 20.087 51.863-.41.017-.822.027-1.236.027-.317 0-.631-.014-.946-.024-4.995-7.742-13.639-12.903-23.465-13.047-3.134-4.67-4.973-10.278-4.973-16.313-.001-9.031 4.102-17.113 10.533-22.506zm14.566 89.326c4.058-7.51 7.389-15.261 7.808-21.017 3.706-2.856 7.537-5.059 11.066-6.294 2.185-.766 4.014-1.077 5.42-1.077 1.408 0 2.391.313 2.881.796.978.964 1.308 3.905-.159 8.304-1.185 3.553-3.349 7.419-6.162 11.171-5.744.518-13.425 3.959-20.854 8.117zm-20.674-38.411c4.348-.003 8.466 1.634 11.57 4.692s4.831 7.143 4.863 11.501c.028 3.756-3.357 11.102-7.834 18.964-5.254-1.809-11.119-1.902-16.69.103-4.588-7.787-8.074-15.073-8.102-18.826-.065-8.995 7.198-16.367 16.193-16.434zm-4.588 71.021c-3.224-1.338-5.733-3.852-7.067-7.078 0-.001 0-.001 0-.001-1.333-3.226-1.33-6.778.008-10.003 1.339-3.224 3.852-5.734 7.078-7.067 1.629-.672 3.315-.991 4.976-.991 5.135 0 10.016 3.046 12.096 8.077 2.752 6.661-.428 14.319-7.088 17.072-3.227 1.332-6.779 1.329-10.003-.009zm46.552 15.968c2.864 3.712 5.073 7.551 6.311 11.087 1.532 4.377 1.245 7.323.282 8.301-1.968 1.992-9.979.702-19.128-6.022-.38-5.711-3.861-13.464-8.122-20.992 7.395 3.97 14.988 7.205 20.657 7.626zm1.23-12.042h-.046c-3.772-.001-11.092-3.376-18.924-7.838 1.804-5.251 1.895-11.112-.11-16.678 7.793-4.593 15.085-8.083 18.841-8.11 4.349-.047 8.466 1.634 11.57 4.692s4.831 7.143 4.863 11.501c.033 4.357-1.635 8.465-4.693 11.57-3.06 3.103-7.144 4.831-11.501 4.863zm299.924-206.166c0 8.17-6.647 14.816-14.816 14.816s-14.816-6.647-14.816-14.816c0-8.171 6.647-14.818 14.816-14.818s14.816 6.647 14.816 14.818zm-14.817 26.924c14.404 0 26.201-11.37 26.89-25.606 14.5-4.527 27.01-9.13 36.185-12.731 6.249 16.532 9.851 34.321 10.247 52.851.058 2.863-.161 7.035-.785 11.202l-8.53-6.631c-2.635-2.046-6.109-2.661-9.284-1.637-28.214 9.087-61.49 5.122-92.312-10.048 8.185-2.186 14.842-8.14 17.999-15.884 4.913 5.217 11.875 8.484 19.59 8.484zm-29.713-18.613c0 8.17-6.647 14.816-14.816 14.816-8.17 0-14.816-6.647-14.816-14.816 0-8.17 6.647-14.816 14.816-14.816 8.169-.001 14.816 6.646 14.816 14.816zm-58.271 14.816c-8.17 0-14.816-6.647-14.816-14.816 0-8.17 6.647-14.816 14.816-14.816 8.17 0 14.816 6.647 14.816 14.816 0 8.17-6.646 14.816-14.816 14.816zm-24.887-25.079c-8.691.095-17.686.149-26.852.17 5.105-6.723 9.675-13.738 13.657-20.995 3.891 7.091 8.348 13.95 13.315 20.532-.04.097-.079.195-.12.293zm174.729 82.262c6.431 5.392 10.538 13.469 10.538 22.499 0 16.203-13.182 29.385-29.385 29.385-.405 0-.803-.03-1.205-.046 9.495-15.738 16.377-33.218 20.052-51.838zm-226.018-196.7h76.19c61.424 0 115.517 35.231 142.714 86.535-8.868 3.45-20.83 7.817-34.541 12.087-4.937-5.608-12.162-9.156-20.203-9.156-11.264 0-20.929 6.956-24.939 16.796-4.913-5.217-11.876-8.484-19.591-8.484-8.913 0-16.824 4.356-21.727 11.049-4.903-6.692-12.814-11.049-21.727-11.049-3.636 0-7.104.728-10.271 2.041-7.709-10.601-13.905-21.96-18.368-33.812-1.48-3.931-5.242-6.533-9.442-6.533s-7.962 2.602-9.442 6.533c-6.615 17.566-17.033 34.048-30.559 48.576-58.148-.232-118.515-1.525-151.685-2.343 21.005-64.868 82.369-112.24 153.591-112.24zm-24.255 134.642c-37.154 27.848-82.049 37.864-118.493 26.1-3.246-1.045-6.798-.385-9.447 1.759l-8.478 6.861c-.363-4.349-.562-8.612-.614-11.73.195-8.621 1.092-17.078 2.615-25.326 28.256.725 80.56 1.912 134.417 2.336zm-187.595 124.491c.963-.978 3.904-1.307 8.304.159 3.556 1.186 7.428 3.344 11.184 6.158.505 5.659 3.852 13.203 7.929 20.535-7.588-4.147-15.39-7.508-21.104-7.803-6.867-9.056-8.277-17.055-6.313-19.049zm-10.807 47.426c0-8.995 7.319-16.313 16.314-16.313 3.752 0 11.06 3.431 18.878 7.96-1.919 5.434-1.92 11.273-.001 16.709-7.818 4.529-15.125 7.959-18.877 7.959-8.995-.001-16.314-7.319-16.314-16.315zm19.815 47.852c-4.376 1.532-7.323 1.246-8.301.281-.978-.964-1.308-3.905.159-8.304 1.22-3.659 3.473-7.653 6.408-11.511 5.872-.624 13.668-4.137 21.145-8.299-4.046 7.53-7.439 15.37-7.981 21.249-3.82 2.995-7.785 5.308-11.43 6.584zm40.01 11.093c-8.989.155-16.421-7.076-16.553-16.071-.056-3.753 3.27-11.116 7.684-19.003 2.603.875 5.292 1.319 7.984 1.319 2.944 0 5.887-.528 8.714-1.575 4.647 7.754 8.187 15.016 8.243 18.776.064 4.357-1.572 8.478-4.607 11.604-3.037 3.127-7.108 4.885-11.465 4.95zm68.947 1.285c-5.04-.836-10.058-1.724-15.055-2.663.7-.487 1.368-1.024 1.979-1.644 4.664-4.733 5.56-12.119 2.522-20.798-1.108-3.167-2.714-6.413-4.734-9.621 3.075-1.418 5.903-3.389 8.35-5.873 5.328-5.407 8.232-12.566 8.176-20.158-.026-3.53-.699-6.953-1.946-10.145 7.46 5.444 15.403 10.264 23.751 14.385-11.846 16.387-19.948 35.645-23.043 56.517zm56.36 3.828c2.583-10.87 7.582-20.812 14.405-29.224v23.381c-4.997 1.352-9.824 3.315-14.405 5.843zm26.512-7.909v-31.488c0-.529-.075-1.039-.202-1.528 1.353-1.058 2.747-2.065 4.173-3.028 2.454.111 4.919.178 7.4.178h.61v36.098c-2.365-.264-4.749-.411-7.148-.411-1.619-.001-3.23.06-4.833.179zm45.194 13.909c-6.37-5.015-13.527-8.767-21.107-11.137v-38.639h42.231v38.634c-7.587 2.369-14.749 6.123-21.124 11.142zm33.231-13.68v-36.096h.221c2.48 0 4.945-.063 7.398-.174 1.541 1.041 3.04 2.138 4.496 3.289-.087.408-.134.83-.134 1.264v31.488c-1.608-.12-3.225-.18-4.849-.18-2.394 0-4.773.146-7.132.409zm38.057 7.452c-4.45-2.413-9.132-4.294-13.971-5.606v-22.901c6.577 8.25 11.424 17.933 13.971 28.507zm107.805-51.844c3.248 6.968 5.815 12.471 3.822 22.935-2.013 10.572-12.851 15.935-26.931 21.668-9.43 1.628-18.819 3.105-28.17 4.444-3.004-21.182-11.159-40.729-23.155-57.327 21.14-10.434 39.678-25.362 54.366-43.529 4.432 1.309 9.115 2.026 13.966 2.026 4.66 0 9.167-.661 13.446-1.869-.544.671-1.099 1.345-1.661 2.026-4.726 5.731-10.083 12.228-11.287 21.515-1.632 12.589 2.38 21.195 5.604 28.111z"/><path d="m194.357 294.671c-9.333 0-16.898 7.565-16.898 16.897 0 9.333 7.565 16.898 16.898 16.898s16.898-7.565 16.898-16.898c0-9.332-7.565-16.897-16.898-16.897z"/><path d="m374.97 294.671c-9.333 0-16.898 7.565-16.898 16.897 0 9.333 7.565 16.898 16.898 16.898 9.332 0 16.898-7.565 16.898-16.898 0-9.332-7.565-16.897-16.898-16.897z"/><path d="m301.562 305.515c-3.343 0-6.053 2.71-6.053 6.054 0 5.98-4.865 10.845-10.845 10.845s-10.844-4.865-10.844-10.845c0-3.343-2.71-6.054-6.053-6.054s-6.053 2.71-6.053 6.054c0 12.656 10.296 22.952 22.951 22.952 12.656 0 22.952-10.296 22.952-22.952-.002-3.344-2.712-6.054-6.055-6.054z"/></g><path d="m189.475 135.881c-3.527 0-6.952-1.853-8.803-5.147-2.731-4.857-1.007-11.008 3.85-13.739 3.317-1.865 6.772-3.637 10.271-5.268 5.049-2.353 11.053-.168 13.408 4.881s.169 11.053-4.881 13.408c-3.038 1.416-6.035 2.954-8.909 4.569-1.564.878-3.262 1.296-4.936 1.296z" fill="#fff"/><path d="m140.17 186.815c-1.471 0-2.964-.322-4.378-1.004-5.018-2.422-7.124-8.453-4.703-13.472 6.697-13.88 16.218-26.45 28.301-37.362 4.133-3.735 10.515-3.411 14.249.725 3.735 4.135 3.41 10.515-.725 14.249-10.137 9.155-18.094 19.637-23.65 31.156-1.74 3.607-5.343 5.708-9.094 5.708z" fill="#fff"/></g><g><path d="m92.575 2.553 8.57 24.096c.367 1.032 1.093 1.849 2.01 2.262l21.409 9.646c3.024 1.363 3.024 6.182 0 7.544l-21.409 9.646c-.917.413-1.643 1.231-2.01 2.262l-8.57 24.096c-1.211 3.404-5.492 3.404-6.703 0l-8.57-24.096c-.367-1.032-1.093-1.849-2.01-2.262l-21.409-9.646c-3.025-1.363-3.025-6.182 0-7.544l21.409-9.646c.917-.413 1.643-1.231 2.01-2.262l8.57-24.096c1.211-3.404 5.492-3.404 6.703 0z" fill="#cab4ef"/><ellipse cx="21.959" cy="123.33" fill="#a183e2" rx="18.712" ry="18.712" transform="matrix(.189 -.982 .982 .189 -103.299 121.57)"/><path d="m420.255 20.935c0 4.376-3.548 7.924-7.924 7.924-4.377 0-7.924-3.548-7.924-7.924 0-4.377 3.548-7.925 7.924-7.925s7.924 3.548 7.924 7.925z" fill="#a183e2"/><path d="m483.342 22.829 6.357 17.874c.272.765.811 1.372 1.491 1.678l15.881 7.155c2.243 1.011 2.243 4.586 0 5.596l-15.881 7.155c-.68.306-1.219.913-1.491 1.678l-6.357 17.874c-.898 2.525-4.074 2.525-4.972 0l-6.357-17.874c-.272-.765-.811-1.372-1.491-1.678l-15.881-7.155c-2.243-1.011-2.243-4.585 0-5.596l15.881-7.155c.68-.306 1.219-.913 1.491-1.678l6.357-17.874c.898-2.526 4.074-2.526 4.972 0z" fill="#cab4ef"/></g></g></svg>