<svg id="Capa_1" enable-background="new 0 0 512 512" height="512" viewBox="0 0 512 512" width="512" xmlns="http://www.w3.org/2000/svg"><g><g><path d="m371.365 501.793v-31.638c0-64.631-52.394-117.025-117.025-117.025-64.632 0-117.026 52.394-117.026 117.025v31.638z" fill="#fbf2a8"/><path d="m177.052 460.874h-39.372c-.24 3.063-.366 6.157-.366 9.282v31.638h39.738z" fill="#b07676"/><path d="m370.999 460.874h-36.73v40.92h37.097v-31.638c-.001-3.125-.127-6.219-.367-9.282z" fill="#b07676"/><path d="m262.536 394.214c22.595 10.162 38.488 34.281 38.488 62.428v6.772c0 10.542-8.546 19.088-19.088 19.088h-105.714v19.291h156.233v-29.893c.001-40.373-30.63-73.588-69.919-77.686z" fill="#edb6a8"/><path d="m189.801 429.12 7.585 10.192c9.974 13.402 28.807 13.311 38.671-.187l17.397-23.807 17.142 23.771c9.761 13.535 28.538 13.795 38.612.533l7.771-10.229v-40.927h-127.049s-.129 40.152-.129 40.654z" fill="#fff"/><circle cx="424.359" cy="306.565" fill="#b07676" r="38.755"/><circle cx="84.319" cy="306.565" fill="#b07676" r="38.755"/><path d="m287.363 402.339h-66.049c-82.074 0-148.608-66.534-148.608-148.608 0-82.074 66.534-148.609 148.608-148.609h66.049c82.074 0 148.608 66.534 148.608 148.609.001 82.074-66.533 148.608-148.608 148.608z" fill="#b07676"/><path d="m287.363 106.184h-19.057c66.539 0 120.479 53.94 120.479 120.479v10.231c0 66.539-53.94 120.479-120.479 120.479h-75.122c-63.675 0-115.806-49.4-120.175-111.964-.194 3.104-.303 6.231-.303 9.384v.001c0 82.074 66.534 148.608 148.608 148.608h66.049c82.074 0 148.608-66.534 148.608-148.608v-.001c.001-82.075-66.533-148.609-148.608-148.609z" fill="#a45775"/><path d="m157.784 103.098c-2.524-31.315 36.099-59.979 86.268-64.023s92.885 18.064 95.409 49.379-41 74.521-91.169 78.565-87.984-32.606-90.508-63.921z" fill="#a183e2"/><path d="m52.113 281.257c-3.217-9.87-3.515-29.961-3.515-29.961 1.951-91.294 76.56-164.704 168.322-164.704h74.831c91.762 0 166.372 73.41 168.322 164.704 0 0 .418 17.71-5.591 27.725l-19.546-15.193c-38.989 12.557-89.329 2.067-130.407-31.109-23.867-19.275-40.902-43.221-50.193-67.896-9.292 24.676-26.327 48.621-50.193 67.896-41.1 33.194-91.472 43.678-130.47 31.089" fill="#a183e2"/><g fill="#e58bbd"><circle cx="66.734" cy="402.296" r="16.641"/><circle cx="101.904" cy="402.296" r="16.641"/><circle cx="406.438" cy="402.296" r="16.641"/><circle cx="441.608" cy="402.296" r="16.641"/></g></g><g><g fill="#440b29"><ellipse cx="165.678" cy="315.091" rx="16.59" ry="16.59" transform="matrix(.999 -.045 .045 .999 -14.087 7.819)"/><ellipse cx="343" cy="315.091" rx="16.59" ry="16.59" transform="matrix(.999 -.045 .045 .999 -13.926 15.867)"/><path d="m270.929 308.967c-3.382 0-6.124 2.742-6.124 6.124 0 5.771-4.695 10.466-10.466 10.466s-10.466-4.695-10.466-10.466c0-3.382-2.742-6.124-6.124-6.124s-6.124 2.742-6.124 6.124c0 12.525 10.19 22.714 22.714 22.714 12.525 0 22.714-10.19 22.714-22.714 0-3.382-2.742-6.124-6.124-6.124z"/><path d="m410.525 240.708c3.382 0 6.124-2.742 6.124-6.124v-10.695c0-3.382-2.742-6.124-6.124-6.124s-6.124 2.742-6.124 6.124v10.695c0 3.382 2.742 6.124 6.124 6.124z"/><path d="m375.213 228.87c3.382 0 6.124-2.742 6.124-6.124v-10.696c0-3.382-2.742-6.124-6.124-6.124s-6.124 2.742-6.124 6.124v10.696c0 3.382 2.742 6.124 6.124 6.124z"/><path d="m441.608 379.53c-.162 0-.321.009-.482.013l-6.518-25.104c22.093-4.725 38.713-24.392 38.713-47.874 0-9.812-2.912-18.951-7.902-26.621 5.081-11.902 4.903-27.008 4.859-28.867-1.002-46.882-20.017-90.798-53.542-123.658-19.353-18.969-42.302-33.014-67.274-41.519-2.125-18.06-14.543-33.796-35.148-44.461-19.695-10.193-44.94-14.647-71.082-12.538-26.143 2.107-50.348 10.546-68.157 23.762-14.387 10.677-23.469 23.559-26.495 37.238-20.859 8.638-40.071 21.273-56.645 37.518-33.525 32.86-52.54 76.776-53.542 123.658-.003.124-.003.247-.002.37.031 2.081.38 19.631 3.401 30.884-4.091 7.15-6.435 15.422-6.435 24.233 0 23.369 16.462 42.954 38.395 47.8l-6.537 25.178c-.161-.004-.32-.013-.481-.013-12.552 0-22.765 10.213-22.765 22.765s10.213 22.765 22.765 22.765c7.075 0 13.406-3.245 17.585-8.325 4.179 5.079 10.51 8.325 17.585 8.325 12.553 0 22.765-10.212 22.765-22.765 0-12.552-10.213-22.765-22.765-22.765-.162 0-.321.009-.482.013l-6.54-25.189c1.024-.227 2.036-.484 3.035-.774 14.357 17.711 32.44 32.279 53.047 42.505-15.004 20.877-23.857 46.457-23.857 74.07v31.637c0 5.637 4.57 10.207 10.207 10.207s10.207-4.569 10.207-10.207v-31.637c0-.874.013-1.745.034-2.614h22.641c-.063 1.33-.097 2.668-.097 4.013v33.82c0 3.382 2.742 6.124 6.124 6.124s6.124-2.742 6.124-6.124v-33.82c0-11.526 2.731-22.422 7.569-32.089 6.747 8.268 16.374 12.973 26.692 12.973h.148c10.933-.048 21.067-5.362 27.803-14.58l8.854-12.116 8.684 12.042c6.671 9.251 16.758 14.635 27.675 14.771.142.002.282.003.423.003 10.728 0 20.739-5.093 27.518-14.018.115-.151.215-.314.326-.468 5.288 10.007 8.294 21.397 8.294 33.483v33.82c0 3.382 2.742 6.124 6.124 6.124 3.383 0 6.124-2.742 6.124-6.124v-33.82c0-1.346-.034-2.683-.097-4.013h22.644c.021.869.032 1.74.032 2.614v31.637c0 5.637 4.57 10.207 10.207 10.207s10.207-4.569 10.207-10.207v-31.637c0-27.613-8.845-53.198-23.846-74.075 20.598-10.224 38.674-24.786 53.026-42.488.897.261 1.806.493 2.724.703l-6.555 25.246c-.161-.004-.32-.013-.482-.013-12.552 0-22.765 10.213-22.765 22.765s10.213 22.765 22.765 22.765c7.075 0 13.406-3.245 17.585-8.324 4.178 5.079 10.51 8.324 17.585 8.324 12.552 0 22.765-10.212 22.765-22.765-.003-12.55-10.216-22.763-22.768-22.763zm-17.249-44.417c-.222 0-.439-.016-.66-.021 9.118-15.224 15.759-32.093 19.364-50.048 6.021 5.236 9.844 12.934 9.844 21.521.001 15.741-12.806 28.548-28.548 28.548zm-237.118-266.057c14.78-10.969 35.247-18.003 57.631-19.807 3.731-.301 7.432-.45 11.086-.45 18.269 0 35.353 3.72 48.974 10.77 10.596 5.484 18.017 12.464 21.719 20.216-11.379-2.247-23.056-3.399-34.9-3.399h-74.831c-14.413 0-28.576 1.71-42.258 5.02 3.152-4.317 7.361-8.478 12.579-12.35zm29.679 27.742h74.831c85.364 0 156.295 69.405 158.119 154.738.055 2.336-.12 6.309-.702 10.426l-7.968-6.194c-2.665-2.07-6.18-2.692-9.393-1.657-37.283 12.007-83.594.768-120.866-29.334-21.739-17.557-38.01-39.533-47.055-63.553-1.498-3.977-5.302-6.61-9.552-6.61s-8.055 2.633-9.552 6.61c-9.044 24.019-25.315 45.995-47.054 63.553-37.296 30.121-83.629 41.355-120.922 29.316-3.28-1.059-6.876-.39-9.557 1.78l-7.889 6.386c-.327-4.064-.506-8.01-.556-10.933 1.925-85.225 72.816-154.528 158.116-154.528zm-161.149 209.767c0-8.587 3.824-16.285 9.844-21.522 3.605 17.956 10.246 34.826 19.365 50.051-.221.005-.439.018-.661.018-15.742.001-28.548-12.806-28.548-28.547zm10.963 106.247c-5.799 0-10.517-4.718-10.517-10.517s4.718-10.517 10.517-10.517 10.517 4.718 10.517 10.517c-.001 5.799-4.718 10.517-10.517 10.517zm45.687-10.517c0 5.799-4.718 10.517-10.517 10.517s-10.517-4.718-10.517-10.517 4.718-10.517 10.517-10.517 10.517 4.718 10.517 10.517zm-28.102-14.44c-1.525-1.854-3.341-3.46-5.372-4.757l5.372-20.691 5.372 20.691c-2.031 1.298-3.847 2.903-5.372 4.757zm87.371 67.438h-23.131c2.675-19.119 10.429-36.629 21.852-51.124 4.359 1.479 8.803 2.773 13.322 3.874l-.046 14.393c-.003 1.006.074 2.008.188 3.005-5.858 8.921-10.056 19.02-12.185 29.852zm62.979-24.661c-4.417 6.044-10.966 9.528-17.968 9.559h-.093c-6.957 0-13.486-3.415-17.925-9.38-1.781-2.393-2.757-5.354-2.747-8.337l.038-11.949c8.254 1.329 16.718 2.021 25.341 2.021h26.571zm73.29.499c-4.496 5.919-11.046 9.291-18.035 9.177-6.995-.087-13.517-3.618-17.894-9.687l-13.034-18.075h28.368c7.978 0 15.817-.601 23.482-1.742v11.756c-.001 3.077-1.026 6.121-2.887 8.571zm52.162 24.162h-23.135c-2.332-11.853-7.158-22.816-13.91-32.328.002-.136.017-.271.017-.406v-14.068c5.159-1.191 10.22-2.64 15.175-4.322 11.423 14.496 19.179 32.006 21.853 51.124zm-72.757-63.16h-66.049c-68.339 0-125.255-49.793-136.408-115.001 40.762 7.559 87.614-5.756 125.649-36.474 18.243-14.734 33.108-32.301 43.78-51.598 10.673 19.297 25.538 36.864 43.78 51.598 31.043 25.072 67.963 38.56 102.654 38.558 7.81-.001 15.506-.698 22.999-2.088-11.152 65.21-68.065 115.005-136.405 115.005zm136.659-29.724 5.372 20.69c-2.031 1.297-3.846 2.902-5.372 4.756-1.526-1.854-3.341-3.459-5.372-4.756zm-17.585 50.403c-5.799 0-10.517-4.718-10.517-10.517s4.718-10.517 10.517-10.517 10.517 4.718 10.517 10.517-4.718 10.517-10.517 10.517zm35.17 0c-5.799 0-10.517-4.718-10.517-10.517s4.718-10.517 10.517-10.517 10.517 4.718 10.517 10.517-4.718 10.517-10.517 10.517z"/></g><path d="m126.127 247.15c-4.819 0-9.106-3.427-10.022-8.336-1.035-5.541 2.619-10.872 8.16-11.906 2.994-.559 6-1.245 8.936-2.039 5.441-1.472 11.045 1.746 12.518 7.188 1.472 5.441-1.746 11.045-7.188 12.518-3.457.935-6.996 1.742-10.52 2.4-.633.117-1.263.175-1.884.175z" fill="#fff"/><path d="m164.732 232.954c-3.517 0-6.94-1.82-8.835-5.08-2.832-4.874-1.177-11.121 3.697-13.953 10.27-5.967 19.125-13.422 26.317-22.154 3.583-4.352 10.014-4.974 14.367-1.39 4.351 3.584 4.973 10.016 1.39 14.367-8.739 10.612-19.445 19.638-31.819 26.828-1.612.936-3.377 1.382-5.117 1.382z" fill="#fff"/></g><g><path d="m80.902 7.432 8.669 24.377c.371 1.044 1.106 1.871 2.033 2.289l21.658 9.758c3.06 1.379 3.06 6.254 0 7.632l-21.658 9.758c-.927.418-1.662 1.245-2.033 2.289l-8.669 24.377c-1.225 3.444-5.556 3.444-6.781 0l-8.669-24.377c-.371-1.044-1.106-1.871-2.033-2.289l-21.658-9.758c-3.06-1.379-3.06-6.254 0-7.632l21.658-9.758c.927-.418 1.662-1.245 2.033-2.289l8.669-24.377c1.225-3.444 5.557-3.444 6.781 0z" fill="#cab4ef"/><ellipse cx="377.58" cy="18.93" fill="#a183e2" rx="18.93" ry="18.93" transform="matrix(.189 -.982 .982 .189 287.588 386.117)"/><path d="m26.285 136.489c0 4.427-3.589 8.017-8.017 8.017s-8.017-3.589-8.017-8.017c0-4.427 3.589-8.017 8.017-8.017 4.428.001 8.017 3.59 8.017 8.017z" fill="#a183e2"/><path d="m476.041 66.611 6.431 18.082c.275.774.82 1.388 1.508 1.698l16.065 7.238c2.27 1.023 2.27 4.639 0 5.661l-16.065 7.238c-.688.31-1.233.923-1.508 1.698l-6.431 18.082c-.909 2.555-4.122 2.555-5.03 0l-6.431-18.082c-.275-.774-.82-1.388-1.508-1.698l-16.065-7.238c-2.27-1.023-2.27-4.639 0-5.661l16.065-7.238c.688-.31 1.233-.924 1.508-1.698l6.431-18.082c.908-2.555 4.121-2.555 5.03 0z" fill="#cab4ef"/></g></g></svg>